<?xml version="1.0" encoding="UTF-8" standalone="no"?>
<!DOCTYPE svg PUBLIC "-//W3C//DTD SVG 1.1//EN"
 "http://www.w3.org/Graphics/SVG/1.1/DTD/svg11.dtd">
<!-- Generated by graphviz version 2.40.1 (20161225.0304)
 -->
<!-- Title: neon::solid::femSubmesh::geometric_tangent_stiffness Pages: 1 -->
<svg width="482pt" height="88pt"
 viewBox="0.00 0.00 482.00 88.00" xmlns="http://www.w3.org/2000/svg" xmlns:xlink="http://www.w3.org/1999/xlink">
<g id="graph0" class="graph" transform="scale(1 1) rotate(0) translate(4 84)">
<title>neon::solid::femSubmesh::geometric_tangent_stiffness</title>
<polygon fill="#ffffff" stroke="transparent" points="-4,4 -4,-84 478,-84 478,4 -4,4"/>
<!-- Node49 -->
<g id="node1" class="node">
<title>Node49</title>
<polygon fill="#bfbfbf" stroke="#000000" points="0,-24.5 0,-54.5 146,-54.5 146,-24.5 0,-24.5"/>
<text text-anchor="start" x="8" y="-42.5" font-family="Helvetica,sans-Serif" font-size="10.00" fill="#000000">neon::solid::femSubmesh</text>
<text text-anchor="middle" x="73" y="-31.5" font-family="Helvetica,sans-Serif" font-size="10.00" fill="#000000">::geometric_tangent_stiffness</text>
</g>
<!-- Node50 -->
<g id="node2" class="node">
<title>Node50</title>
<g id="a_node2"><a xlink:href="classneon_1_1solid_1_1femSubmesh.html#abdc355d969d95032d707ab251e4db75d" target="_top" xlink:title="neon::solid::femSubmesh\l::tangent_stiffness">
<polygon fill="#ffffff" stroke="#000000" points="182,-49.5 182,-79.5 310,-79.5 310,-49.5 182,-49.5"/>
<text text-anchor="start" x="190" y="-67.5" font-family="Helvetica,sans-Serif" font-size="10.00" fill="#000000">neon::solid::femSubmesh</text>
<text text-anchor="middle" x="246" y="-56.5" font-family="Helvetica,sans-Serif" font-size="10.00" fill="#000000">::tangent_stiffness</text>
</a>
</g>
</g>
<!-- Node49&#45;&gt;Node50 -->
<g id="edge1" class="edge">
<title>Node49&#45;&gt;Node50</title>
<path fill="none" stroke="#191970" d="M156.2156,-51.5254C164.853,-52.7736 173.5342,-54.0281 181.9139,-55.239"/>
<polygon fill="#191970" stroke="#191970" points="156.5146,-48.0323 146.1168,-50.066 155.5134,-54.9603 156.5146,-48.0323"/>
</g>
<!-- Node52 -->
<g id="node4" class="node">
<title>Node52</title>
<g id="a_node4"><a xlink:href="classneon_1_1solid_1_1femSubmesh.html#ab924d16740c35a9af36eb08fab10391b" target="_top" xlink:title="neon::solid::femSubmesh\l::deformation_gradient">
<polygon fill="#ffffff" stroke="#000000" points="182,-.5 182,-30.5 310,-30.5 310,-.5 182,-.5"/>
<text text-anchor="start" x="190" y="-18.5" font-family="Helvetica,sans-Serif" font-size="10.00" fill="#000000">neon::solid::femSubmesh</text>
<text text-anchor="middle" x="246" y="-7.5" font-family="Helvetica,sans-Serif" font-size="10.00" fill="#000000">::deformation_gradient</text>
</a>
</g>
</g>
<!-- Node49&#45;&gt;Node52 -->
<g id="edge3" class="edge">
<title>Node49&#45;&gt;Node52</title>
<path fill="none" stroke="#191970" d="M156.2156,-27.9556C164.853,-26.7574 173.5342,-25.5531 181.9139,-24.3906"/>
<polygon fill="#191970" stroke="#191970" points="155.541,-24.5156 146.1168,-29.3566 156.5029,-31.4492 155.541,-24.5156"/>
</g>
<!-- Node51 -->
<g id="node3" class="node">
<title>Node51</title>
<g id="a_node3"><a xlink:href="classneon_1_1solid_1_1femSubmesh.html#a6e725b9d73d74ff4f5971f2f7f74225c" target="_top" xlink:title="neon::solid::femSubmesh\l::internal_variables">
<polygon fill="#ffffff" stroke="#000000" points="346,-49.5 346,-79.5 474,-79.5 474,-49.5 346,-49.5"/>
<text text-anchor="start" x="354" y="-67.5" font-family="Helvetica,sans-Serif" font-size="10.00" fill="#000000">neon::solid::femSubmesh</text>
<text text-anchor="middle" x="410" y="-56.5" font-family="Helvetica,sans-Serif" font-size="10.00" fill="#000000">::internal_variables</text>
</a>
</g>
</g>
<!-- Node50&#45;&gt;Node51 -->
<g id="edge2" class="edge">
<title>Node50&#45;&gt;Node51</title>
<path fill="none" stroke="#191970" d="M320.5641,-64.5C329.0037,-64.5 337.5492,-64.5 345.8391,-64.5"/>
<polygon fill="#191970" stroke="#191970" points="320.3465,-61.0001 310.3464,-64.5 320.3464,-68.0001 320.3465,-61.0001"/>
</g>
</g>
</svg>
