<?xml version="1.0" encoding="UTF-8" standalone="no"?>
<!DOCTYPE svg PUBLIC "-//W3C//DTD SVG 1.1//EN"
 "http://www.w3.org/Graphics/SVG/1.1/DTD/svg11.dtd">
<!-- Generated by graphviz version 2.40.1 (20161225.0304)
 -->
<!-- Title: neon::solid::femStaticMatrix::is_converged Pages: 1 -->
<svg width="694pt" height="61pt"
 viewBox="0.00 0.00 694.00 61.00" xmlns="http://www.w3.org/2000/svg" xmlns:xlink="http://www.w3.org/1999/xlink">
<g id="graph0" class="graph" transform="scale(1 1) rotate(0) translate(4 57)">
<title>neon::solid::femStaticMatrix::is_converged</title>
<polygon fill="#ffffff" stroke="transparent" points="-4,4 -4,-57 690,-57 690,4 -4,4"/>
<!-- Node66 -->
<g id="node1" class="node">
<title>Node66</title>
<polygon fill="#bfbfbf" stroke="#000000" points="0,-.5 0,-30.5 139,-30.5 139,-.5 0,-.5"/>
<text text-anchor="start" x="8" y="-18.5" font-family="Helvetica,sans-Serif" font-size="10.00" fill="#000000">neon::solid::femStaticMatrix</text>
<text text-anchor="middle" x="69.5" y="-7.5" font-family="Helvetica,sans-Serif" font-size="10.00" fill="#000000">::is_converged</text>
</g>
<!-- Node67 -->
<g id="node2" class="node">
<title>Node67</title>
<g id="a_node2"><a xlink:href="classneon_1_1solid_1_1femStaticMatrix.html#a9d09a3000b8ab1f5088e65a991325514" target="_top" xlink:title="neon::solid::femStaticMatrix\l::apply_displacement_boundaries">
<polygon fill="#ffffff" stroke="#000000" points="175,-.5 175,-30.5 336,-30.5 336,-.5 175,-.5"/>
<text text-anchor="start" x="183" y="-18.5" font-family="Helvetica,sans-Serif" font-size="10.00" fill="#000000">neon::solid::femStaticMatrix</text>
<text text-anchor="middle" x="255.5" y="-7.5" font-family="Helvetica,sans-Serif" font-size="10.00" fill="#000000">::apply_displacement_boundaries</text>
</a>
</g>
</g>
<!-- Node66&#45;&gt;Node67 -->
<g id="edge1" class="edge">
<title>Node66&#45;&gt;Node67</title>
<path fill="none" stroke="#191970" d="M149.2481,-15.5C157.7065,-15.5 166.3142,-15.5 174.7836,-15.5"/>
<polygon fill="#191970" stroke="#191970" points="149.0241,-12.0001 139.024,-15.5 149.024,-19.0001 149.0241,-12.0001"/>
</g>
<!-- Node68 -->
<g id="node3" class="node">
<title>Node68</title>
<g id="a_node3"><a xlink:href="classneon_1_1solid_1_1femStaticMatrix.html#a1b4ec4af5d4aa93d28a374c0f4f7e5d3" target="_top" xlink:title="neon::solid::femStaticMatrix\l::compute_sparsity_pattern">
<polygon fill="#ffffff" stroke="#000000" points="372,-22.5 372,-52.5 511,-52.5 511,-22.5 372,-22.5"/>
<text text-anchor="start" x="380" y="-40.5" font-family="Helvetica,sans-Serif" font-size="10.00" fill="#000000">neon::solid::femStaticMatrix</text>
<text text-anchor="middle" x="441.5" y="-29.5" font-family="Helvetica,sans-Serif" font-size="10.00" fill="#000000">::compute_sparsity_pattern</text>
</a>
</g>
</g>
<!-- Node67&#45;&gt;Node68 -->
<g id="edge2" class="edge">
<title>Node67&#45;&gt;Node68</title>
<path fill="none" stroke="#191970" d="M346.1558,-26.2227C354.8326,-27.249 363.5367,-28.2785 371.9656,-29.2755"/>
<polygon fill="#191970" stroke="#191970" points="346.3424,-22.7205 336.0005,-25.0216 345.5202,-29.672 346.3424,-22.7205"/>
</g>
<!-- Node69 -->
<g id="node4" class="node">
<title>Node69</title>
<g id="a_node4"><a xlink:href="classneon_1_1solid_1_1femStaticMatrix.html#a38f9c7ef5b0a03920dd67cc054a83042" target="_top" xlink:title="neon::solid::femStaticMatrix\l::assemble_stiffness">
<polygon fill="#ffffff" stroke="#000000" points="547,-.5 547,-30.5 686,-30.5 686,-.5 547,-.5"/>
<text text-anchor="start" x="555" y="-18.5" font-family="Helvetica,sans-Serif" font-size="10.00" fill="#000000">neon::solid::femStaticMatrix</text>
<text text-anchor="middle" x="616.5" y="-7.5" font-family="Helvetica,sans-Serif" font-size="10.00" fill="#000000">::assemble_stiffness</text>
</a>
</g>
</g>
<!-- Node68&#45;&gt;Node69 -->
<g id="edge3" class="edge">
<title>Node68&#45;&gt;Node69</title>
<path fill="none" stroke="#191970" d="M521.1455,-27.4874C529.7018,-26.4118 538.359,-25.3234 546.7863,-24.264"/>
<polygon fill="#191970" stroke="#191970" points="520.6528,-24.0217 511.1675,-28.7418 521.526,-30.9671 520.6528,-24.0217"/>
</g>
<!-- Node69&#45;&gt;Node67 -->
<g id="edge4" class="edge">
<title>Node69&#45;&gt;Node67</title>
<path fill="none" stroke="#191970" d="M536.8001,-13.8286C528.0935,-13.6938 519.3607,-13.5792 511,-13.5 449.225,-12.9145 433.7755,-12.9698 372,-13.5 360.3689,-13.5998 348.0854,-13.7557 336.0293,-13.9374"/>
<polygon fill="#191970" stroke="#191970" points="536.929,-17.331 546.9849,-13.9951 537.0435,-10.332 536.929,-17.331"/>
</g>
</g>
</svg>
