<?xml version="1.0" encoding="UTF-8" standalone="no"?>
<!DOCTYPE svg PUBLIC "-//W3C//DTD SVG 1.1//EN"
 "http://www.w3.org/Graphics/SVG/1.1/DTD/svg11.dtd">
<!-- Generated by graphviz version 2.40.1 (20161225.0304)
 -->
<!-- Title: neon::solid::femSubmesh::femSubmesh Pages: 1 -->
<svg width="310pt" height="127pt"
 viewBox="0.00 0.00 310.00 126.50" xmlns="http://www.w3.org/2000/svg" xmlns:xlink="http://www.w3.org/1999/xlink">
<g id="graph0" class="graph" transform="scale(1 1) rotate(0) translate(4 122.5)">
<title>neon::solid::femSubmesh::femSubmesh</title>
<polygon fill="#ffffff" stroke="transparent" points="-4,4 -4,-122.5 306,-122.5 306,4 -4,4"/>
<!-- Node0 -->
<g id="node1" class="node">
<title>Node0</title>
<polygon fill="#bfbfbf" stroke="#000000" points="0,-49.5 0,-79.5 128,-79.5 128,-49.5 0,-49.5"/>
<text text-anchor="start" x="8" y="-67.5" font-family="Helvetica,sans-Serif" font-size="10.00" fill="#000000">neon::solid::femSubmesh</text>
<text text-anchor="middle" x="64" y="-56.5" font-family="Helvetica,sans-Serif" font-size="10.00" fill="#000000">::femSubmesh</text>
</g>
<!-- Node1 -->
<g id="node2" class="node">
<title>Node1</title>
<g id="a_node2"><a xlink:href="classneon_1_1InternalVariables.html#a766b755cf1addd04a799878ed29b5350" target="_top" xlink:title="neon::InternalVariables::add">
<polygon fill="#ffffff" stroke="#000000" points="164,-99 164,-118 302,-118 302,-99 164,-99"/>
<text text-anchor="middle" x="233" y="-106" font-family="Helvetica,sans-Serif" font-size="10.00" fill="#000000">neon::InternalVariables::add</text>
</a>
</g>
</g>
<!-- Node0&#45;&gt;Node1 -->
<g id="edge1" class="edge">
<title>Node0&#45;&gt;Node1</title>
<path fill="none" stroke="#191970" d="M121.6875,-79.5192C142.874,-85.0352 166.5691,-91.2044 186.6342,-96.4284"/>
<polygon fill="#191970" stroke="#191970" points="185.9044,-99.855 196.4637,-98.9876 187.6681,-93.0809 185.9044,-99.855"/>
</g>
<!-- Node2 -->
<g id="node3" class="node">
<title>Node2</title>
<g id="a_node3"><a xlink:href="classneon_1_1InternalVariables.html#a51142dd9aa3a7efd2c5285f3330df172" target="_top" xlink:title="neon::InternalVariables\l::commit">
<polygon fill="#ffffff" stroke="#000000" points="175,-49.5 175,-79.5 291,-79.5 291,-49.5 175,-49.5"/>
<text text-anchor="start" x="183" y="-67.5" font-family="Helvetica,sans-Serif" font-size="10.00" fill="#000000">neon::InternalVariables</text>
<text text-anchor="middle" x="233" y="-56.5" font-family="Helvetica,sans-Serif" font-size="10.00" fill="#000000">::commit</text>
</a>
</g>
</g>
<!-- Node0&#45;&gt;Node2 -->
<g id="edge2" class="edge">
<title>Node0&#45;&gt;Node2</title>
<path fill="none" stroke="#191970" d="M128.3738,-64.5C140.2057,-64.5 152.5967,-64.5 164.5435,-64.5"/>
<polygon fill="#191970" stroke="#191970" points="164.9026,-68.0001 174.9026,-64.5 164.9026,-61.0001 164.9026,-68.0001"/>
</g>
<!-- Node3 -->
<g id="node4" class="node">
<title>Node3</title>
<g id="a_node4"><a xlink:href="classneon_1_1InternalVariables.html#aab8c6b2148d69a3a3ad6eec0e93a2ca4" target="_top" xlink:title="neon::InternalVariables\l::revert">
<polygon fill="#ffffff" stroke="#000000" points="175,-.5 175,-30.5 291,-30.5 291,-.5 175,-.5"/>
<text text-anchor="start" x="183" y="-18.5" font-family="Helvetica,sans-Serif" font-size="10.00" fill="#000000">neon::InternalVariables</text>
<text text-anchor="middle" x="233" y="-7.5" font-family="Helvetica,sans-Serif" font-size="10.00" fill="#000000">::revert</text>
</a>
</g>
</g>
<!-- Node0&#45;&gt;Node3 -->
<g id="edge3" class="edge">
<title>Node0&#45;&gt;Node3</title>
<path fill="none" stroke="#191970" d="M116.0846,-49.3986C133.5952,-44.3215 153.2949,-38.6098 171.4622,-33.3423"/>
<polygon fill="#191970" stroke="#191970" points="172.4577,-36.6979 181.0874,-30.5516 170.5083,-29.9748 172.4577,-36.6979"/>
</g>
</g>
</svg>
