<?xml version="1.0" encoding="UTF-8" standalone="no"?>
<!DOCTYPE svg PUBLIC "-//W3C//DTD SVG 1.1//EN"
 "http://www.w3.org/Graphics/SVG/1.1/DTD/svg11.dtd">
<!-- Generated by graphviz version 2.40.1 (20161225.0304)
 -->
<!-- Title: neon::solid::femMesh::meshes Pages: 1 -->
<svg width="665pt" height="83pt"
 viewBox="0.00 0.00 665.00 83.00" xmlns="http://www.w3.org/2000/svg" xmlns:xlink="http://www.w3.org/1999/xlink">
<g id="graph0" class="graph" transform="scale(1 1) rotate(0) translate(4 79)">
<title>neon::solid::femMesh::meshes</title>
<polygon fill="#ffffff" stroke="transparent" points="-4,4 -4,-79 661,-79 661,4 -4,4"/>
<!-- Node6 -->
<g id="node1" class="node">
<title>Node6</title>
<polygon fill="#bfbfbf" stroke="#000000" points="0,-22.5 0,-52.5 110,-52.5 110,-22.5 0,-22.5"/>
<text text-anchor="start" x="8" y="-40.5" font-family="Helvetica,sans-Serif" font-size="10.00" fill="#000000">neon::solid::femMesh</text>
<text text-anchor="middle" x="55" y="-29.5" font-family="Helvetica,sans-Serif" font-size="10.00" fill="#000000">::meshes</text>
</g>
<!-- Node7 -->
<g id="node2" class="node">
<title>Node7</title>
<g id="a_node2"><a xlink:href="classneon_1_1solid_1_1femStaticMatrix.html#a1b4ec4af5d4aa93d28a374c0f4f7e5d3" target="_top" xlink:title="neon::solid::femStaticMatrix\l::compute_sparsity_pattern">
<polygon fill="#ffffff" stroke="#000000" points="146,-.5 146,-30.5 285,-30.5 285,-.5 146,-.5"/>
<text text-anchor="start" x="154" y="-18.5" font-family="Helvetica,sans-Serif" font-size="10.00" fill="#000000">neon::solid::femStaticMatrix</text>
<text text-anchor="middle" x="215.5" y="-7.5" font-family="Helvetica,sans-Serif" font-size="10.00" fill="#000000">::compute_sparsity_pattern</text>
</a>
</g>
</g>
<!-- Node6&#45;&gt;Node7 -->
<g id="edge1" class="edge">
<title>Node6&#45;&gt;Node7</title>
<path fill="none" stroke="#191970" d="M120.3867,-28.5373C128.8232,-27.3809 137.4867,-26.1934 145.9866,-25.0283"/>
<polygon fill="#191970" stroke="#191970" points="119.667,-25.1032 110.235,-29.9288 120.6177,-32.0383 119.667,-25.1032"/>
</g>
<!-- Node8 -->
<g id="node3" class="node">
<title>Node8</title>
<g id="a_node3"><a xlink:href="classneon_1_1solid_1_1femStaticMatrix.html#a38f9c7ef5b0a03920dd67cc054a83042" target="_top" xlink:title="neon::solid::femStaticMatrix\l::assemble_stiffness">
<polygon fill="#ffffff" stroke="#000000" points="321,-44.5 321,-74.5 460,-74.5 460,-44.5 321,-44.5"/>
<text text-anchor="start" x="329" y="-62.5" font-family="Helvetica,sans-Serif" font-size="10.00" fill="#000000">neon::solid::femStaticMatrix</text>
<text text-anchor="middle" x="390.5" y="-51.5" font-family="Helvetica,sans-Serif" font-size="10.00" fill="#000000">::assemble_stiffness</text>
</a>
</g>
</g>
<!-- Node6&#45;&gt;Node8 -->
<g id="edge5" class="edge">
<title>Node6&#45;&gt;Node8</title>
<path fill="none" stroke="#191970" d="M120.1245,-41.7705C177.8345,-45.5547 261.8619,-51.0647 320.8871,-54.9352"/>
<polygon fill="#191970" stroke="#191970" points="120.2329,-38.2701 110.0253,-41.1082 119.7748,-45.2551 120.2329,-38.2701"/>
</g>
<!-- Node7&#45;&gt;Node8 -->
<g id="edge2" class="edge">
<title>Node7&#45;&gt;Node8</title>
<path fill="none" stroke="#191970" d="M285.0444,-32.9855C300.1653,-36.7873 316.0337,-40.777 330.7367,-44.4738"/>
<polygon fill="#191970" stroke="#191970" points="285.7872,-29.5634 275.2356,-30.5192 284.0803,-36.3521 285.7872,-29.5634"/>
</g>
<!-- Node9 -->
<g id="node4" class="node">
<title>Node9</title>
<g id="a_node4"><a xlink:href="classneon_1_1solid_1_1femStaticMatrix.html#a9d09a3000b8ab1f5088e65a991325514" target="_top" xlink:title="neon::solid::femStaticMatrix\l::apply_displacement_boundaries">
<polygon fill="#ffffff" stroke="#000000" points="496,-22.5 496,-52.5 657,-52.5 657,-22.5 496,-22.5"/>
<text text-anchor="start" x="504" y="-40.5" font-family="Helvetica,sans-Serif" font-size="10.00" fill="#000000">neon::solid::femStaticMatrix</text>
<text text-anchor="middle" x="576.5" y="-29.5" font-family="Helvetica,sans-Serif" font-size="10.00" fill="#000000">::apply_displacement_boundaries</text>
</a>
</g>
</g>
<!-- Node8&#45;&gt;Node9 -->
<g id="edge3" class="edge">
<title>Node8&#45;&gt;Node9</title>
<path fill="none" stroke="#191970" d="M469.9693,-50.1004C478.5173,-49.0894 487.2211,-48.0599 495.7836,-47.0471"/>
<polygon fill="#191970" stroke="#191970" points="469.5437,-46.6263 460.024,-51.2767 470.366,-53.5778 469.5437,-46.6263"/>
</g>
<!-- Node9&#45;&gt;Node7 -->
<g id="edge4" class="edge">
<title>Node9&#45;&gt;Node7</title>
<path fill="none" stroke="#191970" d="M485.5621,-31.9581C423.3653,-28.1677 342.1648,-23.2192 285.1044,-19.7418"/>
<polygon fill="#191970" stroke="#191970" points="485.5711,-35.465 495.7655,-32.5799 485.9969,-28.478 485.5711,-35.465"/>
</g>
</g>
</svg>
