<?xml version="1.0" encoding="UTF-8" standalone="no"?>
<!DOCTYPE svg PUBLIC "-//W3C//DTD SVG 1.1//EN"
 "http://www.w3.org/Graphics/SVG/1.1/DTD/svg11.dtd">
<!-- Generated by graphviz version 2.40.1 (20161225.0304)
 -->
<!-- Title: neon::AffineMicrosphere::deviatoric_projection Pages: 1 -->
<svg width="299pt" height="88pt"
 viewBox="0.00 0.00 299.00 88.00" xmlns="http://www.w3.org/2000/svg" xmlns:xlink="http://www.w3.org/1999/xlink">
<g id="graph0" class="graph" transform="scale(1 1) rotate(0) translate(4 84)">
<title>neon::AffineMicrosphere::deviatoric_projection</title>
<polygon fill="#ffffff" stroke="transparent" points="-4,4 -4,-84 295,-84 295,4 -4,4"/>
<!-- Node17 -->
<g id="node1" class="node">
<title>Node17</title>
<polygon fill="#bfbfbf" stroke="#000000" points="0,-24.5 0,-54.5 122,-54.5 122,-24.5 0,-24.5"/>
<text text-anchor="start" x="8" y="-42.5" font-family="Helvetica,sans-Serif" font-size="10.00" fill="#000000">neon::AffineMicrosphere</text>
<text text-anchor="middle" x="61" y="-31.5" font-family="Helvetica,sans-Serif" font-size="10.00" fill="#000000">::deviatoric_projection</text>
</g>
<!-- Node18 -->
<g id="node2" class="node">
<title>Node18</title>
<g id="a_node2"><a xlink:href="classneon_1_1AffineMicrosphere.html#ae6fbab77ef4d201ef8aa019235aac269" target="_top" xlink:title="neon::AffineMicrosphere\l::update_internal_variables">
<polygon fill="#ffffff" stroke="#000000" points="158,-49.5 158,-79.5 291,-79.5 291,-49.5 158,-49.5"/>
<text text-anchor="start" x="166" y="-67.5" font-family="Helvetica,sans-Serif" font-size="10.00" fill="#000000">neon::AffineMicrosphere</text>
<text text-anchor="middle" x="224.5" y="-56.5" font-family="Helvetica,sans-Serif" font-size="10.00" fill="#000000">::update_internal_variables</text>
</a>
</g>
</g>
<!-- Node17&#45;&gt;Node18 -->
<g id="edge1" class="edge">
<title>Node17&#45;&gt;Node18</title>
<path fill="none" stroke="#191970" d="M132.249,-50.3943C140.7642,-51.6964 149.4339,-53.022 157.8804,-54.3135"/>
<polygon fill="#191970" stroke="#191970" points="132.7607,-46.932 122.3465,-48.8802 131.7026,-53.8516 132.7607,-46.932"/>
</g>
<!-- Node19 -->
<g id="node3" class="node">
<title>Node19</title>
<g id="a_node3"><a xlink:href="classneon_1_1AffineMicrosphere.html#a2aa9098fb29ba340ff3dd5cfc00ed46f" target="_top" xlink:title="neon::AffineMicrosphere\l::intrinsic_material">
<polygon fill="#ffffff" stroke="#000000" points="163.5,-.5 163.5,-30.5 285.5,-30.5 285.5,-.5 163.5,-.5"/>
<text text-anchor="start" x="171.5" y="-18.5" font-family="Helvetica,sans-Serif" font-size="10.00" fill="#000000">neon::AffineMicrosphere</text>
<text text-anchor="middle" x="224.5" y="-7.5" font-family="Helvetica,sans-Serif" font-size="10.00" fill="#000000">::intrinsic_material</text>
</a>
</g>
</g>
<!-- Node17&#45;&gt;Node19 -->
<g id="edge2" class="edge">
<title>Node17&#45;&gt;Node19</title>
<path fill="none" stroke="#191970" d="M132.5267,-29.0007C142.8045,-27.492 153.3013,-25.9512 163.3534,-24.4756"/>
<polygon fill="#191970" stroke="#191970" points="131.7322,-25.5797 122.3465,-30.495 132.7489,-32.5055 131.7322,-25.5797"/>
</g>
</g>
</svg>
