<?xml version="1.0" encoding="UTF-8" standalone="no"?>
<!DOCTYPE svg PUBLIC "-//W3C//DTD SVG 1.1//EN"
 "http://www.w3.org/Graphics/SVG/1.1/DTD/svg11.dtd">
<!-- Generated by graphviz version 2.40.1 (20161225.0304)
 -->
<!-- Title: neon::Triangle3::precompute_shape_functions Pages: 1 -->
<svg width="305pt" height="50pt"
 viewBox="0.00 0.00 305.00 50.00" xmlns="http://www.w3.org/2000/svg" xmlns:xlink="http://www.w3.org/1999/xlink">
<g id="graph0" class="graph" transform="scale(1 1) rotate(0) translate(4 46)">
<title>neon::Triangle3::precompute_shape_functions</title>
<polygon fill="#ffffff" stroke="transparent" points="-4,4 -4,-46 301,-46 301,4 -4,4"/>
<!-- Node0 -->
<g id="node1" class="node">
<title>Node0</title>
<polygon fill="#bfbfbf" stroke="#000000" points="0,-6 0,-36 140,-36 140,-6 0,-6"/>
<text text-anchor="start" x="8" y="-24" font-family="Helvetica,sans-Serif" font-size="10.00" fill="#000000">neon::Triangle3::precompute</text>
<text text-anchor="middle" x="70" y="-13" font-family="Helvetica,sans-Serif" font-size="10.00" fill="#000000">_shape_functions</text>
</g>
<!-- Node1 -->
<g id="node2" class="node">
<title>Node1</title>
<g id="a_node2"><a xlink:href="classneon_1_1ShapeFunction.html#a604817929ba457ac00e765eea2a32e05" target="_top" xlink:title="neon::ShapeFunction\l::compute_extrapolation\l_matrix">
<polygon fill="#ffffff" stroke="#000000" points="176,-.5 176,-41.5 297,-41.5 297,-.5 176,-.5"/>
<text text-anchor="start" x="184" y="-29.5" font-family="Helvetica,sans-Serif" font-size="10.00" fill="#000000">neon::ShapeFunction</text>
<text text-anchor="start" x="184" y="-18.5" font-family="Helvetica,sans-Serif" font-size="10.00" fill="#000000">::compute_extrapolation</text>
<text text-anchor="middle" x="236.5" y="-7.5" font-family="Helvetica,sans-Serif" font-size="10.00" fill="#000000">_matrix</text>
</a>
</g>
</g>
<!-- Node0&#45;&gt;Node1 -->
<g id="edge1" class="edge">
<title>Node0&#45;&gt;Node1</title>
<path fill="none" stroke="#191970" d="M140.1284,-21C148.595,-21 157.2474,-21 165.7232,-21"/>
<polygon fill="#191970" stroke="#191970" points="165.95,-24.5001 175.95,-21 165.9499,-17.5001 165.95,-24.5001"/>
</g>
</g>
</svg>
