<?xml version="1.0" encoding="UTF-8" standalone="no"?>
<!DOCTYPE svg PUBLIC "-//W3C//DTD SVG 1.1//EN"
 "http://www.w3.org/Graphics/SVG/1.1/DTD/svg11.dtd">
<!-- Generated by graphviz version 2.40.1 (20161225.0304)
 -->
<!-- Title: neon::Visualisation Pages: 1 -->
<svg width="274pt" height="95pt"
 viewBox="0.00 0.00 273.50 95.00" xmlns="http://www.w3.org/2000/svg" xmlns:xlink="http://www.w3.org/1999/xlink">
<g id="graph0" class="graph" transform="scale(1 1) rotate(0) translate(4 91)">
<title>neon::Visualisation</title>
<polygon fill="#ffffff" stroke="transparent" points="-4,4 -4,-91 269.5,-91 269.5,4 -4,4"/>
<!-- Node1 -->
<g id="node1" class="node">
<title>Node1</title>
<polygon fill="#bfbfbf" stroke="#000000" points="90,-.5 90,-19.5 189,-19.5 189,-.5 90,-.5"/>
<text text-anchor="middle" x="139.5" y="-7.5" font-family="Helvetica,sans-Serif" font-size="10.00" fill="#000000">neon::Visualisation</text>
</g>
<!-- Node2 -->
<g id="node2" class="node">
<title>Node2</title>
<g id="a_node2"><a xlink:href="classneon_1_1NodeOrderingAdapter.html" target="_top" xlink:title="neon::NodeOrderingAdapter">
<polygon fill="#ffffff" stroke="#000000" points="0,-67.5 0,-86.5 137,-86.5 137,-67.5 0,-67.5"/>
<text text-anchor="middle" x="68.5" y="-74.5" font-family="Helvetica,sans-Serif" font-size="10.00" fill="#000000">neon::NodeOrderingAdapter</text>
</a>
</g>
</g>
<!-- Node2&#45;&gt;Node1 -->
<g id="edge1" class="edge">
<title>Node2&#45;&gt;Node1</title>
<path fill="none" stroke="#9a32cd" stroke-dasharray="5,2" d="M86.0486,-60.44C99.668,-47.5879 118.0715,-30.2212 129.3463,-19.5817"/>
<polygon fill="#9a32cd" stroke="#9a32cd" points="83.5434,-57.9917 78.6726,-67.4005 88.3477,-63.0828 83.5434,-57.9917"/>
<text text-anchor="middle" x="126.5" y="-41" font-family="Helvetica,sans-Serif" font-size="10.00" fill="#000000"> adapter</text>
</g>
<!-- Node3 -->
<g id="node3" class="node">
<title>Node3</title>
<g id="a_node3"><a xlink:href="classneon_1_1solid_1_1femMesh.html" target="_top" xlink:title="neon::solid::femMesh">
<polygon fill="#ffffff" stroke="#000000" points="155.5,-67.5 155.5,-86.5 265.5,-86.5 265.5,-67.5 155.5,-67.5"/>
<text text-anchor="middle" x="210.5" y="-74.5" font-family="Helvetica,sans-Serif" font-size="10.00" fill="#000000">neon::solid::femMesh</text>
</a>
</g>
</g>
<!-- Node3&#45;&gt;Node1 -->
<g id="edge2" class="edge">
<title>Node3&#45;&gt;Node1</title>
<path fill="none" stroke="#9a32cd" stroke-dasharray="5,2" d="M192.9514,-60.44C179.332,-47.5879 160.9285,-30.2212 149.6537,-19.5817"/>
<polygon fill="#9a32cd" stroke="#9a32cd" points="190.6523,-63.0828 200.3274,-67.4005 195.4566,-57.9917 190.6523,-63.0828"/>
<text text-anchor="middle" x="203" y="-41" font-family="Helvetica,sans-Serif" font-size="10.00" fill="#000000"> fem_mesh</text>
</g>
</g>
</svg>
