<?xml version="1.0" encoding="UTF-8" standalone="no"?>
<!DOCTYPE svg PUBLIC "-//W3C//DTD SVG 1.1//EN"
 "http://www.w3.org/Graphics/SVG/1.1/DTD/svg11.dtd">
<!-- Generated by graphviz version 2.40.1 (20161225.0304)
 -->
<!-- Title: neon::AffineMicrosphere::AffineMicrosphere Pages: 1 -->
<!--zoomable 156 -->
<svg id="main" version="1.1" xmlns="http://www.w3.org/2000/svg" xmlns:xlink="http://www.w3.org/1999/xlink" xml:space="preserve" onload="init(evt)">
<style type="text/css"><![CDATA[
.edge:hover path { stroke: red; }
.edge:hover polygon { stroke: red; fill: red; }
]]></style>
<script type="text/javascript"><![CDATA[
var edges = document.getElementsByTagName('g');
if (edges && edges.length) {
  for (var i=0;i<edges.length;i++) {
    if (edges[i].id.substr(0,4)=='edge') {
      edges[i].setAttribute('class','edge');
    }
  }
}
]]></script>
        <defs>
                <circle id="rim" cx="0" cy="0" r="7"/>
                <circle id="rim2" cx="0" cy="0" r="3.5"/>
                <g id="zoomPlus">
                        <use xlink:href="#rim" fill="#404040">
                                <set attributeName="fill" to="#808080" begin="zoomplus.mouseover" end="zoomplus.mouseout"/>
                        </use>
                        <path d="M-4,0h8M0,-4v8" fill="none" stroke="white" stroke-width="1.5" pointer-events="none"/>
                </g>
                <g id="zoomMin">
                        <use xlink:href="#rim" fill="#404040">
                                <set attributeName="fill" to="#808080" begin="zoomminus.mouseover" end="zoomminus.mouseout"/>
                        </use>
                        <path d="M-4,0h8" fill="none" stroke="white" stroke-width="1.5" pointer-events="none"/>
                </g>
                <g id="dirArrow">
                        <path fill="none" stroke="white" stroke-width="1.5" d="M0,-3.0v7 M-2.5,-0.5L0,-3.0L2.5,-0.5"/>
                </g>
               <g id="resetDef">
                       <use xlink:href="#rim2" fill="#404040">
                               <set attributeName="fill" to="#808080" begin="reset.mouseover" end="reset.mouseout"/>
                       </use>
               </g>
        </defs>

<script type="text/javascript">
var viewWidth = 721;
var viewHeight = 156;
var sectionId = 'dynsection-2';
</script>
<script xlink:href="svgpan.js"/>
<svg id="graph" class="graph">
<g id="viewport">
<title>neon::AffineMicrosphere::AffineMicrosphere</title>
<polygon fill="#ffffff" stroke="transparent" points="-4,4 -4,-152 717,-152 717,4 -4,4"/>
<!-- Node0 -->
<g id="node1" class="node">
<title>Node0</title>
<polygon fill="#bfbfbf" stroke="#000000" points="0,-79 0,-109 122,-109 122,-79 0,-79"/>
<text text-anchor="start" x="8" y="-97" font-family="Helvetica,sans-Serif" font-size="10.00" fill="#000000">neon::AffineMicrosphere</text>
<text text-anchor="middle" x="61" y="-86" font-family="Helvetica,sans-Serif" font-size="10.00" fill="#000000">::AffineMicrosphere</text>
</g>
<!-- Node1 -->
<g id="node2" class="node">
<title>Node1</title>
<g id="a_node2"><a xlink:href="classneon_1_1InternalVariables.html#a766b755cf1addd04a799878ed29b5350" target="_top" xlink:title="neon::InternalVariables::add">
<polygon fill="#ffffff" stroke="#000000" points="169.5,-128.5 169.5,-147.5 307.5,-147.5 307.5,-128.5 169.5,-128.5"/>
<text text-anchor="middle" x="238.5" y="-135.5" font-family="Helvetica,sans-Serif" font-size="10.00" fill="#000000">neon::InternalVariables::add</text>
</a>
</g>
</g>
<!-- Node0&#45;&gt;Node1 -->
<g id="edge1" class="edge">
<title>Node0&#45;&gt;Node1</title>
<path fill="none" stroke="#191970" d="M118.3974,-109.0002C131.4064,-112.3423 145.1683,-115.8325 158,-119 167.5192,-121.3498 177.6874,-123.7978 187.481,-126.1245"/>
<polygon fill="#191970" stroke="#191970" points="186.9714,-129.6005 197.5085,-128.496 188.5825,-122.7884 186.9714,-129.6005"/>
</g>
<!-- Node2 -->
<g id="node3" class="node">
<title>Node2</title>
<g id="a_node3"><a xlink:href="classneon_1_1MicromechanicalElastomer.html#a95d175495fa60b9b70852d868e3f6706" target="_top" xlink:title="neon::MicromechanicalElastomer\l::number_of_initial_chains">
<polygon fill="#ffffff" stroke="#000000" points="158,-79 158,-109 319,-109 319,-79 158,-79"/>
<text text-anchor="start" x="166" y="-97" font-family="Helvetica,sans-Serif" font-size="10.00" fill="#000000">neon::MicromechanicalElastomer</text>
<text text-anchor="middle" x="238.5" y="-86" font-family="Helvetica,sans-Serif" font-size="10.00" fill="#000000">::number_of_initial_chains</text>
</a>
</g>
</g>
<!-- Node0&#45;&gt;Node2 -->
<g id="edge2" class="edge">
<title>Node0&#45;&gt;Node2</title>
<path fill="none" stroke="#191970" d="M122.0854,-94C130.3744,-94 139.021,-94 147.6939,-94"/>
<polygon fill="#191970" stroke="#191970" points="147.8673,-97.5001 157.8672,-94 147.8672,-90.5001 147.8673,-97.5001"/>
</g>
<!-- Node3 -->
<g id="node4" class="node">
<title>Node3</title>
<g id="a_node4"><a xlink:href="classneon_1_1MicromechanicalElastomer.html#a3138575e4b350966d59e246dce2a9e4c" target="_top" xlink:title="neon::MicromechanicalElastomer\l::number_of_initial_segments">
<polygon fill="#ffffff" stroke="#000000" points="158,-30 158,-60 319,-60 319,-30 158,-30"/>
<text text-anchor="start" x="166" y="-48" font-family="Helvetica,sans-Serif" font-size="10.00" fill="#000000">neon::MicromechanicalElastomer</text>
<text text-anchor="middle" x="238.5" y="-37" font-family="Helvetica,sans-Serif" font-size="10.00" fill="#000000">::number_of_initial_segments</text>
</a>
</g>
</g>
<!-- Node0&#45;&gt;Node3 -->
<g id="edge3" class="edge">
<title>Node0&#45;&gt;Node3</title>
<path fill="none" stroke="#191970" d="M115.7042,-78.8986C134.1803,-73.7981 154.9768,-68.0571 174.1308,-62.7695"/>
<polygon fill="#191970" stroke="#191970" points="175.2684,-66.0865 183.9764,-60.0516 173.4056,-59.3389 175.2684,-66.0865"/>
</g>
<!-- Node4 -->
<g id="node5" class="node">
<title>Node4</title>
<g id="a_node5"><a xlink:href="classneon_1_1MicromechanicalElastomer.html#aaf10c30d097e82bf405af7caa65ae0e5" target="_top" xlink:title="neon::MicromechanicalElastomer\l::update_chains">
<polygon fill="#ffffff" stroke="#000000" points="355,-55 355,-85 516,-85 516,-55 355,-55"/>
<text text-anchor="start" x="363" y="-73" font-family="Helvetica,sans-Serif" font-size="10.00" fill="#000000">neon::MicromechanicalElastomer</text>
<text text-anchor="middle" x="435.5" y="-62" font-family="Helvetica,sans-Serif" font-size="10.00" fill="#000000">::update_chains</text>
</a>
</g>
</g>
<!-- Node3&#45;&gt;Node4 -->
<g id="edge4" class="edge">
<title>Node3&#45;&gt;Node4</title>
<path fill="none" stroke="#191970" d="M319.1959,-55.2406C327.6733,-56.3164 336.3327,-57.4153 344.9115,-58.504"/>
<polygon fill="#191970" stroke="#191970" points="344.5685,-61.9885 354.9296,-59.7753 345.4499,-55.0442 344.5685,-61.9885"/>
</g>
<!-- Node5 -->
<g id="node6" class="node">
<title>Node5</title>
<g id="a_node6"><a xlink:href="classneon_1_1MicromechanicalElastomer.html#a5d64ede8aea366d6703995615b17c2e2" target="_top" xlink:title="neon::MicromechanicalElastomer\l::update_segments">
<polygon fill="#ffffff" stroke="#000000" points="355,-6 355,-36 516,-36 516,-6 355,-6"/>
<text text-anchor="start" x="363" y="-24" font-family="Helvetica,sans-Serif" font-size="10.00" fill="#000000">neon::MicromechanicalElastomer</text>
<text text-anchor="middle" x="435.5" y="-13" font-family="Helvetica,sans-Serif" font-size="10.00" fill="#000000">::update_segments</text>
</a>
</g>
</g>
<!-- Node3&#45;&gt;Node5 -->
<g id="edge5" class="edge">
<title>Node3&#45;&gt;Node5</title>
<path fill="none" stroke="#191970" d="M319.1959,-35.169C327.6733,-34.1363 336.3327,-33.0813 344.9115,-32.0362"/>
<polygon fill="#191970" stroke="#191970" points="345.4263,-35.4994 354.9296,-30.8157 344.5797,-28.5508 345.4263,-35.4994"/>
</g>
<!-- Node6 -->
<g id="node7" class="node">
<title>Node6</title>
<g id="a_node7"><a xlink:href="classneon_1_1MicromechanicalElastomer.html#aab4b7bfc80786688b65c944d482bbb66" target="_top" xlink:title="neon::MicromechanicalElastomer\l::compute_probability_and\l_segments">
<polygon fill="#ffffff" stroke="#000000" points="552,-.5 552,-41.5 713,-41.5 713,-.5 552,-.5"/>
<text text-anchor="start" x="560" y="-29.5" font-family="Helvetica,sans-Serif" font-size="10.00" fill="#000000">neon::MicromechanicalElastomer</text>
<text text-anchor="start" x="560" y="-18.5" font-family="Helvetica,sans-Serif" font-size="10.00" fill="#000000">::compute_probability_and</text>
<text text-anchor="middle" x="632.5" y="-7.5" font-family="Helvetica,sans-Serif" font-size="10.00" fill="#000000">_segments</text>
</a>
</g>
</g>
<!-- Node5&#45;&gt;Node6 -->
<g id="edge6" class="edge">
<title>Node5&#45;&gt;Node6</title>
<path fill="none" stroke="#191970" d="M516.1959,-21C524.6733,-21 533.3327,-21 541.9115,-21"/>
<polygon fill="#191970" stroke="#191970" points="541.9297,-24.5001 551.9296,-21 541.9296,-17.5001 541.9297,-24.5001"/>
</g>
</g>
</svg>
        <g id="navigator" transform="translate(0 0)" fill="#404254">
                <rect fill="#f2f5e9" fill-opacity="0.5" stroke="#606060" stroke-width=".5" x="0" y="0" width="60" height="60"/>
                <use id="zoomplus" xlink:href="#zoomPlus" x="17" y="9" onmousedown="handleZoom(evt,'in')"/>
                <use id="zoomminus" xlink:href="#zoomMin" x="42" y="9" onmousedown="handleZoom(evt,'out')"/>
                <use id="reset" xlink:href="#resetDef" x="30" y="36" onmousedown="handleReset()"/>
                <g id="arrowUp" xlink:href="#dirArrow" transform="translate(30 24)" onmousedown="handlePan(0,-1)">
                  <use xlink:href="#rim" fill="#404040">
                        <set attributeName="fill" to="#808080" begin="arrowUp.mouseover" end="arrowUp.mouseout"/>
                  </use>
                  <path fill="none" stroke="white" stroke-width="1.5" d="M0,-3.0v7 M-2.5,-0.5L0,-3.0L2.5,-0.5"/>
                </g>
                <g id="arrowRight" xlink:href="#dirArrow" transform="rotate(90) translate(36 -43)" onmousedown="handlePan(1,0)">
                  <use xlink:href="#rim" fill="#404040">
                        <set attributeName="fill" to="#808080" begin="arrowRight.mouseover" end="arrowRight.mouseout"/>
                  </use>
                  <path fill="none" stroke="white" stroke-width="1.5" d="M0,-3.0v7 M-2.5,-0.5L0,-3.0L2.5,-0.5"/>
                </g>
                <g id="arrowDown" xlink:href="#dirArrow" transform="rotate(180) translate(-30 -48)" onmousedown="handlePan(0,1)">
                  <use xlink:href="#rim" fill="#404040">
                        <set attributeName="fill" to="#808080" begin="arrowDown.mouseover" end="arrowDown.mouseout"/>
                  </use>
                  <path fill="none" stroke="white" stroke-width="1.5" d="M0,-3.0v7 M-2.5,-0.5L0,-3.0L2.5,-0.5"/>
                </g>
                <g id="arrowLeft" xlink:href="#dirArrow" transform="rotate(270) translate(-36 17)" onmousedown="handlePan(-1,0)">
                  <use xlink:href="#rim" fill="#404040">
                        <set attributeName="fill" to="#808080" begin="arrowLeft.mouseover" end="arrowLeft.mouseout"/>
                  </use>
                  <path fill="none" stroke="white" stroke-width="1.5" d="M0,-3.0v7 M-2.5,-0.5L0,-3.0L2.5,-0.5"/>
                </g>
        </g>
        <svg viewBox="0 0 15 15" width="100%" height="30px" preserveAspectRatio="xMaxYMin meet">
         <g id="arrow_out" transform="scale(0.3 0.3)">
          <a xlink:href="classneon_1_1AffineMicrosphere_a14e7d2369484591162bbfcf9a8cd284a_cgraph_org.svg" target="_base">
           <rect id="button" ry="5" rx="5" y="6" x="6" height="38" width="38"
                fill="#f2f5e9" fill-opacity="0.5" stroke="#606060" stroke-width="1.0"/>
           <path id="arrow"
             d="M 11.500037,31.436501 C 11.940474,20.09759 22.043105,11.32322 32.158766,21.979434 L 37.068811,17.246167 C 37.068811,17.246167 37.088388,32 37.088388,32 L 22.160133,31.978069 C 22.160133,31.978069 26.997745,27.140456 26.997745,27.140456 C 18.528582,18.264221 13.291696,25.230495 11.500037,31.436501 z"
             style="fill:#404040;"/>
          </a>
         </g>
        </svg>
</svg>
