<?xml version="1.0" encoding="UTF-8" standalone="no"?>
<!DOCTYPE svg PUBLIC "-//W3C//DTD SVG 1.1//EN"
 "http://www.w3.org/Graphics/SVG/1.1/DTD/svg11.dtd">
<!-- Generated by graphviz version 2.40.1 (20161225.0304)
 -->
<!-- Title: neon::AffineMicrosphere::intrinsic_material Pages: 1 -->
<svg width="695pt" height="241pt"
 viewBox="0.00 0.00 695.00 241.00" xmlns="http://www.w3.org/2000/svg" xmlns:xlink="http://www.w3.org/1999/xlink">
<g id="graph0" class="graph" transform="scale(1 1) rotate(0) translate(4 237)">
<title>neon::AffineMicrosphere::intrinsic_material</title>
<polygon fill="#ffffff" stroke="transparent" points="-4,4 -4,-237 691,-237 691,4 -4,4"/>
<!-- Node22 -->
<g id="node1" class="node">
<title>Node22</title>
<polygon fill="#bfbfbf" stroke="#000000" points="0,-109 0,-139 122,-139 122,-109 0,-109"/>
<text text-anchor="start" x="8" y="-127" font-family="Helvetica,sans-Serif" font-size="10.00" fill="#000000">neon::AffineMicrosphere</text>
<text text-anchor="middle" x="61" y="-116" font-family="Helvetica,sans-Serif" font-size="10.00" fill="#000000">::intrinsic_material</text>
</g>
<!-- Node23 -->
<g id="node2" class="node">
<title>Node23</title>
<g id="a_node2"><a xlink:href="classneon_1_1AffineMicrosphere.html#a837c6c4f2751fb8a530ff3023ce4db7d" target="_top" xlink:title="neon::AffineMicrosphere\l::volumetric_free_energy\l_derivative">
<polygon fill="#ffffff" stroke="#000000" points="163.5,-191.5 163.5,-232.5 287.5,-232.5 287.5,-191.5 163.5,-191.5"/>
<text text-anchor="start" x="171.5" y="-220.5" font-family="Helvetica,sans-Serif" font-size="10.00" fill="#000000">neon::AffineMicrosphere</text>
<text text-anchor="start" x="171.5" y="-209.5" font-family="Helvetica,sans-Serif" font-size="10.00" fill="#000000">::volumetric_free_energy</text>
<text text-anchor="middle" x="225.5" y="-198.5" font-family="Helvetica,sans-Serif" font-size="10.00" fill="#000000">_derivative</text>
</a>
</g>
</g>
<!-- Node22&#45;&gt;Node23 -->
<g id="edge1" class="edge">
<title>Node22&#45;&gt;Node23</title>
<path fill="none" stroke="#191970" d="M84.4621,-139.1183C103.8306,-151.3315 132.2231,-168.6273 158,-182 161.2656,-183.6941 164.6469,-185.3853 168.0771,-187.0529"/>
<polygon fill="#191970" stroke="#191970" points="166.6903,-190.269 177.2249,-191.3979 169.6937,-183.946 166.6903,-190.269"/>
</g>
<!-- Node24 -->
<g id="node3" class="node">
<title>Node24</title>
<g id="a_node3"><a xlink:href="classneon_1_1AffineMicrosphere.html#a38534cb6fcbe011bb52ab0e97c447ec6" target="_top" xlink:title="neon::AffineMicrosphere\l::volumetric_free_energy\l_second_derivative">
<polygon fill="#ffffff" stroke="#000000" points="163.5,-131.5 163.5,-172.5 287.5,-172.5 287.5,-131.5 163.5,-131.5"/>
<text text-anchor="start" x="171.5" y="-160.5" font-family="Helvetica,sans-Serif" font-size="10.00" fill="#000000">neon::AffineMicrosphere</text>
<text text-anchor="start" x="171.5" y="-149.5" font-family="Helvetica,sans-Serif" font-size="10.00" fill="#000000">::volumetric_free_energy</text>
<text text-anchor="middle" x="225.5" y="-138.5" font-family="Helvetica,sans-Serif" font-size="10.00" fill="#000000">_second_derivative</text>
</a>
</g>
</g>
<!-- Node22&#45;&gt;Node24 -->
<g id="edge2" class="edge">
<title>Node22&#45;&gt;Node24</title>
<path fill="none" stroke="#191970" d="M122.2537,-134.4262C132.4296,-136.1582 143.0651,-137.9685 153.4783,-139.741"/>
<polygon fill="#191970" stroke="#191970" points="152.9263,-143.1973 163.3719,-141.425 154.101,-136.2966 152.9263,-143.1973"/>
</g>
<!-- Node25 -->
<g id="node4" class="node">
<title>Node25</title>
<g id="a_node4"><a xlink:href="classneon_1_1AffineMicrosphere.html#a73cb6372ec999fd0c548772133c1ccbb" target="_top" xlink:title="neon::AffineMicrosphere\l::deviatoric_projection">
<polygon fill="#ffffff" stroke="#000000" points="164.5,-82 164.5,-112 286.5,-112 286.5,-82 164.5,-82"/>
<text text-anchor="start" x="172.5" y="-100" font-family="Helvetica,sans-Serif" font-size="10.00" fill="#000000">neon::AffineMicrosphere</text>
<text text-anchor="middle" x="225.5" y="-89" font-family="Helvetica,sans-Serif" font-size="10.00" fill="#000000">::deviatoric_projection</text>
</a>
</g>
</g>
<!-- Node22&#45;&gt;Node25 -->
<g id="edge3" class="edge">
<title>Node22&#45;&gt;Node25</title>
<path fill="none" stroke="#191970" d="M122.2537,-113.9462C132.7065,-112.2305 143.6442,-110.4353 154.3279,-108.6817"/>
<polygon fill="#191970" stroke="#191970" points="155.168,-112.0908 164.4691,-107.0172 154.0342,-105.1832 155.168,-112.0908"/>
</g>
<!-- Node26 -->
<g id="node5" class="node">
<title>Node26</title>
<g id="a_node5"><a xlink:href="classneon_1_1AffineMicrosphere.html#a34503c57cf229f92d58365d45d8a39dc" target="_top" xlink:title="neon::AffineMicrosphere\l::compute_kirchhoff_stress">
<polygon fill="#ffffff" stroke="#000000" points="158,-33 158,-63 293,-63 293,-33 158,-33"/>
<text text-anchor="start" x="166" y="-51" font-family="Helvetica,sans-Serif" font-size="10.00" fill="#000000">neon::AffineMicrosphere</text>
<text text-anchor="middle" x="225.5" y="-40" font-family="Helvetica,sans-Serif" font-size="10.00" fill="#000000">::compute_kirchhoff_stress</text>
</a>
</g>
</g>
<!-- Node22&#45;&gt;Node26 -->
<g id="edge4" class="edge">
<title>Node22&#45;&gt;Node26</title>
<path fill="none" stroke="#191970" d="M87.3034,-108.9845C106.5606,-98.2856 133.498,-83.9237 158,-73 162.7296,-70.8914 167.6966,-68.8104 172.7002,-66.8034"/>
<polygon fill="#191970" stroke="#191970" points="174.2742,-69.9461 182.3148,-63.047 171.7268,-63.4261 174.2742,-69.9461"/>
</g>
<!-- Node27 -->
<g id="node6" class="node">
<title>Node27</title>
<g id="a_node6"><a xlink:href="classneon_1_1NumericalQuadrature.html#a132861ccaee57e629e116eb9b014a3a9" target="_top" xlink:title="neon::NumericalQuadrature\l::integrate">
<polygon fill="#ffffff" stroke="#000000" points="341.5,-59 341.5,-89 477.5,-89 477.5,-59 341.5,-59"/>
<text text-anchor="start" x="349.5" y="-77" font-family="Helvetica,sans-Serif" font-size="10.00" fill="#000000">neon::NumericalQuadrature</text>
<text text-anchor="middle" x="409.5" y="-66" font-family="Helvetica,sans-Serif" font-size="10.00" fill="#000000">::integrate</text>
</a>
</g>
</g>
<!-- Node26&#45;&gt;Node27 -->
<g id="edge5" class="edge">
<title>Node26&#45;&gt;Node27</title>
<path fill="none" stroke="#191970" d="M293.2309,-57.5707C305.6017,-59.3187 318.603,-61.1559 331.2497,-62.9429"/>
<polygon fill="#191970" stroke="#191970" points="330.9058,-66.429 341.2972,-64.3626 331.8853,-59.4978 330.9058,-66.429"/>
</g>
<!-- Node29 -->
<g id="node8" class="node">
<title>Node29</title>
<g id="a_node8"><a xlink:href="classneon_1_1MicromechanicalElastomer.html#aaa830ce016c4832b69ad66413cbffc7f" target="_top" xlink:title="neon::MicromechanicalElastomer\l::segment_probability">
<polygon fill="#ffffff" stroke="#000000" points="329,-9 329,-39 490,-39 490,-9 329,-9"/>
<text text-anchor="start" x="337" y="-27" font-family="Helvetica,sans-Serif" font-size="10.00" fill="#000000">neon::MicromechanicalElastomer</text>
<text text-anchor="middle" x="409.5" y="-16" font-family="Helvetica,sans-Serif" font-size="10.00" fill="#000000">::segment_probability</text>
</a>
</g>
</g>
<!-- Node26&#45;&gt;Node29 -->
<g id="edge7" class="edge">
<title>Node26&#45;&gt;Node29</title>
<path fill="none" stroke="#191970" d="M293.2309,-39.1655C301.5534,-38.08 310.1612,-36.9572 318.7544,-35.8364"/>
<polygon fill="#191970" stroke="#191970" points="319.3541,-39.2879 328.8174,-34.5238 318.4487,-32.3467 319.3541,-39.2879"/>
</g>
<!-- Node28 -->
<g id="node7" class="node">
<title>Node28</title>
<g id="a_node7"><a xlink:href="classneon_1_1NumericalQuadrature.html#aed7176a5ad2e2c75aa96eb9a41f4dfb6" target="_top" xlink:title="neon::NumericalQuadrature\l::points">
<polygon fill="#ffffff" stroke="#000000" points="538.5,-61 538.5,-91 674.5,-91 674.5,-61 538.5,-61"/>
<text text-anchor="start" x="546.5" y="-79" font-family="Helvetica,sans-Serif" font-size="10.00" fill="#000000">neon::NumericalQuadrature</text>
<text text-anchor="middle" x="606.5" y="-68" font-family="Helvetica,sans-Serif" font-size="10.00" fill="#000000">::points</text>
</a>
</g>
</g>
<!-- Node27&#45;&gt;Node28 -->
<g id="edge6" class="edge">
<title>Node27&#45;&gt;Node28</title>
<path fill="none" stroke="#191970" d="M477.5721,-74.6911C493.8737,-74.8566 511.4084,-75.0346 528.134,-75.2044"/>
<polygon fill="#191970" stroke="#191970" points="528.3902,-78.7071 538.4252,-75.3089 528.4613,-71.7075 528.3902,-78.7071"/>
</g>
<!-- Node30 -->
<g id="node9" class="node">
<title>Node30</title>
<g id="a_node9"><a xlink:href="classneon_1_1MicromechanicalElastomer.html#aab4b7bfc80786688b65c944d482bbb66" target="_top" xlink:title="neon::MicromechanicalElastomer\l::compute_probability_and\l_segments">
<polygon fill="#ffffff" stroke="#000000" points="526,-.5 526,-41.5 687,-41.5 687,-.5 526,-.5"/>
<text text-anchor="start" x="534" y="-29.5" font-family="Helvetica,sans-Serif" font-size="10.00" fill="#000000">neon::MicromechanicalElastomer</text>
<text text-anchor="start" x="534" y="-18.5" font-family="Helvetica,sans-Serif" font-size="10.00" fill="#000000">::compute_probability_and</text>
<text text-anchor="middle" x="606.5" y="-7.5" font-family="Helvetica,sans-Serif" font-size="10.00" fill="#000000">_segments</text>
</a>
</g>
</g>
<!-- Node29&#45;&gt;Node30 -->
<g id="edge8" class="edge">
<title>Node29&#45;&gt;Node30</title>
<path fill="none" stroke="#191970" d="M490.1959,-22.7711C498.6733,-22.642 507.3327,-22.5102 515.9115,-22.3795"/>
<polygon fill="#191970" stroke="#191970" points="515.9841,-25.8789 525.9296,-22.227 515.8775,-18.8797 515.9841,-25.8789"/>
</g>
</g>
</svg>
