<?xml version="1.0" encoding="UTF-8" standalone="no"?>
<!DOCTYPE svg PUBLIC "-//W3C//DTD SVG 1.1//EN"
 "http://www.w3.org/Graphics/SVG/1.1/DTD/svg11.dtd">
<!-- Generated by graphviz version 2.40.1 (20161225.0304)
 -->
<!-- Title: neon::solid::femMesh::meshes Pages: 1 -->
<!--zoomable 83 -->
<svg id="main" version="1.1" xmlns="http://www.w3.org/2000/svg" xmlns:xlink="http://www.w3.org/1999/xlink" xml:space="preserve" onload="init(evt)">
<style type="text/css"><![CDATA[
.edge:hover path { stroke: red; }
.edge:hover polygon { stroke: red; fill: red; }
]]></style>
<script type="text/javascript"><![CDATA[
var edges = document.getElementsByTagName('g');
if (edges && edges.length) {
  for (var i=0;i<edges.length;i++) {
    if (edges[i].id.substr(0,4)=='edge') {
      edges[i].setAttribute('class','edge');
    }
  }
}
]]></script>
        <defs>
                <circle id="rim" cx="0" cy="0" r="7"/>
                <circle id="rim2" cx="0" cy="0" r="3.5"/>
                <g id="zoomPlus">
                        <use xlink:href="#rim" fill="#404040">
                                <set attributeName="fill" to="#808080" begin="zoomplus.mouseover" end="zoomplus.mouseout"/>
                        </use>
                        <path d="M-4,0h8M0,-4v8" fill="none" stroke="white" stroke-width="1.5" pointer-events="none"/>
                </g>
                <g id="zoomMin">
                        <use xlink:href="#rim" fill="#404040">
                                <set attributeName="fill" to="#808080" begin="zoomminus.mouseover" end="zoomminus.mouseout"/>
                        </use>
                        <path d="M-4,0h8" fill="none" stroke="white" stroke-width="1.5" pointer-events="none"/>
                </g>
                <g id="dirArrow">
                        <path fill="none" stroke="white" stroke-width="1.5" d="M0,-3.0v7 M-2.5,-0.5L0,-3.0L2.5,-0.5"/>
                </g>
               <g id="resetDef">
                       <use xlink:href="#rim2" fill="#404040">
                               <set attributeName="fill" to="#808080" begin="reset.mouseover" end="reset.mouseout"/>
                       </use>
               </g>
        </defs>

<script type="text/javascript">
var viewWidth = 665;
var viewHeight = 83;
var sectionId = 'dynsection-1';
</script>
<script xlink:href="svgpan.js"/>
<svg id="graph" class="graph">
<g id="viewport">
<title>neon::solid::femMesh::meshes</title>
<polygon fill="#ffffff" stroke="transparent" points="-4,4 -4,-79 661,-79 661,4 -4,4"/>
<!-- Node6 -->
<g id="node1" class="node">
<title>Node6</title>
<polygon fill="#bfbfbf" stroke="#000000" points="0,-22.5 0,-52.5 110,-52.5 110,-22.5 0,-22.5"/>
<text text-anchor="start" x="8" y="-40.5" font-family="Helvetica,sans-Serif" font-size="10.00" fill="#000000">neon::solid::femMesh</text>
<text text-anchor="middle" x="55" y="-29.5" font-family="Helvetica,sans-Serif" font-size="10.00" fill="#000000">::meshes</text>
</g>
<!-- Node7 -->
<g id="node2" class="node">
<title>Node7</title>
<g id="a_node2"><a xlink:href="classneon_1_1solid_1_1femStaticMatrix.html#a1b4ec4af5d4aa93d28a374c0f4f7e5d3" target="_top" xlink:title="neon::solid::femStaticMatrix\l::compute_sparsity_pattern">
<polygon fill="#ffffff" stroke="#000000" points="146,-.5 146,-30.5 285,-30.5 285,-.5 146,-.5"/>
<text text-anchor="start" x="154" y="-18.5" font-family="Helvetica,sans-Serif" font-size="10.00" fill="#000000">neon::solid::femStaticMatrix</text>
<text text-anchor="middle" x="215.5" y="-7.5" font-family="Helvetica,sans-Serif" font-size="10.00" fill="#000000">::compute_sparsity_pattern</text>
</a>
</g>
</g>
<!-- Node6&#45;&gt;Node7 -->
<g id="edge1" class="edge">
<title>Node6&#45;&gt;Node7</title>
<path fill="none" stroke="#191970" d="M120.3867,-28.5373C128.8232,-27.3809 137.4867,-26.1934 145.9866,-25.0283"/>
<polygon fill="#191970" stroke="#191970" points="119.667,-25.1032 110.235,-29.9288 120.6177,-32.0383 119.667,-25.1032"/>
</g>
<!-- Node8 -->
<g id="node3" class="node">
<title>Node8</title>
<g id="a_node3"><a xlink:href="classneon_1_1solid_1_1femStaticMatrix.html#a38f9c7ef5b0a03920dd67cc054a83042" target="_top" xlink:title="neon::solid::femStaticMatrix\l::assemble_stiffness">
<polygon fill="#ffffff" stroke="#000000" points="321,-44.5 321,-74.5 460,-74.5 460,-44.5 321,-44.5"/>
<text text-anchor="start" x="329" y="-62.5" font-family="Helvetica,sans-Serif" font-size="10.00" fill="#000000">neon::solid::femStaticMatrix</text>
<text text-anchor="middle" x="390.5" y="-51.5" font-family="Helvetica,sans-Serif" font-size="10.00" fill="#000000">::assemble_stiffness</text>
</a>
</g>
</g>
<!-- Node6&#45;&gt;Node8 -->
<g id="edge5" class="edge">
<title>Node6&#45;&gt;Node8</title>
<path fill="none" stroke="#191970" d="M120.1245,-41.7705C177.8345,-45.5547 261.8619,-51.0647 320.8871,-54.9352"/>
<polygon fill="#191970" stroke="#191970" points="120.2329,-38.2701 110.0253,-41.1082 119.7748,-45.2551 120.2329,-38.2701"/>
</g>
<!-- Node7&#45;&gt;Node8 -->
<g id="edge2" class="edge">
<title>Node7&#45;&gt;Node8</title>
<path fill="none" stroke="#191970" d="M285.0444,-32.9855C300.1653,-36.7873 316.0337,-40.777 330.7367,-44.4738"/>
<polygon fill="#191970" stroke="#191970" points="285.7872,-29.5634 275.2356,-30.5192 284.0803,-36.3521 285.7872,-29.5634"/>
</g>
<!-- Node9 -->
<g id="node4" class="node">
<title>Node9</title>
<g id="a_node4"><a xlink:href="classneon_1_1solid_1_1femStaticMatrix.html#a9d09a3000b8ab1f5088e65a991325514" target="_top" xlink:title="neon::solid::femStaticMatrix\l::apply_displacement_boundaries">
<polygon fill="#ffffff" stroke="#000000" points="496,-22.5 496,-52.5 657,-52.5 657,-22.5 496,-22.5"/>
<text text-anchor="start" x="504" y="-40.5" font-family="Helvetica,sans-Serif" font-size="10.00" fill="#000000">neon::solid::femStaticMatrix</text>
<text text-anchor="middle" x="576.5" y="-29.5" font-family="Helvetica,sans-Serif" font-size="10.00" fill="#000000">::apply_displacement_boundaries</text>
</a>
</g>
</g>
<!-- Node8&#45;&gt;Node9 -->
<g id="edge3" class="edge">
<title>Node8&#45;&gt;Node9</title>
<path fill="none" stroke="#191970" d="M469.9693,-50.1004C478.5173,-49.0894 487.2211,-48.0599 495.7836,-47.0471"/>
<polygon fill="#191970" stroke="#191970" points="469.5437,-46.6263 460.024,-51.2767 470.366,-53.5778 469.5437,-46.6263"/>
</g>
<!-- Node9&#45;&gt;Node7 -->
<g id="edge4" class="edge">
<title>Node9&#45;&gt;Node7</title>
<path fill="none" stroke="#191970" d="M485.5621,-31.9581C423.3653,-28.1677 342.1648,-23.2192 285.1044,-19.7418"/>
<polygon fill="#191970" stroke="#191970" points="485.5711,-35.465 495.7655,-32.5799 485.9969,-28.478 485.5711,-35.465"/>
</g>
</g>
</svg>
        <g id="navigator" transform="translate(0 0)" fill="#404254">
                <rect fill="#f2f5e9" fill-opacity="0.5" stroke="#606060" stroke-width=".5" x="0" y="0" width="60" height="60"/>
                <use id="zoomplus" xlink:href="#zoomPlus" x="17" y="9" onmousedown="handleZoom(evt,'in')"/>
                <use id="zoomminus" xlink:href="#zoomMin" x="42" y="9" onmousedown="handleZoom(evt,'out')"/>
                <use id="reset" xlink:href="#resetDef" x="30" y="36" onmousedown="handleReset()"/>
                <g id="arrowUp" xlink:href="#dirArrow" transform="translate(30 24)" onmousedown="handlePan(0,-1)">
                  <use xlink:href="#rim" fill="#404040">
                        <set attributeName="fill" to="#808080" begin="arrowUp.mouseover" end="arrowUp.mouseout"/>
                  </use>
                  <path fill="none" stroke="white" stroke-width="1.5" d="M0,-3.0v7 M-2.5,-0.5L0,-3.0L2.5,-0.5"/>
                </g>
                <g id="arrowRight" xlink:href="#dirArrow" transform="rotate(90) translate(36 -43)" onmousedown="handlePan(1,0)">
                  <use xlink:href="#rim" fill="#404040">
                        <set attributeName="fill" to="#808080" begin="arrowRight.mouseover" end="arrowRight.mouseout"/>
                  </use>
                  <path fill="none" stroke="white" stroke-width="1.5" d="M0,-3.0v7 M-2.5,-0.5L0,-3.0L2.5,-0.5"/>
                </g>
                <g id="arrowDown" xlink:href="#dirArrow" transform="rotate(180) translate(-30 -48)" onmousedown="handlePan(0,1)">
                  <use xlink:href="#rim" fill="#404040">
                        <set attributeName="fill" to="#808080" begin="arrowDown.mouseover" end="arrowDown.mouseout"/>
                  </use>
                  <path fill="none" stroke="white" stroke-width="1.5" d="M0,-3.0v7 M-2.5,-0.5L0,-3.0L2.5,-0.5"/>
                </g>
                <g id="arrowLeft" xlink:href="#dirArrow" transform="rotate(270) translate(-36 17)" onmousedown="handlePan(-1,0)">
                  <use xlink:href="#rim" fill="#404040">
                        <set attributeName="fill" to="#808080" begin="arrowLeft.mouseover" end="arrowLeft.mouseout"/>
                  </use>
                  <path fill="none" stroke="white" stroke-width="1.5" d="M0,-3.0v7 M-2.5,-0.5L0,-3.0L2.5,-0.5"/>
                </g>
        </g>
        <svg viewBox="0 0 15 15" width="100%" height="30px" preserveAspectRatio="xMaxYMin meet">
         <g id="arrow_out" transform="scale(0.3 0.3)">
          <a xlink:href="classneon_1_1solid_1_1femMesh_acb70b613e02175d0676d0a77046a079a_icgraph_org.svg" target="_base">
           <rect id="button" ry="5" rx="5" y="6" x="6" height="38" width="38"
                fill="#f2f5e9" fill-opacity="0.5" stroke="#606060" stroke-width="1.0"/>
           <path id="arrow"
             d="M 11.500037,31.436501 C 11.940474,20.09759 22.043105,11.32322 32.158766,21.979434 L 37.068811,17.246167 C 37.068811,17.246167 37.088388,32 37.088388,32 L 22.160133,31.978069 C 22.160133,31.978069 26.997745,27.140456 26.997745,27.140456 C 18.528582,18.264221 13.291696,25.230495 11.500037,31.436501 z"
             style="fill:#404040;"/>
          </a>
         </g>
        </svg>
</svg>
