<?xml version="1.0" encoding="UTF-8" standalone="no"?>
<!DOCTYPE svg PUBLIC "-//W3C//DTD SVG 1.1//EN"
 "http://www.w3.org/Graphics/SVG/1.1/DTD/svg11.dtd">
<!-- Generated by graphviz version 2.40.1 (20161225.0304)
 -->
<!-- Title: neon::J2Plasticity Pages: 1 -->
<svg width="135pt" height="209pt"
 viewBox="0.00 0.00 135.00 209.00" xmlns="http://www.w3.org/2000/svg" xmlns:xlink="http://www.w3.org/1999/xlink">
<g id="graph0" class="graph" transform="scale(1 1) rotate(0) translate(4 205)">
<title>neon::J2Plasticity</title>
<polygon fill="#ffffff" stroke="transparent" points="-4,4 -4,-205 131,-205 131,4 -4,4"/>
<!-- Node3 -->
<g id="node1" class="node">
<title>Node3</title>
<polygon fill="#bfbfbf" stroke="#000000" points="16,-.5 16,-19.5 111,-19.5 111,-.5 16,-.5"/>
<text text-anchor="middle" x="63.5" y="-7.5" font-family="Helvetica,sans-Serif" font-size="10.00" fill="#000000">neon::J2Plasticity</text>
</g>
<!-- Node4 -->
<g id="node2" class="node">
<title>Node4</title>
<g id="a_node2"><a xlink:href="classneon_1_1HypoElasticPlastic.html" target="_top" xlink:title="neon::HypoElasticPlastic">
<polygon fill="#ffffff" stroke="#000000" points="0,-57.5 0,-76.5 127,-76.5 127,-57.5 0,-57.5"/>
<text text-anchor="middle" x="63.5" y="-64.5" font-family="Helvetica,sans-Serif" font-size="10.00" fill="#000000">neon::HypoElasticPlastic</text>
</a>
</g>
</g>
<!-- Node4&#45;&gt;Node3 -->
<g id="edge1" class="edge">
<title>Node4&#45;&gt;Node3</title>
<path fill="none" stroke="#191970" d="M63.5,-47.2342C63.5,-37.8491 63.5,-27.0651 63.5,-19.5265"/>
<polygon fill="#191970" stroke="#191970" points="60.0001,-47.3307 63.5,-57.3307 67.0001,-47.3308 60.0001,-47.3307"/>
</g>
<!-- Node5 -->
<g id="node3" class="node">
<title>Node5</title>
<g id="a_node3"><a xlink:href="classneon_1_1ConstitutiveModel.html" target="_top" xlink:title="neon::ConstitutiveModel">
<polygon fill="#ffffff" stroke="#000000" points="2.5,-114.5 2.5,-133.5 124.5,-133.5 124.5,-114.5 2.5,-114.5"/>
<text text-anchor="middle" x="63.5" y="-121.5" font-family="Helvetica,sans-Serif" font-size="10.00" fill="#000000">neon::ConstitutiveModel</text>
</a>
</g>
</g>
<!-- Node5&#45;&gt;Node4 -->
<g id="edge2" class="edge">
<title>Node5&#45;&gt;Node4</title>
<path fill="none" stroke="#191970" d="M63.5,-104.2342C63.5,-94.8491 63.5,-84.0651 63.5,-76.5265"/>
<polygon fill="#191970" stroke="#191970" points="60.0001,-104.3307 63.5,-114.3307 67.0001,-104.3308 60.0001,-104.3307"/>
</g>
<!-- Node6 -->
<g id="node4" class="node">
<title>Node6</title>
<g id="a_node4"><a xlink:href="classneon_1_1InternalVariables.html" target="_top" xlink:title="neon::InternalVariables">
<polygon fill="#ffffff" stroke="#000000" points="5.5,-181.5 5.5,-200.5 121.5,-200.5 121.5,-181.5 5.5,-181.5"/>
<text text-anchor="middle" x="63.5" y="-188.5" font-family="Helvetica,sans-Serif" font-size="10.00" fill="#000000">neon::InternalVariables</text>
</a>
</g>
</g>
<!-- Node6&#45;&gt;Node5 -->
<g id="edge3" class="edge">
<title>Node6&#45;&gt;Node5</title>
<path fill="none" stroke="#9a32cd" stroke-dasharray="5,2" d="M63.5,-171.1079C63.5,-158.714 63.5,-143.3263 63.5,-133.5817"/>
<polygon fill="#9a32cd" stroke="#9a32cd" points="60.0001,-171.4005 63.5,-181.4005 67.0001,-171.4006 60.0001,-171.4005"/>
<text text-anchor="middle" x="85" y="-155" font-family="Helvetica,sans-Serif" font-size="10.00" fill="#000000"> variables</text>
</g>
</g>
</svg>
