<?xml version="1.0" encoding="UTF-8" standalone="no"?>
<!DOCTYPE svg PUBLIC "-//W3C//DTD SVG 1.1//EN"
 "http://www.w3.org/Graphics/SVG/1.1/DTD/svg11.dtd">
<!-- Generated by graphviz version 2.40.1 (20161225.0304)
 -->
<!-- Title: neon::ConstitutiveModel::ConstitutiveModel Pages: 1 -->
<svg width="299pt" height="88pt"
 viewBox="0.00 0.00 299.00 88.00" xmlns="http://www.w3.org/2000/svg" xmlns:xlink="http://www.w3.org/1999/xlink">
<g id="graph0" class="graph" transform="scale(1 1) rotate(0) translate(4 84)">
<title>neon::ConstitutiveModel::ConstitutiveModel</title>
<polygon fill="#ffffff" stroke="transparent" points="-4,4 -4,-84 295,-84 295,4 -4,4"/>
<!-- Node0 -->
<g id="node1" class="node">
<title>Node0</title>
<polygon fill="#bfbfbf" stroke="#000000" points="0,-24.5 0,-54.5 122,-54.5 122,-24.5 0,-24.5"/>
<text text-anchor="start" x="8" y="-42.5" font-family="Helvetica,sans-Serif" font-size="10.00" fill="#000000">neon::ConstitutiveModel</text>
<text text-anchor="middle" x="61" y="-31.5" font-family="Helvetica,sans-Serif" font-size="10.00" fill="#000000">::ConstitutiveModel</text>
</g>
<!-- Node1 -->
<g id="node2" class="node">
<title>Node1</title>
<g id="a_node2"><a xlink:href="classneon_1_1ConstitutiveModel.html#a19d2b479c1348dee4328ab22a9a67817" target="_top" xlink:title="neon::ConstitutiveModel\l::update_internal_variables">
<polygon fill="#ffffff" stroke="#000000" points="158,-49.5 158,-79.5 291,-79.5 291,-49.5 158,-49.5"/>
<text text-anchor="start" x="166" y="-67.5" font-family="Helvetica,sans-Serif" font-size="10.00" fill="#000000">neon::ConstitutiveModel</text>
<text text-anchor="middle" x="224.5" y="-56.5" font-family="Helvetica,sans-Serif" font-size="10.00" fill="#000000">::update_internal_variables</text>
</a>
</g>
</g>
<!-- Node0&#45;&gt;Node1 -->
<g id="edge1" class="edge">
<title>Node0&#45;&gt;Node1</title>
<path fill="none" stroke="#191970" d="M122.3465,-48.8802C130.6829,-50.1549 139.3217,-51.4758 147.8851,-52.7852"/>
<polygon fill="#191970" stroke="#191970" points="147.4662,-56.2617 157.8804,-54.3135 148.5243,-49.3422 147.4662,-56.2617"/>
</g>
<!-- Node2 -->
<g id="node3" class="node">
<title>Node2</title>
<g id="a_node3"><a xlink:href="classneon_1_1ConstitutiveModel.html#a858f2b2f52f063423fd92236e04d7503" target="_top" xlink:title="neon::ConstitutiveModel\l::intrinsic_material">
<polygon fill="#ffffff" stroke="#000000" points="163.5,-.5 163.5,-30.5 285.5,-30.5 285.5,-.5 163.5,-.5"/>
<text text-anchor="start" x="171.5" y="-18.5" font-family="Helvetica,sans-Serif" font-size="10.00" fill="#000000">neon::ConstitutiveModel</text>
<text text-anchor="middle" x="224.5" y="-7.5" font-family="Helvetica,sans-Serif" font-size="10.00" fill="#000000">::intrinsic_material</text>
</a>
</g>
</g>
<!-- Node0&#45;&gt;Node2 -->
<g id="edge2" class="edge">
<title>Node0&#45;&gt;Node2</title>
<path fill="none" stroke="#191970" d="M122.3465,-30.495C132.4046,-29.0186 142.9028,-27.4776 153.1776,-25.9693"/>
<polygon fill="#191970" stroke="#191970" points="153.9678,-29.3909 163.3534,-24.4756 152.9511,-22.4652 153.9678,-29.3909"/>
</g>
</g>
</svg>
