<?xml version="1.0" encoding="UTF-8" standalone="no"?>
<!DOCTYPE svg PUBLIC "-//W3C//DTD SVG 1.1//EN"
 "http://www.w3.org/Graphics/SVG/1.1/DTD/svg11.dtd">
<!-- Generated by graphviz version 2.40.1 (20161225.0304)
 -->
<!-- Title: neon::NumericalQuadrature::evaluate Pages: 1 -->
<svg width="320pt" height="39pt"
 viewBox="0.00 0.00 320.00 39.00" xmlns="http://www.w3.org/2000/svg" xmlns:xlink="http://www.w3.org/1999/xlink">
<g id="graph0" class="graph" transform="scale(1 1) rotate(0) translate(4 35)">
<title>neon::NumericalQuadrature::evaluate</title>
<polygon fill="#ffffff" stroke="transparent" points="-4,4 -4,-35 316,-35 316,4 -4,4"/>
<!-- Node4 -->
<g id="node1" class="node">
<title>Node4</title>
<polygon fill="#bfbfbf" stroke="#000000" points="0,-.5 0,-30.5 136,-30.5 136,-.5 0,-.5"/>
<text text-anchor="start" x="8" y="-18.5" font-family="Helvetica,sans-Serif" font-size="10.00" fill="#000000">neon::NumericalQuadrature</text>
<text text-anchor="middle" x="68" y="-7.5" font-family="Helvetica,sans-Serif" font-size="10.00" fill="#000000">::evaluate</text>
</g>
<!-- Node5 -->
<g id="node2" class="node">
<title>Node5</title>
<g id="a_node2"><a xlink:href="classneon_1_1UnitSphereQuadrature.html#ad5eaed54ea17bb3a979930fab994c314" target="_top" xlink:title="neon::UnitSphereQuadrature\l::UnitSphereQuadrature">
<polygon fill="#ffffff" stroke="#000000" points="172,-.5 172,-30.5 312,-30.5 312,-.5 172,-.5"/>
<text text-anchor="start" x="180" y="-18.5" font-family="Helvetica,sans-Serif" font-size="10.00" fill="#000000">neon::UnitSphereQuadrature</text>
<text text-anchor="middle" x="242" y="-7.5" font-family="Helvetica,sans-Serif" font-size="10.00" fill="#000000">::UnitSphereQuadrature</text>
</a>
</g>
</g>
<!-- Node4&#45;&gt;Node5 -->
<g id="edge1" class="edge">
<title>Node4&#45;&gt;Node5</title>
<path fill="none" stroke="#191970" d="M146.5227,-15.5C154.9899,-15.5 163.5653,-15.5 171.9239,-15.5"/>
<polygon fill="#191970" stroke="#191970" points="146.27,-12.0001 136.27,-15.5 146.27,-19.0001 146.27,-12.0001"/>
</g>
</g>
</svg>
