<?xml version="1.0" encoding="UTF-8" standalone="no"?>
<!DOCTYPE svg PUBLIC "-//W3C//DTD SVG 1.1//EN"
 "http://www.w3.org/Graphics/SVG/1.1/DTD/svg11.dtd">
<!-- Generated by graphviz version 2.40.1 (20161225.0304)
 -->
<!-- Title: neon::solid::femSubmesh::consistent_mass Pages: 1 -->
<svg width="464pt" height="61pt"
 viewBox="0.00 0.00 464.00 61.00" xmlns="http://www.w3.org/2000/svg" xmlns:xlink="http://www.w3.org/1999/xlink">
<g id="graph0" class="graph" transform="scale(1 1) rotate(0) translate(4 57)">
<title>neon::solid::femSubmesh::consistent_mass</title>
<polygon fill="#ffffff" stroke="transparent" points="-4,4 -4,-57 460,-57 460,4 -4,4"/>
<!-- Node16 -->
<g id="node1" class="node">
<title>Node16</title>
<polygon fill="#bfbfbf" stroke="#000000" points="0,-.5 0,-30.5 128,-30.5 128,-.5 0,-.5"/>
<text text-anchor="start" x="8" y="-18.5" font-family="Helvetica,sans-Serif" font-size="10.00" fill="#000000">neon::solid::femSubmesh</text>
<text text-anchor="middle" x="64" y="-7.5" font-family="Helvetica,sans-Serif" font-size="10.00" fill="#000000">::consistent_mass</text>
</g>
<!-- Node17 -->
<g id="node2" class="node">
<title>Node17</title>
<g id="a_node2"><a xlink:href="classneon_1_1solid_1_1femSubmesh.html#a118bc792978bf5ac5e24d3949f53244e" target="_top" xlink:title="neon::solid::femSubmesh\l::diagonal_mass">
<polygon fill="#ffffff" stroke="#000000" points="164,-22.5 164,-52.5 292,-52.5 292,-22.5 164,-22.5"/>
<text text-anchor="start" x="172" y="-40.5" font-family="Helvetica,sans-Serif" font-size="10.00" fill="#000000">neon::solid::femSubmesh</text>
<text text-anchor="middle" x="228" y="-29.5" font-family="Helvetica,sans-Serif" font-size="10.00" fill="#000000">::diagonal_mass</text>
</a>
</g>
</g>
<!-- Node16&#45;&gt;Node17 -->
<g id="edge1" class="edge">
<title>Node16&#45;&gt;Node17</title>
<path fill="none" stroke="#191970" d="M138.2859,-25.4652C146.8158,-26.6094 155.4581,-27.7688 163.8391,-28.8931"/>
<polygon fill="#191970" stroke="#191970" points="138.723,-21.9926 128.3464,-24.1318 137.7923,-28.9304 138.723,-21.9926"/>
</g>
<!-- Node18 -->
<g id="node3" class="node">
<title>Node18</title>
<g id="a_node3"><a xlink:href="classneon_1_1solid_1_1femSubmesh.html#a6e725b9d73d74ff4f5971f2f7f74225c" target="_top" xlink:title="neon::solid::femSubmesh\l::internal_variables">
<polygon fill="#ffffff" stroke="#000000" points="328,-.5 328,-30.5 456,-30.5 456,-.5 328,-.5"/>
<text text-anchor="start" x="336" y="-18.5" font-family="Helvetica,sans-Serif" font-size="10.00" fill="#000000">neon::solid::femSubmesh</text>
<text text-anchor="middle" x="392" y="-7.5" font-family="Helvetica,sans-Serif" font-size="10.00" fill="#000000">::internal_variables</text>
</a>
</g>
</g>
<!-- Node16&#45;&gt;Node18 -->
<g id="edge3" class="edge">
<title>Node16&#45;&gt;Node18</title>
<path fill="none" stroke="#191970" d="M138.1804,-13.851C146.8839,-13.7065 155.6383,-13.5836 164,-13.5 220.886,-12.9312 235.114,-12.9312 292,-13.5 303.6337,-13.6163 316.0275,-13.8088 327.9868,-14.0295"/>
<polygon fill="#191970" stroke="#191970" points="137.9502,-10.3544 128.0132,-14.0295 138.0731,-17.3533 137.9502,-10.3544"/>
</g>
<!-- Node17&#45;&gt;Node18 -->
<g id="edge2" class="edge">
<title>Node17&#45;&gt;Node18</title>
<path fill="none" stroke="#191970" d="M302.2859,-27.5348C310.8158,-26.3906 319.4581,-25.2312 327.8391,-24.1069"/>
<polygon fill="#191970" stroke="#191970" points="301.7923,-24.0696 292.3464,-28.8682 302.723,-31.0074 301.7923,-24.0696"/>
</g>
</g>
</svg>
