<?xml version="1.0" encoding="UTF-8" standalone="no"?>
<!DOCTYPE svg PUBLIC "-//W3C//DTD SVG 1.1//EN"
 "http://www.w3.org/Graphics/SVG/1.1/DTD/svg11.dtd">
<!-- Generated by graphviz version 2.40.1 (20161225.0304)
 -->
<!-- Title: neon::solid::femSubmesh::diagonal_mass Pages: 1 -->
<svg width="630pt" height="186pt"
 viewBox="0.00 0.00 630.00 186.00" xmlns="http://www.w3.org/2000/svg" xmlns:xlink="http://www.w3.org/1999/xlink">
<g id="graph0" class="graph" transform="scale(1 1) rotate(0) translate(4 182)">
<title>neon::solid::femSubmesh::diagonal_mass</title>
<polygon fill="#ffffff" stroke="transparent" points="-4,4 -4,-182 626,-182 626,4 -4,4"/>
<!-- Node33 -->
<g id="node1" class="node">
<title>Node33</title>
<polygon fill="#bfbfbf" stroke="#000000" points="0,-25.5 0,-55.5 128,-55.5 128,-25.5 0,-25.5"/>
<text text-anchor="start" x="8" y="-43.5" font-family="Helvetica,sans-Serif" font-size="10.00" fill="#000000">neon::solid::femSubmesh</text>
<text text-anchor="middle" x="64" y="-32.5" font-family="Helvetica,sans-Serif" font-size="10.00" fill="#000000">::diagonal_mass</text>
</g>
<!-- Node34 -->
<g id="node2" class="node">
<title>Node34</title>
<g id="a_node2"><a xlink:href="classneon_1_1solid_1_1femSubmesh.html#ad6e50b01a0301255f81ffb8139ee785a" target="_top" xlink:title="neon::solid::femSubmesh\l::consistent_mass">
<polygon fill="#ffffff" stroke="#000000" points="164,-49.5 164,-79.5 292,-79.5 292,-49.5 164,-49.5"/>
<text text-anchor="start" x="172" y="-67.5" font-family="Helvetica,sans-Serif" font-size="10.00" fill="#000000">neon::solid::femSubmesh</text>
<text text-anchor="middle" x="228" y="-56.5" font-family="Helvetica,sans-Serif" font-size="10.00" fill="#000000">::consistent_mass</text>
</a>
</g>
</g>
<!-- Node33&#45;&gt;Node34 -->
<g id="edge1" class="edge">
<title>Node33&#45;&gt;Node34</title>
<path fill="none" stroke="#191970" d="M128.3464,-49.9166C136.7313,-51.1436 145.3746,-52.4085 153.9029,-53.6565"/>
<polygon fill="#191970" stroke="#191970" points="153.4377,-57.1256 163.8391,-55.1106 154.4513,-50.1994 153.4377,-57.1256"/>
</g>
<!-- Node39 -->
<g id="node7" class="node">
<title>Node39</title>
<g id="a_node7"><a xlink:href="classneon_1_1solid_1_1femSubmesh.html#a2828f622e7e0f2b5c5ab90654fd64de7" target="_top" xlink:title="neon::solid::femSubmesh\l::local_dof_list">
<polygon fill="#ffffff" stroke="#000000" points="333.5,-.5 333.5,-30.5 461.5,-30.5 461.5,-.5 333.5,-.5"/>
<text text-anchor="start" x="341.5" y="-18.5" font-family="Helvetica,sans-Serif" font-size="10.00" fill="#000000">neon::solid::femSubmesh</text>
<text text-anchor="middle" x="397.5" y="-7.5" font-family="Helvetica,sans-Serif" font-size="10.00" fill="#000000">::local_dof_list</text>
</a>
</g>
</g>
<!-- Node33&#45;&gt;Node39 -->
<g id="edge7" class="edge">
<title>Node33&#45;&gt;Node39</title>
<path fill="none" stroke="#191970" d="M128.3022,-35.6797C184.0125,-31.5036 264.6317,-25.4601 323.1113,-21.0764"/>
<polygon fill="#191970" stroke="#191970" points="323.6849,-24.5433 333.3953,-20.3055 323.1616,-17.5629 323.6849,-24.5433"/>
</g>
<!-- Node35 -->
<g id="node3" class="node">
<title>Node35</title>
<g id="a_node3"><a xlink:href="classneon_1_1SubMesh.html#acacabb1cefbe206b4c2bf9ddade795ed" target="_top" xlink:title="neon::SubMesh::local\l_node_list">
<polygon fill="#ffffff" stroke="#000000" points="342,-147.5 342,-177.5 453,-177.5 453,-147.5 342,-147.5"/>
<text text-anchor="start" x="350" y="-165.5" font-family="Helvetica,sans-Serif" font-size="10.00" fill="#000000">neon::SubMesh::local</text>
<text text-anchor="middle" x="397.5" y="-154.5" font-family="Helvetica,sans-Serif" font-size="10.00" fill="#000000">_node_list</text>
</a>
</g>
</g>
<!-- Node34&#45;&gt;Node35 -->
<g id="edge2" class="edge">
<title>Node34&#45;&gt;Node35</title>
<path fill="none" stroke="#191970" d="M244.972,-79.6085C264.0421,-95.9522 296.47,-121.8929 328,-138.5 331.3,-140.2382 334.7522,-141.8922 338.2786,-143.4587"/>
<polygon fill="#191970" stroke="#191970" points="337.1568,-146.7829 347.7337,-147.3983 339.8492,-140.3213 337.1568,-146.7829"/>
</g>
<!-- Node36 -->
<g id="node4" class="node">
<title>Node36</title>
<g id="a_node4"><a xlink:href="classneon_1_1SubMesh.html#a95a1ae84508d0006244c248aa50c76b3" target="_top" xlink:title="neon::SubMesh::nodes\l_per_element">
<polygon fill="#ffffff" stroke="#000000" points="339,-98.5 339,-128.5 456,-128.5 456,-98.5 339,-98.5"/>
<text text-anchor="start" x="347" y="-116.5" font-family="Helvetica,sans-Serif" font-size="10.00" fill="#000000">neon::SubMesh::nodes</text>
<text text-anchor="middle" x="397.5" y="-105.5" font-family="Helvetica,sans-Serif" font-size="10.00" fill="#000000">_per_element</text>
</a>
</g>
</g>
<!-- Node34&#45;&gt;Node36 -->
<g id="edge3" class="edge">
<title>Node34&#45;&gt;Node36</title>
<path fill="none" stroke="#191970" d="M280.2387,-79.6014C297.8011,-84.6785 317.5591,-90.3902 335.7802,-95.6577"/>
<polygon fill="#191970" stroke="#191970" points="334.8552,-99.0335 345.4338,-98.4484 336.7992,-92.3089 334.8552,-99.0335"/>
</g>
<!-- Node38 -->
<g id="node6" class="node">
<title>Node38</title>
<g id="a_node6"><a xlink:href="classneon_1_1solid_1_1femSubmesh.html#afa388c49be3b7e286237b363bb30551d" target="_top" xlink:title="neon::solid::femSubmesh\l::local_deformation_gradient">
<polygon fill="#ffffff" stroke="#000000" points="328,-49.5 328,-79.5 467,-79.5 467,-49.5 328,-49.5"/>
<text text-anchor="start" x="336" y="-67.5" font-family="Helvetica,sans-Serif" font-size="10.00" fill="#000000">neon::solid::femSubmesh</text>
<text text-anchor="middle" x="397.5" y="-56.5" font-family="Helvetica,sans-Serif" font-size="10.00" fill="#000000">::local_deformation_gradient</text>
</a>
</g>
</g>
<!-- Node34&#45;&gt;Node38 -->
<g id="edge5" class="edge">
<title>Node34&#45;&gt;Node38</title>
<path fill="none" stroke="#191970" d="M292.0807,-64.5C300.5034,-64.5 309.2163,-64.5 317.858,-64.5"/>
<polygon fill="#191970" stroke="#191970" points="317.9484,-68.0001 327.9484,-64.5 317.9483,-61.0001 317.9484,-68.0001"/>
</g>
<!-- Node34&#45;&gt;Node39 -->
<g id="edge6" class="edge">
<title>Node34&#45;&gt;Node39</title>
<path fill="none" stroke="#191970" d="M280.2387,-49.3986C297.8011,-44.3215 317.5591,-38.6098 335.7802,-33.3423"/>
<polygon fill="#191970" stroke="#191970" points="336.7992,-36.6911 345.4338,-30.5516 334.8552,-29.9665 336.7992,-36.6911"/>
</g>
<!-- Node37 -->
<g id="node5" class="node">
<title>Node37</title>
<g id="a_node5"><a xlink:href="classneon_1_1SubMesh.html#a2047359fe78bed483cc5462a9c0e7b42" target="_top" xlink:title="neon::SubMesh::unique\l_connectivities">
<polygon fill="#ffffff" stroke="#000000" points="503,-98.5 503,-128.5 622,-128.5 622,-98.5 503,-98.5"/>
<text text-anchor="start" x="511" y="-116.5" font-family="Helvetica,sans-Serif" font-size="10.00" fill="#000000">neon::SubMesh::unique</text>
<text text-anchor="middle" x="562.5" y="-105.5" font-family="Helvetica,sans-Serif" font-size="10.00" fill="#000000">_connectivities</text>
</a>
</g>
</g>
<!-- Node36&#45;&gt;Node37 -->
<g id="edge4" class="edge">
<title>Node36&#45;&gt;Node37</title>
<path fill="none" stroke="#191970" d="M456.1374,-113.5C468.0054,-113.5 480.5943,-113.5 492.8,-113.5"/>
<polygon fill="#191970" stroke="#191970" points="492.9385,-117.0001 502.9385,-113.5 492.9385,-110.0001 492.9385,-117.0001"/>
</g>
</g>
</svg>
