<?xml version="1.0" encoding="UTF-8" standalone="no"?>
<!DOCTYPE svg PUBLIC "-//W3C//DTD SVG 1.1//EN"
 "http://www.w3.org/Graphics/SVG/1.1/DTD/svg11.dtd">
<!-- Generated by graphviz version 2.40.1 (20161225.0304)
 -->
<!-- Title: neon::MicromechanicalElastomer::segment_probability Pages: 1 -->
<svg width="509pt" height="88pt"
 viewBox="0.00 0.00 509.00 88.00" xmlns="http://www.w3.org/2000/svg" xmlns:xlink="http://www.w3.org/1999/xlink">
<g id="graph0" class="graph" transform="scale(1 1) rotate(0) translate(4 84)">
<title>neon::MicromechanicalElastomer::segment_probability</title>
<polygon fill="#ffffff" stroke="transparent" points="-4,4 -4,-84 505,-84 505,4 -4,4"/>
<!-- Node20 -->
<g id="node1" class="node">
<title>Node20</title>
<polygon fill="#bfbfbf" stroke="#000000" points="0,-24.5 0,-54.5 161,-54.5 161,-24.5 0,-24.5"/>
<text text-anchor="start" x="8" y="-42.5" font-family="Helvetica,sans-Serif" font-size="10.00" fill="#000000">neon::MicromechanicalElastomer</text>
<text text-anchor="middle" x="80.5" y="-31.5" font-family="Helvetica,sans-Serif" font-size="10.00" fill="#000000">::segment_probability</text>
</g>
<!-- Node21 -->
<g id="node2" class="node">
<title>Node21</title>
<g id="a_node2"><a xlink:href="classneon_1_1AffineMicrosphere.html#a34503c57cf229f92d58365d45d8a39dc" target="_top" xlink:title="neon::AffineMicrosphere\l::compute_kirchhoff_stress">
<polygon fill="#ffffff" stroke="#000000" points="197,-24.5 197,-54.5 332,-54.5 332,-24.5 197,-24.5"/>
<text text-anchor="start" x="205" y="-42.5" font-family="Helvetica,sans-Serif" font-size="10.00" fill="#000000">neon::AffineMicrosphere</text>
<text text-anchor="middle" x="264.5" y="-31.5" font-family="Helvetica,sans-Serif" font-size="10.00" fill="#000000">::compute_kirchhoff_stress</text>
</a>
</g>
</g>
<!-- Node20&#45;&gt;Node21 -->
<g id="edge1" class="edge">
<title>Node20&#45;&gt;Node21</title>
<path fill="none" stroke="#191970" d="M171.2687,-39.5C179.8623,-39.5 188.4702,-39.5 196.7925,-39.5"/>
<polygon fill="#191970" stroke="#191970" points="171.2051,-36.0001 161.2051,-39.5 171.205,-43.0001 171.2051,-36.0001"/>
</g>
<!-- Node22 -->
<g id="node3" class="node">
<title>Node22</title>
<g id="a_node3"><a xlink:href="classneon_1_1AffineMicrosphere.html#ae6fbab77ef4d201ef8aa019235aac269" target="_top" xlink:title="neon::AffineMicrosphere\l::update_internal_variables">
<polygon fill="#ffffff" stroke="#000000" points="368,-49.5 368,-79.5 501,-79.5 501,-49.5 368,-49.5"/>
<text text-anchor="start" x="376" y="-67.5" font-family="Helvetica,sans-Serif" font-size="10.00" fill="#000000">neon::AffineMicrosphere</text>
<text text-anchor="middle" x="434.5" y="-56.5" font-family="Helvetica,sans-Serif" font-size="10.00" fill="#000000">::update_internal_variables</text>
</a>
</g>
</g>
<!-- Node21&#45;&gt;Node22 -->
<g id="edge2" class="edge">
<title>Node21&#45;&gt;Node22</title>
<path fill="none" stroke="#191970" d="M342.1873,-50.9246C350.7719,-52.187 359.4567,-53.4642 367.888,-54.7041"/>
<polygon fill="#191970" stroke="#191970" points="342.5798,-47.4448 332.177,-49.4525 341.5613,-54.3703 342.5798,-47.4448"/>
</g>
<!-- Node23 -->
<g id="node4" class="node">
<title>Node23</title>
<g id="a_node4"><a xlink:href="classneon_1_1AffineMicrosphere.html#a2aa9098fb29ba340ff3dd5cfc00ed46f" target="_top" xlink:title="neon::AffineMicrosphere\l::intrinsic_material">
<polygon fill="#ffffff" stroke="#000000" points="373.5,-.5 373.5,-30.5 495.5,-30.5 495.5,-.5 373.5,-.5"/>
<text text-anchor="start" x="381.5" y="-18.5" font-family="Helvetica,sans-Serif" font-size="10.00" fill="#000000">neon::AffineMicrosphere</text>
<text text-anchor="middle" x="434.5" y="-7.5" font-family="Helvetica,sans-Serif" font-size="10.00" fill="#000000">::intrinsic_material</text>
</a>
</g>
</g>
<!-- Node21&#45;&gt;Node23 -->
<g id="edge3" class="edge">
<title>Node21&#45;&gt;Node23</title>
<path fill="none" stroke="#191970" d="M342.1542,-28.537C352.6304,-27.0581 363.2566,-25.5579 373.3897,-24.1273"/>
<polygon fill="#191970" stroke="#191970" points="341.5895,-25.082 332.177,-29.9456 342.5681,-32.0133 341.5895,-25.082"/>
</g>
</g>
</svg>
