<?xml version="1.0" encoding="UTF-8" standalone="no"?>
<!DOCTYPE svg PUBLIC "-//W3C//DTD SVG 1.1//EN"
 "http://www.w3.org/Graphics/SVG/1.1/DTD/svg11.dtd">
<!-- Generated by graphviz version 2.40.1 (20161225.0304)
 -->
<!-- Title: neon::Boundary Pages: 1 -->
<svg width="278pt" height="140pt"
 viewBox="0.00 0.00 278.00 140.00" xmlns="http://www.w3.org/2000/svg" xmlns:xlink="http://www.w3.org/1999/xlink">
<g id="graph0" class="graph" transform="scale(1 1) rotate(0) translate(4 136)">
<title>neon::Boundary</title>
<polygon fill="#ffffff" stroke="transparent" points="-4,4 -4,-136 274,-136 274,4 -4,4"/>
<!-- Node0 -->
<g id="node1" class="node">
<title>Node0</title>
<polygon fill="#bfbfbf" stroke="#000000" points="82.5,-112.5 82.5,-131.5 167.5,-131.5 167.5,-112.5 82.5,-112.5"/>
<text text-anchor="middle" x="125" y="-119.5" font-family="Helvetica,sans-Serif" font-size="10.00" fill="#000000">neon::Boundary</text>
</g>
<!-- Node1 -->
<g id="node2" class="node">
<title>Node1</title>
<g id="a_node2"><a xlink:href="classneon_1_1solid_1_1Dirichlet.html" target="_top" xlink:title="neon::solid::Dirichlet">
<polygon fill="#ffffff" stroke="#000000" points="0,-56.5 0,-75.5 106,-75.5 106,-56.5 0,-56.5"/>
<text text-anchor="middle" x="53" y="-63.5" font-family="Helvetica,sans-Serif" font-size="10.00" fill="#000000">neon::solid::Dirichlet</text>
</a>
</g>
</g>
<!-- Node0&#45;&gt;Node1 -->
<g id="edge1" class="edge">
<title>Node0&#45;&gt;Node1</title>
<path fill="none" stroke="#191970" d="M104.336,-105.928C91.7511,-96.1397 76.0908,-83.9595 65.3977,-75.6427"/>
<polygon fill="#191970" stroke="#191970" points="102.4162,-108.8688 112.4586,-112.2455 106.7138,-103.3434 102.4162,-108.8688"/>
</g>
<!-- Node2 -->
<g id="node3" class="node">
<title>Node2</title>
<g id="a_node3"><a xlink:href="classneon_1_1solid_1_1NonFollowerLoad.html" target="_top" xlink:title="neon::solid::NonFollowerLoad">
<polygon fill="#ffffff" stroke="#000000" points="124,-56.5 124,-75.5 270,-75.5 270,-56.5 124,-56.5"/>
<text text-anchor="middle" x="197" y="-63.5" font-family="Helvetica,sans-Serif" font-size="10.00" fill="#000000">neon::solid::NonFollowerLoad</text>
</a>
</g>
</g>
<!-- Node0&#45;&gt;Node2 -->
<g id="edge2" class="edge">
<title>Node0&#45;&gt;Node2</title>
<path fill="none" stroke="#191970" d="M145.664,-105.928C158.2489,-96.1397 173.9092,-83.9595 184.6023,-75.6427"/>
<polygon fill="#191970" stroke="#191970" points="143.2862,-103.3434 137.5414,-112.2455 147.5838,-108.8688 143.2862,-103.3434"/>
</g>
<!-- Node3 -->
<g id="node4" class="node">
<title>Node3</title>
<g id="a_node4"><a xlink:href="classneon_1_1solid_1_1Traction.html" target="_top" xlink:title="neon::solid::Traction">
<polygon fill="#ffffff" stroke="#000000" points="144.5,-.5 144.5,-19.5 249.5,-19.5 249.5,-.5 144.5,-.5"/>
<text text-anchor="middle" x="197" y="-7.5" font-family="Helvetica,sans-Serif" font-size="10.00" fill="#000000">neon::solid::Traction</text>
</a>
</g>
</g>
<!-- Node2&#45;&gt;Node3 -->
<g id="edge3" class="edge">
<title>Node2&#45;&gt;Node3</title>
<path fill="none" stroke="#191970" d="M197,-46.1575C197,-37.155 197,-26.9199 197,-19.6427"/>
<polygon fill="#191970" stroke="#191970" points="193.5001,-46.2455 197,-56.2455 200.5001,-46.2456 193.5001,-46.2455"/>
</g>
</g>
</svg>
