<?xml version="1.0" encoding="UTF-8" standalone="no"?>
<!DOCTYPE svg PUBLIC "-//W3C//DTD SVG 1.1//EN"
 "http://www.w3.org/Graphics/SVG/1.1/DTD/svg11.dtd">
<!-- Generated by graphviz version 2.40.1 (20161225.0304)
 -->
<!-- Title: neon::solid::femStaticMatrix::apply_displacement_boundaries Pages: 1 -->
<svg width="519pt" height="61pt"
 viewBox="0.00 0.00 519.00 61.00" xmlns="http://www.w3.org/2000/svg" xmlns:xlink="http://www.w3.org/1999/xlink">
<g id="graph0" class="graph" transform="scale(1 1) rotate(0) translate(4 57)">
<title>neon::solid::femStaticMatrix::apply_displacement_boundaries</title>
<polygon fill="#ffffff" stroke="transparent" points="-4,4 -4,-57 515,-57 515,4 -4,4"/>
<!-- Node17 -->
<g id="node1" class="node">
<title>Node17</title>
<polygon fill="#bfbfbf" stroke="#000000" points="0,-.5 0,-30.5 161,-30.5 161,-.5 0,-.5"/>
<text text-anchor="start" x="8" y="-18.5" font-family="Helvetica,sans-Serif" font-size="10.00" fill="#000000">neon::solid::femStaticMatrix</text>
<text text-anchor="middle" x="80.5" y="-7.5" font-family="Helvetica,sans-Serif" font-size="10.00" fill="#000000">::apply_displacement_boundaries</text>
</g>
<!-- Node18 -->
<g id="node2" class="node">
<title>Node18</title>
<g id="a_node2"><a xlink:href="classneon_1_1solid_1_1femStaticMatrix.html#a1b4ec4af5d4aa93d28a374c0f4f7e5d3" target="_top" xlink:title="neon::solid::femStaticMatrix\l::compute_sparsity_pattern">
<polygon fill="#ffffff" stroke="#000000" points="197,-22.5 197,-52.5 336,-52.5 336,-22.5 197,-22.5"/>
<text text-anchor="start" x="205" y="-40.5" font-family="Helvetica,sans-Serif" font-size="10.00" fill="#000000">neon::solid::femStaticMatrix</text>
<text text-anchor="middle" x="266.5" y="-29.5" font-family="Helvetica,sans-Serif" font-size="10.00" fill="#000000">::compute_sparsity_pattern</text>
</a>
</g>
</g>
<!-- Node17&#45;&gt;Node18 -->
<g id="edge1" class="edge">
<title>Node17&#45;&gt;Node18</title>
<path fill="none" stroke="#191970" d="M171.1558,-26.2227C179.8326,-27.249 188.5367,-28.2785 196.9656,-29.2755"/>
<polygon fill="#191970" stroke="#191970" points="171.3424,-22.7205 161.0005,-25.0216 170.5202,-29.672 171.3424,-22.7205"/>
</g>
<!-- Node19 -->
<g id="node3" class="node">
<title>Node19</title>
<g id="a_node3"><a xlink:href="classneon_1_1solid_1_1femStaticMatrix.html#a38f9c7ef5b0a03920dd67cc054a83042" target="_top" xlink:title="neon::solid::femStaticMatrix\l::assemble_stiffness">
<polygon fill="#ffffff" stroke="#000000" points="372,-.5 372,-30.5 511,-30.5 511,-.5 372,-.5"/>
<text text-anchor="start" x="380" y="-18.5" font-family="Helvetica,sans-Serif" font-size="10.00" fill="#000000">neon::solid::femStaticMatrix</text>
<text text-anchor="middle" x="441.5" y="-7.5" font-family="Helvetica,sans-Serif" font-size="10.00" fill="#000000">::assemble_stiffness</text>
</a>
</g>
</g>
<!-- Node18&#45;&gt;Node19 -->
<g id="edge2" class="edge">
<title>Node18&#45;&gt;Node19</title>
<path fill="none" stroke="#191970" d="M346.1455,-27.4874C354.7018,-26.4118 363.359,-25.3234 371.7863,-24.264"/>
<polygon fill="#191970" stroke="#191970" points="345.6528,-24.0217 336.1675,-28.7418 346.526,-30.9671 345.6528,-24.0217"/>
</g>
<!-- Node19&#45;&gt;Node17 -->
<g id="edge3" class="edge">
<title>Node19&#45;&gt;Node17</title>
<path fill="none" stroke="#191970" d="M361.8001,-13.8286C353.0935,-13.6938 344.3607,-13.5792 336,-13.5 274.225,-12.9145 258.7755,-12.9698 197,-13.5 185.3689,-13.5998 173.0854,-13.7557 161.0293,-13.9374"/>
<polygon fill="#191970" stroke="#191970" points="361.929,-17.331 371.9849,-13.9951 362.0435,-10.332 361.929,-17.331"/>
</g>
</g>
</svg>
