<?xml version="1.0" encoding="UTF-8" standalone="no"?>
<!DOCTYPE svg PUBLIC "-//W3C//DTD SVG 1.1//EN"
 "http://www.w3.org/Graphics/SVG/1.1/DTD/svg11.dtd">
<!-- Generated by graphviz version 2.40.1 (20161225.0304)
 -->
<!-- Title: neon::solid::femSubmesh::tangent_stiffness Pages: 1 -->
<!--zoomable 181 -->
<svg id="main" version="1.1" xmlns="http://www.w3.org/2000/svg" xmlns:xlink="http://www.w3.org/1999/xlink" xml:space="preserve" onload="init(evt)">
<style type="text/css"><![CDATA[
.edge:hover path { stroke: red; }
.edge:hover polygon { stroke: red; fill: red; }
]]></style>
<script type="text/javascript"><![CDATA[
var edges = document.getElementsByTagName('g');
if (edges && edges.length) {
  for (var i=0;i<edges.length;i++) {
    if (edges[i].id.substr(0,4)=='edge') {
      edges[i].setAttribute('class','edge');
    }
  }
}
]]></script>
        <defs>
                <circle id="rim" cx="0" cy="0" r="7"/>
                <circle id="rim2" cx="0" cy="0" r="3.5"/>
                <g id="zoomPlus">
                        <use xlink:href="#rim" fill="#404040">
                                <set attributeName="fill" to="#808080" begin="zoomplus.mouseover" end="zoomplus.mouseout"/>
                        </use>
                        <path d="M-4,0h8M0,-4v8" fill="none" stroke="white" stroke-width="1.5" pointer-events="none"/>
                </g>
                <g id="zoomMin">
                        <use xlink:href="#rim" fill="#404040">
                                <set attributeName="fill" to="#808080" begin="zoomminus.mouseover" end="zoomminus.mouseout"/>
                        </use>
                        <path d="M-4,0h8" fill="none" stroke="white" stroke-width="1.5" pointer-events="none"/>
                </g>
                <g id="dirArrow">
                        <path fill="none" stroke="white" stroke-width="1.5" d="M0,-3.0v7 M-2.5,-0.5L0,-3.0L2.5,-0.5"/>
                </g>
               <g id="resetDef">
                       <use xlink:href="#rim2" fill="#404040">
                               <set attributeName="fill" to="#808080" begin="reset.mouseover" end="reset.mouseout"/>
                       </use>
               </g>
        </defs>

<script type="text/javascript">
var viewWidth = 660;
var viewHeight = 181;
var sectionId = 'dynsection-22';
</script>
<script xlink:href="svgpan.js"/>
<svg id="graph" class="graph">
<g id="viewport">
<title>neon::solid::femSubmesh::tangent_stiffness</title>
<polygon fill="#ffffff" stroke="transparent" points="-4,4 -4,-177 656,-177 656,4 -4,4"/>
<!-- Node139 -->
<g id="node1" class="node">
<title>Node139</title>
<polygon fill="#bfbfbf" stroke="#000000" points="0,-73.5 0,-103.5 128,-103.5 128,-73.5 0,-73.5"/>
<text text-anchor="start" x="8" y="-91.5" font-family="Helvetica,sans-Serif" font-size="10.00" fill="#000000">neon::solid::femSubmesh</text>
<text text-anchor="middle" x="64" y="-80.5" font-family="Helvetica,sans-Serif" font-size="10.00" fill="#000000">::tangent_stiffness</text>
</g>
<!-- Node140 -->
<g id="node2" class="node">
<title>Node140</title>
<g id="a_node2"><a xlink:href="classneon_1_1SubMesh.html#acacabb1cefbe206b4c2bf9ddade795ed" target="_top" xlink:title="neon::SubMesh::local\l_node_list">
<polygon fill="#ffffff" stroke="#000000" points="531,-142.5 531,-172.5 642,-172.5 642,-142.5 531,-142.5"/>
<text text-anchor="start" x="539" y="-160.5" font-family="Helvetica,sans-Serif" font-size="10.00" fill="#000000">neon::SubMesh::local</text>
<text text-anchor="middle" x="586.5" y="-149.5" font-family="Helvetica,sans-Serif" font-size="10.00" fill="#000000">_node_list</text>
</a>
</g>
</g>
<!-- Node139&#45;&gt;Node140 -->
<g id="edge1" class="edge">
<title>Node139&#45;&gt;Node140</title>
<path fill="none" stroke="#191970" d="M87.1357,-103.5898C106.725,-115.4801 136.0087,-131.2245 164,-138.5 286.7929,-170.4164 436.308,-167.9036 520.5289,-162.8984"/>
<polygon fill="#191970" stroke="#191970" points="520.9576,-166.3785 530.7197,-162.2614 520.5208,-159.3921 520.9576,-166.3785"/>
</g>
<!-- Node141 -->
<g id="node3" class="node">
<title>Node141</title>
<g id="a_node3"><a xlink:href="classneon_1_1solid_1_1femSubmesh.html#ac59a58e4a33eea88a87f181c1771621e" target="_top" xlink:title="neon::solid::femSubmesh\l::material_tangent_stiffness">
<polygon fill="#ffffff" stroke="#000000" points="168.5,-98.5 168.5,-128.5 305.5,-128.5 305.5,-98.5 168.5,-98.5"/>
<text text-anchor="start" x="176.5" y="-116.5" font-family="Helvetica,sans-Serif" font-size="10.00" fill="#000000">neon::solid::femSubmesh</text>
<text text-anchor="middle" x="237" y="-105.5" font-family="Helvetica,sans-Serif" font-size="10.00" fill="#000000">::material_tangent_stiffness</text>
</a>
</g>
</g>
<!-- Node139&#45;&gt;Node141 -->
<g id="edge2" class="edge">
<title>Node139&#45;&gt;Node141</title>
<path fill="none" stroke="#191970" d="M128.4188,-97.8091C138.2177,-99.2251 148.4217,-100.6997 158.4805,-102.1532"/>
<polygon fill="#191970" stroke="#191970" points="158.0727,-105.6306 168.4705,-103.5969 159.074,-98.7026 158.0727,-105.6306"/>
</g>
<!-- Node147 -->
<g id="node9" class="node">
<title>Node147</title>
<g id="a_node9"><a xlink:href="classneon_1_1solid_1_1femSubmesh.html#a2828f622e7e0f2b5c5ab90654fd64de7" target="_top" xlink:title="neon::solid::femSubmesh\l::local_dof_list">
<polygon fill="#ffffff" stroke="#000000" points="173,-.5 173,-30.5 301,-30.5 301,-.5 173,-.5"/>
<text text-anchor="start" x="181" y="-18.5" font-family="Helvetica,sans-Serif" font-size="10.00" fill="#000000">neon::solid::femSubmesh</text>
<text text-anchor="middle" x="237" y="-7.5" font-family="Helvetica,sans-Serif" font-size="10.00" fill="#000000">::local_dof_list</text>
</a>
</g>
</g>
<!-- Node139&#45;&gt;Node147 -->
<g id="edge9" class="edge">
<title>Node139&#45;&gt;Node147</title>
<path fill="none" stroke="#191970" d="M93.3426,-73.2904C113.0559,-63.353 139.7638,-50.4265 164,-40.5 169.4003,-38.2882 175.0766,-36.1052 180.7784,-34.0053"/>
<polygon fill="#191970" stroke="#191970" points="182.1302,-37.2386 190.3543,-30.5593 179.7599,-30.6521 182.1302,-37.2386"/>
</g>
<!-- Node148 -->
<g id="node10" class="node">
<title>Node148</title>
<g id="a_node10"><a xlink:href="classneon_1_1solid_1_1femSubmesh.html#a146b01147a0c5c030a464088509289dd" target="_top" xlink:title="neon::solid::femSubmesh\l::geometric_tangent_stiffness">
<polygon fill="#ffffff" stroke="#000000" points="164,-49.5 164,-79.5 310,-79.5 310,-49.5 164,-49.5"/>
<text text-anchor="start" x="172" y="-67.5" font-family="Helvetica,sans-Serif" font-size="10.00" fill="#000000">neon::solid::femSubmesh</text>
<text text-anchor="middle" x="237" y="-56.5" font-family="Helvetica,sans-Serif" font-size="10.00" fill="#000000">::geometric_tangent_stiffness</text>
</a>
</g>
</g>
<!-- Node139&#45;&gt;Node148 -->
<g id="edge10" class="edge">
<title>Node139&#45;&gt;Node148</title>
<path fill="none" stroke="#191970" d="M128.4188,-79.5633C136.7046,-78.4138 145.2801,-77.2242 153.8125,-76.0405"/>
<polygon fill="#191970" stroke="#191970" points="154.365,-79.4974 163.7892,-74.6564 153.403,-72.5638 154.365,-79.4974"/>
</g>
<!-- Node142 -->
<g id="node4" class="node">
<title>Node142</title>
<g id="a_node4"><a xlink:href="classneon_1_1SubMesh.html#a95a1ae84508d0006244c248aa50c76b3" target="_top" xlink:title="neon::SubMesh::nodes\l_per_element">
<polygon fill="#ffffff" stroke="#000000" points="357,-49.5 357,-79.5 474,-79.5 474,-49.5 357,-49.5"/>
<text text-anchor="start" x="365" y="-67.5" font-family="Helvetica,sans-Serif" font-size="10.00" fill="#000000">neon::SubMesh::nodes</text>
<text text-anchor="middle" x="415.5" y="-56.5" font-family="Helvetica,sans-Serif" font-size="10.00" fill="#000000">_per_element</text>
</a>
</g>
</g>
<!-- Node141&#45;&gt;Node142 -->
<g id="edge3" class="edge">
<title>Node141&#45;&gt;Node142</title>
<path fill="none" stroke="#191970" d="M292.0124,-98.3986C310.5926,-93.2981 331.5063,-87.5571 350.7682,-82.2695"/>
<polygon fill="#191970" stroke="#191970" points="351.9525,-85.574 360.6693,-79.5516 350.0995,-78.8237 351.9525,-85.574"/>
</g>
<!-- Node144 -->
<g id="node6" class="node">
<title>Node144</title>
<g id="a_node6"><a xlink:href="classneon_1_1solid_1_1femSubmesh.html#abfcb47594fe901d00dc48b6550fe124b" target="_top" xlink:title="neon::solid::femSubmesh\l::offset">
<polygon fill="#ffffff" stroke="#000000" points="351.5,-98.5 351.5,-128.5 479.5,-128.5 479.5,-98.5 351.5,-98.5"/>
<text text-anchor="start" x="359.5" y="-116.5" font-family="Helvetica,sans-Serif" font-size="10.00" fill="#000000">neon::solid::femSubmesh</text>
<text text-anchor="middle" x="415.5" y="-105.5" font-family="Helvetica,sans-Serif" font-size="10.00" fill="#000000">::offset</text>
</a>
</g>
</g>
<!-- Node141&#45;&gt;Node144 -->
<g id="edge5" class="edge">
<title>Node141&#45;&gt;Node144</title>
<path fill="none" stroke="#191970" d="M305.5023,-113.5C317.1366,-113.5 329.2689,-113.5 341.0475,-113.5"/>
<polygon fill="#191970" stroke="#191970" points="341.286,-117.0001 351.286,-113.5 341.2859,-110.0001 341.286,-117.0001"/>
</g>
<!-- Node146 -->
<g id="node8" class="node">
<title>Node146</title>
<g id="a_node8"><a xlink:href="classneon_1_1solid_1_1femSubmesh.html#afa388c49be3b7e286237b363bb30551d" target="_top" xlink:title="neon::solid::femSubmesh\l::local_deformation_gradient">
<polygon fill="#ffffff" stroke="#000000" points="346,-.5 346,-30.5 485,-30.5 485,-.5 346,-.5"/>
<text text-anchor="start" x="354" y="-18.5" font-family="Helvetica,sans-Serif" font-size="10.00" fill="#000000">neon::solid::femSubmesh</text>
<text text-anchor="middle" x="415.5" y="-7.5" font-family="Helvetica,sans-Serif" font-size="10.00" fill="#000000">::local_deformation_gradient</text>
</a>
</g>
</g>
<!-- Node141&#45;&gt;Node146 -->
<g id="edge8" class="edge">
<title>Node141&#45;&gt;Node146</title>
<path fill="none" stroke="#191970" d="M294.4949,-98.4728C299.9728,-95.9163 305.2479,-92.9459 310,-89.5 331.8771,-73.6361 324.3444,-56.665 346,-40.5 348.4887,-38.6423 351.1285,-36.9124 353.8685,-35.3026"/>
<polygon fill="#191970" stroke="#191970" points="355.6719,-38.3089 362.8986,-30.5614 352.4178,-32.1113 355.6719,-38.3089"/>
</g>
<!-- Node143 -->
<g id="node5" class="node">
<title>Node143</title>
<g id="a_node5"><a xlink:href="classneon_1_1SubMesh.html#a2047359fe78bed483cc5462a9c0e7b42" target="_top" xlink:title="neon::SubMesh::unique\l_connectivities">
<polygon fill="#ffffff" stroke="#000000" points="527,-49.5 527,-79.5 646,-79.5 646,-49.5 527,-49.5"/>
<text text-anchor="start" x="535" y="-67.5" font-family="Helvetica,sans-Serif" font-size="10.00" fill="#000000">neon::SubMesh::unique</text>
<text text-anchor="middle" x="586.5" y="-56.5" font-family="Helvetica,sans-Serif" font-size="10.00" fill="#000000">_connectivities</text>
</a>
</g>
</g>
<!-- Node142&#45;&gt;Node143 -->
<g id="edge4" class="edge">
<title>Node142&#45;&gt;Node143</title>
<path fill="none" stroke="#191970" d="M474.3485,-64.5C488.0309,-64.5 502.725,-64.5 516.8242,-64.5"/>
<polygon fill="#191970" stroke="#191970" points="516.9626,-68.0001 526.9625,-64.5 516.9625,-61.0001 516.9626,-68.0001"/>
</g>
<!-- Node144&#45;&gt;Node140 -->
<g id="edge7" class="edge">
<title>Node144&#45;&gt;Node140</title>
<path fill="none" stroke="#191970" d="M473.8702,-128.5192C489.0294,-132.4198 505.458,-136.6471 520.9594,-140.6357"/>
<polygon fill="#191970" stroke="#191970" points="520.4328,-144.1142 530.9895,-143.2166 522.1772,-137.335 520.4328,-144.1142"/>
</g>
<!-- Node145 -->
<g id="node7" class="node">
<title>Node145</title>
<g id="a_node7"><a xlink:href="classneon_1_1SubMesh.html#af487d15a392b158f57d0de57e761f6d1" target="_top" xlink:title="neon::SubMesh::elements">
<polygon fill="#ffffff" stroke="#000000" points="521,-104 521,-123 652,-123 652,-104 521,-104"/>
<text text-anchor="middle" x="586.5" y="-111" font-family="Helvetica,sans-Serif" font-size="10.00" fill="#000000">neon::SubMesh::elements</text>
</a>
</g>
</g>
<!-- Node144&#45;&gt;Node145 -->
<g id="edge6" class="edge">
<title>Node144&#45;&gt;Node145</title>
<path fill="none" stroke="#191970" d="M479.6606,-113.5C489.7535,-113.5 500.2703,-113.5 510.5979,-113.5"/>
<polygon fill="#191970" stroke="#191970" points="510.8397,-117.0001 520.8397,-113.5 510.8397,-110.0001 510.8397,-117.0001"/>
</g>
<!-- Node148&#45;&gt;Node142 -->
<g id="edge11" class="edge">
<title>Node148&#45;&gt;Node142</title>
<path fill="none" stroke="#191970" d="M310.1178,-64.5C322.1814,-64.5 334.6516,-64.5 346.6071,-64.5"/>
<polygon fill="#191970" stroke="#191970" points="346.9578,-68.0001 356.9578,-64.5 346.9578,-61.0001 346.9578,-68.0001"/>
</g>
<!-- Node148&#45;&gt;Node144 -->
<g id="edge13" class="edge">
<title>Node148&#45;&gt;Node144</title>
<path fill="none" stroke="#191970" d="M292.0124,-79.6014C310.5926,-84.7019 331.5063,-90.4429 350.7682,-95.7305"/>
<polygon fill="#191970" stroke="#191970" points="350.0995,-99.1763 360.6693,-98.4484 351.9525,-92.426 350.0995,-99.1763"/>
</g>
<!-- Node148&#45;&gt;Node146 -->
<g id="edge12" class="edge">
<title>Node148&#45;&gt;Node146</title>
<path fill="none" stroke="#191970" d="M292.0124,-49.3986C310.5926,-44.2981 331.5063,-38.5571 350.7682,-33.2695"/>
<polygon fill="#191970" stroke="#191970" points="351.9525,-36.574 360.6693,-30.5516 350.0995,-29.8237 351.9525,-36.574"/>
</g>
</g>
</svg>
        <g id="navigator" transform="translate(0 0)" fill="#404254">
                <rect fill="#f2f5e9" fill-opacity="0.5" stroke="#606060" stroke-width=".5" x="0" y="0" width="60" height="60"/>
                <use id="zoomplus" xlink:href="#zoomPlus" x="17" y="9" onmousedown="handleZoom(evt,'in')"/>
                <use id="zoomminus" xlink:href="#zoomMin" x="42" y="9" onmousedown="handleZoom(evt,'out')"/>
                <use id="reset" xlink:href="#resetDef" x="30" y="36" onmousedown="handleReset()"/>
                <g id="arrowUp" xlink:href="#dirArrow" transform="translate(30 24)" onmousedown="handlePan(0,-1)">
                  <use xlink:href="#rim" fill="#404040">
                        <set attributeName="fill" to="#808080" begin="arrowUp.mouseover" end="arrowUp.mouseout"/>
                  </use>
                  <path fill="none" stroke="white" stroke-width="1.5" d="M0,-3.0v7 M-2.5,-0.5L0,-3.0L2.5,-0.5"/>
                </g>
                <g id="arrowRight" xlink:href="#dirArrow" transform="rotate(90) translate(36 -43)" onmousedown="handlePan(1,0)">
                  <use xlink:href="#rim" fill="#404040">
                        <set attributeName="fill" to="#808080" begin="arrowRight.mouseover" end="arrowRight.mouseout"/>
                  </use>
                  <path fill="none" stroke="white" stroke-width="1.5" d="M0,-3.0v7 M-2.5,-0.5L0,-3.0L2.5,-0.5"/>
                </g>
                <g id="arrowDown" xlink:href="#dirArrow" transform="rotate(180) translate(-30 -48)" onmousedown="handlePan(0,1)">
                  <use xlink:href="#rim" fill="#404040">
                        <set attributeName="fill" to="#808080" begin="arrowDown.mouseover" end="arrowDown.mouseout"/>
                  </use>
                  <path fill="none" stroke="white" stroke-width="1.5" d="M0,-3.0v7 M-2.5,-0.5L0,-3.0L2.5,-0.5"/>
                </g>
                <g id="arrowLeft" xlink:href="#dirArrow" transform="rotate(270) translate(-36 17)" onmousedown="handlePan(-1,0)">
                  <use xlink:href="#rim" fill="#404040">
                        <set attributeName="fill" to="#808080" begin="arrowLeft.mouseover" end="arrowLeft.mouseout"/>
                  </use>
                  <path fill="none" stroke="white" stroke-width="1.5" d="M0,-3.0v7 M-2.5,-0.5L0,-3.0L2.5,-0.5"/>
                </g>
        </g>
        <svg viewBox="0 0 15 15" width="100%" height="30px" preserveAspectRatio="xMaxYMin meet">
         <g id="arrow_out" transform="scale(0.3 0.3)">
          <a xlink:href="classneon_1_1solid_1_1femSubmesh_abdc355d969d95032d707ab251e4db75d_cgraph_org.svg" target="_base">
           <rect id="button" ry="5" rx="5" y="6" x="6" height="38" width="38"
                fill="#f2f5e9" fill-opacity="0.5" stroke="#606060" stroke-width="1.0"/>
           <path id="arrow"
             d="M 11.500037,31.436501 C 11.940474,20.09759 22.043105,11.32322 32.158766,21.979434 L 37.068811,17.246167 C 37.068811,17.246167 37.088388,32 37.088388,32 L 22.160133,31.978069 C 22.160133,31.978069 26.997745,27.140456 26.997745,27.140456 C 18.528582,18.264221 13.291696,25.230495 11.500037,31.436501 z"
             style="fill:#404040;"/>
          </a>
         </g>
        </svg>
</svg>
