<?xml version="1.0" encoding="UTF-8" standalone="no"?>
<!DOCTYPE svg PUBLIC "-//W3C//DTD SVG 1.1//EN"
 "http://www.w3.org/Graphics/SVG/1.1/DTD/svg11.dtd">
<!-- Generated by graphviz version 2.40.1 (20161225.0304)
 -->
<!-- Title: neon::solid::femMesh::reallocate_boundary_conditions Pages: 1 -->
<svg width="264pt" height="50pt"
 viewBox="0.00 0.00 264.00 50.00" xmlns="http://www.w3.org/2000/svg" xmlns:xlink="http://www.w3.org/1999/xlink">
<g id="graph0" class="graph" transform="scale(1 1) rotate(0) translate(4 46)">
<title>neon::solid::femMesh::reallocate_boundary_conditions</title>
<polygon fill="#ffffff" stroke="transparent" points="-4,4 -4,-46 260,-46 260,4 -4,4"/>
<!-- Node15 -->
<g id="node1" class="node">
<title>Node15</title>
<polygon fill="#bfbfbf" stroke="#000000" points="0,-.5 0,-41.5 110,-41.5 110,-.5 0,-.5"/>
<text text-anchor="start" x="8" y="-29.5" font-family="Helvetica,sans-Serif" font-size="10.00" fill="#000000">neon::solid::femMesh</text>
<text text-anchor="start" x="8" y="-18.5" font-family="Helvetica,sans-Serif" font-size="10.00" fill="#000000">::reallocate_boundary</text>
<text text-anchor="middle" x="55" y="-7.5" font-family="Helvetica,sans-Serif" font-size="10.00" fill="#000000">_conditions</text>
</g>
<!-- Node16 -->
<g id="node2" class="node">
<title>Node16</title>
<g id="a_node2"><a xlink:href="classneon_1_1solid_1_1femMesh.html#a40731b9f77c2329bb27534f359265e6f" target="_top" xlink:title="neon::solid::femMesh\l::meshes">
<polygon fill="#ffffff" stroke="#000000" points="146,-6 146,-36 256,-36 256,-6 146,-6"/>
<text text-anchor="start" x="154" y="-24" font-family="Helvetica,sans-Serif" font-size="10.00" fill="#000000">neon::solid::femMesh</text>
<text text-anchor="middle" x="201" y="-13" font-family="Helvetica,sans-Serif" font-size="10.00" fill="#000000">::meshes</text>
</a>
</g>
</g>
<!-- Node15&#45;&gt;Node16 -->
<g id="edge1" class="edge">
<title>Node15&#45;&gt;Node16</title>
<path fill="none" stroke="#191970" d="M120.4101,-21C128.8647,-21 137.4567,-21 145.7256,-21"/>
<polygon fill="#191970" stroke="#191970" points="120.1964,-17.5001 110.1963,-21 120.1963,-24.5001 120.1964,-17.5001"/>
</g>
</g>
</svg>
