<?xml version="1.0" encoding="UTF-8" standalone="no"?>
<!DOCTYPE svg PUBLIC "-//W3C//DTD SVG 1.1//EN"
 "http://www.w3.org/Graphics/SVG/1.1/DTD/svg11.dtd">
<!-- Generated by graphviz version 2.40.1 (20161225.0304)
 -->
<!-- Title: neon::NumericalQuadrature&lt; Xi, Eta &gt; Pages: 1 -->
<svg width="326pt" height="284pt"
 viewBox="0.00 0.00 326.00 284.00" xmlns="http://www.w3.org/2000/svg" xmlns:xlink="http://www.w3.org/1999/xlink">
<g id="graph0" class="graph" transform="scale(1 1) rotate(0) translate(4 280)">
<title>neon::NumericalQuadrature&lt; Xi, Eta &gt;</title>
<polygon fill="#ffffff" stroke="transparent" points="-4,4 -4,-280 322,-280 322,4 -4,4"/>
<!-- Node0 -->
<g id="node1" class="node">
<title>Node0</title>
<polygon fill="#bfbfbf" stroke="#000000" points="0,-122.5 0,-152.5 136,-152.5 136,-122.5 0,-122.5"/>
<text text-anchor="start" x="8" y="-140.5" font-family="Helvetica,sans-Serif" font-size="10.00" fill="#000000">neon::NumericalQuadrature</text>
<text text-anchor="middle" x="68" y="-129.5" font-family="Helvetica,sans-Serif" font-size="10.00" fill="#000000">&lt; Xi, Eta &gt;</text>
</g>
<!-- Node1 -->
<g id="node2" class="node">
<title>Node1</title>
<g id="a_node2"><a xlink:href="classneon_1_1HexahedronQuadrature.html" target="_top" xlink:title="neon::HexahedronQuadrature\l\&lt; double, double, double \&gt;">
<polygon fill="#ffffff" stroke="#000000" points="173,-245.5 173,-275.5 317,-275.5 317,-245.5 173,-245.5"/>
<text text-anchor="start" x="181" y="-263.5" font-family="Helvetica,sans-Serif" font-size="10.00" fill="#000000">neon::HexahedronQuadrature</text>
<text text-anchor="middle" x="245" y="-252.5" font-family="Helvetica,sans-Serif" font-size="10.00" fill="#000000">&lt; double, double, double &gt;</text>
</a>
</g>
</g>
<!-- Node0&#45;&gt;Node1 -->
<g id="edge1" class="edge">
<title>Node0&#45;&gt;Node1</title>
<path fill="none" stroke="#191970" d="M86.6762,-160.4266C105.9372,-182.7111 137.8976,-216.0949 172,-236.5 177.6096,-239.8565 183.7462,-242.8073 190.0026,-245.3849"/>
<polygon fill="#191970" stroke="#191970" points="89.3127,-158.1241 80.1741,-152.7633 83.975,-162.6529 89.3127,-158.1241"/>
</g>
<!-- Node2 -->
<g id="node3" class="node">
<title>Node2</title>
<g id="a_node3"><a xlink:href="classneon_1_1PrismQuadrature.html" target="_top" xlink:title="neon::PrismQuadrature\l\&lt; double, double, double \&gt;">
<polygon fill="#ffffff" stroke="#000000" points="179,-196.5 179,-226.5 311,-226.5 311,-196.5 179,-196.5"/>
<text text-anchor="start" x="187" y="-214.5" font-family="Helvetica,sans-Serif" font-size="10.00" fill="#000000">neon::PrismQuadrature</text>
<text text-anchor="middle" x="245" y="-203.5" font-family="Helvetica,sans-Serif" font-size="10.00" fill="#000000">&lt; double, double, double &gt;</text>
</a>
</g>
</g>
<!-- Node0&#45;&gt;Node2 -->
<g id="edge2" class="edge">
<title>Node0&#45;&gt;Node2</title>
<path fill="none" stroke="#191970" d="M105.8359,-157.1601C125.3286,-166.9105 149.6421,-178.495 172,-187.5 179.7962,-190.6401 188.1763,-193.6881 196.3806,-196.4993"/>
<polygon fill="#191970" stroke="#191970" points="107.188,-153.922 96.6837,-152.5402 104.0336,-160.171 107.188,-153.922"/>
</g>
<!-- Node3 -->
<g id="node4" class="node">
<title>Node3</title>
<g id="a_node4"><a xlink:href="classneon_1_1QuadrilateralQuadrature.html" target="_top" xlink:title="neon::QuadrilateralQuadrature\l\&lt; double, double \&gt;">
<polygon fill="#ffffff" stroke="#000000" points="172,-147.5 172,-177.5 318,-177.5 318,-147.5 172,-147.5"/>
<text text-anchor="start" x="180" y="-165.5" font-family="Helvetica,sans-Serif" font-size="10.00" fill="#000000">neon::QuadrilateralQuadrature</text>
<text text-anchor="middle" x="245" y="-154.5" font-family="Helvetica,sans-Serif" font-size="10.00" fill="#000000">&lt; double, double &gt;</text>
</a>
</g>
</g>
<!-- Node0&#45;&gt;Node3 -->
<g id="edge3" class="edge">
<title>Node0&#45;&gt;Node3</title>
<path fill="none" stroke="#191970" d="M146.1391,-148.5366C154.6908,-149.7445 163.3734,-150.9708 171.8616,-152.1697"/>
<polygon fill="#191970" stroke="#191970" points="146.5709,-145.0629 136.1796,-147.1299 145.5918,-151.9941 146.5709,-145.0629"/>
</g>
<!-- Node4 -->
<g id="node5" class="node">
<title>Node4</title>
<g id="a_node5"><a xlink:href="classneon_1_1TetrahedronQuadrature.html" target="_top" xlink:title="neon::TetrahedronQuadrature\l\&lt; double, double, double \&gt;">
<polygon fill="#ffffff" stroke="#000000" points="173.5,-98.5 173.5,-128.5 316.5,-128.5 316.5,-98.5 173.5,-98.5"/>
<text text-anchor="start" x="181.5" y="-116.5" font-family="Helvetica,sans-Serif" font-size="10.00" fill="#000000">neon::TetrahedronQuadrature</text>
<text text-anchor="middle" x="245" y="-105.5" font-family="Helvetica,sans-Serif" font-size="10.00" fill="#000000">&lt; double, double, double &gt;</text>
</a>
</g>
</g>
<!-- Node0&#45;&gt;Node4 -->
<g id="edge4" class="edge">
<title>Node0&#45;&gt;Node4</title>
<path fill="none" stroke="#191970" d="M146.2669,-126.8875C155.2732,-125.6664 164.4227,-124.4257 173.3357,-123.2172"/>
<polygon fill="#191970" stroke="#191970" points="145.6187,-123.4433 136.1796,-128.2553 146.5593,-130.3798 145.6187,-123.4433"/>
</g>
<!-- Node5 -->
<g id="node6" class="node">
<title>Node5</title>
<g id="a_node6"><a xlink:href="classneon_1_1TriangleQuadrature.html" target="_top" xlink:title="neon::TriangleQuadrature\l\&lt; double, double \&gt;">
<polygon fill="#ffffff" stroke="#000000" points="182,-49.5 182,-79.5 308,-79.5 308,-49.5 182,-49.5"/>
<text text-anchor="start" x="190" y="-67.5" font-family="Helvetica,sans-Serif" font-size="10.00" fill="#000000">neon::TriangleQuadrature</text>
<text text-anchor="middle" x="245" y="-56.5" font-family="Helvetica,sans-Serif" font-size="10.00" fill="#000000">&lt; double, double &gt;</text>
</a>
</g>
</g>
<!-- Node0&#45;&gt;Node5 -->
<g id="edge5" class="edge">
<title>Node0&#45;&gt;Node5</title>
<path fill="none" stroke="#191970" d="M107.6473,-118.0398C126.8746,-108.9024 150.4265,-98.1462 172,-89.5 180.58,-86.0613 189.838,-82.6601 198.7853,-79.526"/>
<polygon fill="#191970" stroke="#191970" points="106.0918,-114.904 98.5835,-122.3791 109.1145,-121.2178 106.0918,-114.904"/>
</g>
<!-- Node6 -->
<g id="node7" class="node">
<title>Node6</title>
<g id="a_node7"><a xlink:href="classneon_1_1UnitSphereQuadrature.html" target="_top" xlink:title="neon::UnitSphereQuadrature\l\&lt; double, double, double \&gt;">
<polygon fill="#ffffff" stroke="#000000" points="175,-.5 175,-30.5 315,-30.5 315,-.5 175,-.5"/>
<text text-anchor="start" x="183" y="-18.5" font-family="Helvetica,sans-Serif" font-size="10.00" fill="#000000">neon::UnitSphereQuadrature</text>
<text text-anchor="middle" x="245" y="-7.5" font-family="Helvetica,sans-Serif" font-size="10.00" fill="#000000">&lt; double, double, double &gt;</text>
</a>
</g>
</g>
<!-- Node0&#45;&gt;Node6 -->
<g id="edge6" class="edge">
<title>Node0&#45;&gt;Node6</title>
<path fill="none" stroke="#191970" d="M87.4064,-114.4923C106.837,-92.745 138.5806,-60.5447 172,-40.5 178.3185,-36.7102 185.2916,-33.3949 192.3463,-30.5251"/>
<polygon fill="#191970" stroke="#191970" points="84.5484,-112.4428 80.5845,-122.2682 89.8104,-117.0593 84.5484,-112.4428"/>
</g>
</g>
</svg>
