<?xml version="1.0" encoding="UTF-8" standalone="no"?>
<!DOCTYPE svg PUBLIC "-//W3C//DTD SVG 1.1//EN"
 "http://www.w3.org/Graphics/SVG/1.1/DTD/svg11.dtd">
<!-- Generated by graphviz version 2.40.1 (20161225.0304)
 -->
<!-- Title: neon::BasicMesh::meshes Pages: 1 -->
<svg width="849pt" height="61pt"
 viewBox="0.00 0.00 849.00 61.00" xmlns="http://www.w3.org/2000/svg" xmlns:xlink="http://www.w3.org/1999/xlink">
<g id="graph0" class="graph" transform="scale(1 1) rotate(0) translate(4 57)">
<title>neon::BasicMesh::meshes</title>
<polygon fill="#ffffff" stroke="transparent" points="-4,4 -4,-57 845,-57 845,4 -4,4"/>
<!-- Node1 -->
<g id="node1" class="node">
<title>Node1</title>
<polygon fill="#bfbfbf" stroke="#000000" points="0,-6 0,-25 133,-25 133,-6 0,-6"/>
<text text-anchor="middle" x="66.5" y="-13" font-family="Helvetica,sans-Serif" font-size="10.00" fill="#000000">neon::BasicMesh::meshes</text>
</g>
<!-- Node2 -->
<g id="node2" class="node">
<title>Node2</title>
<g id="a_node2"><a xlink:href="classneon_1_1solid_1_1femMesh.html#aed7f6ae168a234d05e018cd69066cf6c" target="_top" xlink:title="neon::solid::femMesh\l::save_internal_variables">
<polygon fill="#ffffff" stroke="#000000" points="169,-.5 169,-30.5 294,-30.5 294,-.5 169,-.5"/>
<text text-anchor="start" x="177" y="-18.5" font-family="Helvetica,sans-Serif" font-size="10.00" fill="#000000">neon::solid::femMesh</text>
<text text-anchor="middle" x="231.5" y="-7.5" font-family="Helvetica,sans-Serif" font-size="10.00" fill="#000000">::save_internal_variables</text>
</a>
</g>
</g>
<!-- Node1&#45;&gt;Node2 -->
<g id="edge1" class="edge">
<title>Node1&#45;&gt;Node2</title>
<path fill="none" stroke="#191970" d="M143.1819,-15.5C151.7919,-15.5 160.4868,-15.5 168.889,-15.5"/>
<polygon fill="#191970" stroke="#191970" points="143.1362,-12.0001 133.1362,-15.5 143.1362,-19.0001 143.1362,-12.0001"/>
</g>
<!-- Node3 -->
<g id="node3" class="node">
<title>Node3</title>
<g id="a_node3"><a xlink:href="classneon_1_1solid_1_1femStaticMatrix.html#a9d09a3000b8ab1f5088e65a991325514" target="_top" xlink:title="neon::solid::femStaticMatrix\l::apply_displacement_boundaries">
<polygon fill="#ffffff" stroke="#000000" points="330,-.5 330,-30.5 491,-30.5 491,-.5 330,-.5"/>
<text text-anchor="start" x="338" y="-18.5" font-family="Helvetica,sans-Serif" font-size="10.00" fill="#000000">neon::solid::femStaticMatrix</text>
<text text-anchor="middle" x="410.5" y="-7.5" font-family="Helvetica,sans-Serif" font-size="10.00" fill="#000000">::apply_displacement_boundaries</text>
</a>
</g>
</g>
<!-- Node2&#45;&gt;Node3 -->
<g id="edge2" class="edge">
<title>Node2&#45;&gt;Node3</title>
<path fill="none" stroke="#191970" d="M304.3047,-15.5C312.7677,-15.5 321.4371,-15.5 329.9957,-15.5"/>
<polygon fill="#191970" stroke="#191970" points="304.1055,-12.0001 294.1055,-15.5 304.1055,-19.0001 304.1055,-12.0001"/>
</g>
<!-- Node4 -->
<g id="node4" class="node">
<title>Node4</title>
<g id="a_node4"><a xlink:href="classneon_1_1solid_1_1femStaticMatrix.html#a1b4ec4af5d4aa93d28a374c0f4f7e5d3" target="_top" xlink:title="neon::solid::femStaticMatrix\l::compute_sparsity_pattern">
<polygon fill="#ffffff" stroke="#000000" points="527,-22.5 527,-52.5 666,-52.5 666,-22.5 527,-22.5"/>
<text text-anchor="start" x="535" y="-40.5" font-family="Helvetica,sans-Serif" font-size="10.00" fill="#000000">neon::solid::femStaticMatrix</text>
<text text-anchor="middle" x="596.5" y="-29.5" font-family="Helvetica,sans-Serif" font-size="10.00" fill="#000000">::compute_sparsity_pattern</text>
</a>
</g>
</g>
<!-- Node3&#45;&gt;Node4 -->
<g id="edge3" class="edge">
<title>Node3&#45;&gt;Node4</title>
<path fill="none" stroke="#191970" d="M501.1558,-26.2227C509.8326,-27.249 518.5367,-28.2785 526.9656,-29.2755"/>
<polygon fill="#191970" stroke="#191970" points="501.3424,-22.7205 491.0005,-25.0216 500.5202,-29.672 501.3424,-22.7205"/>
</g>
<!-- Node5 -->
<g id="node5" class="node">
<title>Node5</title>
<g id="a_node5"><a xlink:href="classneon_1_1solid_1_1femStaticMatrix.html#a38f9c7ef5b0a03920dd67cc054a83042" target="_top" xlink:title="neon::solid::femStaticMatrix\l::assemble_stiffness">
<polygon fill="#ffffff" stroke="#000000" points="702,-.5 702,-30.5 841,-30.5 841,-.5 702,-.5"/>
<text text-anchor="start" x="710" y="-18.5" font-family="Helvetica,sans-Serif" font-size="10.00" fill="#000000">neon::solid::femStaticMatrix</text>
<text text-anchor="middle" x="771.5" y="-7.5" font-family="Helvetica,sans-Serif" font-size="10.00" fill="#000000">::assemble_stiffness</text>
</a>
</g>
</g>
<!-- Node4&#45;&gt;Node5 -->
<g id="edge4" class="edge">
<title>Node4&#45;&gt;Node5</title>
<path fill="none" stroke="#191970" d="M676.1455,-27.4874C684.7018,-26.4118 693.359,-25.3234 701.7863,-24.264"/>
<polygon fill="#191970" stroke="#191970" points="675.6528,-24.0217 666.1675,-28.7418 676.526,-30.9671 675.6528,-24.0217"/>
</g>
<!-- Node5&#45;&gt;Node3 -->
<g id="edge5" class="edge">
<title>Node5&#45;&gt;Node3</title>
<path fill="none" stroke="#191970" d="M691.8001,-13.8286C683.0935,-13.6938 674.3607,-13.5792 666,-13.5 604.225,-12.9145 588.7755,-12.9698 527,-13.5 515.3689,-13.5998 503.0854,-13.7557 491.0293,-13.9374"/>
<polygon fill="#191970" stroke="#191970" points="691.929,-17.331 701.9849,-13.9951 692.0435,-10.332 691.929,-17.331"/>
</g>
</g>
</svg>
