<?xml version="1.0" encoding="UTF-8" standalone="no"?>
<!DOCTYPE svg PUBLIC "-//W3C//DTD SVG 1.1//EN"
 "http://www.w3.org/Graphics/SVG/1.1/DTD/svg11.dtd">
<!-- Generated by graphviz version 2.40.1 (20161225.0304)
 -->
<!-- Title: neon::Tetrahedron10::precompute_shape_functions Pages: 1 -->
<svg width="324pt" height="61pt"
 viewBox="0.00 0.00 324.00 61.00" xmlns="http://www.w3.org/2000/svg" xmlns:xlink="http://www.w3.org/1999/xlink">
<g id="graph0" class="graph" transform="scale(1 1) rotate(0) translate(4 57)">
<title>neon::Tetrahedron10::precompute_shape_functions</title>
<polygon fill="#ffffff" stroke="transparent" points="-4,4 -4,-57 320,-57 320,4 -4,4"/>
<!-- Node0 -->
<g id="node1" class="node">
<title>Node0</title>
<polygon fill="#bfbfbf" stroke="#000000" points="0,-11.5 0,-41.5 150,-41.5 150,-11.5 0,-11.5"/>
<text text-anchor="start" x="8" y="-29.5" font-family="Helvetica,sans-Serif" font-size="10.00" fill="#000000">neon::Tetrahedron10</text>
<text text-anchor="middle" x="75" y="-18.5" font-family="Helvetica,sans-Serif" font-size="10.00" fill="#000000">::precompute_shape_functions</text>
</g>
<!-- Node1 -->
<g id="node2" class="node">
<title>Node1</title>
<g id="a_node2"><a xlink:href="classneon_1_1ShapeFunction.html#a604817929ba457ac00e765eea2a32e05" target="_top" xlink:title="neon::ShapeFunction\l\&lt; SurfaceQuadrature\l \&gt;::compute_extrapolation\l_matrix">
<polygon fill="#ffffff" stroke="#000000" points="186,-.5 186,-52.5 316,-52.5 316,-.5 186,-.5"/>
<text text-anchor="start" x="194" y="-40.5" font-family="Helvetica,sans-Serif" font-size="10.00" fill="#000000">neon::ShapeFunction</text>
<text text-anchor="start" x="194" y="-29.5" font-family="Helvetica,sans-Serif" font-size="10.00" fill="#000000">&lt; SurfaceQuadrature</text>
<text text-anchor="start" x="194" y="-18.5" font-family="Helvetica,sans-Serif" font-size="10.00" fill="#000000"> &gt;::compute_extrapolation</text>
<text text-anchor="middle" x="251" y="-7.5" font-family="Helvetica,sans-Serif" font-size="10.00" fill="#000000">_matrix</text>
</a>
</g>
</g>
<!-- Node0&#45;&gt;Node1 -->
<g id="edge1" class="edge">
<title>Node0&#45;&gt;Node1</title>
<path fill="none" stroke="#191970" d="M150.1504,-26.5C158.5861,-26.5 167.1828,-26.5 175.6214,-26.5"/>
<polygon fill="#191970" stroke="#191970" points="175.8148,-30.0001 185.8148,-26.5 175.8148,-23.0001 175.8148,-30.0001"/>
</g>
</g>
</svg>
