<?xml version="1.0" encoding="UTF-8" standalone="no"?>
<!DOCTYPE svg PUBLIC "-//W3C//DTD SVG 1.1//EN"
 "http://www.w3.org/Graphics/SVG/1.1/DTD/svg11.dtd">
<!-- Generated by graphviz version 2.40.1 (20161225.0304)
 -->
<!-- Title: neon::ConstitutiveModel Pages: 1 -->
<svg width="531pt" height="140pt"
 viewBox="0.00 0.00 530.50 140.00" xmlns="http://www.w3.org/2000/svg" xmlns:xlink="http://www.w3.org/1999/xlink">
<g id="graph0" class="graph" transform="scale(1 1) rotate(0) translate(4 136)">
<title>neon::ConstitutiveModel</title>
<polygon fill="#ffffff" stroke="transparent" points="-4,4 -4,-136 526.5,-136 526.5,4 -4,4"/>
<!-- Node0 -->
<g id="node1" class="node">
<title>Node0</title>
<polygon fill="#bfbfbf" stroke="#000000" points="251,-112.5 251,-131.5 373,-131.5 373,-112.5 251,-112.5"/>
<text text-anchor="middle" x="312" y="-119.5" font-family="Helvetica,sans-Serif" font-size="10.00" fill="#000000">neon::ConstitutiveModel</text>
</g>
<!-- Node1 -->
<g id="node2" class="node">
<title>Node1</title>
<g id="a_node2"><a xlink:href="classneon_1_1Hyperelastic.html" target="_top" xlink:title="neon::Hyperelastic">
<polygon fill="#ffffff" stroke="#000000" points="131,-56.5 131,-75.5 229,-75.5 229,-56.5 131,-56.5"/>
<text text-anchor="middle" x="180" y="-63.5" font-family="Helvetica,sans-Serif" font-size="10.00" fill="#000000">neon::Hyperelastic</text>
</a>
</g>
</g>
<!-- Node0&#45;&gt;Node1 -->
<g id="edge1" class="edge">
<title>Node0&#45;&gt;Node1</title>
<path fill="none" stroke="#191970" d="M279.9035,-108.3833C255.8965,-98.1985 223.6741,-84.5284 202.3955,-75.5011"/>
<polygon fill="#191970" stroke="#191970" points="278.7356,-111.6897 289.3084,-112.3733 281.4695,-105.2457 278.7356,-111.6897"/>
</g>
<!-- Node4 -->
<g id="node5" class="node">
<title>Node4</title>
<g id="a_node5"><a xlink:href="classneon_1_1HyperElasticPlastic.html" target="_top" xlink:title="neon::HyperElasticPlastic">
<polygon fill="#ffffff" stroke="#000000" points="247,-56.5 247,-75.5 377,-75.5 377,-56.5 247,-56.5"/>
<text text-anchor="middle" x="312" y="-63.5" font-family="Helvetica,sans-Serif" font-size="10.00" fill="#000000">neon::HyperElasticPlastic</text>
</a>
</g>
</g>
<!-- Node0&#45;&gt;Node4 -->
<g id="edge4" class="edge">
<title>Node0&#45;&gt;Node4</title>
<path fill="none" stroke="#191970" d="M312,-102.1575C312,-93.155 312,-82.9199 312,-75.6427"/>
<polygon fill="#191970" stroke="#191970" points="308.5001,-102.2455 312,-112.2455 315.5001,-102.2456 308.5001,-102.2455"/>
</g>
<!-- Node6 -->
<g id="node7" class="node">
<title>Node6</title>
<g id="a_node7"><a xlink:href="classneon_1_1HypoElasticPlastic.html" target="_top" xlink:title="neon::HypoElasticPlastic">
<polygon fill="#ffffff" stroke="#000000" points="395.5,-56.5 395.5,-75.5 522.5,-75.5 522.5,-56.5 395.5,-56.5"/>
<text text-anchor="middle" x="459" y="-63.5" font-family="Helvetica,sans-Serif" font-size="10.00" fill="#000000">neon::HypoElasticPlastic</text>
</a>
</g>
</g>
<!-- Node0&#45;&gt;Node6 -->
<g id="edge6" class="edge">
<title>Node0&#45;&gt;Node6</title>
<path fill="none" stroke="#191970" d="M346.6794,-108.7888C373.5198,-98.5639 410.047,-84.6488 434.0596,-75.5011"/>
<polygon fill="#191970" stroke="#191970" points="345.3691,-105.5425 337.2702,-112.3733 347.8611,-112.0839 345.3691,-105.5425"/>
</g>
<!-- Node2 -->
<g id="node3" class="node">
<title>Node2</title>
<g id="a_node3"><a xlink:href="classneon_1_1AffineMicrosphere.html" target="_top" xlink:title="neon::AffineMicrosphere">
<polygon fill="#ffffff" stroke="#000000" points="0,-.5 0,-19.5 122,-19.5 122,-.5 0,-.5"/>
<text text-anchor="middle" x="61" y="-7.5" font-family="Helvetica,sans-Serif" font-size="10.00" fill="#000000">neon::AffineMicrosphere</text>
</a>
</g>
</g>
<!-- Node1&#45;&gt;Node2 -->
<g id="edge2" class="edge">
<title>Node1&#45;&gt;Node2</title>
<path fill="none" stroke="#191970" d="M150.4856,-52.1109C128.9062,-41.9559 100.2024,-28.4482 81.1899,-19.5011"/>
<polygon fill="#191970" stroke="#191970" points="149.0047,-55.2821 159.5432,-56.3733 151.9853,-48.9484 149.0047,-55.2821"/>
</g>
<!-- Node3 -->
<g id="node4" class="node">
<title>Node3</title>
<g id="a_node4"><a xlink:href="classneon_1_1NeoHooke.html" target="_top" xlink:title="neon::NeoHooke">
<polygon fill="#ffffff" stroke="#000000" points="140,-.5 140,-19.5 230,-19.5 230,-.5 140,-.5"/>
<text text-anchor="middle" x="185" y="-7.5" font-family="Helvetica,sans-Serif" font-size="10.00" fill="#000000">neon::NeoHooke</text>
</a>
</g>
</g>
<!-- Node1&#45;&gt;Node3 -->
<g id="edge3" class="edge">
<title>Node1&#45;&gt;Node3</title>
<path fill="none" stroke="#191970" d="M181.7717,-46.1575C182.5754,-37.155 183.4893,-26.9199 184.139,-19.6427"/>
<polygon fill="#191970" stroke="#191970" points="178.2742,-45.9739 180.8709,-56.2455 185.2465,-46.5965 178.2742,-45.9739"/>
</g>
<!-- Node5 -->
<g id="node6" class="node">
<title>Node5</title>
<g id="a_node6"><a xlink:href="classneon_1_1FiniteJ2Plasticity.html" target="_top" xlink:title="neon::FiniteJ2Plasticity">
<polygon fill="#ffffff" stroke="#000000" points="252.5,-.5 252.5,-19.5 371.5,-19.5 371.5,-.5 252.5,-.5"/>
<text text-anchor="middle" x="312" y="-7.5" font-family="Helvetica,sans-Serif" font-size="10.00" fill="#000000">neon::FiniteJ2Plasticity</text>
</a>
</g>
</g>
<!-- Node4&#45;&gt;Node5 -->
<g id="edge5" class="edge">
<title>Node4&#45;&gt;Node5</title>
<path fill="none" stroke="#191970" d="M312,-46.1575C312,-37.155 312,-26.9199 312,-19.6427"/>
<polygon fill="#191970" stroke="#191970" points="308.5001,-46.2455 312,-56.2455 315.5001,-46.2456 308.5001,-46.2455"/>
</g>
<!-- Node7 -->
<g id="node8" class="node">
<title>Node7</title>
<g id="a_node8"><a xlink:href="classneon_1_1J2Plasticity.html" target="_top" xlink:title="neon::J2Plasticity">
<polygon fill="#ffffff" stroke="#000000" points="411.5,-.5 411.5,-19.5 506.5,-19.5 506.5,-.5 411.5,-.5"/>
<text text-anchor="middle" x="459" y="-7.5" font-family="Helvetica,sans-Serif" font-size="10.00" fill="#000000">neon::J2Plasticity</text>
</a>
</g>
</g>
<!-- Node6&#45;&gt;Node7 -->
<g id="edge7" class="edge">
<title>Node6&#45;&gt;Node7</title>
<path fill="none" stroke="#191970" d="M459,-46.1575C459,-37.155 459,-26.9199 459,-19.6427"/>
<polygon fill="#191970" stroke="#191970" points="455.5001,-46.2455 459,-56.2455 462.5001,-46.2456 455.5001,-46.2455"/>
</g>
</g>
</svg>
