<?xml version="1.0" encoding="UTF-8" standalone="no"?>
<!DOCTYPE svg PUBLIC "-//W3C//DTD SVG 1.1//EN"
 "http://www.w3.org/Graphics/SVG/1.1/DTD/svg11.dtd">
<!-- Generated by graphviz version 2.40.1 (20161225.0304)
 -->
<!-- Title: neon::AdaptiveLoadStep::increment Pages: 1 -->
<svg width="678pt" height="99pt"
 viewBox="0.00 0.00 678.00 99.00" xmlns="http://www.w3.org/2000/svg" xmlns:xlink="http://www.w3.org/1999/xlink">
<g id="graph0" class="graph" transform="scale(1 1) rotate(0) translate(4 95)">
<title>neon::AdaptiveLoadStep::increment</title>
<polygon fill="#ffffff" stroke="transparent" points="-4,4 -4,-95 674,-95 674,4 -4,4"/>
<!-- Node6 -->
<g id="node1" class="node">
<title>Node6</title>
<polygon fill="#bfbfbf" stroke="#000000" points="0,-.5 0,-30.5 123,-30.5 123,-.5 0,-.5"/>
<text text-anchor="start" x="8" y="-18.5" font-family="Helvetica,sans-Serif" font-size="10.00" fill="#000000">neon::AdaptiveLoadStep</text>
<text text-anchor="middle" x="61.5" y="-7.5" font-family="Helvetica,sans-Serif" font-size="10.00" fill="#000000">::increment</text>
</g>
<!-- Node7 -->
<g id="node2" class="node">
<title>Node7</title>
<g id="a_node2"><a xlink:href="classneon_1_1solid_1_1femStaticMatrix.html#a1b4ec4af5d4aa93d28a374c0f4f7e5d3" target="_top" xlink:title="neon::solid::femStaticMatrix\l::compute_sparsity_pattern">
<polygon fill="#ffffff" stroke="#000000" points="159,-22.5 159,-52.5 298,-52.5 298,-22.5 159,-22.5"/>
<text text-anchor="start" x="167" y="-40.5" font-family="Helvetica,sans-Serif" font-size="10.00" fill="#000000">neon::solid::femStaticMatrix</text>
<text text-anchor="middle" x="228.5" y="-29.5" font-family="Helvetica,sans-Serif" font-size="10.00" fill="#000000">::compute_sparsity_pattern</text>
</a>
</g>
</g>
<!-- Node6&#45;&gt;Node7 -->
<g id="edge1" class="edge">
<title>Node6&#45;&gt;Node7</title>
<path fill="none" stroke="#191970" d="M133.1312,-24.9365C141.6673,-26.061 150.3724,-27.2077 158.8796,-28.3285"/>
<polygon fill="#191970" stroke="#191970" points="133.5817,-21.4656 123.2102,-23.6295 132.6673,-28.4057 133.5817,-21.4656"/>
</g>
<!-- Node9 -->
<g id="node4" class="node">
<title>Node9</title>
<g id="a_node4"><a xlink:href="classneon_1_1solid_1_1femStaticMatrix.html#a9d09a3000b8ab1f5088e65a991325514" target="_top" xlink:title="neon::solid::femStaticMatrix\l::apply_displacement_boundaries">
<polygon fill="#ffffff" stroke="#000000" points="509,-16.5 509,-46.5 670,-46.5 670,-16.5 509,-16.5"/>
<text text-anchor="start" x="517" y="-34.5" font-family="Helvetica,sans-Serif" font-size="10.00" fill="#000000">neon::solid::femStaticMatrix</text>
<text text-anchor="middle" x="589.5" y="-23.5" font-family="Helvetica,sans-Serif" font-size="10.00" fill="#000000">::apply_displacement_boundaries</text>
</a>
</g>
</g>
<!-- Node6&#45;&gt;Node9 -->
<g id="edge5" class="edge">
<title>Node6&#45;&gt;Node9</title>
<path fill="none" stroke="#191970" d="M133.2527,-13.0412C141.9266,-12.8181 150.6631,-12.6282 159,-12.5 220.7705,-11.5499 236.2549,-10.4899 298,-12.5 369.3436,-14.8226 450.3532,-20.3347 508.8339,-24.827"/>
<polygon fill="#191970" stroke="#191970" points="133.0277,-9.5459 123.1266,-13.3165 133.218,-16.5433 133.0277,-9.5459"/>
</g>
<!-- Node8 -->
<g id="node3" class="node">
<title>Node8</title>
<g id="a_node3"><a xlink:href="classneon_1_1solid_1_1femStaticMatrix.html#a38f9c7ef5b0a03920dd67cc054a83042" target="_top" xlink:title="neon::solid::femStaticMatrix\l::assemble_stiffness">
<polygon fill="#ffffff" stroke="#000000" points="334,-60.5 334,-90.5 473,-90.5 473,-60.5 334,-60.5"/>
<text text-anchor="start" x="342" y="-78.5" font-family="Helvetica,sans-Serif" font-size="10.00" fill="#000000">neon::solid::femStaticMatrix</text>
<text text-anchor="middle" x="403.5" y="-67.5" font-family="Helvetica,sans-Serif" font-size="10.00" fill="#000000">::assemble_stiffness</text>
</a>
</g>
</g>
<!-- Node7&#45;&gt;Node8 -->
<g id="edge2" class="edge">
<title>Node7&#45;&gt;Node8</title>
<path fill="none" stroke="#191970" d="M307.6283,-54.6822C316.5146,-56.6117 325.5171,-58.5666 334.2647,-60.466"/>
<polygon fill="#191970" stroke="#191970" points="308.1796,-51.2204 297.6646,-52.5186 306.6942,-58.061 308.1796,-51.2204"/>
</g>
<!-- Node8&#45;&gt;Node9 -->
<g id="edge3" class="edge">
<title>Node8&#45;&gt;Node9</title>
<path fill="none" stroke="#191970" d="M476.9569,-58.1231C493.1657,-54.2888 510.2041,-50.2582 525.9801,-46.5262"/>
<polygon fill="#191970" stroke="#191970" points="475.9161,-54.7726 466.9904,-60.4808 477.5276,-61.5846 475.9161,-54.7726"/>
</g>
<!-- Node9&#45;&gt;Node7 -->
<g id="edge4" class="edge">
<title>Node9&#45;&gt;Node7</title>
<path fill="none" stroke="#191970" d="M498.5621,-33.0114C436.3653,-34.0452 355.1648,-35.3948 298.1044,-36.3431"/>
<polygon fill="#191970" stroke="#191970" points="498.8251,-36.5076 508.7655,-32.8418 498.7087,-29.5086 498.8251,-36.5076"/>
</g>
</g>
</svg>
