<?xml version="1.0" encoding="UTF-8" standalone="no"?>
<!DOCTYPE svg PUBLIC "-//W3C//DTD SVG 1.1//EN"
 "http://www.w3.org/Graphics/SVG/1.1/DTD/svg11.dtd">
<!-- Generated by graphviz version 2.40.1 (20161225.0304)
 -->
<!-- Title: neon::InternalVariables::operator() Pages: 1 -->
<svg width="276pt" height="39pt"
 viewBox="0.00 0.00 276.00 39.00" xmlns="http://www.w3.org/2000/svg" xmlns:xlink="http://www.w3.org/1999/xlink">
<g id="graph0" class="graph" transform="scale(1 1) rotate(0) translate(4 35)">
<title>neon::InternalVariables::operator()</title>
<polygon fill="#ffffff" stroke="transparent" points="-4,4 -4,-35 272,-35 272,4 -4,4"/>
<!-- Node30 -->
<g id="node1" class="node">
<title>Node30</title>
<polygon fill="#bfbfbf" stroke="#000000" points="0,-.5 0,-30.5 116,-30.5 116,-.5 0,-.5"/>
<text text-anchor="start" x="8" y="-18.5" font-family="Helvetica,sans-Serif" font-size="10.00" fill="#000000">neon::InternalVariables</text>
<text text-anchor="middle" x="58" y="-7.5" font-family="Helvetica,sans-Serif" font-size="10.00" fill="#000000">::operator()</text>
</g>
<!-- Node31 -->
<g id="node2" class="node">
<title>Node31</title>
<g id="a_node2"><a xlink:href="classneon_1_1InternalVariables.html#aa78d5e24bc2c3505de913a2e0d0e5cd1" target="_top" xlink:title="neon::InternalVariables\l::operator()">
<polygon fill="#ffffff" stroke="#000000" points="152,-.5 152,-30.5 268,-30.5 268,-.5 152,-.5"/>
<text text-anchor="start" x="160" y="-18.5" font-family="Helvetica,sans-Serif" font-size="10.00" fill="#000000">neon::InternalVariables</text>
<text text-anchor="middle" x="210" y="-7.5" font-family="Helvetica,sans-Serif" font-size="10.00" fill="#000000">::operator()</text>
</a>
</g>
</g>
<!-- Node30&#45;&gt;Node31 -->
<g id="edge1" class="edge">
<title>Node30&#45;&gt;Node31</title>
<path fill="none" stroke="#191970" d="M116.3325,-15.5C124.6057,-15.5 133.1747,-15.5 141.617,-15.5"/>
<polygon fill="#191970" stroke="#191970" points="141.8237,-19.0001 151.8236,-15.5 141.8236,-12.0001 141.8237,-19.0001"/>
</g>
</g>
</svg>
