<?xml version="1.0" encoding="UTF-8" standalone="no"?>
<!DOCTYPE svg PUBLIC "-//W3C//DTD SVG 1.1//EN"
 "http://www.w3.org/Graphics/SVG/1.1/DTD/svg11.dtd">
<!-- Generated by graphviz version 2.40.1 (20161225.0304)
 -->
<!-- Title: neon::solid::femSubmesh Pages: 1 -->
<svg width="145pt" height="152pt"
 viewBox="0.00 0.00 145.00 152.00" xmlns="http://www.w3.org/2000/svg" xmlns:xlink="http://www.w3.org/1999/xlink">
<g id="graph0" class="graph" transform="scale(1 1) rotate(0) translate(4 148)">
<title>neon::solid::femSubmesh</title>
<polygon fill="#ffffff" stroke="transparent" points="-4,4 -4,-148 141,-148 141,4 -4,4"/>
<!-- Node2 -->
<g id="node1" class="node">
<title>Node2</title>
<polygon fill="#bfbfbf" stroke="#000000" points="4.5,-.5 4.5,-19.5 132.5,-19.5 132.5,-.5 4.5,-.5"/>
<text text-anchor="middle" x="68.5" y="-7.5" font-family="Helvetica,sans-Serif" font-size="10.00" fill="#000000">neon::solid::femSubmesh</text>
</g>
<!-- Node3 -->
<g id="node2" class="node">
<title>Node3</title>
<g id="a_node2"><a xlink:href="classneon_1_1SubMesh.html" target="_top" xlink:title="neon::SubMesh">
<polygon fill="#ffffff" stroke="#000000" points="26,-57.5 26,-76.5 111,-76.5 111,-57.5 26,-57.5"/>
<text text-anchor="middle" x="68.5" y="-64.5" font-family="Helvetica,sans-Serif" font-size="10.00" fill="#000000">neon::SubMesh</text>
</a>
</g>
</g>
<!-- Node3&#45;&gt;Node2 -->
<g id="edge1" class="edge">
<title>Node3&#45;&gt;Node2</title>
<path fill="none" stroke="#191970" d="M68.5,-47.2342C68.5,-37.8491 68.5,-27.0651 68.5,-19.5265"/>
<polygon fill="#191970" stroke="#191970" points="65.0001,-47.3307 68.5,-57.3307 72.0001,-47.3308 65.0001,-47.3307"/>
</g>
<!-- Node4 -->
<g id="node3" class="node">
<title>Node4</title>
<g id="a_node3"><a xlink:href="classneon_1_1NodeOrderingAdapter.html" target="_top" xlink:title="neon::NodeOrderingAdapter">
<polygon fill="#ffffff" stroke="#000000" points="0,-124.5 0,-143.5 137,-143.5 137,-124.5 0,-124.5"/>
<text text-anchor="middle" x="68.5" y="-131.5" font-family="Helvetica,sans-Serif" font-size="10.00" fill="#000000">neon::NodeOrderingAdapter</text>
</a>
</g>
</g>
<!-- Node4&#45;&gt;Node3 -->
<g id="edge2" class="edge">
<title>Node4&#45;&gt;Node3</title>
<path fill="none" stroke="#9a32cd" stroke-dasharray="5,2" d="M68.5,-114.1079C68.5,-101.714 68.5,-86.3263 68.5,-76.5817"/>
<polygon fill="#9a32cd" stroke="#9a32cd" points="65.0001,-114.4005 68.5,-124.4005 72.0001,-114.4006 65.0001,-114.4005"/>
<text text-anchor="middle" x="86.5" y="-98" font-family="Helvetica,sans-Serif" font-size="10.00" fill="#000000"> adapter</text>
</g>
</g>
</svg>
