<?xml version="1.0" encoding="UTF-8" standalone="no"?>
<!DOCTYPE svg PUBLIC "-//W3C//DTD SVG 1.1//EN"
 "http://www.w3.org/Graphics/SVG/1.1/DTD/svg11.dtd">
<!-- Generated by graphviz version 2.40.1 (20161225.0304)
 -->
<!-- Title: neon::ShapeFunction::compute_extrapolation_matrix Pages: 1 -->
<svg width="315pt" height="208pt"
 viewBox="0.00 0.00 315.00 208.00" xmlns="http://www.w3.org/2000/svg" xmlns:xlink="http://www.w3.org/1999/xlink">
<g id="graph0" class="graph" transform="scale(1 1) rotate(0) translate(4 204)">
<title>neon::ShapeFunction::compute_extrapolation_matrix</title>
<polygon fill="#ffffff" stroke="transparent" points="-4,4 -4,-204 311,-204 311,4 -4,4"/>
<!-- Node3 -->
<g id="node1" class="node">
<title>Node3</title>
<polygon fill="#bfbfbf" stroke="#000000" points="0,-74 0,-115 121,-115 121,-74 0,-74"/>
<text text-anchor="start" x="8" y="-103" font-family="Helvetica,sans-Serif" font-size="10.00" fill="#000000">neon::ShapeFunction</text>
<text text-anchor="start" x="8" y="-92" font-family="Helvetica,sans-Serif" font-size="10.00" fill="#000000">::compute_extrapolation</text>
<text text-anchor="middle" x="60.5" y="-81" font-family="Helvetica,sans-Serif" font-size="10.00" fill="#000000">_matrix</text>
</g>
<!-- Node4 -->
<g id="node2" class="node">
<title>Node4</title>
<g id="a_node2"><a xlink:href="classneon_1_1Quadrilateral4.html#a09f74a11dbbed3d60b6a4586a2e4c07d" target="_top" xlink:title="neon::Quadrilateral4\l::precompute_shape_functions">
<polygon fill="#ffffff" stroke="#000000" points="157,-169.5 157,-199.5 307,-199.5 307,-169.5 157,-169.5"/>
<text text-anchor="start" x="165" y="-187.5" font-family="Helvetica,sans-Serif" font-size="10.00" fill="#000000">neon::Quadrilateral4</text>
<text text-anchor="middle" x="232" y="-176.5" font-family="Helvetica,sans-Serif" font-size="10.00" fill="#000000">::precompute_shape_functions</text>
</a>
</g>
</g>
<!-- Node3&#45;&gt;Node4 -->
<g id="edge1" class="edge">
<title>Node3&#45;&gt;Node4</title>
<path fill="none" stroke="#191970" d="M94.6025,-121.4288C112.4304,-134.5513 135.0622,-149.7731 157,-160.5 163.7549,-163.8029 171.0692,-166.7944 178.3906,-169.4559"/>
<polygon fill="#191970" stroke="#191970" points="96.3635,-118.375 86.2605,-115.1843 92.1687,-123.9789 96.3635,-118.375"/>
</g>
<!-- Node5 -->
<g id="node3" class="node">
<title>Node5</title>
<g id="a_node3"><a xlink:href="classneon_1_1ShapeFunction.html#a958a2592b5323dddb04a3129ac57ed54" target="_top" xlink:title="neon::ShapeFunction\l\&lt; SurfaceQuadrature\l \&gt;::local_quadrature\l_extrapolation">
<polygon fill="#ffffff" stroke="#000000" points="177.5,-98.5 177.5,-150.5 286.5,-150.5 286.5,-98.5 177.5,-98.5"/>
<text text-anchor="start" x="185.5" y="-138.5" font-family="Helvetica,sans-Serif" font-size="10.00" fill="#000000">neon::ShapeFunction</text>
<text text-anchor="start" x="185.5" y="-127.5" font-family="Helvetica,sans-Serif" font-size="10.00" fill="#000000">&lt; SurfaceQuadrature</text>
<text text-anchor="start" x="185.5" y="-116.5" font-family="Helvetica,sans-Serif" font-size="10.00" fill="#000000"> &gt;::local_quadrature</text>
<text text-anchor="middle" x="232" y="-105.5" font-family="Helvetica,sans-Serif" font-size="10.00" fill="#000000">_extrapolation</text>
</a>
</g>
</g>
<!-- Node3&#45;&gt;Node5 -->
<g id="edge2" class="edge">
<title>Node3&#45;&gt;Node5</title>
<path fill="none" stroke="#191970" d="M131.3929,-106.9011C146.7028,-109.5792 162.6643,-112.3713 177.2445,-114.9218"/>
<polygon fill="#191970" stroke="#191970" points="131.9009,-103.4369 121.4474,-105.1613 130.6947,-110.3322 131.9009,-103.4369"/>
</g>
<!-- Node6 -->
<g id="node4" class="node">
<title>Node6</title>
<g id="a_node4"><a xlink:href="classneon_1_1Tetrahedron4.html#a365c623e2b710d89f78850c835dfc0ea" target="_top" xlink:title="neon::Tetrahedron4\l::precompute_shape_functions">
<polygon fill="#ffffff" stroke="#000000" points="157,-49.5 157,-79.5 307,-79.5 307,-49.5 157,-49.5"/>
<text text-anchor="start" x="165" y="-67.5" font-family="Helvetica,sans-Serif" font-size="10.00" fill="#000000">neon::Tetrahedron4</text>
<text text-anchor="middle" x="232" y="-56.5" font-family="Helvetica,sans-Serif" font-size="10.00" fill="#000000">::precompute_shape_functions</text>
</a>
</g>
</g>
<!-- Node3&#45;&gt;Node6 -->
<g id="edge3" class="edge">
<title>Node3&#45;&gt;Node6</title>
<path fill="none" stroke="#191970" d="M131.5226,-82.0762C139.8788,-80.6145 148.4274,-79.1191 156.838,-77.6479"/>
<polygon fill="#191970" stroke="#191970" points="130.6947,-78.6678 121.4474,-83.8387 131.9009,-85.5631 130.6947,-78.6678"/>
</g>
<!-- Node7 -->
<g id="node5" class="node">
<title>Node7</title>
<g id="a_node5"><a xlink:href="classneon_1_1Triangle3.html#a5c11496e5f30fceeb851f518e02d36f7" target="_top" xlink:title="neon::Triangle3::precompute\l_shape_functions">
<polygon fill="#ffffff" stroke="#000000" points="162,-.5 162,-30.5 302,-30.5 302,-.5 162,-.5"/>
<text text-anchor="start" x="170" y="-18.5" font-family="Helvetica,sans-Serif" font-size="10.00" fill="#000000">neon::Triangle3::precompute</text>
<text text-anchor="middle" x="232" y="-7.5" font-family="Helvetica,sans-Serif" font-size="10.00" fill="#000000">_shape_functions</text>
</a>
</g>
</g>
<!-- Node3&#45;&gt;Node7 -->
<g id="edge4" class="edge">
<title>Node3&#45;&gt;Node7</title>
<path fill="none" stroke="#191970" d="M102.5475,-68.6996C119.1532,-59.1179 138.6267,-48.6162 157,-40.5 165.0351,-36.9506 173.7401,-33.6134 182.2779,-30.6042"/>
<polygon fill="#191970" stroke="#191970" points="100.508,-65.8377 93.6425,-73.9071 104.0417,-71.8804 100.508,-65.8377"/>
</g>
</g>
</svg>
