<?xml version="1.0" encoding="UTF-8" standalone="no"?>
<!DOCTYPE svg PUBLIC "-//W3C//DTD SVG 1.1//EN"
 "http://www.w3.org/Graphics/SVG/1.1/DTD/svg11.dtd">
<!-- Generated by graphviz version 2.40.1 (20161225.0304)
 -->
<!-- Title: neon::MicromechanicalElastomer::number_of_initial_segments Pages: 1 -->
<svg width="563pt" height="94pt"
 viewBox="0.00 0.00 563.00 93.50" xmlns="http://www.w3.org/2000/svg" xmlns:xlink="http://www.w3.org/1999/xlink">
<g id="graph0" class="graph" transform="scale(1 1) rotate(0) translate(4 89.5)">
<title>neon::MicromechanicalElastomer::number_of_initial_segments</title>
<polygon fill="#ffffff" stroke="transparent" points="-4,4 -4,-89.5 559,-89.5 559,4 -4,4"/>
<!-- Node12 -->
<g id="node1" class="node">
<title>Node12</title>
<polygon fill="#bfbfbf" stroke="#000000" points="0,-30 0,-60 161,-60 161,-30 0,-30"/>
<text text-anchor="start" x="8" y="-48" font-family="Helvetica,sans-Serif" font-size="10.00" fill="#000000">neon::MicromechanicalElastomer</text>
<text text-anchor="middle" x="80.5" y="-37" font-family="Helvetica,sans-Serif" font-size="10.00" fill="#000000">::number_of_initial_segments</text>
</g>
<!-- Node13 -->
<g id="node2" class="node">
<title>Node13</title>
<g id="a_node2"><a xlink:href="classneon_1_1MicromechanicalElastomer.html#aaf10c30d097e82bf405af7caa65ae0e5" target="_top" xlink:title="neon::MicromechanicalElastomer\l::update_chains">
<polygon fill="#ffffff" stroke="#000000" points="197,-55 197,-85 358,-85 358,-55 197,-55"/>
<text text-anchor="start" x="205" y="-73" font-family="Helvetica,sans-Serif" font-size="10.00" fill="#000000">neon::MicromechanicalElastomer</text>
<text text-anchor="middle" x="277.5" y="-62" font-family="Helvetica,sans-Serif" font-size="10.00" fill="#000000">::update_chains</text>
</a>
</g>
</g>
<!-- Node12&#45;&gt;Node13 -->
<g id="edge1" class="edge">
<title>Node12&#45;&gt;Node13</title>
<path fill="none" stroke="#191970" d="M161.1959,-55.2406C169.6733,-56.3164 178.3327,-57.4153 186.9115,-58.504"/>
<polygon fill="#191970" stroke="#191970" points="186.5685,-61.9885 196.9296,-59.7753 187.4499,-55.0442 186.5685,-61.9885"/>
</g>
<!-- Node14 -->
<g id="node3" class="node">
<title>Node14</title>
<g id="a_node3"><a xlink:href="classneon_1_1MicromechanicalElastomer.html#a5d64ede8aea366d6703995615b17c2e2" target="_top" xlink:title="neon::MicromechanicalElastomer\l::update_segments">
<polygon fill="#ffffff" stroke="#000000" points="197,-6 197,-36 358,-36 358,-6 197,-6"/>
<text text-anchor="start" x="205" y="-24" font-family="Helvetica,sans-Serif" font-size="10.00" fill="#000000">neon::MicromechanicalElastomer</text>
<text text-anchor="middle" x="277.5" y="-13" font-family="Helvetica,sans-Serif" font-size="10.00" fill="#000000">::update_segments</text>
</a>
</g>
</g>
<!-- Node12&#45;&gt;Node14 -->
<g id="edge2" class="edge">
<title>Node12&#45;&gt;Node14</title>
<path fill="none" stroke="#191970" d="M161.1959,-35.169C169.6733,-34.1363 178.3327,-33.0813 186.9115,-32.0362"/>
<polygon fill="#191970" stroke="#191970" points="187.4263,-35.4994 196.9296,-30.8157 186.5797,-28.5508 187.4263,-35.4994"/>
</g>
<!-- Node15 -->
<g id="node4" class="node">
<title>Node15</title>
<g id="a_node4"><a xlink:href="classneon_1_1MicromechanicalElastomer.html#aab4b7bfc80786688b65c944d482bbb66" target="_top" xlink:title="neon::MicromechanicalElastomer\l::compute_probability_and\l_segments">
<polygon fill="#ffffff" stroke="#000000" points="394,-.5 394,-41.5 555,-41.5 555,-.5 394,-.5"/>
<text text-anchor="start" x="402" y="-29.5" font-family="Helvetica,sans-Serif" font-size="10.00" fill="#000000">neon::MicromechanicalElastomer</text>
<text text-anchor="start" x="402" y="-18.5" font-family="Helvetica,sans-Serif" font-size="10.00" fill="#000000">::compute_probability_and</text>
<text text-anchor="middle" x="474.5" y="-7.5" font-family="Helvetica,sans-Serif" font-size="10.00" fill="#000000">_segments</text>
</a>
</g>
</g>
<!-- Node14&#45;&gt;Node15 -->
<g id="edge3" class="edge">
<title>Node14&#45;&gt;Node15</title>
<path fill="none" stroke="#191970" d="M358.1959,-21C366.6733,-21 375.3327,-21 383.9115,-21"/>
<polygon fill="#191970" stroke="#191970" points="383.9297,-24.5001 393.9296,-21 383.9296,-17.5001 383.9297,-24.5001"/>
</g>
</g>
</svg>
