<?xml version="1.0" encoding="UTF-8" standalone="no"?>
<!DOCTYPE svg PUBLIC "-//W3C//DTD SVG 1.1//EN"
 "http://www.w3.org/Graphics/SVG/1.1/DTD/svg11.dtd">
<!-- Generated by graphviz version 2.40.1 (20161225.0304)
 -->
<!-- Title: neon::solid::MaterialCoordinates::update_current_configuration Pages: 1 -->
<svg width="358pt" height="88pt"
 viewBox="0.00 0.00 358.00 88.00" xmlns="http://www.w3.org/2000/svg" xmlns:xlink="http://www.w3.org/1999/xlink">
<g id="graph0" class="graph" transform="scale(1 1) rotate(0) translate(4 84)">
<title>neon::solid::MaterialCoordinates::update_current_configuration</title>
<polygon fill="#ffffff" stroke="transparent" points="-4,4 -4,-84 354,-84 354,4 -4,4"/>
<!-- Node6 -->
<g id="node1" class="node">
<title>Node6</title>
<polygon fill="#bfbfbf" stroke="#000000" points="0,-24.5 0,-54.5 157,-54.5 157,-24.5 0,-24.5"/>
<text text-anchor="start" x="8" y="-42.5" font-family="Helvetica,sans-Serif" font-size="10.00" fill="#000000">neon::solid::MaterialCoordinates</text>
<text text-anchor="middle" x="78.5" y="-31.5" font-family="Helvetica,sans-Serif" font-size="10.00" fill="#000000">::update_current_configuration</text>
</g>
<!-- Node7 -->
<g id="node2" class="node">
<title>Node7</title>
<g id="a_node2"><a xlink:href="classneon_1_1solid_1_1MaterialCoordinates.html#a25cf23f635deb2d19af066cd49e40800" target="_top" xlink:title="neon::solid::MaterialCoordinates\l::vtk_coordinates">
<polygon fill="#ffffff" stroke="#000000" points="193,-49.5 193,-79.5 350,-79.5 350,-49.5 193,-49.5"/>
<text text-anchor="start" x="201" y="-67.5" font-family="Helvetica,sans-Serif" font-size="10.00" fill="#000000">neon::solid::MaterialCoordinates</text>
<text text-anchor="middle" x="271.5" y="-56.5" font-family="Helvetica,sans-Serif" font-size="10.00" fill="#000000">::vtk_coordinates</text>
</a>
</g>
</g>
<!-- Node6&#45;&gt;Node7 -->
<g id="edge1" class="edge">
<title>Node6&#45;&gt;Node7</title>
<path fill="none" stroke="#191970" d="M157.0005,-49.6685C165.4766,-50.7664 174.1448,-51.8892 182.7308,-53.0014"/>
<polygon fill="#191970" stroke="#191970" points="182.3892,-56.4863 192.7559,-54.3 183.2884,-49.5443 182.3892,-56.4863"/>
</g>
<!-- Node8 -->
<g id="node3" class="node">
<title>Node8</title>
<g id="a_node3"><a xlink:href="classneon_1_1solid_1_1MaterialCoordinates.html#af90d86759982935aa873a4232c482247" target="_top" xlink:title="neon::solid::MaterialCoordinates\l::vtk_displacement">
<polygon fill="#ffffff" stroke="#000000" points="193,-.5 193,-30.5 350,-30.5 350,-.5 193,-.5"/>
<text text-anchor="start" x="201" y="-18.5" font-family="Helvetica,sans-Serif" font-size="10.00" fill="#000000">neon::solid::MaterialCoordinates</text>
<text text-anchor="middle" x="271.5" y="-7.5" font-family="Helvetica,sans-Serif" font-size="10.00" fill="#000000">::vtk_displacement</text>
</a>
</g>
</g>
<!-- Node6&#45;&gt;Node8 -->
<g id="edge2" class="edge">
<title>Node6&#45;&gt;Node8</title>
<path fill="none" stroke="#191970" d="M157.0005,-29.7383C165.4766,-28.6843 174.1448,-27.6063 182.7308,-26.5387"/>
<polygon fill="#191970" stroke="#191970" points="183.2643,-29.9994 192.7559,-25.292 182.4004,-23.0529 183.2643,-29.9994"/>
</g>
</g>
</svg>
