<?xml version="1.0" encoding="UTF-8" standalone="no"?>
<!DOCTYPE svg PUBLIC "-//W3C//DTD SVG 1.1//EN"
 "http://www.w3.org/Graphics/SVG/1.1/DTD/svg11.dtd">
<!-- Generated by graphviz version 2.40.1 (20161225.0304)
 -->
<!-- Title: neon::AffineMicrosphere::compute_kirchhoff_stress Pages: 1 -->
<svg width="537pt" height="100pt"
 viewBox="0.00 0.00 537.00 99.50" xmlns="http://www.w3.org/2000/svg" xmlns:xlink="http://www.w3.org/1999/xlink">
<g id="graph0" class="graph" transform="scale(1 1) rotate(0) translate(4 95.5)">
<title>neon::AffineMicrosphere::compute_kirchhoff_stress</title>
<polygon fill="#ffffff" stroke="transparent" points="-4,4 -4,-95.5 533,-95.5 533,4 -4,4"/>
<!-- Node8 -->
<g id="node1" class="node">
<title>Node8</title>
<polygon fill="#bfbfbf" stroke="#000000" points="0,-33 0,-63 135,-63 135,-33 0,-33"/>
<text text-anchor="start" x="8" y="-51" font-family="Helvetica,sans-Serif" font-size="10.00" fill="#000000">neon::AffineMicrosphere</text>
<text text-anchor="middle" x="67.5" y="-40" font-family="Helvetica,sans-Serif" font-size="10.00" fill="#000000">::compute_kirchhoff_stress</text>
</g>
<!-- Node9 -->
<g id="node2" class="node">
<title>Node9</title>
<g id="a_node2"><a xlink:href="classneon_1_1NumericalQuadrature.html#a132861ccaee57e629e116eb9b014a3a9" target="_top" xlink:title="neon::NumericalQuadrature\l::integrate">
<polygon fill="#ffffff" stroke="#000000" points="183.5,-59 183.5,-89 319.5,-89 319.5,-59 183.5,-59"/>
<text text-anchor="start" x="191.5" y="-77" font-family="Helvetica,sans-Serif" font-size="10.00" fill="#000000">neon::NumericalQuadrature</text>
<text text-anchor="middle" x="251.5" y="-66" font-family="Helvetica,sans-Serif" font-size="10.00" fill="#000000">::integrate</text>
</a>
</g>
</g>
<!-- Node8&#45;&gt;Node9 -->
<g id="edge1" class="edge">
<title>Node8&#45;&gt;Node9</title>
<path fill="none" stroke="#191970" d="M135.2309,-57.5707C147.6017,-59.3187 160.603,-61.1559 173.2497,-62.9429"/>
<polygon fill="#191970" stroke="#191970" points="172.9058,-66.429 183.2972,-64.3626 173.8853,-59.4978 172.9058,-66.429"/>
</g>
<!-- Node11 -->
<g id="node4" class="node">
<title>Node11</title>
<g id="a_node4"><a xlink:href="classneon_1_1MicromechanicalElastomer.html#aaa830ce016c4832b69ad66413cbffc7f" target="_top" xlink:title="neon::MicromechanicalElastomer\l::segment_probability">
<polygon fill="#ffffff" stroke="#000000" points="171,-9 171,-39 332,-39 332,-9 171,-9"/>
<text text-anchor="start" x="179" y="-27" font-family="Helvetica,sans-Serif" font-size="10.00" fill="#000000">neon::MicromechanicalElastomer</text>
<text text-anchor="middle" x="251.5" y="-16" font-family="Helvetica,sans-Serif" font-size="10.00" fill="#000000">::segment_probability</text>
</a>
</g>
</g>
<!-- Node8&#45;&gt;Node11 -->
<g id="edge3" class="edge">
<title>Node8&#45;&gt;Node11</title>
<path fill="none" stroke="#191970" d="M135.2309,-39.1655C143.5534,-38.08 152.1612,-36.9572 160.7544,-35.8364"/>
<polygon fill="#191970" stroke="#191970" points="161.3541,-39.2879 170.8174,-34.5238 160.4487,-32.3467 161.3541,-39.2879"/>
</g>
<!-- Node10 -->
<g id="node3" class="node">
<title>Node10</title>
<g id="a_node3"><a xlink:href="classneon_1_1NumericalQuadrature.html#aed7176a5ad2e2c75aa96eb9a41f4dfb6" target="_top" xlink:title="neon::NumericalQuadrature\l::points">
<polygon fill="#ffffff" stroke="#000000" points="380.5,-61 380.5,-91 516.5,-91 516.5,-61 380.5,-61"/>
<text text-anchor="start" x="388.5" y="-79" font-family="Helvetica,sans-Serif" font-size="10.00" fill="#000000">neon::NumericalQuadrature</text>
<text text-anchor="middle" x="448.5" y="-68" font-family="Helvetica,sans-Serif" font-size="10.00" fill="#000000">::points</text>
</a>
</g>
</g>
<!-- Node9&#45;&gt;Node10 -->
<g id="edge2" class="edge">
<title>Node9&#45;&gt;Node10</title>
<path fill="none" stroke="#191970" d="M319.5721,-74.6911C335.8737,-74.8566 353.4084,-75.0346 370.134,-75.2044"/>
<polygon fill="#191970" stroke="#191970" points="370.3902,-78.7071 380.4252,-75.3089 370.4613,-71.7075 370.3902,-78.7071"/>
</g>
<!-- Node12 -->
<g id="node5" class="node">
<title>Node12</title>
<g id="a_node5"><a xlink:href="classneon_1_1MicromechanicalElastomer.html#aab4b7bfc80786688b65c944d482bbb66" target="_top" xlink:title="neon::MicromechanicalElastomer\l::compute_probability_and\l_segments">
<polygon fill="#ffffff" stroke="#000000" points="368,-.5 368,-41.5 529,-41.5 529,-.5 368,-.5"/>
<text text-anchor="start" x="376" y="-29.5" font-family="Helvetica,sans-Serif" font-size="10.00" fill="#000000">neon::MicromechanicalElastomer</text>
<text text-anchor="start" x="376" y="-18.5" font-family="Helvetica,sans-Serif" font-size="10.00" fill="#000000">::compute_probability_and</text>
<text text-anchor="middle" x="448.5" y="-7.5" font-family="Helvetica,sans-Serif" font-size="10.00" fill="#000000">_segments</text>
</a>
</g>
</g>
<!-- Node11&#45;&gt;Node12 -->
<g id="edge4" class="edge">
<title>Node11&#45;&gt;Node12</title>
<path fill="none" stroke="#191970" d="M332.1959,-22.7711C340.6733,-22.642 349.3327,-22.5102 357.9115,-22.3795"/>
<polygon fill="#191970" stroke="#191970" points="357.9841,-25.8789 367.9296,-22.227 357.8775,-18.8797 357.9841,-25.8789"/>
</g>
</g>
</svg>
