<?xml version="1.0" encoding="UTF-8" standalone="no"?>
<!DOCTYPE svg PUBLIC "-//W3C//DTD SVG 1.1//EN"
 "http://www.w3.org/Graphics/SVG/1.1/DTD/svg11.dtd">
<!-- Generated by graphviz version 2.40.1 (20161225.0304)
 -->
<!-- Title: neon::HypoElasticPlastic Pages: 1 -->
<svg width="135pt" height="152pt"
 viewBox="0.00 0.00 135.00 152.00" xmlns="http://www.w3.org/2000/svg" xmlns:xlink="http://www.w3.org/1999/xlink">
<g id="graph0" class="graph" transform="scale(1 1) rotate(0) translate(4 148)">
<title>neon::HypoElasticPlastic</title>
<polygon fill="#ffffff" stroke="transparent" points="-4,4 -4,-148 131,-148 131,4 -4,4"/>
<!-- Node3 -->
<g id="node1" class="node">
<title>Node3</title>
<polygon fill="#bfbfbf" stroke="#000000" points="0,-.5 0,-19.5 127,-19.5 127,-.5 0,-.5"/>
<text text-anchor="middle" x="63.5" y="-7.5" font-family="Helvetica,sans-Serif" font-size="10.00" fill="#000000">neon::HypoElasticPlastic</text>
</g>
<!-- Node4 -->
<g id="node2" class="node">
<title>Node4</title>
<g id="a_node2"><a xlink:href="classneon_1_1ConstitutiveModel.html" target="_top" xlink:title="neon::ConstitutiveModel">
<polygon fill="#ffffff" stroke="#000000" points="2.5,-57.5 2.5,-76.5 124.5,-76.5 124.5,-57.5 2.5,-57.5"/>
<text text-anchor="middle" x="63.5" y="-64.5" font-family="Helvetica,sans-Serif" font-size="10.00" fill="#000000">neon::ConstitutiveModel</text>
</a>
</g>
</g>
<!-- Node4&#45;&gt;Node3 -->
<g id="edge1" class="edge">
<title>Node4&#45;&gt;Node3</title>
<path fill="none" stroke="#191970" d="M63.5,-47.2342C63.5,-37.8491 63.5,-27.0651 63.5,-19.5265"/>
<polygon fill="#191970" stroke="#191970" points="60.0001,-47.3307 63.5,-57.3307 67.0001,-47.3308 60.0001,-47.3307"/>
</g>
<!-- Node5 -->
<g id="node3" class="node">
<title>Node5</title>
<g id="a_node3"><a xlink:href="classneon_1_1InternalVariables.html" target="_top" xlink:title="neon::InternalVariables">
<polygon fill="#ffffff" stroke="#000000" points="5.5,-124.5 5.5,-143.5 121.5,-143.5 121.5,-124.5 5.5,-124.5"/>
<text text-anchor="middle" x="63.5" y="-131.5" font-family="Helvetica,sans-Serif" font-size="10.00" fill="#000000">neon::InternalVariables</text>
</a>
</g>
</g>
<!-- Node5&#45;&gt;Node4 -->
<g id="edge2" class="edge">
<title>Node5&#45;&gt;Node4</title>
<path fill="none" stroke="#9a32cd" stroke-dasharray="5,2" d="M63.5,-114.1079C63.5,-101.714 63.5,-86.3263 63.5,-76.5817"/>
<polygon fill="#9a32cd" stroke="#9a32cd" points="60.0001,-114.4005 63.5,-124.4005 67.0001,-114.4006 60.0001,-114.4005"/>
<text text-anchor="middle" x="85" y="-98" font-family="Helvetica,sans-Serif" font-size="10.00" fill="#000000"> variables</text>
</g>
</g>
</svg>
