<?xml version="1.0" encoding="UTF-8" standalone="no"?>
<!DOCTYPE svg PUBLIC "-//W3C//DTD SVG 1.1//EN"
 "http://www.w3.org/Graphics/SVG/1.1/DTD/svg11.dtd">
<!-- Generated by graphviz version 2.40.1 (20161225.0304)
 -->
<!-- Title: neon::solid::femSubmesh::offset Pages: 1 -->
<svg width="661pt" height="225pt"
 viewBox="0.00 0.00 661.00 225.00" xmlns="http://www.w3.org/2000/svg" xmlns:xlink="http://www.w3.org/1999/xlink">
<g id="graph0" class="graph" transform="scale(1 1) rotate(0) translate(4 221)">
<title>neon::solid::femSubmesh::offset</title>
<polygon fill="#ffffff" stroke="transparent" points="-4,4 -4,-221 657,-221 657,4 -4,4"/>
<!-- Node129 -->
<g id="node1" class="node">
<title>Node129</title>
<polygon fill="#bfbfbf" stroke="#000000" points="0,-93.5 0,-123.5 128,-123.5 128,-93.5 0,-93.5"/>
<text text-anchor="start" x="8" y="-111.5" font-family="Helvetica,sans-Serif" font-size="10.00" fill="#000000">neon::solid::femSubmesh</text>
<text text-anchor="middle" x="64" y="-100.5" font-family="Helvetica,sans-Serif" font-size="10.00" fill="#000000">::offset</text>
</g>
<!-- Node130 -->
<g id="node2" class="node">
<title>Node130</title>
<g id="a_node2"><a xlink:href="classneon_1_1solid_1_1femSubmesh.html#a146b01147a0c5c030a464088509289dd" target="_top" xlink:title="neon::solid::femSubmesh\l::geometric_tangent_stiffness">
<polygon fill="#ffffff" stroke="#000000" points="169,-.5 169,-30.5 315,-30.5 315,-.5 169,-.5"/>
<text text-anchor="start" x="177" y="-18.5" font-family="Helvetica,sans-Serif" font-size="10.00" fill="#000000">neon::solid::femSubmesh</text>
<text text-anchor="middle" x="242" y="-7.5" font-family="Helvetica,sans-Serif" font-size="10.00" fill="#000000">::geometric_tangent_stiffness</text>
</a>
</g>
</g>
<!-- Node129&#45;&gt;Node130 -->
<g id="edge1" class="edge">
<title>Node129&#45;&gt;Node130</title>
<path fill="none" stroke="#191970" d="M90.1579,-87.1268C109.5723,-72.1167 137.2137,-52.4803 164,-39.5 170.885,-36.1636 178.336,-33.1669 185.8079,-30.515"/>
<polygon fill="#191970" stroke="#191970" points="87.8104,-84.5201 82.1088,-93.45 92.1347,-90.0247 87.8104,-84.5201"/>
</g>
<!-- Node133 -->
<g id="node5" class="node">
<title>Node133</title>
<g id="a_node5"><a xlink:href="classneon_1_1solid_1_1femSubmesh.html#ab924d16740c35a9af36eb08fab10391b" target="_top" xlink:title="neon::solid::femSubmesh\l::deformation_gradient">
<polygon fill="#ffffff" stroke="#000000" points="358.5,-88.5 358.5,-118.5 486.5,-118.5 486.5,-88.5 358.5,-88.5"/>
<text text-anchor="start" x="366.5" y="-106.5" font-family="Helvetica,sans-Serif" font-size="10.00" fill="#000000">neon::solid::femSubmesh</text>
<text text-anchor="middle" x="422.5" y="-95.5" font-family="Helvetica,sans-Serif" font-size="10.00" fill="#000000">::deformation_gradient</text>
</a>
</g>
</g>
<!-- Node129&#45;&gt;Node133 -->
<g id="edge16" class="edge">
<title>Node129&#45;&gt;Node133</title>
<path fill="none" stroke="#191970" d="M138.2652,-107.4642C203.2255,-106.5582 296.5933,-105.256 358.3589,-104.3946"/>
<polygon fill="#191970" stroke="#191970" points="138.0428,-103.9669 128.0926,-107.6061 138.1405,-110.9662 138.0428,-103.9669"/>
</g>
<!-- Node134 -->
<g id="node6" class="node">
<title>Node134</title>
<g id="a_node6"><a xlink:href="classneon_1_1solid_1_1femSubmesh.html#ac59a58e4a33eea88a87f181c1771621e" target="_top" xlink:title="neon::solid::femSubmesh\l::material_tangent_stiffness">
<polygon fill="#ffffff" stroke="#000000" points="173.5,-49.5 173.5,-79.5 310.5,-79.5 310.5,-49.5 173.5,-49.5"/>
<text text-anchor="start" x="181.5" y="-67.5" font-family="Helvetica,sans-Serif" font-size="10.00" fill="#000000">neon::solid::femSubmesh</text>
<text text-anchor="middle" x="242" y="-56.5" font-family="Helvetica,sans-Serif" font-size="10.00" fill="#000000">::material_tangent_stiffness</text>
</a>
</g>
</g>
<!-- Node129&#45;&gt;Node134 -->
<g id="edge5" class="edge">
<title>Node129&#45;&gt;Node134</title>
<path fill="none" stroke="#191970" d="M134.7366,-91.0145C150.1167,-87.2127 166.2571,-83.223 181.2122,-79.5262"/>
<polygon fill="#191970" stroke="#191970" points="133.6275,-87.6833 124.7597,-93.4808 135.3074,-94.4787 133.6275,-87.6833"/>
</g>
<!-- Node135 -->
<g id="node7" class="node">
<title>Node135</title>
<g id="a_node7"><a xlink:href="classneon_1_1solid_1_1femSubmesh.html#acb75f263f98c1934224fbb21854b347c" target="_top" xlink:title="neon::solid::femSubmesh\l::internal_nodal_force">
<polygon fill="#ffffff" stroke="#000000" points="178,-186.5 178,-216.5 306,-216.5 306,-186.5 178,-186.5"/>
<text text-anchor="start" x="186" y="-204.5" font-family="Helvetica,sans-Serif" font-size="10.00" fill="#000000">neon::solid::femSubmesh</text>
<text text-anchor="middle" x="242" y="-193.5" font-family="Helvetica,sans-Serif" font-size="10.00" fill="#000000">::internal_nodal_force</text>
</a>
</g>
</g>
<!-- Node129&#45;&gt;Node135 -->
<g id="edge8" class="edge">
<title>Node129&#45;&gt;Node135</title>
<path fill="none" stroke="#191970" d="M90.6135,-129.7205C110.0538,-144.4216 137.5342,-163.5955 164,-176.5 171.5412,-180.177 179.7495,-183.4871 187.9167,-186.404"/>
<polygon fill="#191970" stroke="#191970" points="92.604,-126.8362 82.5406,-123.5227 88.3412,-132.3886 92.604,-126.8362"/>
</g>
<!-- Node137 -->
<g id="node9" class="node">
<title>Node137</title>
<g id="a_node9"><a xlink:href="classneon_1_1solid_1_1femSubmesh.html#a8bd85d6bbd7f0e43b8621c95b93bfd50" target="_top" xlink:title="neon::solid::femSubmesh\l::update_deformation_measures">
<polygon fill="#ffffff" stroke="#000000" points="164,-137.5 164,-167.5 320,-167.5 320,-137.5 164,-137.5"/>
<text text-anchor="start" x="172" y="-155.5" font-family="Helvetica,sans-Serif" font-size="10.00" fill="#000000">neon::solid::femSubmesh</text>
<text text-anchor="middle" x="242" y="-144.5" font-family="Helvetica,sans-Serif" font-size="10.00" fill="#000000">::update_deformation_measures</text>
</a>
</g>
</g>
<!-- Node129&#45;&gt;Node137 -->
<g id="edge12" class="edge">
<title>Node129&#45;&gt;Node137</title>
<path fill="none" stroke="#191970" d="M134.7366,-125.9855C150.1167,-129.7873 166.2571,-133.777 181.2122,-137.4738"/>
<polygon fill="#191970" stroke="#191970" points="135.3074,-122.5213 124.7597,-123.5192 133.6275,-129.3167 135.3074,-122.5213"/>
</g>
<!-- Node131 -->
<g id="node3" class="node">
<title>Node131</title>
<g id="a_node3"><a xlink:href="classneon_1_1solid_1_1femSubmesh.html#abdc355d969d95032d707ab251e4db75d" target="_top" xlink:title="neon::solid::femSubmesh\l::tangent_stiffness">
<polygon fill="#ffffff" stroke="#000000" points="358.5,-39.5 358.5,-69.5 486.5,-69.5 486.5,-39.5 358.5,-39.5"/>
<text text-anchor="start" x="366.5" y="-57.5" font-family="Helvetica,sans-Serif" font-size="10.00" fill="#000000">neon::solid::femSubmesh</text>
<text text-anchor="middle" x="422.5" y="-46.5" font-family="Helvetica,sans-Serif" font-size="10.00" fill="#000000">::tangent_stiffness</text>
</a>
</g>
</g>
<!-- Node130&#45;&gt;Node131 -->
<g id="edge2" class="edge">
<title>Node130&#45;&gt;Node131</title>
<path fill="none" stroke="#191970" d="M321.3643,-32.648C333.726,-35.3189 346.3642,-38.0496 358.3329,-40.6356"/>
<polygon fill="#191970" stroke="#191970" points="322.0415,-29.2136 311.5278,-30.5226 320.5631,-36.0557 322.0415,-29.2136"/>
</g>
<!-- Node130&#45;&gt;Node133 -->
<g id="edge4" class="edge">
<title>Node130&#45;&gt;Node133</title>
<path fill="none" stroke="#191970" d="M311.8381,-34.876C314.6529,-36.3152 317.3867,-37.8545 320,-39.5 339.9616,-52.0689 336.4316,-65.3273 356,-78.5 361.6275,-82.2882 367.9064,-85.6026 374.2971,-88.4719"/>
<polygon fill="#191970" stroke="#191970" points="313.1668,-31.6344 302.6213,-30.6126 310.2279,-37.9876 313.1668,-31.6344"/>
</g>
<!-- Node132 -->
<g id="node4" class="node">
<title>Node132</title>
<g id="a_node4"><a xlink:href="classneon_1_1solid_1_1femSubmesh.html#a6e725b9d73d74ff4f5971f2f7f74225c" target="_top" xlink:title="neon::solid::femSubmesh\l::internal_variables">
<polygon fill="#ffffff" stroke="#000000" points="525,-137.5 525,-167.5 653,-167.5 653,-137.5 525,-137.5"/>
<text text-anchor="start" x="533" y="-155.5" font-family="Helvetica,sans-Serif" font-size="10.00" fill="#000000">neon::solid::femSubmesh</text>
<text text-anchor="middle" x="589" y="-144.5" font-family="Helvetica,sans-Serif" font-size="10.00" fill="#000000">::internal_variables</text>
</a>
</g>
</g>
<!-- Node131&#45;&gt;Node132 -->
<g id="edge3" class="edge">
<title>Node131&#45;&gt;Node132</title>
<path fill="none" stroke="#191970" d="M478.9718,-73.5632C482.4122,-75.1286 485.7811,-76.776 489,-78.5 520.4142,-95.3251 552.8756,-121.2027 571.9842,-137.4741"/>
<polygon fill="#191970" stroke="#191970" points="480.3216,-70.3339 469.7512,-69.615 477.5662,-76.7688 480.3216,-70.3339"/>
</g>
<!-- Node134&#45;&gt;Node131 -->
<g id="edge6" class="edge">
<title>Node134&#45;&gt;Node131</title>
<path fill="none" stroke="#191970" d="M320.7554,-60.1368C333.3306,-59.4401 346.2086,-58.7267 358.391,-58.0517"/>
<polygon fill="#191970" stroke="#191970" points="320.5453,-56.643 310.7542,-60.6909 320.9326,-63.6323 320.5453,-56.643"/>
</g>
<!-- Node134&#45;&gt;Node133 -->
<g id="edge7" class="edge">
<title>Node134&#45;&gt;Node133</title>
<path fill="none" stroke="#191970" d="M320.7554,-81.5164C333.3306,-84.2335 346.2086,-87.016 358.391,-89.6482"/>
<polygon fill="#191970" stroke="#191970" points="321.2679,-78.0464 310.7542,-79.3555 319.7895,-84.8885 321.2679,-78.0464"/>
</g>
<!-- Node135&#45;&gt;Node133 -->
<g id="edge11" class="edge">
<title>Node135&#45;&gt;Node133</title>
<path fill="none" stroke="#191970" d="M311.6264,-181.816C314.5376,-180.1788 317.3451,-178.4101 320,-176.5 341.9362,-160.7179 334.353,-143.6764 356,-127.5 360.5227,-124.1202 365.5672,-121.1802 370.8,-118.6309"/>
<polygon fill="#191970" stroke="#191970" points="309.9896,-178.7215 302.6306,-186.3435 313.1365,-184.9742 309.9896,-178.7215"/>
</g>
<!-- Node136 -->
<g id="node8" class="node">
<title>Node136</title>
<g id="a_node8"><a xlink:href="classneon_1_1solid_1_1femSubmesh.html#ad0c267e8fd87a1126c216b21ccfd7b55" target="_top" xlink:title="neon::solid::femSubmesh\l::internal_force">
<polygon fill="#ffffff" stroke="#000000" points="358.5,-186.5 358.5,-216.5 486.5,-216.5 486.5,-186.5 358.5,-186.5"/>
<text text-anchor="start" x="366.5" y="-204.5" font-family="Helvetica,sans-Serif" font-size="10.00" fill="#000000">neon::solid::femSubmesh</text>
<text text-anchor="middle" x="422.5" y="-193.5" font-family="Helvetica,sans-Serif" font-size="10.00" fill="#000000">::internal_force</text>
</a>
</g>
</g>
<!-- Node135&#45;&gt;Node136 -->
<g id="edge9" class="edge">
<title>Node135&#45;&gt;Node136</title>
<path fill="none" stroke="#191970" d="M316.1945,-201.5C330.1505,-201.5 344.6357,-201.5 358.2569,-201.5"/>
<polygon fill="#191970" stroke="#191970" points="316.1458,-198.0001 306.1458,-201.5 316.1457,-205.0001 316.1458,-198.0001"/>
</g>
<!-- Node136&#45;&gt;Node132 -->
<g id="edge10" class="edge">
<title>Node136&#45;&gt;Node132</title>
<path fill="none" stroke="#191970" d="M483.551,-183.533C501.3906,-178.283 520.6973,-172.6011 537.8554,-167.5516"/>
<polygon fill="#191970" stroke="#191970" points="482.4191,-180.2176 473.8141,-186.3986 484.3954,-186.9329 482.4191,-180.2176"/>
</g>
<!-- Node137&#45;&gt;Node133 -->
<g id="edge15" class="edge">
<title>Node137&#45;&gt;Node133</title>
<path fill="none" stroke="#191970" d="M307.3796,-134.7515C326.9422,-129.4409 348.1958,-123.6712 367.0549,-118.5516"/>
<polygon fill="#191970" stroke="#191970" points="306.3625,-131.4009 297.6288,-137.3986 308.1965,-138.1564 306.3625,-131.4009"/>
</g>
<!-- Node138 -->
<g id="node10" class="node">
<title>Node138</title>
<g id="a_node10"><a xlink:href="classneon_1_1solid_1_1femSubmesh.html#ab21112c060fb89a7fb065c4004e2ab46" target="_top" xlink:title="neon::solid::femSubmesh\l::update_internal_variables">
<polygon fill="#ffffff" stroke="#000000" points="356,-137.5 356,-167.5 489,-167.5 489,-137.5 356,-137.5"/>
<text text-anchor="start" x="364" y="-155.5" font-family="Helvetica,sans-Serif" font-size="10.00" fill="#000000">neon::solid::femSubmesh</text>
<text text-anchor="middle" x="422.5" y="-144.5" font-family="Helvetica,sans-Serif" font-size="10.00" fill="#000000">::update_internal_variables</text>
</a>
</g>
</g>
<!-- Node137&#45;&gt;Node138 -->
<g id="edge13" class="edge">
<title>Node137&#45;&gt;Node138</title>
<path fill="none" stroke="#191970" d="M330.2182,-152.5C338.846,-152.5 347.4986,-152.5 355.8603,-152.5"/>
<polygon fill="#191970" stroke="#191970" points="330.1202,-149.0001 320.1201,-152.5 330.1201,-156.0001 330.1202,-149.0001"/>
</g>
<!-- Node138&#45;&gt;Node132 -->
<g id="edge14" class="edge">
<title>Node138&#45;&gt;Node132</title>
<path fill="none" stroke="#191970" d="M499.2727,-152.5C507.8547,-152.5 516.5292,-152.5 524.9282,-152.5"/>
<polygon fill="#191970" stroke="#191970" points="499.2626,-149.0001 489.2626,-152.5 499.2625,-156.0001 499.2626,-149.0001"/>
</g>
</g>
</svg>
