<?xml version="1.0" encoding="UTF-8" standalone="no"?>
<!DOCTYPE svg PUBLIC "-//W3C//DTD SVG 1.1//EN"
 "http://www.w3.org/Graphics/SVG/1.1/DTD/svg11.dtd">
<!-- Generated by graphviz version 2.40.1 (20161225.0304)
 -->
<!-- Title: neon::SubMesh::local_node_list Pages: 1 -->
<!--zoomable 378 -->
<svg id="main" version="1.1" xmlns="http://www.w3.org/2000/svg" xmlns:xlink="http://www.w3.org/1999/xlink" xml:space="preserve" onload="init(evt)">
<style type="text/css"><![CDATA[
.edge:hover path { stroke: red; }
.edge:hover polygon { stroke: red; fill: red; }
]]></style>
<script type="text/javascript"><![CDATA[
var edges = document.getElementsByTagName('g');
if (edges && edges.length) {
  for (var i=0;i<edges.length;i++) {
    if (edges[i].id.substr(0,4)=='edge') {
      edges[i].setAttribute('class','edge');
    }
  }
}
]]></script>
        <defs>
                <circle id="rim" cx="0" cy="0" r="7"/>
                <circle id="rim2" cx="0" cy="0" r="3.5"/>
                <g id="zoomPlus">
                        <use xlink:href="#rim" fill="#404040">
                                <set attributeName="fill" to="#808080" begin="zoomplus.mouseover" end="zoomplus.mouseout"/>
                        </use>
                        <path d="M-4,0h8M0,-4v8" fill="none" stroke="white" stroke-width="1.5" pointer-events="none"/>
                </g>
                <g id="zoomMin">
                        <use xlink:href="#rim" fill="#404040">
                                <set attributeName="fill" to="#808080" begin="zoomminus.mouseover" end="zoomminus.mouseout"/>
                        </use>
                        <path d="M-4,0h8" fill="none" stroke="white" stroke-width="1.5" pointer-events="none"/>
                </g>
                <g id="dirArrow">
                        <path fill="none" stroke="white" stroke-width="1.5" d="M0,-3.0v7 M-2.5,-0.5L0,-3.0L2.5,-0.5"/>
                </g>
               <g id="resetDef">
                       <use xlink:href="#rim2" fill="#404040">
                               <set attributeName="fill" to="#808080" begin="reset.mouseover" end="reset.mouseout"/>
                       </use>
               </g>
        </defs>

<script type="text/javascript">
var viewWidth = 808;
var viewHeight = 378;
var sectionId = 'dynsection-7';
</script>
<script xlink:href="svgpan.js"/>
<svg id="graph" class="graph">
<g id="viewport">
<title>neon::SubMesh::local_node_list</title>
<polygon fill="#ffffff" stroke="transparent" points="-4,4 -4,-374.081 804,-374.081 804,4 -4,4"/>
<!-- Node25 -->
<g id="node1" class="node">
<title>Node25</title>
<polygon fill="#bfbfbf" stroke="#000000" points="0,-108.5 0,-138.5 111,-138.5 111,-108.5 0,-108.5"/>
<text text-anchor="start" x="8" y="-126.5" font-family="Helvetica,sans-Serif" font-size="10.00" fill="#000000">neon::SubMesh::local</text>
<text text-anchor="middle" x="55.5" y="-115.5" font-family="Helvetica,sans-Serif" font-size="10.00" fill="#000000">_node_list</text>
</g>
<!-- Node26 -->
<g id="node2" class="node">
<title>Node26</title>
<g id="a_node2"><a xlink:href="classneon_1_1solid_1_1femSubmesh.html#abdc355d969d95032d707ab251e4db75d" target="_top" xlink:title="neon::solid::femSubmesh\l::tangent_stiffness">
<polygon fill="#ffffff" stroke="#000000" points="505.5,-296.5 505.5,-326.5 633.5,-326.5 633.5,-296.5 505.5,-296.5"/>
<text text-anchor="start" x="513.5" y="-314.5" font-family="Helvetica,sans-Serif" font-size="10.00" fill="#000000">neon::solid::femSubmesh</text>
<text text-anchor="middle" x="569.5" y="-303.5" font-family="Helvetica,sans-Serif" font-size="10.00" fill="#000000">::tangent_stiffness</text>
</a>
</g>
</g>
<!-- Node25&#45;&gt;Node26 -->
<g id="edge1" class="edge">
<title>Node25&#45;&gt;Node26</title>
<path fill="none" stroke="#191970" d="M70.6425,-147.2541C105.4022,-199.0594 196.7785,-320.4435 311,-356.5 377.1173,-377.3714 399.1446,-370.7392 467,-356.5 494.3892,-350.7525 523.3972,-337.2326 543.5367,-326.5029"/>
<polygon fill="#191970" stroke="#191970" points="73.4314,-145.1259 65.001,-138.7088 67.5896,-148.9825 73.4314,-145.1259"/>
</g>
<!-- Node28 -->
<g id="node4" class="node">
<title>Node28</title>
<g id="a_node4"><a xlink:href="classneon_1_1solid_1_1femSubmesh.html#ad0c267e8fd87a1126c216b21ccfd7b55" target="_top" xlink:title="neon::solid::femSubmesh\l::internal_force">
<polygon fill="#ffffff" stroke="#000000" points="505.5,-179.5 505.5,-209.5 633.5,-209.5 633.5,-179.5 505.5,-179.5"/>
<text text-anchor="start" x="513.5" y="-197.5" font-family="Helvetica,sans-Serif" font-size="10.00" fill="#000000">neon::solid::femSubmesh</text>
<text text-anchor="middle" x="569.5" y="-186.5" font-family="Helvetica,sans-Serif" font-size="10.00" fill="#000000">::internal_force</text>
</a>
</g>
</g>
<!-- Node25&#45;&gt;Node28 -->
<g id="edge3" class="edge">
<title>Node25&#45;&gt;Node28</title>
<path fill="none" stroke="#191970" d="M121.4318,-116.0188C222.0591,-105.7893 408.4566,-91.8663 467,-121.5 491.1107,-133.7044 481.353,-154.3236 503,-170.5 507.5227,-173.8798 512.5672,-176.8198 517.8,-179.3691"/>
<polygon fill="#191970" stroke="#191970" points="120.9636,-112.5485 111.3763,-117.0578 121.6831,-119.5114 120.9636,-112.5485"/>
</g>
<!-- Node29 -->
<g id="node5" class="node">
<title>Node29</title>
<g id="a_node5"><a xlink:href="classneon_1_1solid_1_1femSubmesh.html#ad6e50b01a0301255f81ffb8139ee785a" target="_top" xlink:title="neon::solid::femSubmesh\l::consistent_mass">
<polygon fill="#ffffff" stroke="#000000" points="325,-42.5 325,-72.5 453,-72.5 453,-42.5 325,-42.5"/>
<text text-anchor="start" x="333" y="-60.5" font-family="Helvetica,sans-Serif" font-size="10.00" fill="#000000">neon::solid::femSubmesh</text>
<text text-anchor="middle" x="389" y="-49.5" font-family="Helvetica,sans-Serif" font-size="10.00" fill="#000000">::consistent_mass</text>
</a>
</g>
</g>
<!-- Node25&#45;&gt;Node29 -->
<g id="edge5" class="edge">
<title>Node25&#45;&gt;Node29</title>
<path fill="none" stroke="#191970" d="M97.1201,-104.5695C112.5127,-98.2545 130.2855,-91.7517 147,-87.5 206.1842,-72.4452 275.507,-64.8313 324.7513,-61.0527"/>
<polygon fill="#191970" stroke="#191970" points="95.7372,-101.3541 87.8744,-108.4553 98.4494,-107.8073 95.7372,-101.3541"/>
</g>
<!-- Node31 -->
<g id="node7" class="node">
<title>Node31</title>
<g id="a_node7"><a xlink:href="classneon_1_1solid_1_1femSubmesh.html#a8bd85d6bbd7f0e43b8621c95b93bfd50" target="_top" xlink:title="neon::solid::femSubmesh\l::update_deformation_measures">
<polygon fill="#ffffff" stroke="#000000" points="311,-130.5 311,-160.5 467,-160.5 467,-130.5 311,-130.5"/>
<text text-anchor="start" x="319" y="-148.5" font-family="Helvetica,sans-Serif" font-size="10.00" fill="#000000">neon::solid::femSubmesh</text>
<text text-anchor="middle" x="389" y="-137.5" font-family="Helvetica,sans-Serif" font-size="10.00" fill="#000000">::update_deformation_measures</text>
</a>
</g>
</g>
<!-- Node25&#45;&gt;Node31 -->
<g id="edge9" class="edge">
<title>Node25&#45;&gt;Node31</title>
<path fill="none" stroke="#191970" d="M121.5476,-127.857C175.9772,-131.4475 253.2934,-136.5478 310.8082,-140.3419"/>
<polygon fill="#191970" stroke="#191970" points="121.5291,-124.3482 111.3204,-127.1823 121.0683,-131.333 121.5291,-124.3482"/>
</g>
<!-- Node34 -->
<g id="node10" class="node">
<title>Node34</title>
<g id="a_node10"><a xlink:href="classneon_1_1solid_1_1femSubmesh.html#abfcb47594fe901d00dc48b6550fe124b" target="_top" xlink:title="neon::solid::femSubmesh\l::offset">
<polygon fill="#ffffff" stroke="#000000" points="147,-201.5 147,-231.5 275,-231.5 275,-201.5 147,-201.5"/>
<text text-anchor="start" x="155" y="-219.5" font-family="Helvetica,sans-Serif" font-size="10.00" fill="#000000">neon::solid::femSubmesh</text>
<text text-anchor="middle" x="211" y="-208.5" font-family="Helvetica,sans-Serif" font-size="10.00" fill="#000000">::offset</text>
</a>
</g>
</g>
<!-- Node25&#45;&gt;Node34 -->
<g id="edge13" class="edge">
<title>Node25&#45;&gt;Node34</title>
<path fill="none" stroke="#191970" d="M89.7857,-144.0053C118.7575,-161.3325 159.5927,-185.7548 185.681,-201.3574"/>
<polygon fill="#191970" stroke="#191970" points="91.2086,-140.7781 80.8298,-138.649 87.6156,-146.7856 91.2086,-140.7781"/>
</g>
<!-- Node38 -->
<g id="node14" class="node">
<title>Node38</title>
<g id="a_node14"><a xlink:href="classneon_1_1SubMesh.html#aa204a9f465a4554a65e6706f90e35f37" target="_top" xlink:title="neon::SubMesh::gather\l_coordinates">
<polygon fill="#ffffff" stroke="#000000" points="152,-.5 152,-30.5 270,-30.5 270,-.5 152,-.5"/>
<text text-anchor="start" x="160" y="-18.5" font-family="Helvetica,sans-Serif" font-size="10.00" fill="#000000">neon::SubMesh::gather</text>
<text text-anchor="middle" x="211" y="-7.5" font-family="Helvetica,sans-Serif" font-size="10.00" fill="#000000">_coordinates</text>
</a>
</g>
</g>
<!-- Node25&#45;&gt;Node38 -->
<g id="edge25" class="edge">
<title>Node25&#45;&gt;Node38</title>
<path fill="none" stroke="#191970" d="M79.5182,-101.4394C97.3709,-85.6462 122.736,-64.4437 147,-48.5 156.9252,-41.9782 168.2975,-35.7524 178.6761,-30.501"/>
<polygon fill="#191970" stroke="#191970" points="76.9946,-99.0008 71.8751,-108.2767 81.6617,-104.2179 76.9946,-99.0008"/>
</g>
<!-- Node27 -->
<g id="node3" class="node">
<title>Node27</title>
<g id="a_node3"><a xlink:href="classneon_1_1solid_1_1femSubmesh.html#a6e725b9d73d74ff4f5971f2f7f74225c" target="_top" xlink:title="neon::solid::femSubmesh\l::internal_variables">
<polygon fill="#ffffff" stroke="#000000" points="672,-130.5 672,-160.5 800,-160.5 800,-130.5 672,-130.5"/>
<text text-anchor="start" x="680" y="-148.5" font-family="Helvetica,sans-Serif" font-size="10.00" fill="#000000">neon::solid::femSubmesh</text>
<text text-anchor="middle" x="736" y="-137.5" font-family="Helvetica,sans-Serif" font-size="10.00" fill="#000000">::internal_variables</text>
</a>
</g>
</g>
<!-- Node26&#45;&gt;Node27 -->
<g id="edge2" class="edge">
<title>Node26&#45;&gt;Node27</title>
<path fill="none" stroke="#191970" d="M605.8656,-290.8958C616.0911,-284.3468 626.8964,-276.6648 636,-268.5 673.903,-234.5059 709.2475,-185.4094 725.9372,-160.7909"/>
<polygon fill="#191970" stroke="#191970" points="603.7381,-288.0968 597.0861,-296.3431 607.4287,-294.0449 603.7381,-288.0968"/>
</g>
<!-- Node28&#45;&gt;Node27 -->
<g id="edge4" class="edge">
<title>Node28&#45;&gt;Node27</title>
<path fill="none" stroke="#191970" d="M630.551,-176.533C648.3906,-171.283 667.6973,-165.6011 684.8554,-160.5516"/>
<polygon fill="#191970" stroke="#191970" points="629.4191,-173.2176 620.8141,-179.3986 631.3954,-179.9329 629.4191,-173.2176"/>
</g>
<!-- Node29&#45;&gt;Node27 -->
<g id="edge8" class="edge">
<title>Node29&#45;&gt;Node27</title>
<path fill="none" stroke="#191970" d="M458.2509,-75.0622C522.1862,-91.2763 616.1381,-115.1028 676.6971,-130.4606"/>
<polygon fill="#191970" stroke="#191970" points="458.8107,-71.5934 448.2572,-72.5278 457.0899,-78.3786 458.8107,-71.5934"/>
</g>
<!-- Node30 -->
<g id="node6" class="node">
<title>Node30</title>
<g id="a_node6"><a xlink:href="classneon_1_1solid_1_1femSubmesh.html#a118bc792978bf5ac5e24d3949f53244e" target="_top" xlink:title="neon::solid::femSubmesh\l::diagonal_mass">
<polygon fill="#ffffff" stroke="#000000" points="505.5,-42.5 505.5,-72.5 633.5,-72.5 633.5,-42.5 505.5,-42.5"/>
<text text-anchor="start" x="513.5" y="-60.5" font-family="Helvetica,sans-Serif" font-size="10.00" fill="#000000">neon::solid::femSubmesh</text>
<text text-anchor="middle" x="569.5" y="-49.5" font-family="Helvetica,sans-Serif" font-size="10.00" fill="#000000">::diagonal_mass</text>
</a>
</g>
</g>
<!-- Node29&#45;&gt;Node30 -->
<g id="edge6" class="edge">
<title>Node29&#45;&gt;Node30</title>
<path fill="none" stroke="#191970" d="M463.1945,-57.5C477.1505,-57.5 491.6357,-57.5 505.2569,-57.5"/>
<polygon fill="#191970" stroke="#191970" points="463.1458,-54.0001 453.1458,-57.5 463.1457,-61.0001 463.1458,-54.0001"/>
</g>
<!-- Node30&#45;&gt;Node27 -->
<g id="edge7" class="edge">
<title>Node30&#45;&gt;Node27</title>
<path fill="none" stroke="#191970" d="M613.9488,-76.7945C621.3737,-80.2332 628.9504,-83.8774 636,-87.5 662.4193,-101.0763 691.7142,-118.3403 711.7296,-130.4904"/>
<polygon fill="#191970" stroke="#191970" points="615.227,-73.5307 604.6762,-72.5658 612.3225,-79.8997 615.227,-73.5307"/>
</g>
<!-- Node32 -->
<g id="node8" class="node">
<title>Node32</title>
<g id="a_node8"><a xlink:href="classneon_1_1solid_1_1femSubmesh.html#ab21112c060fb89a7fb065c4004e2ab46" target="_top" xlink:title="neon::solid::femSubmesh\l::update_internal_variables">
<polygon fill="#ffffff" stroke="#000000" points="503,-130.5 503,-160.5 636,-160.5 636,-130.5 503,-130.5"/>
<text text-anchor="start" x="511" y="-148.5" font-family="Helvetica,sans-Serif" font-size="10.00" fill="#000000">neon::solid::femSubmesh</text>
<text text-anchor="middle" x="569.5" y="-137.5" font-family="Helvetica,sans-Serif" font-size="10.00" fill="#000000">::update_internal_variables</text>
</a>
</g>
</g>
<!-- Node31&#45;&gt;Node32 -->
<g id="edge10" class="edge">
<title>Node31&#45;&gt;Node32</title>
<path fill="none" stroke="#191970" d="M477.2182,-145.5C485.846,-145.5 494.4986,-145.5 502.8603,-145.5"/>
<polygon fill="#191970" stroke="#191970" points="477.1202,-142.0001 467.1201,-145.5 477.1201,-149.0001 477.1202,-142.0001"/>
</g>
<!-- Node33 -->
<g id="node9" class="node">
<title>Node33</title>
<g id="a_node9"><a xlink:href="classneon_1_1solid_1_1femSubmesh.html#ab924d16740c35a9af36eb08fab10391b" target="_top" xlink:title="neon::solid::femSubmesh\l::deformation_gradient">
<polygon fill="#ffffff" stroke="#000000" points="505.5,-228.5 505.5,-258.5 633.5,-258.5 633.5,-228.5 505.5,-228.5"/>
<text text-anchor="start" x="513.5" y="-246.5" font-family="Helvetica,sans-Serif" font-size="10.00" fill="#000000">neon::solid::femSubmesh</text>
<text text-anchor="middle" x="569.5" y="-235.5" font-family="Helvetica,sans-Serif" font-size="10.00" fill="#000000">::deformation_gradient</text>
</a>
</g>
</g>
<!-- Node31&#45;&gt;Node33 -->
<g id="edge12" class="edge">
<title>Node31&#45;&gt;Node33</title>
<path fill="none" stroke="#191970" d="M458.6264,-165.184C461.5376,-166.8212 464.3451,-168.5899 467,-170.5 488.9362,-186.2821 481.353,-203.3236 503,-219.5 507.5227,-222.8798 512.5672,-225.8198 517.8,-228.3691"/>
<polygon fill="#191970" stroke="#191970" points="460.1365,-162.0258 449.6306,-160.6565 456.9896,-168.2785 460.1365,-162.0258"/>
</g>
<!-- Node32&#45;&gt;Node27 -->
<g id="edge11" class="edge">
<title>Node32&#45;&gt;Node27</title>
<path fill="none" stroke="#191970" d="M646.2727,-145.5C654.8547,-145.5 663.5292,-145.5 671.9282,-145.5"/>
<polygon fill="#191970" stroke="#191970" points="646.2626,-142.0001 636.2626,-145.5 646.2625,-149.0001 646.2626,-142.0001"/>
</g>
<!-- Node34&#45;&gt;Node31 -->
<g id="edge23" class="edge">
<title>Node34&#45;&gt;Node31</title>
<path fill="none" stroke="#191970" d="M250.375,-197.0503C268.6006,-188.3953 290.6747,-178.3987 311,-170.5 319.8805,-167.0489 329.4554,-163.6918 338.7529,-160.6159"/>
<polygon fill="#191970" stroke="#191970" points="248.7298,-193.9575 241.2247,-201.4358 251.7552,-200.27 248.7298,-193.9575"/>
</g>
<!-- Node34&#45;&gt;Node33 -->
<g id="edge24" class="edge">
<title>Node34&#45;&gt;Node33</title>
<path fill="none" stroke="#191970" d="M285.2652,-222.0932C350.2255,-226.9856 443.5933,-234.0175 505.3589,-238.6693"/>
<polygon fill="#191970" stroke="#191970" points="285.3273,-218.588 275.0926,-221.3271 284.8015,-225.5683 285.3273,-218.588"/>
</g>
<!-- Node35 -->
<g id="node11" class="node">
<title>Node35</title>
<g id="a_node11"><a xlink:href="classneon_1_1solid_1_1femSubmesh.html#a146b01147a0c5c030a464088509289dd" target="_top" xlink:title="neon::solid::femSubmesh\l::geometric_tangent_stiffness">
<polygon fill="#ffffff" stroke="#000000" points="316,-267.5 316,-297.5 462,-297.5 462,-267.5 316,-267.5"/>
<text text-anchor="start" x="324" y="-285.5" font-family="Helvetica,sans-Serif" font-size="10.00" fill="#000000">neon::solid::femSubmesh</text>
<text text-anchor="middle" x="389" y="-274.5" font-family="Helvetica,sans-Serif" font-size="10.00" fill="#000000">::geometric_tangent_stiffness</text>
</a>
</g>
</g>
<!-- Node34&#45;&gt;Node35 -->
<g id="edge14" class="edge">
<title>Node34&#45;&gt;Node35</title>
<path fill="none" stroke="#191970" d="M261.2967,-235.1493C288.8296,-245.3582 322.4997,-257.8426 348.3532,-267.4287"/>
<polygon fill="#191970" stroke="#191970" points="262.4298,-231.8367 251.8368,-231.6417 259.9962,-238.4001 262.4298,-231.8367"/>
</g>
<!-- Node36 -->
<g id="node12" class="node">
<title>Node36</title>
<g id="a_node12"><a xlink:href="classneon_1_1solid_1_1femSubmesh.html#ac59a58e4a33eea88a87f181c1771621e" target="_top" xlink:title="neon::solid::femSubmesh\l::material_tangent_stiffness">
<polygon fill="#ffffff" stroke="#000000" points="320.5,-316.5 320.5,-346.5 457.5,-346.5 457.5,-316.5 320.5,-316.5"/>
<text text-anchor="start" x="328.5" y="-334.5" font-family="Helvetica,sans-Serif" font-size="10.00" fill="#000000">neon::solid::femSubmesh</text>
<text text-anchor="middle" x="389" y="-323.5" font-family="Helvetica,sans-Serif" font-size="10.00" fill="#000000">::material_tangent_stiffness</text>
</a>
</g>
</g>
<!-- Node34&#45;&gt;Node36 -->
<g id="edge17" class="edge">
<title>Node34&#45;&gt;Node36</title>
<path fill="none" stroke="#191970" d="M230.5208,-239.2498C249.2586,-259.7717 279.3201,-289.4283 311,-307.5 316.9072,-310.8697 323.3414,-313.8196 329.8972,-316.3885"/>
<polygon fill="#191970" stroke="#191970" points="232.9579,-236.7247 223.6801,-231.6087 227.7425,-241.3938 232.9579,-236.7247"/>
</g>
<!-- Node37 -->
<g id="node13" class="node">
<title>Node37</title>
<g id="a_node13"><a xlink:href="classneon_1_1solid_1_1femSubmesh.html#acb75f263f98c1934224fbb21854b347c" target="_top" xlink:title="neon::solid::femSubmesh\l::internal_nodal_force">
<polygon fill="#ffffff" stroke="#000000" points="325,-179.5 325,-209.5 453,-209.5 453,-179.5 325,-179.5"/>
<text text-anchor="start" x="333" y="-197.5" font-family="Helvetica,sans-Serif" font-size="10.00" fill="#000000">neon::solid::femSubmesh</text>
<text text-anchor="middle" x="389" y="-186.5" font-family="Helvetica,sans-Serif" font-size="10.00" fill="#000000">::internal_nodal_force</text>
</a>
</g>
</g>
<!-- Node34&#45;&gt;Node37 -->
<g id="edge20" class="edge">
<title>Node34&#45;&gt;Node37</title>
<path fill="none" stroke="#191970" d="M285.04,-207.349C298.2981,-205.7104 312.0121,-204.0154 324.9594,-202.4151"/>
<polygon fill="#191970" stroke="#191970" points="284.5057,-203.8883 275.0106,-208.5886 285.3644,-210.8354 284.5057,-203.8883"/>
</g>
<!-- Node35&#45;&gt;Node26 -->
<g id="edge15" class="edge">
<title>Node35&#45;&gt;Node26</title>
<path fill="none" stroke="#191970" d="M472.2661,-295.8779C483.3391,-297.657 494.553,-299.4587 505.236,-301.175"/>
<polygon fill="#191970" stroke="#191970" points="472.5847,-292.3843 462.1561,-294.2536 471.4742,-299.2957 472.5847,-292.3843"/>
</g>
<!-- Node35&#45;&gt;Node33 -->
<g id="edge16" class="edge">
<title>Node35&#45;&gt;Node33</title>
<path fill="none" stroke="#191970" d="M468.3643,-265.352C480.726,-262.6811 493.3642,-259.9504 505.3329,-257.3644"/>
<polygon fill="#191970" stroke="#191970" points="467.5631,-261.9443 458.5278,-267.4774 469.0415,-268.7864 467.5631,-261.9443"/>
</g>
<!-- Node36&#45;&gt;Node26 -->
<g id="edge18" class="edge">
<title>Node36&#45;&gt;Node26</title>
<path fill="none" stroke="#191970" d="M467.7554,-322.7736C480.3306,-321.3803 493.2086,-319.9533 505.391,-318.6035"/>
<polygon fill="#191970" stroke="#191970" points="467.3079,-319.3017 457.7542,-323.8818 468.0789,-326.2591 467.3079,-319.3017"/>
</g>
<!-- Node36&#45;&gt;Node33 -->
<g id="edge19" class="edge">
<title>Node36&#45;&gt;Node33</title>
<path fill="none" stroke="#191970" d="M453.661,-313.0537C458.2267,-311.31 462.7147,-309.4567 467,-307.5 482.935,-300.224 521.699,-275.2056 546.726,-258.6893"/>
<polygon fill="#191970" stroke="#191970" points="452.428,-309.7777 444.2202,-316.4771 454.8143,-316.3584 452.428,-309.7777"/>
</g>
<!-- Node37&#45;&gt;Node28 -->
<g id="edge21" class="edge">
<title>Node37&#45;&gt;Node28</title>
<path fill="none" stroke="#191970" d="M463.1945,-194.5C477.1505,-194.5 491.6357,-194.5 505.2569,-194.5"/>
<polygon fill="#191970" stroke="#191970" points="463.1458,-191.0001 453.1458,-194.5 463.1457,-198.0001 463.1458,-191.0001"/>
</g>
<!-- Node37&#45;&gt;Node33 -->
<g id="edge22" class="edge">
<title>Node37&#45;&gt;Node33</title>
<path fill="none" stroke="#191970" d="M454.3796,-212.2485C473.9422,-217.5591 495.1958,-223.3288 514.0549,-228.4484"/>
<polygon fill="#191970" stroke="#191970" points="455.1965,-208.8436 444.6288,-209.6014 453.3625,-215.5991 455.1965,-208.8436"/>
</g>
<!-- Node39 -->
<g id="node15" class="node">
<title>Node39</title>
<g id="a_node15"><a xlink:href="classneon_1_1SubMesh.html#ab9a238b35436e9bff29657bb880a189e" target="_top" xlink:title="neon::SubMesh::connectivities">
<polygon fill="#ffffff" stroke="#000000" points="313.5,-4 313.5,-23 464.5,-23 464.5,-4 313.5,-4"/>
<text text-anchor="middle" x="389" y="-11" font-family="Helvetica,sans-Serif" font-size="10.00" fill="#000000">neon::SubMesh::connectivities</text>
</a>
</g>
</g>
<!-- Node38&#45;&gt;Node39 -->
<g id="edge26" class="edge">
<title>Node38&#45;&gt;Node39</title>
<path fill="none" stroke="#191970" d="M280.4311,-14.7199C291.1786,-14.5991 302.3266,-14.4739 313.2055,-14.3516"/>
<polygon fill="#191970" stroke="#191970" points="280.2314,-11.2218 270.2714,-14.834 280.3101,-18.2214 280.2314,-11.2218"/>
</g>
</g>
</svg>
        <g id="navigator" transform="translate(0 0)" fill="#404254">
                <rect fill="#f2f5e9" fill-opacity="0.5" stroke="#606060" stroke-width=".5" x="0" y="0" width="60" height="60"/>
                <use id="zoomplus" xlink:href="#zoomPlus" x="17" y="9" onmousedown="handleZoom(evt,'in')"/>
                <use id="zoomminus" xlink:href="#zoomMin" x="42" y="9" onmousedown="handleZoom(evt,'out')"/>
                <use id="reset" xlink:href="#resetDef" x="30" y="36" onmousedown="handleReset()"/>
                <g id="arrowUp" xlink:href="#dirArrow" transform="translate(30 24)" onmousedown="handlePan(0,-1)">
                  <use xlink:href="#rim" fill="#404040">
                        <set attributeName="fill" to="#808080" begin="arrowUp.mouseover" end="arrowUp.mouseout"/>
                  </use>
                  <path fill="none" stroke="white" stroke-width="1.5" d="M0,-3.0v7 M-2.5,-0.5L0,-3.0L2.5,-0.5"/>
                </g>
                <g id="arrowRight" xlink:href="#dirArrow" transform="rotate(90) translate(36 -43)" onmousedown="handlePan(1,0)">
                  <use xlink:href="#rim" fill="#404040">
                        <set attributeName="fill" to="#808080" begin="arrowRight.mouseover" end="arrowRight.mouseout"/>
                  </use>
                  <path fill="none" stroke="white" stroke-width="1.5" d="M0,-3.0v7 M-2.5,-0.5L0,-3.0L2.5,-0.5"/>
                </g>
                <g id="arrowDown" xlink:href="#dirArrow" transform="rotate(180) translate(-30 -48)" onmousedown="handlePan(0,1)">
                  <use xlink:href="#rim" fill="#404040">
                        <set attributeName="fill" to="#808080" begin="arrowDown.mouseover" end="arrowDown.mouseout"/>
                  </use>
                  <path fill="none" stroke="white" stroke-width="1.5" d="M0,-3.0v7 M-2.5,-0.5L0,-3.0L2.5,-0.5"/>
                </g>
                <g id="arrowLeft" xlink:href="#dirArrow" transform="rotate(270) translate(-36 17)" onmousedown="handlePan(-1,0)">
                  <use xlink:href="#rim" fill="#404040">
                        <set attributeName="fill" to="#808080" begin="arrowLeft.mouseover" end="arrowLeft.mouseout"/>
                  </use>
                  <path fill="none" stroke="white" stroke-width="1.5" d="M0,-3.0v7 M-2.5,-0.5L0,-3.0L2.5,-0.5"/>
                </g>
        </g>
        <svg viewBox="0 0 15 15" width="100%" height="30px" preserveAspectRatio="xMaxYMin meet">
         <g id="arrow_out" transform="scale(0.3 0.3)">
          <a xlink:href="classneon_1_1SubMesh_acacabb1cefbe206b4c2bf9ddade795ed_icgraph_org.svg" target="_base">
           <rect id="button" ry="5" rx="5" y="6" x="6" height="38" width="38"
                fill="#f2f5e9" fill-opacity="0.5" stroke="#606060" stroke-width="1.0"/>
           <path id="arrow"
             d="M 11.500037,31.436501 C 11.940474,20.09759 22.043105,11.32322 32.158766,21.979434 L 37.068811,17.246167 C 37.068811,17.246167 37.088388,32 37.088388,32 L 22.160133,31.978069 C 22.160133,31.978069 26.997745,27.140456 26.997745,27.140456 C 18.528582,18.264221 13.291696,25.230495 11.500037,31.436501 z"
             style="fill:#404040;"/>
          </a>
         </g>
        </svg>
</svg>
