<?xml version="1.0" encoding="UTF-8" standalone="no"?>
<!DOCTYPE svg PUBLIC "-//W3C//DTD SVG 1.1//EN"
 "http://www.w3.org/Graphics/SVG/1.1/DTD/svg11.dtd">
<!-- Generated by graphviz version 2.40.1 (20161225.0304)
 -->
<!-- Title: neon::solid::femSubmesh::local_deformation_gradient Pages: 1 -->
<svg width="672pt" height="313pt"
 viewBox="0.00 0.00 672.00 313.00" xmlns="http://www.w3.org/2000/svg" xmlns:xlink="http://www.w3.org/1999/xlink">
<g id="graph0" class="graph" transform="scale(1 1) rotate(0) translate(4 309)">
<title>neon::solid::femSubmesh::local_deformation_gradient</title>
<polygon fill="#ffffff" stroke="transparent" points="-4,4 -4,-309 668,-309 668,4 -4,4"/>
<!-- Node96 -->
<g id="node1" class="node">
<title>Node96</title>
<polygon fill="#bfbfbf" stroke="#000000" points="0,-161.5 0,-191.5 139,-191.5 139,-161.5 0,-161.5"/>
<text text-anchor="start" x="8" y="-179.5" font-family="Helvetica,sans-Serif" font-size="10.00" fill="#000000">neon::solid::femSubmesh</text>
<text text-anchor="middle" x="69.5" y="-168.5" font-family="Helvetica,sans-Serif" font-size="10.00" fill="#000000">::local_deformation_gradient</text>
</g>
<!-- Node97 -->
<g id="node2" class="node">
<title>Node97</title>
<g id="a_node2"><a xlink:href="classneon_1_1solid_1_1femSubmesh.html#a146b01147a0c5c030a464088509289dd" target="_top" xlink:title="neon::solid::femSubmesh\l::geometric_tangent_stiffness">
<polygon fill="#ffffff" stroke="#000000" points="180,-137.5 180,-167.5 326,-167.5 326,-137.5 180,-137.5"/>
<text text-anchor="start" x="188" y="-155.5" font-family="Helvetica,sans-Serif" font-size="10.00" fill="#000000">neon::solid::femSubmesh</text>
<text text-anchor="middle" x="253" y="-144.5" font-family="Helvetica,sans-Serif" font-size="10.00" fill="#000000">::geometric_tangent_stiffness</text>
</a>
</g>
</g>
<!-- Node96&#45;&gt;Node97 -->
<g id="edge1" class="edge">
<title>Node96&#45;&gt;Node97</title>
<path fill="none" stroke="#191970" d="M149.201,-166.0759C159.3524,-164.7482 169.704,-163.3943 179.7472,-162.0807"/>
<polygon fill="#191970" stroke="#191970" points="148.5968,-162.625 139.1351,-167.3924 149.5046,-169.5659 148.5968,-162.625"/>
</g>
<!-- Node100 -->
<g id="node5" class="node">
<title>Node100</title>
<g id="a_node5"><a xlink:href="classneon_1_1solid_1_1femSubmesh.html#ab924d16740c35a9af36eb08fab10391b" target="_top" xlink:title="neon::solid::femSubmesh\l::deformation_gradient">
<polygon fill="#ffffff" stroke="#000000" points="369.5,-186.5 369.5,-216.5 497.5,-216.5 497.5,-186.5 369.5,-186.5"/>
<text text-anchor="start" x="377.5" y="-204.5" font-family="Helvetica,sans-Serif" font-size="10.00" fill="#000000">neon::solid::femSubmesh</text>
<text text-anchor="middle" x="433.5" y="-193.5" font-family="Helvetica,sans-Serif" font-size="10.00" fill="#000000">::deformation_gradient</text>
</a>
</g>
</g>
<!-- Node96&#45;&gt;Node100 -->
<g id="edge20" class="edge">
<title>Node96&#45;&gt;Node100</title>
<path fill="none" stroke="#191970" d="M102.7513,-196.5105C122.8846,-207.4419 149.5199,-219.8716 175,-225.5 242.7013,-240.4549 262.1246,-233.4559 331,-225.5 346.977,-223.6545 364.0817,-220.2418 379.6508,-216.5575"/>
<polygon fill="#191970" stroke="#191970" points="104.4245,-193.4362 93.9859,-191.6232 101.0155,-199.55 104.4245,-193.4362"/>
</g>
<!-- Node101 -->
<g id="node6" class="node">
<title>Node101</title>
<g id="a_node6"><a xlink:href="classneon_1_1solid_1_1femSubmesh.html#ac59a58e4a33eea88a87f181c1771621e" target="_top" xlink:title="neon::solid::femSubmesh\l::material_tangent_stiffness">
<polygon fill="#ffffff" stroke="#000000" points="184.5,-186.5 184.5,-216.5 321.5,-216.5 321.5,-186.5 184.5,-186.5"/>
<text text-anchor="start" x="192.5" y="-204.5" font-family="Helvetica,sans-Serif" font-size="10.00" fill="#000000">neon::solid::femSubmesh</text>
<text text-anchor="middle" x="253" y="-193.5" font-family="Helvetica,sans-Serif" font-size="10.00" fill="#000000">::material_tangent_stiffness</text>
</a>
</g>
</g>
<!-- Node96&#45;&gt;Node101 -->
<g id="edge5" class="edge">
<title>Node96&#45;&gt;Node101</title>
<path fill="none" stroke="#191970" d="M149.3027,-187.3723C160.9716,-188.9621 172.9027,-190.5876 184.3237,-192.1436"/>
<polygon fill="#191970" stroke="#191970" points="149.5161,-183.8691 139.1351,-185.9871 148.5711,-190.8051 149.5161,-183.8691"/>
</g>
<!-- Node102 -->
<g id="node7" class="node">
<title>Node102</title>
<g id="a_node7"><a xlink:href="classneon_1_1solid_1_1femSubmesh.html#acb75f263f98c1934224fbb21854b347c" target="_top" xlink:title="neon::solid::femSubmesh\l::internal_nodal_force">
<polygon fill="#ffffff" stroke="#000000" points="189,-88.5 189,-118.5 317,-118.5 317,-88.5 189,-88.5"/>
<text text-anchor="start" x="197" y="-106.5" font-family="Helvetica,sans-Serif" font-size="10.00" fill="#000000">neon::solid::femSubmesh</text>
<text text-anchor="middle" x="253" y="-95.5" font-family="Helvetica,sans-Serif" font-size="10.00" fill="#000000">::internal_nodal_force</text>
</a>
</g>
</g>
<!-- Node96&#45;&gt;Node102 -->
<g id="edge8" class="edge">
<title>Node96&#45;&gt;Node102</title>
<path fill="none" stroke="#191970" d="M108.0361,-157.061C127.7831,-147.4966 152.3774,-136.1875 175,-127.5 183.2004,-124.3509 192.0038,-121.3194 200.6372,-118.5333"/>
<polygon fill="#191970" stroke="#191970" points="106.4922,-153.9198 99.0458,-161.4565 109.5669,-160.2084 106.4922,-153.9198"/>
</g>
<!-- Node104 -->
<g id="node9" class="node">
<title>Node104</title>
<g id="a_node9"><a xlink:href="classneon_1_1solid_1_1femSubmesh.html#ad6e50b01a0301255f81ffb8139ee785a" target="_top" xlink:title="neon::solid::femSubmesh\l::consistent_mass">
<polygon fill="#ffffff" stroke="#000000" points="189,-39.5 189,-69.5 317,-69.5 317,-39.5 189,-39.5"/>
<text text-anchor="start" x="197" y="-57.5" font-family="Helvetica,sans-Serif" font-size="10.00" fill="#000000">neon::solid::femSubmesh</text>
<text text-anchor="middle" x="253" y="-46.5" font-family="Helvetica,sans-Serif" font-size="10.00" fill="#000000">::consistent_mass</text>
</a>
</g>
</g>
<!-- Node96&#45;&gt;Node104 -->
<g id="edge12" class="edge">
<title>Node96&#45;&gt;Node104</title>
<path fill="none" stroke="#191970" d="M88.479,-153.6878C108.0436,-131.5385 140.4842,-98.4245 175,-78.5 180.8898,-75.1 187.3132,-72.1313 193.8629,-69.5516"/>
<polygon fill="#191970" stroke="#191970" points="85.7795,-151.4586 81.8736,-161.3072 91.0686,-156.0439 85.7795,-151.4586"/>
</g>
<!-- Node106 -->
<g id="node11" class="node">
<title>Node106</title>
<g id="a_node11"><a xlink:href="classneon_1_1solid_1_1femSubmesh.html#a8bd85d6bbd7f0e43b8621c95b93bfd50" target="_top" xlink:title="neon::solid::femSubmesh\l::update_deformation_measures">
<polygon fill="#ffffff" stroke="#000000" points="175,-274.5 175,-304.5 331,-304.5 331,-274.5 175,-274.5"/>
<text text-anchor="start" x="183" y="-292.5" font-family="Helvetica,sans-Serif" font-size="10.00" fill="#000000">neon::solid::femSubmesh</text>
<text text-anchor="middle" x="253" y="-281.5" font-family="Helvetica,sans-Serif" font-size="10.00" fill="#000000">::update_deformation_measures</text>
</a>
</g>
</g>
<!-- Node96&#45;&gt;Node106 -->
<g id="edge16" class="edge">
<title>Node96&#45;&gt;Node106</title>
<path fill="none" stroke="#191970" d="M93.1212,-198.4925C113.58,-216.6718 144.5937,-242.216 175,-259.5 184.9645,-265.1642 196.2071,-270.1894 206.9898,-274.4306"/>
<polygon fill="#191970" stroke="#191970" points="95.3303,-195.7717 85.5579,-191.6788 90.6449,-200.9725 95.3303,-195.7717"/>
</g>
<!-- Node98 -->
<g id="node3" class="node">
<title>Node98</title>
<g id="a_node3"><a xlink:href="classneon_1_1solid_1_1femSubmesh.html#abdc355d969d95032d707ab251e4db75d" target="_top" xlink:title="neon::solid::femSubmesh\l::tangent_stiffness">
<polygon fill="#ffffff" stroke="#000000" points="369.5,-137.5 369.5,-167.5 497.5,-167.5 497.5,-137.5 369.5,-137.5"/>
<text text-anchor="start" x="377.5" y="-155.5" font-family="Helvetica,sans-Serif" font-size="10.00" fill="#000000">neon::solid::femSubmesh</text>
<text text-anchor="middle" x="433.5" y="-144.5" font-family="Helvetica,sans-Serif" font-size="10.00" fill="#000000">::tangent_stiffness</text>
</a>
</g>
</g>
<!-- Node97&#45;&gt;Node98 -->
<g id="edge2" class="edge">
<title>Node97&#45;&gt;Node98</title>
<path fill="none" stroke="#191970" d="M336.2661,-152.5C347.3391,-152.5 358.553,-152.5 369.236,-152.5"/>
<polygon fill="#191970" stroke="#191970" points="336.1561,-149.0001 326.1561,-152.5 336.156,-156.0001 336.1561,-149.0001"/>
</g>
<!-- Node97&#45;&gt;Node100 -->
<g id="edge4" class="edge">
<title>Node97&#45;&gt;Node100</title>
<path fill="none" stroke="#191970" d="M318.3796,-170.2485C337.9422,-175.5591 359.1958,-181.3288 378.0549,-186.4484"/>
<polygon fill="#191970" stroke="#191970" points="319.1965,-166.8436 308.6288,-167.6014 317.3625,-173.5991 319.1965,-166.8436"/>
</g>
<!-- Node99 -->
<g id="node4" class="node">
<title>Node99</title>
<g id="a_node4"><a xlink:href="classneon_1_1solid_1_1femSubmesh.html#a6e725b9d73d74ff4f5971f2f7f74225c" target="_top" xlink:title="neon::solid::femSubmesh\l::internal_variables">
<polygon fill="#ffffff" stroke="#000000" points="536,-88.5 536,-118.5 664,-118.5 664,-88.5 536,-88.5"/>
<text text-anchor="start" x="544" y="-106.5" font-family="Helvetica,sans-Serif" font-size="10.00" fill="#000000">neon::solid::femSubmesh</text>
<text text-anchor="middle" x="600" y="-95.5" font-family="Helvetica,sans-Serif" font-size="10.00" fill="#000000">::internal_variables</text>
</a>
</g>
</g>
<!-- Node98&#45;&gt;Node99 -->
<g id="edge3" class="edge">
<title>Node98&#45;&gt;Node99</title>
<path fill="none" stroke="#191970" d="M494.551,-134.533C512.3906,-129.283 531.6973,-123.6011 548.8554,-118.5516"/>
<polygon fill="#191970" stroke="#191970" points="493.4191,-131.2176 484.8141,-137.3986 495.3954,-137.9329 493.4191,-131.2176"/>
</g>
<!-- Node101&#45;&gt;Node98 -->
<g id="edge6" class="edge">
<title>Node101&#45;&gt;Node98</title>
<path fill="none" stroke="#191970" d="M318.3796,-183.7515C337.9422,-178.4409 359.1958,-172.6712 378.0549,-167.5516"/>
<polygon fill="#191970" stroke="#191970" points="317.3625,-180.4009 308.6288,-186.3986 319.1965,-187.1564 317.3625,-180.4009"/>
</g>
<!-- Node101&#45;&gt;Node100 -->
<g id="edge7" class="edge">
<title>Node101&#45;&gt;Node100</title>
<path fill="none" stroke="#191970" d="M331.7554,-201.5C344.3306,-201.5 357.2086,-201.5 369.391,-201.5"/>
<polygon fill="#191970" stroke="#191970" points="331.7543,-198.0001 321.7542,-201.5 331.7542,-205.0001 331.7543,-198.0001"/>
</g>
<!-- Node102&#45;&gt;Node100 -->
<g id="edge11" class="edge">
<title>Node102&#45;&gt;Node100</title>
<path fill="none" stroke="#191970" d="M324.3669,-123.2488C326.6585,-124.5767 328.8779,-125.9919 331,-127.5 353.0279,-143.1539 345.4605,-160.1806 367,-176.5 372.0138,-180.2987 377.6692,-183.5761 383.5115,-186.3891"/>
<polygon fill="#191970" stroke="#191970" points="325.7157,-120.0068 315.2218,-118.5477 322.5154,-126.2324 325.7157,-120.0068"/>
</g>
<!-- Node103 -->
<g id="node8" class="node">
<title>Node103</title>
<g id="a_node8"><a xlink:href="classneon_1_1solid_1_1femSubmesh.html#ad0c267e8fd87a1126c216b21ccfd7b55" target="_top" xlink:title="neon::solid::femSubmesh\l::internal_force">
<polygon fill="#ffffff" stroke="#000000" points="369.5,-88.5 369.5,-118.5 497.5,-118.5 497.5,-88.5 369.5,-88.5"/>
<text text-anchor="start" x="377.5" y="-106.5" font-family="Helvetica,sans-Serif" font-size="10.00" fill="#000000">neon::solid::femSubmesh</text>
<text text-anchor="middle" x="433.5" y="-95.5" font-family="Helvetica,sans-Serif" font-size="10.00" fill="#000000">::internal_force</text>
</a>
</g>
</g>
<!-- Node102&#45;&gt;Node103 -->
<g id="edge9" class="edge">
<title>Node102&#45;&gt;Node103</title>
<path fill="none" stroke="#191970" d="M327.1945,-103.5C341.1505,-103.5 355.6357,-103.5 369.2569,-103.5"/>
<polygon fill="#191970" stroke="#191970" points="327.1458,-100.0001 317.1458,-103.5 327.1457,-107.0001 327.1458,-100.0001"/>
</g>
<!-- Node103&#45;&gt;Node99 -->
<g id="edge10" class="edge">
<title>Node103&#45;&gt;Node99</title>
<path fill="none" stroke="#191970" d="M507.894,-103.5C517.2035,-103.5 526.6624,-103.5 535.7979,-103.5"/>
<polygon fill="#191970" stroke="#191970" points="507.8733,-100.0001 497.8732,-103.5 507.8732,-107.0001 507.8733,-100.0001"/>
</g>
<!-- Node104&#45;&gt;Node99 -->
<g id="edge15" class="edge">
<title>Node104&#45;&gt;Node99</title>
<path fill="none" stroke="#191970" d="M327.3061,-58.8382C376.5429,-62.419 442.4276,-68.5628 500,-78.5 515.0776,-81.1025 531.2384,-84.7552 546.077,-88.4664"/>
<polygon fill="#191970" stroke="#191970" points="327.2835,-55.3279 317.0612,-58.1125 326.7889,-62.3104 327.2835,-55.3279"/>
</g>
<!-- Node105 -->
<g id="node10" class="node">
<title>Node105</title>
<g id="a_node10"><a xlink:href="classneon_1_1solid_1_1femSubmesh.html#a118bc792978bf5ac5e24d3949f53244e" target="_top" xlink:title="neon::solid::femSubmesh\l::diagonal_mass">
<polygon fill="#ffffff" stroke="#000000" points="369.5,-.5 369.5,-30.5 497.5,-30.5 497.5,-.5 369.5,-.5"/>
<text text-anchor="start" x="377.5" y="-18.5" font-family="Helvetica,sans-Serif" font-size="10.00" fill="#000000">neon::solid::femSubmesh</text>
<text text-anchor="middle" x="433.5" y="-7.5" font-family="Helvetica,sans-Serif" font-size="10.00" fill="#000000">::diagonal_mass</text>
</a>
</g>
</g>
<!-- Node104&#45;&gt;Node105 -->
<g id="edge13" class="edge">
<title>Node104&#45;&gt;Node105</title>
<path fill="none" stroke="#191970" d="M327.1945,-38.4691C341.1505,-35.4536 355.6357,-32.3239 369.2569,-29.3808"/>
<polygon fill="#191970" stroke="#191970" points="326.181,-35.1072 317.1458,-40.6402 327.6594,-41.9493 326.181,-35.1072"/>
</g>
<!-- Node105&#45;&gt;Node99 -->
<g id="edge14" class="edge">
<title>Node105&#45;&gt;Node99</title>
<path fill="none" stroke="#191970" d="M477.9488,-34.7945C485.3737,-38.2332 492.9504,-41.8774 500,-45.5 526.4193,-59.0763 555.7142,-76.3403 575.7296,-88.4904"/>
<polygon fill="#191970" stroke="#191970" points="479.227,-31.5307 468.6762,-30.5658 476.3225,-37.8997 479.227,-31.5307"/>
</g>
<!-- Node106&#45;&gt;Node100 -->
<g id="edge19" class="edge">
<title>Node106&#45;&gt;Node100</title>
<path fill="none" stroke="#191970" d="M304.9942,-270.7359C313.7687,-267.2192 322.7137,-263.4117 331,-259.5 358.5499,-246.4946 388.7529,-228.9802 409.1879,-216.6113"/>
<polygon fill="#191970" stroke="#191970" points="303.6105,-267.5189 295.5791,-274.4288 306.1667,-274.0355 303.6105,-267.5189"/>
</g>
<!-- Node107 -->
<g id="node12" class="node">
<title>Node107</title>
<g id="a_node12"><a xlink:href="classneon_1_1solid_1_1femSubmesh.html#ab21112c060fb89a7fb065c4004e2ab46" target="_top" xlink:title="neon::solid::femSubmesh\l::update_internal_variables">
<polygon fill="#ffffff" stroke="#000000" points="367,-254.5 367,-284.5 500,-284.5 500,-254.5 367,-254.5"/>
<text text-anchor="start" x="375" y="-272.5" font-family="Helvetica,sans-Serif" font-size="10.00" fill="#000000">neon::solid::femSubmesh</text>
<text text-anchor="middle" x="433.5" y="-261.5" font-family="Helvetica,sans-Serif" font-size="10.00" fill="#000000">::update_internal_variables</text>
</a>
</g>
</g>
<!-- Node106&#45;&gt;Node107 -->
<g id="edge17" class="edge">
<title>Node106&#45;&gt;Node107</title>
<path fill="none" stroke="#191970" d="M341.2182,-279.7251C349.846,-278.7691 358.4986,-277.8104 366.8603,-276.8839"/>
<polygon fill="#191970" stroke="#191970" points="340.6738,-276.2639 331.1201,-280.844 341.4448,-283.2214 340.6738,-276.2639"/>
</g>
<!-- Node107&#45;&gt;Node99 -->
<g id="edge18" class="edge">
<title>Node107&#45;&gt;Node99</title>
<path fill="none" stroke="#191970" d="M468.7039,-249.013C479.2533,-242.1504 490.5272,-234.0519 500,-225.5 537.6071,-191.5491 573.0834,-142.9555 589.8689,-118.6128"/>
<polygon fill="#191970" stroke="#191970" points="466.6523,-246.1691 460.0682,-254.4698 470.3916,-252.0867 466.6523,-246.1691"/>
</g>
</g>
</svg>
