<?xml version="1.0" encoding="UTF-8" standalone="no"?>
<!DOCTYPE svg PUBLIC "-//W3C//DTD SVG 1.1//EN"
 "http://www.w3.org/Graphics/SVG/1.1/DTD/svg11.dtd">
<!-- Generated by graphviz version 2.40.1 (20161225.0304)
 -->
<!-- Title: neon::solid::femStaticMatrix::apply_displacement_boundaries Pages: 1 -->
<!--zoomable 552 -->
<svg id="main" version="1.1" xmlns="http://www.w3.org/2000/svg" xmlns:xlink="http://www.w3.org/1999/xlink" xml:space="preserve" onload="init(evt)">
<style type="text/css"><![CDATA[
.edge:hover path { stroke: red; }
.edge:hover polygon { stroke: red; fill: red; }
]]></style>
<script type="text/javascript"><![CDATA[
var edges = document.getElementsByTagName('g');
if (edges && edges.length) {
  for (var i=0;i<edges.length;i++) {
    if (edges[i].id.substr(0,4)=='edge') {
      edges[i].setAttribute('class','edge');
    }
  }
}
]]></script>
        <defs>
                <circle id="rim" cx="0" cy="0" r="7"/>
                <circle id="rim2" cx="0" cy="0" r="3.5"/>
                <g id="zoomPlus">
                        <use xlink:href="#rim" fill="#404040">
                                <set attributeName="fill" to="#808080" begin="zoomplus.mouseover" end="zoomplus.mouseout"/>
                        </use>
                        <path d="M-4,0h8M0,-4v8" fill="none" stroke="white" stroke-width="1.5" pointer-events="none"/>
                </g>
                <g id="zoomMin">
                        <use xlink:href="#rim" fill="#404040">
                                <set attributeName="fill" to="#808080" begin="zoomminus.mouseover" end="zoomminus.mouseout"/>
                        </use>
                        <path d="M-4,0h8" fill="none" stroke="white" stroke-width="1.5" pointer-events="none"/>
                </g>
                <g id="dirArrow">
                        <path fill="none" stroke="white" stroke-width="1.5" d="M0,-3.0v7 M-2.5,-0.5L0,-3.0L2.5,-0.5"/>
                </g>
               <g id="resetDef">
                       <use xlink:href="#rim2" fill="#404040">
                               <set attributeName="fill" to="#808080" begin="reset.mouseover" end="reset.mouseout"/>
                       </use>
               </g>
        </defs>

<script type="text/javascript">
var viewWidth = 695;
var viewHeight = 552;
var sectionId = 'dynsection-2';
</script>
<script xlink:href="svgpan.js"/>
<svg id="graph" class="graph">
<g id="viewport">
<title>neon::solid::femStaticMatrix::apply_displacement_boundaries</title>
<polygon fill="#ffffff" stroke="transparent" points="-4,4 -4,-548 691,-548 691,4 -4,4"/>
<!-- Node0 -->
<g id="node1" class="node">
<title>Node0</title>
<polygon fill="#bfbfbf" stroke="#000000" points="0,-259.5 0,-289.5 161,-289.5 161,-259.5 0,-259.5"/>
<text text-anchor="start" x="8" y="-277.5" font-family="Helvetica,sans-Serif" font-size="10.00" fill="#000000">neon::solid::femStaticMatrix</text>
<text text-anchor="middle" x="80.5" y="-266.5" font-family="Helvetica,sans-Serif" font-size="10.00" fill="#000000">::apply_displacement_boundaries</text>
</g>
<!-- Node1 -->
<g id="node2" class="node">
<title>Node1</title>
<g id="a_node2"><a xlink:href="classneon_1_1AdaptiveLoadStep.html#a1ba6cc17eb26efcfe694f06578c5ba14" target="_top" xlink:title="neon::AdaptiveLoadStep\l::factor">
<polygon fill="#ffffff" stroke="#000000" points="208,-497.5 208,-527.5 331,-527.5 331,-497.5 208,-497.5"/>
<text text-anchor="start" x="216" y="-515.5" font-family="Helvetica,sans-Serif" font-size="10.00" fill="#000000">neon::AdaptiveLoadStep</text>
<text text-anchor="middle" x="269.5" y="-504.5" font-family="Helvetica,sans-Serif" font-size="10.00" fill="#000000">::factor</text>
</a>
</g>
</g>
<!-- Node0&#45;&gt;Node1 -->
<g id="edge1" class="edge">
<title>Node0&#45;&gt;Node1</title>
<path fill="none" stroke="#191970" d="M84.5237,-289.6908C95.6094,-328.6136 130.2879,-432.7667 197,-488.5 198.5262,-489.7751 200.1225,-490.9831 201.7755,-492.1276"/>
<polygon fill="#191970" stroke="#191970" points="200.0745,-495.1888 210.4494,-497.3367 203.6784,-489.1877 200.0745,-495.1888"/>
</g>
<!-- Node2 -->
<g id="node3" class="node">
<title>Node2</title>
<g id="a_node3"><a xlink:href="classneon_1_1solid_1_1femStaticMatrix.html#a38f9c7ef5b0a03920dd67cc054a83042" target="_top" xlink:title="neon::solid::femStaticMatrix\l::assemble_stiffness">
<polygon fill="#ffffff" stroke="#000000" points="200,-448.5 200,-478.5 339,-478.5 339,-448.5 200,-448.5"/>
<text text-anchor="start" x="208" y="-466.5" font-family="Helvetica,sans-Serif" font-size="10.00" fill="#000000">neon::solid::femStaticMatrix</text>
<text text-anchor="middle" x="269.5" y="-455.5" font-family="Helvetica,sans-Serif" font-size="10.00" fill="#000000">::assemble_stiffness</text>
</a>
</g>
</g>
<!-- Node0&#45;&gt;Node2 -->
<g id="edge2" class="edge">
<title>Node0&#45;&gt;Node2</title>
<path fill="none" stroke="#191970" d="M88.0035,-289.7843C103.9766,-320.8867 144.2357,-392.091 197,-433.5 201.9929,-437.4184 207.5701,-440.9043 213.3533,-443.9852"/>
<polygon fill="#191970" stroke="#191970" points="212.0369,-447.2378 222.5566,-448.4974 215.1184,-440.9525 212.0369,-447.2378"/>
</g>
<!-- Node7 -->
<g id="node8" class="node">
<title>Node7</title>
<g id="a_node8"><a xlink:href="classneon_1_1solid_1_1femMesh.html#ac97399e3e5c8ef3e610e14624f83178b" target="_top" xlink:title="neon::solid::femMesh\l::update_internal_variables">
<polygon fill="#ffffff" stroke="#000000" points="554,-366.5 554,-396.5 687,-396.5 687,-366.5 554,-366.5"/>
<text text-anchor="start" x="562" y="-384.5" font-family="Helvetica,sans-Serif" font-size="10.00" fill="#000000">neon::solid::femMesh</text>
<text text-anchor="middle" x="620.5" y="-373.5" font-family="Helvetica,sans-Serif" font-size="10.00" fill="#000000">::update_internal_variables</text>
</a>
</g>
</g>
<!-- Node0&#45;&gt;Node7 -->
<g id="edge12" class="edge">
<title>Node0&#45;&gt;Node7</title>
<path fill="none" stroke="#191970" d="M98.884,-289.7467C120.7426,-306.9054 159.0581,-334.0101 197,-346.5 313.4454,-384.8321 457.1563,-388.1479 543.6737,-385.7552"/>
<polygon fill="#191970" stroke="#191970" points="543.7892,-389.2534 553.6762,-385.4459 543.5728,-382.2567 543.7892,-389.2534"/>
</g>
<!-- Node8 -->
<g id="node9" class="node">
<title>Node8</title>
<g id="a_node9"><a xlink:href="classneon_1_1AdaptiveLoadStep.html#a18f8a4e6d7e7a0b8c2e167377507e8b1" target="_top" xlink:title="neon::AdaptiveLoadStep\l::increment">
<polygon fill="#ffffff" stroke="#000000" points="559,-317.5 559,-347.5 682,-347.5 682,-317.5 559,-317.5"/>
<text text-anchor="start" x="567" y="-335.5" font-family="Helvetica,sans-Serif" font-size="10.00" fill="#000000">neon::AdaptiveLoadStep</text>
<text text-anchor="middle" x="620.5" y="-324.5" font-family="Helvetica,sans-Serif" font-size="10.00" fill="#000000">::increment</text>
</a>
</g>
</g>
<!-- Node0&#45;&gt;Node8 -->
<g id="edge13" class="edge">
<title>Node0&#45;&gt;Node8</title>
<path fill="none" stroke="#191970" d="M107.2801,-289.5426C130.2756,-301.5771 164.7255,-317.5484 197,-324.5 318.4092,-350.6503 463.9419,-345.7793 548.9306,-339.4359"/>
<polygon fill="#191970" stroke="#191970" points="549.2893,-342.9187 558.9892,-338.657 548.7488,-335.9396 549.2893,-342.9187"/>
</g>
<!-- Node9 -->
<g id="node10" class="node">
<title>Node9</title>
<g id="a_node10"><a xlink:href="classneon_1_1solid_1_1femStaticMatrix.html#a7231eee3e12f6ce6290c328bb1f2ef1c" target="_top" xlink:title="neon::solid::femStaticMatrix\l::enforce_dirichlet_conditions">
<polygon fill="#ffffff" stroke="#000000" points="198,-284.5 198,-314.5 341,-314.5 341,-284.5 198,-284.5"/>
<text text-anchor="start" x="206" y="-302.5" font-family="Helvetica,sans-Serif" font-size="10.00" fill="#000000">neon::solid::femStaticMatrix</text>
<text text-anchor="middle" x="269.5" y="-291.5" font-family="Helvetica,sans-Serif" font-size="10.00" fill="#000000">::enforce_dirichlet_conditions</text>
</a>
</g>
</g>
<!-- Node0&#45;&gt;Node9 -->
<g id="edge11" class="edge">
<title>Node0&#45;&gt;Node9</title>
<path fill="none" stroke="#191970" d="M161.2012,-285.1748C169.9269,-286.329 178.813,-287.5044 187.5533,-288.6605"/>
<polygon fill="#191970" stroke="#191970" points="187.3556,-292.1647 197.7282,-290.0064 188.2736,-285.2252 187.3556,-292.1647"/>
</g>
<!-- Node10 -->
<g id="node11" class="node">
<title>Node10</title>
<g id="a_node11"><a xlink:href="classneon_1_1solid_1_1femStaticMatrix.html#a69e60955282781d6ca2b73087677412a" target="_top" xlink:title="neon::solid::femStaticMatrix\l::print_convergence_progress">
<polygon fill="#ffffff" stroke="#000000" points="197,-235.5 197,-265.5 342,-265.5 342,-235.5 197,-235.5"/>
<text text-anchor="start" x="205" y="-253.5" font-family="Helvetica,sans-Serif" font-size="10.00" fill="#000000">neon::solid::femStaticMatrix</text>
<text text-anchor="middle" x="269.5" y="-242.5" font-family="Helvetica,sans-Serif" font-size="10.00" fill="#000000">::print_convergence_progress</text>
</a>
</g>
</g>
<!-- Node0&#45;&gt;Node10 -->
<g id="edge14" class="edge">
<title>Node0&#45;&gt;Node10</title>
<path fill="none" stroke="#191970" d="M161.2012,-264.2522C169.7106,-263.1717 178.3725,-262.0717 186.9029,-260.9885"/>
<polygon fill="#191970" stroke="#191970" points="187.3601,-264.4587 196.8395,-259.7267 186.4782,-257.5144 187.3601,-264.4587"/>
</g>
<!-- Node11 -->
<g id="node12" class="node">
<title>Node11</title>
<g id="a_node12"><a xlink:href="classneon_1_1solid_1_1femStaticMatrix.html#af8bb14009b18e37b3029b865d1b3c18a" target="_top" xlink:title="neon::solid::femStaticMatrix\l::is_converged">
<polygon fill="#ffffff" stroke="#000000" points="200,-186.5 200,-216.5 339,-216.5 339,-186.5 200,-186.5"/>
<text text-anchor="start" x="208" y="-204.5" font-family="Helvetica,sans-Serif" font-size="10.00" fill="#000000">neon::solid::femStaticMatrix</text>
<text text-anchor="middle" x="269.5" y="-193.5" font-family="Helvetica,sans-Serif" font-size="10.00" fill="#000000">::is_converged</text>
</a>
</g>
</g>
<!-- Node0&#45;&gt;Node11 -->
<g id="edge15" class="edge">
<title>Node0&#45;&gt;Node11</title>
<path fill="none" stroke="#191970" d="M115.4629,-259.4658C138.4896,-249.7203 169.3766,-236.943 197,-226.5 202.8027,-224.3063 208.8948,-222.083 214.9788,-219.9134"/>
<polygon fill="#191970" stroke="#191970" points="216.2224,-223.1862 224.4898,-216.5605 213.895,-216.5845 216.2224,-223.1862"/>
</g>
<!-- Node12 -->
<g id="node13" class="node">
<title>Node12</title>
<g id="a_node13"><a xlink:href="classneon_1_1AdaptiveLoadStep.html#a975b2ea0339a250a6c37f871b8609ea1" target="_top" xlink:title="neon::AdaptiveLoadStep\l::update_convergence_state">
<polygon fill="#ffffff" stroke="#000000" points="378,-120.5 378,-150.5 518,-150.5 518,-120.5 378,-120.5"/>
<text text-anchor="start" x="386" y="-138.5" font-family="Helvetica,sans-Serif" font-size="10.00" fill="#000000">neon::AdaptiveLoadStep</text>
<text text-anchor="middle" x="448" y="-127.5" font-family="Helvetica,sans-Serif" font-size="10.00" fill="#000000">::update_convergence_state</text>
</a>
</g>
</g>
<!-- Node0&#45;&gt;Node12 -->
<g id="edge16" class="edge">
<title>Node0&#45;&gt;Node12</title>
<path fill="none" stroke="#191970" d="M93.8214,-259.1511C113.8373,-237.1825 153.9401,-197.2511 197,-177.5 250.6322,-152.8995 316.6159,-142.5359 367.4683,-138.25"/>
<polygon fill="#191970" stroke="#191970" points="368.0564,-141.7148 377.7541,-137.448 367.5122,-134.736 368.0564,-141.7148"/>
</g>
<!-- Node13 -->
<g id="node14" class="node">
<title>Node13</title>
<g id="a_node14"><a xlink:href="classneon_1_1solid_1_1femMesh.html#aed7f6ae168a234d05e018cd69066cf6c" target="_top" xlink:title="neon::solid::femMesh\l::save_internal_variables">
<polygon fill="#ffffff" stroke="#000000" points="207,-49.5 207,-79.5 332,-79.5 332,-49.5 207,-49.5"/>
<text text-anchor="start" x="215" y="-67.5" font-family="Helvetica,sans-Serif" font-size="10.00" fill="#000000">neon::solid::femMesh</text>
<text text-anchor="middle" x="269.5" y="-56.5" font-family="Helvetica,sans-Serif" font-size="10.00" fill="#000000">::save_internal_variables</text>
</a>
</g>
</g>
<!-- Node0&#45;&gt;Node13 -->
<g id="edge17" class="edge">
<title>Node0&#45;&gt;Node13</title>
<path fill="none" stroke="#191970" d="M85.8802,-259.2448C99.1081,-223.9183 136.6042,-135.9037 197,-88.5 198.7796,-87.1033 200.644,-85.7861 202.574,-84.5441"/>
<polygon fill="#191970" stroke="#191970" points="204.4073,-87.5284 211.3971,-79.5663 200.9677,-81.4317 204.4073,-87.5284"/>
</g>
<!-- Node15 -->
<g id="node16" class="node">
<title>Node15</title>
<g id="a_node16"><a xlink:href="classneon_1_1AdaptiveLoadStep.html#a1ccc0de1f228c0b0a495ac5e6a1419d4" target="_top" xlink:title="neon::AdaptiveLoadStep\l::step">
<polygon fill="#ffffff" stroke="#000000" points="208,-98.5 208,-128.5 331,-128.5 331,-98.5 208,-98.5"/>
<text text-anchor="start" x="216" y="-116.5" font-family="Helvetica,sans-Serif" font-size="10.00" fill="#000000">neon::AdaptiveLoadStep</text>
<text text-anchor="middle" x="269.5" y="-105.5" font-family="Helvetica,sans-Serif" font-size="10.00" fill="#000000">::step</text>
</a>
</g>
</g>
<!-- Node0&#45;&gt;Node15 -->
<g id="edge19" class="edge">
<title>Node0&#45;&gt;Node15</title>
<path fill="none" stroke="#191970" d="M90.6294,-259.1277C108.9622,-232.3517 150.1206,-176.8354 197,-143.5 202.5194,-139.5752 208.6296,-136.0433 214.8928,-132.8998"/>
<polygon fill="#191970" stroke="#191970" points="216.5583,-135.9846 224.1278,-128.5715 213.5876,-129.6462 216.5583,-135.9846"/>
</g>
<!-- Node16 -->
<g id="node17" class="node">
<title>Node16</title>
<g id="a_node17"><a xlink:href="classneon_1_1AdaptiveLoadStep.html#aa115e1c638d4c8b66e2201b4f6bed58d" target="_top" xlink:title="neon::AdaptiveLoadStep\l::time">
<polygon fill="#ffffff" stroke="#000000" points="208,-.5 208,-30.5 331,-30.5 331,-.5 208,-.5"/>
<text text-anchor="start" x="216" y="-18.5" font-family="Helvetica,sans-Serif" font-size="10.00" fill="#000000">neon::AdaptiveLoadStep</text>
<text text-anchor="middle" x="269.5" y="-7.5" font-family="Helvetica,sans-Serif" font-size="10.00" fill="#000000">::time</text>
</a>
</g>
</g>
<!-- Node0&#45;&gt;Node16 -->
<g id="edge21" class="edge">
<title>Node0&#45;&gt;Node16</title>
<path fill="none" stroke="#191970" d="M83.7089,-259.3633C93.2746,-217.9266 125.4875,-101.6064 197,-39.5 198.342,-38.3345 199.7423,-37.2252 201.1911,-36.1696"/>
<polygon fill="#191970" stroke="#191970" points="203.3288,-38.9607 209.9506,-30.6901 199.6165,-33.0262 203.3288,-38.9607"/>
</g>
<!-- Node3 -->
<g id="node4" class="node">
<title>Node3</title>
<g id="a_node4"><a xlink:href="classneon_1_1solid_1_1femStaticMatrix.html#a1b4ec4af5d4aa93d28a374c0f4f7e5d3" target="_top" xlink:title="neon::solid::femStaticMatrix\l::compute_sparsity_pattern">
<polygon fill="#ffffff" stroke="#000000" points="378.5,-415.5 378.5,-445.5 517.5,-445.5 517.5,-415.5 378.5,-415.5"/>
<text text-anchor="start" x="386.5" y="-433.5" font-family="Helvetica,sans-Serif" font-size="10.00" fill="#000000">neon::solid::femStaticMatrix</text>
<text text-anchor="middle" x="448" y="-422.5" font-family="Helvetica,sans-Serif" font-size="10.00" fill="#000000">::compute_sparsity_pattern</text>
</a>
</g>
</g>
<!-- Node2&#45;&gt;Node3 -->
<g id="edge3" class="edge">
<title>Node2&#45;&gt;Node3</title>
<path fill="none" stroke="#191970" d="M339.0239,-450.6468C348.6141,-448.8739 358.5241,-447.0418 368.2805,-445.2381"/>
<polygon fill="#191970" stroke="#191970" points="369.1752,-448.6321 378.3722,-443.3724 367.9025,-441.7487 369.1752,-448.6321"/>
</g>
<!-- Node4 -->
<g id="node5" class="node">
<title>Node4</title>
<g id="a_node5"><a xlink:href="classneon_1_1solid_1_1femMesh.html#acb70b613e02175d0676d0a77046a079a" target="_top" xlink:title="neon::solid::femMesh\l::meshes">
<polygon fill="#ffffff" stroke="#000000" points="565.5,-513.5 565.5,-543.5 675.5,-543.5 675.5,-513.5 565.5,-513.5"/>
<text text-anchor="start" x="573.5" y="-531.5" font-family="Helvetica,sans-Serif" font-size="10.00" fill="#000000">neon::solid::femMesh</text>
<text text-anchor="middle" x="620.5" y="-520.5" font-family="Helvetica,sans-Serif" font-size="10.00" fill="#000000">::meshes</text>
</a>
</g>
</g>
<!-- Node2&#45;&gt;Node4 -->
<g id="edge10" class="edge">
<title>Node2&#45;&gt;Node4</title>
<path fill="none" stroke="#191970" d="M339.266,-476.4196C402.1412,-488.0632 493.883,-505.0524 555.3068,-516.4272"/>
<polygon fill="#191970" stroke="#191970" points="554.803,-519.8933 565.2731,-518.2728 556.0777,-513.0103 554.803,-519.8933"/>
</g>
<!-- Node3&#45;&gt;Node0 -->
<g id="edge7" class="edge">
<title>Node3&#45;&gt;Node0</title>
<path fill="none" stroke="#191970" d="M378.3208,-432.7874C325.8079,-431.7525 253.4456,-424.2752 197,-395.5 152.6929,-372.9129 115.7164,-326.7202 95.9669,-298.3975"/>
<polygon fill="#191970" stroke="#191970" points="98.692,-296.1807 90.1726,-289.8822 92.9048,-300.1188 98.692,-296.1807"/>
</g>
<!-- Node3&#45;&gt;Node4 -->
<g id="edge4" class="edge">
<title>Node3&#45;&gt;Node4</title>
<path fill="none" stroke="#191970" d="M466.5669,-445.7432C487.0063,-461.963 521.3165,-487.5715 554,-504.5 557.3003,-506.2094 560.7503,-507.8502 564.2684,-509.4147"/>
<polygon fill="#191970" stroke="#191970" points="563.109,-512.724 573.6839,-513.3726 565.8216,-506.2709 563.109,-512.724"/>
</g>
<!-- Node5 -->
<g id="node6" class="node">
<title>Node5</title>
<g id="a_node6"><a xlink:href="classneon_1_1AdaptiveLoadStep.html#a0787efff1178880877eccf47c1db2fbf" target="_top" xlink:title="neon::AdaptiveLoadStep\l::is_fully_applied">
<polygon fill="#ffffff" stroke="#000000" points="559,-415.5 559,-445.5 682,-445.5 682,-415.5 559,-415.5"/>
<text text-anchor="start" x="567" y="-433.5" font-family="Helvetica,sans-Serif" font-size="10.00" fill="#000000">neon::AdaptiveLoadStep</text>
<text text-anchor="middle" x="620.5" y="-422.5" font-family="Helvetica,sans-Serif" font-size="10.00" fill="#000000">::is_fully_applied</text>
</a>
</g>
</g>
<!-- Node3&#45;&gt;Node5 -->
<g id="edge5" class="edge">
<title>Node3&#45;&gt;Node5</title>
<path fill="none" stroke="#191970" d="M517.6651,-430.5C527.904,-430.5 538.467,-430.5 548.7471,-430.5"/>
<polygon fill="#191970" stroke="#191970" points="548.9104,-434.0001 558.9104,-430.5 548.9104,-427.0001 548.9104,-434.0001"/>
</g>
<!-- Node6 -->
<g id="node7" class="node">
<title>Node6</title>
<g id="a_node7"><a xlink:href="classneon_1_1AdaptiveLoadStep.html#a2a366b816adaf44b33d2fc69eea50921" target="_top" xlink:title="neon::AdaptiveLoadStep\l::step_time">
<polygon fill="#ffffff" stroke="#000000" points="559,-464.5 559,-494.5 682,-494.5 682,-464.5 559,-464.5"/>
<text text-anchor="start" x="567" y="-482.5" font-family="Helvetica,sans-Serif" font-size="10.00" fill="#000000">neon::AdaptiveLoadStep</text>
<text text-anchor="middle" x="620.5" y="-471.5" font-family="Helvetica,sans-Serif" font-size="10.00" fill="#000000">::step_time</text>
</a>
</g>
</g>
<!-- Node3&#45;&gt;Node6 -->
<g id="edge6" class="edge">
<title>Node3&#45;&gt;Node6</title>
<path fill="none" stroke="#191970" d="M501.1632,-445.6014C519.0366,-450.6785 539.1442,-456.3902 557.6878,-461.6577"/>
<polygon fill="#191970" stroke="#191970" points="556.9365,-465.0827 567.5123,-464.4484 558.8493,-458.3491 556.9365,-465.0827"/>
</g>
<!-- Node3&#45;&gt;Node7 -->
<g id="edge8" class="edge">
<title>Node3&#45;&gt;Node7</title>
<path fill="none" stroke="#191970" d="M501.1632,-415.3986C519.0366,-410.3215 539.1442,-404.6098 557.6878,-399.3423"/>
<polygon fill="#191970" stroke="#191970" points="558.8493,-402.6509 567.5123,-396.5516 556.9365,-395.9173 558.8493,-402.6509"/>
</g>
<!-- Node3&#45;&gt;Node8 -->
<g id="edge9" class="edge">
<title>Node3&#45;&gt;Node8</title>
<path fill="none" stroke="#191970" d="M467.0219,-415.2736C487.5706,-399.3464 521.7167,-374.3621 554,-357.5 557.9818,-355.4202 562.1767,-353.4262 566.4435,-351.5356"/>
<polygon fill="#191970" stroke="#191970" points="567.9914,-354.6814 575.844,-347.5689 565.2699,-348.232 567.9914,-354.6814"/>
</g>
<!-- Node14 -->
<g id="node15" class="node">
<title>Node14</title>
<g id="a_node15"><a xlink:href="classneon_1_1BasicMesh.html#ac74b60b73623ef5178fa2dd6dbfa4d79" target="_top" xlink:title="neon::BasicMesh::meshes">
<polygon fill="#ffffff" stroke="#000000" points="381.5,-55 381.5,-74 514.5,-74 514.5,-55 381.5,-55"/>
<text text-anchor="middle" x="448" y="-62" font-family="Helvetica,sans-Serif" font-size="10.00" fill="#000000">neon::BasicMesh::meshes</text>
</a>
</g>
</g>
<!-- Node13&#45;&gt;Node14 -->
<g id="edge18" class="edge">
<title>Node13&#45;&gt;Node14</title>
<path fill="none" stroke="#191970" d="M332.1814,-64.5C344.7054,-64.5 357.9973,-64.5 370.9406,-64.5"/>
<polygon fill="#191970" stroke="#191970" points="371.2248,-68.0001 381.2248,-64.5 371.2248,-61.0001 371.2248,-68.0001"/>
</g>
<!-- Node15&#45;&gt;Node12 -->
<g id="edge20" class="edge">
<title>Node15&#45;&gt;Node12</title>
<path fill="none" stroke="#191970" d="M331.1795,-121.102C342.9099,-122.5477 355.3448,-124.0803 367.5576,-125.5855"/>
<polygon fill="#191970" stroke="#191970" points="367.3908,-129.0914 377.7438,-126.841 368.2471,-122.1439 367.3908,-129.0914"/>
</g>
</g>
</svg>
        <g id="navigator" transform="translate(0 0)" fill="#404254">
                <rect fill="#f2f5e9" fill-opacity="0.5" stroke="#606060" stroke-width=".5" x="0" y="0" width="60" height="60"/>
                <use id="zoomplus" xlink:href="#zoomPlus" x="17" y="9" onmousedown="handleZoom(evt,'in')"/>
                <use id="zoomminus" xlink:href="#zoomMin" x="42" y="9" onmousedown="handleZoom(evt,'out')"/>
                <use id="reset" xlink:href="#resetDef" x="30" y="36" onmousedown="handleReset()"/>
                <g id="arrowUp" xlink:href="#dirArrow" transform="translate(30 24)" onmousedown="handlePan(0,-1)">
                  <use xlink:href="#rim" fill="#404040">
                        <set attributeName="fill" to="#808080" begin="arrowUp.mouseover" end="arrowUp.mouseout"/>
                  </use>
                  <path fill="none" stroke="white" stroke-width="1.5" d="M0,-3.0v7 M-2.5,-0.5L0,-3.0L2.5,-0.5"/>
                </g>
                <g id="arrowRight" xlink:href="#dirArrow" transform="rotate(90) translate(36 -43)" onmousedown="handlePan(1,0)">
                  <use xlink:href="#rim" fill="#404040">
                        <set attributeName="fill" to="#808080" begin="arrowRight.mouseover" end="arrowRight.mouseout"/>
                  </use>
                  <path fill="none" stroke="white" stroke-width="1.5" d="M0,-3.0v7 M-2.5,-0.5L0,-3.0L2.5,-0.5"/>
                </g>
                <g id="arrowDown" xlink:href="#dirArrow" transform="rotate(180) translate(-30 -48)" onmousedown="handlePan(0,1)">
                  <use xlink:href="#rim" fill="#404040">
                        <set attributeName="fill" to="#808080" begin="arrowDown.mouseover" end="arrowDown.mouseout"/>
                  </use>
                  <path fill="none" stroke="white" stroke-width="1.5" d="M0,-3.0v7 M-2.5,-0.5L0,-3.0L2.5,-0.5"/>
                </g>
                <g id="arrowLeft" xlink:href="#dirArrow" transform="rotate(270) translate(-36 17)" onmousedown="handlePan(-1,0)">
                  <use xlink:href="#rim" fill="#404040">
                        <set attributeName="fill" to="#808080" begin="arrowLeft.mouseover" end="arrowLeft.mouseout"/>
                  </use>
                  <path fill="none" stroke="white" stroke-width="1.5" d="M0,-3.0v7 M-2.5,-0.5L0,-3.0L2.5,-0.5"/>
                </g>
        </g>
        <svg viewBox="0 0 15 15" width="100%" height="30px" preserveAspectRatio="xMaxYMin meet">
         <g id="arrow_out" transform="scale(0.3 0.3)">
          <a xlink:href="classneon_1_1solid_1_1femStaticMatrix_a9d09a3000b8ab1f5088e65a991325514_cgraph_org.svg" target="_base">
           <rect id="button" ry="5" rx="5" y="6" x="6" height="38" width="38"
                fill="#f2f5e9" fill-opacity="0.5" stroke="#606060" stroke-width="1.0"/>
           <path id="arrow"
             d="M 11.500037,31.436501 C 11.940474,20.09759 22.043105,11.32322 32.158766,21.979434 L 37.068811,17.246167 C 37.068811,17.246167 37.088388,32 37.088388,32 L 22.160133,31.978069 C 22.160133,31.978069 26.997745,27.140456 26.997745,27.140456 C 18.528582,18.264221 13.291696,25.230495 11.500037,31.436501 z"
             style="fill:#404040;"/>
          </a>
         </g>
        </svg>
</svg>
