<?xml version="1.0" encoding="UTF-8" standalone="no"?>
<!DOCTYPE svg PUBLIC "-//W3C//DTD SVG 1.1//EN"
 "http://www.w3.org/Graphics/SVG/1.1/DTD/svg11.dtd">
<!-- Generated by graphviz version 2.40.1 (20161225.0304)
 -->
<!-- Title: neon::solid::femSubmesh::deformation_gradient Pages: 1 -->
<svg width="672pt" height="362pt"
 viewBox="0.00 0.00 672.00 362.00" xmlns="http://www.w3.org/2000/svg" xmlns:xlink="http://www.w3.org/1999/xlink">
<g id="graph0" class="graph" transform="scale(1 1) rotate(0) translate(4 358)">
<title>neon::solid::femSubmesh::deformation_gradient</title>
<polygon fill="#ffffff" stroke="transparent" points="-4,4 -4,-358 668,-358 668,4 -4,4"/>
<!-- Node19 -->
<g id="node1" class="node">
<title>Node19</title>
<polygon fill="#bfbfbf" stroke="#000000" points="0,-161.5 0,-191.5 128,-191.5 128,-161.5 0,-161.5"/>
<text text-anchor="start" x="8" y="-179.5" font-family="Helvetica,sans-Serif" font-size="10.00" fill="#000000">neon::solid::femSubmesh</text>
<text text-anchor="middle" x="64" y="-168.5" font-family="Helvetica,sans-Serif" font-size="10.00" fill="#000000">::deformation_gradient</text>
</g>
<!-- Node20 -->
<g id="node2" class="node">
<title>Node20</title>
<g id="a_node2"><a xlink:href="classneon_1_1solid_1_1femSubmesh.html#afa388c49be3b7e286237b363bb30551d" target="_top" xlink:title="neon::solid::femSubmesh\l::local_deformation_gradient">
<polygon fill="#ffffff" stroke="#000000" points="358,-140.5 358,-170.5 497,-170.5 497,-140.5 358,-140.5"/>
<text text-anchor="start" x="366" y="-158.5" font-family="Helvetica,sans-Serif" font-size="10.00" fill="#000000">neon::solid::femSubmesh</text>
<text text-anchor="middle" x="427.5" y="-147.5" font-family="Helvetica,sans-Serif" font-size="10.00" fill="#000000">::local_deformation_gradient</text>
</a>
</g>
</g>
<!-- Node19&#45;&gt;Node20 -->
<g id="edge1" class="edge">
<title>Node19&#45;&gt;Node20</title>
<path fill="none" stroke="#191970" d="M87.0984,-161.3848C106.6656,-149.5377 135.9376,-134.0058 164,-127.5 232.4079,-111.6408 252.3677,-118.4169 322,-127.5 338.3393,-129.6313 355.7504,-133.5452 371.6202,-137.7847"/>
<polygon fill="#191970" stroke="#191970" points="370.7078,-141.1637 381.2788,-140.4535 372.5722,-134.4165 370.7078,-141.1637"/>
</g>
<!-- Node21 -->
<g id="node3" class="node">
<title>Node21</title>
<g id="a_node3"><a xlink:href="classneon_1_1solid_1_1femSubmesh.html#a8bd85d6bbd7f0e43b8621c95b93bfd50" target="_top" xlink:title="neon::solid::femSubmesh\l::update_deformation_measures">
<polygon fill="#ffffff" stroke="#000000" points="165,-323.5 165,-353.5 321,-353.5 321,-323.5 165,-323.5"/>
<text text-anchor="start" x="173" y="-341.5" font-family="Helvetica,sans-Serif" font-size="10.00" fill="#000000">neon::solid::femSubmesh</text>
<text text-anchor="middle" x="243" y="-330.5" font-family="Helvetica,sans-Serif" font-size="10.00" fill="#000000">::update_deformation_measures</text>
</a>
</g>
</g>
<!-- Node19&#45;&gt;Node21 -->
<g id="edge2" class="edge">
<title>Node19&#45;&gt;Node21</title>
<path fill="none" stroke="#191970" d="M71.7937,-191.7687C86.3691,-218.9072 120.2731,-275.7599 164,-308.5 169.3655,-312.5173 175.332,-316.0563 181.5141,-319.1596"/>
<polygon fill="#191970" stroke="#191970" points="180.1356,-322.3782 190.6811,-323.3996 183.0743,-316.0249 180.1356,-322.3782"/>
</g>
<!-- Node24 -->
<g id="node6" class="node">
<title>Node24</title>
<g id="a_node6"><a xlink:href="classneon_1_1solid_1_1femSubmesh.html#abfcb47594fe901d00dc48b6550fe124b" target="_top" xlink:title="neon::solid::femSubmesh\l::offset">
<polygon fill="#ffffff" stroke="#000000" points="363.5,-241.5 363.5,-271.5 491.5,-271.5 491.5,-241.5 363.5,-241.5"/>
<text text-anchor="start" x="371.5" y="-259.5" font-family="Helvetica,sans-Serif" font-size="10.00" fill="#000000">neon::solid::femSubmesh</text>
<text text-anchor="middle" x="427.5" y="-248.5" font-family="Helvetica,sans-Serif" font-size="10.00" fill="#000000">::offset</text>
</a>
</g>
</g>
<!-- Node19&#45;&gt;Node24 -->
<g id="edge24" class="edge">
<title>Node19&#45;&gt;Node24</title>
<path fill="none" stroke="#191970" d="M73.4157,-191.5309C88.9554,-214.7391 122.4276,-258.4024 164,-275.5 231.8853,-303.4194 317.8732,-289.0055 372.7993,-274.2766"/>
<polygon fill="#191970" stroke="#191970" points="373.9831,-277.5804 382.6824,-271.5328 372.1105,-270.8355 373.9831,-277.5804"/>
</g>
<!-- Node25 -->
<g id="node7" class="node">
<title>Node25</title>
<g id="a_node7"><a xlink:href="classneon_1_1solid_1_1femSubmesh.html#a589769624c7a0437790eddbd78faec90" target="_top" xlink:title="neon::solid::femSubmesh\l::update_Jacobian_determinants">
<polygon fill="#ffffff" stroke="#000000" points="164,-49.5 164,-79.5 322,-79.5 322,-49.5 164,-49.5"/>
<text text-anchor="start" x="172" y="-67.5" font-family="Helvetica,sans-Serif" font-size="10.00" fill="#000000">neon::solid::femSubmesh</text>
<text text-anchor="middle" x="243" y="-56.5" font-family="Helvetica,sans-Serif" font-size="10.00" fill="#000000">::update_Jacobian_determinants</text>
</a>
</g>
</g>
<!-- Node19&#45;&gt;Node25 -->
<g id="edge9" class="edge">
<title>Node19&#45;&gt;Node25</title>
<path fill="none" stroke="#191970" d="M79.0911,-161.4308C97.7101,-143.5105 130.9701,-113.6259 164,-94.5 171.0403,-90.4233 178.7374,-86.7051 186.4764,-83.3813"/>
<polygon fill="#191970" stroke="#191970" points="187.9672,-86.553 195.8956,-79.5252 185.315,-80.0749 187.9672,-86.553"/>
</g>
<!-- Node26 -->
<g id="node8" class="node">
<title>Node26</title>
<g id="a_node8"><a xlink:href="classneon_1_1solid_1_1femSubmesh.html#a6bf9f575ae746cc54f65bf9eabcfa50d" target="_top" xlink:title="neon::solid::femSubmesh\l::check_element_distortion">
<polygon fill="#ffffff" stroke="#000000" points="176,-.5 176,-30.5 310,-30.5 310,-.5 176,-.5"/>
<text text-anchor="start" x="184" y="-18.5" font-family="Helvetica,sans-Serif" font-size="10.00" fill="#000000">neon::solid::femSubmesh</text>
<text text-anchor="middle" x="243" y="-7.5" font-family="Helvetica,sans-Serif" font-size="10.00" fill="#000000">::check_element_distortion</text>
</a>
</g>
</g>
<!-- Node19&#45;&gt;Node26 -->
<g id="edge10" class="edge">
<title>Node19&#45;&gt;Node26</title>
<path fill="none" stroke="#191970" d="M70.9824,-161.2325C84.7031,-132.9326 117.9062,-72.2402 164,-39.5 166.0962,-38.0111 168.2865,-36.613 170.5475,-35.3003"/>
<polygon fill="#191970" stroke="#191970" points="172.2844,-38.3426 179.5686,-30.649 169.0765,-32.1209 172.2844,-38.3426"/>
</g>
<!-- Node27 -->
<g id="node9" class="node">
<title>Node27</title>
<g id="a_node9"><a xlink:href="classneon_1_1solid_1_1femSubmesh.html#a146b01147a0c5c030a464088509289dd" target="_top" xlink:title="neon::solid::femSubmesh\l::geometric_tangent_stiffness">
<polygon fill="#ffffff" stroke="#000000" points="170,-235.5 170,-265.5 316,-265.5 316,-235.5 170,-235.5"/>
<text text-anchor="start" x="178" y="-253.5" font-family="Helvetica,sans-Serif" font-size="10.00" fill="#000000">neon::solid::femSubmesh</text>
<text text-anchor="middle" x="243" y="-242.5" font-family="Helvetica,sans-Serif" font-size="10.00" fill="#000000">::geometric_tangent_stiffness</text>
</a>
</g>
</g>
<!-- Node19&#45;&gt;Node27 -->
<g id="edge11" class="edge">
<title>Node19&#45;&gt;Node27</title>
<path fill="none" stroke="#191970" d="M91.0179,-191.5697C110.8227,-202.2276 138.5766,-216.3664 164,-226.5 168.9933,-228.4903 174.2189,-230.4125 179.5015,-232.2438"/>
<polygon fill="#191970" stroke="#191970" points="178.4402,-235.5794 189.0341,-235.4371 180.6638,-228.9419 178.4402,-235.5794"/>
</g>
<!-- Node30 -->
<g id="node12" class="node">
<title>Node30</title>
<g id="a_node12"><a xlink:href="classneon_1_1solid_1_1femSubmesh.html#ac59a58e4a33eea88a87f181c1771621e" target="_top" xlink:title="neon::solid::femSubmesh\l::material_tangent_stiffness">
<polygon fill="#ffffff" stroke="#000000" points="174.5,-186.5 174.5,-216.5 311.5,-216.5 311.5,-186.5 174.5,-186.5"/>
<text text-anchor="start" x="182.5" y="-204.5" font-family="Helvetica,sans-Serif" font-size="10.00" fill="#000000">neon::solid::femSubmesh</text>
<text text-anchor="middle" x="243" y="-193.5" font-family="Helvetica,sans-Serif" font-size="10.00" fill="#000000">::material_tangent_stiffness</text>
</a>
</g>
</g>
<!-- Node19&#45;&gt;Node30 -->
<g id="edge16" class="edge">
<title>Node19&#45;&gt;Node30</title>
<path fill="none" stroke="#191970" d="M128.1175,-185.455C139.8734,-187.0968 152.2662,-188.8277 164.3885,-190.5207"/>
<polygon fill="#191970" stroke="#191970" points="164.0996,-194.0143 174.4877,-191.9312 165.068,-187.0816 164.0996,-194.0143"/>
</g>
<!-- Node31 -->
<g id="node13" class="node">
<title>Node31</title>
<g id="a_node13"><a xlink:href="classneon_1_1solid_1_1femSubmesh.html#acb75f263f98c1934224fbb21854b347c" target="_top" xlink:title="neon::solid::femSubmesh\l::internal_nodal_force">
<polygon fill="#ffffff" stroke="#000000" points="179,-137.5 179,-167.5 307,-167.5 307,-137.5 179,-137.5"/>
<text text-anchor="start" x="187" y="-155.5" font-family="Helvetica,sans-Serif" font-size="10.00" fill="#000000">neon::solid::femSubmesh</text>
<text text-anchor="middle" x="243" y="-144.5" font-family="Helvetica,sans-Serif" font-size="10.00" fill="#000000">::internal_nodal_force</text>
</a>
</g>
</g>
<!-- Node19&#45;&gt;Node31 -->
<g id="edge20" class="edge">
<title>Node19&#45;&gt;Node31</title>
<path fill="none" stroke="#191970" d="M128.1175,-167.9032C141.2277,-166.1455 155.1299,-164.2815 168.5658,-162.48"/>
<polygon fill="#191970" stroke="#191970" points="169.2823,-165.9153 178.7285,-161.1174 168.3521,-158.9774 169.2823,-165.9153"/>
</g>
<!-- Node21&#45;&gt;Node20 -->
<g id="edge5" class="edge">
<title>Node21&#45;&gt;Node20</title>
<path fill="none" stroke="#191970" d="M268.4198,-323.3978C285.58,-312.0842 307.636,-295.2042 322,-275.5 348.598,-239.0135 325.8036,-212.156 358,-180.5 359.4744,-179.0504 361.0388,-177.6841 362.676,-176.3966"/>
<polygon fill="#191970" stroke="#191970" points="365.0071,-179.0493 371.3893,-170.5925 361.1263,-173.2235 365.0071,-179.0493"/>
</g>
<!-- Node22 -->
<g id="node4" class="node">
<title>Node22</title>
<g id="a_node4"><a xlink:href="classneon_1_1SubMesh.html#af487d15a392b158f57d0de57e761f6d1" target="_top" xlink:title="neon::SubMesh::elements">
<polygon fill="#ffffff" stroke="#000000" points="533,-256 533,-275 664,-275 664,-256 533,-256"/>
<text text-anchor="middle" x="598.5" y="-263" font-family="Helvetica,sans-Serif" font-size="10.00" fill="#000000">neon::SubMesh::elements</text>
</a>
</g>
</g>
<!-- Node21&#45;&gt;Node22 -->
<g id="edge3" class="edge">
<title>Node21&#45;&gt;Node22</title>
<path fill="none" stroke="#191970" d="M316.2288,-323.4629C383.3286,-309.6843 481.2486,-289.5769 542.3497,-277.0302"/>
<polygon fill="#191970" stroke="#191970" points="543.1086,-280.4474 552.2002,-275.0074 541.7005,-273.5905 543.1086,-280.4474"/>
</g>
<!-- Node23 -->
<g id="node5" class="node">
<title>Node23</title>
<g id="a_node5"><a xlink:href="classneon_1_1SubMesh.html#acacabb1cefbe206b4c2bf9ddade795ed" target="_top" xlink:title="neon::SubMesh::local\l_node_list">
<polygon fill="#ffffff" stroke="#000000" points="543,-313.5 543,-343.5 654,-343.5 654,-313.5 543,-313.5"/>
<text text-anchor="start" x="551" y="-331.5" font-family="Helvetica,sans-Serif" font-size="10.00" fill="#000000">neon::SubMesh::local</text>
<text text-anchor="middle" x="598.5" y="-320.5" font-family="Helvetica,sans-Serif" font-size="10.00" fill="#000000">_node_list</text>
</a>
</g>
</g>
<!-- Node21&#45;&gt;Node23 -->
<g id="edge4" class="edge">
<title>Node21&#45;&gt;Node23</title>
<path fill="none" stroke="#191970" d="M321.016,-336.3055C384.486,-334.5201 473.0402,-332.0291 532.9027,-330.3452"/>
<polygon fill="#191970" stroke="#191970" points="533.096,-333.8413 542.9935,-330.0614 532.8991,-326.844 533.096,-333.8413"/>
</g>
<!-- Node21&#45;&gt;Node24 -->
<g id="edge6" class="edge">
<title>Node21&#45;&gt;Node24</title>
<path fill="none" stroke="#191970" d="M287.0792,-323.4156C298.6247,-319.0184 310.9342,-313.9239 322,-308.5 338.8373,-300.2472 341.3507,-295.126 358,-286.5 365.2174,-282.7607 373.0043,-279.077 380.6641,-275.6404"/>
<polygon fill="#191970" stroke="#191970" points="382.15,-278.8106 389.8976,-271.5839 379.3344,-272.4018 382.15,-278.8106"/>
</g>
<!-- Node24&#45;&gt;Node22 -->
<g id="edge7" class="edge">
<title>Node24&#45;&gt;Node22</title>
<path fill="none" stroke="#191970" d="M491.6606,-259.8769C501.7535,-260.4081 512.2703,-260.9616 522.5979,-261.5052"/>
<polygon fill="#191970" stroke="#191970" points="522.6695,-265.0137 532.8397,-262.0442 523.0375,-258.0234 522.6695,-265.0137"/>
</g>
<!-- Node24&#45;&gt;Node23 -->
<g id="edge8" class="edge">
<title>Node24&#45;&gt;Node23</title>
<path fill="none" stroke="#191970" d="M463.3472,-271.5936C489.5678,-282.6338 525.3226,-297.6885 553.4705,-309.5402"/>
<polygon fill="#191970" stroke="#191970" points="552.1254,-312.7714 562.7,-313.4263 554.8418,-306.32 552.1254,-312.7714"/>
</g>
<!-- Node27&#45;&gt;Node20 -->
<g id="edge14" class="edge">
<title>Node27&#45;&gt;Node20</title>
<path fill="none" stroke="#191970" d="M305.908,-235.3611C311.5711,-232.8363 317.034,-229.9035 322,-226.5 343.4142,-211.8232 336.9621,-195.7113 358,-180.5 360.6497,-178.5841 363.4612,-176.8019 366.3758,-175.1456"/>
<polygon fill="#191970" stroke="#191970" points="368.06,-178.2156 375.3709,-170.5473 364.8737,-171.9827 368.06,-178.2156"/>
</g>
<!-- Node27&#45;&gt;Node24 -->
<g id="edge15" class="edge">
<title>Node27&#45;&gt;Node24</title>
<path fill="none" stroke="#191970" d="M316.1843,-252.88C328.3673,-253.2762 341.0142,-253.6875 353.224,-254.0845"/>
<polygon fill="#191970" stroke="#191970" points="353.2493,-257.5871 363.3578,-254.4141 353.4768,-250.5908 353.2493,-257.5871"/>
</g>
<!-- Node28 -->
<g id="node10" class="node">
<title>Node28</title>
<g id="a_node10"><a xlink:href="classneon_1_1SubMesh.html#a95a1ae84508d0006244c248aa50c76b3" target="_top" xlink:title="neon::SubMesh::nodes\l_per_element">
<polygon fill="#ffffff" stroke="#000000" points="369,-189.5 369,-219.5 486,-219.5 486,-189.5 369,-189.5"/>
<text text-anchor="start" x="377" y="-207.5" font-family="Helvetica,sans-Serif" font-size="10.00" fill="#000000">neon::SubMesh::nodes</text>
<text text-anchor="middle" x="427.5" y="-196.5" font-family="Helvetica,sans-Serif" font-size="10.00" fill="#000000">_per_element</text>
</a>
</g>
</g>
<!-- Node27&#45;&gt;Node28 -->
<g id="edge12" class="edge">
<title>Node27&#45;&gt;Node28</title>
<path fill="none" stroke="#191970" d="M303.4122,-235.4379C321.2289,-230.9958 340.8515,-226.1034 359.1307,-221.546"/>
<polygon fill="#191970" stroke="#191970" points="359.9816,-224.9411 368.8378,-219.1258 358.2881,-218.149 359.9816,-224.9411"/>
</g>
<!-- Node29 -->
<g id="node11" class="node">
<title>Node29</title>
<g id="a_node11"><a xlink:href="classneon_1_1SubMesh.html#a2047359fe78bed483cc5462a9c0e7b42" target="_top" xlink:title="neon::SubMesh::unique\l_connectivities">
<polygon fill="#ffffff" stroke="#000000" points="539,-189.5 539,-219.5 658,-219.5 658,-189.5 539,-189.5"/>
<text text-anchor="start" x="547" y="-207.5" font-family="Helvetica,sans-Serif" font-size="10.00" fill="#000000">neon::SubMesh::unique</text>
<text text-anchor="middle" x="598.5" y="-196.5" font-family="Helvetica,sans-Serif" font-size="10.00" fill="#000000">_connectivities</text>
</a>
</g>
</g>
<!-- Node28&#45;&gt;Node29 -->
<g id="edge13" class="edge">
<title>Node28&#45;&gt;Node29</title>
<path fill="none" stroke="#191970" d="M486.3485,-204.5C500.0309,-204.5 514.725,-204.5 528.8242,-204.5"/>
<polygon fill="#191970" stroke="#191970" points="528.9626,-208.0001 538.9625,-204.5 528.9625,-201.0001 528.9626,-208.0001"/>
</g>
<!-- Node30&#45;&gt;Node20 -->
<g id="edge19" class="edge">
<title>Node30&#45;&gt;Node20</title>
<path fill="none" stroke="#191970" d="M303.4122,-186.4379C320.7034,-182.1268 339.6956,-177.3916 357.5099,-172.9501"/>
<polygon fill="#191970" stroke="#191970" points="358.4111,-176.3326 367.2673,-170.5174 356.7176,-169.5406 358.4111,-176.3326"/>
</g>
<!-- Node30&#45;&gt;Node24 -->
<g id="edge18" class="edge">
<title>Node30&#45;&gt;Node24</title>
<path fill="none" stroke="#191970" d="M293.4154,-216.529C316.2962,-223.3498 343.5331,-231.4692 367.4629,-238.6028"/>
<polygon fill="#191970" stroke="#191970" points="366.5624,-241.9865 377.1455,-241.4892 368.5622,-235.2782 366.5624,-241.9865"/>
</g>
<!-- Node30&#45;&gt;Node28 -->
<g id="edge17" class="edge">
<title>Node30&#45;&gt;Node28</title>
<path fill="none" stroke="#191970" d="M311.701,-202.6171C326.9345,-202.8648 343.0861,-203.1274 358.3379,-203.3754"/>
<polygon fill="#191970" stroke="#191970" points="358.6752,-206.8813 368.7308,-203.5444 358.7891,-199.8822 358.6752,-206.8813"/>
</g>
<!-- Node31&#45;&gt;Node20 -->
<g id="edge22" class="edge">
<title>Node31&#45;&gt;Node20</title>
<path fill="none" stroke="#191970" d="M307.0114,-153.5408C320.1154,-153.7539 334.0609,-153.9807 347.6414,-154.2015"/>
<polygon fill="#191970" stroke="#191970" points="347.8798,-157.7057 357.9354,-154.3689 347.9936,-150.7067 347.8798,-157.7057"/>
</g>
<!-- Node31&#45;&gt;Node24 -->
<g id="edge23" class="edge">
<title>Node31&#45;&gt;Node24</title>
<path fill="none" stroke="#191970" d="M304.9205,-167.6191C310.9734,-170.3901 316.7917,-173.6555 322,-177.5 344.6154,-194.1933 335.9308,-212.091 358,-229.5 361.3157,-232.1156 364.9151,-234.503 368.6719,-236.6779"/>
<polygon fill="#191970" stroke="#191970" points="367.1802,-239.8474 377.6644,-241.3745 370.4209,-233.6427 367.1802,-239.8474"/>
</g>
<!-- Node31&#45;&gt;Node28 -->
<g id="edge21" class="edge">
<title>Node31&#45;&gt;Node28</title>
<path fill="none" stroke="#191970" d="M296.365,-167.5406C317.6876,-173.5502 342.4026,-180.5159 364.5901,-186.7693"/>
<polygon fill="#191970" stroke="#191970" points="363.6804,-190.1492 374.2549,-189.4932 365.5794,-183.4117 363.6804,-190.1492"/>
</g>
</g>
</svg>
