<?xml version="1.0" encoding="UTF-8" standalone="no"?>
<!DOCTYPE svg PUBLIC "-//W3C//DTD SVG 1.1//EN"
 "http://www.w3.org/Graphics/SVG/1.1/DTD/svg11.dtd">
<!-- Generated by graphviz version 2.40.1 (20161225.0304)
 -->
<!-- Title: neon::solid::femSubmesh::update_deformation_measures Pages: 1 -->
<svg width="497pt" height="88pt"
 viewBox="0.00 0.00 497.00 88.00" xmlns="http://www.w3.org/2000/svg" xmlns:xlink="http://www.w3.org/1999/xlink">
<g id="graph0" class="graph" transform="scale(1 1) rotate(0) translate(4 84)">
<title>neon::solid::femSubmesh::update_deformation_measures</title>
<polygon fill="#ffffff" stroke="transparent" points="-4,4 -4,-84 493,-84 493,4 -4,4"/>
<!-- Node156 -->
<g id="node1" class="node">
<title>Node156</title>
<polygon fill="#bfbfbf" stroke="#000000" points="0,-24.5 0,-54.5 156,-54.5 156,-24.5 0,-24.5"/>
<text text-anchor="start" x="8" y="-42.5" font-family="Helvetica,sans-Serif" font-size="10.00" fill="#000000">neon::solid::femSubmesh</text>
<text text-anchor="middle" x="78" y="-31.5" font-family="Helvetica,sans-Serif" font-size="10.00" fill="#000000">::update_deformation_measures</text>
</g>
<!-- Node157 -->
<g id="node2" class="node">
<title>Node157</title>
<g id="a_node2"><a xlink:href="classneon_1_1solid_1_1femSubmesh.html#ab21112c060fb89a7fb065c4004e2ab46" target="_top" xlink:title="neon::solid::femSubmesh\l::update_internal_variables">
<polygon fill="#ffffff" stroke="#000000" points="192,-49.5 192,-79.5 325,-79.5 325,-49.5 192,-49.5"/>
<text text-anchor="start" x="200" y="-67.5" font-family="Helvetica,sans-Serif" font-size="10.00" fill="#000000">neon::solid::femSubmesh</text>
<text text-anchor="middle" x="258.5" y="-56.5" font-family="Helvetica,sans-Serif" font-size="10.00" fill="#000000">::update_internal_variables</text>
</a>
</g>
</g>
<!-- Node156&#45;&gt;Node157 -->
<g id="edge1" class="edge">
<title>Node156&#45;&gt;Node157</title>
<path fill="none" stroke="#191970" d="M166.2182,-51.7186C174.846,-52.9136 183.4986,-54.112 191.8603,-55.2701"/>
<polygon fill="#191970" stroke="#191970" points="166.5058,-48.2251 156.1201,-50.32 165.5454,-55.1589 166.5058,-48.2251"/>
</g>
<!-- Node159 -->
<g id="node4" class="node">
<title>Node159</title>
<g id="a_node4"><a xlink:href="classneon_1_1solid_1_1femSubmesh.html#ab924d16740c35a9af36eb08fab10391b" target="_top" xlink:title="neon::solid::femSubmesh\l::deformation_gradient">
<polygon fill="#ffffff" stroke="#000000" points="194.5,-.5 194.5,-30.5 322.5,-30.5 322.5,-.5 194.5,-.5"/>
<text text-anchor="start" x="202.5" y="-18.5" font-family="Helvetica,sans-Serif" font-size="10.00" fill="#000000">neon::solid::femSubmesh</text>
<text text-anchor="middle" x="258.5" y="-7.5" font-family="Helvetica,sans-Serif" font-size="10.00" fill="#000000">::deformation_gradient</text>
</a>
</g>
</g>
<!-- Node156&#45;&gt;Node159 -->
<g id="edge3" class="edge">
<title>Node156&#45;&gt;Node159</title>
<path fill="none" stroke="#191970" d="M166.0426,-27.7935C175.5928,-26.5237 185.1761,-25.2494 194.3642,-24.0278"/>
<polygon fill="#191970" stroke="#191970" points="165.5715,-24.3252 156.1201,-29.1128 166.4942,-31.2642 165.5715,-24.3252"/>
</g>
<!-- Node158 -->
<g id="node3" class="node">
<title>Node158</title>
<g id="a_node3"><a xlink:href="classneon_1_1solid_1_1femSubmesh.html#a6e725b9d73d74ff4f5971f2f7f74225c" target="_top" xlink:title="neon::solid::femSubmesh\l::internal_variables">
<polygon fill="#ffffff" stroke="#000000" points="361,-49.5 361,-79.5 489,-79.5 489,-49.5 361,-49.5"/>
<text text-anchor="start" x="369" y="-67.5" font-family="Helvetica,sans-Serif" font-size="10.00" fill="#000000">neon::solid::femSubmesh</text>
<text text-anchor="middle" x="425" y="-56.5" font-family="Helvetica,sans-Serif" font-size="10.00" fill="#000000">::internal_variables</text>
</a>
</g>
</g>
<!-- Node157&#45;&gt;Node158 -->
<g id="edge2" class="edge">
<title>Node157&#45;&gt;Node158</title>
<path fill="none" stroke="#191970" d="M335.2727,-64.5C343.8547,-64.5 352.5292,-64.5 360.9282,-64.5"/>
<polygon fill="#191970" stroke="#191970" points="335.2626,-61.0001 325.2626,-64.5 335.2625,-68.0001 335.2626,-61.0001"/>
</g>
</g>
</svg>
