<?xml version="1.0" encoding="UTF-8" standalone="no"?>
<!DOCTYPE svg PUBLIC "-//W3C//DTD SVG 1.1//EN"
 "http://www.w3.org/Graphics/SVG/1.1/DTD/svg11.dtd">
<!-- Generated by graphviz version 2.40.1 (20161225.0304)
 -->
<!-- Title: neon::SubMesh::SubMesh Pages: 1 -->
<svg width="313pt" height="88pt"
 viewBox="0.00 0.00 313.00 88.00" xmlns="http://www.w3.org/2000/svg" xmlns:xlink="http://www.w3.org/1999/xlink">
<g id="graph0" class="graph" transform="scale(1 1) rotate(0) translate(4 84)">
<title>neon::SubMesh::SubMesh</title>
<polygon fill="#ffffff" stroke="transparent" points="-4,4 -4,-84 309,-84 309,4 -4,4"/>
<!-- Node0 -->
<g id="node1" class="node">
<title>Node0</title>
<polygon fill="#bfbfbf" stroke="#000000" points="0,-30 0,-49 132,-49 132,-30 0,-30"/>
<text text-anchor="middle" x="66" y="-37" font-family="Helvetica,sans-Serif" font-size="10.00" fill="#000000">neon::SubMesh::SubMesh</text>
</g>
<!-- Node1 -->
<g id="node2" class="node">
<title>Node1</title>
<g id="a_node2"><a xlink:href="classneon_1_1NodeOrderingAdapter.html#a7c7b97aab05cd4e5d7c01cfdde118812" target="_top" xlink:title="neon::NodeOrderingAdapter\l::gmsh_type_to_enum">
<polygon fill="#ffffff" stroke="#000000" points="168,-49.5 168,-79.5 305,-79.5 305,-49.5 168,-49.5"/>
<text text-anchor="start" x="176" y="-67.5" font-family="Helvetica,sans-Serif" font-size="10.00" fill="#000000">neon::NodeOrderingAdapter</text>
<text text-anchor="middle" x="236.5" y="-56.5" font-family="Helvetica,sans-Serif" font-size="10.00" fill="#000000">::gmsh_type_to_enum</text>
</a>
</g>
</g>
<!-- Node0&#45;&gt;Node1 -->
<g id="edge1" class="edge">
<title>Node0&#45;&gt;Node1</title>
<path fill="none" stroke="#191970" d="M130.9451,-49.0227C139.6972,-50.306 148.7523,-51.6338 157.7118,-52.9475"/>
<polygon fill="#191970" stroke="#191970" points="157.3634,-56.4337 167.7654,-54.4216 158.379,-49.5078 157.3634,-56.4337"/>
</g>
<!-- Node2 -->
<g id="node3" class="node">
<title>Node2</title>
<g id="a_node3"><a xlink:href="classneon_1_1NodeOrderingAdapter.html#a3b126ebcf4a57026da8d2b9f3a7cefc7" target="_top" xlink:title="neon::NodeOrderingAdapter\l::convert_from_gmsh">
<polygon fill="#ffffff" stroke="#000000" points="168,-.5 168,-30.5 305,-30.5 305,-.5 168,-.5"/>
<text text-anchor="start" x="176" y="-18.5" font-family="Helvetica,sans-Serif" font-size="10.00" fill="#000000">neon::NodeOrderingAdapter</text>
<text text-anchor="middle" x="236.5" y="-7.5" font-family="Helvetica,sans-Serif" font-size="10.00" fill="#000000">::convert_from_gmsh</text>
</a>
</g>
</g>
<!-- Node0&#45;&gt;Node2 -->
<g id="edge2" class="edge">
<title>Node0&#45;&gt;Node2</title>
<path fill="none" stroke="#191970" d="M132.408,-30.1523C140.7414,-28.9792 149.3277,-27.7706 157.8264,-26.5743"/>
<polygon fill="#191970" stroke="#191970" points="158.3279,-30.0383 167.7424,-25.1785 157.3521,-23.1066 158.3279,-30.0383"/>
</g>
</g>
</svg>
