<?xml version="1.0" encoding="UTF-8" standalone="no"?>
<!DOCTYPE svg PUBLIC "-//W3C//DTD SVG 1.1//EN"
 "http://www.w3.org/Graphics/SVG/1.1/DTD/svg11.dtd">
<!-- Generated by graphviz version 2.40.1 (20161225.0304)
 -->
<!-- Title: neon::MicromechanicalElastomer::update_segments Pages: 1 -->
<svg width="366pt" height="50pt"
 viewBox="0.00 0.00 366.00 50.00" xmlns="http://www.w3.org/2000/svg" xmlns:xlink="http://www.w3.org/1999/xlink">
<g id="graph0" class="graph" transform="scale(1 1) rotate(0) translate(4 46)">
<title>neon::MicromechanicalElastomer::update_segments</title>
<polygon fill="#ffffff" stroke="transparent" points="-4,4 -4,-46 362,-46 362,4 -4,4"/>
<!-- Node30 -->
<g id="node1" class="node">
<title>Node30</title>
<polygon fill="#bfbfbf" stroke="#000000" points="0,-6 0,-36 161,-36 161,-6 0,-6"/>
<text text-anchor="start" x="8" y="-24" font-family="Helvetica,sans-Serif" font-size="10.00" fill="#000000">neon::MicromechanicalElastomer</text>
<text text-anchor="middle" x="80.5" y="-13" font-family="Helvetica,sans-Serif" font-size="10.00" fill="#000000">::update_segments</text>
</g>
<!-- Node31 -->
<g id="node2" class="node">
<title>Node31</title>
<g id="a_node2"><a xlink:href="classneon_1_1MicromechanicalElastomer.html#aab4b7bfc80786688b65c944d482bbb66" target="_top" xlink:title="neon::MicromechanicalElastomer\l::compute_probability_and\l_segments">
<polygon fill="#ffffff" stroke="#000000" points="197,-.5 197,-41.5 358,-41.5 358,-.5 197,-.5"/>
<text text-anchor="start" x="205" y="-29.5" font-family="Helvetica,sans-Serif" font-size="10.00" fill="#000000">neon::MicromechanicalElastomer</text>
<text text-anchor="start" x="205" y="-18.5" font-family="Helvetica,sans-Serif" font-size="10.00" fill="#000000">::compute_probability_and</text>
<text text-anchor="middle" x="277.5" y="-7.5" font-family="Helvetica,sans-Serif" font-size="10.00" fill="#000000">_segments</text>
</a>
</g>
</g>
<!-- Node30&#45;&gt;Node31 -->
<g id="edge1" class="edge">
<title>Node30&#45;&gt;Node31</title>
<path fill="none" stroke="#191970" d="M161.1959,-21C169.6733,-21 178.3327,-21 186.9115,-21"/>
<polygon fill="#191970" stroke="#191970" points="186.9297,-24.5001 196.9296,-21 186.9296,-17.5001 186.9297,-24.5001"/>
</g>
</g>
</svg>
