<?xml version="1.0" encoding="UTF-8" standalone="no"?>
<!DOCTYPE svg PUBLIC "-//W3C//DTD SVG 1.1//EN"
 "http://www.w3.org/Graphics/SVG/1.1/DTD/svg11.dtd">
<!-- Generated by graphviz version 2.40.1 (20161225.0304)
 -->
<!-- Title: neon::solid::femStaticMatrix::compute_sparsity_pattern Pages: 1 -->
<svg width="519pt" height="61pt"
 viewBox="0.00 0.00 519.00 61.00" xmlns="http://www.w3.org/2000/svg" xmlns:xlink="http://www.w3.org/1999/xlink">
<g id="graph0" class="graph" transform="scale(1 1) rotate(0) translate(4 57)">
<title>neon::solid::femStaticMatrix::compute_sparsity_pattern</title>
<polygon fill="#ffffff" stroke="transparent" points="-4,4 -4,-57 515,-57 515,4 -4,4"/>
<!-- Node57 -->
<g id="node1" class="node">
<title>Node57</title>
<polygon fill="#bfbfbf" stroke="#000000" points="0,-.5 0,-30.5 139,-30.5 139,-.5 0,-.5"/>
<text text-anchor="start" x="8" y="-18.5" font-family="Helvetica,sans-Serif" font-size="10.00" fill="#000000">neon::solid::femStaticMatrix</text>
<text text-anchor="middle" x="69.5" y="-7.5" font-family="Helvetica,sans-Serif" font-size="10.00" fill="#000000">::compute_sparsity_pattern</text>
</g>
<!-- Node58 -->
<g id="node2" class="node">
<title>Node58</title>
<g id="a_node2"><a xlink:href="classneon_1_1solid_1_1femStaticMatrix.html#a38f9c7ef5b0a03920dd67cc054a83042" target="_top" xlink:title="neon::solid::femStaticMatrix\l::assemble_stiffness">
<polygon fill="#ffffff" stroke="#000000" points="175,-22.5 175,-52.5 314,-52.5 314,-22.5 175,-22.5"/>
<text text-anchor="start" x="183" y="-40.5" font-family="Helvetica,sans-Serif" font-size="10.00" fill="#000000">neon::solid::femStaticMatrix</text>
<text text-anchor="middle" x="244.5" y="-29.5" font-family="Helvetica,sans-Serif" font-size="10.00" fill="#000000">::assemble_stiffness</text>
</a>
</g>
</g>
<!-- Node57&#45;&gt;Node58 -->
<g id="edge1" class="edge">
<title>Node57&#45;&gt;Node58</title>
<path fill="none" stroke="#191970" d="M149.1455,-25.5126C157.7018,-26.5882 166.359,-27.6766 174.7863,-28.736"/>
<polygon fill="#191970" stroke="#191970" points="149.526,-22.0329 139.1675,-24.2582 148.6528,-28.9783 149.526,-22.0329"/>
</g>
<!-- Node59 -->
<g id="node3" class="node">
<title>Node59</title>
<g id="a_node3"><a xlink:href="classneon_1_1solid_1_1femStaticMatrix.html#a9d09a3000b8ab1f5088e65a991325514" target="_top" xlink:title="neon::solid::femStaticMatrix\l::apply_displacement_boundaries">
<polygon fill="#ffffff" stroke="#000000" points="350,-.5 350,-30.5 511,-30.5 511,-.5 350,-.5"/>
<text text-anchor="start" x="358" y="-18.5" font-family="Helvetica,sans-Serif" font-size="10.00" fill="#000000">neon::solid::femStaticMatrix</text>
<text text-anchor="middle" x="430.5" y="-7.5" font-family="Helvetica,sans-Serif" font-size="10.00" fill="#000000">::apply_displacement_boundaries</text>
</a>
</g>
</g>
<!-- Node58&#45;&gt;Node59 -->
<g id="edge2" class="edge">
<title>Node58&#45;&gt;Node59</title>
<path fill="none" stroke="#191970" d="M323.9693,-28.1004C332.5173,-27.0894 341.2211,-26.0599 349.7836,-25.0471"/>
<polygon fill="#191970" stroke="#191970" points="323.5437,-24.6263 314.024,-29.2767 324.366,-31.5778 323.5437,-24.6263"/>
</g>
<!-- Node59&#45;&gt;Node57 -->
<g id="edge3" class="edge">
<title>Node59&#45;&gt;Node57</title>
<path fill="none" stroke="#191970" d="M339.764,-13.7909C331.0567,-13.6725 322.3598,-13.5718 314,-13.5 252.2245,-12.9698 236.775,-12.9145 175,-13.5 163.3678,-13.6102 151.0151,-13.7889 139.0151,-13.9951"/>
<polygon fill="#191970" stroke="#191970" points="339.9214,-17.2934 349.9707,-13.9374 340.022,-10.2942 339.9214,-17.2934"/>
</g>
</g>
</svg>
