<?xml version="1.0" encoding="UTF-8" standalone="no"?>
<!DOCTYPE svg PUBLIC "-//W3C//DTD SVG 1.1//EN"
 "http://www.w3.org/Graphics/SVG/1.1/DTD/svg11.dtd">
<!-- Generated by graphviz version 2.40.1 (20161225.0304)
 -->
<!-- Title: neon::solid::femDynamicMatrix Pages: 1 -->
<svg width="453pt" height="229pt"
 viewBox="0.00 0.00 452.50 229.00" xmlns="http://www.w3.org/2000/svg" xmlns:xlink="http://www.w3.org/1999/xlink">
<g id="graph0" class="graph" transform="scale(1 1) rotate(0) translate(4 225)">
<title>neon::solid::femDynamicMatrix</title>
<polygon fill="#ffffff" stroke="transparent" points="-4,4 -4,-225 448.5,-225 448.5,4 -4,4"/>
<!-- Node2 -->
<g id="node1" class="node">
<title>Node2</title>
<polygon fill="#bfbfbf" stroke="#000000" points="220.5,-.5 220.5,-19.5 372.5,-19.5 372.5,-.5 220.5,-.5"/>
<text text-anchor="middle" x="296.5" y="-7.5" font-family="Helvetica,sans-Serif" font-size="10.00" fill="#000000">neon::solid::femDynamicMatrix</text>
</g>
<!-- Node3 -->
<g id="node2" class="node">
<title>Node3</title>
<g id="a_node2"><a xlink:href="classneon_1_1solid_1_1femStaticMatrix.html" target="_top" xlink:title="neon::solid::femStaticMatrix">
<polygon fill="#ffffff" stroke="#000000" points="157,-67.5 157,-86.5 296,-86.5 296,-67.5 157,-67.5"/>
<text text-anchor="middle" x="226.5" y="-74.5" font-family="Helvetica,sans-Serif" font-size="10.00" fill="#000000">neon::solid::femStaticMatrix</text>
</a>
</g>
</g>
<!-- Node3&#45;&gt;Node2 -->
<g id="edge1" class="edge">
<title>Node3&#45;&gt;Node2</title>
<path fill="none" stroke="#191970" d="M243.8014,-60.44C257.2291,-47.5879 275.3733,-30.2212 286.4893,-19.5817"/>
<polygon fill="#191970" stroke="#191970" points="241.3334,-57.9575 236.5293,-67.4005 246.1736,-63.0144 241.3334,-57.9575"/>
</g>
<!-- Node4 -->
<g id="node3" class="node">
<title>Node4</title>
<g id="a_node3"><a xlink:href="classneon_1_1AdaptiveLoadStep.html" target="_top" xlink:title="neon::AdaptiveLoadStep">
<polygon fill="#ffffff" stroke="#000000" points="0,-134.5 0,-153.5 123,-153.5 123,-134.5 0,-134.5"/>
<text text-anchor="middle" x="61.5" y="-141.5" font-family="Helvetica,sans-Serif" font-size="10.00" fill="#000000">neon::AdaptiveLoadStep</text>
</a>
</g>
</g>
<!-- Node4&#45;&gt;Node3 -->
<g id="edge2" class="edge">
<title>Node4&#45;&gt;Node3</title>
<path fill="none" stroke="#9a32cd" stroke-dasharray="5,2" d="M85.4658,-129.1639C98.9378,-121.2555 116.2641,-111.7862 132.5,-105 150.2533,-97.5796 170.6487,-91.2545 187.8947,-86.5036"/>
<polygon fill="#9a32cd" stroke="#9a32cd" points="83.6012,-126.2008 76.8155,-134.3375 87.1942,-132.2084 83.6012,-126.2008"/>
<text text-anchor="middle" x="164.5" y="-108" font-family="Helvetica,sans-Serif" font-size="10.00" fill="#000000"> adaptive_load</text>
</g>
<!-- Node5 -->
<g id="node4" class="node">
<title>Node5</title>
<g id="a_node4"><a xlink:href="classneon_1_1Visualisation.html" target="_top" xlink:title="neon::Visualisation">
<polygon fill="#ffffff" stroke="#000000" points="141,-134.5 141,-153.5 240,-153.5 240,-134.5 141,-134.5"/>
<text text-anchor="middle" x="190.5" y="-141.5" font-family="Helvetica,sans-Serif" font-size="10.00" fill="#000000">neon::Visualisation</text>
</a>
</g>
</g>
<!-- Node5&#45;&gt;Node3 -->
<g id="edge3" class="edge">
<title>Node5&#45;&gt;Node3</title>
<path fill="none" stroke="#9a32cd" stroke-dasharray="5,2" d="M196.1462,-124.4402C198.3469,-118.0518 201.1536,-111.0489 204.5,-105 208.151,-98.4004 213.3186,-91.7319 217.7281,-86.559"/>
<polygon fill="#9a32cd" stroke="#9a32cd" points="192.6957,-123.7447 193.0264,-134.3344 199.3717,-125.8498 192.6957,-123.7447"/>
<text text-anchor="middle" x="233.5" y="-108" font-family="Helvetica,sans-Serif" font-size="10.00" fill="#000000"> visualisation</text>
</g>
<!-- Node6 -->
<g id="node5" class="node">
<title>Node6</title>
<g id="a_node5"><a xlink:href="classneon_1_1NodeOrderingAdapter.html" target="_top" xlink:title="neon::NodeOrderingAdapter">
<polygon fill="#ffffff" stroke="#000000" points="66,-201.5 66,-220.5 203,-220.5 203,-201.5 66,-201.5"/>
<text text-anchor="middle" x="134.5" y="-208.5" font-family="Helvetica,sans-Serif" font-size="10.00" fill="#000000">neon::NodeOrderingAdapter</text>
</a>
</g>
</g>
<!-- Node6&#45;&gt;Node5 -->
<g id="edge4" class="edge">
<title>Node6&#45;&gt;Node5</title>
<path fill="none" stroke="#9a32cd" stroke-dasharray="5,2" d="M136.5378,-191.192C137.9695,-184.6039 140.3956,-177.5415 144.5,-172 150.2872,-164.1866 158.9641,-158.1005 167.2277,-153.6278"/>
<polygon fill="#9a32cd" stroke="#9a32cd" points="133.0163,-191.0618 134.9462,-201.4794 139.934,-192.1321 133.0163,-191.0618"/>
<text text-anchor="middle" x="162.5" y="-175" font-family="Helvetica,sans-Serif" font-size="10.00" fill="#000000"> adapter</text>
</g>
<!-- Node7 -->
<g id="node6" class="node">
<title>Node7</title>
<g id="a_node6"><a xlink:href="classneon_1_1solid_1_1femMesh.html" target="_top" xlink:title="neon::solid::femMesh">
<polygon fill="#ffffff" stroke="#000000" points="221.5,-201.5 221.5,-220.5 331.5,-220.5 331.5,-201.5 221.5,-201.5"/>
<text text-anchor="middle" x="276.5" y="-208.5" font-family="Helvetica,sans-Serif" font-size="10.00" fill="#000000">neon::solid::femMesh</text>
</a>
</g>
</g>
<!-- Node7&#45;&gt;Node3 -->
<g id="edge6" class="edge">
<title>Node7&#45;&gt;Node3</title>
<path fill="none" stroke="#9a32cd" stroke-dasharray="5,2" d="M278.1922,-191.1869C279.1762,-168.7667 277.9088,-131.8787 262.5,-105 258.1683,-97.4439 250.9124,-91.2116 244.0451,-86.5606"/>
<polygon fill="#9a32cd" stroke="#9a32cd" points="274.6804,-191.2598 277.5353,-201.4627 281.6662,-191.7064 274.6804,-191.2598"/>
<text text-anchor="middle" x="302" y="-141.5" font-family="Helvetica,sans-Serif" font-size="10.00" fill="#000000"> fem_mesh</text>
</g>
<!-- Node7&#45;&gt;Node5 -->
<g id="edge5" class="edge">
<title>Node7&#45;&gt;Node5</title>
<path fill="none" stroke="#9a32cd" stroke-dasharray="5,2" d="M235.8116,-197.3808C227.8591,-193.5362 219.9857,-188.7819 213.5,-183 204.464,-174.9446 197.9763,-162.4676 194.2408,-153.8039"/>
<polygon fill="#9a32cd" stroke="#9a32cd" points="234.5433,-200.6467 245.105,-201.4831 237.3701,-194.2428 234.5433,-200.6467"/>
<text text-anchor="middle" x="238" y="-175" font-family="Helvetica,sans-Serif" font-size="10.00" fill="#000000"> fem_mesh</text>
</g>
<!-- Node8 -->
<g id="node7" class="node">
<title>Node8</title>
<g id="a_node7"><a xlink:href="classneon_1_1NewmarkBeta.html" target="_top" xlink:title="neon::NewmarkBeta">
<polygon fill="#ffffff" stroke="#000000" points="329.5,-67.5 329.5,-86.5 435.5,-86.5 435.5,-67.5 329.5,-67.5"/>
<text text-anchor="middle" x="382.5" y="-74.5" font-family="Helvetica,sans-Serif" font-size="10.00" fill="#000000">neon::NewmarkBeta</text>
</a>
</g>
</g>
<!-- Node8&#45;&gt;Node2 -->
<g id="edge7" class="edge">
<title>Node8&#45;&gt;Node2</title>
<path fill="none" stroke="#9a32cd" stroke-dasharray="5,2" d="M362.1628,-61.1559C345.5835,-48.2395 322.7109,-30.4201 308.7988,-19.5817"/>
<polygon fill="#9a32cd" stroke="#9a32cd" points="360.1387,-64.0158 370.1783,-67.4005 364.4407,-58.4937 360.1387,-64.0158"/>
<text text-anchor="middle" x="366" y="-41" font-family="Helvetica,sans-Serif" font-size="10.00" fill="#000000"> newmark</text>
</g>
<!-- Node9 -->
<g id="node8" class="node">
<title>Node9</title>
<g id="a_node8"><a xlink:href="classneon_1_1TimeControl.html" target="_top" xlink:title="neon::TimeControl">
<polygon fill="#ffffff" stroke="#000000" points="344,-134.5 344,-153.5 441,-153.5 441,-134.5 344,-134.5"/>
<text text-anchor="middle" x="392.5" y="-141.5" font-family="Helvetica,sans-Serif" font-size="10.00" fill="#000000">neon::TimeControl</text>
</a>
</g>
</g>
<!-- Node9&#45;&gt;Node8 -->
<g id="edge8" class="edge">
<title>Node9&#45;&gt;Node8</title>
<path fill="none" stroke="#9a32cd" stroke-dasharray="5,2" d="M389.5875,-124.4863C387.7282,-112.0286 385.3994,-96.4258 383.9301,-86.5817"/>
<polygon fill="#9a32cd" stroke="#9a32cd" points="386.1293,-125.0268 391.0672,-134.4005 393.0526,-123.9934 386.1293,-125.0268"/>
<text text-anchor="middle" x="416" y="-108" font-family="Helvetica,sans-Serif" font-size="10.00" fill="#000000"> time_control</text>
</g>
</g>
</svg>
