<?xml version="1.0" encoding="UTF-8" standalone="no"?>
<!DOCTYPE svg PUBLIC "-//W3C//DTD SVG 1.1//EN"
 "http://www.w3.org/Graphics/SVG/1.1/DTD/svg11.dtd">
<!-- Generated by graphviz version 2.40.1 (20161225.0304)
 -->
<!-- Title: neon::solid::femMesh::meshes Pages: 1 -->
<svg width="264pt" height="100pt"
 viewBox="0.00 0.00 264.00 99.50" xmlns="http://www.w3.org/2000/svg" xmlns:xlink="http://www.w3.org/1999/xlink">
<g id="graph0" class="graph" transform="scale(1 1) rotate(0) translate(4 95.5)">
<title>neon::solid::femMesh::meshes</title>
<polygon fill="#ffffff" stroke="transparent" points="-4,4 -4,-95.5 260,-95.5 260,4 -4,4"/>
<!-- Node10 -->
<g id="node1" class="node">
<title>Node10</title>
<polygon fill="#bfbfbf" stroke="#000000" points="0,-27.5 0,-57.5 110,-57.5 110,-27.5 0,-27.5"/>
<text text-anchor="start" x="8" y="-45.5" font-family="Helvetica,sans-Serif" font-size="10.00" fill="#000000">neon::solid::femMesh</text>
<text text-anchor="middle" x="55" y="-34.5" font-family="Helvetica,sans-Serif" font-size="10.00" fill="#000000">::meshes</text>
</g>
<!-- Node11 -->
<g id="node2" class="node">
<title>Node11</title>
<g id="a_node2"><a xlink:href="classneon_1_1solid_1_1femMesh.html#a83ef2458c444aa665142ea35798359b1" target="_top" xlink:title="neon::solid::femMesh\l::reallocate_boundary\l_conditions">
<polygon fill="#ffffff" stroke="#000000" points="146,-50 146,-91 256,-91 256,-50 146,-50"/>
<text text-anchor="start" x="154" y="-79" font-family="Helvetica,sans-Serif" font-size="10.00" fill="#000000">neon::solid::femMesh</text>
<text text-anchor="start" x="154" y="-68" font-family="Helvetica,sans-Serif" font-size="10.00" fill="#000000">::reallocate_boundary</text>
<text text-anchor="middle" x="201" y="-57" font-family="Helvetica,sans-Serif" font-size="10.00" fill="#000000">_conditions</text>
</a>
</g>
</g>
<!-- Node10&#45;&gt;Node11 -->
<g id="edge1" class="edge">
<title>Node10&#45;&gt;Node11</title>
<path fill="none" stroke="#191970" d="M110.1963,-53.0856C118.5541,-54.6885 127.2434,-56.3549 135.7888,-57.9937"/>
<polygon fill="#191970" stroke="#191970" points="135.2453,-61.4532 145.7256,-59.8994 136.5638,-54.5785 135.2453,-61.4532"/>
</g>
<!-- Node12 -->
<g id="node3" class="node">
<title>Node12</title>
<g id="a_node3"><a xlink:href="classneon_1_1solid_1_1femMesh.html#aed4e1f2263312881a892dd6f6cad8993" target="_top" xlink:title="neon::solid::femMesh\l::filter_dof_list">
<polygon fill="#ffffff" stroke="#000000" points="146,-.5 146,-30.5 256,-30.5 256,-.5 146,-.5"/>
<text text-anchor="start" x="154" y="-18.5" font-family="Helvetica,sans-Serif" font-size="10.00" fill="#000000">neon::solid::femMesh</text>
<text text-anchor="middle" x="201" y="-7.5" font-family="Helvetica,sans-Serif" font-size="10.00" fill="#000000">::filter_dof_list</text>
</a>
</g>
</g>
<!-- Node10&#45;&gt;Node12 -->
<g id="edge2" class="edge">
<title>Node10&#45;&gt;Node12</title>
<path fill="none" stroke="#191970" d="M110.1963,-32.2925C118.5541,-30.7468 127.2434,-29.1399 135.7888,-27.5596"/>
<polygon fill="#191970" stroke="#191970" points="136.5288,-30.9822 145.7256,-25.722 135.2558,-24.0989 136.5288,-30.9822"/>
</g>
</g>
</svg>
