<?xml version="1.0" encoding="UTF-8" standalone="no"?>
<!DOCTYPE svg PUBLIC "-//W3C//DTD SVG 1.1//EN"
 "http://www.w3.org/Graphics/SVG/1.1/DTD/svg11.dtd">
<!-- Generated by graphviz version 2.40.1 (20161225.0304)
 -->
<!-- Title: neon::Exception Pages: 1 -->
<svg width="412pt" height="630pt"
 viewBox="0.00 0.00 412.00 630.00" xmlns="http://www.w3.org/2000/svg" xmlns:xlink="http://www.w3.org/1999/xlink">
<g id="graph0" class="graph" transform="scale(1 1) rotate(0) translate(4 626)">
<title>neon::Exception</title>
<polygon fill="#ffffff" stroke="transparent" points="-4,4 -4,-626 408,-626 408,4 -4,4"/>
<!-- Node0 -->
<g id="node1" class="node">
<title>Node0</title>
<polygon fill="#bfbfbf" stroke="#000000" points="114,-312.5 114,-331.5 201,-331.5 201,-312.5 114,-312.5"/>
<text text-anchor="middle" x="157.5" y="-319.5" font-family="Helvetica,sans-Serif" font-size="10.00" fill="#000000">neon::Exception</text>
</g>
<!-- Node2 -->
<g id="node3" class="node">
<title>Node2</title>
<g id="a_node3"><a xlink:href="classneon_1_1DistortedElement.html" target="_top" xlink:title="neon::DistortedElement">
<polygon fill="#ffffff" stroke="#000000" points="261,-602.5 261,-621.5 380,-621.5 380,-602.5 261,-602.5"/>
<text text-anchor="middle" x="320.5" y="-609.5" font-family="Helvetica,sans-Serif" font-size="10.00" fill="#000000">neon::DistortedElement</text>
</a>
</g>
</g>
<!-- Node0&#45;&gt;Node2 -->
<g id="edge2" class="edge">
<title>Node0&#45;&gt;Node2</title>
<path fill="none" stroke="#191970" d="M160.6409,-341.6651C170.0155,-397.9212 199.4866,-557.7297 237,-593 243.7155,-599.314 252.0759,-603.684 260.8904,-606.6814"/>
<polygon fill="#191970" stroke="#191970" points="164.061,-340.8914 158.9935,-331.5871 157.1527,-342.0208 164.061,-340.8914"/>
</g>
<!-- Node3 -->
<g id="node4" class="node">
<title>Node3</title>
<g id="a_node4"><a xlink:href="classneon_1_1DuplicateNameException.html" target="_top" xlink:title="neon::DuplicateNameException">
<polygon fill="#ffffff" stroke="#000000" points="243,-564.5 243,-583.5 398,-583.5 398,-564.5 243,-564.5"/>
<text text-anchor="middle" x="320.5" y="-571.5" font-family="Helvetica,sans-Serif" font-size="10.00" fill="#000000">neon::DuplicateNameException</text>
</a>
</g>
</g>
<!-- Node0&#45;&gt;Node3 -->
<g id="edge3" class="edge">
<title>Node0&#45;&gt;Node3</title>
<path fill="none" stroke="#191970" d="M161.606,-341.5342C172.6207,-392.1184 204.2168,-525.4926 237,-555 241.1991,-558.7795 245.9914,-561.8556 251.1082,-564.3538"/>
<polygon fill="#191970" stroke="#191970" points="164.9861,-340.6032 159.4684,-331.5585 158.1414,-342.0699 164.9861,-340.6032"/>
</g>
<!-- Node4 -->
<g id="node5" class="node">
<title>Node4</title>
<g id="a_node5"><a xlink:href="classneon_1_1EmptyFieldException.html" target="_top" xlink:title="neon::EmptyFieldException">
<polygon fill="#ffffff" stroke="#000000" points="252,-526.5 252,-545.5 389,-545.5 389,-526.5 252,-526.5"/>
<text text-anchor="middle" x="320.5" y="-533.5" font-family="Helvetica,sans-Serif" font-size="10.00" fill="#000000">neon::EmptyFieldException</text>
</a>
</g>
</g>
<!-- Node0&#45;&gt;Node4 -->
<g id="edge4" class="edge">
<title>Node0&#45;&gt;Node4</title>
<path fill="none" stroke="#191970" d="M159.6161,-341.9644C164.9342,-381.7 182.5907,-470.8259 237,-517 241.5342,-520.8479 246.69,-523.9572 252.1625,-526.4647"/>
<polygon fill="#191970" stroke="#191970" points="163.0785,-341.4423 158.4006,-331.9361 156.1294,-342.2846 163.0785,-341.4423"/>
</g>
<!-- Node5 -->
<g id="node6" class="node">
<title>Node5</title>
<g id="a_node6"><a xlink:href="classneon_1_1InvalidElementCodeException.html" target="_top" xlink:title="neon::InvalidElementCode\lException">
<polygon fill="#ffffff" stroke="#000000" points="255,-477 255,-507 386,-507 386,-477 255,-477"/>
<text text-anchor="start" x="263" y="-495" font-family="Helvetica,sans-Serif" font-size="10.00" fill="#000000">neon::InvalidElementCode</text>
<text text-anchor="middle" x="320.5" y="-484" font-family="Helvetica,sans-Serif" font-size="10.00" fill="#000000">Exception</text>
</a>
</g>
</g>
<!-- Node0&#45;&gt;Node5 -->
<g id="edge5" class="edge">
<title>Node0&#45;&gt;Node5</title>
<path fill="none" stroke="#191970" d="M162.8979,-341.4812C172.5347,-372.6392 195.6674,-433.5696 237,-467 242.2945,-471.2823 248.3078,-474.8316 254.6234,-477.7732"/>
<polygon fill="#191970" stroke="#191970" points="166.2278,-340.3989 160.0443,-331.7957 159.5132,-342.3772 166.2278,-340.3989"/>
</g>
<!-- Node6 -->
<g id="node7" class="node">
<title>Node6</title>
<g id="a_node7"><a xlink:href="classneon_1_1InvalidExtensionException.html" target="_top" xlink:title="neon::InvalidExtensionException">
<polygon fill="#ffffff" stroke="#000000" points="241,-438.5 241,-457.5 400,-457.5 400,-438.5 241,-438.5"/>
<text text-anchor="middle" x="320.5" y="-445.5" font-family="Helvetica,sans-Serif" font-size="10.00" fill="#000000">neon::InvalidExtensionException</text>
</a>
</g>
</g>
<!-- Node0&#45;&gt;Node6 -->
<g id="edge6" class="edge">
<title>Node0&#45;&gt;Node6</title>
<path fill="none" stroke="#191970" d="M166.3355,-341.0799C178.6281,-365.42 203.2438,-406.9916 237,-429 242.9779,-432.8975 249.6496,-436.0013 256.5448,-438.4722"/>
<polygon fill="#191970" stroke="#191970" points="169.3499,-339.2752 161.831,-331.8108 163.054,-342.3348 169.3499,-339.2752"/>
</g>
<!-- Node7 -->
<g id="node8" class="node">
<title>Node7</title>
<g id="a_node8"><a xlink:href="classneon_1_1JsonFileParseException.html" target="_top" xlink:title="neon::JsonFileParseException">
<polygon fill="#ffffff" stroke="#000000" points="246,-400.5 246,-419.5 395,-419.5 395,-400.5 246,-400.5"/>
<text text-anchor="middle" x="320.5" y="-407.5" font-family="Helvetica,sans-Serif" font-size="10.00" fill="#000000">neon::JsonFileParseException</text>
</a>
</g>
</g>
<!-- Node0&#45;&gt;Node7 -->
<g id="edge7" class="edge">
<title>Node0&#45;&gt;Node7</title>
<path fill="none" stroke="#191970" d="M172.5794,-339.2491C187.4019,-355.1037 211.46,-378.0499 237,-391 244.6908,-394.8996 253.1827,-398.0075 261.7181,-400.4822"/>
<polygon fill="#191970" stroke="#191970" points="175.0281,-336.7395 165.7112,-331.6951 169.8488,-341.4486 175.0281,-336.7395"/>
</g>
<!-- Node8 -->
<g id="node9" class="node">
<title>Node8</title>
<g id="a_node9"><a xlink:href="classneon_1_1KeyNotFoundInMap.html" target="_top" xlink:title="neon::KeyNotFoundInMap\l\&lt; KeyTp \&gt;">
<polygon fill="#ffffff" stroke="#000000" points="255,-351 255,-381 386,-381 386,-351 255,-351"/>
<text text-anchor="start" x="263" y="-369" font-family="Helvetica,sans-Serif" font-size="10.00" fill="#000000">neon::KeyNotFoundInMap</text>
<text text-anchor="middle" x="320.5" y="-358" font-family="Helvetica,sans-Serif" font-size="10.00" fill="#000000">&lt; KeyTp &gt;</text>
</a>
</g>
</g>
<!-- Node0&#45;&gt;Node8 -->
<g id="edge8" class="edge">
<title>Node0&#45;&gt;Node8</title>
<path fill="none" stroke="#191970" d="M202.5796,-334.1687C221.8012,-339.3574 244.4256,-345.4646 264.6897,-350.9346"/>
<polygon fill="#191970" stroke="#191970" points="203.4352,-330.7745 192.8686,-331.5473 201.6109,-337.5326 203.4352,-330.7745"/>
</g>
<!-- Node9 -->
<g id="node10" class="node">
<title>Node9</title>
<g id="a_node10"><a xlink:href="classneon_1_1MaterialPropertyException.html" target="_top" xlink:title="neon::MaterialPropertyException">
<polygon fill="#ffffff" stroke="#000000" points="241.5,-312.5 241.5,-331.5 399.5,-331.5 399.5,-312.5 241.5,-312.5"/>
<text text-anchor="middle" x="320.5" y="-319.5" font-family="Helvetica,sans-Serif" font-size="10.00" fill="#000000">neon::MaterialPropertyException</text>
</a>
</g>
</g>
<!-- Node0&#45;&gt;Node9 -->
<g id="edge9" class="edge">
<title>Node0&#45;&gt;Node9</title>
<path fill="none" stroke="#191970" d="M211.3904,-322C221.0385,-322 231.2721,-322 241.4545,-322"/>
<polygon fill="#191970" stroke="#191970" points="211.181,-318.5001 201.181,-322 211.181,-325.5001 211.181,-318.5001"/>
</g>
<!-- Node10 -->
<g id="node11" class="node">
<title>Node10</title>
<g id="a_node11"><a xlink:href="classneon_1_1NegativeElementAreaException.html" target="_top" xlink:title="neon::NegativeElementArea\lException">
<polygon fill="#ffffff" stroke="#000000" points="251,-263 251,-293 390,-293 390,-263 251,-263"/>
<text text-anchor="start" x="259" y="-281" font-family="Helvetica,sans-Serif" font-size="10.00" fill="#000000">neon::NegativeElementArea</text>
<text text-anchor="middle" x="320.5" y="-270" font-family="Helvetica,sans-Serif" font-size="10.00" fill="#000000">Exception</text>
</a>
</g>
</g>
<!-- Node0&#45;&gt;Node10 -->
<g id="edge10" class="edge">
<title>Node0&#45;&gt;Node10</title>
<path fill="none" stroke="#191970" d="M202.5796,-309.8313C221.8012,-304.6426 244.4256,-298.5354 264.6897,-293.0654"/>
<polygon fill="#191970" stroke="#191970" points="201.6109,-306.4674 192.8686,-312.4527 203.4352,-313.2255 201.6109,-306.4674"/>
</g>
<!-- Node11 -->
<g id="node12" class="node">
<title>Node11</title>
<g id="a_node12"><a xlink:href="classneon_1_1NoInputException.html" target="_top" xlink:title="neon::NoInputException">
<polygon fill="#ffffff" stroke="#000000" points="259.5,-224.5 259.5,-243.5 381.5,-243.5 381.5,-224.5 259.5,-224.5"/>
<text text-anchor="middle" x="320.5" y="-231.5" font-family="Helvetica,sans-Serif" font-size="10.00" fill="#000000">neon::NoInputException</text>
</a>
</g>
</g>
<!-- Node0&#45;&gt;Node11 -->
<g id="edge11" class="edge">
<title>Node0&#45;&gt;Node11</title>
<path fill="none" stroke="#191970" d="M172.5794,-304.7509C187.4019,-288.8963 211.46,-265.9501 237,-253 244.6908,-249.1004 253.1827,-245.9925 261.7181,-243.5178"/>
<polygon fill="#191970" stroke="#191970" points="169.8488,-302.5514 165.7112,-312.3049 175.0281,-307.2605 169.8488,-302.5514"/>
</g>
<!-- Node12 -->
<g id="node13" class="node">
<title>Node12</title>
<g id="a_node13"><a xlink:href="classneon_1_1PartNameException.html" target="_top" xlink:title="neon::PartNameException">
<polygon fill="#ffffff" stroke="#000000" points="255,-186.5 255,-205.5 386,-205.5 386,-186.5 255,-186.5"/>
<text text-anchor="middle" x="320.5" y="-193.5" font-family="Helvetica,sans-Serif" font-size="10.00" fill="#000000">neon::PartNameException</text>
</a>
</g>
</g>
<!-- Node0&#45;&gt;Node12 -->
<g id="edge12" class="edge">
<title>Node0&#45;&gt;Node12</title>
<path fill="none" stroke="#191970" d="M166.3355,-302.9201C178.6281,-278.58 203.2438,-237.0084 237,-215 242.9779,-211.1025 249.6496,-207.9987 256.5448,-205.5278"/>
<polygon fill="#191970" stroke="#191970" points="163.054,-301.6652 161.831,-312.1892 169.3499,-304.7248 163.054,-301.6652"/>
</g>
<!-- Node13 -->
<g id="node14" class="node">
<title>Node13</title>
<g id="a_node14"><a xlink:href="classneon_1_1UnknownBoundaryTypeException.html" target="_top" xlink:title="neon::UnknownBoundaryType\lException">
<polygon fill="#ffffff" stroke="#000000" points="246.5,-137 246.5,-167 394.5,-167 394.5,-137 246.5,-137"/>
<text text-anchor="start" x="254.5" y="-155" font-family="Helvetica,sans-Serif" font-size="10.00" fill="#000000">neon::UnknownBoundaryType</text>
<text text-anchor="middle" x="320.5" y="-144" font-family="Helvetica,sans-Serif" font-size="10.00" fill="#000000">Exception</text>
</a>
</g>
</g>
<!-- Node0&#45;&gt;Node13 -->
<g id="edge13" class="edge">
<title>Node0&#45;&gt;Node13</title>
<path fill="none" stroke="#191970" d="M162.8979,-302.5188C172.5347,-271.3608 195.6674,-210.4304 237,-177 241.8239,-173.0984 247.2444,-169.8052 252.9467,-167.0257"/>
<polygon fill="#191970" stroke="#191970" points="159.5132,-301.6228 160.0443,-312.2043 166.2278,-303.6011 159.5132,-301.6228"/>
</g>
<!-- Node14 -->
<g id="node15" class="node">
<title>Node14</title>
<g id="a_node15"><a xlink:href="classneon_1_1UnknownElementTypeException.html" target="_top" xlink:title="neon::UnknownElementType\lException">
<polygon fill="#ffffff" stroke="#000000" points="249,-88 249,-118 392,-118 392,-88 249,-88"/>
<text text-anchor="start" x="257" y="-106" font-family="Helvetica,sans-Serif" font-size="10.00" fill="#000000">neon::UnknownElementType</text>
<text text-anchor="middle" x="320.5" y="-95" font-family="Helvetica,sans-Serif" font-size="10.00" fill="#000000">Exception</text>
</a>
</g>
</g>
<!-- Node0&#45;&gt;Node14 -->
<g id="edge14" class="edge">
<title>Node0&#45;&gt;Node14</title>
<path fill="none" stroke="#191970" d="M159.876,-302.038C165.6389,-262.6388 184.0219,-174.581 237,-127 240.8154,-123.5733 245.0903,-120.6334 249.6352,-118.1115"/>
<polygon fill="#191970" stroke="#191970" points="156.3739,-301.8217 158.5172,-312.1975 163.3121,-302.7498 156.3739,-301.8217"/>
</g>
<!-- Node15 -->
<g id="node16" class="node">
<title>Node15</title>
<g id="a_node16"><a xlink:href="classneon_1_1UnknownOutputRequestException.html" target="_top" xlink:title="neon::UnknownOutputRequest\lException">
<polygon fill="#ffffff" stroke="#000000" points="245,-39 245,-69 396,-69 396,-39 245,-39"/>
<text text-anchor="start" x="253" y="-57" font-family="Helvetica,sans-Serif" font-size="10.00" fill="#000000">neon::UnknownOutputRequest</text>
<text text-anchor="middle" x="320.5" y="-46" font-family="Helvetica,sans-Serif" font-size="10.00" fill="#000000">Exception</text>
</a>
</g>
</g>
<!-- Node0&#45;&gt;Node15 -->
<g id="edge15" class="edge">
<title>Node0&#45;&gt;Node15</title>
<path fill="none" stroke="#191970" d="M161.4313,-302.344C172.2335,-250.1861 203.7802,-110.0741 237,-78 240.5809,-74.5426 244.626,-71.5778 248.9563,-69.036"/>
<polygon fill="#191970" stroke="#191970" points="157.9642,-301.8296 159.396,-312.3273 164.8231,-303.228 157.9642,-301.8296"/>
</g>
<!-- Node16 -->
<g id="node17" class="node">
<title>Node16</title>
<g id="a_node17"><a xlink:href="classneon_1_1UnknownScenarioException.html" target="_top" xlink:title="neon::UnknownScenarioException">
<polygon fill="#ffffff" stroke="#000000" points="237,-.5 237,-19.5 404,-19.5 404,-.5 237,-.5"/>
<text text-anchor="middle" x="320.5" y="-7.5" font-family="Helvetica,sans-Serif" font-size="10.00" fill="#000000">neon::UnknownScenarioException</text>
</a>
</g>
</g>
<!-- Node0&#45;&gt;Node16 -->
<g id="edge16" class="edge">
<title>Node0&#45;&gt;Node16</title>
<path fill="none" stroke="#191970" d="M160.1841,-302.3084C168.6631,-242.9803 196.7176,-67.6554 237,-29 240.969,-25.1913 245.535,-22.0867 250.4424,-19.5621"/>
<polygon fill="#191970" stroke="#191970" points="156.7103,-301.8776 158.7906,-312.2662 163.6428,-302.8478 156.7103,-301.8776"/>
</g>
<!-- Node1 -->
<g id="node2" class="node">
<title>Node1</title>
<polygon fill="#ffffff" stroke="#bfbfbf" points="0,-312.5 0,-331.5 78,-331.5 78,-312.5 0,-312.5"/>
<text text-anchor="middle" x="39" y="-319.5" font-family="Helvetica,sans-Serif" font-size="10.00" fill="#000000">std::exception</text>
</g>
<!-- Node1&#45;&gt;Node0 -->
<g id="edge1" class="edge">
<title>Node1&#45;&gt;Node0</title>
<path fill="none" stroke="#191970" d="M88.3051,-322C96.8012,-322 105.5781,-322 113.91,-322"/>
<polygon fill="#191970" stroke="#191970" points="88.1298,-318.5001 78.1297,-322 88.1297,-325.5001 88.1298,-318.5001"/>
</g>
</g>
</svg>
