<?xml version="1.0" encoding="UTF-8" standalone="no"?>
<!DOCTYPE svg PUBLIC "-//W3C//DTD SVG 1.1//EN"
 "http://www.w3.org/Graphics/SVG/1.1/DTD/svg11.dtd">
<!-- Generated by graphviz version 2.40.1 (20161225.0304)
 -->
<!-- Title: neon::solid::femMesh::save_internal_variables Pages: 1 -->
<svg width="680pt" height="61pt"
 viewBox="0.00 0.00 680.00 61.00" xmlns="http://www.w3.org/2000/svg" xmlns:xlink="http://www.w3.org/1999/xlink">
<g id="graph0" class="graph" transform="scale(1 1) rotate(0) translate(4 57)">
<title>neon::solid::femMesh::save_internal_variables</title>
<polygon fill="#ffffff" stroke="transparent" points="-4,4 -4,-57 676,-57 676,4 -4,4"/>
<!-- Node19 -->
<g id="node1" class="node">
<title>Node19</title>
<polygon fill="#bfbfbf" stroke="#000000" points="0,-.5 0,-30.5 125,-30.5 125,-.5 0,-.5"/>
<text text-anchor="start" x="8" y="-18.5" font-family="Helvetica,sans-Serif" font-size="10.00" fill="#000000">neon::solid::femMesh</text>
<text text-anchor="middle" x="62.5" y="-7.5" font-family="Helvetica,sans-Serif" font-size="10.00" fill="#000000">::save_internal_variables</text>
</g>
<!-- Node20 -->
<g id="node2" class="node">
<title>Node20</title>
<g id="a_node2"><a xlink:href="classneon_1_1solid_1_1femStaticMatrix.html#a9d09a3000b8ab1f5088e65a991325514" target="_top" xlink:title="neon::solid::femStaticMatrix\l::apply_displacement_boundaries">
<polygon fill="#ffffff" stroke="#000000" points="161,-.5 161,-30.5 322,-30.5 322,-.5 161,-.5"/>
<text text-anchor="start" x="169" y="-18.5" font-family="Helvetica,sans-Serif" font-size="10.00" fill="#000000">neon::solid::femStaticMatrix</text>
<text text-anchor="middle" x="241.5" y="-7.5" font-family="Helvetica,sans-Serif" font-size="10.00" fill="#000000">::apply_displacement_boundaries</text>
</a>
</g>
</g>
<!-- Node19&#45;&gt;Node20 -->
<g id="edge1" class="edge">
<title>Node19&#45;&gt;Node20</title>
<path fill="none" stroke="#191970" d="M135.3047,-15.5C143.7677,-15.5 152.4371,-15.5 160.9957,-15.5"/>
<polygon fill="#191970" stroke="#191970" points="135.1055,-12.0001 125.1055,-15.5 135.1055,-19.0001 135.1055,-12.0001"/>
</g>
<!-- Node21 -->
<g id="node3" class="node">
<title>Node21</title>
<g id="a_node3"><a xlink:href="classneon_1_1solid_1_1femStaticMatrix.html#a1b4ec4af5d4aa93d28a374c0f4f7e5d3" target="_top" xlink:title="neon::solid::femStaticMatrix\l::compute_sparsity_pattern">
<polygon fill="#ffffff" stroke="#000000" points="358,-22.5 358,-52.5 497,-52.5 497,-22.5 358,-22.5"/>
<text text-anchor="start" x="366" y="-40.5" font-family="Helvetica,sans-Serif" font-size="10.00" fill="#000000">neon::solid::femStaticMatrix</text>
<text text-anchor="middle" x="427.5" y="-29.5" font-family="Helvetica,sans-Serif" font-size="10.00" fill="#000000">::compute_sparsity_pattern</text>
</a>
</g>
</g>
<!-- Node20&#45;&gt;Node21 -->
<g id="edge2" class="edge">
<title>Node20&#45;&gt;Node21</title>
<path fill="none" stroke="#191970" d="M332.1558,-26.2227C340.8326,-27.249 349.5367,-28.2785 357.9656,-29.2755"/>
<polygon fill="#191970" stroke="#191970" points="332.3424,-22.7205 322.0005,-25.0216 331.5202,-29.672 332.3424,-22.7205"/>
</g>
<!-- Node22 -->
<g id="node4" class="node">
<title>Node22</title>
<g id="a_node4"><a xlink:href="classneon_1_1solid_1_1femStaticMatrix.html#a38f9c7ef5b0a03920dd67cc054a83042" target="_top" xlink:title="neon::solid::femStaticMatrix\l::assemble_stiffness">
<polygon fill="#ffffff" stroke="#000000" points="533,-.5 533,-30.5 672,-30.5 672,-.5 533,-.5"/>
<text text-anchor="start" x="541" y="-18.5" font-family="Helvetica,sans-Serif" font-size="10.00" fill="#000000">neon::solid::femStaticMatrix</text>
<text text-anchor="middle" x="602.5" y="-7.5" font-family="Helvetica,sans-Serif" font-size="10.00" fill="#000000">::assemble_stiffness</text>
</a>
</g>
</g>
<!-- Node21&#45;&gt;Node22 -->
<g id="edge3" class="edge">
<title>Node21&#45;&gt;Node22</title>
<path fill="none" stroke="#191970" d="M507.1455,-27.4874C515.7018,-26.4118 524.359,-25.3234 532.7863,-24.264"/>
<polygon fill="#191970" stroke="#191970" points="506.6528,-24.0217 497.1675,-28.7418 507.526,-30.9671 506.6528,-24.0217"/>
</g>
<!-- Node22&#45;&gt;Node20 -->
<g id="edge4" class="edge">
<title>Node22&#45;&gt;Node20</title>
<path fill="none" stroke="#191970" d="M522.8001,-13.8286C514.0935,-13.6938 505.3607,-13.5792 497,-13.5 435.225,-12.9145 419.7755,-12.9698 358,-13.5 346.3689,-13.5998 334.0854,-13.7557 322.0293,-13.9374"/>
<polygon fill="#191970" stroke="#191970" points="522.929,-17.331 532.9849,-13.9951 523.0435,-10.332 522.929,-17.331"/>
</g>
</g>
</svg>
