<?xml version="1.0" encoding="UTF-8" standalone="no"?>
<!DOCTYPE svg PUBLIC "-//W3C//DTD SVG 1.1//EN"
 "http://www.w3.org/Graphics/SVG/1.1/DTD/svg11.dtd">
<!-- Generated by graphviz version 2.40.1 (20161225.0304)
 -->
<!-- Title: neon::solid::femStaticMatrix::is_converged Pages: 1 -->
<!--zoomable 61 -->
<svg id="main" version="1.1" xmlns="http://www.w3.org/2000/svg" xmlns:xlink="http://www.w3.org/1999/xlink" xml:space="preserve" onload="init(evt)">
<style type="text/css"><![CDATA[
.edge:hover path { stroke: red; }
.edge:hover polygon { stroke: red; fill: red; }
]]></style>
<script type="text/javascript"><![CDATA[
var edges = document.getElementsByTagName('g');
if (edges && edges.length) {
  for (var i=0;i<edges.length;i++) {
    if (edges[i].id.substr(0,4)=='edge') {
      edges[i].setAttribute('class','edge');
    }
  }
}
]]></script>
        <defs>
                <circle id="rim" cx="0" cy="0" r="7"/>
                <circle id="rim2" cx="0" cy="0" r="3.5"/>
                <g id="zoomPlus">
                        <use xlink:href="#rim" fill="#404040">
                                <set attributeName="fill" to="#808080" begin="zoomplus.mouseover" end="zoomplus.mouseout"/>
                        </use>
                        <path d="M-4,0h8M0,-4v8" fill="none" stroke="white" stroke-width="1.5" pointer-events="none"/>
                </g>
                <g id="zoomMin">
                        <use xlink:href="#rim" fill="#404040">
                                <set attributeName="fill" to="#808080" begin="zoomminus.mouseover" end="zoomminus.mouseout"/>
                        </use>
                        <path d="M-4,0h8" fill="none" stroke="white" stroke-width="1.5" pointer-events="none"/>
                </g>
                <g id="dirArrow">
                        <path fill="none" stroke="white" stroke-width="1.5" d="M0,-3.0v7 M-2.5,-0.5L0,-3.0L2.5,-0.5"/>
                </g>
               <g id="resetDef">
                       <use xlink:href="#rim2" fill="#404040">
                               <set attributeName="fill" to="#808080" begin="reset.mouseover" end="reset.mouseout"/>
                       </use>
               </g>
        </defs>

<script type="text/javascript">
var viewWidth = 694;
var viewHeight = 61;
var sectionId = 'dynsection-9';
</script>
<script xlink:href="svgpan.js"/>
<svg id="graph" class="graph">
<g id="viewport">
<title>neon::solid::femStaticMatrix::is_converged</title>
<polygon fill="#ffffff" stroke="transparent" points="-4,4 -4,-57 690,-57 690,4 -4,4"/>
<!-- Node66 -->
<g id="node1" class="node">
<title>Node66</title>
<polygon fill="#bfbfbf" stroke="#000000" points="0,-.5 0,-30.5 139,-30.5 139,-.5 0,-.5"/>
<text text-anchor="start" x="8" y="-18.5" font-family="Helvetica,sans-Serif" font-size="10.00" fill="#000000">neon::solid::femStaticMatrix</text>
<text text-anchor="middle" x="69.5" y="-7.5" font-family="Helvetica,sans-Serif" font-size="10.00" fill="#000000">::is_converged</text>
</g>
<!-- Node67 -->
<g id="node2" class="node">
<title>Node67</title>
<g id="a_node2"><a xlink:href="classneon_1_1solid_1_1femStaticMatrix.html#a9d09a3000b8ab1f5088e65a991325514" target="_top" xlink:title="neon::solid::femStaticMatrix\l::apply_displacement_boundaries">
<polygon fill="#ffffff" stroke="#000000" points="175,-.5 175,-30.5 336,-30.5 336,-.5 175,-.5"/>
<text text-anchor="start" x="183" y="-18.5" font-family="Helvetica,sans-Serif" font-size="10.00" fill="#000000">neon::solid::femStaticMatrix</text>
<text text-anchor="middle" x="255.5" y="-7.5" font-family="Helvetica,sans-Serif" font-size="10.00" fill="#000000">::apply_displacement_boundaries</text>
</a>
</g>
</g>
<!-- Node66&#45;&gt;Node67 -->
<g id="edge1" class="edge">
<title>Node66&#45;&gt;Node67</title>
<path fill="none" stroke="#191970" d="M149.2481,-15.5C157.7065,-15.5 166.3142,-15.5 174.7836,-15.5"/>
<polygon fill="#191970" stroke="#191970" points="149.0241,-12.0001 139.024,-15.5 149.024,-19.0001 149.0241,-12.0001"/>
</g>
<!-- Node68 -->
<g id="node3" class="node">
<title>Node68</title>
<g id="a_node3"><a xlink:href="classneon_1_1solid_1_1femStaticMatrix.html#a1b4ec4af5d4aa93d28a374c0f4f7e5d3" target="_top" xlink:title="neon::solid::femStaticMatrix\l::compute_sparsity_pattern">
<polygon fill="#ffffff" stroke="#000000" points="372,-22.5 372,-52.5 511,-52.5 511,-22.5 372,-22.5"/>
<text text-anchor="start" x="380" y="-40.5" font-family="Helvetica,sans-Serif" font-size="10.00" fill="#000000">neon::solid::femStaticMatrix</text>
<text text-anchor="middle" x="441.5" y="-29.5" font-family="Helvetica,sans-Serif" font-size="10.00" fill="#000000">::compute_sparsity_pattern</text>
</a>
</g>
</g>
<!-- Node67&#45;&gt;Node68 -->
<g id="edge2" class="edge">
<title>Node67&#45;&gt;Node68</title>
<path fill="none" stroke="#191970" d="M346.1558,-26.2227C354.8326,-27.249 363.5367,-28.2785 371.9656,-29.2755"/>
<polygon fill="#191970" stroke="#191970" points="346.3424,-22.7205 336.0005,-25.0216 345.5202,-29.672 346.3424,-22.7205"/>
</g>
<!-- Node69 -->
<g id="node4" class="node">
<title>Node69</title>
<g id="a_node4"><a xlink:href="classneon_1_1solid_1_1femStaticMatrix.html#a38f9c7ef5b0a03920dd67cc054a83042" target="_top" xlink:title="neon::solid::femStaticMatrix\l::assemble_stiffness">
<polygon fill="#ffffff" stroke="#000000" points="547,-.5 547,-30.5 686,-30.5 686,-.5 547,-.5"/>
<text text-anchor="start" x="555" y="-18.5" font-family="Helvetica,sans-Serif" font-size="10.00" fill="#000000">neon::solid::femStaticMatrix</text>
<text text-anchor="middle" x="616.5" y="-7.5" font-family="Helvetica,sans-Serif" font-size="10.00" fill="#000000">::assemble_stiffness</text>
</a>
</g>
</g>
<!-- Node68&#45;&gt;Node69 -->
<g id="edge3" class="edge">
<title>Node68&#45;&gt;Node69</title>
<path fill="none" stroke="#191970" d="M521.1455,-27.4874C529.7018,-26.4118 538.359,-25.3234 546.7863,-24.264"/>
<polygon fill="#191970" stroke="#191970" points="520.6528,-24.0217 511.1675,-28.7418 521.526,-30.9671 520.6528,-24.0217"/>
</g>
<!-- Node69&#45;&gt;Node67 -->
<g id="edge4" class="edge">
<title>Node69&#45;&gt;Node67</title>
<path fill="none" stroke="#191970" d="M536.8001,-13.8286C528.0935,-13.6938 519.3607,-13.5792 511,-13.5 449.225,-12.9145 433.7755,-12.9698 372,-13.5 360.3689,-13.5998 348.0854,-13.7557 336.0293,-13.9374"/>
<polygon fill="#191970" stroke="#191970" points="536.929,-17.331 546.9849,-13.9951 537.0435,-10.332 536.929,-17.331"/>
</g>
</g>
</svg>
        <g id="navigator" transform="translate(0 0)" fill="#404254">
                <rect fill="#f2f5e9" fill-opacity="0.5" stroke="#606060" stroke-width=".5" x="0" y="0" width="60" height="60"/>
                <use id="zoomplus" xlink:href="#zoomPlus" x="17" y="9" onmousedown="handleZoom(evt,'in')"/>
                <use id="zoomminus" xlink:href="#zoomMin" x="42" y="9" onmousedown="handleZoom(evt,'out')"/>
                <use id="reset" xlink:href="#resetDef" x="30" y="36" onmousedown="handleReset()"/>
                <g id="arrowUp" xlink:href="#dirArrow" transform="translate(30 24)" onmousedown="handlePan(0,-1)">
                  <use xlink:href="#rim" fill="#404040">
                        <set attributeName="fill" to="#808080" begin="arrowUp.mouseover" end="arrowUp.mouseout"/>
                  </use>
                  <path fill="none" stroke="white" stroke-width="1.5" d="M0,-3.0v7 M-2.5,-0.5L0,-3.0L2.5,-0.5"/>
                </g>
                <g id="arrowRight" xlink:href="#dirArrow" transform="rotate(90) translate(36 -43)" onmousedown="handlePan(1,0)">
                  <use xlink:href="#rim" fill="#404040">
                        <set attributeName="fill" to="#808080" begin="arrowRight.mouseover" end="arrowRight.mouseout"/>
                  </use>
                  <path fill="none" stroke="white" stroke-width="1.5" d="M0,-3.0v7 M-2.5,-0.5L0,-3.0L2.5,-0.5"/>
                </g>
                <g id="arrowDown" xlink:href="#dirArrow" transform="rotate(180) translate(-30 -48)" onmousedown="handlePan(0,1)">
                  <use xlink:href="#rim" fill="#404040">
                        <set attributeName="fill" to="#808080" begin="arrowDown.mouseover" end="arrowDown.mouseout"/>
                  </use>
                  <path fill="none" stroke="white" stroke-width="1.5" d="M0,-3.0v7 M-2.5,-0.5L0,-3.0L2.5,-0.5"/>
                </g>
                <g id="arrowLeft" xlink:href="#dirArrow" transform="rotate(270) translate(-36 17)" onmousedown="handlePan(-1,0)">
                  <use xlink:href="#rim" fill="#404040">
                        <set attributeName="fill" to="#808080" begin="arrowLeft.mouseover" end="arrowLeft.mouseout"/>
                  </use>
                  <path fill="none" stroke="white" stroke-width="1.5" d="M0,-3.0v7 M-2.5,-0.5L0,-3.0L2.5,-0.5"/>
                </g>
        </g>
        <svg viewBox="0 0 15 15" width="100%" height="30px" preserveAspectRatio="xMaxYMin meet">
         <g id="arrow_out" transform="scale(0.3 0.3)">
          <a xlink:href="classneon_1_1solid_1_1femStaticMatrix_af8bb14009b18e37b3029b865d1b3c18a_icgraph_org.svg" target="_base">
           <rect id="button" ry="5" rx="5" y="6" x="6" height="38" width="38"
                fill="#f2f5e9" fill-opacity="0.5" stroke="#606060" stroke-width="1.0"/>
           <path id="arrow"
             d="M 11.500037,31.436501 C 11.940474,20.09759 22.043105,11.32322 32.158766,21.979434 L 37.068811,17.246167 C 37.068811,17.246167 37.088388,32 37.088388,32 L 22.160133,31.978069 C 22.160133,31.978069 26.997745,27.140456 26.997745,27.140456 C 18.528582,18.264221 13.291696,25.230495 11.500037,31.436501 z"
             style="fill:#404040;"/>
          </a>
         </g>
        </svg>
</svg>
