<?xml version="1.0" encoding="UTF-8" standalone="no"?>
<!DOCTYPE svg PUBLIC "-//W3C//DTD SVG 1.1//EN"
 "http://www.w3.org/Graphics/SVG/1.1/DTD/svg11.dtd">
<!-- Generated by graphviz version 2.40.1 (20161225.0304)
 -->
<!-- Title: neon::SubMesh::elements Pages: 1 -->
<!--zoomable 225 -->
<svg id="main" version="1.1" xmlns="http://www.w3.org/2000/svg" xmlns:xlink="http://www.w3.org/1999/xlink" xml:space="preserve" onload="init(evt)">
<style type="text/css"><![CDATA[
.edge:hover path { stroke: red; }
.edge:hover polygon { stroke: red; fill: red; }
]]></style>
<script type="text/javascript"><![CDATA[
var edges = document.getElementsByTagName('g');
if (edges && edges.length) {
  for (var i=0;i<edges.length;i++) {
    if (edges[i].id.substr(0,4)=='edge') {
      edges[i].setAttribute('class','edge');
    }
  }
}
]]></script>
        <defs>
                <circle id="rim" cx="0" cy="0" r="7"/>
                <circle id="rim2" cx="0" cy="0" r="3.5"/>
                <g id="zoomPlus">
                        <use xlink:href="#rim" fill="#404040">
                                <set attributeName="fill" to="#808080" begin="zoomplus.mouseover" end="zoomplus.mouseout"/>
                        </use>
                        <path d="M-4,0h8M0,-4v8" fill="none" stroke="white" stroke-width="1.5" pointer-events="none"/>
                </g>
                <g id="zoomMin">
                        <use xlink:href="#rim" fill="#404040">
                                <set attributeName="fill" to="#808080" begin="zoomminus.mouseover" end="zoomminus.mouseout"/>
                        </use>
                        <path d="M-4,0h8" fill="none" stroke="white" stroke-width="1.5" pointer-events="none"/>
                </g>
                <g id="dirArrow">
                        <path fill="none" stroke="white" stroke-width="1.5" d="M0,-3.0v7 M-2.5,-0.5L0,-3.0L2.5,-0.5"/>
                </g>
               <g id="resetDef">
                       <use xlink:href="#rim2" fill="#404040">
                               <set attributeName="fill" to="#808080" begin="reset.mouseover" end="reset.mouseout"/>
                       </use>
               </g>
        </defs>

<script type="text/javascript">
var viewWidth = 828;
var viewHeight = 225;
var sectionId = 'dynsection-4';
</script>
<script xlink:href="svgpan.js"/>
<svg id="graph" class="graph">
<g id="viewport">
<title>neon::SubMesh::elements</title>
<polygon fill="#ffffff" stroke="transparent" points="-4,4 -4,-221 824,-221 824,4 -4,4"/>
<!-- Node9 -->
<g id="node1" class="node">
<title>Node9</title>
<polygon fill="#bfbfbf" stroke="#000000" points="0,-143 0,-162 131,-162 131,-143 0,-143"/>
<text text-anchor="middle" x="65.5" y="-150" font-family="Helvetica,sans-Serif" font-size="10.00" fill="#000000">neon::SubMesh::elements</text>
</g>
<!-- Node10 -->
<g id="node2" class="node">
<title>Node10</title>
<g id="a_node2"><a xlink:href="classneon_1_1solid_1_1femSubmesh.html#a8bd85d6bbd7f0e43b8621c95b93bfd50" target="_top" xlink:title="neon::solid::femSubmesh\l::update_deformation_measures">
<polygon fill="#ffffff" stroke="#000000" points="331,-186.5 331,-216.5 487,-216.5 487,-186.5 331,-186.5"/>
<text text-anchor="start" x="339" y="-204.5" font-family="Helvetica,sans-Serif" font-size="10.00" fill="#000000">neon::solid::femSubmesh</text>
<text text-anchor="middle" x="409" y="-193.5" font-family="Helvetica,sans-Serif" font-size="10.00" fill="#000000">::update_deformation_measures</text>
</a>
</g>
</g>
<!-- Node9&#45;&gt;Node10 -->
<g id="edge1" class="edge">
<title>Node9&#45;&gt;Node10</title>
<path fill="none" stroke="#191970" d="M141.2257,-163.3022C197.4615,-171.3242 273.936,-182.2332 330.7625,-190.3395"/>
<polygon fill="#191970" stroke="#191970" points="141.7179,-159.8371 131.3238,-161.8897 140.7293,-166.7669 141.7179,-159.8371"/>
</g>
<!-- Node14 -->
<g id="node6" class="node">
<title>Node14</title>
<g id="a_node6"><a xlink:href="classneon_1_1solid_1_1femSubmesh.html#abfcb47594fe901d00dc48b6550fe124b" target="_top" xlink:title="neon::solid::femSubmesh\l::offset">
<polygon fill="#ffffff" stroke="#000000" points="167,-115.5 167,-145.5 295,-145.5 295,-115.5 167,-115.5"/>
<text text-anchor="start" x="175" y="-133.5" font-family="Helvetica,sans-Serif" font-size="10.00" fill="#000000">neon::solid::femSubmesh</text>
<text text-anchor="middle" x="231" y="-122.5" font-family="Helvetica,sans-Serif" font-size="10.00" fill="#000000">::offset</text>
</a>
</g>
</g>
<!-- Node9&#45;&gt;Node14 -->
<g id="edge5" class="edge">
<title>Node9&#45;&gt;Node14</title>
<path fill="none" stroke="#191970" d="M141.3626,-142.4155C149.9192,-141.2781 158.5747,-140.1275 166.9597,-139.0129"/>
<polygon fill="#191970" stroke="#191970" points="140.8371,-138.9545 131.3855,-143.7418 141.7596,-145.8935 140.8371,-138.9545"/>
</g>
<!-- Node11 -->
<g id="node3" class="node">
<title>Node11</title>
<g id="a_node3"><a xlink:href="classneon_1_1solid_1_1femSubmesh.html#ab21112c060fb89a7fb065c4004e2ab46" target="_top" xlink:title="neon::solid::femSubmesh\l::update_internal_variables">
<polygon fill="#ffffff" stroke="#000000" points="523,-186.5 523,-216.5 656,-216.5 656,-186.5 523,-186.5"/>
<text text-anchor="start" x="531" y="-204.5" font-family="Helvetica,sans-Serif" font-size="10.00" fill="#000000">neon::solid::femSubmesh</text>
<text text-anchor="middle" x="589.5" y="-193.5" font-family="Helvetica,sans-Serif" font-size="10.00" fill="#000000">::update_internal_variables</text>
</a>
</g>
</g>
<!-- Node10&#45;&gt;Node11 -->
<g id="edge2" class="edge">
<title>Node10&#45;&gt;Node11</title>
<path fill="none" stroke="#191970" d="M497.2182,-201.5C505.846,-201.5 514.4986,-201.5 522.8603,-201.5"/>
<polygon fill="#191970" stroke="#191970" points="497.1202,-198.0001 487.1201,-201.5 497.1201,-205.0001 497.1202,-198.0001"/>
</g>
<!-- Node13 -->
<g id="node5" class="node">
<title>Node13</title>
<g id="a_node5"><a xlink:href="classneon_1_1solid_1_1femSubmesh.html#ab924d16740c35a9af36eb08fab10391b" target="_top" xlink:title="neon::solid::femSubmesh\l::deformation_gradient">
<polygon fill="#ffffff" stroke="#000000" points="525.5,-88.5 525.5,-118.5 653.5,-118.5 653.5,-88.5 525.5,-88.5"/>
<text text-anchor="start" x="533.5" y="-106.5" font-family="Helvetica,sans-Serif" font-size="10.00" fill="#000000">neon::solid::femSubmesh</text>
<text text-anchor="middle" x="589.5" y="-95.5" font-family="Helvetica,sans-Serif" font-size="10.00" fill="#000000">::deformation_gradient</text>
</a>
</g>
</g>
<!-- Node10&#45;&gt;Node13 -->
<g id="edge4" class="edge">
<title>Node10&#45;&gt;Node13</title>
<path fill="none" stroke="#191970" d="M478.6264,-181.816C481.5376,-180.1788 484.3451,-178.4101 487,-176.5 508.9362,-160.7179 501.353,-143.6764 523,-127.5 527.5227,-124.1202 532.5672,-121.1802 537.8,-118.6309"/>
<polygon fill="#191970" stroke="#191970" points="476.9896,-178.7215 469.6306,-186.3435 480.1365,-184.9742 476.9896,-178.7215"/>
</g>
<!-- Node12 -->
<g id="node4" class="node">
<title>Node12</title>
<g id="a_node4"><a xlink:href="classneon_1_1solid_1_1femSubmesh.html#a6e725b9d73d74ff4f5971f2f7f74225c" target="_top" xlink:title="neon::solid::femSubmesh\l::internal_variables">
<polygon fill="#ffffff" stroke="#000000" points="692,-137.5 692,-167.5 820,-167.5 820,-137.5 692,-137.5"/>
<text text-anchor="start" x="700" y="-155.5" font-family="Helvetica,sans-Serif" font-size="10.00" fill="#000000">neon::solid::femSubmesh</text>
<text text-anchor="middle" x="756" y="-144.5" font-family="Helvetica,sans-Serif" font-size="10.00" fill="#000000">::internal_variables</text>
</a>
</g>
</g>
<!-- Node11&#45;&gt;Node12 -->
<g id="edge3" class="edge">
<title>Node11&#45;&gt;Node12</title>
<path fill="none" stroke="#191970" d="M650.551,-183.533C668.3906,-178.283 687.6973,-172.6011 704.8554,-167.5516"/>
<polygon fill="#191970" stroke="#191970" points="649.4191,-180.2176 640.8141,-186.3986 651.3954,-186.9329 649.4191,-180.2176"/>
</g>
<!-- Node14&#45;&gt;Node10 -->
<g id="edge17" class="edge">
<title>Node14&#45;&gt;Node10</title>
<path fill="none" stroke="#191970" d="M270.375,-149.9497C288.6006,-158.6047 310.6747,-168.6013 331,-176.5 339.8805,-179.9511 349.4554,-183.3082 358.7529,-186.3841"/>
<polygon fill="#191970" stroke="#191970" points="271.7552,-146.73 261.2247,-145.5642 268.7298,-153.0425 271.7552,-146.73"/>
</g>
<!-- Node14&#45;&gt;Node13 -->
<g id="edge18" class="edge">
<title>Node14&#45;&gt;Node13</title>
<path fill="none" stroke="#191970" d="M305.2652,-124.9068C370.2255,-120.0144 463.5933,-112.9825 525.3589,-108.3307"/>
<polygon fill="#191970" stroke="#191970" points="304.8015,-121.4317 295.0926,-125.6729 305.3273,-128.412 304.8015,-121.4317"/>
</g>
<!-- Node15 -->
<g id="node7" class="node">
<title>Node15</title>
<g id="a_node7"><a xlink:href="classneon_1_1solid_1_1femSubmesh.html#a146b01147a0c5c030a464088509289dd" target="_top" xlink:title="neon::solid::femSubmesh\l::geometric_tangent_stiffness">
<polygon fill="#ffffff" stroke="#000000" points="336,-49.5 336,-79.5 482,-79.5 482,-49.5 336,-49.5"/>
<text text-anchor="start" x="344" y="-67.5" font-family="Helvetica,sans-Serif" font-size="10.00" fill="#000000">neon::solid::femSubmesh</text>
<text text-anchor="middle" x="409" y="-56.5" font-family="Helvetica,sans-Serif" font-size="10.00" fill="#000000">::geometric_tangent_stiffness</text>
</a>
</g>
</g>
<!-- Node14&#45;&gt;Node15 -->
<g id="edge6" class="edge">
<title>Node14&#45;&gt;Node15</title>
<path fill="none" stroke="#191970" d="M281.2967,-111.8507C308.8296,-101.6418 342.4997,-89.1574 368.3532,-79.5713"/>
<polygon fill="#191970" stroke="#191970" points="279.9962,-108.5999 271.8368,-115.3583 282.4298,-115.1633 279.9962,-108.5999"/>
</g>
<!-- Node17 -->
<g id="node9" class="node">
<title>Node17</title>
<g id="a_node9"><a xlink:href="classneon_1_1solid_1_1femSubmesh.html#ac59a58e4a33eea88a87f181c1771621e" target="_top" xlink:title="neon::solid::femSubmesh\l::material_tangent_stiffness">
<polygon fill="#ffffff" stroke="#000000" points="340.5,-.5 340.5,-30.5 477.5,-30.5 477.5,-.5 340.5,-.5"/>
<text text-anchor="start" x="348.5" y="-18.5" font-family="Helvetica,sans-Serif" font-size="10.00" fill="#000000">neon::solid::femSubmesh</text>
<text text-anchor="middle" x="409" y="-7.5" font-family="Helvetica,sans-Serif" font-size="10.00" fill="#000000">::material_tangent_stiffness</text>
</a>
</g>
</g>
<!-- Node14&#45;&gt;Node17 -->
<g id="edge10" class="edge">
<title>Node14&#45;&gt;Node17</title>
<path fill="none" stroke="#191970" d="M250.5208,-107.7502C269.2586,-87.2283 299.3201,-57.5717 331,-39.5 336.9072,-36.1303 343.3414,-33.1804 349.8972,-30.6115"/>
<polygon fill="#191970" stroke="#191970" points="247.7425,-105.6062 243.6801,-115.3913 252.9579,-110.2753 247.7425,-105.6062"/>
</g>
<!-- Node18 -->
<g id="node10" class="node">
<title>Node18</title>
<g id="a_node10"><a xlink:href="classneon_1_1solid_1_1femSubmesh.html#acb75f263f98c1934224fbb21854b347c" target="_top" xlink:title="neon::solid::femSubmesh\l::internal_nodal_force">
<polygon fill="#ffffff" stroke="#000000" points="345,-137.5 345,-167.5 473,-167.5 473,-137.5 345,-137.5"/>
<text text-anchor="start" x="353" y="-155.5" font-family="Helvetica,sans-Serif" font-size="10.00" fill="#000000">neon::solid::femSubmesh</text>
<text text-anchor="middle" x="409" y="-144.5" font-family="Helvetica,sans-Serif" font-size="10.00" fill="#000000">::internal_nodal_force</text>
</a>
</g>
</g>
<!-- Node14&#45;&gt;Node18 -->
<g id="edge13" class="edge">
<title>Node14&#45;&gt;Node18</title>
<path fill="none" stroke="#191970" d="M305.04,-139.651C318.2981,-141.2896 332.0121,-142.9846 344.9594,-144.5849"/>
<polygon fill="#191970" stroke="#191970" points="305.3644,-136.1646 295.0106,-138.4114 304.5057,-143.1117 305.3644,-136.1646"/>
</g>
<!-- Node15&#45;&gt;Node13 -->
<g id="edge9" class="edge">
<title>Node15&#45;&gt;Node13</title>
<path fill="none" stroke="#191970" d="M488.3643,-81.648C500.726,-84.3189 513.3642,-87.0496 525.3329,-89.6356"/>
<polygon fill="#191970" stroke="#191970" points="489.0415,-78.2136 478.5278,-79.5226 487.5631,-85.0557 489.0415,-78.2136"/>
</g>
<!-- Node16 -->
<g id="node8" class="node">
<title>Node16</title>
<g id="a_node8"><a xlink:href="classneon_1_1solid_1_1femSubmesh.html#abdc355d969d95032d707ab251e4db75d" target="_top" xlink:title="neon::solid::femSubmesh\l::tangent_stiffness">
<polygon fill="#ffffff" stroke="#000000" points="525.5,-39.5 525.5,-69.5 653.5,-69.5 653.5,-39.5 525.5,-39.5"/>
<text text-anchor="start" x="533.5" y="-57.5" font-family="Helvetica,sans-Serif" font-size="10.00" fill="#000000">neon::solid::femSubmesh</text>
<text text-anchor="middle" x="589.5" y="-46.5" font-family="Helvetica,sans-Serif" font-size="10.00" fill="#000000">::tangent_stiffness</text>
</a>
</g>
</g>
<!-- Node15&#45;&gt;Node16 -->
<g id="edge7" class="edge">
<title>Node15&#45;&gt;Node16</title>
<path fill="none" stroke="#191970" d="M492.2661,-59.8869C503.3391,-59.2735 514.553,-58.6522 525.236,-58.0603"/>
<polygon fill="#191970" stroke="#191970" points="491.9471,-56.3991 482.1561,-60.447 492.3344,-63.3884 491.9471,-56.3991"/>
</g>
<!-- Node16&#45;&gt;Node12 -->
<g id="edge8" class="edge">
<title>Node16&#45;&gt;Node12</title>
<path fill="none" stroke="#191970" d="M645.9718,-73.5632C649.4122,-75.1286 652.7811,-76.776 656,-78.5 687.4142,-95.3251 719.8756,-121.2027 738.9842,-137.4741"/>
<polygon fill="#191970" stroke="#191970" points="647.3216,-70.3339 636.7512,-69.615 644.5662,-76.7688 647.3216,-70.3339"/>
</g>
<!-- Node17&#45;&gt;Node13 -->
<g id="edge12" class="edge">
<title>Node17&#45;&gt;Node13</title>
<path fill="none" stroke="#191970" d="M478.8381,-34.876C481.6529,-36.3152 484.3867,-37.8545 487,-39.5 506.9616,-52.0689 503.4316,-65.3273 523,-78.5 528.6275,-82.2882 534.9064,-85.6026 541.2971,-88.4719"/>
<polygon fill="#191970" stroke="#191970" points="480.1668,-31.6344 469.6213,-30.6126 477.2279,-37.9876 480.1668,-31.6344"/>
</g>
<!-- Node17&#45;&gt;Node16 -->
<g id="edge11" class="edge">
<title>Node17&#45;&gt;Node16</title>
<path fill="none" stroke="#191970" d="M487.7554,-32.5164C500.3306,-35.2335 513.2086,-38.016 525.391,-40.6482"/>
<polygon fill="#191970" stroke="#191970" points="488.2679,-29.0464 477.7542,-30.3555 486.7895,-35.8885 488.2679,-29.0464"/>
</g>
<!-- Node18&#45;&gt;Node13 -->
<g id="edge16" class="edge">
<title>Node18&#45;&gt;Node13</title>
<path fill="none" stroke="#191970" d="M474.3796,-134.7515C493.9422,-129.4409 515.1958,-123.6712 534.0549,-118.5516"/>
<polygon fill="#191970" stroke="#191970" points="473.3625,-131.4009 464.6288,-137.3986 475.1965,-138.1564 473.3625,-131.4009"/>
</g>
<!-- Node19 -->
<g id="node11" class="node">
<title>Node19</title>
<g id="a_node11"><a xlink:href="classneon_1_1solid_1_1femSubmesh.html#ad0c267e8fd87a1126c216b21ccfd7b55" target="_top" xlink:title="neon::solid::femSubmesh\l::internal_force">
<polygon fill="#ffffff" stroke="#000000" points="525.5,-137.5 525.5,-167.5 653.5,-167.5 653.5,-137.5 525.5,-137.5"/>
<text text-anchor="start" x="533.5" y="-155.5" font-family="Helvetica,sans-Serif" font-size="10.00" fill="#000000">neon::solid::femSubmesh</text>
<text text-anchor="middle" x="589.5" y="-144.5" font-family="Helvetica,sans-Serif" font-size="10.00" fill="#000000">::internal_force</text>
</a>
</g>
</g>
<!-- Node18&#45;&gt;Node19 -->
<g id="edge14" class="edge">
<title>Node18&#45;&gt;Node19</title>
<path fill="none" stroke="#191970" d="M483.1945,-152.5C497.1505,-152.5 511.6357,-152.5 525.2569,-152.5"/>
<polygon fill="#191970" stroke="#191970" points="483.1458,-149.0001 473.1458,-152.5 483.1457,-156.0001 483.1458,-149.0001"/>
</g>
<!-- Node19&#45;&gt;Node12 -->
<g id="edge15" class="edge">
<title>Node19&#45;&gt;Node12</title>
<path fill="none" stroke="#191970" d="M663.894,-152.5C673.2035,-152.5 682.6624,-152.5 691.7979,-152.5"/>
<polygon fill="#191970" stroke="#191970" points="663.8733,-149.0001 653.8732,-152.5 663.8732,-156.0001 663.8733,-149.0001"/>
</g>
</g>
</svg>
        <g id="navigator" transform="translate(0 0)" fill="#404254">
                <rect fill="#f2f5e9" fill-opacity="0.5" stroke="#606060" stroke-width=".5" x="0" y="0" width="60" height="60"/>
                <use id="zoomplus" xlink:href="#zoomPlus" x="17" y="9" onmousedown="handleZoom(evt,'in')"/>
                <use id="zoomminus" xlink:href="#zoomMin" x="42" y="9" onmousedown="handleZoom(evt,'out')"/>
                <use id="reset" xlink:href="#resetDef" x="30" y="36" onmousedown="handleReset()"/>
                <g id="arrowUp" xlink:href="#dirArrow" transform="translate(30 24)" onmousedown="handlePan(0,-1)">
                  <use xlink:href="#rim" fill="#404040">
                        <set attributeName="fill" to="#808080" begin="arrowUp.mouseover" end="arrowUp.mouseout"/>
                  </use>
                  <path fill="none" stroke="white" stroke-width="1.5" d="M0,-3.0v7 M-2.5,-0.5L0,-3.0L2.5,-0.5"/>
                </g>
                <g id="arrowRight" xlink:href="#dirArrow" transform="rotate(90) translate(36 -43)" onmousedown="handlePan(1,0)">
                  <use xlink:href="#rim" fill="#404040">
                        <set attributeName="fill" to="#808080" begin="arrowRight.mouseover" end="arrowRight.mouseout"/>
                  </use>
                  <path fill="none" stroke="white" stroke-width="1.5" d="M0,-3.0v7 M-2.5,-0.5L0,-3.0L2.5,-0.5"/>
                </g>
                <g id="arrowDown" xlink:href="#dirArrow" transform="rotate(180) translate(-30 -48)" onmousedown="handlePan(0,1)">
                  <use xlink:href="#rim" fill="#404040">
                        <set attributeName="fill" to="#808080" begin="arrowDown.mouseover" end="arrowDown.mouseout"/>
                  </use>
                  <path fill="none" stroke="white" stroke-width="1.5" d="M0,-3.0v7 M-2.5,-0.5L0,-3.0L2.5,-0.5"/>
                </g>
                <g id="arrowLeft" xlink:href="#dirArrow" transform="rotate(270) translate(-36 17)" onmousedown="handlePan(-1,0)">
                  <use xlink:href="#rim" fill="#404040">
                        <set attributeName="fill" to="#808080" begin="arrowLeft.mouseover" end="arrowLeft.mouseout"/>
                  </use>
                  <path fill="none" stroke="white" stroke-width="1.5" d="M0,-3.0v7 M-2.5,-0.5L0,-3.0L2.5,-0.5"/>
                </g>
        </g>
        <svg viewBox="0 0 15 15" width="100%" height="30px" preserveAspectRatio="xMaxYMin meet">
         <g id="arrow_out" transform="scale(0.3 0.3)">
          <a xlink:href="classneon_1_1SubMesh_af487d15a392b158f57d0de57e761f6d1_icgraph_org.svg" target="_base">
           <rect id="button" ry="5" rx="5" y="6" x="6" height="38" width="38"
                fill="#f2f5e9" fill-opacity="0.5" stroke="#606060" stroke-width="1.0"/>
           <path id="arrow"
             d="M 11.500037,31.436501 C 11.940474,20.09759 22.043105,11.32322 32.158766,21.979434 L 37.068811,17.246167 C 37.068811,17.246167 37.088388,32 37.088388,32 L 22.160133,31.978069 C 22.160133,31.978069 26.997745,27.140456 26.997745,27.140456 C 18.528582,18.264221 13.291696,25.230495 11.500037,31.436501 z"
             style="fill:#404040;"/>
          </a>
         </g>
        </svg>
</svg>
