<?xml version="1.0" encoding="UTF-8" standalone="no"?>
<!DOCTYPE svg PUBLIC "-//W3C//DTD SVG 1.1//EN"
 "http://www.w3.org/Graphics/SVG/1.1/DTD/svg11.dtd">
<!-- Generated by graphviz version 2.40.1 (20161225.0304)
 -->
<!-- Title: neon::solid::femSubmesh::check_element_distortion Pages: 1 -->
<svg width="475pt" height="88pt"
 viewBox="0.00 0.00 475.00 88.00" xmlns="http://www.w3.org/2000/svg" xmlns:xlink="http://www.w3.org/1999/xlink">
<g id="graph0" class="graph" transform="scale(1 1) rotate(0) translate(4 84)">
<title>neon::solid::femSubmesh::check_element_distortion</title>
<polygon fill="#ffffff" stroke="transparent" points="-4,4 -4,-84 471,-84 471,4 -4,4"/>
<!-- Node6 -->
<g id="node1" class="node">
<title>Node6</title>
<polygon fill="#bfbfbf" stroke="#000000" points="0,-24.5 0,-54.5 134,-54.5 134,-24.5 0,-24.5"/>
<text text-anchor="start" x="8" y="-42.5" font-family="Helvetica,sans-Serif" font-size="10.00" fill="#000000">neon::solid::femSubmesh</text>
<text text-anchor="middle" x="67" y="-31.5" font-family="Helvetica,sans-Serif" font-size="10.00" fill="#000000">::check_element_distortion</text>
</g>
<!-- Node7 -->
<g id="node2" class="node">
<title>Node7</title>
<g id="a_node2"><a xlink:href="classneon_1_1solid_1_1femSubmesh.html#ab21112c060fb89a7fb065c4004e2ab46" target="_top" xlink:title="neon::solid::femSubmesh\l::update_internal_variables">
<polygon fill="#ffffff" stroke="#000000" points="170,-49.5 170,-79.5 303,-79.5 303,-49.5 170,-49.5"/>
<text text-anchor="start" x="178" y="-67.5" font-family="Helvetica,sans-Serif" font-size="10.00" fill="#000000">neon::solid::femSubmesh</text>
<text text-anchor="middle" x="236.5" y="-56.5" font-family="Helvetica,sans-Serif" font-size="10.00" fill="#000000">::update_internal_variables</text>
</a>
</g>
</g>
<!-- Node6&#45;&gt;Node7 -->
<g id="edge1" class="edge">
<title>Node6&#45;&gt;Node7</title>
<path fill="none" stroke="#191970" d="M144.3797,-50.9129C152.871,-52.1653 161.4618,-53.4324 169.8075,-54.6634"/>
<polygon fill="#191970" stroke="#191970" points="144.8816,-47.4492 134.4779,-49.4525 143.8602,-54.3743 144.8816,-47.4492"/>
</g>
<!-- Node9 -->
<g id="node4" class="node">
<title>Node9</title>
<g id="a_node4"><a xlink:href="classneon_1_1solid_1_1femSubmesh.html#ab924d16740c35a9af36eb08fab10391b" target="_top" xlink:title="neon::solid::femSubmesh\l::deformation_gradient">
<polygon fill="#ffffff" stroke="#000000" points="172.5,-.5 172.5,-30.5 300.5,-30.5 300.5,-.5 172.5,-.5"/>
<text text-anchor="start" x="180.5" y="-18.5" font-family="Helvetica,sans-Serif" font-size="10.00" fill="#000000">neon::solid::femSubmesh</text>
<text text-anchor="middle" x="236.5" y="-7.5" font-family="Helvetica,sans-Serif" font-size="10.00" fill="#000000">::deformation_gradient</text>
</a>
</g>
</g>
<!-- Node6&#45;&gt;Node9 -->
<g id="edge3" class="edge">
<title>Node6&#45;&gt;Node9</title>
<path fill="none" stroke="#191970" d="M144.4984,-28.5268C153.795,-27.2104 163.2089,-25.8775 172.2881,-24.5919"/>
<polygon fill="#191970" stroke="#191970" points="143.8885,-25.0781 134.4779,-29.9456 144.8699,-32.009 143.8885,-25.0781"/>
</g>
<!-- Node8 -->
<g id="node3" class="node">
<title>Node8</title>
<g id="a_node3"><a xlink:href="classneon_1_1solid_1_1femSubmesh.html#a6e725b9d73d74ff4f5971f2f7f74225c" target="_top" xlink:title="neon::solid::femSubmesh\l::internal_variables">
<polygon fill="#ffffff" stroke="#000000" points="339,-49.5 339,-79.5 467,-79.5 467,-49.5 339,-49.5"/>
<text text-anchor="start" x="347" y="-67.5" font-family="Helvetica,sans-Serif" font-size="10.00" fill="#000000">neon::solid::femSubmesh</text>
<text text-anchor="middle" x="403" y="-56.5" font-family="Helvetica,sans-Serif" font-size="10.00" fill="#000000">::internal_variables</text>
</a>
</g>
</g>
<!-- Node7&#45;&gt;Node8 -->
<g id="edge2" class="edge">
<title>Node7&#45;&gt;Node8</title>
<path fill="none" stroke="#191970" d="M313.2727,-64.5C321.8547,-64.5 330.5292,-64.5 338.9282,-64.5"/>
<polygon fill="#191970" stroke="#191970" points="313.2626,-61.0001 303.2626,-64.5 313.2625,-68.0001 313.2626,-61.0001"/>
</g>
</g>
</svg>
