<?xml version="1.0" encoding="UTF-8" standalone="no"?>
<!DOCTYPE svg PUBLIC "-//W3C//DTD SVG 1.1//EN"
 "http://www.w3.org/Graphics/SVG/1.1/DTD/svg11.dtd">
<!-- Generated by graphviz version 2.40.1 (20161225.0304)
 -->
<!-- Title: neon::LinearSolver Pages: 1 -->
<svg width="482pt" height="84pt"
 viewBox="0.00 0.00 481.50 84.00" xmlns="http://www.w3.org/2000/svg" xmlns:xlink="http://www.w3.org/1999/xlink">
<g id="graph0" class="graph" transform="scale(1 1) rotate(0) translate(4 80)">
<title>neon::LinearSolver</title>
<polygon fill="#ffffff" stroke="transparent" points="-4,4 -4,-80 477.5,-80 477.5,4 -4,4"/>
<!-- Node0 -->
<g id="node1" class="node">
<title>Node0</title>
<polygon fill="#bfbfbf" stroke="#000000" points="200,-56.5 200,-75.5 298,-75.5 298,-56.5 200,-56.5"/>
<text text-anchor="middle" x="249" y="-63.5" font-family="Helvetica,sans-Serif" font-size="10.00" fill="#000000">neon::LinearSolver</text>
</g>
<!-- Node1 -->
<g id="node2" class="node">
<title>Node1</title>
<g id="a_node2"><a xlink:href="classneon_1_1BiCGSTAB.html" target="_top" xlink:title="neon::BiCGSTAB">
<polygon fill="#ffffff" stroke="#000000" points="0,-.5 0,-19.5 94,-19.5 94,-.5 0,-.5"/>
<text text-anchor="middle" x="47" y="-7.5" font-family="Helvetica,sans-Serif" font-size="10.00" fill="#000000">neon::BiCGSTAB</text>
</a>
</g>
</g>
<!-- Node0&#45;&gt;Node1 -->
<g id="edge1" class="edge">
<title>Node0&#45;&gt;Node1</title>
<path fill="none" stroke="#191970" d="M204.2289,-53.5882C167.1162,-43.2996 115.1371,-28.8895 81.2719,-19.5011"/>
<polygon fill="#191970" stroke="#191970" points="203.7034,-57.0745 214.275,-56.3733 205.5735,-50.3289 203.7034,-57.0745"/>
</g>
<!-- Node2 -->
<g id="node3" class="node">
<title>Node2</title>
<g id="a_node3"><a xlink:href="classneon_1_1MUMPS.html" target="_top" xlink:title="neon::MUMPS">
<polygon fill="#ffffff" stroke="#000000" points="112.5,-.5 112.5,-19.5 193.5,-19.5 193.5,-.5 112.5,-.5"/>
<text text-anchor="middle" x="153" y="-7.5" font-family="Helvetica,sans-Serif" font-size="10.00" fill="#000000">neon::MUMPS</text>
</a>
</g>
</g>
<!-- Node0&#45;&gt;Node2 -->
<g id="edge2" class="edge">
<title>Node0&#45;&gt;Node2</title>
<path fill="none" stroke="#191970" d="M223.3654,-51.0465C206.2841,-41.0824 184.336,-28.2794 169.5303,-19.6427"/>
<polygon fill="#191970" stroke="#191970" points="221.8767,-54.23 232.2781,-56.2455 225.4038,-48.1836 221.8767,-54.23"/>
</g>
<!-- Node3 -->
<g id="node4" class="node">
<title>Node3</title>
<g id="a_node4"><a xlink:href="classneon_1_1PaStiX.html" target="_top" xlink:title="neon::PaStiX">
<polygon fill="#ffffff" stroke="#000000" points="212,-.5 212,-19.5 286,-19.5 286,-.5 212,-.5"/>
<text text-anchor="middle" x="249" y="-7.5" font-family="Helvetica,sans-Serif" font-size="10.00" fill="#000000">neon::PaStiX</text>
</a>
</g>
</g>
<!-- Node0&#45;&gt;Node3 -->
<g id="edge3" class="edge">
<title>Node0&#45;&gt;Node3</title>
<path fill="none" stroke="#191970" d="M249,-46.1575C249,-37.155 249,-26.9199 249,-19.6427"/>
<polygon fill="#191970" stroke="#191970" points="245.5001,-46.2455 249,-56.2455 252.5001,-46.2456 245.5001,-46.2455"/>
</g>
<!-- Node4 -->
<g id="node5" class="node">
<title>Node4</title>
<g id="a_node5"><a xlink:href="classneon_1_1pCG.html" target="_top" xlink:title="neon::pCG">
<polygon fill="#ffffff" stroke="#000000" points="304,-.5 304,-19.5 368,-19.5 368,-.5 304,-.5"/>
<text text-anchor="middle" x="336" y="-7.5" font-family="Helvetica,sans-Serif" font-size="10.00" fill="#000000">neon::pCG</text>
</a>
</g>
</g>
<!-- Node0&#45;&gt;Node4 -->
<g id="edge4" class="edge">
<title>Node0&#45;&gt;Node4</title>
<path fill="none" stroke="#191970" d="M272.6625,-50.769C288.0791,-40.8456 307.726,-28.1994 321.0194,-19.6427"/>
<polygon fill="#191970" stroke="#191970" points="270.6685,-47.89 264.1542,-56.2455 274.4573,-53.7761 270.6685,-47.89"/>
</g>
<!-- Node5 -->
<g id="node6" class="node">
<title>Node5</title>
<g id="a_node6"><a xlink:href="classneon_1_1SparseLU.html" target="_top" xlink:title="neon::SparseLU">
<polygon fill="#ffffff" stroke="#000000" points="386.5,-.5 386.5,-19.5 473.5,-19.5 473.5,-.5 386.5,-.5"/>
<text text-anchor="middle" x="430" y="-7.5" font-family="Helvetica,sans-Serif" font-size="10.00" fill="#000000">neon::SparseLU</text>
</a>
</g>
</g>
<!-- Node0&#45;&gt;Node5 -->
<g id="edge5" class="edge">
<title>Node0&#45;&gt;Node5</title>
<path fill="none" stroke="#191970" d="M289.9722,-53.3235C323.1661,-43.0536 369.2058,-28.8093 399.291,-19.5011"/>
<polygon fill="#191970" stroke="#191970" points="288.6337,-50.0739 280.115,-56.3733 290.7027,-56.7611 288.6337,-50.0739"/>
</g>
</g>
</svg>
