<?xml version="1.0" encoding="UTF-8" standalone="no"?>
<!DOCTYPE svg PUBLIC "-//W3C//DTD SVG 1.1//EN"
 "http://www.w3.org/Graphics/SVG/1.1/DTD/svg11.dtd">
<!-- Generated by graphviz version 2.40.1 (20161225.0304)
 -->
<!-- Title: neon::AffineMicrosphere Pages: 1 -->
<svg width="456pt" height="219pt"
 viewBox="0.00 0.00 456.00 219.00" xmlns="http://www.w3.org/2000/svg" xmlns:xlink="http://www.w3.org/1999/xlink">
<g id="graph0" class="graph" transform="scale(1 1) rotate(0) translate(4 215)">
<title>neon::AffineMicrosphere</title>
<polygon fill="#ffffff" stroke="transparent" points="-4,4 -4,-215 452,-215 452,4 -4,4"/>
<!-- Node3 -->
<g id="node1" class="node">
<title>Node3</title>
<polygon fill="#bfbfbf" stroke="#000000" points="148,-.5 148,-19.5 270,-19.5 270,-.5 148,-.5"/>
<text text-anchor="middle" x="209" y="-7.5" font-family="Helvetica,sans-Serif" font-size="10.00" fill="#000000">neon::AffineMicrosphere</text>
</g>
<!-- Node4 -->
<g id="node2" class="node">
<title>Node4</title>
<g id="a_node2"><a xlink:href="classneon_1_1Hyperelastic.html" target="_top" xlink:title="neon::Hyperelastic">
<polygon fill="#ffffff" stroke="#000000" points="12,-67.5 12,-86.5 110,-86.5 110,-67.5 12,-67.5"/>
<text text-anchor="middle" x="61" y="-74.5" font-family="Helvetica,sans-Serif" font-size="10.00" fill="#000000">neon::Hyperelastic</text>
</a>
</g>
</g>
<!-- Node4&#45;&gt;Node3 -->
<g id="edge1" class="edge">
<title>Node4&#45;&gt;Node3</title>
<path fill="none" stroke="#191970" d="M91.39,-63.2424C120.1505,-50.2224 162.575,-31.0167 187.8345,-19.5817"/>
<polygon fill="#191970" stroke="#191970" points="89.8713,-60.0879 82.2048,-67.4005 92.7582,-66.4649 89.8713,-60.0879"/>
</g>
<!-- Node5 -->
<g id="node3" class="node">
<title>Node5</title>
<g id="a_node3"><a xlink:href="classneon_1_1ConstitutiveModel.html" target="_top" xlink:title="neon::ConstitutiveModel">
<polygon fill="#ffffff" stroke="#000000" points="0,-124.5 0,-143.5 122,-143.5 122,-124.5 0,-124.5"/>
<text text-anchor="middle" x="61" y="-131.5" font-family="Helvetica,sans-Serif" font-size="10.00" fill="#000000">neon::ConstitutiveModel</text>
</a>
</g>
</g>
<!-- Node5&#45;&gt;Node4 -->
<g id="edge2" class="edge">
<title>Node5&#45;&gt;Node4</title>
<path fill="none" stroke="#191970" d="M61,-114.2342C61,-104.8491 61,-94.0651 61,-86.5265"/>
<polygon fill="#191970" stroke="#191970" points="57.5001,-114.3307 61,-124.3307 64.5001,-114.3308 57.5001,-114.3307"/>
</g>
<!-- Node6 -->
<g id="node4" class="node">
<title>Node6</title>
<g id="a_node4"><a xlink:href="classneon_1_1InternalVariables.html" target="_top" xlink:title="neon::InternalVariables">
<polygon fill="#ffffff" stroke="#000000" points="3,-191.5 3,-210.5 119,-210.5 119,-191.5 3,-191.5"/>
<text text-anchor="middle" x="61" y="-198.5" font-family="Helvetica,sans-Serif" font-size="10.00" fill="#000000">neon::InternalVariables</text>
</a>
</g>
</g>
<!-- Node6&#45;&gt;Node5 -->
<g id="edge3" class="edge">
<title>Node6&#45;&gt;Node5</title>
<path fill="none" stroke="#9a32cd" stroke-dasharray="5,2" d="M61,-181.1079C61,-168.714 61,-153.3263 61,-143.5817"/>
<polygon fill="#9a32cd" stroke="#9a32cd" points="57.5001,-181.4005 61,-191.4005 64.5001,-181.4006 57.5001,-181.4005"/>
<text text-anchor="middle" x="82.5" y="-165" font-family="Helvetica,sans-Serif" font-size="10.00" fill="#000000"> variables</text>
</g>
<!-- Node7 -->
<g id="node5" class="node">
<title>Node7</title>
<g id="a_node5"><a xlink:href="classneon_1_1MicromechanicalElastomer.html" target="_top" xlink:title="neon::MicromechanicalElastomer">
<polygon fill="#ffffff" stroke="#000000" points="128.5,-67.5 128.5,-86.5 289.5,-86.5 289.5,-67.5 128.5,-67.5"/>
<text text-anchor="middle" x="209" y="-74.5" font-family="Helvetica,sans-Serif" font-size="10.00" fill="#000000">neon::MicromechanicalElastomer</text>
</a>
</g>
</g>
<!-- Node7&#45;&gt;Node3 -->
<g id="edge4" class="edge">
<title>Node7&#45;&gt;Node3</title>
<path fill="none" stroke="#9a32cd" stroke-dasharray="5,2" d="M209,-57.1079C209,-44.714 209,-29.3263 209,-19.5817"/>
<polygon fill="#9a32cd" stroke="#9a32cd" points="205.5001,-57.4005 209,-67.4005 212.5001,-57.4006 205.5001,-57.4005"/>
<text text-anchor="middle" x="228" y="-41" font-family="Helvetica,sans-Serif" font-size="10.00" fill="#000000"> material</text>
</g>
<!-- Node8 -->
<g id="node6" class="node">
<title>Node8</title>
<g id="a_node6"><a xlink:href="classneon_1_1LinearElastic.html" target="_top" xlink:title="neon::LinearElastic">
<polygon fill="#ffffff" stroke="#000000" points="159,-124.5 159,-143.5 259,-143.5 259,-124.5 159,-124.5"/>
<text text-anchor="middle" x="209" y="-131.5" font-family="Helvetica,sans-Serif" font-size="10.00" fill="#000000">neon::LinearElastic</text>
</a>
</g>
</g>
<!-- Node8&#45;&gt;Node7 -->
<g id="edge5" class="edge">
<title>Node8&#45;&gt;Node7</title>
<path fill="none" stroke="#191970" d="M209,-114.2342C209,-104.8491 209,-94.0651 209,-86.5265"/>
<polygon fill="#191970" stroke="#191970" points="205.5001,-114.3307 209,-124.3307 212.5001,-114.3308 205.5001,-114.3307"/>
</g>
<!-- Node9 -->
<g id="node7" class="node">
<title>Node9</title>
<g id="a_node7"><a xlink:href="classneon_1_1Material.html" target="_top" xlink:title="neon::Material">
<polygon fill="#ffffff" stroke="#000000" points="170,-191.5 170,-210.5 248,-210.5 248,-191.5 170,-191.5"/>
<text text-anchor="middle" x="209" y="-198.5" font-family="Helvetica,sans-Serif" font-size="10.00" fill="#000000">neon::Material</text>
</a>
</g>
</g>
<!-- Node9&#45;&gt;Node8 -->
<g id="edge6" class="edge">
<title>Node9&#45;&gt;Node8</title>
<path fill="none" stroke="#191970" d="M209,-181.1079C209,-168.714 209,-153.3263 209,-143.5817"/>
<polygon fill="#191970" stroke="#191970" points="205.5001,-181.4005 209,-191.4005 212.5001,-181.4006 205.5001,-181.4005"/>
</g>
<!-- Node10 -->
<g id="node8" class="node">
<title>Node10</title>
<g id="a_node8"><a xlink:href="classneon_1_1UnitSphereQuadrature.html" target="_top" xlink:title="neon::UnitSphereQuadrature">
<polygon fill="#ffffff" stroke="#000000" points="308,-67.5 308,-86.5 448,-86.5 448,-67.5 308,-67.5"/>
<text text-anchor="middle" x="378" y="-74.5" font-family="Helvetica,sans-Serif" font-size="10.00" fill="#000000">neon::UnitSphereQuadrature</text>
</a>
</g>
</g>
<!-- Node10&#45;&gt;Node3 -->
<g id="edge7" class="edge">
<title>Node10&#45;&gt;Node3</title>
<path fill="none" stroke="#9a32cd" stroke-dasharray="5,2" d="M344.1511,-63.5806C311.3005,-50.557 262.2631,-31.1162 233.1687,-19.5817"/>
<polygon fill="#9a32cd" stroke="#9a32cd" points="343.2004,-66.9687 353.7864,-67.4005 345.7802,-60.4614 343.2004,-66.9687"/>
<text text-anchor="middle" x="331" y="-41" font-family="Helvetica,sans-Serif" font-size="10.00" fill="#000000"> unit_sphere</text>
</g>
<!-- Node11 -->
<g id="node9" class="node">
<title>Node11</title>
<g id="a_node9"><a xlink:href="classneon_1_1NumericalQuadrature.html" target="_top" xlink:title="VolumeQuadrature">
<polygon fill="#ffffff" stroke="#000000" points="329,-124.5 329,-143.5 427,-143.5 427,-124.5 329,-124.5"/>
<text text-anchor="middle" x="378" y="-131.5" font-family="Helvetica,sans-Serif" font-size="10.00" fill="#000000">VolumeQuadrature</text>
</a>
</g>
</g>
<!-- Node11&#45;&gt;Node10 -->
<g id="edge8" class="edge">
<title>Node11&#45;&gt;Node10</title>
<path fill="none" stroke="#191970" d="M378,-114.2342C378,-104.8491 378,-94.0651 378,-86.5265"/>
<polygon fill="#191970" stroke="#191970" points="374.5001,-114.3307 378,-124.3307 381.5001,-114.3308 374.5001,-114.3307"/>
</g>
</g>
</svg>
