<?xml version="1.0" encoding="UTF-8" standalone="no"?>
<!DOCTYPE svg PUBLIC "-//W3C//DTD SVG 1.1//EN"
 "http://www.w3.org/Graphics/SVG/1.1/DTD/svg11.dtd">
<!-- Generated by graphviz version 2.40.1 (20161225.0304)
 -->
<!-- Title: neon::NodalCoordinates Pages: 1 -->
<svg width="276pt" height="84pt"
 viewBox="0.00 0.00 275.50 84.00" xmlns="http://www.w3.org/2000/svg" xmlns:xlink="http://www.w3.org/1999/xlink">
<g id="graph0" class="graph" transform="scale(1 1) rotate(0) translate(4 80)">
<title>neon::NodalCoordinates</title>
<polygon fill="#ffffff" stroke="transparent" points="-4,4 -4,-80 271.5,-80 271.5,4 -4,4"/>
<!-- Node0 -->
<g id="node1" class="node">
<title>Node0</title>
<polygon fill="#bfbfbf" stroke="#000000" points="56,-56.5 56,-75.5 178,-75.5 178,-56.5 56,-56.5"/>
<text text-anchor="middle" x="117" y="-63.5" font-family="Helvetica,sans-Serif" font-size="10.00" fill="#000000">neon::NodalCoordinates</text>
</g>
<!-- Node1 -->
<g id="node2" class="node">
<title>Node1</title>
<g id="a_node2"><a xlink:href="classneon_1_1BasicMesh.html" target="_top" xlink:title="neon::BasicMesh">
<polygon fill="#ffffff" stroke="#000000" points="0,-.5 0,-19.5 92,-19.5 92,-.5 0,-.5"/>
<text text-anchor="middle" x="46" y="-7.5" font-family="Helvetica,sans-Serif" font-size="10.00" fill="#000000">neon::BasicMesh</text>
</a>
</g>
</g>
<!-- Node0&#45;&gt;Node1 -->
<g id="edge1" class="edge">
<title>Node0&#45;&gt;Node1</title>
<path fill="none" stroke="#191970" d="M96.623,-49.928C84.2129,-40.1397 68.77,-27.9595 58.2255,-19.6427"/>
<polygon fill="#191970" stroke="#191970" points="94.6136,-52.8007 104.6327,-56.2455 98.9486,-47.3046 94.6136,-52.8007"/>
</g>
<!-- Node2 -->
<g id="node3" class="node">
<title>Node2</title>
<g id="a_node3"><a xlink:href="classneon_1_1solid_1_1MaterialCoordinates.html" target="_top" xlink:title="neon::solid::MaterialCoordinates">
<polygon fill="#ffffff" stroke="#000000" points="110.5,-.5 110.5,-19.5 267.5,-19.5 267.5,-.5 110.5,-.5"/>
<text text-anchor="middle" x="189" y="-7.5" font-family="Helvetica,sans-Serif" font-size="10.00" fill="#000000">neon::solid::MaterialCoordinates</text>
</a>
</g>
</g>
<!-- Node0&#45;&gt;Node2 -->
<g id="edge2" class="edge">
<title>Node0&#45;&gt;Node2</title>
<path fill="none" stroke="#191970" d="M137.664,-49.928C150.2489,-40.1397 165.9092,-27.9595 176.6023,-19.6427"/>
<polygon fill="#191970" stroke="#191970" points="135.2862,-47.3434 129.5414,-56.2455 139.5838,-52.8688 135.2862,-47.3434"/>
</g>
</g>
</svg>
