<?xml version="1.0" encoding="UTF-8" standalone="no"?>
<!DOCTYPE svg PUBLIC "-//W3C//DTD SVG 1.1//EN"
 "http://www.w3.org/Graphics/SVG/1.1/DTD/svg11.dtd">
<!-- Generated by graphviz version 2.40.1 (20161225.0304)
 -->
<!-- Title: neon::solid::femStaticMatrix::compute_sparsity_pattern Pages: 1 -->
<!--zoomable 541 -->
<svg id="main" version="1.1" xmlns="http://www.w3.org/2000/svg" xmlns:xlink="http://www.w3.org/1999/xlink" xml:space="preserve" onload="init(evt)">
<style type="text/css"><![CDATA[
.edge:hover path { stroke: red; }
.edge:hover polygon { stroke: red; fill: red; }
]]></style>
<script type="text/javascript"><![CDATA[
var edges = document.getElementsByTagName('g');
if (edges && edges.length) {
  for (var i=0;i<edges.length;i++) {
    if (edges[i].id.substr(0,4)=='edge') {
      edges[i].setAttribute('class','edge');
    }
  }
}
]]></script>
        <defs>
                <circle id="rim" cx="0" cy="0" r="7"/>
                <circle id="rim2" cx="0" cy="0" r="3.5"/>
                <g id="zoomPlus">
                        <use xlink:href="#rim" fill="#404040">
                                <set attributeName="fill" to="#808080" begin="zoomplus.mouseover" end="zoomplus.mouseout"/>
                        </use>
                        <path d="M-4,0h8M0,-4v8" fill="none" stroke="white" stroke-width="1.5" pointer-events="none"/>
                </g>
                <g id="zoomMin">
                        <use xlink:href="#rim" fill="#404040">
                                <set attributeName="fill" to="#808080" begin="zoomminus.mouseover" end="zoomminus.mouseout"/>
                        </use>
                        <path d="M-4,0h8" fill="none" stroke="white" stroke-width="1.5" pointer-events="none"/>
                </g>
                <g id="dirArrow">
                        <path fill="none" stroke="white" stroke-width="1.5" d="M0,-3.0v7 M-2.5,-0.5L0,-3.0L2.5,-0.5"/>
                </g>
               <g id="resetDef">
                       <use xlink:href="#rim2" fill="#404040">
                               <set attributeName="fill" to="#808080" begin="reset.mouseover" end="reset.mouseout"/>
                       </use>
               </g>
        </defs>

<script type="text/javascript">
var viewWidth = 701;
var viewHeight = 541;
var sectionId = 'dynsection-6';
</script>
<script xlink:href="svgpan.js"/>
<svg id="graph" class="graph">
<g id="viewport">
<title>neon::solid::femStaticMatrix::compute_sparsity_pattern</title>
<polygon fill="#ffffff" stroke="transparent" points="-4,4 -4,-537 697,-537 697,4 -4,4"/>
<!-- Node40 -->
<g id="node1" class="node">
<title>Node40</title>
<polygon fill="#bfbfbf" stroke="#000000" points="0,-294.5 0,-324.5 139,-324.5 139,-294.5 0,-294.5"/>
<text text-anchor="start" x="8" y="-312.5" font-family="Helvetica,sans-Serif" font-size="10.00" fill="#000000">neon::solid::femStaticMatrix</text>
<text text-anchor="middle" x="69.5" y="-301.5" font-family="Helvetica,sans-Serif" font-size="10.00" fill="#000000">::compute_sparsity_pattern</text>
</g>
<!-- Node41 -->
<g id="node2" class="node">
<title>Node41</title>
<g id="a_node2"><a xlink:href="classneon_1_1solid_1_1femMesh.html#acb70b613e02175d0676d0a77046a079a" target="_top" xlink:title="neon::solid::femMesh\l::meshes">
<polygon fill="#ffffff" stroke="#000000" points="568,-502.5 568,-532.5 678,-532.5 678,-502.5 568,-502.5"/>
<text text-anchor="start" x="576" y="-520.5" font-family="Helvetica,sans-Serif" font-size="10.00" fill="#000000">neon::solid::femMesh</text>
<text text-anchor="middle" x="623" y="-509.5" font-family="Helvetica,sans-Serif" font-size="10.00" fill="#000000">::meshes</text>
</a>
</g>
</g>
<!-- Node40&#45;&gt;Node41 -->
<g id="edge1" class="edge">
<title>Node40&#45;&gt;Node41</title>
<path fill="none" stroke="#191970" d="M77.9847,-324.6884C93.7777,-351.6997 130.1836,-408.3574 175,-441.5 300.3503,-534.1989 361.1038,-520.9706 517,-519.5 530.2,-519.3755 544.3234,-519.1638 557.8168,-518.9235"/>
<polygon fill="#191970" stroke="#191970" points="558.0533,-522.4198 567.9868,-518.7351 557.9236,-515.421 558.0533,-522.4198"/>
</g>
<!-- Node42 -->
<g id="node3" class="node">
<title>Node42</title>
<g id="a_node3"><a xlink:href="classneon_1_1AdaptiveLoadStep.html#a0787efff1178880877eccf47c1db2fbf" target="_top" xlink:title="neon::AdaptiveLoadStep\l::is_fully_applied">
<polygon fill="#ffffff" stroke="#000000" points="194,-206.5 194,-236.5 317,-236.5 317,-206.5 194,-206.5"/>
<text text-anchor="start" x="202" y="-224.5" font-family="Helvetica,sans-Serif" font-size="10.00" fill="#000000">neon::AdaptiveLoadStep</text>
<text text-anchor="middle" x="255.5" y="-213.5" font-family="Helvetica,sans-Serif" font-size="10.00" fill="#000000">::is_fully_applied</text>
</a>
</g>
</g>
<!-- Node40&#45;&gt;Node42 -->
<g id="edge2" class="edge">
<title>Node40&#45;&gt;Node42</title>
<path fill="none" stroke="#191970" d="M94.5469,-294.3723C115.5937,-281.9935 146.688,-264.474 175,-251.5 183.6543,-247.5341 192.9974,-243.6809 202.1477,-240.1308"/>
<polygon fill="#191970" stroke="#191970" points="203.4714,-243.372 211.5766,-236.5488 200.9855,-236.8283 203.4714,-243.372"/>
</g>
<!-- Node43 -->
<g id="node4" class="node">
<title>Node43</title>
<g id="a_node4"><a xlink:href="classneon_1_1AdaptiveLoadStep.html#a2a366b816adaf44b33d2fc69eea50921" target="_top" xlink:title="neon::AdaptiveLoadStep\l::step_time">
<polygon fill="#ffffff" stroke="#000000" points="194,-157.5 194,-187.5 317,-187.5 317,-157.5 194,-157.5"/>
<text text-anchor="start" x="202" y="-175.5" font-family="Helvetica,sans-Serif" font-size="10.00" fill="#000000">neon::AdaptiveLoadStep</text>
<text text-anchor="middle" x="255.5" y="-164.5" font-family="Helvetica,sans-Serif" font-size="10.00" fill="#000000">::step_time</text>
</a>
</g>
</g>
<!-- Node40&#45;&gt;Node43 -->
<g id="edge3" class="edge">
<title>Node40&#45;&gt;Node43</title>
<path fill="none" stroke="#191970" d="M79.6042,-294.2805C96.4929,-270.0187 132.7932,-222.6526 175,-196.5 178.0043,-194.6385 181.1611,-192.9143 184.4148,-191.3182"/>
<polygon fill="#191970" stroke="#191970" points="186.0764,-194.4099 193.7941,-187.1513 183.2344,-188.0128 186.0764,-194.4099"/>
</g>
<!-- Node44 -->
<g id="node5" class="node">
<title>Node44</title>
<g id="a_node5"><a xlink:href="classneon_1_1solid_1_1femStaticMatrix.html#a9d09a3000b8ab1f5088e65a991325514" target="_top" xlink:title="neon::solid::femStaticMatrix\l::apply_displacement_boundaries">
<polygon fill="#ffffff" stroke="#000000" points="175,-294.5 175,-324.5 336,-324.5 336,-294.5 175,-294.5"/>
<text text-anchor="start" x="183" y="-312.5" font-family="Helvetica,sans-Serif" font-size="10.00" fill="#000000">neon::solid::femStaticMatrix</text>
<text text-anchor="middle" x="255.5" y="-301.5" font-family="Helvetica,sans-Serif" font-size="10.00" fill="#000000">::apply_displacement_boundaries</text>
</a>
</g>
</g>
<!-- Node40&#45;&gt;Node44 -->
<g id="edge4" class="edge">
<title>Node40&#45;&gt;Node44</title>
<path fill="none" stroke="#191970" d="M139.024,-309.5C147.4046,-309.5 156.0573,-309.5 164.6848,-309.5"/>
<polygon fill="#191970" stroke="#191970" points="164.7836,-313.0001 174.7836,-309.5 164.7835,-306.0001 164.7836,-313.0001"/>
</g>
<!-- Node48 -->
<g id="node9" class="node">
<title>Node48</title>
<g id="a_node9"><a xlink:href="classneon_1_1solid_1_1femMesh.html#ac97399e3e5c8ef3e610e14624f83178b" target="_top" xlink:title="neon::solid::femMesh\l::update_internal_variables">
<polygon fill="#ffffff" stroke="#000000" points="378,-431.5 378,-461.5 511,-461.5 511,-431.5 378,-431.5"/>
<text text-anchor="start" x="386" y="-449.5" font-family="Helvetica,sans-Serif" font-size="10.00" fill="#000000">neon::solid::femMesh</text>
<text text-anchor="middle" x="444.5" y="-438.5" font-family="Helvetica,sans-Serif" font-size="10.00" fill="#000000">::update_internal_variables</text>
</a>
</g>
</g>
<!-- Node40&#45;&gt;Node48 -->
<g id="edge20" class="edge">
<title>Node40&#45;&gt;Node48</title>
<path fill="none" stroke="#191970" d="M110.7043,-324.5533C179.7156,-349.7654 318.4698,-400.4569 393.5166,-427.8741"/>
<polygon fill="#191970" stroke="#191970" points="392.6338,-431.2777 403.2276,-431.4218 395.0358,-424.7028 392.6338,-431.2777"/>
</g>
<!-- Node49 -->
<g id="node10" class="node">
<title>Node49</title>
<g id="a_node10"><a xlink:href="classneon_1_1AdaptiveLoadStep.html#a18f8a4e6d7e7a0b8c2e167377507e8b1" target="_top" xlink:title="neon::AdaptiveLoadStep\l::increment">
<polygon fill="#ffffff" stroke="#000000" points="383,-.5 383,-30.5 506,-30.5 506,-.5 383,-.5"/>
<text text-anchor="start" x="391" y="-18.5" font-family="Helvetica,sans-Serif" font-size="10.00" fill="#000000">neon::AdaptiveLoadStep</text>
<text text-anchor="middle" x="444.5" y="-7.5" font-family="Helvetica,sans-Serif" font-size="10.00" fill="#000000">::increment</text>
</a>
</g>
</g>
<!-- Node40&#45;&gt;Node49 -->
<g id="edge21" class="edge">
<title>Node40&#45;&gt;Node49</title>
<path fill="none" stroke="#191970" d="M133.0633,-294.4579C211.6095,-275.8387 335.1118,-246.4457 336,-245.5 399.6292,-177.7523 311.2713,-109.8594 372,-39.5 372.8771,-38.4838 373.7983,-37.5104 374.7586,-36.578"/>
<polygon fill="#191970" stroke="#191970" points="377.1408,-39.1561 382.8077,-30.2041 372.7952,-33.6684 377.1408,-39.1561"/>
</g>
<!-- Node45 -->
<g id="node6" class="node">
<title>Node45</title>
<g id="a_node6"><a xlink:href="classneon_1_1AdaptiveLoadStep.html#a1ba6cc17eb26efcfe694f06578c5ba14" target="_top" xlink:title="neon::AdaptiveLoadStep\l::factor">
<polygon fill="#ffffff" stroke="#000000" points="383,-196.5 383,-226.5 506,-226.5 506,-196.5 383,-196.5"/>
<text text-anchor="start" x="391" y="-214.5" font-family="Helvetica,sans-Serif" font-size="10.00" fill="#000000">neon::AdaptiveLoadStep</text>
<text text-anchor="middle" x="444.5" y="-203.5" font-family="Helvetica,sans-Serif" font-size="10.00" fill="#000000">::factor</text>
</a>
</g>
</g>
<!-- Node44&#45;&gt;Node45 -->
<g id="edge5" class="edge">
<title>Node44&#45;&gt;Node45</title>
<path fill="none" stroke="#191970" d="M308.2094,-294.4471C317.9234,-290.4261 327.6297,-285.487 336,-279.5 356.5511,-264.8006 351.1802,-249.8163 372,-235.5 374.1508,-234.021 376.3997,-232.6276 378.7187,-231.3153"/>
<polygon fill="#191970" stroke="#191970" points="380.6075,-234.2822 387.9523,-226.6464 377.4489,-228.0354 380.6075,-234.2822"/>
</g>
<!-- Node46 -->
<g id="node7" class="node">
<title>Node46</title>
<g id="a_node7"><a xlink:href="classneon_1_1solid_1_1femStaticMatrix.html#a38f9c7ef5b0a03920dd67cc054a83042" target="_top" xlink:title="neon::solid::femStaticMatrix\l::assemble_stiffness">
<polygon fill="#ffffff" stroke="#000000" points="375,-480.5 375,-510.5 514,-510.5 514,-480.5 375,-480.5"/>
<text text-anchor="start" x="383" y="-498.5" font-family="Helvetica,sans-Serif" font-size="10.00" fill="#000000">neon::solid::femStaticMatrix</text>
<text text-anchor="middle" x="444.5" y="-487.5" font-family="Helvetica,sans-Serif" font-size="10.00" fill="#000000">::assemble_stiffness</text>
</a>
</g>
</g>
<!-- Node44&#45;&gt;Node46 -->
<g id="edge6" class="edge">
<title>Node44&#45;&gt;Node46</title>
<path fill="none" stroke="#191970" d="M262.5131,-324.7606C277.8493,-356.4942 317.4114,-430.0062 372,-470.5 374.4862,-472.3442 377.1188,-474.0597 379.8507,-475.6546"/>
<polygon fill="#191970" stroke="#191970" points="378.3704,-478.8299 388.8559,-480.3477 381.6055,-472.6223 378.3704,-478.8299"/>
</g>
<!-- Node47 -->
<g id="node8" class="node">
<title>Node47</title>
<g id="a_node8"><a xlink:href="classneon_1_1solid_1_1femStaticMatrix.html#a7231eee3e12f6ce6290c328bb1f2ef1c" target="_top" xlink:title="neon::solid::femStaticMatrix\l::enforce_dirichlet_conditions">
<polygon fill="#ffffff" stroke="#000000" points="373,-147.5 373,-177.5 516,-177.5 516,-147.5 373,-147.5"/>
<text text-anchor="start" x="381" y="-165.5" font-family="Helvetica,sans-Serif" font-size="10.00" fill="#000000">neon::solid::femStaticMatrix</text>
<text text-anchor="middle" x="444.5" y="-154.5" font-family="Helvetica,sans-Serif" font-size="10.00" fill="#000000">::enforce_dirichlet_conditions</text>
</a>
</g>
</g>
<!-- Node44&#45;&gt;Node47 -->
<g id="edge9" class="edge">
<title>Node44&#45;&gt;Node47</title>
<path fill="none" stroke="#191970" d="M314.4297,-294.3299C322.3465,-290.4421 329.8447,-285.5781 336,-279.5 367.5373,-248.3577 339.8912,-217.0528 372,-186.5 373.2547,-185.3061 374.57,-184.1716 375.9367,-183.0935"/>
<polygon fill="#191970" stroke="#191970" points="377.9009,-185.9905 384.2584,-177.515 374.0032,-180.176 377.9009,-185.9905"/>
</g>
<!-- Node44&#45;&gt;Node48 -->
<g id="edge10" class="edge">
<title>Node44&#45;&gt;Node48</title>
<path fill="none" stroke="#191970" d="M271.6191,-324.8899C300.9115,-352.769 360.8854,-409.413 372,-416.5 378.1592,-420.4273 384.9192,-424.0256 391.7581,-427.2604"/>
<polygon fill="#191970" stroke="#191970" points="390.5271,-430.5442 401.0837,-431.4431 393.3918,-424.1572 390.5271,-430.5442"/>
</g>
<!-- Node44&#45;&gt;Node49 -->
<g id="edge11" class="edge">
<title>Node44&#45;&gt;Node49</title>
<path fill="none" stroke="#191970" d="M317.6841,-294.4061C324.6524,-290.5222 331.0205,-285.6392 336,-279.5 403.9456,-195.7315 302.5144,-121.9957 372,-39.5 372.8648,-38.4733 373.7746,-37.4902 374.7245,-36.5489"/>
<polygon fill="#191970" stroke="#191970" points="377.1148,-39.118 382.7106,-30.1214 372.7259,-33.6648 377.1148,-39.118"/>
</g>
<!-- Node50 -->
<g id="node11" class="node">
<title>Node50</title>
<g id="a_node11"><a xlink:href="classneon_1_1solid_1_1femStaticMatrix.html#a69e60955282781d6ca2b73087677412a" target="_top" xlink:title="neon::solid::femStaticMatrix\l::print_convergence_progress">
<polygon fill="#ffffff" stroke="#000000" points="372,-98.5 372,-128.5 517,-128.5 517,-98.5 372,-98.5"/>
<text text-anchor="start" x="380" y="-116.5" font-family="Helvetica,sans-Serif" font-size="10.00" fill="#000000">neon::solid::femStaticMatrix</text>
<text text-anchor="middle" x="444.5" y="-105.5" font-family="Helvetica,sans-Serif" font-size="10.00" fill="#000000">::print_convergence_progress</text>
</a>
</g>
</g>
<!-- Node44&#45;&gt;Node50 -->
<g id="edge12" class="edge">
<title>Node44&#45;&gt;Node50</title>
<path fill="none" stroke="#191970" d="M316.3192,-294.3522C323.6828,-290.4735 330.5224,-285.6063 336,-279.5 379.4755,-231.0347 327.6342,-185.1518 372,-137.5 372.8893,-136.5448 373.8175,-135.6275 374.7802,-134.7468"/>
<polygon fill="#191970" stroke="#191970" points="376.9174,-137.5186 382.7647,-128.6834 372.684,-131.9438 376.9174,-137.5186"/>
</g>
<!-- Node51 -->
<g id="node12" class="node">
<title>Node51</title>
<g id="a_node12"><a xlink:href="classneon_1_1solid_1_1femStaticMatrix.html#af8bb14009b18e37b3029b865d1b3c18a" target="_top" xlink:title="neon::solid::femStaticMatrix\l::is_converged">
<polygon fill="#ffffff" stroke="#000000" points="375,-49.5 375,-79.5 514,-79.5 514,-49.5 375,-49.5"/>
<text text-anchor="start" x="383" y="-67.5" font-family="Helvetica,sans-Serif" font-size="10.00" fill="#000000">neon::solid::femStaticMatrix</text>
<text text-anchor="middle" x="444.5" y="-56.5" font-family="Helvetica,sans-Serif" font-size="10.00" fill="#000000">::is_converged</text>
</a>
</g>
</g>
<!-- Node44&#45;&gt;Node51 -->
<g id="edge13" class="edge">
<title>Node44&#45;&gt;Node51</title>
<path fill="none" stroke="#191970" d="M317.0722,-294.4456C324.2283,-290.5545 330.8104,-285.659 336,-279.5 391.6619,-213.4404 315.1241,-153.5173 372,-88.5 372.742,-87.6518 373.5147,-86.8334 374.3151,-86.0439"/>
<polygon fill="#191970" stroke="#191970" points="376.6079,-88.6912 382.1929,-79.6879 372.2124,-83.2433 376.6079,-88.6912"/>
</g>
<!-- Node52 -->
<g id="node13" class="node">
<title>Node52</title>
<g id="a_node13"><a xlink:href="classneon_1_1AdaptiveLoadStep.html#a975b2ea0339a250a6c37f871b8609ea1" target="_top" xlink:title="neon::AdaptiveLoadStep\l::update_convergence_state">
<polygon fill="#ffffff" stroke="#000000" points="553,-365.5 553,-395.5 693,-395.5 693,-365.5 553,-365.5"/>
<text text-anchor="start" x="561" y="-383.5" font-family="Helvetica,sans-Serif" font-size="10.00" fill="#000000">neon::AdaptiveLoadStep</text>
<text text-anchor="middle" x="623" y="-372.5" font-family="Helvetica,sans-Serif" font-size="10.00" fill="#000000">::update_convergence_state</text>
</a>
</g>
</g>
<!-- Node44&#45;&gt;Node52 -->
<g id="edge14" class="edge">
<title>Node44&#45;&gt;Node52</title>
<path fill="none" stroke="#191970" d="M272.528,-324.5704C293.9707,-342.4416 332.7732,-371.2254 372,-382.5 427.4435,-398.4357 492.6642,-397.3556 542.7246,-392.5965"/>
<polygon fill="#191970" stroke="#191970" points="543.2535,-396.0608 552.8471,-391.5649 542.5437,-389.0969 543.2535,-396.0608"/>
</g>
<!-- Node53 -->
<g id="node14" class="node">
<title>Node53</title>
<g id="a_node14"><a xlink:href="classneon_1_1solid_1_1femMesh.html#aed7f6ae168a234d05e018cd69066cf6c" target="_top" xlink:title="neon::solid::femMesh\l::save_internal_variables">
<polygon fill="#ffffff" stroke="#000000" points="382,-294.5 382,-324.5 507,-324.5 507,-294.5 382,-294.5"/>
<text text-anchor="start" x="390" y="-312.5" font-family="Helvetica,sans-Serif" font-size="10.00" fill="#000000">neon::solid::femMesh</text>
<text text-anchor="middle" x="444.5" y="-301.5" font-family="Helvetica,sans-Serif" font-size="10.00" fill="#000000">::save_internal_variables</text>
</a>
</g>
</g>
<!-- Node44&#45;&gt;Node53 -->
<g id="edge15" class="edge">
<title>Node44&#45;&gt;Node53</title>
<path fill="none" stroke="#191970" d="M336.2012,-309.5C347.9964,-309.5 360.0847,-309.5 371.7097,-309.5"/>
<polygon fill="#191970" stroke="#191970" points="371.7873,-313.0001 381.7873,-309.5 371.7872,-306.0001 371.7873,-313.0001"/>
</g>
<!-- Node55 -->
<g id="node16" class="node">
<title>Node55</title>
<g id="a_node16"><a xlink:href="classneon_1_1AdaptiveLoadStep.html#a1ccc0de1f228c0b0a495ac5e6a1419d4" target="_top" xlink:title="neon::AdaptiveLoadStep\l::step">
<polygon fill="#ffffff" stroke="#000000" points="383,-343.5 383,-373.5 506,-373.5 506,-343.5 383,-343.5"/>
<text text-anchor="start" x="391" y="-361.5" font-family="Helvetica,sans-Serif" font-size="10.00" fill="#000000">neon::AdaptiveLoadStep</text>
<text text-anchor="middle" x="444.5" y="-350.5" font-family="Helvetica,sans-Serif" font-size="10.00" fill="#000000">::step</text>
</a>
</g>
</g>
<!-- Node44&#45;&gt;Node55 -->
<g id="edge17" class="edge">
<title>Node44&#45;&gt;Node55</title>
<path fill="none" stroke="#191970" d="M313.4907,-324.5346C333.5371,-329.7318 356.1738,-335.6006 376.9214,-340.9796"/>
<polygon fill="#191970" stroke="#191970" points="376.0606,-344.3721 386.619,-343.4938 377.8174,-337.5961 376.0606,-344.3721"/>
</g>
<!-- Node56 -->
<g id="node17" class="node">
<title>Node56</title>
<g id="a_node17"><a xlink:href="classneon_1_1AdaptiveLoadStep.html#aa115e1c638d4c8b66e2201b4f6bed58d" target="_top" xlink:title="neon::AdaptiveLoadStep\l::time">
<polygon fill="#ffffff" stroke="#000000" points="383,-245.5 383,-275.5 506,-275.5 506,-245.5 383,-245.5"/>
<text text-anchor="start" x="391" y="-263.5" font-family="Helvetica,sans-Serif" font-size="10.00" fill="#000000">neon::AdaptiveLoadStep</text>
<text text-anchor="middle" x="444.5" y="-252.5" font-family="Helvetica,sans-Serif" font-size="10.00" fill="#000000">::time</text>
</a>
</g>
</g>
<!-- Node44&#45;&gt;Node56 -->
<g id="edge19" class="edge">
<title>Node44&#45;&gt;Node56</title>
<path fill="none" stroke="#191970" d="M313.4907,-294.4654C333.5371,-289.2682 356.1738,-283.3994 376.9214,-278.0204"/>
<polygon fill="#191970" stroke="#191970" points="377.8174,-281.4039 386.619,-275.5062 376.0606,-274.6279 377.8174,-281.4039"/>
</g>
<!-- Node46&#45;&gt;Node40 -->
<g id="edge7" class="edge">
<title>Node46&#45;&gt;Node40</title>
<path fill="none" stroke="#191970" d="M390.8894,-480.4747C334.8573,-463.5428 245.4543,-433.0079 175,-392.5 144.6789,-375.0668 113.6506,-349.5483 93.165,-331.4158"/>
<polygon fill="#191970" stroke="#191970" points="95.3717,-328.6935 85.5906,-324.6216 90.6976,-333.9044 95.3717,-328.6935"/>
</g>
<!-- Node46&#45;&gt;Node41 -->
<g id="edge8" class="edge">
<title>Node46&#45;&gt;Node41</title>
<path fill="none" stroke="#191970" d="M514.0239,-504.0688C528.3602,-505.8357 543.4114,-507.6908 557.5954,-509.4389"/>
<polygon fill="#191970" stroke="#191970" points="557.3947,-512.9406 567.7477,-510.6902 558.251,-505.9932 557.3947,-512.9406"/>
</g>
<!-- Node54 -->
<g id="node15" class="node">
<title>Node54</title>
<g id="a_node15"><a xlink:href="classneon_1_1BasicMesh.html#ac74b60b73623ef5178fa2dd6dbfa4d79" target="_top" xlink:title="neon::BasicMesh::meshes">
<polygon fill="#ffffff" stroke="#000000" points="556.5,-300 556.5,-319 689.5,-319 689.5,-300 556.5,-300"/>
<text text-anchor="middle" x="623" y="-307" font-family="Helvetica,sans-Serif" font-size="10.00" fill="#000000">neon::BasicMesh::meshes</text>
</a>
</g>
</g>
<!-- Node53&#45;&gt;Node54 -->
<g id="edge16" class="edge">
<title>Node53&#45;&gt;Node54</title>
<path fill="none" stroke="#191970" d="M507.1814,-309.5C519.7054,-309.5 532.9973,-309.5 545.9406,-309.5"/>
<polygon fill="#191970" stroke="#191970" points="546.2248,-313.0001 556.2248,-309.5 546.2248,-306.0001 546.2248,-313.0001"/>
</g>
<!-- Node55&#45;&gt;Node52 -->
<g id="edge18" class="edge">
<title>Node55&#45;&gt;Node52</title>
<path fill="none" stroke="#191970" d="M506.1795,-366.102C517.9099,-367.5477 530.3448,-369.0803 542.5576,-370.5855"/>
<polygon fill="#191970" stroke="#191970" points="542.3908,-374.0914 552.7438,-371.841 543.2471,-367.1439 542.3908,-374.0914"/>
</g>
</g>
</svg>
        <g id="navigator" transform="translate(0 0)" fill="#404254">
                <rect fill="#f2f5e9" fill-opacity="0.5" stroke="#606060" stroke-width=".5" x="0" y="0" width="60" height="60"/>
                <use id="zoomplus" xlink:href="#zoomPlus" x="17" y="9" onmousedown="handleZoom(evt,'in')"/>
                <use id="zoomminus" xlink:href="#zoomMin" x="42" y="9" onmousedown="handleZoom(evt,'out')"/>
                <use id="reset" xlink:href="#resetDef" x="30" y="36" onmousedown="handleReset()"/>
                <g id="arrowUp" xlink:href="#dirArrow" transform="translate(30 24)" onmousedown="handlePan(0,-1)">
                  <use xlink:href="#rim" fill="#404040">
                        <set attributeName="fill" to="#808080" begin="arrowUp.mouseover" end="arrowUp.mouseout"/>
                  </use>
                  <path fill="none" stroke="white" stroke-width="1.5" d="M0,-3.0v7 M-2.5,-0.5L0,-3.0L2.5,-0.5"/>
                </g>
                <g id="arrowRight" xlink:href="#dirArrow" transform="rotate(90) translate(36 -43)" onmousedown="handlePan(1,0)">
                  <use xlink:href="#rim" fill="#404040">
                        <set attributeName="fill" to="#808080" begin="arrowRight.mouseover" end="arrowRight.mouseout"/>
                  </use>
                  <path fill="none" stroke="white" stroke-width="1.5" d="M0,-3.0v7 M-2.5,-0.5L0,-3.0L2.5,-0.5"/>
                </g>
                <g id="arrowDown" xlink:href="#dirArrow" transform="rotate(180) translate(-30 -48)" onmousedown="handlePan(0,1)">
                  <use xlink:href="#rim" fill="#404040">
                        <set attributeName="fill" to="#808080" begin="arrowDown.mouseover" end="arrowDown.mouseout"/>
                  </use>
                  <path fill="none" stroke="white" stroke-width="1.5" d="M0,-3.0v7 M-2.5,-0.5L0,-3.0L2.5,-0.5"/>
                </g>
                <g id="arrowLeft" xlink:href="#dirArrow" transform="rotate(270) translate(-36 17)" onmousedown="handlePan(-1,0)">
                  <use xlink:href="#rim" fill="#404040">
                        <set attributeName="fill" to="#808080" begin="arrowLeft.mouseover" end="arrowLeft.mouseout"/>
                  </use>
                  <path fill="none" stroke="white" stroke-width="1.5" d="M0,-3.0v7 M-2.5,-0.5L0,-3.0L2.5,-0.5"/>
                </g>
        </g>
        <svg viewBox="0 0 15 15" width="100%" height="30px" preserveAspectRatio="xMaxYMin meet">
         <g id="arrow_out" transform="scale(0.3 0.3)">
          <a xlink:href="classneon_1_1solid_1_1femStaticMatrix_a1b4ec4af5d4aa93d28a374c0f4f7e5d3_cgraph_org.svg" target="_base">
           <rect id="button" ry="5" rx="5" y="6" x="6" height="38" width="38"
                fill="#f2f5e9" fill-opacity="0.5" stroke="#606060" stroke-width="1.0"/>
           <path id="arrow"
             d="M 11.500037,31.436501 C 11.940474,20.09759 22.043105,11.32322 32.158766,21.979434 L 37.068811,17.246167 C 37.068811,17.246167 37.088388,32 37.088388,32 L 22.160133,31.978069 C 22.160133,31.978069 26.997745,27.140456 26.997745,27.140456 C 18.528582,18.264221 13.291696,25.230495 11.500037,31.436501 z"
             style="fill:#404040;"/>
          </a>
         </g>
        </svg>
</svg>
