<?xml version="1.0" encoding="UTF-8" standalone="no"?>
<!DOCTYPE svg PUBLIC "-//W3C//DTD SVG 1.1//EN"
 "http://www.w3.org/Graphics/SVG/1.1/DTD/svg11.dtd">
<!-- Generated by graphviz version 2.40.1 (20161225.0304)
 -->
<!-- Title: neon::NumericalQuadrature::integrate Pages: 1 -->
<svg width="316pt" height="39pt"
 viewBox="0.00 0.00 316.00 39.00" xmlns="http://www.w3.org/2000/svg" xmlns:xlink="http://www.w3.org/1999/xlink">
<g id="graph0" class="graph" transform="scale(1 1) rotate(0) translate(4 35)">
<title>neon::NumericalQuadrature::integrate</title>
<polygon fill="#ffffff" stroke="transparent" points="-4,4 -4,-35 312,-35 312,4 -4,4"/>
<!-- Node6 -->
<g id="node1" class="node">
<title>Node6</title>
<polygon fill="#bfbfbf" stroke="#000000" points="0,-.5 0,-30.5 136,-30.5 136,-.5 0,-.5"/>
<text text-anchor="start" x="8" y="-18.5" font-family="Helvetica,sans-Serif" font-size="10.00" fill="#000000">neon::NumericalQuadrature</text>
<text text-anchor="middle" x="68" y="-7.5" font-family="Helvetica,sans-Serif" font-size="10.00" fill="#000000">::integrate</text>
</g>
<!-- Node7 -->
<g id="node2" class="node">
<title>Node7</title>
<g id="a_node2"><a xlink:href="classneon_1_1NumericalQuadrature.html#aed7176a5ad2e2c75aa96eb9a41f4dfb6" target="_top" xlink:title="neon::NumericalQuadrature\l::points">
<polygon fill="#ffffff" stroke="#000000" points="172,-.5 172,-30.5 308,-30.5 308,-.5 172,-.5"/>
<text text-anchor="start" x="180" y="-18.5" font-family="Helvetica,sans-Serif" font-size="10.00" fill="#000000">neon::NumericalQuadrature</text>
<text text-anchor="middle" x="240" y="-7.5" font-family="Helvetica,sans-Serif" font-size="10.00" fill="#000000">::points</text>
</a>
</g>
</g>
<!-- Node6&#45;&gt;Node7 -->
<g id="edge1" class="edge">
<title>Node6&#45;&gt;Node7</title>
<path fill="none" stroke="#191970" d="M136.4732,-15.5C144.7318,-15.5 153.2157,-15.5 161.6024,-15.5"/>
<polygon fill="#191970" stroke="#191970" points="161.7625,-19.0001 171.7624,-15.5 161.7624,-12.0001 161.7625,-19.0001"/>
</g>
</g>
</svg>
