<?xml version="1.0" encoding="UTF-8" standalone="no"?>
<!DOCTYPE svg PUBLIC "-//W3C//DTD SVG 1.1//EN"
 "http://www.w3.org/Graphics/SVG/1.1/DTD/svg11.dtd">
<!-- Generated by graphviz version 2.40.1 (20161225.0304)
 -->
<!-- Title: neon::LinearElastic::Lame_parameters Pages: 1 -->
<svg width="264pt" height="78pt"
 viewBox="0.00 0.00 264.00 77.50" xmlns="http://www.w3.org/2000/svg" xmlns:xlink="http://www.w3.org/1999/xlink">
<g id="graph0" class="graph" transform="scale(1 1) rotate(0) translate(4 73.5)">
<title>neon::LinearElastic::Lame_parameters</title>
<polygon fill="#ffffff" stroke="transparent" points="-4,4 -4,-73.5 260,-73.5 260,4 -4,4"/>
<!-- Node10 -->
<g id="node1" class="node">
<title>Node10</title>
<polygon fill="#bfbfbf" stroke="#000000" points="0,-17 0,-47 101,-47 101,-17 0,-17"/>
<text text-anchor="start" x="8" y="-35" font-family="Helvetica,sans-Serif" font-size="10.00" fill="#000000">neon::LinearElastic</text>
<text text-anchor="middle" x="50.5" y="-24" font-family="Helvetica,sans-Serif" font-size="10.00" fill="#000000">::Lame_parameters</text>
</g>
<!-- Node11 -->
<g id="node2" class="node">
<title>Node11</title>
<g id="a_node2"><a xlink:href="classneon_1_1LinearElastic.html#a0d41b106614c2e50b1eb658bc447dd86" target="_top" xlink:title="neon::LinearElastic\l::lambda">
<polygon fill="#ffffff" stroke="#000000" points="146.5,-39 146.5,-69 246.5,-69 246.5,-39 146.5,-39"/>
<text text-anchor="start" x="154.5" y="-57" font-family="Helvetica,sans-Serif" font-size="10.00" fill="#000000">neon::LinearElastic</text>
<text text-anchor="middle" x="196.5" y="-46" font-family="Helvetica,sans-Serif" font-size="10.00" fill="#000000">::lambda</text>
</a>
</g>
</g>
<!-- Node10&#45;&gt;Node11 -->
<g id="edge1" class="edge">
<title>Node10&#45;&gt;Node11</title>
<path fill="none" stroke="#191970" d="M101.154,-39.6328C112.4926,-41.3414 124.6273,-43.1699 136.31,-44.9303"/>
<polygon fill="#191970" stroke="#191970" points="136.0191,-48.4259 146.429,-46.4551 137.0622,-41.504 136.0191,-48.4259"/>
</g>
<!-- Node12 -->
<g id="node3" class="node">
<title>Node12</title>
<g id="a_node3"><a xlink:href="classneon_1_1LinearElastic.html#ab0bb733a9b4f7131a58a6da7be4ccdcc" target="_top" xlink:title="neon::LinearElastic::mu">
<polygon fill="#ffffff" stroke="#000000" points="137,-.5 137,-19.5 256,-19.5 256,-.5 137,-.5"/>
<text text-anchor="middle" x="196.5" y="-7.5" font-family="Helvetica,sans-Serif" font-size="10.00" fill="#000000">neon::LinearElastic::mu</text>
</a>
</g>
</g>
<!-- Node10&#45;&gt;Node12 -->
<g id="edge2" class="edge">
<title>Node10&#45;&gt;Node12</title>
<path fill="none" stroke="#191970" d="M101.154,-24.3672C109.4414,-23.1184 118.1542,-21.8055 126.8049,-20.502"/>
<polygon fill="#191970" stroke="#191970" points="127.5355,-23.9315 136.9023,-18.9805 126.4924,-17.0097 127.5355,-23.9315"/>
</g>
</g>
</svg>
