<?xml version="1.0" encoding="UTF-8" standalone="no"?>
<!DOCTYPE svg PUBLIC "-//W3C//DTD SVG 1.1//EN"
 "http://www.w3.org/Graphics/SVG/1.1/DTD/svg11.dtd">
<!-- Generated by graphviz version 2.40.1 (20161225.0304)
 -->
<!-- Title: neon::SubMesh::nodes_per_element Pages: 1 -->
<svg width="635pt" height="225pt"
 viewBox="0.00 0.00 635.00 225.00" xmlns="http://www.w3.org/2000/svg" xmlns:xlink="http://www.w3.org/1999/xlink">
<g id="graph0" class="graph" transform="scale(1 1) rotate(0) translate(4 221)">
<title>neon::SubMesh::nodes_per_element</title>
<polygon fill="#ffffff" stroke="transparent" points="-4,4 -4,-221 631,-221 631,4 -4,4"/>
<!-- Node42 -->
<g id="node1" class="node">
<title>Node42</title>
<polygon fill="#bfbfbf" stroke="#000000" points="0,-112.5 0,-142.5 117,-142.5 117,-112.5 0,-112.5"/>
<text text-anchor="start" x="8" y="-130.5" font-family="Helvetica,sans-Serif" font-size="10.00" fill="#000000">neon::SubMesh::nodes</text>
<text text-anchor="middle" x="58.5" y="-119.5" font-family="Helvetica,sans-Serif" font-size="10.00" fill="#000000">_per_element</text>
</g>
<!-- Node43 -->
<g id="node2" class="node">
<title>Node43</title>
<g id="a_node2"><a xlink:href="classneon_1_1solid_1_1femSubmesh.html#a146b01147a0c5c030a464088509289dd" target="_top" xlink:title="neon::solid::femSubmesh\l::geometric_tangent_stiffness">
<polygon fill="#ffffff" stroke="#000000" points="153,-186.5 153,-216.5 299,-216.5 299,-186.5 153,-186.5"/>
<text text-anchor="start" x="161" y="-204.5" font-family="Helvetica,sans-Serif" font-size="10.00" fill="#000000">neon::solid::femSubmesh</text>
<text text-anchor="middle" x="226" y="-193.5" font-family="Helvetica,sans-Serif" font-size="10.00" fill="#000000">::geometric_tangent_stiffness</text>
</a>
</g>
</g>
<!-- Node42&#45;&gt;Node43 -->
<g id="edge1" class="edge">
<title>Node42&#45;&gt;Node43</title>
<path fill="none" stroke="#191970" d="M92.7889,-147.4424C110.4325,-157.2376 132.4915,-168.7772 153,-177.5 160.4888,-180.6852 168.5535,-183.7151 176.4944,-186.4829"/>
<polygon fill="#191970" stroke="#191970" points="94.4294,-144.3495 83.9966,-142.5033 91.001,-150.4525 94.4294,-144.3495"/>
</g>
<!-- Node47 -->
<g id="node6" class="node">
<title>Node47</title>
<g id="a_node6"><a xlink:href="classneon_1_1solid_1_1femSubmesh.html#ac59a58e4a33eea88a87f181c1771621e" target="_top" xlink:title="neon::solid::femSubmesh\l::material_tangent_stiffness">
<polygon fill="#ffffff" stroke="#000000" points="157.5,-137.5 157.5,-167.5 294.5,-167.5 294.5,-137.5 157.5,-137.5"/>
<text text-anchor="start" x="165.5" y="-155.5" font-family="Helvetica,sans-Serif" font-size="10.00" fill="#000000">neon::solid::femSubmesh</text>
<text text-anchor="middle" x="226" y="-144.5" font-family="Helvetica,sans-Serif" font-size="10.00" fill="#000000">::material_tangent_stiffness</text>
</a>
</g>
</g>
<!-- Node42&#45;&gt;Node47 -->
<g id="edge5" class="edge">
<title>Node42&#45;&gt;Node47</title>
<path fill="none" stroke="#191970" d="M126.993,-137.7228C137.0257,-139.2202 147.3607,-140.7628 157.3956,-142.2605"/>
<polygon fill="#191970" stroke="#191970" points="127.4905,-134.2584 117.0834,-136.2438 126.4571,-141.1817 127.4905,-134.2584"/>
</g>
<!-- Node48 -->
<g id="node7" class="node">
<title>Node48</title>
<g id="a_node7"><a xlink:href="classneon_1_1solid_1_1femSubmesh.html#acb75f263f98c1934224fbb21854b347c" target="_top" xlink:title="neon::solid::femSubmesh\l::internal_nodal_force">
<polygon fill="#ffffff" stroke="#000000" points="162,-88.5 162,-118.5 290,-118.5 290,-88.5 162,-88.5"/>
<text text-anchor="start" x="170" y="-106.5" font-family="Helvetica,sans-Serif" font-size="10.00" fill="#000000">neon::solid::femSubmesh</text>
<text text-anchor="middle" x="226" y="-95.5" font-family="Helvetica,sans-Serif" font-size="10.00" fill="#000000">::internal_nodal_force</text>
</a>
</g>
</g>
<!-- Node42&#45;&gt;Node48 -->
<g id="edge8" class="edge">
<title>Node42&#45;&gt;Node48</title>
<path fill="none" stroke="#191970" d="M127.0407,-117.6792C138.5126,-116.0355 150.3784,-114.3353 161.7379,-112.7077"/>
<polygon fill="#191970" stroke="#191970" points="126.4858,-114.2229 117.0834,-119.106 127.4787,-121.1521 126.4858,-114.2229"/>
</g>
<!-- Node50 -->
<g id="node9" class="node">
<title>Node50</title>
<g id="a_node9"><a xlink:href="classneon_1_1solid_1_1femSubmesh.html#ad6e50b01a0301255f81ffb8139ee785a" target="_top" xlink:title="neon::solid::femSubmesh\l::consistent_mass">
<polygon fill="#ffffff" stroke="#000000" points="162,-39.5 162,-69.5 290,-69.5 290,-39.5 162,-39.5"/>
<text text-anchor="start" x="170" y="-57.5" font-family="Helvetica,sans-Serif" font-size="10.00" fill="#000000">neon::solid::femSubmesh</text>
<text text-anchor="middle" x="226" y="-46.5" font-family="Helvetica,sans-Serif" font-size="10.00" fill="#000000">::consistent_mass</text>
</a>
</g>
</g>
<!-- Node42&#45;&gt;Node50 -->
<g id="edge12" class="edge">
<title>Node42&#45;&gt;Node50</title>
<path fill="none" stroke="#191970" d="M94.0712,-107.3293C111.5127,-97.888 133.0198,-86.9003 153,-78.5 160.5019,-75.346 168.5735,-72.3323 176.5173,-69.5713"/>
<polygon fill="#191970" stroke="#191970" points="91.9238,-104.5149 84.8353,-112.3891 95.2871,-110.654 91.9238,-104.5149"/>
</g>
<!-- Node44 -->
<g id="node3" class="node">
<title>Node44</title>
<g id="a_node3"><a xlink:href="classneon_1_1solid_1_1femSubmesh.html#abdc355d969d95032d707ab251e4db75d" target="_top" xlink:title="neon::solid::femSubmesh\l::tangent_stiffness">
<polygon fill="#ffffff" stroke="#000000" points="335,-186.5 335,-216.5 463,-216.5 463,-186.5 335,-186.5"/>
<text text-anchor="start" x="343" y="-204.5" font-family="Helvetica,sans-Serif" font-size="10.00" fill="#000000">neon::solid::femSubmesh</text>
<text text-anchor="middle" x="399" y="-193.5" font-family="Helvetica,sans-Serif" font-size="10.00" fill="#000000">::tangent_stiffness</text>
</a>
</g>
</g>
<!-- Node43&#45;&gt;Node44 -->
<g id="edge2" class="edge">
<title>Node43&#45;&gt;Node44</title>
<path fill="none" stroke="#191970" d="M309.2156,-201.5C317.853,-201.5 326.5342,-201.5 334.9139,-201.5"/>
<polygon fill="#191970" stroke="#191970" points="309.1169,-198.0001 299.1168,-201.5 309.1168,-205.0001 309.1169,-198.0001"/>
</g>
<!-- Node46 -->
<g id="node5" class="node">
<title>Node46</title>
<g id="a_node5"><a xlink:href="classneon_1_1solid_1_1femSubmesh.html#ab924d16740c35a9af36eb08fab10391b" target="_top" xlink:title="neon::solid::femSubmesh\l::deformation_gradient">
<polygon fill="#ffffff" stroke="#000000" points="335,-137.5 335,-167.5 463,-167.5 463,-137.5 335,-137.5"/>
<text text-anchor="start" x="343" y="-155.5" font-family="Helvetica,sans-Serif" font-size="10.00" fill="#000000">neon::solid::femSubmesh</text>
<text text-anchor="middle" x="399" y="-144.5" font-family="Helvetica,sans-Serif" font-size="10.00" fill="#000000">::deformation_gradient</text>
</a>
</g>
</g>
<!-- Node43&#45;&gt;Node46 -->
<g id="edge4" class="edge">
<title>Node43&#45;&gt;Node46</title>
<path fill="none" stroke="#191970" d="M289.1771,-183.6059C307.7846,-178.3356 327.9483,-172.6245 345.8587,-167.5516"/>
<polygon fill="#191970" stroke="#191970" points="287.985,-180.3058 279.3173,-186.3986 289.8927,-187.0409 287.985,-180.3058"/>
</g>
<!-- Node45 -->
<g id="node4" class="node">
<title>Node45</title>
<g id="a_node4"><a xlink:href="classneon_1_1solid_1_1femSubmesh.html#a6e725b9d73d74ff4f5971f2f7f74225c" target="_top" xlink:title="neon::solid::femSubmesh\l::internal_variables">
<polygon fill="#ffffff" stroke="#000000" points="499,-66.5 499,-96.5 627,-96.5 627,-66.5 499,-66.5"/>
<text text-anchor="start" x="507" y="-84.5" font-family="Helvetica,sans-Serif" font-size="10.00" fill="#000000">neon::solid::femSubmesh</text>
<text text-anchor="middle" x="563" y="-73.5" font-family="Helvetica,sans-Serif" font-size="10.00" fill="#000000">::internal_variables</text>
</a>
</g>
</g>
<!-- Node44&#45;&gt;Node45 -->
<g id="edge3" class="edge">
<title>Node44&#45;&gt;Node45</title>
<path fill="none" stroke="#191970" d="M454.9376,-182.1172C457.7174,-180.6619 460.422,-179.1231 463,-177.5 499.0482,-154.805 533.0527,-117.6009 550.6071,-96.8001"/>
<polygon fill="#191970" stroke="#191970" points="453.3604,-178.9919 445.8662,-186.4811 456.395,-185.3 453.3604,-178.9919"/>
</g>
<!-- Node47&#45;&gt;Node44 -->
<g id="edge6" class="edge">
<title>Node47&#45;&gt;Node44</title>
<path fill="none" stroke="#191970" d="M289.1771,-170.3941C307.7846,-175.6644 327.9483,-181.3755 345.8587,-186.4484"/>
<polygon fill="#191970" stroke="#191970" points="289.8927,-166.9591 279.3173,-167.6014 287.985,-173.6942 289.8927,-166.9591"/>
</g>
<!-- Node47&#45;&gt;Node46 -->
<g id="edge7" class="edge">
<title>Node47&#45;&gt;Node46</title>
<path fill="none" stroke="#191970" d="M305.1659,-152.5C315.1112,-152.5 325.1868,-152.5 334.8616,-152.5"/>
<polygon fill="#191970" stroke="#191970" points="304.8713,-149.0001 294.8713,-152.5 304.8712,-156.0001 304.8713,-149.0001"/>
</g>
<!-- Node48&#45;&gt;Node46 -->
<g id="edge11" class="edge">
<title>Node48&#45;&gt;Node46</title>
<path fill="none" stroke="#191970" d="M289.1771,-121.3941C307.7846,-126.6644 327.9483,-132.3755 345.8587,-137.4484"/>
<polygon fill="#191970" stroke="#191970" points="289.8927,-117.9591 279.3173,-118.6014 287.985,-124.6942 289.8927,-117.9591"/>
</g>
<!-- Node49 -->
<g id="node8" class="node">
<title>Node49</title>
<g id="a_node8"><a xlink:href="classneon_1_1solid_1_1femSubmesh.html#ad0c267e8fd87a1126c216b21ccfd7b55" target="_top" xlink:title="neon::solid::femSubmesh\l::internal_force">
<polygon fill="#ffffff" stroke="#000000" points="335,-88.5 335,-118.5 463,-118.5 463,-88.5 335,-88.5"/>
<text text-anchor="start" x="343" y="-106.5" font-family="Helvetica,sans-Serif" font-size="10.00" fill="#000000">neon::solid::femSubmesh</text>
<text text-anchor="middle" x="399" y="-95.5" font-family="Helvetica,sans-Serif" font-size="10.00" fill="#000000">::internal_force</text>
</a>
</g>
</g>
<!-- Node48&#45;&gt;Node49 -->
<g id="edge9" class="edge">
<title>Node48&#45;&gt;Node49</title>
<path fill="none" stroke="#191970" d="M300.7418,-103.5C312.0916,-103.5 323.7166,-103.5 334.8155,-103.5"/>
<polygon fill="#191970" stroke="#191970" points="300.4188,-100.0001 290.4188,-103.5 300.4188,-107.0001 300.4188,-100.0001"/>
</g>
<!-- Node49&#45;&gt;Node45 -->
<g id="edge10" class="edge">
<title>Node49&#45;&gt;Node45</title>
<path fill="none" stroke="#191970" d="M473.2859,-93.5348C481.8158,-92.3906 490.4581,-91.2312 498.8391,-90.1069"/>
<polygon fill="#191970" stroke="#191970" points="472.7923,-90.0696 463.3464,-94.8682 473.723,-97.0074 472.7923,-90.0696"/>
</g>
<!-- Node50&#45;&gt;Node45 -->
<g id="edge15" class="edge">
<title>Node50&#45;&gt;Node45</title>
<path fill="none" stroke="#191970" d="M300.2531,-60.4491C359.68,-65.2103 442.1624,-71.8186 498.7723,-76.3542"/>
<polygon fill="#191970" stroke="#191970" points="300.428,-56.9519 290.1804,-59.642 299.8689,-63.9296 300.428,-56.9519"/>
</g>
<!-- Node51 -->
<g id="node10" class="node">
<title>Node51</title>
<g id="a_node10"><a xlink:href="classneon_1_1solid_1_1femSubmesh.html#a118bc792978bf5ac5e24d3949f53244e" target="_top" xlink:title="neon::solid::femSubmesh\l::diagonal_mass">
<polygon fill="#ffffff" stroke="#000000" points="335,-.5 335,-30.5 463,-30.5 463,-.5 335,-.5"/>
<text text-anchor="start" x="343" y="-18.5" font-family="Helvetica,sans-Serif" font-size="10.00" fill="#000000">neon::solid::femSubmesh</text>
<text text-anchor="middle" x="399" y="-7.5" font-family="Helvetica,sans-Serif" font-size="10.00" fill="#000000">::diagonal_mass</text>
</a>
</g>
</g>
<!-- Node50&#45;&gt;Node51 -->
<g id="edge13" class="edge">
<title>Node50&#45;&gt;Node51</title>
<path fill="none" stroke="#191970" d="M300.3944,-37.729C311.8543,-35.1456 323.6034,-32.4969 334.8155,-29.9693"/>
<polygon fill="#191970" stroke="#191970" points="299.4043,-34.3643 290.4188,-39.9778 300.9437,-41.1929 299.4043,-34.3643"/>
</g>
<!-- Node51&#45;&gt;Node45 -->
<g id="edge14" class="edge">
<title>Node51&#45;&gt;Node45</title>
<path fill="none" stroke="#191970" d="M446.0067,-34.4173C471.2495,-44.576 501.9381,-56.9263 525.5502,-66.4287"/>
<polygon fill="#191970" stroke="#191970" points="447.2086,-31.1283 436.6249,-30.6417 444.5952,-37.6221 447.2086,-31.1283"/>
</g>
</g>
</svg>
