<?xml version="1.0" encoding="UTF-8" standalone="no"?>
<!DOCTYPE svg PUBLIC "-//W3C//DTD SVG 1.1//EN"
 "http://www.w3.org/Graphics/SVG/1.1/DTD/svg11.dtd">
<!-- Generated by graphviz version 2.40.1 (20161225.0304)
 -->
<!-- Title: neon::SurfaceInterpolation Pages: 1 -->
<svg width="315pt" height="151pt"
 viewBox="0.00 0.00 314.50 151.00" xmlns="http://www.w3.org/2000/svg" xmlns:xlink="http://www.w3.org/1999/xlink">
<g id="graph0" class="graph" transform="scale(1 1) rotate(0) translate(4 147)">
<title>neon::SurfaceInterpolation</title>
<polygon fill="#ffffff" stroke="transparent" points="-4,4 -4,-147 310.5,-147 310.5,4 -4,4"/>
<!-- Node0 -->
<g id="node1" class="node">
<title>Node0</title>
<polygon fill="#bfbfbf" stroke="#000000" points="98.5,-56.5 98.5,-75.5 229.5,-75.5 229.5,-56.5 98.5,-56.5"/>
<text text-anchor="middle" x="164" y="-63.5" font-family="Helvetica,sans-Serif" font-size="10.00" fill="#000000">neon::SurfaceInterpolation</text>
</g>
<!-- Node2 -->
<g id="node3" class="node">
<title>Node2</title>
<g id="a_node3"><a xlink:href="classneon_1_1Quadrilateral4.html" target="_top" xlink:title="neon::Quadrilateral4">
<polygon fill="#ffffff" stroke="#000000" points="0,-.5 0,-19.5 104,-19.5 104,-.5 0,-.5"/>
<text text-anchor="middle" x="52" y="-7.5" font-family="Helvetica,sans-Serif" font-size="10.00" fill="#000000">neon::Quadrilateral4</text>
</a>
</g>
</g>
<!-- Node0&#45;&gt;Node2 -->
<g id="edge2" class="edge">
<title>Node0&#45;&gt;Node2</title>
<path fill="none" stroke="#191970" d="M135.6737,-51.8368C115.4279,-41.7139 88.7358,-28.3679 71.0022,-19.5011"/>
<polygon fill="#191970" stroke="#191970" points="134.237,-55.0316 144.7465,-56.3733 137.3675,-48.7706 134.237,-55.0316"/>
</g>
<!-- Node3 -->
<g id="node4" class="node">
<title>Node3</title>
<g id="a_node4"><a xlink:href="classneon_1_1Triangle3.html" target="_top" xlink:title="neon::Triangle3">
<polygon fill="#ffffff" stroke="#000000" points="122.5,-.5 122.5,-19.5 205.5,-19.5 205.5,-.5 122.5,-.5"/>
<text text-anchor="middle" x="164" y="-7.5" font-family="Helvetica,sans-Serif" font-size="10.00" fill="#000000">neon::Triangle3</text>
</a>
</g>
</g>
<!-- Node0&#45;&gt;Node3 -->
<g id="edge3" class="edge">
<title>Node0&#45;&gt;Node3</title>
<path fill="none" stroke="#191970" d="M164,-46.1575C164,-37.155 164,-26.9199 164,-19.6427"/>
<polygon fill="#191970" stroke="#191970" points="160.5001,-46.2455 164,-56.2455 167.5001,-46.2456 160.5001,-46.2455"/>
</g>
<!-- Node4 -->
<g id="node5" class="node">
<title>Node4</title>
<g id="a_node5"><a xlink:href="classneon_1_1Triangle6.html" target="_top" xlink:title="neon::Triangle6">
<polygon fill="#ffffff" stroke="#000000" points="223.5,-.5 223.5,-19.5 306.5,-19.5 306.5,-.5 223.5,-.5"/>
<text text-anchor="middle" x="265" y="-7.5" font-family="Helvetica,sans-Serif" font-size="10.00" fill="#000000">neon::Triangle6</text>
</a>
</g>
</g>
<!-- Node0&#45;&gt;Node4 -->
<g id="edge4" class="edge">
<title>Node0&#45;&gt;Node4</title>
<path fill="none" stroke="#191970" d="M190.4719,-51.3225C208.5125,-41.3198 231.8877,-28.3593 247.6087,-19.6427"/>
<polygon fill="#191970" stroke="#191970" points="188.6413,-48.3354 181.5929,-56.2455 192.0357,-54.4574 188.6413,-48.3354"/>
</g>
<!-- Node1 -->
<g id="node2" class="node">
<title>Node1</title>
<g id="a_node2"><a xlink:href="classneon_1_1ShapeFunction.html" target="_top" xlink:title="neon::ShapeFunction\l\&lt; SurfaceQuadrature \&gt;">
<polygon fill="#ffffff" stroke="#000000" points="106,-112.5 106,-142.5 222,-142.5 222,-112.5 106,-112.5"/>
<text text-anchor="start" x="114" y="-130.5" font-family="Helvetica,sans-Serif" font-size="10.00" fill="#000000">neon::ShapeFunction</text>
<text text-anchor="middle" x="164" y="-119.5" font-family="Helvetica,sans-Serif" font-size="10.00" fill="#000000">&lt; SurfaceQuadrature &gt;</text>
</a>
</g>
</g>
<!-- Node1&#45;&gt;Node0 -->
<g id="edge1" class="edge">
<title>Node1&#45;&gt;Node0</title>
<path fill="none" stroke="#191970" d="M164,-102.2849C164,-92.9858 164,-82.9883 164,-75.8469"/>
<polygon fill="#191970" stroke="#191970" points="160.5001,-102.2977 164,-112.2977 167.5001,-102.2978 160.5001,-102.2977"/>
</g>
</g>
</svg>
