<?xml version="1.0" encoding="UTF-8" standalone="no"?>
<!DOCTYPE svg PUBLIC "-//W3C//DTD SVG 1.1//EN"
 "http://www.w3.org/Graphics/SVG/1.1/DTD/svg11.dtd">
<!-- Generated by graphviz version 2.40.1 (20161225.0304)
 -->
<!-- Title: neon::solid::femStaticMatrix Pages: 1 -->
<svg width="340pt" height="162pt"
 viewBox="0.00 0.00 339.50 162.00" xmlns="http://www.w3.org/2000/svg" xmlns:xlink="http://www.w3.org/1999/xlink">
<g id="graph0" class="graph" transform="scale(1 1) rotate(0) translate(4 158)">
<title>neon::solid::femStaticMatrix</title>
<polygon fill="#ffffff" stroke="transparent" points="-4,4 -4,-158 335.5,-158 335.5,4 -4,4"/>
<!-- Node2 -->
<g id="node1" class="node">
<title>Node2</title>
<polygon fill="#bfbfbf" stroke="#000000" points="121,-.5 121,-19.5 260,-19.5 260,-.5 121,-.5"/>
<text text-anchor="middle" x="190.5" y="-7.5" font-family="Helvetica,sans-Serif" font-size="10.00" fill="#000000">neon::solid::femStaticMatrix</text>
</g>
<!-- Node3 -->
<g id="node2" class="node">
<title>Node3</title>
<g id="a_node2"><a xlink:href="classneon_1_1AdaptiveLoadStep.html" target="_top" xlink:title="neon::AdaptiveLoadStep">
<polygon fill="#ffffff" stroke="#000000" points="0,-67.5 0,-86.5 123,-86.5 123,-67.5 0,-67.5"/>
<text text-anchor="middle" x="61.5" y="-74.5" font-family="Helvetica,sans-Serif" font-size="10.00" fill="#000000">neon::AdaptiveLoadStep</text>
</a>
</g>
</g>
<!-- Node3&#45;&gt;Node2 -->
<g id="edge1" class="edge">
<title>Node3&#45;&gt;Node2</title>
<path fill="none" stroke="#9a32cd" stroke-dasharray="5,2" d="M83.5439,-61.5567C94.8942,-53.9567 109.1259,-44.9581 122.5,-38 135.8647,-31.0468 151.3564,-24.5546 164.1746,-19.5757"/>
<polygon fill="#9a32cd" stroke="#9a32cd" points="81.4259,-58.7645 75.1305,-67.2861 85.366,-64.5503 81.4259,-58.7645"/>
<text text-anchor="middle" x="154.5" y="-41" font-family="Helvetica,sans-Serif" font-size="10.00" fill="#000000"> adaptive_load</text>
</g>
<!-- Node4 -->
<g id="node3" class="node">
<title>Node4</title>
<g id="a_node3"><a xlink:href="classneon_1_1Visualisation.html" target="_top" xlink:title="neon::Visualisation">
<polygon fill="#ffffff" stroke="#000000" points="141,-67.5 141,-86.5 240,-86.5 240,-67.5 141,-67.5"/>
<text text-anchor="middle" x="190.5" y="-74.5" font-family="Helvetica,sans-Serif" font-size="10.00" fill="#000000">neon::Visualisation</text>
</a>
</g>
</g>
<!-- Node4&#45;&gt;Node2 -->
<g id="edge2" class="edge">
<title>Node4&#45;&gt;Node2</title>
<path fill="none" stroke="#9a32cd" stroke-dasharray="5,2" d="M190.5,-57.1079C190.5,-44.714 190.5,-29.3263 190.5,-19.5817"/>
<polygon fill="#9a32cd" stroke="#9a32cd" points="187.0001,-57.4005 190.5,-67.4005 194.0001,-57.4006 187.0001,-57.4005"/>
<text text-anchor="middle" x="219.5" y="-41" font-family="Helvetica,sans-Serif" font-size="10.00" fill="#000000"> visualisation</text>
</g>
<!-- Node5 -->
<g id="node4" class="node">
<title>Node5</title>
<g id="a_node4"><a xlink:href="classneon_1_1NodeOrderingAdapter.html" target="_top" xlink:title="neon::NodeOrderingAdapter">
<polygon fill="#ffffff" stroke="#000000" points="66,-134.5 66,-153.5 203,-153.5 203,-134.5 66,-134.5"/>
<text text-anchor="middle" x="134.5" y="-141.5" font-family="Helvetica,sans-Serif" font-size="10.00" fill="#000000">neon::NodeOrderingAdapter</text>
</a>
</g>
</g>
<!-- Node5&#45;&gt;Node4 -->
<g id="edge3" class="edge">
<title>Node5&#45;&gt;Node4</title>
<path fill="none" stroke="#9a32cd" stroke-dasharray="5,2" d="M137.1322,-124.1994C138.7402,-117.6119 141.3299,-110.548 145.5,-105 151.3603,-97.2034 160.0827,-91.0628 168.2923,-86.5436"/>
<polygon fill="#9a32cd" stroke="#9a32cd" points="133.6074,-124.017 135.2471,-134.4842 140.4927,-125.2791 133.6074,-124.017"/>
<text text-anchor="middle" x="163.5" y="-108" font-family="Helvetica,sans-Serif" font-size="10.00" fill="#000000"> adapter</text>
</g>
<!-- Node6 -->
<g id="node5" class="node">
<title>Node6</title>
<g id="a_node5"><a xlink:href="classneon_1_1solid_1_1femMesh.html" target="_top" xlink:title="neon::solid::femMesh">
<polygon fill="#ffffff" stroke="#000000" points="221.5,-134.5 221.5,-153.5 331.5,-153.5 331.5,-134.5 221.5,-134.5"/>
<text text-anchor="middle" x="276.5" y="-141.5" font-family="Helvetica,sans-Serif" font-size="10.00" fill="#000000">neon::solid::femMesh</text>
</a>
</g>
</g>
<!-- Node6&#45;&gt;Node2 -->
<g id="edge5" class="edge">
<title>Node6&#45;&gt;Node2</title>
<path fill="none" stroke="#9a32cd" stroke-dasharray="5,2" d="M277.0574,-124.2747C276.6796,-101.1197 272.7009,-62.7454 252.5,-38 245.7033,-29.6743 235.9044,-23.7296 226.0965,-19.5252"/>
<polygon fill="#9a32cd" stroke="#9a32cd" points="273.5575,-124.2759 277.009,-134.2927 280.5574,-124.3098 273.5575,-124.2759"/>
<text text-anchor="middle" x="298" y="-74.5" font-family="Helvetica,sans-Serif" font-size="10.00" fill="#000000"> fem_mesh</text>
</g>
<!-- Node6&#45;&gt;Node4 -->
<g id="edge4" class="edge">
<title>Node6&#45;&gt;Node4</title>
<path fill="none" stroke="#9a32cd" stroke-dasharray="5,2" d="M235.8116,-130.3808C227.8591,-126.5362 219.9857,-121.7819 213.5,-116 204.464,-107.9446 197.9763,-95.4676 194.2408,-86.8039"/>
<polygon fill="#9a32cd" stroke="#9a32cd" points="234.5433,-133.6467 245.105,-134.4831 237.3701,-127.2428 234.5433,-133.6467"/>
<text text-anchor="middle" x="238" y="-108" font-family="Helvetica,sans-Serif" font-size="10.00" fill="#000000"> fem_mesh</text>
</g>
</g>
</svg>
