<?xml version="1.0" encoding="UTF-8" standalone="no"?>
<!DOCTYPE svg PUBLIC "-//W3C//DTD SVG 1.1//EN"
 "http://www.w3.org/Graphics/SVG/1.1/DTD/svg11.dtd">
<!-- Generated by graphviz version 2.40.1 (20161225.0304)
 -->
<!-- Title: neon::solid::femSubmesh::update_deformation_measures Pages: 1 -->
<!--zoomable 125 -->
<svg id="main" version="1.1" xmlns="http://www.w3.org/2000/svg" xmlns:xlink="http://www.w3.org/1999/xlink" xml:space="preserve" onload="init(evt)">
<style type="text/css"><![CDATA[
.edge:hover path { stroke: red; }
.edge:hover polygon { stroke: red; fill: red; }
]]></style>
<script type="text/javascript"><![CDATA[
var edges = document.getElementsByTagName('g');
if (edges && edges.length) {
  for (var i=0;i<edges.length;i++) {
    if (edges[i].id.substr(0,4)=='edge') {
      edges[i].setAttribute('class','edge');
    }
  }
}
]]></script>
        <defs>
                <circle id="rim" cx="0" cy="0" r="7"/>
                <circle id="rim2" cx="0" cy="0" r="3.5"/>
                <g id="zoomPlus">
                        <use xlink:href="#rim" fill="#404040">
                                <set attributeName="fill" to="#808080" begin="zoomplus.mouseover" end="zoomplus.mouseout"/>
                        </use>
                        <path d="M-4,0h8M0,-4v8" fill="none" stroke="white" stroke-width="1.5" pointer-events="none"/>
                </g>
                <g id="zoomMin">
                        <use xlink:href="#rim" fill="#404040">
                                <set attributeName="fill" to="#808080" begin="zoomminus.mouseover" end="zoomminus.mouseout"/>
                        </use>
                        <path d="M-4,0h8" fill="none" stroke="white" stroke-width="1.5" pointer-events="none"/>
                </g>
                <g id="dirArrow">
                        <path fill="none" stroke="white" stroke-width="1.5" d="M0,-3.0v7 M-2.5,-0.5L0,-3.0L2.5,-0.5"/>
                </g>
               <g id="resetDef">
                       <use xlink:href="#rim2" fill="#404040">
                               <set attributeName="fill" to="#808080" begin="reset.mouseover" end="reset.mouseout"/>
                       </use>
               </g>
        </defs>

<script type="text/javascript">
var viewWidth = 506;
var viewHeight = 125;
var sectionId = 'dynsection-24';
</script>
<script xlink:href="svgpan.js"/>
<svg id="graph" class="graph">
<g id="viewport">
<title>neon::solid::femSubmesh::update_deformation_measures</title>
<polygon fill="#ffffff" stroke="transparent" points="-4,4 -4,-120.5366 502,-120.5366 502,4 -4,4"/>
<!-- Node151 -->
<g id="node1" class="node">
<title>Node151</title>
<polygon fill="#bfbfbf" stroke="#000000" points="0,-42.0387 0,-72.0387 156,-72.0387 156,-42.0387 0,-42.0387"/>
<text text-anchor="start" x="8" y="-60.0387" font-family="Helvetica,sans-Serif" font-size="10.00" fill="#000000">neon::solid::femSubmesh</text>
<text text-anchor="middle" x="78" y="-49.0387" font-family="Helvetica,sans-Serif" font-size="10.00" fill="#000000">::update_deformation_measures</text>
</g>
<!-- Node152 -->
<g id="node2" class="node">
<title>Node152</title>
<g id="a_node2"><a xlink:href="classneon_1_1SubMesh.html#af487d15a392b158f57d0de57e761f6d1" target="_top" xlink:title="neon::SubMesh::elements">
<polygon fill="#ffffff" stroke="#000000" points="367,-94.5387 367,-113.5387 498,-113.5387 498,-94.5387 367,-94.5387"/>
<text text-anchor="middle" x="432.5" y="-101.5387" font-family="Helvetica,sans-Serif" font-size="10.00" fill="#000000">neon::SubMesh::elements</text>
</a>
</g>
</g>
<!-- Node151&#45;&gt;Node152 -->
<g id="edge1" class="edge">
<title>Node151&#45;&gt;Node152</title>
<path fill="none" stroke="#191970" d="M104.1305,-72.2355C126.5868,-84.364 160.2724,-100.3868 192,-107.0387 246.2561,-118.414 308.9177,-117.1843 356.6755,-113.364"/>
<polygon fill="#191970" stroke="#191970" points="357.2734,-116.8257 366.9383,-112.4852 356.6761,-109.8512 357.2734,-116.8257"/>
</g>
<!-- Node153 -->
<g id="node3" class="node">
<title>Node153</title>
<g id="a_node3"><a xlink:href="classneon_1_1SubMesh.html#acacabb1cefbe206b4c2bf9ddade795ed" target="_top" xlink:title="neon::SubMesh::local\l_node_list">
<polygon fill="#ffffff" stroke="#000000" points="377,-21.0387 377,-51.0387 488,-51.0387 488,-21.0387 377,-21.0387"/>
<text text-anchor="start" x="385" y="-39.0387" font-family="Helvetica,sans-Serif" font-size="10.00" fill="#000000">neon::SubMesh::local</text>
<text text-anchor="middle" x="432.5" y="-28.0387" font-family="Helvetica,sans-Serif" font-size="10.00" fill="#000000">_node_list</text>
</a>
</g>
</g>
<!-- Node151&#45;&gt;Node153 -->
<g id="edge2" class="edge">
<title>Node151&#45;&gt;Node153</title>
<path fill="none" stroke="#191970" d="M104.6214,-41.9051C127.1,-30.0469 160.5607,-14.5093 192,-8.0387 252.5096,4.4147 269.7809,.2505 331,-8.0387 346.6025,-10.1514 363.1959,-14.012 378.3473,-18.2054"/>
<polygon fill="#191970" stroke="#191970" points="377.4933,-21.6015 388.0707,-20.994 379.4231,-14.8727 377.4933,-21.6015"/>
</g>
<!-- Node154 -->
<g id="node4" class="node">
<title>Node154</title>
<g id="a_node4"><a xlink:href="classneon_1_1solid_1_1femSubmesh.html#afa388c49be3b7e286237b363bb30551d" target="_top" xlink:title="neon::solid::femSubmesh\l::local_deformation_gradient">
<polygon fill="#ffffff" stroke="#000000" points="192,-18.0387 192,-48.0387 331,-48.0387 331,-18.0387 192,-18.0387"/>
<text text-anchor="start" x="200" y="-36.0387" font-family="Helvetica,sans-Serif" font-size="10.00" fill="#000000">neon::solid::femSubmesh</text>
<text text-anchor="middle" x="261.5" y="-25.0387" font-family="Helvetica,sans-Serif" font-size="10.00" fill="#000000">::local_deformation_gradient</text>
</a>
</g>
</g>
<!-- Node151&#45;&gt;Node154 -->
<g id="edge3" class="edge">
<title>Node151&#45;&gt;Node154</title>
<path fill="none" stroke="#191970" d="M156.0866,-46.8258C164.6403,-45.7071 173.356,-44.5671 181.9273,-43.4461"/>
<polygon fill="#191970" stroke="#191970" points="182.4431,-46.9085 191.9047,-42.1411 181.5353,-39.9676 182.4431,-46.9085"/>
</g>
<!-- Node155 -->
<g id="node5" class="node">
<title>Node155</title>
<g id="a_node5"><a xlink:href="classneon_1_1solid_1_1femSubmesh.html#abfcb47594fe901d00dc48b6550fe124b" target="_top" xlink:title="neon::solid::femSubmesh\l::offset">
<polygon fill="#ffffff" stroke="#000000" points="197.5,-67.0387 197.5,-97.0387 325.5,-97.0387 325.5,-67.0387 197.5,-67.0387"/>
<text text-anchor="start" x="205.5" y="-85.0387" font-family="Helvetica,sans-Serif" font-size="10.00" fill="#000000">neon::solid::femSubmesh</text>
<text text-anchor="middle" x="261.5" y="-74.0387" font-family="Helvetica,sans-Serif" font-size="10.00" fill="#000000">::offset</text>
</a>
</g>
</g>
<!-- Node151&#45;&gt;Node155 -->
<g id="edge4" class="edge">
<title>Node151&#45;&gt;Node155</title>
<path fill="none" stroke="#191970" d="M156.0866,-67.6773C166.4022,-69.0826 176.9535,-70.5202 187.2031,-71.9166"/>
<polygon fill="#191970" stroke="#191970" points="186.9512,-75.4145 197.3322,-73.2965 187.8962,-68.4786 186.9512,-75.4145"/>
</g>
<!-- Node155&#45;&gt;Node152 -->
<g id="edge5" class="edge">
<title>Node155&#45;&gt;Node152</title>
<path fill="none" stroke="#191970" d="M325.6606,-90.2933C335.8587,-91.6054 346.4895,-92.9731 356.9206,-94.3151"/>
<polygon fill="#191970" stroke="#191970" points="356.4748,-97.7865 366.8397,-95.5912 357.3681,-90.8437 356.4748,-97.7865"/>
</g>
<!-- Node155&#45;&gt;Node153 -->
<g id="edge6" class="edge">
<title>Node155&#45;&gt;Node153</title>
<path fill="none" stroke="#191970" d="M317.4918,-66.9766C333.3017,-62.7237 350.6458,-58.058 366.9626,-53.6687"/>
<polygon fill="#191970" stroke="#191970" points="368.219,-56.9552 376.9664,-50.9776 366.4005,-50.1955 368.219,-56.9552"/>
</g>
</g>
</svg>
        <g id="navigator" transform="translate(0 0)" fill="#404254">
                <rect fill="#f2f5e9" fill-opacity="0.5" stroke="#606060" stroke-width=".5" x="0" y="0" width="60" height="60"/>
                <use id="zoomplus" xlink:href="#zoomPlus" x="17" y="9" onmousedown="handleZoom(evt,'in')"/>
                <use id="zoomminus" xlink:href="#zoomMin" x="42" y="9" onmousedown="handleZoom(evt,'out')"/>
                <use id="reset" xlink:href="#resetDef" x="30" y="36" onmousedown="handleReset()"/>
                <g id="arrowUp" xlink:href="#dirArrow" transform="translate(30 24)" onmousedown="handlePan(0,-1)">
                  <use xlink:href="#rim" fill="#404040">
                        <set attributeName="fill" to="#808080" begin="arrowUp.mouseover" end="arrowUp.mouseout"/>
                  </use>
                  <path fill="none" stroke="white" stroke-width="1.5" d="M0,-3.0v7 M-2.5,-0.5L0,-3.0L2.5,-0.5"/>
                </g>
                <g id="arrowRight" xlink:href="#dirArrow" transform="rotate(90) translate(36 -43)" onmousedown="handlePan(1,0)">
                  <use xlink:href="#rim" fill="#404040">
                        <set attributeName="fill" to="#808080" begin="arrowRight.mouseover" end="arrowRight.mouseout"/>
                  </use>
                  <path fill="none" stroke="white" stroke-width="1.5" d="M0,-3.0v7 M-2.5,-0.5L0,-3.0L2.5,-0.5"/>
                </g>
                <g id="arrowDown" xlink:href="#dirArrow" transform="rotate(180) translate(-30 -48)" onmousedown="handlePan(0,1)">
                  <use xlink:href="#rim" fill="#404040">
                        <set attributeName="fill" to="#808080" begin="arrowDown.mouseover" end="arrowDown.mouseout"/>
                  </use>
                  <path fill="none" stroke="white" stroke-width="1.5" d="M0,-3.0v7 M-2.5,-0.5L0,-3.0L2.5,-0.5"/>
                </g>
                <g id="arrowLeft" xlink:href="#dirArrow" transform="rotate(270) translate(-36 17)" onmousedown="handlePan(-1,0)">
                  <use xlink:href="#rim" fill="#404040">
                        <set attributeName="fill" to="#808080" begin="arrowLeft.mouseover" end="arrowLeft.mouseout"/>
                  </use>
                  <path fill="none" stroke="white" stroke-width="1.5" d="M0,-3.0v7 M-2.5,-0.5L0,-3.0L2.5,-0.5"/>
                </g>
        </g>
        <svg viewBox="0 0 15 15" width="100%" height="30px" preserveAspectRatio="xMaxYMin meet">
         <g id="arrow_out" transform="scale(0.3 0.3)">
          <a xlink:href="classneon_1_1solid_1_1femSubmesh_a8bd85d6bbd7f0e43b8621c95b93bfd50_cgraph_org.svg" target="_base">
           <rect id="button" ry="5" rx="5" y="6" x="6" height="38" width="38"
                fill="#f2f5e9" fill-opacity="0.5" stroke="#606060" stroke-width="1.0"/>
           <path id="arrow"
             d="M 11.500037,31.436501 C 11.940474,20.09759 22.043105,11.32322 32.158766,21.979434 L 37.068811,17.246167 C 37.068811,17.246167 37.088388,32 37.088388,32 L 22.160133,31.978069 C 22.160133,31.978069 26.997745,27.140456 26.997745,27.140456 C 18.528582,18.264221 13.291696,25.230495 11.500037,31.436501 z"
             style="fill:#404040;"/>
          </a>
         </g>
        </svg>
</svg>
