<?xml version="1.0" encoding="UTF-8" standalone="no"?>
<!DOCTYPE svg PUBLIC "-//W3C//DTD SVG 1.1//EN"
 "http://www.w3.org/Graphics/SVG/1.1/DTD/svg11.dtd">
<!-- Generated by graphviz version 2.40.1 (20161225.0304)
 -->
<!-- Title: neon::LinearElastic Pages: 1 -->
<svg width="328pt" height="140pt"
 viewBox="0.00 0.00 328.00 140.00" xmlns="http://www.w3.org/2000/svg" xmlns:xlink="http://www.w3.org/1999/xlink">
<g id="graph0" class="graph" transform="scale(1 1) rotate(0) translate(4 136)">
<title>neon::LinearElastic</title>
<polygon fill="#ffffff" stroke="transparent" points="-4,4 -4,-136 324,-136 324,4 -4,4"/>
<!-- Node0 -->
<g id="node1" class="node">
<title>Node0</title>
<polygon fill="#bfbfbf" stroke="#000000" points="104.5,-56.5 104.5,-75.5 204.5,-75.5 204.5,-56.5 104.5,-56.5"/>
<text text-anchor="middle" x="154.5" y="-63.5" font-family="Helvetica,sans-Serif" font-size="10.00" fill="#000000">neon::LinearElastic</text>
</g>
<!-- Node2 -->
<g id="node3" class="node">
<title>Node2</title>
<g id="a_node3"><a xlink:href="classneon_1_1IsotropicElasticPlastic.html" target="_top" xlink:title="neon::IsotropicElasticPlastic">
<polygon fill="#ffffff" stroke="#000000" points="0,-.5 0,-19.5 141,-19.5 141,-.5 0,-.5"/>
<text text-anchor="middle" x="70.5" y="-7.5" font-family="Helvetica,sans-Serif" font-size="10.00" fill="#000000">neon::IsotropicElasticPlastic</text>
</a>
</g>
</g>
<!-- Node0&#45;&gt;Node2 -->
<g id="edge2" class="edge">
<title>Node0&#45;&gt;Node2</title>
<path fill="none" stroke="#191970" d="M131.2351,-50.49C116.4144,-40.6096 97.6791,-28.1194 84.964,-19.6427"/>
<polygon fill="#191970" stroke="#191970" points="129.6063,-53.6107 139.8683,-56.2455 133.4893,-47.7863 129.6063,-53.6107"/>
</g>
<!-- Node3 -->
<g id="node4" class="node">
<title>Node3</title>
<g id="a_node4"><a xlink:href="classneon_1_1MicromechanicalElastomer.html" target="_top" xlink:title="neon::MicromechanicalElastomer">
<polygon fill="#ffffff" stroke="#000000" points="159,-.5 159,-19.5 320,-19.5 320,-.5 159,-.5"/>
<text text-anchor="middle" x="239.5" y="-7.5" font-family="Helvetica,sans-Serif" font-size="10.00" fill="#000000">neon::MicromechanicalElastomer</text>
</a>
</g>
</g>
<!-- Node0&#45;&gt;Node3 -->
<g id="edge3" class="edge">
<title>Node0&#45;&gt;Node3</title>
<path fill="none" stroke="#191970" d="M178.0419,-50.49C193.039,-40.6096 211.9973,-28.1194 224.8638,-19.6427"/>
<polygon fill="#191970" stroke="#191970" points="175.7309,-47.8212 169.3059,-56.2455 179.5821,-53.6666 175.7309,-47.8212"/>
</g>
<!-- Node1 -->
<g id="node2" class="node">
<title>Node1</title>
<g id="a_node2"><a xlink:href="classneon_1_1Material.html" target="_top" xlink:title="neon::Material">
<polygon fill="#ffffff" stroke="#000000" points="115.5,-112.5 115.5,-131.5 193.5,-131.5 193.5,-112.5 115.5,-112.5"/>
<text text-anchor="middle" x="154.5" y="-119.5" font-family="Helvetica,sans-Serif" font-size="10.00" fill="#000000">neon::Material</text>
</a>
</g>
</g>
<!-- Node1&#45;&gt;Node0 -->
<g id="edge1" class="edge">
<title>Node1&#45;&gt;Node0</title>
<path fill="none" stroke="#191970" d="M154.5,-102.1575C154.5,-93.155 154.5,-82.9199 154.5,-75.6427"/>
<polygon fill="#191970" stroke="#191970" points="151.0001,-102.2455 154.5,-112.2455 158.0001,-102.2456 151.0001,-102.2455"/>
</g>
</g>
</svg>
