<?xml version="1.0" encoding="UTF-8" standalone="no"?>
<!DOCTYPE svg PUBLIC "-//W3C//DTD SVG 1.1//EN"
 "http://www.w3.org/Graphics/SVG/1.1/DTD/svg11.dtd">
<!-- Generated by graphviz version 2.40.1 (20161225.0304)
 -->
<!-- Title: neon::solid::femSubmesh::internal_variables Pages: 1 -->
<svg width="841pt" height="525pt"
 viewBox="0.00 0.00 841.00 525.21" xmlns="http://www.w3.org/2000/svg" xmlns:xlink="http://www.w3.org/1999/xlink">
<g id="graph0" class="graph" transform="scale(1 1) rotate(0) translate(4 521.213)">
<title>neon::solid::femSubmesh::internal_variables</title>
<polygon fill="#ffffff" stroke="transparent" points="-4,4 -4,-521.213 837,-521.213 837,4 -4,4"/>
<!-- Node75 -->
<g id="node1" class="node">
<title>Node75</title>
<polygon fill="#bfbfbf" stroke="#000000" points="0,-236.5 0,-266.5 128,-266.5 128,-236.5 0,-236.5"/>
<text text-anchor="start" x="8" y="-254.5" font-family="Helvetica,sans-Serif" font-size="10.00" fill="#000000">neon::solid::femSubmesh</text>
<text text-anchor="middle" x="64" y="-243.5" font-family="Helvetica,sans-Serif" font-size="10.00" fill="#000000">::internal_variables</text>
</g>
<!-- Node76 -->
<g id="node2" class="node">
<title>Node76</title>
<g id="a_node2"><a xlink:href="classneon_1_1solid_1_1femSubmesh.html#abdc355d969d95032d707ab251e4db75d" target="_top" xlink:title="neon::solid::femSubmesh\l::tangent_stiffness">
<polygon fill="#ffffff" stroke="#000000" points="166.5,-398.5 166.5,-428.5 294.5,-428.5 294.5,-398.5 166.5,-398.5"/>
<text text-anchor="start" x="174.5" y="-416.5" font-family="Helvetica,sans-Serif" font-size="10.00" fill="#000000">neon::solid::femSubmesh</text>
<text text-anchor="middle" x="230.5" y="-405.5" font-family="Helvetica,sans-Serif" font-size="10.00" fill="#000000">::tangent_stiffness</text>
</a>
</g>
</g>
<!-- Node75&#45;&gt;Node76 -->
<g id="edge1" class="edge">
<title>Node75&#45;&gt;Node76</title>
<path fill="none" stroke="#191970" d="M79.6639,-266.7406C109.1662,-295.4455 173.0903,-357.6419 207.4866,-391.1086"/>
<polygon fill="#191970" stroke="#191970" points="205.1484,-393.7169 214.7564,-398.1819 210.0299,-388.6998 205.1484,-393.7169"/>
</g>
<!-- Node86 -->
<g id="node12" class="node">
<title>Node86</title>
<g id="a_node12"><a xlink:href="classneon_1_1solid_1_1femSubmesh.html#ad0c267e8fd87a1126c216b21ccfd7b55" target="_top" xlink:title="neon::solid::femSubmesh\l::internal_force">
<polygon fill="#ffffff" stroke="#000000" points="166.5,-183.5 166.5,-213.5 294.5,-213.5 294.5,-183.5 166.5,-183.5"/>
<text text-anchor="start" x="174.5" y="-201.5" font-family="Helvetica,sans-Serif" font-size="10.00" fill="#000000">neon::solid::femSubmesh</text>
<text text-anchor="middle" x="230.5" y="-190.5" font-family="Helvetica,sans-Serif" font-size="10.00" fill="#000000">::internal_force</text>
</a>
</g>
</g>
<!-- Node75&#45;&gt;Node86 -->
<g id="edge15" class="edge">
<title>Node75&#45;&gt;Node86</title>
<path fill="none" stroke="#191970" d="M111.2669,-236.4541C130.6004,-230.2999 153.1401,-223.1251 173.385,-216.6808"/>
<polygon fill="#191970" stroke="#191970" points="174.6477,-219.9519 183.115,-213.5835 172.5244,-213.2817 174.6477,-219.9519"/>
</g>
<!-- Node88 -->
<g id="node14" class="node">
<title>Node88</title>
<g id="a_node14"><a xlink:href="classneon_1_1solid_1_1femSubmesh.html#ad6e50b01a0301255f81ffb8139ee785a" target="_top" xlink:title="neon::solid::femSubmesh\l::consistent_mass">
<polygon fill="#ffffff" stroke="#000000" points="348,-300.5 348,-330.5 476,-330.5 476,-300.5 348,-300.5"/>
<text text-anchor="start" x="356" y="-318.5" font-family="Helvetica,sans-Serif" font-size="10.00" fill="#000000">neon::solid::femSubmesh</text>
<text text-anchor="middle" x="412" y="-307.5" font-family="Helvetica,sans-Serif" font-size="10.00" fill="#000000">::consistent_mass</text>
</a>
</g>
</g>
<!-- Node75&#45;&gt;Node88 -->
<g id="edge22" class="edge">
<title>Node75&#45;&gt;Node88</title>
<path fill="none" stroke="#191970" d="M120.3874,-266.5286C134.5679,-270.0507 149.795,-273.6134 164,-276.5 222.0402,-288.2943 288.3405,-298.5562 337.7783,-305.5894"/>
<polygon fill="#191970" stroke="#191970" points="337.3567,-309.0645 347.7478,-306.9964 338.3351,-302.1332 337.3567,-309.0645"/>
</g>
<!-- Node89 -->
<g id="node15" class="node">
<title>Node89</title>
<g id="a_node15"><a xlink:href="classneon_1_1solid_1_1femSubmesh.html#a118bc792978bf5ac5e24d3949f53244e" target="_top" xlink:title="neon::solid::femSubmesh\l::diagonal_mass">
<polygon fill="#ffffff" stroke="#000000" points="166.5,-236.5 166.5,-266.5 294.5,-266.5 294.5,-236.5 166.5,-236.5"/>
<text text-anchor="start" x="174.5" y="-254.5" font-family="Helvetica,sans-Serif" font-size="10.00" fill="#000000">neon::solid::femSubmesh</text>
<text text-anchor="middle" x="230.5" y="-243.5" font-family="Helvetica,sans-Serif" font-size="10.00" fill="#000000">::diagonal_mass</text>
</a>
</g>
</g>
<!-- Node75&#45;&gt;Node89 -->
<g id="edge27" class="edge">
<title>Node75&#45;&gt;Node89</title>
<path fill="none" stroke="#191970" d="M128.3732,-251.5C137.5128,-251.5 146.9728,-251.5 156.2804,-251.5"/>
<polygon fill="#191970" stroke="#191970" points="156.298,-255.0001 166.2979,-251.5 156.2979,-248.0001 156.298,-255.0001"/>
</g>
<!-- Node90 -->
<g id="node16" class="node">
<title>Node90</title>
<g id="a_node16"><a xlink:href="classneon_1_1solid_1_1femSubmesh.html#ab21112c060fb89a7fb065c4004e2ab46" target="_top" xlink:title="neon::solid::femSubmesh\l::update_internal_variables">
<polygon fill="#ffffff" stroke="#000000" points="164,-74.5 164,-104.5 297,-104.5 297,-74.5 164,-74.5"/>
<text text-anchor="start" x="172" y="-92.5" font-family="Helvetica,sans-Serif" font-size="10.00" fill="#000000">neon::solid::femSubmesh</text>
<text text-anchor="middle" x="230.5" y="-81.5" font-family="Helvetica,sans-Serif" font-size="10.00" fill="#000000">::update_internal_variables</text>
</a>
</g>
</g>
<!-- Node75&#45;&gt;Node90 -->
<g id="edge30" class="edge">
<title>Node75&#45;&gt;Node90</title>
<path fill="none" stroke="#191970" d="M79.6639,-236.2594C109.1662,-207.5545 173.0903,-145.3581 207.4866,-111.8914"/>
<polygon fill="#191970" stroke="#191970" points="210.0299,-114.3002 214.7564,-104.8181 205.1484,-109.2831 210.0299,-114.3002"/>
</g>
<!-- Node77 -->
<g id="node3" class="node">
<title>Node77</title>
<g id="a_node3"><a xlink:href="classneon_1_1SubMesh.html#acacabb1cefbe206b4c2bf9ddade795ed" target="_top" xlink:title="neon::SubMesh::local\l_node_list">
<polygon fill="#ffffff" stroke="#000000" points="712,-259.5 712,-289.5 823,-289.5 823,-259.5 712,-259.5"/>
<text text-anchor="start" x="720" y="-277.5" font-family="Helvetica,sans-Serif" font-size="10.00" fill="#000000">neon::SubMesh::local</text>
<text text-anchor="middle" x="767.5" y="-266.5" font-family="Helvetica,sans-Serif" font-size="10.00" fill="#000000">_node_list</text>
</a>
</g>
</g>
<!-- Node76&#45;&gt;Node77 -->
<g id="edge2" class="edge">
<title>Node76&#45;&gt;Node77</title>
<path fill="none" stroke="#191970" d="M245.0852,-428.7388C263.5515,-446.8166 297.2883,-475.956 333,-487.5 475.1623,-533.4548 546.2391,-530.827 666,-441.5 679.0803,-431.7437 729.8231,-342.3377 754.2347,-298.5052"/>
<polygon fill="#191970" stroke="#191970" points="757.3616,-300.0836 759.1577,-289.6421 751.2422,-296.6846 757.3616,-300.0836"/>
</g>
<!-- Node78 -->
<g id="node4" class="node">
<title>Node78</title>
<g id="a_node4"><a xlink:href="classneon_1_1solid_1_1femSubmesh.html#ac59a58e4a33eea88a87f181c1771621e" target="_top" xlink:title="neon::solid::femSubmesh\l::material_tangent_stiffness">
<polygon fill="#ffffff" stroke="#000000" points="343.5,-398.5 343.5,-428.5 480.5,-428.5 480.5,-398.5 343.5,-398.5"/>
<text text-anchor="start" x="351.5" y="-416.5" font-family="Helvetica,sans-Serif" font-size="10.00" fill="#000000">neon::solid::femSubmesh</text>
<text text-anchor="middle" x="412" y="-405.5" font-family="Helvetica,sans-Serif" font-size="10.00" fill="#000000">::material_tangent_stiffness</text>
</a>
</g>
</g>
<!-- Node76&#45;&gt;Node78 -->
<g id="edge3" class="edge">
<title>Node76&#45;&gt;Node78</title>
<path fill="none" stroke="#191970" d="M294.7455,-413.5C307.1373,-413.5 320.2517,-413.5 333.0478,-413.5"/>
<polygon fill="#191970" stroke="#191970" points="333.2219,-417.0001 343.2219,-413.5 333.2219,-410.0001 333.2219,-417.0001"/>
</g>
<!-- Node84 -->
<g id="node10" class="node">
<title>Node84</title>
<g id="a_node10"><a xlink:href="classneon_1_1solid_1_1femSubmesh.html#a2828f622e7e0f2b5c5ab90654fd64de7" target="_top" xlink:title="neon::solid::femSubmesh\l::local_dof_list">
<polygon fill="#ffffff" stroke="#000000" points="532.5,-215.5 532.5,-245.5 660.5,-245.5 660.5,-215.5 532.5,-215.5"/>
<text text-anchor="start" x="540.5" y="-233.5" font-family="Helvetica,sans-Serif" font-size="10.00" fill="#000000">neon::solid::femSubmesh</text>
<text text-anchor="middle" x="596.5" y="-222.5" font-family="Helvetica,sans-Serif" font-size="10.00" fill="#000000">::local_dof_list</text>
</a>
</g>
</g>
<!-- Node76&#45;&gt;Node84 -->
<g id="edge10" class="edge">
<title>Node76&#45;&gt;Node84</title>
<path fill="none" stroke="#191970" d="M238.7269,-398.4179C253.7965,-372.2965 288.4198,-318.818 333,-291.5 335.0745,-290.2288 444.9967,-265.0155 522.1951,-247.407"/>
<polygon fill="#191970" stroke="#191970" points="523.411,-250.7196 532.3826,-245.084 521.8548,-243.8948 523.411,-250.7196"/>
</g>
<!-- Node85 -->
<g id="node11" class="node">
<title>Node85</title>
<g id="a_node11"><a xlink:href="classneon_1_1solid_1_1femSubmesh.html#a146b01147a0c5c030a464088509289dd" target="_top" xlink:title="neon::solid::femSubmesh\l::geometric_tangent_stiffness">
<polygon fill="#ffffff" stroke="#000000" points="339,-447.5 339,-477.5 485,-477.5 485,-447.5 339,-447.5"/>
<text text-anchor="start" x="347" y="-465.5" font-family="Helvetica,sans-Serif" font-size="10.00" fill="#000000">neon::solid::femSubmesh</text>
<text text-anchor="middle" x="412" y="-454.5" font-family="Helvetica,sans-Serif" font-size="10.00" fill="#000000">::geometric_tangent_stiffness</text>
</a>
</g>
</g>
<!-- Node76&#45;&gt;Node85 -->
<g id="edge11" class="edge">
<title>Node76&#45;&gt;Node85</title>
<path fill="none" stroke="#191970" d="M286.437,-428.6014C305.4161,-433.7253 326.7898,-439.4956 346.4497,-444.8032"/>
<polygon fill="#191970" stroke="#191970" points="345.6811,-448.221 356.2477,-447.4484 347.5056,-441.4629 345.6811,-448.221"/>
</g>
<!-- Node79 -->
<g id="node5" class="node">
<title>Node79</title>
<g id="a_node5"><a xlink:href="classneon_1_1SubMesh.html#a95a1ae84508d0006244c248aa50c76b3" target="_top" xlink:title="neon::SubMesh::nodes\l_per_element">
<polygon fill="#ffffff" stroke="#000000" points="538,-401.5 538,-431.5 655,-431.5 655,-401.5 538,-401.5"/>
<text text-anchor="start" x="546" y="-419.5" font-family="Helvetica,sans-Serif" font-size="10.00" fill="#000000">neon::SubMesh::nodes</text>
<text text-anchor="middle" x="596.5" y="-408.5" font-family="Helvetica,sans-Serif" font-size="10.00" fill="#000000">_per_element</text>
</a>
</g>
</g>
<!-- Node78&#45;&gt;Node79 -->
<g id="edge4" class="edge">
<title>Node78&#45;&gt;Node79</title>
<path fill="none" stroke="#191970" d="M480.701,-414.6171C495.9345,-414.8648 512.0861,-415.1274 527.3379,-415.3754"/>
<polygon fill="#191970" stroke="#191970" points="527.6752,-418.8813 537.7308,-415.5444 527.7891,-411.8822 527.6752,-418.8813"/>
</g>
<!-- Node81 -->
<g id="node7" class="node">
<title>Node81</title>
<g id="a_node7"><a xlink:href="classneon_1_1solid_1_1femSubmesh.html#abfcb47594fe901d00dc48b6550fe124b" target="_top" xlink:title="neon::solid::femSubmesh\l::offset">
<polygon fill="#ffffff" stroke="#000000" points="532.5,-352.5 532.5,-382.5 660.5,-382.5 660.5,-352.5 532.5,-352.5"/>
<text text-anchor="start" x="540.5" y="-370.5" font-family="Helvetica,sans-Serif" font-size="10.00" fill="#000000">neon::solid::femSubmesh</text>
<text text-anchor="middle" x="596.5" y="-359.5" font-family="Helvetica,sans-Serif" font-size="10.00" fill="#000000">::offset</text>
</a>
</g>
</g>
<!-- Node78&#45;&gt;Node81 -->
<g id="edge6" class="edge">
<title>Node78&#45;&gt;Node81</title>
<path fill="none" stroke="#191970" d="M472.4122,-398.4379C489.7034,-394.1268 508.6956,-389.3916 526.5099,-384.9501"/>
<polygon fill="#191970" stroke="#191970" points="527.4111,-388.3326 536.2673,-382.5174 525.7176,-381.5406 527.4111,-388.3326"/>
</g>
<!-- Node83 -->
<g id="node9" class="node">
<title>Node83</title>
<g id="a_node9"><a xlink:href="classneon_1_1solid_1_1femSubmesh.html#afa388c49be3b7e286237b363bb30551d" target="_top" xlink:title="neon::solid::femSubmesh\l::local_deformation_gradient">
<polygon fill="#ffffff" stroke="#000000" points="527,-303.5 527,-333.5 666,-333.5 666,-303.5 527,-303.5"/>
<text text-anchor="start" x="535" y="-321.5" font-family="Helvetica,sans-Serif" font-size="10.00" fill="#000000">neon::solid::femSubmesh</text>
<text text-anchor="middle" x="596.5" y="-310.5" font-family="Helvetica,sans-Serif" font-size="10.00" fill="#000000">::local_deformation_gradient</text>
</a>
</g>
</g>
<!-- Node78&#45;&gt;Node83 -->
<g id="edge9" class="edge">
<title>Node78&#45;&gt;Node83</title>
<path fill="none" stroke="#191970" d="M474.908,-398.3611C480.5711,-395.8363 486.034,-392.9035 491,-389.5 512.4142,-374.8232 505.9621,-358.7113 527,-343.5 529.6497,-341.5841 532.4612,-339.8019 535.3758,-338.1456"/>
<polygon fill="#191970" stroke="#191970" points="537.06,-341.2156 544.3709,-333.5473 533.8737,-334.9827 537.06,-341.2156"/>
</g>
<!-- Node80 -->
<g id="node6" class="node">
<title>Node80</title>
<g id="a_node6"><a xlink:href="classneon_1_1SubMesh.html#a2047359fe78bed483cc5462a9c0e7b42" target="_top" xlink:title="neon::SubMesh::unique\l_connectivities">
<polygon fill="#ffffff" stroke="#000000" points="708,-401.5 708,-431.5 827,-431.5 827,-401.5 708,-401.5"/>
<text text-anchor="start" x="716" y="-419.5" font-family="Helvetica,sans-Serif" font-size="10.00" fill="#000000">neon::SubMesh::unique</text>
<text text-anchor="middle" x="767.5" y="-408.5" font-family="Helvetica,sans-Serif" font-size="10.00" fill="#000000">_connectivities</text>
</a>
</g>
</g>
<!-- Node79&#45;&gt;Node80 -->
<g id="edge5" class="edge">
<title>Node79&#45;&gt;Node80</title>
<path fill="none" stroke="#191970" d="M655.3485,-416.5C669.0309,-416.5 683.725,-416.5 697.8242,-416.5"/>
<polygon fill="#191970" stroke="#191970" points="697.9626,-420.0001 707.9625,-416.5 697.9625,-413.0001 697.9626,-420.0001"/>
</g>
<!-- Node81&#45;&gt;Node77 -->
<g id="edge8" class="edge">
<title>Node81&#45;&gt;Node77</title>
<path fill="none" stroke="#191970" d="M645.4068,-352.4517C652.4423,-349.7601 659.4957,-346.7613 666,-343.5 692.7133,-330.1058 720.6202,-310.6786 740.3956,-295.8486"/>
<polygon fill="#191970" stroke="#191970" points="742.7693,-298.4406 748.6104,-289.6013 738.532,-292.8688 742.7693,-298.4406"/>
</g>
<!-- Node82 -->
<g id="node8" class="node">
<title>Node82</title>
<g id="a_node8"><a xlink:href="classneon_1_1SubMesh.html#af487d15a392b158f57d0de57e761f6d1" target="_top" xlink:title="neon::SubMesh::elements">
<polygon fill="#ffffff" stroke="#000000" points="702,-148 702,-167 833,-167 833,-148 702,-148"/>
<text text-anchor="middle" x="767.5" y="-155" font-family="Helvetica,sans-Serif" font-size="10.00" fill="#000000">neon::SubMesh::elements</text>
</a>
</g>
</g>
<!-- Node81&#45;&gt;Node82 -->
<g id="edge7" class="edge">
<title>Node81&#45;&gt;Node82</title>
<path fill="none" stroke="#191970" d="M653.9259,-352.4484C658.3102,-349.914 662.4155,-346.9548 666,-343.5 697.9122,-312.742 681.0834,-289.5761 702,-250.5 716.9771,-222.52 738.9618,-193.0206 753.2542,-174.9353"/>
<polygon fill="#191970" stroke="#191970" points="756.0664,-177.0231 759.5882,-167.0307 750.6037,-172.6459 756.0664,-177.0231"/>
</g>
<!-- Node85&#45;&gt;Node79 -->
<g id="edge12" class="edge">
<title>Node85&#45;&gt;Node79</title>
<path fill="none" stroke="#191970" d="M472.4122,-447.4379C490.2289,-442.9958 509.8515,-438.1034 528.1307,-433.546"/>
<polygon fill="#191970" stroke="#191970" points="528.9816,-436.9411 537.8378,-431.1258 527.2881,-430.149 528.9816,-436.9411"/>
</g>
<!-- Node85&#45;&gt;Node81 -->
<g id="edge14" class="edge">
<title>Node85&#45;&gt;Node81</title>
<path fill="none" stroke="#191970" d="M474.908,-447.3611C480.5711,-444.8363 486.034,-441.9035 491,-438.5 512.4142,-423.8232 505.9621,-407.7113 527,-392.5 529.6497,-390.5841 532.4612,-388.8019 535.3758,-387.1456"/>
<polygon fill="#191970" stroke="#191970" points="537.06,-390.2156 544.3709,-382.5473 533.8737,-383.9827 537.06,-390.2156"/>
</g>
<!-- Node85&#45;&gt;Node83 -->
<g id="edge13" class="edge">
<title>Node85&#45;&gt;Node83</title>
<path fill="none" stroke="#191970" d="M478.78,-447.3833C483.1957,-444.8642 487.3351,-441.9262 491,-438.5 523.9833,-407.6647 494.8036,-375.156 527,-343.5 528.4744,-342.0504 530.0388,-340.6841 531.676,-339.3966"/>
<polygon fill="#191970" stroke="#191970" points="534.0071,-342.0493 540.3893,-333.5925 530.1263,-336.2235 534.0071,-342.0493"/>
</g>
<!-- Node86&#45;&gt;Node77 -->
<g id="edge16" class="edge">
<title>Node86&#45;&gt;Node77</title>
<path fill="none" stroke="#191970" d="M294.676,-188.6254C381.2474,-177.7619 539.2039,-166.6764 666,-206.5 695.5698,-215.7872 724.4528,-236.6274 743.7987,-252.8058"/>
<polygon fill="#191970" stroke="#191970" points="741.6146,-255.5438 751.4801,-259.4068 746.1769,-250.2347 741.6146,-255.5438"/>
</g>
<!-- Node86&#45;&gt;Node84 -->
<g id="edge17" class="edge">
<title>Node86&#45;&gt;Node84</title>
<path fill="none" stroke="#191970" d="M294.6712,-204.1106C358.2423,-209.6687 455.5192,-218.1738 522.3583,-224.0177"/>
<polygon fill="#191970" stroke="#191970" points="522.1357,-227.5115 532.4025,-224.8959 522.7454,-220.5381 522.1357,-227.5115"/>
</g>
<!-- Node87 -->
<g id="node13" class="node">
<title>Node87</title>
<g id="a_node13"><a xlink:href="classneon_1_1solid_1_1femSubmesh.html#acb75f263f98c1934224fbb21854b347c" target="_top" xlink:title="neon::solid::femSubmesh\l::internal_nodal_force">
<polygon fill="#ffffff" stroke="#000000" points="348,-349.5 348,-379.5 476,-379.5 476,-349.5 348,-349.5"/>
<text text-anchor="start" x="356" y="-367.5" font-family="Helvetica,sans-Serif" font-size="10.00" fill="#000000">neon::solid::femSubmesh</text>
<text text-anchor="middle" x="412" y="-356.5" font-family="Helvetica,sans-Serif" font-size="10.00" fill="#000000">::internal_nodal_force</text>
</a>
</g>
</g>
<!-- Node86&#45;&gt;Node87 -->
<g id="edge18" class="edge">
<title>Node86&#45;&gt;Node87</title>
<path fill="none" stroke="#191970" d="M278.8516,-213.6001C285.5958,-217.3148 291.9379,-221.8888 297,-227.5 332.3068,-266.6369 295.4785,-303.481 333,-340.5 334.875,-342.3499 336.8878,-344.0578 339.009,-345.6347"/>
<polygon fill="#191970" stroke="#191970" points="337.3395,-348.7196 347.6658,-351.09 341.0716,-342.7974 337.3395,-348.7196"/>
</g>
<!-- Node87&#45;&gt;Node79 -->
<g id="edge19" class="edge">
<title>Node87&#45;&gt;Node79</title>
<path fill="none" stroke="#191970" d="M465.365,-379.5406C486.6876,-385.5502 511.4026,-392.5159 533.5901,-398.7693"/>
<polygon fill="#191970" stroke="#191970" points="532.6804,-402.1492 543.2549,-401.4932 534.5794,-395.4117 532.6804,-402.1492"/>
</g>
<!-- Node87&#45;&gt;Node81 -->
<g id="edge21" class="edge">
<title>Node87&#45;&gt;Node81</title>
<path fill="none" stroke="#191970" d="M476.0114,-365.5408C490.81,-365.7815 506.6816,-366.0395 521.8889,-366.2868"/>
<polygon fill="#191970" stroke="#191970" points="522.2339,-369.7928 532.2895,-366.4559 522.3478,-362.7937 522.2339,-369.7928"/>
</g>
<!-- Node87&#45;&gt;Node83 -->
<g id="edge20" class="edge">
<title>Node87&#45;&gt;Node83</title>
<path fill="none" stroke="#191970" d="M472.4122,-349.4379C489.7034,-345.1268 508.6956,-340.3916 526.5099,-335.9501"/>
<polygon fill="#191970" stroke="#191970" points="527.4111,-339.3326 536.2673,-333.5174 525.7176,-332.5406 527.4111,-339.3326"/>
</g>
<!-- Node88&#45;&gt;Node77 -->
<g id="edge23" class="edge">
<title>Node88&#45;&gt;Node77</title>
<path fill="none" stroke="#191970" d="M476.2968,-302.6145C492.7741,-299.6276 510.5021,-296.687 527,-294.5 585.9397,-286.6868 653.4353,-281.3902 701.8908,-278.221"/>
<polygon fill="#191970" stroke="#191970" points="702.1764,-281.71 711.9318,-277.5769 701.7282,-274.7243 702.1764,-281.71"/>
</g>
<!-- Node88&#45;&gt;Node79 -->
<g id="edge24" class="edge">
<title>Node88&#45;&gt;Node79</title>
<path fill="none" stroke="#191970" d="M473.9205,-330.6191C479.9734,-333.3901 485.7917,-336.6555 491,-340.5 513.6154,-357.1933 504.6037,-375.5139 527,-392.5 528.818,-393.8789 530.721,-395.1822 532.6882,-396.4138"/>
<polygon fill="#191970" stroke="#191970" points="531.2143,-399.598 541.6606,-401.3662 534.597,-393.4695 531.2143,-399.598"/>
</g>
<!-- Node88&#45;&gt;Node83 -->
<g id="edge25" class="edge">
<title>Node88&#45;&gt;Node83</title>
<path fill="none" stroke="#191970" d="M476.0114,-316.5408C489.1154,-316.7539 503.0609,-316.9807 516.6414,-317.2015"/>
<polygon fill="#191970" stroke="#191970" points="516.8798,-320.7057 526.9354,-317.3689 516.9936,-313.7067 516.8798,-320.7057"/>
</g>
<!-- Node88&#45;&gt;Node84 -->
<g id="edge26" class="edge">
<title>Node88&#45;&gt;Node84</title>
<path fill="none" stroke="#191970" d="M457.5396,-300.3757C468.7175,-296.0772 480.4868,-291.0397 491,-285.5 508.2336,-276.4192 509.9731,-269.9626 527,-260.5 533.8655,-256.6846 541.3133,-253.0155 548.6974,-249.6325"/>
<polygon fill="#191970" stroke="#191970" points="550.2522,-252.7716 557.9679,-245.5108 547.4084,-246.3753 550.2522,-252.7716"/>
</g>
<!-- Node89&#45;&gt;Node84 -->
<g id="edge29" class="edge">
<title>Node89&#45;&gt;Node84</title>
<path fill="none" stroke="#191970" d="M294.6712,-247.818C358.2423,-244.1705 455.5192,-238.5891 522.3583,-234.754"/>
<polygon fill="#191970" stroke="#191970" points="522.6195,-238.2449 532.4025,-234.1777 522.2184,-231.2564 522.6195,-238.2449"/>
</g>
<!-- Node89&#45;&gt;Node88 -->
<g id="edge28" class="edge">
<title>Node89&#45;&gt;Node88</title>
<path fill="none" stroke="#191970" d="M273.0537,-266.5052C299.0159,-275.6599 332.392,-287.4289 359.9254,-297.1376"/>
<polygon fill="#191970" stroke="#191970" points="358.804,-300.4534 369.3988,-300.4781 361.1319,-293.8518 358.804,-300.4534"/>
</g>
<!-- Node91 -->
<g id="node17" class="node">
<title>Node91</title>
<g id="a_node17"><a xlink:href="classneon_1_1solid_1_1femSubmesh.html#a8bd85d6bbd7f0e43b8621c95b93bfd50" target="_top" xlink:title="neon::solid::femSubmesh\l::update_deformation_measures">
<polygon fill="#ffffff" stroke="#000000" points="334,-98.5 334,-128.5 490,-128.5 490,-98.5 334,-98.5"/>
<text text-anchor="start" x="342" y="-116.5" font-family="Helvetica,sans-Serif" font-size="10.00" fill="#000000">neon::solid::femSubmesh</text>
<text text-anchor="middle" x="412" y="-105.5" font-family="Helvetica,sans-Serif" font-size="10.00" fill="#000000">::update_deformation_measures</text>
</a>
</g>
</g>
<!-- Node90&#45;&gt;Node91 -->
<g id="edge31" class="edge">
<title>Node90&#45;&gt;Node91</title>
<path fill="none" stroke="#191970" d="M297.0533,-98.3004C305.7272,-99.4474 314.7193,-100.6364 323.6797,-101.8213"/>
<polygon fill="#191970" stroke="#191970" points="323.3917,-105.3136 333.7643,-103.1548 324.3094,-98.374 323.3917,-105.3136"/>
</g>
<!-- Node92 -->
<g id="node18" class="node">
<title>Node92</title>
<g id="a_node18"><a xlink:href="classneon_1_1solid_1_1femSubmesh.html#a589769624c7a0437790eddbd78faec90" target="_top" xlink:title="neon::solid::femSubmesh\l::update_Jacobian_determinants">
<polygon fill="#ffffff" stroke="#000000" points="333,-49.5 333,-79.5 491,-79.5 491,-49.5 333,-49.5"/>
<text text-anchor="start" x="341" y="-67.5" font-family="Helvetica,sans-Serif" font-size="10.00" fill="#000000">neon::solid::femSubmesh</text>
<text text-anchor="middle" x="412" y="-56.5" font-family="Helvetica,sans-Serif" font-size="10.00" fill="#000000">::update_Jacobian_determinants</text>
</a>
</g>
</g>
<!-- Node90&#45;&gt;Node92 -->
<g id="edge36" class="edge">
<title>Node90&#45;&gt;Node92</title>
<path fill="none" stroke="#191970" d="M297.0533,-80.3329C305.4158,-79.181 314.074,-77.9884 322.7145,-76.7983"/>
<polygon fill="#191970" stroke="#191970" points="323.4019,-80.2367 332.8308,-75.4049 322.4467,-73.3022 323.4019,-80.2367"/>
</g>
<!-- Node93 -->
<g id="node19" class="node">
<title>Node93</title>
<g id="a_node19"><a xlink:href="classneon_1_1solid_1_1femSubmesh.html#a6bf9f575ae746cc54f65bf9eabcfa50d" target="_top" xlink:title="neon::solid::femSubmesh\l::check_element_distortion">
<polygon fill="#ffffff" stroke="#000000" points="345,-.5 345,-30.5 479,-30.5 479,-.5 345,-.5"/>
<text text-anchor="start" x="353" y="-18.5" font-family="Helvetica,sans-Serif" font-size="10.00" fill="#000000">neon::solid::femSubmesh</text>
<text text-anchor="middle" x="412" y="-7.5" font-family="Helvetica,sans-Serif" font-size="10.00" fill="#000000">::check_element_distortion</text>
</a>
</g>
</g>
<!-- Node90&#45;&gt;Node93 -->
<g id="edge37" class="edge">
<title>Node90&#45;&gt;Node93</title>
<path fill="none" stroke="#191970" d="M258.239,-74.4762C278.5611,-63.8406 307.0166,-49.7095 333,-39.5 338.003,-37.5342 343.2354,-35.6294 348.5227,-33.8098"/>
<polygon fill="#191970" stroke="#191970" points="349.6804,-37.1133 358.0614,-30.6318 347.4677,-30.4722 349.6804,-37.1133"/>
</g>
<!-- Node91&#45;&gt;Node77 -->
<g id="edge33" class="edge">
<title>Node91&#45;&gt;Node77</title>
<path fill="none" stroke="#191970" d="M490.1481,-107.5227C543.0163,-106.9795 612.6584,-113.341 666,-143.5 688.6456,-156.3037 729.9467,-216.3884 752.2462,-250.5657"/>
<polygon fill="#191970" stroke="#191970" points="749.3697,-252.563 757.7423,-259.0553 755.2458,-248.7588 749.3697,-252.563"/>
</g>
<!-- Node91&#45;&gt;Node81 -->
<g id="edge35" class="edge">
<title>Node91&#45;&gt;Node81</title>
<path fill="none" stroke="#191970" d="M418.8203,-128.7696C440.7461,-177.6113 509.0408,-327.7541 527,-343.5 528.3528,-344.6861 529.7672,-345.8143 531.2325,-346.8874"/>
<polygon fill="#191970" stroke="#191970" points="529.7727,-350.1032 540.1042,-352.4506 533.4916,-344.1727 529.7727,-350.1032"/>
</g>
<!-- Node91&#45;&gt;Node82 -->
<g id="edge32" class="edge">
<title>Node91&#45;&gt;Node82</title>
<path fill="none" stroke="#191970" d="M490.07,-100.4331C540.8813,-94.5094 608.2075,-91.5576 666,-105.5 695.2438,-112.555 725.5282,-129.5526 745.3168,-142.2057"/>
<polygon fill="#191970" stroke="#191970" points="743.6036,-145.2679 753.8831,-147.8337 747.4473,-139.4176 743.6036,-145.2679"/>
</g>
<!-- Node91&#45;&gt;Node83 -->
<g id="edge34" class="edge">
<title>Node91&#45;&gt;Node83</title>
<path fill="none" stroke="#191970" d="M423.042,-128.6373C442.7526,-155.301 485.8,-211.9406 527,-255.5 540.6229,-269.903 557.0054,-284.8539 570.4424,-296.5747"/>
<polygon fill="#191970" stroke="#191970" points="568.5196,-299.5384 578.3773,-303.4213 573.0926,-294.2386 568.5196,-299.5384"/>
</g>
</g>
</svg>
