<?xml version="1.0" encoding="UTF-8" standalone="no"?>
<!DOCTYPE svg PUBLIC "-//W3C//DTD SVG 1.1//EN"
 "http://www.w3.org/Graphics/SVG/1.1/DTD/svg11.dtd">
<!-- Generated by graphviz version 2.40.1 (20161225.0304)
 -->
<!-- Title: neon::Boundary::interpolate_prescribed_value Pages: 1 -->
<svg width="286pt" height="88pt"
 viewBox="0.00 0.00 286.00 88.00" xmlns="http://www.w3.org/2000/svg" xmlns:xlink="http://www.w3.org/1999/xlink">
<g id="graph0" class="graph" transform="scale(1 1) rotate(0) translate(4 84)">
<title>neon::Boundary::interpolate_prescribed_value</title>
<polygon fill="#ffffff" stroke="transparent" points="-4,4 -4,-84 282,-84 282,4 -4,4"/>
<!-- Node5 -->
<g id="node1" class="node">
<title>Node5</title>
<polygon fill="#bfbfbf" stroke="#000000" points="0,-24.5 0,-54.5 136,-54.5 136,-24.5 0,-24.5"/>
<text text-anchor="start" x="8" y="-42.5" font-family="Helvetica,sans-Serif" font-size="10.00" fill="#000000">neon::Boundary::interpolate</text>
<text text-anchor="middle" x="68" y="-31.5" font-family="Helvetica,sans-Serif" font-size="10.00" fill="#000000">_prescribed_value</text>
</g>
<!-- Node6 -->
<g id="node2" class="node">
<title>Node6</title>
<g id="a_node2"><a xlink:href="classneon_1_1solid_1_1Dirichlet.html#a5e13d1607c3b866ac11ce77ec8c37d07" target="_top" xlink:title="neon::solid::Dirichlet\l::value_view">
<polygon fill="#ffffff" stroke="#000000" points="172,-49.5 172,-79.5 278,-79.5 278,-49.5 172,-49.5"/>
<text text-anchor="start" x="180" y="-67.5" font-family="Helvetica,sans-Serif" font-size="10.00" fill="#000000">neon::solid::Dirichlet</text>
<text text-anchor="middle" x="225" y="-56.5" font-family="Helvetica,sans-Serif" font-size="10.00" fill="#000000">::value_view</text>
</a>
</g>
</g>
<!-- Node5&#45;&gt;Node6 -->
<g id="edge1" class="edge">
<title>Node5&#45;&gt;Node6</title>
<path fill="none" stroke="#191970" d="M146.4955,-51.9993C155.1117,-53.3713 163.7279,-54.7433 171.9291,-56.0492"/>
<polygon fill="#191970" stroke="#191970" points="146.8318,-48.5088 136.4058,-50.3926 145.7309,-55.4217 146.8318,-48.5088"/>
</g>
<!-- Node7 -->
<g id="node3" class="node">
<title>Node7</title>
<g id="a_node3"><a xlink:href="classneon_1_1solid_1_1Traction.html#ac1bee7098e03427dee4ce3fb9a38eae6" target="_top" xlink:title="neon::solid::Traction\l::external_force">
<polygon fill="#ffffff" stroke="#000000" points="172.5,-.5 172.5,-30.5 277.5,-30.5 277.5,-.5 172.5,-.5"/>
<text text-anchor="start" x="180.5" y="-18.5" font-family="Helvetica,sans-Serif" font-size="10.00" fill="#000000">neon::solid::Traction</text>
<text text-anchor="middle" x="225" y="-7.5" font-family="Helvetica,sans-Serif" font-size="10.00" fill="#000000">::external_force</text>
</a>
</g>
</g>
<!-- Node5&#45;&gt;Node7 -->
<g id="edge2" class="edge">
<title>Node5&#45;&gt;Node7</title>
<path fill="none" stroke="#191970" d="M146.3511,-27.5228C155.1819,-26.1728 164.0152,-24.8225 172.404,-23.5401"/>
<polygon fill="#191970" stroke="#191970" points="145.762,-24.0721 136.4058,-29.0431 146.8199,-30.9917 145.762,-24.0721"/>
</g>
</g>
</svg>
