<?xml version="1.0" encoding="UTF-8" standalone="no"?>
<!DOCTYPE svg PUBLIC "-//W3C//DTD SVG 1.1//EN"
 "http://www.w3.org/Graphics/SVG/1.1/DTD/svg11.dtd">
<!-- Generated by graphviz version 2.40.1 (20161225.0304)
 -->
<!-- Title: neon::InternalVariables::add Pages: 1 -->
<svg width="325pt" height="165pt"
 viewBox="0.00 0.00 325.00 165.00" xmlns="http://www.w3.org/2000/svg" xmlns:xlink="http://www.w3.org/1999/xlink">
<g id="graph0" class="graph" transform="scale(1 1) rotate(0) translate(4 161)">
<title>neon::InternalVariables::add</title>
<polygon fill="#ffffff" stroke="transparent" points="-4,4 -4,-161 321,-161 321,4 -4,4"/>
<!-- Node5 -->
<g id="node1" class="node">
<title>Node5</title>
<polygon fill="#bfbfbf" stroke="#000000" points="0,-69 0,-88 138,-88 138,-69 0,-69"/>
<text text-anchor="middle" x="69" y="-76" font-family="Helvetica,sans-Serif" font-size="10.00" fill="#000000">neon::InternalVariables::add</text>
</g>
<!-- Node6 -->
<g id="node2" class="node">
<title>Node6</title>
<g id="a_node2"><a xlink:href="classneon_1_1AffineMicrosphere.html#a14e7d2369484591162bbfcf9a8cd284a" target="_top" xlink:title="neon::AffineMicrosphere\l::AffineMicrosphere">
<polygon fill="#ffffff" stroke="#000000" points="184.5,-126.5 184.5,-156.5 306.5,-156.5 306.5,-126.5 184.5,-126.5"/>
<text text-anchor="start" x="192.5" y="-144.5" font-family="Helvetica,sans-Serif" font-size="10.00" fill="#000000">neon::AffineMicrosphere</text>
<text text-anchor="middle" x="245.5" y="-133.5" font-family="Helvetica,sans-Serif" font-size="10.00" fill="#000000">::AffineMicrosphere</text>
</a>
</g>
</g>
<!-- Node5&#45;&gt;Node6 -->
<g id="edge1" class="edge">
<title>Node5&#45;&gt;Node6</title>
<path fill="none" stroke="#191970" d="M104.7684,-91.5538C125.0563,-98.9306 150.9264,-108.2912 174,-116.5 183.0443,-119.7176 192.7444,-123.1331 201.991,-126.3719"/>
<polygon fill="#191970" stroke="#191970" points="105.888,-88.2367 95.2939,-88.1055 103.4939,-94.8146 105.888,-88.2367"/>
</g>
<!-- Node7 -->
<g id="node3" class="node">
<title>Node7</title>
<g id="a_node3"><a xlink:href="classneon_1_1InternalVariables.html#ac48f0414ccd5f40de7ae859ca81e9b33" target="_top" xlink:title="neon::InternalVariables::add">
<polygon fill="#ffffff" stroke="#000000" points="176.5,-88 176.5,-107 314.5,-107 314.5,-88 176.5,-88"/>
<text text-anchor="middle" x="245.5" y="-95" font-family="Helvetica,sans-Serif" font-size="10.00" fill="#000000">neon::InternalVariables::add</text>
</a>
</g>
</g>
<!-- Node5&#45;&gt;Node7 -->
<g id="edge2" class="edge">
<title>Node5&#45;&gt;Node7</title>
<path fill="none" stroke="#191970" d="M148.3494,-87.0419C157.7235,-88.051 167.2329,-89.0746 176.4488,-90.0667"/>
<polygon fill="#191970" stroke="#191970" points="148.5681,-83.5453 138.2509,-85.9548 147.8188,-90.5051 148.5681,-83.5453"/>
</g>
<!-- Node8 -->
<g id="node4" class="node">
<title>Node8</title>
<g id="a_node4"><a xlink:href="classneon_1_1NeoHooke.html#a30ec39db82030f3e858ca55d00dd7a14" target="_top" xlink:title="neon::NeoHooke::NeoHooke">
<polygon fill="#ffffff" stroke="#000000" points="174,-50 174,-69 317,-69 317,-50 174,-50"/>
<text text-anchor="middle" x="245.5" y="-57" font-family="Helvetica,sans-Serif" font-size="10.00" fill="#000000">neon::NeoHooke::NeoHooke</text>
</a>
</g>
</g>
<!-- Node5&#45;&gt;Node8 -->
<g id="edge3" class="edge">
<title>Node5&#45;&gt;Node8</title>
<path fill="none" stroke="#191970" d="M148.2021,-69.974C156.7403,-69.0549 165.3927,-68.1235 173.8349,-67.2147"/>
<polygon fill="#191970" stroke="#191970" points="147.8188,-66.4949 138.2509,-71.0452 148.5681,-73.4547 147.8188,-66.4949"/>
</g>
<!-- Node9 -->
<g id="node5" class="node">
<title>Node9</title>
<g id="a_node5"><a xlink:href="classneon_1_1solid_1_1femSubmesh.html#aa2f80171136f549a45a97f0aaa8d74e0" target="_top" xlink:title="neon::solid::femSubmesh\l::femSubmesh">
<polygon fill="#ffffff" stroke="#000000" points="181.5,-.5 181.5,-30.5 309.5,-30.5 309.5,-.5 181.5,-.5"/>
<text text-anchor="start" x="189.5" y="-18.5" font-family="Helvetica,sans-Serif" font-size="10.00" fill="#000000">neon::solid::femSubmesh</text>
<text text-anchor="middle" x="245.5" y="-7.5" font-family="Helvetica,sans-Serif" font-size="10.00" fill="#000000">::femSubmesh</text>
</a>
</g>
</g>
<!-- Node5&#45;&gt;Node9 -->
<g id="edge4" class="edge">
<title>Node5&#45;&gt;Node9</title>
<path fill="none" stroke="#191970" d="M104.7684,-65.4462C125.0563,-58.0694 150.9264,-48.7088 174,-40.5 183.0443,-37.2824 192.7444,-33.8669 201.991,-30.6281"/>
<polygon fill="#191970" stroke="#191970" points="103.4939,-62.1854 95.2939,-68.8945 105.888,-68.7633 103.4939,-62.1854"/>
</g>
</g>
</svg>
