<?xml version="1.0" encoding="UTF-8" standalone="no"?>
<!DOCTYPE svg PUBLIC "-//W3C//DTD SVG 1.1//EN"
 "http://www.w3.org/Graphics/SVG/1.1/DTD/svg11.dtd">
<!-- Generated by graphviz version 2.40.1 (20161225.0304)
 -->
<!-- Title: neon::LinearElastic::bulk_modulus Pages: 1 -->
<svg width="263pt" height="78pt"
 viewBox="0.00 0.00 263.00 77.50" xmlns="http://www.w3.org/2000/svg" xmlns:xlink="http://www.w3.org/1999/xlink">
<g id="graph0" class="graph" transform="scale(1 1) rotate(0) translate(4 73.5)">
<title>neon::LinearElastic::bulk_modulus</title>
<polygon fill="#ffffff" stroke="transparent" points="-4,4 -4,-73.5 259,-73.5 259,4 -4,4"/>
<!-- Node0 -->
<g id="node1" class="node">
<title>Node0</title>
<polygon fill="#bfbfbf" stroke="#000000" points="0,-17 0,-47 100,-47 100,-17 0,-17"/>
<text text-anchor="start" x="8" y="-35" font-family="Helvetica,sans-Serif" font-size="10.00" fill="#000000">neon::LinearElastic</text>
<text text-anchor="middle" x="50" y="-24" font-family="Helvetica,sans-Serif" font-size="10.00" fill="#000000">::bulk_modulus</text>
</g>
<!-- Node1 -->
<g id="node2" class="node">
<title>Node1</title>
<g id="a_node2"><a xlink:href="classneon_1_1LinearElastic.html#a0d41b106614c2e50b1eb658bc447dd86" target="_top" xlink:title="neon::LinearElastic\l::lambda">
<polygon fill="#ffffff" stroke="#000000" points="145.5,-39 145.5,-69 245.5,-69 245.5,-39 145.5,-39"/>
<text text-anchor="start" x="153.5" y="-57" font-family="Helvetica,sans-Serif" font-size="10.00" fill="#000000">neon::LinearElastic</text>
<text text-anchor="middle" x="195.5" y="-46" font-family="Helvetica,sans-Serif" font-size="10.00" fill="#000000">::lambda</text>
</a>
</g>
</g>
<!-- Node0&#45;&gt;Node1 -->
<g id="edge1" class="edge">
<title>Node0&#45;&gt;Node1</title>
<path fill="none" stroke="#191970" d="M100.0728,-39.5712C111.3899,-41.2823 123.5204,-43.1165 135.2087,-44.8838"/>
<polygon fill="#191970" stroke="#191970" points="134.924,-48.3804 145.3349,-46.4149 135.9705,-41.4591 134.924,-48.3804"/>
</g>
<!-- Node2 -->
<g id="node3" class="node">
<title>Node2</title>
<g id="a_node3"><a xlink:href="classneon_1_1LinearElastic.html#ab0bb733a9b4f7131a58a6da7be4ccdcc" target="_top" xlink:title="neon::LinearElastic::mu">
<polygon fill="#ffffff" stroke="#000000" points="136,-.5 136,-19.5 255,-19.5 255,-.5 136,-.5"/>
<text text-anchor="middle" x="195.5" y="-7.5" font-family="Helvetica,sans-Serif" font-size="10.00" fill="#000000">neon::LinearElastic::mu</text>
</a>
</g>
</g>
<!-- Node0&#45;&gt;Node2 -->
<g id="edge2" class="edge">
<title>Node0&#45;&gt;Node2</title>
<path fill="none" stroke="#191970" d="M100.0728,-24.4288C108.3445,-23.1781 117.0508,-21.8617 125.7013,-20.5538"/>
<polygon fill="#191970" stroke="#191970" points="126.437,-23.9824 135.8013,-19.0266 125.3904,-17.0611 126.437,-23.9824"/>
</g>
</g>
</svg>
