<?xml version="1.0" encoding="UTF-8" standalone="no"?>
<!DOCTYPE svg PUBLIC "-//W3C//DTD SVG 1.1//EN"
 "http://www.w3.org/Graphics/SVG/1.1/DTD/svg11.dtd">
<!-- Generated by graphviz version 2.40.1 (20161225.0304)
 -->
<!-- Title: neon::solid::femSubmesh::material_tangent_stiffness Pages: 1 -->
<svg width="473pt" height="88pt"
 viewBox="0.00 0.00 473.00 88.00" xmlns="http://www.w3.org/2000/svg" xmlns:xlink="http://www.w3.org/1999/xlink">
<g id="graph0" class="graph" transform="scale(1 1) rotate(0) translate(4 84)">
<title>neon::solid::femSubmesh::material_tangent_stiffness</title>
<polygon fill="#ffffff" stroke="transparent" points="-4,4 -4,-84 469,-84 469,4 -4,4"/>
<!-- Node122 -->
<g id="node1" class="node">
<title>Node122</title>
<polygon fill="#bfbfbf" stroke="#000000" points="0,-24.5 0,-54.5 137,-54.5 137,-24.5 0,-24.5"/>
<text text-anchor="start" x="8" y="-42.5" font-family="Helvetica,sans-Serif" font-size="10.00" fill="#000000">neon::solid::femSubmesh</text>
<text text-anchor="middle" x="68.5" y="-31.5" font-family="Helvetica,sans-Serif" font-size="10.00" fill="#000000">::material_tangent_stiffness</text>
</g>
<!-- Node123 -->
<g id="node2" class="node">
<title>Node123</title>
<g id="a_node2"><a xlink:href="classneon_1_1solid_1_1femSubmesh.html#abdc355d969d95032d707ab251e4db75d" target="_top" xlink:title="neon::solid::femSubmesh\l::tangent_stiffness">
<polygon fill="#ffffff" stroke="#000000" points="173,-49.5 173,-79.5 301,-79.5 301,-49.5 173,-49.5"/>
<text text-anchor="start" x="181" y="-67.5" font-family="Helvetica,sans-Serif" font-size="10.00" fill="#000000">neon::solid::femSubmesh</text>
<text text-anchor="middle" x="237" y="-56.5" font-family="Helvetica,sans-Serif" font-size="10.00" fill="#000000">::tangent_stiffness</text>
</a>
</g>
</g>
<!-- Node122&#45;&gt;Node123 -->
<g id="edge1" class="edge">
<title>Node122&#45;&gt;Node123</title>
<path fill="none" stroke="#191970" d="M147.1095,-51.1631C155.7408,-52.4437 164.4514,-53.7361 172.8768,-54.9862"/>
<polygon fill="#191970" stroke="#191970" points="147.4408,-47.6741 137.0354,-49.6685 146.4134,-54.5983 147.4408,-47.6741"/>
</g>
<!-- Node125 -->
<g id="node4" class="node">
<title>Node125</title>
<g id="a_node4"><a xlink:href="classneon_1_1solid_1_1femSubmesh.html#ab924d16740c35a9af36eb08fab10391b" target="_top" xlink:title="neon::solid::femSubmesh\l::deformation_gradient">
<polygon fill="#ffffff" stroke="#000000" points="173,-.5 173,-30.5 301,-30.5 301,-.5 173,-.5"/>
<text text-anchor="start" x="181" y="-18.5" font-family="Helvetica,sans-Serif" font-size="10.00" fill="#000000">neon::solid::femSubmesh</text>
<text text-anchor="middle" x="237" y="-7.5" font-family="Helvetica,sans-Serif" font-size="10.00" fill="#000000">::deformation_gradient</text>
</a>
</g>
</g>
<!-- Node122&#45;&gt;Node125 -->
<g id="edge3" class="edge">
<title>Node122&#45;&gt;Node125</title>
<path fill="none" stroke="#191970" d="M147.1095,-28.3034C155.7408,-27.074 164.4514,-25.8333 172.8768,-24.6333"/>
<polygon fill="#191970" stroke="#191970" points="146.4419,-24.8631 137.0354,-29.7383 147.429,-31.7931 146.4419,-24.8631"/>
</g>
<!-- Node124 -->
<g id="node3" class="node">
<title>Node124</title>
<g id="a_node3"><a xlink:href="classneon_1_1solid_1_1femSubmesh.html#a6e725b9d73d74ff4f5971f2f7f74225c" target="_top" xlink:title="neon::solid::femSubmesh\l::internal_variables">
<polygon fill="#ffffff" stroke="#000000" points="337,-49.5 337,-79.5 465,-79.5 465,-49.5 337,-49.5"/>
<text text-anchor="start" x="345" y="-67.5" font-family="Helvetica,sans-Serif" font-size="10.00" fill="#000000">neon::solid::femSubmesh</text>
<text text-anchor="middle" x="401" y="-56.5" font-family="Helvetica,sans-Serif" font-size="10.00" fill="#000000">::internal_variables</text>
</a>
</g>
</g>
<!-- Node123&#45;&gt;Node124 -->
<g id="edge2" class="edge">
<title>Node123&#45;&gt;Node124</title>
<path fill="none" stroke="#191970" d="M311.5641,-64.5C320.0037,-64.5 328.5492,-64.5 336.8391,-64.5"/>
<polygon fill="#191970" stroke="#191970" points="311.3465,-61.0001 301.3464,-64.5 311.3464,-68.0001 311.3465,-61.0001"/>
</g>
</g>
</svg>
