<?xml version="1.0" encoding="UTF-8" standalone="no"?>
<!DOCTYPE svg PUBLIC "-//W3C//DTD SVG 1.1//EN"
 "http://www.w3.org/Graphics/SVG/1.1/DTD/svg11.dtd">
<!-- Generated by graphviz version 2.40.1 (20161225.0304)
 -->
<!-- Title: neon::SubMesh::unique_connectivities Pages: 1 -->
<!--zoomable 225 -->
<svg id="main" version="1.1" xmlns="http://www.w3.org/2000/svg" xmlns:xlink="http://www.w3.org/1999/xlink" xml:space="preserve" onload="init(evt)">
<style type="text/css"><![CDATA[
.edge:hover path { stroke: red; }
.edge:hover polygon { stroke: red; fill: red; }
]]></style>
<script type="text/javascript"><![CDATA[
var edges = document.getElementsByTagName('g');
if (edges && edges.length) {
  for (var i=0;i<edges.length;i++) {
    if (edges[i].id.substr(0,4)=='edge') {
      edges[i].setAttribute('class','edge');
    }
  }
}
]]></script>
        <defs>
                <circle id="rim" cx="0" cy="0" r="7"/>
                <circle id="rim2" cx="0" cy="0" r="3.5"/>
                <g id="zoomPlus">
                        <use xlink:href="#rim" fill="#404040">
                                <set attributeName="fill" to="#808080" begin="zoomplus.mouseover" end="zoomplus.mouseout"/>
                        </use>
                        <path d="M-4,0h8M0,-4v8" fill="none" stroke="white" stroke-width="1.5" pointer-events="none"/>
                </g>
                <g id="zoomMin">
                        <use xlink:href="#rim" fill="#404040">
                                <set attributeName="fill" to="#808080" begin="zoomminus.mouseover" end="zoomminus.mouseout"/>
                        </use>
                        <path d="M-4,0h8" fill="none" stroke="white" stroke-width="1.5" pointer-events="none"/>
                </g>
                <g id="dirArrow">
                        <path fill="none" stroke="white" stroke-width="1.5" d="M0,-3.0v7 M-2.5,-0.5L0,-3.0L2.5,-0.5"/>
                </g>
               <g id="resetDef">
                       <use xlink:href="#rim2" fill="#404040">
                               <set attributeName="fill" to="#808080" begin="reset.mouseover" end="reset.mouseout"/>
                       </use>
               </g>
        </defs>

<script type="text/javascript">
var viewWidth = 790;
var viewHeight = 225;
var sectionId = 'dynsection-10';
</script>
<script xlink:href="svgpan.js"/>
<svg id="graph" class="graph">
<g id="viewport">
<title>neon::SubMesh::unique_connectivities</title>
<polygon fill="#ffffff" stroke="transparent" points="-4,4 -4,-221 786,-221 786,4 -4,4"/>
<!-- Node55 -->
<g id="node1" class="node">
<title>Node55</title>
<polygon fill="#bfbfbf" stroke="#000000" points="0,-112.5 0,-142.5 119,-142.5 119,-112.5 0,-112.5"/>
<text text-anchor="start" x="8" y="-130.5" font-family="Helvetica,sans-Serif" font-size="10.00" fill="#000000">neon::SubMesh::unique</text>
<text text-anchor="middle" x="59.5" y="-119.5" font-family="Helvetica,sans-Serif" font-size="10.00" fill="#000000">_connectivities</text>
</g>
<!-- Node56 -->
<g id="node2" class="node">
<title>Node56</title>
<g id="a_node2"><a xlink:href="classneon_1_1SubMesh.html#a95a1ae84508d0006244c248aa50c76b3" target="_top" xlink:title="neon::SubMesh::nodes\l_per_element">
<polygon fill="#ffffff" stroke="#000000" points="155,-112.5 155,-142.5 272,-142.5 272,-112.5 155,-112.5"/>
<text text-anchor="start" x="163" y="-130.5" font-family="Helvetica,sans-Serif" font-size="10.00" fill="#000000">neon::SubMesh::nodes</text>
<text text-anchor="middle" x="213.5" y="-119.5" font-family="Helvetica,sans-Serif" font-size="10.00" fill="#000000">_per_element</text>
</a>
</g>
</g>
<!-- Node55&#45;&gt;Node56 -->
<g id="edge1" class="edge">
<title>Node55&#45;&gt;Node56</title>
<path fill="none" stroke="#191970" d="M129.0771,-127.5C137.6982,-127.5 146.4446,-127.5 154.8785,-127.5"/>
<polygon fill="#191970" stroke="#191970" points="129.0405,-124.0001 119.0404,-127.5 129.0404,-131.0001 129.0405,-124.0001"/>
</g>
<!-- Node57 -->
<g id="node3" class="node">
<title>Node57</title>
<g id="a_node3"><a xlink:href="classneon_1_1solid_1_1femSubmesh.html#a146b01147a0c5c030a464088509289dd" target="_top" xlink:title="neon::solid::femSubmesh\l::geometric_tangent_stiffness">
<polygon fill="#ffffff" stroke="#000000" points="308,-186.5 308,-216.5 454,-216.5 454,-186.5 308,-186.5"/>
<text text-anchor="start" x="316" y="-204.5" font-family="Helvetica,sans-Serif" font-size="10.00" fill="#000000">neon::solid::femSubmesh</text>
<text text-anchor="middle" x="381" y="-193.5" font-family="Helvetica,sans-Serif" font-size="10.00" fill="#000000">::geometric_tangent_stiffness</text>
</a>
</g>
</g>
<!-- Node56&#45;&gt;Node57 -->
<g id="edge2" class="edge">
<title>Node56&#45;&gt;Node57</title>
<path fill="none" stroke="#191970" d="M247.7889,-147.4424C265.4325,-157.2376 287.4915,-168.7772 308,-177.5 315.4888,-180.6852 323.5535,-183.7151 331.4944,-186.4829"/>
<polygon fill="#191970" stroke="#191970" points="249.4294,-144.3495 238.9966,-142.5033 246.001,-150.4525 249.4294,-144.3495"/>
</g>
<!-- Node61 -->
<g id="node7" class="node">
<title>Node61</title>
<g id="a_node7"><a xlink:href="classneon_1_1solid_1_1femSubmesh.html#ac59a58e4a33eea88a87f181c1771621e" target="_top" xlink:title="neon::solid::femSubmesh\l::material_tangent_stiffness">
<polygon fill="#ffffff" stroke="#000000" points="312.5,-137.5 312.5,-167.5 449.5,-167.5 449.5,-137.5 312.5,-137.5"/>
<text text-anchor="start" x="320.5" y="-155.5" font-family="Helvetica,sans-Serif" font-size="10.00" fill="#000000">neon::solid::femSubmesh</text>
<text text-anchor="middle" x="381" y="-144.5" font-family="Helvetica,sans-Serif" font-size="10.00" fill="#000000">::material_tangent_stiffness</text>
</a>
</g>
</g>
<!-- Node56&#45;&gt;Node61 -->
<g id="edge6" class="edge">
<title>Node56&#45;&gt;Node61</title>
<path fill="none" stroke="#191970" d="M281.993,-137.7228C292.0257,-139.2202 302.3607,-140.7628 312.3956,-142.2605"/>
<polygon fill="#191970" stroke="#191970" points="282.4905,-134.2584 272.0834,-136.2438 281.4571,-141.1817 282.4905,-134.2584"/>
</g>
<!-- Node62 -->
<g id="node8" class="node">
<title>Node62</title>
<g id="a_node8"><a xlink:href="classneon_1_1solid_1_1femSubmesh.html#acb75f263f98c1934224fbb21854b347c" target="_top" xlink:title="neon::solid::femSubmesh\l::internal_nodal_force">
<polygon fill="#ffffff" stroke="#000000" points="317,-88.5 317,-118.5 445,-118.5 445,-88.5 317,-88.5"/>
<text text-anchor="start" x="325" y="-106.5" font-family="Helvetica,sans-Serif" font-size="10.00" fill="#000000">neon::solid::femSubmesh</text>
<text text-anchor="middle" x="381" y="-95.5" font-family="Helvetica,sans-Serif" font-size="10.00" fill="#000000">::internal_nodal_force</text>
</a>
</g>
</g>
<!-- Node56&#45;&gt;Node62 -->
<g id="edge9" class="edge">
<title>Node56&#45;&gt;Node62</title>
<path fill="none" stroke="#191970" d="M282.0407,-117.6792C293.5126,-116.0355 305.3784,-114.3353 316.7379,-112.7077"/>
<polygon fill="#191970" stroke="#191970" points="281.4858,-114.2229 272.0834,-119.106 282.4787,-121.1521 281.4858,-114.2229"/>
</g>
<!-- Node64 -->
<g id="node10" class="node">
<title>Node64</title>
<g id="a_node10"><a xlink:href="classneon_1_1solid_1_1femSubmesh.html#ad6e50b01a0301255f81ffb8139ee785a" target="_top" xlink:title="neon::solid::femSubmesh\l::consistent_mass">
<polygon fill="#ffffff" stroke="#000000" points="317,-39.5 317,-69.5 445,-69.5 445,-39.5 317,-39.5"/>
<text text-anchor="start" x="325" y="-57.5" font-family="Helvetica,sans-Serif" font-size="10.00" fill="#000000">neon::solid::femSubmesh</text>
<text text-anchor="middle" x="381" y="-46.5" font-family="Helvetica,sans-Serif" font-size="10.00" fill="#000000">::consistent_mass</text>
</a>
</g>
</g>
<!-- Node56&#45;&gt;Node64 -->
<g id="edge13" class="edge">
<title>Node56&#45;&gt;Node64</title>
<path fill="none" stroke="#191970" d="M249.0712,-107.3293C266.5127,-97.888 288.0198,-86.9003 308,-78.5 315.5019,-75.346 323.5735,-72.3323 331.5173,-69.5713"/>
<polygon fill="#191970" stroke="#191970" points="246.9238,-104.5149 239.8353,-112.3891 250.2871,-110.654 246.9238,-104.5149"/>
</g>
<!-- Node58 -->
<g id="node4" class="node">
<title>Node58</title>
<g id="a_node4"><a xlink:href="classneon_1_1solid_1_1femSubmesh.html#abdc355d969d95032d707ab251e4db75d" target="_top" xlink:title="neon::solid::femSubmesh\l::tangent_stiffness">
<polygon fill="#ffffff" stroke="#000000" points="490,-186.5 490,-216.5 618,-216.5 618,-186.5 490,-186.5"/>
<text text-anchor="start" x="498" y="-204.5" font-family="Helvetica,sans-Serif" font-size="10.00" fill="#000000">neon::solid::femSubmesh</text>
<text text-anchor="middle" x="554" y="-193.5" font-family="Helvetica,sans-Serif" font-size="10.00" fill="#000000">::tangent_stiffness</text>
</a>
</g>
</g>
<!-- Node57&#45;&gt;Node58 -->
<g id="edge3" class="edge">
<title>Node57&#45;&gt;Node58</title>
<path fill="none" stroke="#191970" d="M464.2156,-201.5C472.853,-201.5 481.5342,-201.5 489.9139,-201.5"/>
<polygon fill="#191970" stroke="#191970" points="464.1169,-198.0001 454.1168,-201.5 464.1168,-205.0001 464.1169,-198.0001"/>
</g>
<!-- Node60 -->
<g id="node6" class="node">
<title>Node60</title>
<g id="a_node6"><a xlink:href="classneon_1_1solid_1_1femSubmesh.html#ab924d16740c35a9af36eb08fab10391b" target="_top" xlink:title="neon::solid::femSubmesh\l::deformation_gradient">
<polygon fill="#ffffff" stroke="#000000" points="490,-137.5 490,-167.5 618,-167.5 618,-137.5 490,-137.5"/>
<text text-anchor="start" x="498" y="-155.5" font-family="Helvetica,sans-Serif" font-size="10.00" fill="#000000">neon::solid::femSubmesh</text>
<text text-anchor="middle" x="554" y="-144.5" font-family="Helvetica,sans-Serif" font-size="10.00" fill="#000000">::deformation_gradient</text>
</a>
</g>
</g>
<!-- Node57&#45;&gt;Node60 -->
<g id="edge5" class="edge">
<title>Node57&#45;&gt;Node60</title>
<path fill="none" stroke="#191970" d="M444.1771,-183.6059C462.7846,-178.3356 482.9483,-172.6245 500.8587,-167.5516"/>
<polygon fill="#191970" stroke="#191970" points="442.985,-180.3058 434.3173,-186.3986 444.8927,-187.0409 442.985,-180.3058"/>
</g>
<!-- Node59 -->
<g id="node5" class="node">
<title>Node59</title>
<g id="a_node5"><a xlink:href="classneon_1_1solid_1_1femSubmesh.html#a6e725b9d73d74ff4f5971f2f7f74225c" target="_top" xlink:title="neon::solid::femSubmesh\l::internal_variables">
<polygon fill="#ffffff" stroke="#000000" points="654,-66.5 654,-96.5 782,-96.5 782,-66.5 654,-66.5"/>
<text text-anchor="start" x="662" y="-84.5" font-family="Helvetica,sans-Serif" font-size="10.00" fill="#000000">neon::solid::femSubmesh</text>
<text text-anchor="middle" x="718" y="-73.5" font-family="Helvetica,sans-Serif" font-size="10.00" fill="#000000">::internal_variables</text>
</a>
</g>
</g>
<!-- Node58&#45;&gt;Node59 -->
<g id="edge4" class="edge">
<title>Node58&#45;&gt;Node59</title>
<path fill="none" stroke="#191970" d="M609.9376,-182.1172C612.7174,-180.6619 615.422,-179.1231 618,-177.5 654.0482,-154.805 688.0527,-117.6009 705.6071,-96.8001"/>
<polygon fill="#191970" stroke="#191970" points="608.3604,-178.9919 600.8662,-186.4811 611.395,-185.3 608.3604,-178.9919"/>
</g>
<!-- Node61&#45;&gt;Node58 -->
<g id="edge7" class="edge">
<title>Node61&#45;&gt;Node58</title>
<path fill="none" stroke="#191970" d="M444.1771,-170.3941C462.7846,-175.6644 482.9483,-181.3755 500.8587,-186.4484"/>
<polygon fill="#191970" stroke="#191970" points="444.8927,-166.9591 434.3173,-167.6014 442.985,-173.6942 444.8927,-166.9591"/>
</g>
<!-- Node61&#45;&gt;Node60 -->
<g id="edge8" class="edge">
<title>Node61&#45;&gt;Node60</title>
<path fill="none" stroke="#191970" d="M460.1659,-152.5C470.1112,-152.5 480.1868,-152.5 489.8616,-152.5"/>
<polygon fill="#191970" stroke="#191970" points="459.8713,-149.0001 449.8713,-152.5 459.8712,-156.0001 459.8713,-149.0001"/>
</g>
<!-- Node62&#45;&gt;Node60 -->
<g id="edge12" class="edge">
<title>Node62&#45;&gt;Node60</title>
<path fill="none" stroke="#191970" d="M444.1771,-121.3941C462.7846,-126.6644 482.9483,-132.3755 500.8587,-137.4484"/>
<polygon fill="#191970" stroke="#191970" points="444.8927,-117.9591 434.3173,-118.6014 442.985,-124.6942 444.8927,-117.9591"/>
</g>
<!-- Node63 -->
<g id="node9" class="node">
<title>Node63</title>
<g id="a_node9"><a xlink:href="classneon_1_1solid_1_1femSubmesh.html#ad0c267e8fd87a1126c216b21ccfd7b55" target="_top" xlink:title="neon::solid::femSubmesh\l::internal_force">
<polygon fill="#ffffff" stroke="#000000" points="490,-88.5 490,-118.5 618,-118.5 618,-88.5 490,-88.5"/>
<text text-anchor="start" x="498" y="-106.5" font-family="Helvetica,sans-Serif" font-size="10.00" fill="#000000">neon::solid::femSubmesh</text>
<text text-anchor="middle" x="554" y="-95.5" font-family="Helvetica,sans-Serif" font-size="10.00" fill="#000000">::internal_force</text>
</a>
</g>
</g>
<!-- Node62&#45;&gt;Node63 -->
<g id="edge10" class="edge">
<title>Node62&#45;&gt;Node63</title>
<path fill="none" stroke="#191970" d="M455.7418,-103.5C467.0916,-103.5 478.7166,-103.5 489.8155,-103.5"/>
<polygon fill="#191970" stroke="#191970" points="455.4188,-100.0001 445.4188,-103.5 455.4188,-107.0001 455.4188,-100.0001"/>
</g>
<!-- Node63&#45;&gt;Node59 -->
<g id="edge11" class="edge">
<title>Node63&#45;&gt;Node59</title>
<path fill="none" stroke="#191970" d="M628.2859,-93.5348C636.8158,-92.3906 645.4581,-91.2312 653.8391,-90.1069"/>
<polygon fill="#191970" stroke="#191970" points="627.7923,-90.0696 618.3464,-94.8682 628.723,-97.0074 627.7923,-90.0696"/>
</g>
<!-- Node64&#45;&gt;Node59 -->
<g id="edge16" class="edge">
<title>Node64&#45;&gt;Node59</title>
<path fill="none" stroke="#191970" d="M455.2531,-60.4491C514.68,-65.2103 597.1624,-71.8186 653.7723,-76.3542"/>
<polygon fill="#191970" stroke="#191970" points="455.428,-56.9519 445.1804,-59.642 454.8689,-63.9296 455.428,-56.9519"/>
</g>
<!-- Node65 -->
<g id="node11" class="node">
<title>Node65</title>
<g id="a_node11"><a xlink:href="classneon_1_1solid_1_1femSubmesh.html#a118bc792978bf5ac5e24d3949f53244e" target="_top" xlink:title="neon::solid::femSubmesh\l::diagonal_mass">
<polygon fill="#ffffff" stroke="#000000" points="490,-.5 490,-30.5 618,-30.5 618,-.5 490,-.5"/>
<text text-anchor="start" x="498" y="-18.5" font-family="Helvetica,sans-Serif" font-size="10.00" fill="#000000">neon::solid::femSubmesh</text>
<text text-anchor="middle" x="554" y="-7.5" font-family="Helvetica,sans-Serif" font-size="10.00" fill="#000000">::diagonal_mass</text>
</a>
</g>
</g>
<!-- Node64&#45;&gt;Node65 -->
<g id="edge14" class="edge">
<title>Node64&#45;&gt;Node65</title>
<path fill="none" stroke="#191970" d="M455.3944,-37.729C466.8543,-35.1456 478.6034,-32.4969 489.8155,-29.9693"/>
<polygon fill="#191970" stroke="#191970" points="454.4043,-34.3643 445.4188,-39.9778 455.9437,-41.1929 454.4043,-34.3643"/>
</g>
<!-- Node65&#45;&gt;Node59 -->
<g id="edge15" class="edge">
<title>Node65&#45;&gt;Node59</title>
<path fill="none" stroke="#191970" d="M601.0067,-34.4173C626.2495,-44.576 656.9381,-56.9263 680.5502,-66.4287"/>
<polygon fill="#191970" stroke="#191970" points="602.2086,-31.1283 591.6249,-30.6417 599.5952,-37.6221 602.2086,-31.1283"/>
</g>
</g>
</svg>
        <g id="navigator" transform="translate(0 0)" fill="#404254">
                <rect fill="#f2f5e9" fill-opacity="0.5" stroke="#606060" stroke-width=".5" x="0" y="0" width="60" height="60"/>
                <use id="zoomplus" xlink:href="#zoomPlus" x="17" y="9" onmousedown="handleZoom(evt,'in')"/>
                <use id="zoomminus" xlink:href="#zoomMin" x="42" y="9" onmousedown="handleZoom(evt,'out')"/>
                <use id="reset" xlink:href="#resetDef" x="30" y="36" onmousedown="handleReset()"/>
                <g id="arrowUp" xlink:href="#dirArrow" transform="translate(30 24)" onmousedown="handlePan(0,-1)">
                  <use xlink:href="#rim" fill="#404040">
                        <set attributeName="fill" to="#808080" begin="arrowUp.mouseover" end="arrowUp.mouseout"/>
                  </use>
                  <path fill="none" stroke="white" stroke-width="1.5" d="M0,-3.0v7 M-2.5,-0.5L0,-3.0L2.5,-0.5"/>
                </g>
                <g id="arrowRight" xlink:href="#dirArrow" transform="rotate(90) translate(36 -43)" onmousedown="handlePan(1,0)">
                  <use xlink:href="#rim" fill="#404040">
                        <set attributeName="fill" to="#808080" begin="arrowRight.mouseover" end="arrowRight.mouseout"/>
                  </use>
                  <path fill="none" stroke="white" stroke-width="1.5" d="M0,-3.0v7 M-2.5,-0.5L0,-3.0L2.5,-0.5"/>
                </g>
                <g id="arrowDown" xlink:href="#dirArrow" transform="rotate(180) translate(-30 -48)" onmousedown="handlePan(0,1)">
                  <use xlink:href="#rim" fill="#404040">
                        <set attributeName="fill" to="#808080" begin="arrowDown.mouseover" end="arrowDown.mouseout"/>
                  </use>
                  <path fill="none" stroke="white" stroke-width="1.5" d="M0,-3.0v7 M-2.5,-0.5L0,-3.0L2.5,-0.5"/>
                </g>
                <g id="arrowLeft" xlink:href="#dirArrow" transform="rotate(270) translate(-36 17)" onmousedown="handlePan(-1,0)">
                  <use xlink:href="#rim" fill="#404040">
                        <set attributeName="fill" to="#808080" begin="arrowLeft.mouseover" end="arrowLeft.mouseout"/>
                  </use>
                  <path fill="none" stroke="white" stroke-width="1.5" d="M0,-3.0v7 M-2.5,-0.5L0,-3.0L2.5,-0.5"/>
                </g>
        </g>
        <svg viewBox="0 0 15 15" width="100%" height="30px" preserveAspectRatio="xMaxYMin meet">
         <g id="arrow_out" transform="scale(0.3 0.3)">
          <a xlink:href="classneon_1_1SubMesh_a2047359fe78bed483cc5462a9c0e7b42_icgraph_org.svg" target="_base">
           <rect id="button" ry="5" rx="5" y="6" x="6" height="38" width="38"
                fill="#f2f5e9" fill-opacity="0.5" stroke="#606060" stroke-width="1.0"/>
           <path id="arrow"
             d="M 11.500037,31.436501 C 11.940474,20.09759 22.043105,11.32322 32.158766,21.979434 L 37.068811,17.246167 C 37.068811,17.246167 37.088388,32 37.088388,32 L 22.160133,31.978069 C 22.160133,31.978069 26.997745,27.140456 26.997745,27.140456 C 18.528582,18.264221 13.291696,25.230495 11.500037,31.436501 z"
             style="fill:#404040;"/>
          </a>
         </g>
        </svg>
</svg>
