<?xml version="1.0" encoding="UTF-8" standalone="no"?>
<!DOCTYPE svg PUBLIC "-//W3C//DTD SVG 1.1//EN"
 "http://www.w3.org/Graphics/SVG/1.1/DTD/svg11.dtd">
<!-- Generated by graphviz version 2.40.1 (20161225.0304)
 -->
<!-- Title: neon::PaStiX Pages: 1 -->
<svg width="115pt" height="163pt"
 viewBox="0.00 0.00 115.00 163.00" xmlns="http://www.w3.org/2000/svg" xmlns:xlink="http://www.w3.org/1999/xlink">
<g id="graph0" class="graph" transform="scale(1 1) rotate(0) translate(4 159)">
<title>neon::PaStiX</title>
<polygon fill="#ffffff" stroke="transparent" points="-4,4 -4,-159 111,-159 111,4 -4,4"/>
<!-- Node2 -->
<g id="node1" class="node">
<title>Node2</title>
<polygon fill="#bfbfbf" stroke="#000000" points="12,-.5 12,-19.5 86,-19.5 86,-.5 12,-.5"/>
<text text-anchor="middle" x="49" y="-7.5" font-family="Helvetica,sans-Serif" font-size="10.00" fill="#000000">neon::PaStiX</text>
</g>
<!-- Node3 -->
<g id="node2" class="node">
<title>Node3</title>
<g id="a_node2"><a xlink:href="classneon_1_1LinearSolver.html" target="_top" xlink:title="neon::LinearSolver">
<polygon fill="#ffffff" stroke="#000000" points="0,-57.5 0,-76.5 98,-76.5 98,-57.5 0,-57.5"/>
<text text-anchor="middle" x="49" y="-64.5" font-family="Helvetica,sans-Serif" font-size="10.00" fill="#000000">neon::LinearSolver</text>
</a>
</g>
</g>
<!-- Node3&#45;&gt;Node2 -->
<g id="edge1" class="edge">
<title>Node3&#45;&gt;Node2</title>
<path fill="none" stroke="#191970" d="M49,-47.2342C49,-37.8491 49,-27.0651 49,-19.5265"/>
<polygon fill="#191970" stroke="#191970" points="45.5001,-47.3307 49,-57.3307 52.5001,-47.3308 45.5001,-47.3307"/>
</g>
<!-- Node4 -->
<g id="node3" class="node">
<title>Node4</title>
<g id="a_node3"><a xlink:href="structneon_1_1LinearSolver_1_1SolverParam.html" target="_top" xlink:title="neon::LinearSolver\l::SolverParam">
<polygon fill="#ffffff" stroke="#000000" points="0,-124.5 0,-154.5 98,-154.5 98,-124.5 0,-124.5"/>
<text text-anchor="start" x="8" y="-142.5" font-family="Helvetica,sans-Serif" font-size="10.00" fill="#000000">neon::LinearSolver</text>
<text text-anchor="middle" x="49" y="-131.5" font-family="Helvetica,sans-Serif" font-size="10.00" fill="#000000">::SolverParam</text>
</a>
</g>
</g>
<!-- Node4&#45;&gt;Node3 -->
<g id="edge2" class="edge">
<title>Node4&#45;&gt;Node3</title>
<path fill="none" stroke="#9a32cd" stroke-dasharray="5,2" d="M49,-114.305C49,-101.424 49,-86.4836 49,-76.8957"/>
<polygon fill="#9a32cd" stroke="#9a32cd" points="45.5001,-114.4779 49,-124.478 52.5001,-114.478 45.5001,-114.4779"/>
<text text-anchor="middle" x="78" y="-98" font-family="Helvetica,sans-Serif" font-size="10.00" fill="#000000"> solverParam</text>
</g>
</g>
</svg>
