<?xml version="1.0" encoding="UTF-8" standalone="no"?>
<!DOCTYPE svg PUBLIC "-//W3C//DTD SVG 1.1//EN"
 "http://www.w3.org/Graphics/SVG/1.1/DTD/svg11.dtd">
<!-- Generated by graphviz version 2.40.1 (20161225.0304)
 -->
<!-- Title: neon::FiniteJ2Plasticity Pages: 1 -->
<svg width="138pt" height="209pt"
 viewBox="0.00 0.00 138.00 209.00" xmlns="http://www.w3.org/2000/svg" xmlns:xlink="http://www.w3.org/1999/xlink">
<g id="graph0" class="graph" transform="scale(1 1) rotate(0) translate(4 205)">
<title>neon::FiniteJ2Plasticity</title>
<polygon fill="#ffffff" stroke="transparent" points="-4,4 -4,-205 134,-205 134,4 -4,4"/>
<!-- Node3 -->
<g id="node1" class="node">
<title>Node3</title>
<polygon fill="#bfbfbf" stroke="#000000" points="5.5,-.5 5.5,-19.5 124.5,-19.5 124.5,-.5 5.5,-.5"/>
<text text-anchor="middle" x="65" y="-7.5" font-family="Helvetica,sans-Serif" font-size="10.00" fill="#000000">neon::FiniteJ2Plasticity</text>
</g>
<!-- Node4 -->
<g id="node2" class="node">
<title>Node4</title>
<g id="a_node2"><a xlink:href="classneon_1_1HyperElasticPlastic.html" target="_top" xlink:title="neon::HyperElasticPlastic">
<polygon fill="#ffffff" stroke="#000000" points="0,-57.5 0,-76.5 130,-76.5 130,-57.5 0,-57.5"/>
<text text-anchor="middle" x="65" y="-64.5" font-family="Helvetica,sans-Serif" font-size="10.00" fill="#000000">neon::HyperElasticPlastic</text>
</a>
</g>
</g>
<!-- Node4&#45;&gt;Node3 -->
<g id="edge1" class="edge">
<title>Node4&#45;&gt;Node3</title>
<path fill="none" stroke="#191970" d="M65,-47.2342C65,-37.8491 65,-27.0651 65,-19.5265"/>
<polygon fill="#191970" stroke="#191970" points="61.5001,-47.3307 65,-57.3307 68.5001,-47.3308 61.5001,-47.3307"/>
</g>
<!-- Node5 -->
<g id="node3" class="node">
<title>Node5</title>
<g id="a_node3"><a xlink:href="classneon_1_1ConstitutiveModel.html" target="_top" xlink:title="neon::ConstitutiveModel">
<polygon fill="#ffffff" stroke="#000000" points="4,-114.5 4,-133.5 126,-133.5 126,-114.5 4,-114.5"/>
<text text-anchor="middle" x="65" y="-121.5" font-family="Helvetica,sans-Serif" font-size="10.00" fill="#000000">neon::ConstitutiveModel</text>
</a>
</g>
</g>
<!-- Node5&#45;&gt;Node4 -->
<g id="edge2" class="edge">
<title>Node5&#45;&gt;Node4</title>
<path fill="none" stroke="#191970" d="M65,-104.2342C65,-94.8491 65,-84.0651 65,-76.5265"/>
<polygon fill="#191970" stroke="#191970" points="61.5001,-104.3307 65,-114.3307 68.5001,-104.3308 61.5001,-104.3307"/>
</g>
<!-- Node6 -->
<g id="node4" class="node">
<title>Node6</title>
<g id="a_node4"><a xlink:href="classneon_1_1InternalVariables.html" target="_top" xlink:title="neon::InternalVariables">
<polygon fill="#ffffff" stroke="#000000" points="7,-181.5 7,-200.5 123,-200.5 123,-181.5 7,-181.5"/>
<text text-anchor="middle" x="65" y="-188.5" font-family="Helvetica,sans-Serif" font-size="10.00" fill="#000000">neon::InternalVariables</text>
</a>
</g>
</g>
<!-- Node6&#45;&gt;Node5 -->
<g id="edge3" class="edge">
<title>Node6&#45;&gt;Node5</title>
<path fill="none" stroke="#9a32cd" stroke-dasharray="5,2" d="M65,-171.1079C65,-158.714 65,-143.3263 65,-133.5817"/>
<polygon fill="#9a32cd" stroke="#9a32cd" points="61.5001,-171.4005 65,-181.4005 68.5001,-171.4006 61.5001,-171.4005"/>
<text text-anchor="middle" x="86.5" y="-155" font-family="Helvetica,sans-Serif" font-size="10.00" fill="#000000"> variables</text>
</g>
</g>
</svg>
