<?xml version="1.0" encoding="UTF-8" standalone="no"?>
<!DOCTYPE svg PUBLIC "-//W3C//DTD SVG 1.1//EN"
 "http://www.w3.org/Graphics/SVG/1.1/DTD/svg11.dtd">
<!-- Generated by graphviz version 2.40.1 (20161225.0304)
 -->
<!-- Title: neon::InternalVariables::commit Pages: 1 -->
<svg width="288pt" height="88pt"
 viewBox="0.00 0.00 288.00 88.00" xmlns="http://www.w3.org/2000/svg" xmlns:xlink="http://www.w3.org/1999/xlink">
<g id="graph0" class="graph" transform="scale(1 1) rotate(0) translate(4 84)">
<title>neon::InternalVariables::commit</title>
<polygon fill="#ffffff" stroke="transparent" points="-4,4 -4,-84 284,-84 284,4 -4,4"/>
<!-- Node18 -->
<g id="node1" class="node">
<title>Node18</title>
<polygon fill="#bfbfbf" stroke="#000000" points="0,-24.5 0,-54.5 116,-54.5 116,-24.5 0,-24.5"/>
<text text-anchor="start" x="8" y="-42.5" font-family="Helvetica,sans-Serif" font-size="10.00" fill="#000000">neon::InternalVariables</text>
<text text-anchor="middle" x="58" y="-31.5" font-family="Helvetica,sans-Serif" font-size="10.00" fill="#000000">::commit</text>
</g>
<!-- Node19 -->
<g id="node2" class="node">
<title>Node19</title>
<g id="a_node2"><a xlink:href="classneon_1_1InternalVariables.html#a28dc4aa1702dc633ed49d7402fc9e399" target="_top" xlink:title="neon::InternalVariables\l::operator()">
<polygon fill="#ffffff" stroke="#000000" points="158,-49.5 158,-79.5 274,-79.5 274,-49.5 158,-49.5"/>
<text text-anchor="start" x="166" y="-67.5" font-family="Helvetica,sans-Serif" font-size="10.00" fill="#000000">neon::InternalVariables</text>
<text text-anchor="middle" x="216" y="-56.5" font-family="Helvetica,sans-Serif" font-size="10.00" fill="#000000">::operator()</text>
</a>
</g>
</g>
<!-- Node18&#45;&gt;Node19 -->
<g id="edge1" class="edge">
<title>Node18&#45;&gt;Node19</title>
<path fill="none" stroke="#191970" d="M126.3484,-50.3146C136.8485,-51.976 147.6043,-53.6779 157.8555,-55.2999"/>
<polygon fill="#191970" stroke="#191970" points="126.8086,-46.844 116.3845,-48.738 125.7146,-53.758 126.8086,-46.844"/>
</g>
<!-- Node20 -->
<g id="node3" class="node">
<title>Node20</title>
<g id="a_node3"><a xlink:href="classneon_1_1solid_1_1femSubmesh.html#aa2f80171136f549a45a97f0aaa8d74e0" target="_top" xlink:title="neon::solid::femSubmesh\l::femSubmesh">
<polygon fill="#ffffff" stroke="#000000" points="152,-.5 152,-30.5 280,-30.5 280,-.5 152,-.5"/>
<text text-anchor="start" x="160" y="-18.5" font-family="Helvetica,sans-Serif" font-size="10.00" fill="#000000">neon::solid::femSubmesh</text>
<text text-anchor="middle" x="216" y="-7.5" font-family="Helvetica,sans-Serif" font-size="10.00" fill="#000000">::femSubmesh</text>
</a>
</g>
</g>
<!-- Node18&#45;&gt;Node20 -->
<g id="edge2" class="edge">
<title>Node18&#45;&gt;Node20</title>
<path fill="none" stroke="#191970" d="M126.5024,-29.0946C134.8838,-27.8215 143.4256,-26.524 151.7416,-25.2608"/>
<polygon fill="#191970" stroke="#191970" points="125.7454,-25.6693 116.3845,-30.6315 126.7967,-32.5899 125.7454,-25.6693"/>
</g>
</g>
</svg>
