<?xml version="1.0" encoding="UTF-8" standalone="no"?>
<!DOCTYPE svg PUBLIC "-//W3C//DTD SVG 1.1//EN"
 "http://www.w3.org/Graphics/SVG/1.1/DTD/svg11.dtd">
<!-- Generated by graphviz version 2.40.1 (20161225.0304)
 -->
<!-- Title: neon::AdaptiveLoadStep::update_convergence_state Pages: 1 -->
<svg width="854pt" height="83pt"
 viewBox="0.00 0.00 854.00 83.00" xmlns="http://www.w3.org/2000/svg" xmlns:xlink="http://www.w3.org/1999/xlink">
<g id="graph0" class="graph" transform="scale(1 1) rotate(0) translate(4 79)">
<title>neon::AdaptiveLoadStep::update_convergence_state</title>
<polygon fill="#ffffff" stroke="transparent" points="-4,4 -4,-79 850,-79 850,4 -4,4"/>
<!-- Node32 -->
<g id="node1" class="node">
<title>Node32</title>
<polygon fill="#bfbfbf" stroke="#000000" points="0,-22.5 0,-52.5 140,-52.5 140,-22.5 0,-22.5"/>
<text text-anchor="start" x="8" y="-40.5" font-family="Helvetica,sans-Serif" font-size="10.00" fill="#000000">neon::AdaptiveLoadStep</text>
<text text-anchor="middle" x="70" y="-29.5" font-family="Helvetica,sans-Serif" font-size="10.00" fill="#000000">::update_convergence_state</text>
</g>
<!-- Node33 -->
<g id="node2" class="node">
<title>Node33</title>
<g id="a_node2"><a xlink:href="classneon_1_1solid_1_1femStaticMatrix.html#a9d09a3000b8ab1f5088e65a991325514" target="_top" xlink:title="neon::solid::femStaticMatrix\l::apply_displacement_boundaries">
<polygon fill="#ffffff" stroke="#000000" points="335,-22.5 335,-52.5 496,-52.5 496,-22.5 335,-22.5"/>
<text text-anchor="start" x="343" y="-40.5" font-family="Helvetica,sans-Serif" font-size="10.00" fill="#000000">neon::solid::femStaticMatrix</text>
<text text-anchor="middle" x="415.5" y="-29.5" font-family="Helvetica,sans-Serif" font-size="10.00" fill="#000000">::apply_displacement_boundaries</text>
</a>
</g>
</g>
<!-- Node32&#45;&gt;Node33 -->
<g id="edge1" class="edge">
<title>Node32&#45;&gt;Node33</title>
<path fill="none" stroke="#191970" d="M150.2815,-40.0119C158.9614,-40.212 167.6645,-40.3821 176,-40.5 230.6612,-41.2734 244.3379,-41.2037 299,-40.5 310.6327,-40.3502 322.9171,-40.1164 334.9736,-39.8438"/>
<polygon fill="#191970" stroke="#191970" points="150.2084,-36.5092 140.1262,-39.7646 150.038,-43.5071 150.2084,-36.5092"/>
</g>
<!-- Node36 -->
<g id="node5" class="node">
<title>Node36</title>
<g id="a_node5"><a xlink:href="classneon_1_1AdaptiveLoadStep.html#a1ccc0de1f228c0b0a495ac5e6a1419d4" target="_top" xlink:title="neon::AdaptiveLoadStep\l::step">
<polygon fill="#ffffff" stroke="#000000" points="176,-.5 176,-30.5 299,-30.5 299,-.5 176,-.5"/>
<text text-anchor="start" x="184" y="-18.5" font-family="Helvetica,sans-Serif" font-size="10.00" fill="#000000">neon::AdaptiveLoadStep</text>
<text text-anchor="middle" x="237.5" y="-7.5" font-family="Helvetica,sans-Serif" font-size="10.00" fill="#000000">::step</text>
</a>
</g>
</g>
<!-- Node32&#45;&gt;Node36 -->
<g id="edge5" class="edge">
<title>Node32&#45;&gt;Node36</title>
<path fill="none" stroke="#191970" d="M150.1926,-26.9672C158.8591,-25.829 167.5765,-24.684 175.9727,-23.5812"/>
<polygon fill="#191970" stroke="#191970" points="149.5236,-23.525 140.0646,-28.2975 150.4352,-30.4654 149.5236,-23.525"/>
</g>
<!-- Node34 -->
<g id="node3" class="node">
<title>Node34</title>
<g id="a_node3"><a xlink:href="classneon_1_1solid_1_1femStaticMatrix.html#a1b4ec4af5d4aa93d28a374c0f4f7e5d3" target="_top" xlink:title="neon::solid::femStaticMatrix\l::compute_sparsity_pattern">
<polygon fill="#ffffff" stroke="#000000" points="532,-44.5 532,-74.5 671,-74.5 671,-44.5 532,-44.5"/>
<text text-anchor="start" x="540" y="-62.5" font-family="Helvetica,sans-Serif" font-size="10.00" fill="#000000">neon::solid::femStaticMatrix</text>
<text text-anchor="middle" x="601.5" y="-51.5" font-family="Helvetica,sans-Serif" font-size="10.00" fill="#000000">::compute_sparsity_pattern</text>
</a>
</g>
</g>
<!-- Node33&#45;&gt;Node34 -->
<g id="edge2" class="edge">
<title>Node33&#45;&gt;Node34</title>
<path fill="none" stroke="#191970" d="M506.1558,-48.2227C514.8326,-49.249 523.5367,-50.2785 531.9656,-51.2755"/>
<polygon fill="#191970" stroke="#191970" points="506.3424,-44.7205 496.0005,-47.0216 505.5202,-51.672 506.3424,-44.7205"/>
</g>
<!-- Node35 -->
<g id="node4" class="node">
<title>Node35</title>
<g id="a_node4"><a xlink:href="classneon_1_1solid_1_1femStaticMatrix.html#a38f9c7ef5b0a03920dd67cc054a83042" target="_top" xlink:title="neon::solid::femStaticMatrix\l::assemble_stiffness">
<polygon fill="#ffffff" stroke="#000000" points="707,-22.5 707,-52.5 846,-52.5 846,-22.5 707,-22.5"/>
<text text-anchor="start" x="715" y="-40.5" font-family="Helvetica,sans-Serif" font-size="10.00" fill="#000000">neon::solid::femStaticMatrix</text>
<text text-anchor="middle" x="776.5" y="-29.5" font-family="Helvetica,sans-Serif" font-size="10.00" fill="#000000">::assemble_stiffness</text>
</a>
</g>
</g>
<!-- Node34&#45;&gt;Node35 -->
<g id="edge3" class="edge">
<title>Node34&#45;&gt;Node35</title>
<path fill="none" stroke="#191970" d="M681.1455,-49.4874C689.7018,-48.4118 698.359,-47.3234 706.7863,-46.264"/>
<polygon fill="#191970" stroke="#191970" points="680.6528,-46.0217 671.1675,-50.7418 681.526,-52.9671 680.6528,-46.0217"/>
</g>
<!-- Node35&#45;&gt;Node33 -->
<g id="edge4" class="edge">
<title>Node35&#45;&gt;Node33</title>
<path fill="none" stroke="#191970" d="M696.8001,-35.8286C688.0935,-35.6938 679.3607,-35.5792 671,-35.5 609.225,-34.9145 593.7755,-34.9698 532,-35.5 520.3689,-35.5998 508.0854,-35.7557 496.0293,-35.9374"/>
<polygon fill="#191970" stroke="#191970" points="696.929,-39.331 706.9849,-35.9951 697.0435,-32.332 696.929,-39.331"/>
</g>
<!-- Node36&#45;&gt;Node33 -->
<g id="edge6" class="edge">
<title>Node36&#45;&gt;Node33</title>
<path fill="none" stroke="#191970" d="M309.3288,-24.3777C317.689,-25.411 326.2593,-26.4703 334.7294,-27.5171"/>
<polygon fill="#191970" stroke="#191970" points="309.61,-20.8859 299.2562,-23.1328 308.7513,-27.8331 309.61,-20.8859"/>
</g>
</g>
</svg>
