<?xml version="1.0" encoding="UTF-8" standalone="no"?>
<!DOCTYPE svg PUBLIC "-//W3C//DTD SVG 1.1//EN"
 "http://www.w3.org/Graphics/SVG/1.1/DTD/svg11.dtd">
<!-- Generated by graphviz version 2.40.1 (20161225.0304)
 -->
<!-- Title: neon::LinearElastic::lambda Pages: 1 -->
<svg width="245pt" height="88pt"
 viewBox="0.00 0.00 245.00 88.00" xmlns="http://www.w3.org/2000/svg" xmlns:xlink="http://www.w3.org/1999/xlink">
<g id="graph0" class="graph" transform="scale(1 1) rotate(0) translate(4 84)">
<title>neon::LinearElastic::lambda</title>
<polygon fill="#ffffff" stroke="transparent" points="-4,4 -4,-84 241,-84 241,4 -4,4"/>
<!-- Node7 -->
<g id="node1" class="node">
<title>Node7</title>
<polygon fill="#bfbfbf" stroke="#000000" points="0,-24.5 0,-54.5 100,-54.5 100,-24.5 0,-24.5"/>
<text text-anchor="start" x="8" y="-42.5" font-family="Helvetica,sans-Serif" font-size="10.00" fill="#000000">neon::LinearElastic</text>
<text text-anchor="middle" x="50" y="-31.5" font-family="Helvetica,sans-Serif" font-size="10.00" fill="#000000">::lambda</text>
</g>
<!-- Node8 -->
<g id="node2" class="node">
<title>Node8</title>
<g id="a_node2"><a xlink:href="classneon_1_1LinearElastic.html#ae5a85019b094ea54a8c0914620213a0c" target="_top" xlink:title="neon::LinearElastic\l::bulk_modulus">
<polygon fill="#ffffff" stroke="#000000" points="136.5,-49.5 136.5,-79.5 236.5,-79.5 236.5,-49.5 136.5,-49.5"/>
<text text-anchor="start" x="144.5" y="-67.5" font-family="Helvetica,sans-Serif" font-size="10.00" fill="#000000">neon::LinearElastic</text>
<text text-anchor="middle" x="186.5" y="-56.5" font-family="Helvetica,sans-Serif" font-size="10.00" fill="#000000">::bulk_modulus</text>
</a>
</g>
</g>
<!-- Node7&#45;&gt;Node8 -->
<g id="edge1" class="edge">
<title>Node7&#45;&gt;Node8</title>
<path fill="none" stroke="#191970" d="M109.9347,-50.477C118.7874,-52.0984 127.8297,-53.7545 136.4536,-55.334"/>
<polygon fill="#191970" stroke="#191970" points="110.5194,-47.026 100.0525,-48.6671 109.2583,-53.9115 110.5194,-47.026"/>
</g>
<!-- Node9 -->
<g id="node3" class="node">
<title>Node9</title>
<g id="a_node3"><a xlink:href="classneon_1_1LinearElastic.html#a84f36a87ccea5ecf7c0ba152add70fc5" target="_top" xlink:title="neon::LinearElastic\l::Lame_parameters">
<polygon fill="#ffffff" stroke="#000000" points="136,-.5 136,-30.5 237,-30.5 237,-.5 136,-.5"/>
<text text-anchor="start" x="144" y="-18.5" font-family="Helvetica,sans-Serif" font-size="10.00" fill="#000000">neon::LinearElastic</text>
<text text-anchor="middle" x="186.5" y="-7.5" font-family="Helvetica,sans-Serif" font-size="10.00" fill="#000000">::Lame_parameters</text>
</a>
</g>
</g>
<!-- Node7&#45;&gt;Node9 -->
<g id="edge2" class="edge">
<title>Node7&#45;&gt;Node9</title>
<path fill="none" stroke="#191970" d="M110.0884,-28.935C118.7359,-27.4146 127.5606,-25.863 135.9967,-24.3797"/>
<polygon fill="#191970" stroke="#191970" points="109.2953,-25.5207 100.0525,-30.6996 110.5075,-32.4149 109.2953,-25.5207"/>
</g>
</g>
</svg>
