<?xml version="1.0" encoding="UTF-8" standalone="no"?>
<!DOCTYPE svg PUBLIC "-//W3C//DTD SVG 1.1//EN"
 "http://www.w3.org/Graphics/SVG/1.1/DTD/svg11.dtd">
<!-- Generated by graphviz version 2.40.1 (20161225.0304)
 -->
<!-- Title: neon::AffineMicrosphere::volumetric_free_energy_derivative Pages: 1 -->
<svg width="301pt" height="88pt"
 viewBox="0.00 0.00 301.00 88.00" xmlns="http://www.w3.org/2000/svg" xmlns:xlink="http://www.w3.org/1999/xlink">
<g id="graph0" class="graph" transform="scale(1 1) rotate(0) translate(4 84)">
<title>neon::AffineMicrosphere::volumetric_free_energy_derivative</title>
<polygon fill="#ffffff" stroke="transparent" points="-4,4 -4,-84 297,-84 297,4 -4,4"/>
<!-- Node43 -->
<g id="node1" class="node">
<title>Node43</title>
<polygon fill="#bfbfbf" stroke="#000000" points="0,-19 0,-60 124,-60 124,-19 0,-19"/>
<text text-anchor="start" x="8" y="-48" font-family="Helvetica,sans-Serif" font-size="10.00" fill="#000000">neon::AffineMicrosphere</text>
<text text-anchor="start" x="8" y="-37" font-family="Helvetica,sans-Serif" font-size="10.00" fill="#000000">::volumetric_free_energy</text>
<text text-anchor="middle" x="62" y="-26" font-family="Helvetica,sans-Serif" font-size="10.00" fill="#000000">_derivative</text>
</g>
<!-- Node44 -->
<g id="node2" class="node">
<title>Node44</title>
<g id="a_node2"><a xlink:href="classneon_1_1AffineMicrosphere.html#ae6fbab77ef4d201ef8aa019235aac269" target="_top" xlink:title="neon::AffineMicrosphere\l::update_internal_variables">
<polygon fill="#ffffff" stroke="#000000" points="160,-49.5 160,-79.5 293,-79.5 293,-49.5 160,-49.5"/>
<text text-anchor="start" x="168" y="-67.5" font-family="Helvetica,sans-Serif" font-size="10.00" fill="#000000">neon::AffineMicrosphere</text>
<text text-anchor="middle" x="226.5" y="-56.5" font-family="Helvetica,sans-Serif" font-size="10.00" fill="#000000">::update_internal_variables</text>
</a>
</g>
</g>
<!-- Node43&#45;&gt;Node44 -->
<g id="edge1" class="edge">
<title>Node43&#45;&gt;Node44</title>
<path fill="none" stroke="#191970" d="M134.1297,-50.462C142.6735,-51.7604 151.3653,-53.0814 159.8287,-54.3676"/>
<polygon fill="#191970" stroke="#191970" points="134.6028,-46.9937 124.1904,-48.9514 133.551,-53.9143 134.6028,-46.9937"/>
</g>
<!-- Node45 -->
<g id="node3" class="node">
<title>Node45</title>
<g id="a_node3"><a xlink:href="classneon_1_1AffineMicrosphere.html#a2aa9098fb29ba340ff3dd5cfc00ed46f" target="_top" xlink:title="neon::AffineMicrosphere\l::intrinsic_material">
<polygon fill="#ffffff" stroke="#000000" points="165.5,-.5 165.5,-30.5 287.5,-30.5 287.5,-.5 165.5,-.5"/>
<text text-anchor="start" x="173.5" y="-18.5" font-family="Helvetica,sans-Serif" font-size="10.00" fill="#000000">neon::AffineMicrosphere</text>
<text text-anchor="middle" x="226.5" y="-7.5" font-family="Helvetica,sans-Serif" font-size="10.00" fill="#000000">::intrinsic_material</text>
</a>
</g>
</g>
<!-- Node43&#45;&gt;Node45 -->
<g id="edge2" class="edge">
<title>Node43&#45;&gt;Node45</title>
<path fill="none" stroke="#191970" d="M134.0861,-28.9829C144.5013,-27.4633 155.1372,-25.9116 165.312,-24.4271"/>
<polygon fill="#191970" stroke="#191970" points="133.5803,-25.5195 124.1904,-30.4266 134.591,-32.4462 133.5803,-25.5195"/>
</g>
</g>
</svg>
