<?xml version="1.0" encoding="UTF-8" standalone="no"?>
<!DOCTYPE svg PUBLIC "-//W3C//DTD SVG 1.1//EN"
 "http://www.w3.org/Graphics/SVG/1.1/DTD/svg11.dtd">
<!-- Generated by graphviz version 2.40.1 (20161225.0304)
 -->
<!-- Title: neon::AffineMicrosphere::update_internal_variables Pages: 1 -->
<!--zoomable 237 -->
<svg id="main" version="1.1" xmlns="http://www.w3.org/2000/svg" xmlns:xlink="http://www.w3.org/1999/xlink" xml:space="preserve" onload="init(evt)">
<style type="text/css"><![CDATA[
.edge:hover path { stroke: red; }
.edge:hover polygon { stroke: red; fill: red; }
]]></style>
<script type="text/javascript"><![CDATA[
var edges = document.getElementsByTagName('g');
if (edges && edges.length) {
  for (var i=0;i<edges.length;i++) {
    if (edges[i].id.substr(0,4)=='edge') {
      edges[i].setAttribute('class','edge');
    }
  }
}
]]></script>
        <defs>
                <circle id="rim" cx="0" cy="0" r="7"/>
                <circle id="rim2" cx="0" cy="0" r="3.5"/>
                <g id="zoomPlus">
                        <use xlink:href="#rim" fill="#404040">
                                <set attributeName="fill" to="#808080" begin="zoomplus.mouseover" end="zoomplus.mouseout"/>
                        </use>
                        <path d="M-4,0h8M0,-4v8" fill="none" stroke="white" stroke-width="1.5" pointer-events="none"/>
                </g>
                <g id="zoomMin">
                        <use xlink:href="#rim" fill="#404040">
                                <set attributeName="fill" to="#808080" begin="zoomminus.mouseover" end="zoomminus.mouseout"/>
                        </use>
                        <path d="M-4,0h8" fill="none" stroke="white" stroke-width="1.5" pointer-events="none"/>
                </g>
                <g id="dirArrow">
                        <path fill="none" stroke="white" stroke-width="1.5" d="M0,-3.0v7 M-2.5,-0.5L0,-3.0L2.5,-0.5"/>
                </g>
               <g id="resetDef">
                       <use xlink:href="#rim2" fill="#404040">
                               <set attributeName="fill" to="#808080" begin="reset.mouseover" end="reset.mouseout"/>
                       </use>
               </g>
        </defs>

<script type="text/javascript">
var viewWidth = 706;
var viewHeight = 237;
var sectionId = 'dynsection-7';
</script>
<script xlink:href="svgpan.js"/>
<svg id="graph" class="graph">
<g id="viewport">
<title>neon::AffineMicrosphere::update_internal_variables</title>
<polygon fill="#ffffff" stroke="transparent" points="-4,4 -4,-232.5 702,-232.5 702,4 -4,4"/>
<!-- Node32 -->
<g id="node1" class="node">
<title>Node32</title>
<polygon fill="#bfbfbf" stroke="#000000" points="0,-88 0,-118 133,-118 133,-88 0,-88"/>
<text text-anchor="start" x="8" y="-106" font-family="Helvetica,sans-Serif" font-size="10.00" fill="#000000">neon::AffineMicrosphere</text>
<text text-anchor="middle" x="66.5" y="-95" font-family="Helvetica,sans-Serif" font-size="10.00" fill="#000000">::update_internal_variables</text>
</g>
<!-- Node33 -->
<g id="node2" class="node">
<title>Node33</title>
<g id="a_node2"><a xlink:href="classneon_1_1AffineMicrosphere.html#a34503c57cf229f92d58365d45d8a39dc" target="_top" xlink:title="neon::AffineMicrosphere\l::compute_kirchhoff_stress">
<polygon fill="#ffffff" stroke="#000000" points="169,-171 169,-201 304,-201 304,-171 169,-171"/>
<text text-anchor="start" x="177" y="-189" font-family="Helvetica,sans-Serif" font-size="10.00" fill="#000000">neon::AffineMicrosphere</text>
<text text-anchor="middle" x="236.5" y="-178" font-family="Helvetica,sans-Serif" font-size="10.00" fill="#000000">::compute_kirchhoff_stress</text>
</a>
</g>
</g>
<!-- Node32&#45;&gt;Node33 -->
<g id="edge1" class="edge">
<title>Node32&#45;&gt;Node33</title>
<path fill="none" stroke="#191970" d="M90.7699,-118.2014C111.1798,-130.624 141.3696,-148.1666 169,-161 173.5583,-163.1172 178.3504,-165.1862 183.1903,-167.1699"/>
<polygon fill="#191970" stroke="#191970" points="181.9219,-170.432 192.5077,-170.8697 184.5053,-163.9262 181.9219,-170.432"/>
</g>
<!-- Node38 -->
<g id="node7" class="node">
<title>Node38</title>
<g id="a_node7"><a xlink:href="classneon_1_1AffineMicrosphere.html#a837c6c4f2751fb8a530ff3023ce4db7d" target="_top" xlink:title="neon::AffineMicrosphere\l::volumetric_free_energy\l_derivative">
<polygon fill="#ffffff" stroke="#000000" points="174.5,-110.5 174.5,-151.5 298.5,-151.5 298.5,-110.5 174.5,-110.5"/>
<text text-anchor="start" x="182.5" y="-139.5" font-family="Helvetica,sans-Serif" font-size="10.00" fill="#000000">neon::AffineMicrosphere</text>
<text text-anchor="start" x="182.5" y="-128.5" font-family="Helvetica,sans-Serif" font-size="10.00" fill="#000000">::volumetric_free_energy</text>
<text text-anchor="middle" x="236.5" y="-117.5" font-family="Helvetica,sans-Serif" font-size="10.00" fill="#000000">_derivative</text>
</a>
</g>
</g>
<!-- Node32&#45;&gt;Node38 -->
<g id="edge6" class="edge">
<title>Node32&#45;&gt;Node38</title>
<path fill="none" stroke="#191970" d="M133.2006,-113.986C143.4924,-115.6811 154.16,-117.4381 164.5603,-119.1511"/>
<polygon fill="#191970" stroke="#191970" points="163.993,-122.6048 174.4289,-120.7765 165.1307,-115.6978 163.993,-122.6048"/>
</g>
<!-- Node39 -->
<g id="node8" class="node">
<title>Node39</title>
<g id="a_node8"><a xlink:href="classneon_1_1AffineMicrosphere.html#a73cb6372ec999fd0c548772133c1ccbb" target="_top" xlink:title="neon::AffineMicrosphere\l::deviatoric_projection">
<polygon fill="#ffffff" stroke="#000000" points="175.5,-61 175.5,-91 297.5,-91 297.5,-61 175.5,-61"/>
<text text-anchor="start" x="183.5" y="-79" font-family="Helvetica,sans-Serif" font-size="10.00" fill="#000000">neon::AffineMicrosphere</text>
<text text-anchor="middle" x="236.5" y="-68" font-family="Helvetica,sans-Serif" font-size="10.00" fill="#000000">::deviatoric_projection</text>
</a>
</g>
</g>
<!-- Node32&#45;&gt;Node39 -->
<g id="edge7" class="edge">
<title>Node32&#45;&gt;Node39</title>
<path fill="none" stroke="#191970" d="M133.2006,-92.4064C143.7039,-90.7382 154.5986,-89.0079 165.2011,-87.3239"/>
<polygon fill="#191970" stroke="#191970" points="165.9275,-90.7525 175.2547,-85.7272 164.8294,-83.8392 165.9275,-90.7525"/>
</g>
<!-- Node40 -->
<g id="node9" class="node">
<title>Node40</title>
<g id="a_node9"><a xlink:href="classneon_1_1AffineMicrosphere.html#a38534cb6fcbe011bb52ab0e97c447ec6" target="_top" xlink:title="neon::AffineMicrosphere\l::volumetric_free_energy\l_second_derivative">
<polygon fill="#ffffff" stroke="#000000" points="174.5,-.5 174.5,-41.5 298.5,-41.5 298.5,-.5 174.5,-.5"/>
<text text-anchor="start" x="182.5" y="-29.5" font-family="Helvetica,sans-Serif" font-size="10.00" fill="#000000">neon::AffineMicrosphere</text>
<text text-anchor="start" x="182.5" y="-18.5" font-family="Helvetica,sans-Serif" font-size="10.00" fill="#000000">::volumetric_free_energy</text>
<text text-anchor="middle" x="236.5" y="-7.5" font-family="Helvetica,sans-Serif" font-size="10.00" fill="#000000">_second_derivative</text>
</a>
</g>
</g>
<!-- Node32&#45;&gt;Node40 -->
<g id="edge8" class="edge">
<title>Node32&#45;&gt;Node40</title>
<path fill="none" stroke="#191970" d="M95.4635,-87.8069C115.8854,-77.2174 143.9513,-62.9106 169,-51 172.6101,-49.2834 176.3419,-47.54 180.1122,-45.8019"/>
<polygon fill="#191970" stroke="#191970" points="181.8717,-48.8462 189.5159,-41.5102 178.9653,-42.478 181.8717,-48.8462"/>
</g>
<!-- Node34 -->
<g id="node3" class="node">
<title>Node34</title>
<g id="a_node3"><a xlink:href="classneon_1_1NumericalQuadrature.html#a132861ccaee57e629e116eb9b014a3a9" target="_top" xlink:title="neon::NumericalQuadrature\l::integrate">
<polygon fill="#ffffff" stroke="#000000" points="352.5,-196 352.5,-226 488.5,-226 488.5,-196 352.5,-196"/>
<text text-anchor="start" x="360.5" y="-214" font-family="Helvetica,sans-Serif" font-size="10.00" fill="#000000">neon::NumericalQuadrature</text>
<text text-anchor="middle" x="420.5" y="-203" font-family="Helvetica,sans-Serif" font-size="10.00" fill="#000000">::integrate</text>
</a>
</g>
</g>
<!-- Node33&#45;&gt;Node34 -->
<g id="edge2" class="edge">
<title>Node33&#45;&gt;Node34</title>
<path fill="none" stroke="#191970" d="M304.2309,-195.2026C316.6017,-196.8834 329.603,-198.6499 342.2497,-200.3682"/>
<polygon fill="#191970" stroke="#191970" points="341.917,-203.855 352.2972,-201.7333 342.8595,-196.9188 341.917,-203.855"/>
</g>
<!-- Node36 -->
<g id="node5" class="node">
<title>Node36</title>
<g id="a_node5"><a xlink:href="classneon_1_1MicromechanicalElastomer.html#aaa830ce016c4832b69ad66413cbffc7f" target="_top" xlink:title="neon::MicromechanicalElastomer\l::segment_probability">
<polygon fill="#ffffff" stroke="#000000" points="340,-146 340,-176 501,-176 501,-146 340,-146"/>
<text text-anchor="start" x="348" y="-164" font-family="Helvetica,sans-Serif" font-size="10.00" fill="#000000">neon::MicromechanicalElastomer</text>
<text text-anchor="middle" x="420.5" y="-153" font-family="Helvetica,sans-Serif" font-size="10.00" fill="#000000">::segment_probability</text>
</a>
</g>
</g>
<!-- Node33&#45;&gt;Node36 -->
<g id="edge4" class="edge">
<title>Node33&#45;&gt;Node36</title>
<path fill="none" stroke="#191970" d="M304.2309,-176.7974C312.5534,-175.6667 321.1612,-174.4971 329.7544,-173.3296"/>
<polygon fill="#191970" stroke="#191970" points="330.3797,-176.7769 339.8174,-171.9623 329.4372,-169.8406 330.3797,-176.7769"/>
</g>
<!-- Node35 -->
<g id="node4" class="node">
<title>Node35</title>
<g id="a_node4"><a xlink:href="classneon_1_1NumericalQuadrature.html#aed7176a5ad2e2c75aa96eb9a41f4dfb6" target="_top" xlink:title="neon::NumericalQuadrature\l::points">
<polygon fill="#ffffff" stroke="#000000" points="549.5,-198 549.5,-228 685.5,-228 685.5,-198 549.5,-198"/>
<text text-anchor="start" x="557.5" y="-216" font-family="Helvetica,sans-Serif" font-size="10.00" fill="#000000">neon::NumericalQuadrature</text>
<text text-anchor="middle" x="617.5" y="-205" font-family="Helvetica,sans-Serif" font-size="10.00" fill="#000000">::points</text>
</a>
</g>
</g>
<!-- Node34&#45;&gt;Node35 -->
<g id="edge3" class="edge">
<title>Node34&#45;&gt;Node35</title>
<path fill="none" stroke="#191970" d="M488.5721,-211.6911C504.8737,-211.8566 522.4084,-212.0346 539.134,-212.2044"/>
<polygon fill="#191970" stroke="#191970" points="539.3902,-215.7071 549.4252,-212.3089 539.4613,-208.7075 539.3902,-215.7071"/>
</g>
<!-- Node37 -->
<g id="node6" class="node">
<title>Node37</title>
<g id="a_node6"><a xlink:href="classneon_1_1MicromechanicalElastomer.html#aab4b7bfc80786688b65c944d482bbb66" target="_top" xlink:title="neon::MicromechanicalElastomer\l::compute_probability_and\l_segments">
<polygon fill="#ffffff" stroke="#000000" points="537,-137.5 537,-178.5 698,-178.5 698,-137.5 537,-137.5"/>
<text text-anchor="start" x="545" y="-166.5" font-family="Helvetica,sans-Serif" font-size="10.00" fill="#000000">neon::MicromechanicalElastomer</text>
<text text-anchor="start" x="545" y="-155.5" font-family="Helvetica,sans-Serif" font-size="10.00" fill="#000000">::compute_probability_and</text>
<text text-anchor="middle" x="617.5" y="-144.5" font-family="Helvetica,sans-Serif" font-size="10.00" fill="#000000">_segments</text>
</a>
</g>
</g>
<!-- Node36&#45;&gt;Node37 -->
<g id="edge5" class="edge">
<title>Node36&#45;&gt;Node37</title>
<path fill="none" stroke="#191970" d="M501.1959,-159.7711C509.6733,-159.642 518.3327,-159.5102 526.9115,-159.3795"/>
<polygon fill="#191970" stroke="#191970" points="526.9841,-162.8789 536.9296,-159.227 526.8775,-155.8797 526.9841,-162.8789"/>
</g>
</g>
</svg>
        <g id="navigator" transform="translate(0 0)" fill="#404254">
                <rect fill="#f2f5e9" fill-opacity="0.5" stroke="#606060" stroke-width=".5" x="0" y="0" width="60" height="60"/>
                <use id="zoomplus" xlink:href="#zoomPlus" x="17" y="9" onmousedown="handleZoom(evt,'in')"/>
                <use id="zoomminus" xlink:href="#zoomMin" x="42" y="9" onmousedown="handleZoom(evt,'out')"/>
                <use id="reset" xlink:href="#resetDef" x="30" y="36" onmousedown="handleReset()"/>
                <g id="arrowUp" xlink:href="#dirArrow" transform="translate(30 24)" onmousedown="handlePan(0,-1)">
                  <use xlink:href="#rim" fill="#404040">
                        <set attributeName="fill" to="#808080" begin="arrowUp.mouseover" end="arrowUp.mouseout"/>
                  </use>
                  <path fill="none" stroke="white" stroke-width="1.5" d="M0,-3.0v7 M-2.5,-0.5L0,-3.0L2.5,-0.5"/>
                </g>
                <g id="arrowRight" xlink:href="#dirArrow" transform="rotate(90) translate(36 -43)" onmousedown="handlePan(1,0)">
                  <use xlink:href="#rim" fill="#404040">
                        <set attributeName="fill" to="#808080" begin="arrowRight.mouseover" end="arrowRight.mouseout"/>
                  </use>
                  <path fill="none" stroke="white" stroke-width="1.5" d="M0,-3.0v7 M-2.5,-0.5L0,-3.0L2.5,-0.5"/>
                </g>
                <g id="arrowDown" xlink:href="#dirArrow" transform="rotate(180) translate(-30 -48)" onmousedown="handlePan(0,1)">
                  <use xlink:href="#rim" fill="#404040">
                        <set attributeName="fill" to="#808080" begin="arrowDown.mouseover" end="arrowDown.mouseout"/>
                  </use>
                  <path fill="none" stroke="white" stroke-width="1.5" d="M0,-3.0v7 M-2.5,-0.5L0,-3.0L2.5,-0.5"/>
                </g>
                <g id="arrowLeft" xlink:href="#dirArrow" transform="rotate(270) translate(-36 17)" onmousedown="handlePan(-1,0)">
                  <use xlink:href="#rim" fill="#404040">
                        <set attributeName="fill" to="#808080" begin="arrowLeft.mouseover" end="arrowLeft.mouseout"/>
                  </use>
                  <path fill="none" stroke="white" stroke-width="1.5" d="M0,-3.0v7 M-2.5,-0.5L0,-3.0L2.5,-0.5"/>
                </g>
        </g>
        <svg viewBox="0 0 15 15" width="100%" height="30px" preserveAspectRatio="xMaxYMin meet">
         <g id="arrow_out" transform="scale(0.3 0.3)">
          <a xlink:href="classneon_1_1AffineMicrosphere_ae6fbab77ef4d201ef8aa019235aac269_cgraph_org.svg" target="_base">
           <rect id="button" ry="5" rx="5" y="6" x="6" height="38" width="38"
                fill="#f2f5e9" fill-opacity="0.5" stroke="#606060" stroke-width="1.0"/>
           <path id="arrow"
             d="M 11.500037,31.436501 C 11.940474,20.09759 22.043105,11.32322 32.158766,21.979434 L 37.068811,17.246167 C 37.068811,17.246167 37.088388,32 37.088388,32 L 22.160133,31.978069 C 22.160133,31.978069 26.997745,27.140456 26.997745,27.140456 C 18.528582,18.264221 13.291696,25.230495 11.500037,31.436501 z"
             style="fill:#404040;"/>
          </a>
         </g>
        </svg>
</svg>
