<?xml version="1.0" encoding="UTF-8" standalone="no"?>
<!DOCTYPE svg PUBLIC "-//W3C//DTD SVG 1.1//EN"
 "http://www.w3.org/Graphics/SVG/1.1/DTD/svg11.dtd">
<!-- Generated by graphviz version 2.40.1 (20161225.0304)
 -->
<!-- Title: neon::solid::femSubmesh::update_internal_variables Pages: 1 -->
<svg width="677pt" height="181pt"
 viewBox="0.00 0.00 677.00 180.92" xmlns="http://www.w3.org/2000/svg" xmlns:xlink="http://www.w3.org/1999/xlink">
<g id="graph0" class="graph" transform="scale(1 1) rotate(0) translate(4 176.9192)">
<title>neon::solid::femSubmesh::update_internal_variables</title>
<polygon fill="#ffffff" stroke="transparent" points="-4,4 -4,-176.9192 673,-176.9192 673,4 -4,4"/>
<!-- Node160 -->
<g id="node1" class="node">
<title>Node160</title>
<polygon fill="#bfbfbf" stroke="#000000" points="0,-49.5 0,-79.5 133,-79.5 133,-49.5 0,-49.5"/>
<text text-anchor="start" x="8" y="-67.5" font-family="Helvetica,sans-Serif" font-size="10.00" fill="#000000">neon::solid::femSubmesh</text>
<text text-anchor="middle" x="66.5" y="-56.5" font-family="Helvetica,sans-Serif" font-size="10.00" fill="#000000">::update_internal_variables</text>
</g>
<!-- Node161 -->
<g id="node2" class="node">
<title>Node161</title>
<g id="a_node2"><a xlink:href="classneon_1_1solid_1_1femSubmesh.html#a8bd85d6bbd7f0e43b8621c95b93bfd50" target="_top" xlink:title="neon::solid::femSubmesh\l::update_deformation_measures">
<polygon fill="#ffffff" stroke="#000000" points="170,-98.5 170,-128.5 326,-128.5 326,-98.5 170,-98.5"/>
<text text-anchor="start" x="178" y="-116.5" font-family="Helvetica,sans-Serif" font-size="10.00" fill="#000000">neon::solid::femSubmesh</text>
<text text-anchor="middle" x="248" y="-105.5" font-family="Helvetica,sans-Serif" font-size="10.00" fill="#000000">::update_deformation_measures</text>
</a>
</g>
</g>
<!-- Node160&#45;&gt;Node161 -->
<g id="edge1" class="edge">
<title>Node160&#45;&gt;Node161</title>
<path fill="none" stroke="#191970" d="M122.437,-79.6014C141.4161,-84.7253 162.7898,-90.4956 182.4497,-95.8032"/>
<polygon fill="#191970" stroke="#191970" points="181.6811,-99.221 192.2477,-98.4484 183.5056,-92.4629 181.6811,-99.221"/>
</g>
<!-- Node166 -->
<g id="node7" class="node">
<title>Node166</title>
<g id="a_node7"><a xlink:href="classneon_1_1solid_1_1femSubmesh.html#a589769624c7a0437790eddbd78faec90" target="_top" xlink:title="neon::solid::femSubmesh\l::update_Jacobian_determinants">
<polygon fill="#ffffff" stroke="#000000" points="169,-49.5 169,-79.5 327,-79.5 327,-49.5 169,-49.5"/>
<text text-anchor="start" x="177" y="-67.5" font-family="Helvetica,sans-Serif" font-size="10.00" fill="#000000">neon::solid::femSubmesh</text>
<text text-anchor="middle" x="248" y="-56.5" font-family="Helvetica,sans-Serif" font-size="10.00" fill="#000000">::update_Jacobian_determinants</text>
</a>
</g>
</g>
<!-- Node160&#45;&gt;Node166 -->
<g id="edge8" class="edge">
<title>Node160&#45;&gt;Node166</title>
<path fill="none" stroke="#191970" d="M133.0533,-64.5C141.4158,-64.5 150.074,-64.5 158.7145,-64.5"/>
<polygon fill="#191970" stroke="#191970" points="158.8308,-68.0001 168.8308,-64.5 158.8307,-61.0001 158.8308,-68.0001"/>
</g>
<!-- Node167 -->
<g id="node8" class="node">
<title>Node167</title>
<g id="a_node8"><a xlink:href="classneon_1_1solid_1_1femSubmesh.html#a6bf9f575ae746cc54f65bf9eabcfa50d" target="_top" xlink:title="neon::solid::femSubmesh\l::check_element_distortion">
<polygon fill="#ffffff" stroke="#000000" points="181,-.5 181,-30.5 315,-30.5 315,-.5 181,-.5"/>
<text text-anchor="start" x="189" y="-18.5" font-family="Helvetica,sans-Serif" font-size="10.00" fill="#000000">neon::solid::femSubmesh</text>
<text text-anchor="middle" x="248" y="-7.5" font-family="Helvetica,sans-Serif" font-size="10.00" fill="#000000">::check_element_distortion</text>
</a>
</g>
</g>
<!-- Node160&#45;&gt;Node167 -->
<g id="edge9" class="edge">
<title>Node160&#45;&gt;Node167</title>
<path fill="none" stroke="#191970" d="M122.437,-49.3986C141.4161,-44.2747 162.7898,-38.5044 182.4497,-33.1968"/>
<polygon fill="#191970" stroke="#191970" points="183.5056,-36.5371 192.2477,-30.5516 181.6811,-29.779 183.5056,-36.5371"/>
</g>
<!-- Node162 -->
<g id="node3" class="node">
<title>Node162</title>
<g id="a_node3"><a xlink:href="classneon_1_1SubMesh.html#af487d15a392b158f57d0de57e761f6d1" target="_top" xlink:title="neon::SubMesh::elements">
<polygon fill="#ffffff" stroke="#000000" points="538,-151 538,-170 669,-170 669,-151 538,-151"/>
<text text-anchor="middle" x="603.5" y="-158" font-family="Helvetica,sans-Serif" font-size="10.00" fill="#000000">neon::SubMesh::elements</text>
</a>
</g>
</g>
<!-- Node161&#45;&gt;Node162 -->
<g id="edge2" class="edge">
<title>Node161&#45;&gt;Node162</title>
<path fill="none" stroke="#191970" d="M274.3772,-128.6979C297.0412,-140.827 331.0281,-156.8503 363,-163.5 417.2742,-174.7883 479.9352,-173.5619 527.6881,-169.7648"/>
<polygon fill="#191970" stroke="#191970" points="528.2827,-173.227 537.9498,-168.8914 527.6889,-166.2522 528.2827,-173.227"/>
</g>
<!-- Node163 -->
<g id="node4" class="node">
<title>Node163</title>
<g id="a_node4"><a xlink:href="classneon_1_1SubMesh.html#acacabb1cefbe206b4c2bf9ddade795ed" target="_top" xlink:title="neon::SubMesh::local\l_node_list">
<polygon fill="#ffffff" stroke="#000000" points="548,-77.5 548,-107.5 659,-107.5 659,-77.5 548,-77.5"/>
<text text-anchor="start" x="556" y="-95.5" font-family="Helvetica,sans-Serif" font-size="10.00" fill="#000000">neon::SubMesh::local</text>
<text text-anchor="middle" x="603.5" y="-84.5" font-family="Helvetica,sans-Serif" font-size="10.00" fill="#000000">_node_list</text>
</a>
</g>
</g>
<!-- Node161&#45;&gt;Node163 -->
<g id="edge3" class="edge">
<title>Node161&#45;&gt;Node163</title>
<path fill="none" stroke="#191970" d="M305.3453,-98.4061C312.7698,-95.7798 320.1624,-92.8111 327,-89.5 344.5322,-81.0101 344.4106,-70.3216 363,-64.5 426.0485,-44.7552 502.333,-59.8094 551.8355,-74.3753"/>
<polygon fill="#191970" stroke="#191970" points="551.0866,-77.8057 561.6723,-77.3673 553.1236,-71.1087 551.0866,-77.8057"/>
</g>
<!-- Node164 -->
<g id="node5" class="node">
<title>Node164</title>
<g id="a_node5"><a xlink:href="classneon_1_1solid_1_1femSubmesh.html#afa388c49be3b7e286237b363bb30551d" target="_top" xlink:title="neon::solid::femSubmesh\l::local_deformation_gradient">
<polygon fill="#ffffff" stroke="#000000" points="363,-74.5 363,-104.5 502,-104.5 502,-74.5 363,-74.5"/>
<text text-anchor="start" x="371" y="-92.5" font-family="Helvetica,sans-Serif" font-size="10.00" fill="#000000">neon::solid::femSubmesh</text>
<text text-anchor="middle" x="432.5" y="-81.5" font-family="Helvetica,sans-Serif" font-size="10.00" fill="#000000">::local_deformation_gradient</text>
</a>
</g>
</g>
<!-- Node161&#45;&gt;Node164 -->
<g id="edge4" class="edge">
<title>Node161&#45;&gt;Node164</title>
<path fill="none" stroke="#191970" d="M326.2446,-103.3218C335.0931,-102.1708 344.1175,-100.9969 352.9821,-99.8438"/>
<polygon fill="#191970" stroke="#191970" points="353.4396,-103.3139 362.9046,-98.5531 352.5366,-96.3723 353.4396,-103.3139"/>
</g>
<!-- Node165 -->
<g id="node6" class="node">
<title>Node165</title>
<g id="a_node6"><a xlink:href="classneon_1_1solid_1_1femSubmesh.html#abfcb47594fe901d00dc48b6550fe124b" target="_top" xlink:title="neon::solid::femSubmesh\l::offset">
<polygon fill="#ffffff" stroke="#000000" points="368.5,-123.5 368.5,-153.5 496.5,-153.5 496.5,-123.5 368.5,-123.5"/>
<text text-anchor="start" x="376.5" y="-141.5" font-family="Helvetica,sans-Serif" font-size="10.00" fill="#000000">neon::solid::femSubmesh</text>
<text text-anchor="middle" x="432.5" y="-130.5" font-family="Helvetica,sans-Serif" font-size="10.00" fill="#000000">::offset</text>
</a>
</g>
</g>
<!-- Node161&#45;&gt;Node165 -->
<g id="edge5" class="edge">
<title>Node161&#45;&gt;Node165</title>
<path fill="none" stroke="#191970" d="M326.2446,-124.1023C336.8878,-125.5444 347.7856,-127.0211 358.3534,-128.453"/>
<polygon fill="#191970" stroke="#191970" points="357.9859,-131.9351 368.3653,-129.8097 358.9259,-124.9985 357.9859,-131.9351"/>
</g>
<!-- Node165&#45;&gt;Node162 -->
<g id="edge6" class="edge">
<title>Node165&#45;&gt;Node162</title>
<path fill="none" stroke="#191970" d="M496.6606,-146.7546C506.8587,-148.0666 517.4895,-149.4343 527.9206,-150.7763"/>
<polygon fill="#191970" stroke="#191970" points="527.4748,-154.2477 537.8397,-152.0525 528.3681,-147.305 527.4748,-154.2477"/>
</g>
<!-- Node165&#45;&gt;Node163 -->
<g id="edge7" class="edge">
<title>Node165&#45;&gt;Node163</title>
<path fill="none" stroke="#191970" d="M488.4918,-123.4379C504.3017,-119.1849 521.6458,-114.5193 537.9626,-110.1299"/>
<polygon fill="#191970" stroke="#191970" points="539.219,-113.4165 547.9664,-107.4389 537.4005,-106.6568 539.219,-113.4165"/>
</g>
</g>
</svg>
