<?xml version="1.0" encoding="UTF-8" standalone="no"?>
<!DOCTYPE svg PUBLIC "-//W3C//DTD SVG 1.1//EN"
 "http://www.w3.org/Graphics/SVG/1.1/DTD/svg11.dtd">
<!-- Generated by graphviz version 2.40.1 (20161225.0304)
 -->
<!-- Title: neon::solid::MaterialCoordinates::vtk_coordinates Pages: 1 -->
<svg width="358pt" height="39pt"
 viewBox="0.00 0.00 358.00 39.00" xmlns="http://www.w3.org/2000/svg" xmlns:xlink="http://www.w3.org/1999/xlink">
<g id="graph0" class="graph" transform="scale(1 1) rotate(0) translate(4 35)">
<title>neon::solid::MaterialCoordinates::vtk_coordinates</title>
<polygon fill="#ffffff" stroke="transparent" points="-4,4 -4,-35 354,-35 354,4 -4,4"/>
<!-- Node11 -->
<g id="node1" class="node">
<title>Node11</title>
<polygon fill="#bfbfbf" stroke="#000000" points="0,-.5 0,-30.5 157,-30.5 157,-.5 0,-.5"/>
<text text-anchor="start" x="8" y="-18.5" font-family="Helvetica,sans-Serif" font-size="10.00" fill="#000000">neon::solid::MaterialCoordinates</text>
<text text-anchor="middle" x="78.5" y="-7.5" font-family="Helvetica,sans-Serif" font-size="10.00" fill="#000000">::vtk_coordinates</text>
</g>
<!-- Node12 -->
<g id="node2" class="node">
<title>Node12</title>
<g id="a_node2"><a xlink:href="classneon_1_1solid_1_1MaterialCoordinates.html#aecef64c350ca75e15834a07b248abdbd" target="_top" xlink:title="neon::solid::MaterialCoordinates\l::update_current_configuration">
<polygon fill="#ffffff" stroke="#000000" points="193,-.5 193,-30.5 350,-30.5 350,-.5 193,-.5"/>
<text text-anchor="start" x="201" y="-18.5" font-family="Helvetica,sans-Serif" font-size="10.00" fill="#000000">neon::solid::MaterialCoordinates</text>
<text text-anchor="middle" x="271.5" y="-7.5" font-family="Helvetica,sans-Serif" font-size="10.00" fill="#000000">::update_current_configuration</text>
</a>
</g>
</g>
<!-- Node11&#45;&gt;Node12 -->
<g id="edge1" class="edge">
<title>Node11&#45;&gt;Node12</title>
<path fill="none" stroke="#191970" d="M167.0225,-15.5C175.607,-15.5 184.2762,-15.5 192.7559,-15.5"/>
<polygon fill="#191970" stroke="#191970" points="167.0005,-12.0001 157.0005,-15.5 167.0005,-19.0001 167.0005,-12.0001"/>
</g>
</g>
</svg>
