<?xml version="1.0" encoding="UTF-8" standalone="no"?>
<!DOCTYPE svg PUBLIC "-//W3C//DTD SVG 1.1//EN"
 "http://www.w3.org/Graphics/SVG/1.1/DTD/svg11.dtd">
<!-- Generated by graphviz version 2.40.1 (20161225.0304)
 -->
<!-- Title: neon::Hyperelastic Pages: 1 -->
<svg width="238pt" height="140pt"
 viewBox="0.00 0.00 238.00 140.00" xmlns="http://www.w3.org/2000/svg" xmlns:xlink="http://www.w3.org/1999/xlink">
<g id="graph0" class="graph" transform="scale(1 1) rotate(0) translate(4 136)">
<title>neon::Hyperelastic</title>
<polygon fill="#ffffff" stroke="transparent" points="-4,4 -4,-136 234,-136 234,4 -4,4"/>
<!-- Node0 -->
<g id="node1" class="node">
<title>Node0</title>
<polygon fill="#bfbfbf" stroke="#000000" points="74,-56.5 74,-75.5 172,-75.5 172,-56.5 74,-56.5"/>
<text text-anchor="middle" x="123" y="-63.5" font-family="Helvetica,sans-Serif" font-size="10.00" fill="#000000">neon::Hyperelastic</text>
</g>
<!-- Node2 -->
<g id="node3" class="node">
<title>Node2</title>
<g id="a_node3"><a xlink:href="classneon_1_1AffineMicrosphere.html" target="_top" xlink:title="neon::AffineMicrosphere">
<polygon fill="#ffffff" stroke="#000000" points="0,-.5 0,-19.5 122,-19.5 122,-.5 0,-.5"/>
<text text-anchor="middle" x="61" y="-7.5" font-family="Helvetica,sans-Serif" font-size="10.00" fill="#000000">neon::AffineMicrosphere</text>
</a>
</g>
</g>
<!-- Node0&#45;&gt;Node2 -->
<g id="edge2" class="edge">
<title>Node0&#45;&gt;Node2</title>
<path fill="none" stroke="#191970" d="M104.5779,-49.3607C93.8519,-39.6727 80.7066,-27.7995 71.6758,-19.6427"/>
<polygon fill="#191970" stroke="#191970" points="102.4334,-52.14 112.2004,-56.2455 107.1254,-46.9453 102.4334,-52.14"/>
</g>
<!-- Node3 -->
<g id="node4" class="node">
<title>Node3</title>
<g id="a_node4"><a xlink:href="classneon_1_1NeoHooke.html" target="_top" xlink:title="neon::NeoHooke">
<polygon fill="#ffffff" stroke="#000000" points="140,-.5 140,-19.5 230,-19.5 230,-.5 140,-.5"/>
<text text-anchor="middle" x="185" y="-7.5" font-family="Helvetica,sans-Serif" font-size="10.00" fill="#000000">neon::NeoHooke</text>
</a>
</g>
</g>
<!-- Node0&#45;&gt;Node3 -->
<g id="edge3" class="edge">
<title>Node0&#45;&gt;Node3</title>
<path fill="none" stroke="#191970" d="M141.4221,-49.3607C152.1481,-39.6727 165.2934,-27.7995 174.3242,-19.6427"/>
<polygon fill="#191970" stroke="#191970" points="138.8746,-46.9453 133.7996,-56.2455 143.5666,-52.14 138.8746,-46.9453"/>
</g>
<!-- Node1 -->
<g id="node2" class="node">
<title>Node1</title>
<g id="a_node2"><a xlink:href="classneon_1_1ConstitutiveModel.html" target="_top" xlink:title="neon::ConstitutiveModel">
<polygon fill="#ffffff" stroke="#000000" points="62,-112.5 62,-131.5 184,-131.5 184,-112.5 62,-112.5"/>
<text text-anchor="middle" x="123" y="-119.5" font-family="Helvetica,sans-Serif" font-size="10.00" fill="#000000">neon::ConstitutiveModel</text>
</a>
</g>
</g>
<!-- Node1&#45;&gt;Node0 -->
<g id="edge1" class="edge">
<title>Node1&#45;&gt;Node0</title>
<path fill="none" stroke="#191970" d="M123,-102.1575C123,-93.155 123,-82.9199 123,-75.6427"/>
<polygon fill="#191970" stroke="#191970" points="119.5001,-102.2455 123,-112.2455 126.5001,-102.2456 119.5001,-102.2455"/>
</g>
</g>
</svg>
