<?xml version="1.0" encoding="UTF-8" standalone="no"?>
<!DOCTYPE svg PUBLIC "-//W3C//DTD SVG 1.1//EN"
 "http://www.w3.org/Graphics/SVG/1.1/DTD/svg11.dtd">
<!-- Generated by graphviz version 2.40.1 (20161225.0304)
 -->
<!-- Title: neon::LinearElastic::mu Pages: 1 -->
<svg width="264pt" height="137pt"
 viewBox="0.00 0.00 264.00 137.00" xmlns="http://www.w3.org/2000/svg" xmlns:xlink="http://www.w3.org/1999/xlink">
<g id="graph0" class="graph" transform="scale(1 1) rotate(0) translate(4 133)">
<title>neon::LinearElastic::mu</title>
<polygon fill="#ffffff" stroke="transparent" points="-4,4 -4,-133 260,-133 260,4 -4,4"/>
<!-- Node15 -->
<g id="node1" class="node">
<title>Node15</title>
<polygon fill="#bfbfbf" stroke="#000000" points="0,-55 0,-74 119,-74 119,-55 0,-55"/>
<text text-anchor="middle" x="59.5" y="-62" font-family="Helvetica,sans-Serif" font-size="10.00" fill="#000000">neon::LinearElastic::mu</text>
</g>
<!-- Node16 -->
<g id="node2" class="node">
<title>Node16</title>
<g id="a_node2"><a xlink:href="classneon_1_1LinearElastic.html#ae5a85019b094ea54a8c0914620213a0c" target="_top" xlink:title="neon::LinearElastic\l::bulk_modulus">
<polygon fill="#ffffff" stroke="#000000" points="155.5,-98.5 155.5,-128.5 255.5,-128.5 255.5,-98.5 155.5,-98.5"/>
<text text-anchor="start" x="163.5" y="-116.5" font-family="Helvetica,sans-Serif" font-size="10.00" fill="#000000">neon::LinearElastic</text>
<text text-anchor="middle" x="205.5" y="-105.5" font-family="Helvetica,sans-Serif" font-size="10.00" fill="#000000">::bulk_modulus</text>
</a>
</g>
</g>
<!-- Node15&#45;&gt;Node16 -->
<g id="edge1" class="edge">
<title>Node15&#45;&gt;Node16</title>
<path fill="none" stroke="#191970" d="M97.6666,-77.3093C116.9755,-83.7897 140.5315,-91.6955 160.696,-98.463"/>
<polygon fill="#191970" stroke="#191970" points="98.5908,-73.9277 87.9969,-74.064 96.3635,-80.5639 98.5908,-73.9277"/>
</g>
<!-- Node17 -->
<g id="node3" class="node">
<title>Node17</title>
<g id="a_node3"><a xlink:href="classneon_1_1LinearElastic.html#a229a5c3662c559f56dd054da8cc696e4" target="_top" xlink:title="neon::LinearElastic\l::shear_modulus">
<polygon fill="#ffffff" stroke="#000000" points="155.5,-49.5 155.5,-79.5 255.5,-79.5 255.5,-49.5 155.5,-49.5"/>
<text text-anchor="start" x="163.5" y="-67.5" font-family="Helvetica,sans-Serif" font-size="10.00" fill="#000000">neon::LinearElastic</text>
<text text-anchor="middle" x="205.5" y="-56.5" font-family="Helvetica,sans-Serif" font-size="10.00" fill="#000000">::shear_modulus</text>
</a>
</g>
</g>
<!-- Node15&#45;&gt;Node17 -->
<g id="edge2" class="edge">
<title>Node15&#45;&gt;Node17</title>
<path fill="none" stroke="#191970" d="M129.491,-64.5C138.2158,-64.5 146.9981,-64.5 155.3381,-64.5"/>
<polygon fill="#191970" stroke="#191970" points="129.3051,-61.0001 119.305,-64.5 129.305,-68.0001 129.3051,-61.0001"/>
</g>
<!-- Node18 -->
<g id="node4" class="node">
<title>Node18</title>
<g id="a_node4"><a xlink:href="classneon_1_1LinearElastic.html#a84f36a87ccea5ecf7c0ba152add70fc5" target="_top" xlink:title="neon::LinearElastic\l::Lame_parameters">
<polygon fill="#ffffff" stroke="#000000" points="155,-.5 155,-30.5 256,-30.5 256,-.5 155,-.5"/>
<text text-anchor="start" x="163" y="-18.5" font-family="Helvetica,sans-Serif" font-size="10.00" fill="#000000">neon::LinearElastic</text>
<text text-anchor="middle" x="205.5" y="-7.5" font-family="Helvetica,sans-Serif" font-size="10.00" fill="#000000">::Lame_parameters</text>
</a>
</g>
</g>
<!-- Node15&#45;&gt;Node18 -->
<g id="edge3" class="edge">
<title>Node15&#45;&gt;Node18</title>
<path fill="none" stroke="#191970" d="M97.6666,-51.6907C116.9755,-45.2103 140.5315,-37.3045 160.696,-30.537"/>
<polygon fill="#191970" stroke="#191970" points="96.3635,-48.4361 87.9969,-54.936 98.5908,-55.0723 96.3635,-48.4361"/>
</g>
</g>
</svg>
