<?xml version="1.0" encoding="UTF-8" standalone="no"?>
<!DOCTYPE svg PUBLIC "-//W3C//DTD SVG 1.1//EN"
 "http://www.w3.org/Graphics/SVG/1.1/DTD/svg11.dtd">
<!-- Generated by graphviz version 2.40.1 (20161225.0304)
 -->
<!-- Title: neon::MicromechanicalElastomer::compute_probability_and_segments Pages: 1 -->
<svg width="732pt" height="137pt"
 viewBox="0.00 0.00 732.00 137.00" xmlns="http://www.w3.org/2000/svg" xmlns:xlink="http://www.w3.org/1999/xlink">
<g id="graph0" class="graph" transform="scale(1 1) rotate(0) translate(4 133)">
<title>neon::MicromechanicalElastomer::compute_probability_and_segments</title>
<polygon fill="#ffffff" stroke="transparent" points="-4,4 -4,-133 728,-133 728,4 -4,4"/>
<!-- Node1 -->
<g id="node1" class="node">
<title>Node1</title>
<polygon fill="#bfbfbf" stroke="#000000" points="0,-19 0,-60 161,-60 161,-19 0,-19"/>
<text text-anchor="start" x="8" y="-48" font-family="Helvetica,sans-Serif" font-size="10.00" fill="#000000">neon::MicromechanicalElastomer</text>
<text text-anchor="start" x="8" y="-37" font-family="Helvetica,sans-Serif" font-size="10.00" fill="#000000">::compute_probability_and</text>
<text text-anchor="middle" x="80.5" y="-26" font-family="Helvetica,sans-Serif" font-size="10.00" fill="#000000">_segments</text>
</g>
<!-- Node2 -->
<g id="node2" class="node">
<title>Node2</title>
<g id="a_node2"><a xlink:href="classneon_1_1MicromechanicalElastomer.html#aaa830ce016c4832b69ad66413cbffc7f" target="_top" xlink:title="neon::MicromechanicalElastomer\l::segment_probability">
<polygon fill="#ffffff" stroke="#000000" points="197,-49.5 197,-79.5 358,-79.5 358,-49.5 197,-49.5"/>
<text text-anchor="start" x="205" y="-67.5" font-family="Helvetica,sans-Serif" font-size="10.00" fill="#000000">neon::MicromechanicalElastomer</text>
<text text-anchor="middle" x="277.5" y="-56.5" font-family="Helvetica,sans-Serif" font-size="10.00" fill="#000000">::segment_probability</text>
</a>
</g>
</g>
<!-- Node1&#45;&gt;Node2 -->
<g id="edge1" class="edge">
<title>Node1&#45;&gt;Node2</title>
<path fill="none" stroke="#191970" d="M171.2155,-51.0121C179.7951,-52.1009 188.454,-53.1998 196.9296,-54.2753"/>
<polygon fill="#191970" stroke="#191970" points="171.5569,-47.5275 161.1959,-49.7406 170.6756,-54.4718 171.5569,-47.5275"/>
</g>
<!-- Node6 -->
<g id="node6" class="node">
<title>Node6</title>
<g id="a_node6"><a xlink:href="classneon_1_1MicromechanicalElastomer.html#a5d64ede8aea366d6703995615b17c2e2" target="_top" xlink:title="neon::MicromechanicalElastomer\l::update_segments">
<polygon fill="#ffffff" stroke="#000000" points="197,-.5 197,-30.5 358,-30.5 358,-.5 197,-.5"/>
<text text-anchor="start" x="205" y="-18.5" font-family="Helvetica,sans-Serif" font-size="10.00" fill="#000000">neon::MicromechanicalElastomer</text>
<text text-anchor="middle" x="277.5" y="-7.5" font-family="Helvetica,sans-Serif" font-size="10.00" fill="#000000">::update_segments</text>
</a>
</g>
</g>
<!-- Node1&#45;&gt;Node6 -->
<g id="edge5" class="edge">
<title>Node1&#45;&gt;Node6</title>
<path fill="none" stroke="#191970" d="M171.2155,-28.4484C179.7951,-27.4031 188.454,-26.3482 196.9296,-25.3157"/>
<polygon fill="#191970" stroke="#191970" points="170.6992,-24.9853 161.1959,-29.669 171.5458,-31.9339 170.6992,-24.9853"/>
</g>
<!-- Node3 -->
<g id="node3" class="node">
<title>Node3</title>
<g id="a_node3"><a xlink:href="classneon_1_1AffineMicrosphere.html#a34503c57cf229f92d58365d45d8a39dc" target="_top" xlink:title="neon::AffineMicrosphere\l::compute_kirchhoff_stress">
<polygon fill="#ffffff" stroke="#000000" points="407,-49.5 407,-79.5 542,-79.5 542,-49.5 407,-49.5"/>
<text text-anchor="start" x="415" y="-67.5" font-family="Helvetica,sans-Serif" font-size="10.00" fill="#000000">neon::AffineMicrosphere</text>
<text text-anchor="middle" x="474.5" y="-56.5" font-family="Helvetica,sans-Serif" font-size="10.00" fill="#000000">::compute_kirchhoff_stress</text>
</a>
</g>
</g>
<!-- Node2&#45;&gt;Node3 -->
<g id="edge2" class="edge">
<title>Node2&#45;&gt;Node3</title>
<path fill="none" stroke="#191970" d="M368.4877,-64.5C381.3882,-64.5 394.4616,-64.5 406.8158,-64.5"/>
<polygon fill="#191970" stroke="#191970" points="368.1959,-61.0001 358.1959,-64.5 368.1958,-68.0001 368.1959,-61.0001"/>
</g>
<!-- Node4 -->
<g id="node4" class="node">
<title>Node4</title>
<g id="a_node4"><a xlink:href="classneon_1_1AffineMicrosphere.html#ae6fbab77ef4d201ef8aa019235aac269" target="_top" xlink:title="neon::AffineMicrosphere\l::update_internal_variables">
<polygon fill="#ffffff" stroke="#000000" points="591,-98.5 591,-128.5 724,-128.5 724,-98.5 591,-98.5"/>
<text text-anchor="start" x="599" y="-116.5" font-family="Helvetica,sans-Serif" font-size="10.00" fill="#000000">neon::AffineMicrosphere</text>
<text text-anchor="middle" x="657.5" y="-105.5" font-family="Helvetica,sans-Serif" font-size="10.00" fill="#000000">::update_internal_variables</text>
</a>
</g>
</g>
<!-- Node3&#45;&gt;Node4 -->
<g id="edge3" class="edge">
<title>Node3&#45;&gt;Node4</title>
<path fill="none" stroke="#191970" d="M540.7851,-82.2485C560.6187,-87.5591 582.1667,-93.3288 601.287,-98.4484"/>
<polygon fill="#191970" stroke="#191970" points="541.4643,-78.8071 530.8993,-79.6014 539.6537,-85.5689 541.4643,-78.8071"/>
</g>
<!-- Node5 -->
<g id="node5" class="node">
<title>Node5</title>
<g id="a_node5"><a xlink:href="classneon_1_1AffineMicrosphere.html#a2aa9098fb29ba340ff3dd5cfc00ed46f" target="_top" xlink:title="neon::AffineMicrosphere\l::intrinsic_material">
<polygon fill="#ffffff" stroke="#000000" points="596.5,-49.5 596.5,-79.5 718.5,-79.5 718.5,-49.5 596.5,-49.5"/>
<text text-anchor="start" x="604.5" y="-67.5" font-family="Helvetica,sans-Serif" font-size="10.00" fill="#000000">neon::AffineMicrosphere</text>
<text text-anchor="middle" x="657.5" y="-56.5" font-family="Helvetica,sans-Serif" font-size="10.00" fill="#000000">::intrinsic_material</text>
</a>
</g>
</g>
<!-- Node3&#45;&gt;Node5 -->
<g id="edge4" class="edge">
<title>Node3&#45;&gt;Node5</title>
<path fill="none" stroke="#191970" d="M552.204,-64.5C566.9061,-64.5 582.0945,-64.5 596.2038,-64.5"/>
<polygon fill="#191970" stroke="#191970" points="552.1225,-61.0001 542.1225,-64.5 552.1225,-68.0001 552.1225,-61.0001"/>
</g>
<!-- Node7 -->
<g id="node7" class="node">
<title>Node7</title>
<g id="a_node7"><a xlink:href="classneon_1_1MicromechanicalElastomer.html#a3138575e4b350966d59e246dce2a9e4c" target="_top" xlink:title="neon::MicromechanicalElastomer\l::number_of_initial_segments">
<polygon fill="#ffffff" stroke="#000000" points="394,-.5 394,-30.5 555,-30.5 555,-.5 394,-.5"/>
<text text-anchor="start" x="402" y="-18.5" font-family="Helvetica,sans-Serif" font-size="10.00" fill="#000000">neon::MicromechanicalElastomer</text>
<text text-anchor="middle" x="474.5" y="-7.5" font-family="Helvetica,sans-Serif" font-size="10.00" fill="#000000">::number_of_initial_segments</text>
</a>
</g>
</g>
<!-- Node6&#45;&gt;Node7 -->
<g id="edge6" class="edge">
<title>Node6&#45;&gt;Node7</title>
<path fill="none" stroke="#191970" d="M368.2155,-15.5C376.7951,-15.5 385.454,-15.5 393.9296,-15.5"/>
<polygon fill="#191970" stroke="#191970" points="368.1959,-12.0001 358.1959,-15.5 368.1958,-19.0001 368.1959,-12.0001"/>
</g>
<!-- Node8 -->
<g id="node8" class="node">
<title>Node8</title>
<g id="a_node8"><a xlink:href="classneon_1_1AffineMicrosphere.html#a14e7d2369484591162bbfcf9a8cd284a" target="_top" xlink:title="neon::AffineMicrosphere\l::AffineMicrosphere">
<polygon fill="#ffffff" stroke="#000000" points="596.5,-.5 596.5,-30.5 718.5,-30.5 718.5,-.5 596.5,-.5"/>
<text text-anchor="start" x="604.5" y="-18.5" font-family="Helvetica,sans-Serif" font-size="10.00" fill="#000000">neon::AffineMicrosphere</text>
<text text-anchor="middle" x="657.5" y="-7.5" font-family="Helvetica,sans-Serif" font-size="10.00" fill="#000000">::AffineMicrosphere</text>
</a>
</g>
</g>
<!-- Node7&#45;&gt;Node8 -->
<g id="edge7" class="edge">
<title>Node7&#45;&gt;Node8</title>
<path fill="none" stroke="#191970" d="M565.1769,-15.5C575.7814,-15.5 586.4006,-15.5 596.4648,-15.5"/>
<polygon fill="#191970" stroke="#191970" points="565.0328,-12.0001 555.0328,-15.5 565.0327,-19.0001 565.0328,-12.0001"/>
</g>
</g>
</svg>
