<?xml version="1.0" encoding="UTF-8" standalone="no"?>
<!DOCTYPE svg PUBLIC "-//W3C//DTD SVG 1.1//EN"
 "http://www.w3.org/Graphics/SVG/1.1/DTD/svg11.dtd">
<!-- Generated by graphviz version 2.40.1 (20161225.0304)
 -->
<!-- Title: neon::solid::femStaticMatrix::assemble_stiffness Pages: 1 -->
<!--zoomable 503 -->
<svg id="main" version="1.1" xmlns="http://www.w3.org/2000/svg" xmlns:xlink="http://www.w3.org/1999/xlink" xml:space="preserve" onload="init(evt)">
<style type="text/css"><![CDATA[
.edge:hover path { stroke: red; }
.edge:hover polygon { stroke: red; fill: red; }
]]></style>
<script type="text/javascript"><![CDATA[
var edges = document.getElementsByTagName('g');
if (edges && edges.length) {
  for (var i=0;i<edges.length;i++) {
    if (edges[i].id.substr(0,4)=='edge') {
      edges[i].setAttribute('class','edge');
    }
  }
}
]]></script>
        <defs>
                <circle id="rim" cx="0" cy="0" r="7"/>
                <circle id="rim2" cx="0" cy="0" r="3.5"/>
                <g id="zoomPlus">
                        <use xlink:href="#rim" fill="#404040">
                                <set attributeName="fill" to="#808080" begin="zoomplus.mouseover" end="zoomplus.mouseout"/>
                        </use>
                        <path d="M-4,0h8M0,-4v8" fill="none" stroke="white" stroke-width="1.5" pointer-events="none"/>
                </g>
                <g id="zoomMin">
                        <use xlink:href="#rim" fill="#404040">
                                <set attributeName="fill" to="#808080" begin="zoomminus.mouseover" end="zoomminus.mouseout"/>
                        </use>
                        <path d="M-4,0h8" fill="none" stroke="white" stroke-width="1.5" pointer-events="none"/>
                </g>
                <g id="dirArrow">
                        <path fill="none" stroke="white" stroke-width="1.5" d="M0,-3.0v7 M-2.5,-0.5L0,-3.0L2.5,-0.5"/>
                </g>
               <g id="resetDef">
                       <use xlink:href="#rim2" fill="#404040">
                               <set attributeName="fill" to="#808080" begin="reset.mouseover" end="reset.mouseout"/>
                       </use>
               </g>
        </defs>

<script type="text/javascript">
var viewWidth = 876;
var viewHeight = 503;
var sectionId = 'dynsection-4';
</script>
<script xlink:href="svgpan.js"/>
<svg id="graph" class="graph">
<g id="viewport">
<title>neon::solid::femStaticMatrix::assemble_stiffness</title>
<polygon fill="#ffffff" stroke="transparent" points="-4,4 -4,-499 872,-499 872,4 -4,4"/>
<!-- Node20 -->
<g id="node1" class="node">
<title>Node20</title>
<polygon fill="#bfbfbf" stroke="#000000" points="0,-358.5 0,-388.5 139,-388.5 139,-358.5 0,-358.5"/>
<text text-anchor="start" x="8" y="-376.5" font-family="Helvetica,sans-Serif" font-size="10.00" fill="#000000">neon::solid::femStaticMatrix</text>
<text text-anchor="middle" x="69.5" y="-365.5" font-family="Helvetica,sans-Serif" font-size="10.00" fill="#000000">::assemble_stiffness</text>
</g>
<!-- Node21 -->
<g id="node2" class="node">
<title>Node21</title>
<g id="a_node2"><a xlink:href="classneon_1_1solid_1_1femStaticMatrix.html#a1b4ec4af5d4aa93d28a374c0f4f7e5d3" target="_top" xlink:title="neon::solid::femStaticMatrix\l::compute_sparsity_pattern">
<polygon fill="#ffffff" stroke="#000000" points="175,-358.5 175,-388.5 314,-388.5 314,-358.5 175,-358.5"/>
<text text-anchor="start" x="183" y="-376.5" font-family="Helvetica,sans-Serif" font-size="10.00" fill="#000000">neon::solid::femStaticMatrix</text>
<text text-anchor="middle" x="244.5" y="-365.5" font-family="Helvetica,sans-Serif" font-size="10.00" fill="#000000">::compute_sparsity_pattern</text>
</a>
</g>
</g>
<!-- Node20&#45;&gt;Node21 -->
<g id="edge1" class="edge">
<title>Node20&#45;&gt;Node21</title>
<path fill="none" stroke="#191970" d="M139.1675,-373.5C147.5024,-373.5 156.0628,-373.5 164.5285,-373.5"/>
<polygon fill="#191970" stroke="#191970" points="164.7864,-377.0001 174.7863,-373.5 164.7863,-370.0001 164.7864,-377.0001"/>
</g>
<!-- Node22 -->
<g id="node3" class="node">
<title>Node22</title>
<g id="a_node3"><a xlink:href="classneon_1_1solid_1_1femMesh.html#acb70b613e02175d0676d0a77046a079a" target="_top" xlink:title="neon::solid::femMesh\l::meshes">
<polygon fill="#ffffff" stroke="#000000" points="375.5,-464.5 375.5,-494.5 485.5,-494.5 485.5,-464.5 375.5,-464.5"/>
<text text-anchor="start" x="383.5" y="-482.5" font-family="Helvetica,sans-Serif" font-size="10.00" fill="#000000">neon::solid::femMesh</text>
<text text-anchor="middle" x="430.5" y="-471.5" font-family="Helvetica,sans-Serif" font-size="10.00" fill="#000000">::meshes</text>
</a>
</g>
</g>
<!-- Node20&#45;&gt;Node22 -->
<g id="edge21" class="edge">
<title>Node20&#45;&gt;Node22</title>
<path fill="none" stroke="#191970" d="M120.8391,-388.5746C186.3329,-407.8055 299.4699,-441.0258 369.3522,-461.5452"/>
<polygon fill="#191970" stroke="#191970" points="368.757,-465.0182 379.338,-464.4774 370.7291,-458.3017 368.757,-465.0182"/>
</g>
<!-- Node21&#45;&gt;Node22 -->
<g id="edge2" class="edge">
<title>Node21&#45;&gt;Node22</title>
<path fill="none" stroke="#191970" d="M262.1938,-388.5301C282.3991,-405.1327 316.9459,-431.8481 350,-449.5 357.647,-453.5837 365.9715,-457.3596 374.2715,-460.7569"/>
<polygon fill="#191970" stroke="#191970" points="373.0077,-464.0208 383.5947,-464.4279 375.5723,-457.5075 373.0077,-464.0208"/>
</g>
<!-- Node23 -->
<g id="node4" class="node">
<title>Node23</title>
<g id="a_node4"><a xlink:href="classneon_1_1AdaptiveLoadStep.html#a0787efff1178880877eccf47c1db2fbf" target="_top" xlink:title="neon::AdaptiveLoadStep\l::is_fully_applied">
<polygon fill="#ffffff" stroke="#000000" points="369,-338.5 369,-368.5 492,-368.5 492,-338.5 369,-338.5"/>
<text text-anchor="start" x="377" y="-356.5" font-family="Helvetica,sans-Serif" font-size="10.00" fill="#000000">neon::AdaptiveLoadStep</text>
<text text-anchor="middle" x="430.5" y="-345.5" font-family="Helvetica,sans-Serif" font-size="10.00" fill="#000000">::is_fully_applied</text>
</a>
</g>
</g>
<!-- Node21&#45;&gt;Node23 -->
<g id="edge3" class="edge">
<title>Node21&#45;&gt;Node23</title>
<path fill="none" stroke="#191970" d="M314.024,-366.0243C328.6118,-364.4557 344.0241,-362.7985 358.6934,-361.2211"/>
<polygon fill="#191970" stroke="#191970" points="359.1426,-364.6931 368.7111,-360.144 358.3942,-357.7332 359.1426,-364.6931"/>
</g>
<!-- Node24 -->
<g id="node5" class="node">
<title>Node24</title>
<g id="a_node5"><a xlink:href="classneon_1_1AdaptiveLoadStep.html#a2a366b816adaf44b33d2fc69eea50921" target="_top" xlink:title="neon::AdaptiveLoadStep\l::step_time">
<polygon fill="#ffffff" stroke="#000000" points="369,-289.5 369,-319.5 492,-319.5 492,-289.5 369,-289.5"/>
<text text-anchor="start" x="377" y="-307.5" font-family="Helvetica,sans-Serif" font-size="10.00" fill="#000000">neon::AdaptiveLoadStep</text>
<text text-anchor="middle" x="430.5" y="-296.5" font-family="Helvetica,sans-Serif" font-size="10.00" fill="#000000">::step_time</text>
</a>
</g>
</g>
<!-- Node21&#45;&gt;Node24 -->
<g id="edge4" class="edge">
<title>Node21&#45;&gt;Node24</title>
<path fill="none" stroke="#191970" d="M277.3768,-358.3366C298.0006,-349.1107 325.2772,-337.4255 350,-328.5 355.5361,-326.5013 361.3275,-324.5364 367.1559,-322.6441"/>
<polygon fill="#191970" stroke="#191970" points="368.4869,-325.8939 376.9614,-319.5352 366.3713,-319.2212 368.4869,-325.8939"/>
</g>
<!-- Node25 -->
<g id="node6" class="node">
<title>Node25</title>
<g id="a_node6"><a xlink:href="classneon_1_1solid_1_1femStaticMatrix.html#a9d09a3000b8ab1f5088e65a991325514" target="_top" xlink:title="neon::solid::femStaticMatrix\l::apply_displacement_boundaries">
<polygon fill="#ffffff" stroke="#000000" points="350,-240.5 350,-270.5 511,-270.5 511,-240.5 350,-240.5"/>
<text text-anchor="start" x="358" y="-258.5" font-family="Helvetica,sans-Serif" font-size="10.00" fill="#000000">neon::solid::femStaticMatrix</text>
<text text-anchor="middle" x="430.5" y="-247.5" font-family="Helvetica,sans-Serif" font-size="10.00" fill="#000000">::apply_displacement_boundaries</text>
</a>
</g>
</g>
<!-- Node21&#45;&gt;Node25 -->
<g id="edge5" class="edge">
<title>Node21&#45;&gt;Node25</title>
<path fill="none" stroke="#191970" d="M264.1645,-358.3382C278.3582,-347.1648 297.796,-331.385 314,-316.5 330.8968,-300.9785 330.3732,-291.3831 350,-279.5 352.8069,-277.8005 355.7423,-276.2144 358.7618,-274.7348"/>
<polygon fill="#191970" stroke="#191970" points="360.3169,-277.8738 368.0287,-270.6089 357.4697,-271.479 360.3169,-277.8738"/>
</g>
<!-- Node28 -->
<g id="node9" class="node">
<title>Node28</title>
<g id="a_node9"><a xlink:href="classneon_1_1solid_1_1femMesh.html#ac97399e3e5c8ef3e610e14624f83178b" target="_top" xlink:title="neon::solid::femMesh\l::update_internal_variables">
<polygon fill="#ffffff" stroke="#000000" points="553,-431.5 553,-461.5 686,-461.5 686,-431.5 553,-431.5"/>
<text text-anchor="start" x="561" y="-449.5" font-family="Helvetica,sans-Serif" font-size="10.00" fill="#000000">neon::solid::femMesh</text>
<text text-anchor="middle" x="619.5" y="-438.5" font-family="Helvetica,sans-Serif" font-size="10.00" fill="#000000">::update_internal_variables</text>
</a>
</g>
</g>
<!-- Node21&#45;&gt;Node28 -->
<g id="edge19" class="edge">
<title>Node21&#45;&gt;Node28</title>
<path fill="none" stroke="#191970" d="M302.3776,-388.5257C317.8037,-392.3215 334.493,-396.241 350,-399.5 414.624,-413.0814 488.548,-425.7742 542.6071,-434.5374"/>
<polygon fill="#191970" stroke="#191970" points="542.3742,-438.045 552.8039,-436.1819 543.4888,-431.1343 542.3742,-438.045"/>
</g>
<!-- Node29 -->
<g id="node10" class="node">
<title>Node29</title>
<g id="a_node10"><a xlink:href="classneon_1_1AdaptiveLoadStep.html#a18f8a4e6d7e7a0b8c2e167377507e8b1" target="_top" xlink:title="neon::AdaptiveLoadStep\l::increment">
<polygon fill="#ffffff" stroke="#000000" points="558,-382.5 558,-412.5 681,-412.5 681,-382.5 558,-382.5"/>
<text text-anchor="start" x="566" y="-400.5" font-family="Helvetica,sans-Serif" font-size="10.00" fill="#000000">neon::AdaptiveLoadStep</text>
<text text-anchor="middle" x="619.5" y="-389.5" font-family="Helvetica,sans-Serif" font-size="10.00" fill="#000000">::increment</text>
</a>
</g>
</g>
<!-- Node21&#45;&gt;Node29 -->
<g id="edge20" class="edge">
<title>Node21&#45;&gt;Node29</title>
<path fill="none" stroke="#191970" d="M314.1558,-377.958C380.7411,-382.2194 480.6705,-388.6149 547.8967,-392.9174"/>
<polygon fill="#191970" stroke="#191970" points="547.7792,-396.4169 557.9824,-393.5629 548.2264,-389.4312 547.7792,-396.4169"/>
</g>
<!-- Node25&#45;&gt;Node20 -->
<g id="edge7" class="edge">
<title>Node25&#45;&gt;Node20</title>
<path fill="none" stroke="#191970" d="M378.8882,-270.6072C369.2689,-273.5023 359.3155,-276.5514 350,-279.5 270.55,-304.6481 179.1295,-335.6799 122.8299,-355.0342"/>
<polygon fill="#191970" stroke="#191970" points="121.3955,-351.8263 113.079,-358.3903 123.6737,-358.4453 121.3955,-351.8263"/>
</g>
<!-- Node26 -->
<g id="node7" class="node">
<title>Node26</title>
<g id="a_node7"><a xlink:href="classneon_1_1AdaptiveLoadStep.html#a1ba6cc17eb26efcfe694f06578c5ba14" target="_top" xlink:title="neon::AdaptiveLoadStep\l::factor">
<polygon fill="#ffffff" stroke="#000000" points="558,-49.5 558,-79.5 681,-79.5 681,-49.5 558,-49.5"/>
<text text-anchor="start" x="566" y="-67.5" font-family="Helvetica,sans-Serif" font-size="10.00" fill="#000000">neon::AdaptiveLoadStep</text>
<text text-anchor="middle" x="619.5" y="-56.5" font-family="Helvetica,sans-Serif" font-size="10.00" fill="#000000">::factor</text>
</a>
</g>
</g>
<!-- Node25&#45;&gt;Node26 -->
<g id="edge6" class="edge">
<title>Node25&#45;&gt;Node26</title>
<path fill="none" stroke="#191970" d="M437.0893,-240.1105C451.8825,-207.3584 490.8861,-130.3386 547,-88.5 548.8568,-87.1156 550.7978,-85.8083 552.8028,-84.5742"/>
<polygon fill="#191970" stroke="#191970" points="554.8192,-87.4623 561.9416,-79.6186 551.4824,-81.3088 554.8192,-87.4623"/>
</g>
<!-- Node27 -->
<g id="node8" class="node">
<title>Node27</title>
<g id="a_node8"><a xlink:href="classneon_1_1solid_1_1femStaticMatrix.html#a7231eee3e12f6ce6290c328bb1f2ef1c" target="_top" xlink:title="neon::solid::femStaticMatrix\l::enforce_dirichlet_conditions">
<polygon fill="#ffffff" stroke="#000000" points="548,-.5 548,-30.5 691,-30.5 691,-.5 548,-.5"/>
<text text-anchor="start" x="556" y="-18.5" font-family="Helvetica,sans-Serif" font-size="10.00" fill="#000000">neon::solid::femStaticMatrix</text>
<text text-anchor="middle" x="619.5" y="-7.5" font-family="Helvetica,sans-Serif" font-size="10.00" fill="#000000">::enforce_dirichlet_conditions</text>
</a>
</g>
</g>
<!-- Node25&#45;&gt;Node27 -->
<g id="edge8" class="edge">
<title>Node25&#45;&gt;Node27</title>
<path fill="none" stroke="#191970" d="M434.4005,-240.4543C445.2952,-201.3973 479.7527,-95.9032 547,-39.5 548.5238,-38.222 550.1179,-37.0113 551.7688,-35.8645"/>
<polygon fill="#191970" stroke="#191970" points="553.6736,-38.8031 560.4352,-30.6464 550.0629,-32.8062 553.6736,-38.8031"/>
</g>
<!-- Node25&#45;&gt;Node28 -->
<g id="edge9" class="edge">
<title>Node25&#45;&gt;Node28</title>
<path fill="none" stroke="#191970" d="M500.1268,-270.7277C504.0932,-273.227 507.772,-276.1297 511,-279.5 556.3329,-326.8312 502.3806,-374.4957 547,-422.5 547.8886,-423.456 548.816,-424.3739 549.7779,-425.2553"/>
<polygon fill="#191970" stroke="#191970" points="547.6795,-428.0565 557.7584,-431.3224 551.916,-422.4841 547.6795,-428.0565"/>
</g>
<!-- Node25&#45;&gt;Node29 -->
<g id="edge10" class="edge">
<title>Node25&#45;&gt;Node29</title>
<path fill="none" stroke="#191970" d="M498.5132,-270.5348C503.0207,-273.0726 507.25,-276.0372 511,-279.5 543.5624,-309.5688 515.081,-341.7491 547,-372.5 548.636,-374.0761 550.376,-375.5532 552.1988,-376.9375"/>
<polygon fill="#191970" stroke="#191970" points="550.3636,-379.9189 560.6563,-382.4313 554.1769,-374.0487 550.3636,-379.9189"/>
</g>
<!-- Node30 -->
<g id="node11" class="node">
<title>Node30</title>
<g id="a_node11"><a xlink:href="classneon_1_1solid_1_1femStaticMatrix.html#a69e60955282781d6ca2b73087677412a" target="_top" xlink:title="neon::solid::femStaticMatrix\l::print_convergence_progress">
<polygon fill="#ffffff" stroke="#000000" points="547,-333.5 547,-363.5 692,-363.5 692,-333.5 547,-333.5"/>
<text text-anchor="start" x="555" y="-351.5" font-family="Helvetica,sans-Serif" font-size="10.00" fill="#000000">neon::solid::femStaticMatrix</text>
<text text-anchor="middle" x="619.5" y="-340.5" font-family="Helvetica,sans-Serif" font-size="10.00" fill="#000000">::print_convergence_progress</text>
</a>
</g>
</g>
<!-- Node25&#45;&gt;Node30 -->
<g id="edge11" class="edge">
<title>Node25&#45;&gt;Node30</title>
<path fill="none" stroke="#191970" d="M494.5224,-270.6577C500.3093,-273.1787 505.9016,-276.1054 511,-279.5 532.0317,-293.5031 526.2692,-309.0551 547,-323.5 549.731,-325.4029 552.6199,-327.1725 555.61,-328.8168"/>
<polygon fill="#191970" stroke="#191970" points="554.3122,-332.0797 564.8268,-333.3814 557.4189,-325.8069 554.3122,-332.0797"/>
</g>
<!-- Node31 -->
<g id="node12" class="node">
<title>Node31</title>
<g id="a_node12"><a xlink:href="classneon_1_1solid_1_1femStaticMatrix.html#af8bb14009b18e37b3029b865d1b3c18a" target="_top" xlink:title="neon::solid::femStaticMatrix\l::is_converged">
<polygon fill="#ffffff" stroke="#000000" points="550,-284.5 550,-314.5 689,-314.5 689,-284.5 550,-284.5"/>
<text text-anchor="start" x="558" y="-302.5" font-family="Helvetica,sans-Serif" font-size="10.00" fill="#000000">neon::solid::femStaticMatrix</text>
<text text-anchor="middle" x="619.5" y="-291.5" font-family="Helvetica,sans-Serif" font-size="10.00" fill="#000000">::is_converged</text>
</a>
</g>
</g>
<!-- Node25&#45;&gt;Node31 -->
<g id="edge12" class="edge">
<title>Node25&#45;&gt;Node31</title>
<path fill="none" stroke="#191970" d="M495.0145,-270.5192C511.0433,-274.2508 528.3563,-278.2814 544.8276,-282.116"/>
<polygon fill="#191970" stroke="#191970" points="544.4224,-285.6152 554.9556,-284.4738 546.0097,-278.7975 544.4224,-285.6152"/>
</g>
<!-- Node32 -->
<g id="node13" class="node">
<title>Node32</title>
<g id="a_node13"><a xlink:href="classneon_1_1AdaptiveLoadStep.html#a975b2ea0339a250a6c37f871b8609ea1" target="_top" xlink:title="neon::AdaptiveLoadStep\l::update_convergence_state">
<polygon fill="#ffffff" stroke="#000000" points="728,-218.5 728,-248.5 868,-248.5 868,-218.5 728,-218.5"/>
<text text-anchor="start" x="736" y="-236.5" font-family="Helvetica,sans-Serif" font-size="10.00" fill="#000000">neon::AdaptiveLoadStep</text>
<text text-anchor="middle" x="798" y="-225.5" font-family="Helvetica,sans-Serif" font-size="10.00" fill="#000000">::update_convergence_state</text>
</a>
</g>
</g>
<!-- Node25&#45;&gt;Node32 -->
<g id="edge13" class="edge">
<title>Node25&#45;&gt;Node32</title>
<path fill="none" stroke="#191970" d="M511.1494,-250.672C572.4943,-246.9997 656.5064,-241.9704 717.752,-238.304"/>
<polygon fill="#191970" stroke="#191970" points="717.9882,-241.7962 727.7611,-237.7048 717.5698,-234.8087 717.9882,-241.7962"/>
</g>
<!-- Node33 -->
<g id="node14" class="node">
<title>Node33</title>
<g id="a_node14"><a xlink:href="classneon_1_1solid_1_1femMesh.html#aed7f6ae168a234d05e018cd69066cf6c" target="_top" xlink:title="neon::solid::femMesh\l::save_internal_variables">
<polygon fill="#ffffff" stroke="#000000" points="557,-147.5 557,-177.5 682,-177.5 682,-147.5 557,-147.5"/>
<text text-anchor="start" x="565" y="-165.5" font-family="Helvetica,sans-Serif" font-size="10.00" fill="#000000">neon::solid::femMesh</text>
<text text-anchor="middle" x="619.5" y="-154.5" font-family="Helvetica,sans-Serif" font-size="10.00" fill="#000000">::save_internal_variables</text>
</a>
</g>
</g>
<!-- Node25&#45;&gt;Node33 -->
<g id="edge14" class="edge">
<title>Node25&#45;&gt;Node33</title>
<path fill="none" stroke="#191970" d="M452.9201,-240.2421C475.8189,-225.1405 512.7689,-202.0832 547,-186.5 551.116,-184.6263 555.4222,-182.8258 559.7949,-181.1123"/>
<polygon fill="#191970" stroke="#191970" points="561.2885,-184.2904 569.4258,-177.5054 558.8334,-177.735 561.2885,-184.2904"/>
</g>
<!-- Node35 -->
<g id="node16" class="node">
<title>Node35</title>
<g id="a_node16"><a xlink:href="classneon_1_1AdaptiveLoadStep.html#a1ccc0de1f228c0b0a495ac5e6a1419d4" target="_top" xlink:title="neon::AdaptiveLoadStep\l::step">
<polygon fill="#ffffff" stroke="#000000" points="558,-196.5 558,-226.5 681,-226.5 681,-196.5 558,-196.5"/>
<text text-anchor="start" x="566" y="-214.5" font-family="Helvetica,sans-Serif" font-size="10.00" fill="#000000">neon::AdaptiveLoadStep</text>
<text text-anchor="middle" x="619.5" y="-203.5" font-family="Helvetica,sans-Serif" font-size="10.00" fill="#000000">::step</text>
</a>
</g>
</g>
<!-- Node25&#45;&gt;Node35 -->
<g id="edge16" class="edge">
<title>Node25&#45;&gt;Node35</title>
<path fill="none" stroke="#191970" d="M495.0145,-240.4808C511.9991,-236.5267 530.4255,-232.2369 547.7646,-228.2003"/>
<polygon fill="#191970" stroke="#191970" points="548.8829,-231.5336 557.8289,-225.8573 547.2957,-224.7159 548.8829,-231.5336"/>
</g>
<!-- Node36 -->
<g id="node17" class="node">
<title>Node36</title>
<g id="a_node17"><a xlink:href="classneon_1_1AdaptiveLoadStep.html#aa115e1c638d4c8b66e2201b4f6bed58d" target="_top" xlink:title="neon::AdaptiveLoadStep\l::time">
<polygon fill="#ffffff" stroke="#000000" points="558,-98.5 558,-128.5 681,-128.5 681,-98.5 558,-98.5"/>
<text text-anchor="start" x="566" y="-116.5" font-family="Helvetica,sans-Serif" font-size="10.00" fill="#000000">neon::AdaptiveLoadStep</text>
<text text-anchor="middle" x="619.5" y="-105.5" font-family="Helvetica,sans-Serif" font-size="10.00" fill="#000000">::time</text>
</a>
</g>
</g>
<!-- Node25&#45;&gt;Node36 -->
<g id="edge18" class="edge">
<title>Node25&#45;&gt;Node36</title>
<path fill="none" stroke="#191970" d="M441.6648,-240.1934C460.6242,-215.2402 501.512,-165.7493 547,-137.5 549.6187,-135.8737 552.3598,-134.3449 555.1793,-132.9092"/>
<polygon fill="#191970" stroke="#191970" points="556.7973,-136.017 564.3978,-128.6357 553.8532,-129.6662 556.7973,-136.017"/>
</g>
<!-- Node34 -->
<g id="node15" class="node">
<title>Node34</title>
<g id="a_node15"><a xlink:href="classneon_1_1BasicMesh.html#ac74b60b73623ef5178fa2dd6dbfa4d79" target="_top" xlink:title="neon::BasicMesh::meshes">
<polygon fill="#ffffff" stroke="#000000" points="731.5,-153 731.5,-172 864.5,-172 864.5,-153 731.5,-153"/>
<text text-anchor="middle" x="798" y="-160" font-family="Helvetica,sans-Serif" font-size="10.00" fill="#000000">neon::BasicMesh::meshes</text>
</a>
</g>
</g>
<!-- Node33&#45;&gt;Node34 -->
<g id="edge15" class="edge">
<title>Node33&#45;&gt;Node34</title>
<path fill="none" stroke="#191970" d="M682.1814,-162.5C694.7054,-162.5 707.9973,-162.5 720.9406,-162.5"/>
<polygon fill="#191970" stroke="#191970" points="721.2248,-166.0001 731.2248,-162.5 721.2248,-159.0001 721.2248,-166.0001"/>
</g>
<!-- Node35&#45;&gt;Node32 -->
<g id="edge17" class="edge">
<title>Node35&#45;&gt;Node32</title>
<path fill="none" stroke="#191970" d="M681.1795,-219.102C692.9099,-220.5477 705.3448,-222.0803 717.5576,-223.5855"/>
<polygon fill="#191970" stroke="#191970" points="717.3908,-227.0914 727.7438,-224.841 718.2471,-220.1439 717.3908,-227.0914"/>
</g>
</g>
</svg>
        <g id="navigator" transform="translate(0 0)" fill="#404254">
                <rect fill="#f2f5e9" fill-opacity="0.5" stroke="#606060" stroke-width=".5" x="0" y="0" width="60" height="60"/>
                <use id="zoomplus" xlink:href="#zoomPlus" x="17" y="9" onmousedown="handleZoom(evt,'in')"/>
                <use id="zoomminus" xlink:href="#zoomMin" x="42" y="9" onmousedown="handleZoom(evt,'out')"/>
                <use id="reset" xlink:href="#resetDef" x="30" y="36" onmousedown="handleReset()"/>
                <g id="arrowUp" xlink:href="#dirArrow" transform="translate(30 24)" onmousedown="handlePan(0,-1)">
                  <use xlink:href="#rim" fill="#404040">
                        <set attributeName="fill" to="#808080" begin="arrowUp.mouseover" end="arrowUp.mouseout"/>
                  </use>
                  <path fill="none" stroke="white" stroke-width="1.5" d="M0,-3.0v7 M-2.5,-0.5L0,-3.0L2.5,-0.5"/>
                </g>
                <g id="arrowRight" xlink:href="#dirArrow" transform="rotate(90) translate(36 -43)" onmousedown="handlePan(1,0)">
                  <use xlink:href="#rim" fill="#404040">
                        <set attributeName="fill" to="#808080" begin="arrowRight.mouseover" end="arrowRight.mouseout"/>
                  </use>
                  <path fill="none" stroke="white" stroke-width="1.5" d="M0,-3.0v7 M-2.5,-0.5L0,-3.0L2.5,-0.5"/>
                </g>
                <g id="arrowDown" xlink:href="#dirArrow" transform="rotate(180) translate(-30 -48)" onmousedown="handlePan(0,1)">
                  <use xlink:href="#rim" fill="#404040">
                        <set attributeName="fill" to="#808080" begin="arrowDown.mouseover" end="arrowDown.mouseout"/>
                  </use>
                  <path fill="none" stroke="white" stroke-width="1.5" d="M0,-3.0v7 M-2.5,-0.5L0,-3.0L2.5,-0.5"/>
                </g>
                <g id="arrowLeft" xlink:href="#dirArrow" transform="rotate(270) translate(-36 17)" onmousedown="handlePan(-1,0)">
                  <use xlink:href="#rim" fill="#404040">
                        <set attributeName="fill" to="#808080" begin="arrowLeft.mouseover" end="arrowLeft.mouseout"/>
                  </use>
                  <path fill="none" stroke="white" stroke-width="1.5" d="M0,-3.0v7 M-2.5,-0.5L0,-3.0L2.5,-0.5"/>
                </g>
        </g>
        <svg viewBox="0 0 15 15" width="100%" height="30px" preserveAspectRatio="xMaxYMin meet">
         <g id="arrow_out" transform="scale(0.3 0.3)">
          <a xlink:href="classneon_1_1solid_1_1femStaticMatrix_a38f9c7ef5b0a03920dd67cc054a83042_cgraph_org.svg" target="_base">
           <rect id="button" ry="5" rx="5" y="6" x="6" height="38" width="38"
                fill="#f2f5e9" fill-opacity="0.5" stroke="#606060" stroke-width="1.0"/>
           <path id="arrow"
             d="M 11.500037,31.436501 C 11.940474,20.09759 22.043105,11.32322 32.158766,21.979434 L 37.068811,17.246167 C 37.068811,17.246167 37.088388,32 37.088388,32 L 22.160133,31.978069 C 22.160133,31.978069 26.997745,27.140456 26.997745,27.140456 C 18.528582,18.264221 13.291696,25.230495 11.500037,31.436501 z"
             style="fill:#404040;"/>
          </a>
         </g>
        </svg>
</svg>
