<?xml version="1.0" encoding="UTF-8" standalone="no"?>
<!DOCTYPE svg PUBLIC "-//W3C//DTD SVG 1.1//EN"
 "http://www.w3.org/Graphics/SVG/1.1/DTD/svg11.dtd">
<!-- Generated by graphviz version 2.40.1 (20161225.0304)
 -->
<!-- Title: neon::solid::femSubmesh::geometric_tangent_stiffness Pages: 1 -->
<svg width="496pt" height="159pt"
 viewBox="0.00 0.00 496.00 159.00" xmlns="http://www.w3.org/2000/svg" xmlns:xlink="http://www.w3.org/1999/xlink">
<g id="graph0" class="graph" transform="scale(1 1) rotate(0) translate(4 155)">
<title>neon::solid::femSubmesh::geometric_tangent_stiffness</title>
<polygon fill="#ffffff" stroke="transparent" points="-4,4 -4,-155 492,-155 492,4 -4,4"/>
<!-- Node42 -->
<g id="node1" class="node">
<title>Node42</title>
<polygon fill="#bfbfbf" stroke="#000000" points="0,-71.5 0,-101.5 146,-101.5 146,-71.5 0,-71.5"/>
<text text-anchor="start" x="8" y="-89.5" font-family="Helvetica,sans-Serif" font-size="10.00" fill="#000000">neon::solid::femSubmesh</text>
<text text-anchor="middle" x="73" y="-78.5" font-family="Helvetica,sans-Serif" font-size="10.00" fill="#000000">::geometric_tangent_stiffness</text>
</g>
<!-- Node43 -->
<g id="node2" class="node">
<title>Node43</title>
<g id="a_node2"><a xlink:href="classneon_1_1SubMesh.html#a95a1ae84508d0006244c248aa50c76b3" target="_top" xlink:title="neon::SubMesh::nodes\l_per_element">
<polygon fill="#ffffff" stroke="#000000" points="193,-120.5 193,-150.5 310,-150.5 310,-120.5 193,-120.5"/>
<text text-anchor="start" x="201" y="-138.5" font-family="Helvetica,sans-Serif" font-size="10.00" fill="#000000">neon::SubMesh::nodes</text>
<text text-anchor="middle" x="251.5" y="-127.5" font-family="Helvetica,sans-Serif" font-size="10.00" fill="#000000">_per_element</text>
</a>
</g>
</g>
<!-- Node42&#45;&gt;Node43 -->
<g id="edge1" class="edge">
<title>Node42&#45;&gt;Node43</title>
<path fill="none" stroke="#191970" d="M128.0124,-101.6014C146.5926,-106.7019 167.5063,-112.4429 186.7682,-117.7305"/>
<polygon fill="#191970" stroke="#191970" points="186.0995,-121.1763 196.6693,-120.4484 187.9525,-114.426 186.0995,-121.1763"/>
</g>
<!-- Node45 -->
<g id="node4" class="node">
<title>Node45</title>
<g id="a_node4"><a xlink:href="classneon_1_1solid_1_1femSubmesh.html#afa388c49be3b7e286237b363bb30551d" target="_top" xlink:title="neon::solid::femSubmesh\l::local_deformation_gradient">
<polygon fill="#ffffff" stroke="#000000" points="182,-71.5 182,-101.5 321,-101.5 321,-71.5 182,-71.5"/>
<text text-anchor="start" x="190" y="-89.5" font-family="Helvetica,sans-Serif" font-size="10.00" fill="#000000">neon::solid::femSubmesh</text>
<text text-anchor="middle" x="251.5" y="-78.5" font-family="Helvetica,sans-Serif" font-size="10.00" fill="#000000">::local_deformation_gradient</text>
</a>
</g>
</g>
<!-- Node42&#45;&gt;Node45 -->
<g id="edge3" class="edge">
<title>Node42&#45;&gt;Node45</title>
<path fill="none" stroke="#191970" d="M146.1178,-86.5C154.6295,-86.5 163.3438,-86.5 171.9368,-86.5"/>
<polygon fill="#191970" stroke="#191970" points="171.9492,-90.0001 181.9491,-86.5 171.9491,-83.0001 171.9492,-90.0001"/>
</g>
<!-- Node46 -->
<g id="node5" class="node">
<title>Node46</title>
<g id="a_node5"><a xlink:href="classneon_1_1solid_1_1femSubmesh.html#abfcb47594fe901d00dc48b6550fe124b" target="_top" xlink:title="neon::solid::femSubmesh\l::offset">
<polygon fill="#ffffff" stroke="#000000" points="187.5,-22.5 187.5,-52.5 315.5,-52.5 315.5,-22.5 187.5,-22.5"/>
<text text-anchor="start" x="195.5" y="-40.5" font-family="Helvetica,sans-Serif" font-size="10.00" fill="#000000">neon::solid::femSubmesh</text>
<text text-anchor="middle" x="251.5" y="-29.5" font-family="Helvetica,sans-Serif" font-size="10.00" fill="#000000">::offset</text>
</a>
</g>
</g>
<!-- Node42&#45;&gt;Node46 -->
<g id="edge4" class="edge">
<title>Node42&#45;&gt;Node46</title>
<path fill="none" stroke="#191970" d="M128.0124,-71.3986C146.5926,-66.2981 167.5063,-60.5571 186.7682,-55.2695"/>
<polygon fill="#191970" stroke="#191970" points="187.9525,-58.574 196.6693,-52.5516 186.0995,-51.8237 187.9525,-58.574"/>
</g>
<!-- Node44 -->
<g id="node3" class="node">
<title>Node44</title>
<g id="a_node3"><a xlink:href="classneon_1_1SubMesh.html#a2047359fe78bed483cc5462a9c0e7b42" target="_top" xlink:title="neon::SubMesh::unique\l_connectivities">
<polygon fill="#ffffff" stroke="#000000" points="363,-120.5 363,-150.5 482,-150.5 482,-120.5 363,-120.5"/>
<text text-anchor="start" x="371" y="-138.5" font-family="Helvetica,sans-Serif" font-size="10.00" fill="#000000">neon::SubMesh::unique</text>
<text text-anchor="middle" x="422.5" y="-127.5" font-family="Helvetica,sans-Serif" font-size="10.00" fill="#000000">_connectivities</text>
</a>
</g>
</g>
<!-- Node43&#45;&gt;Node44 -->
<g id="edge2" class="edge">
<title>Node43&#45;&gt;Node44</title>
<path fill="none" stroke="#191970" d="M310.3485,-135.5C324.0309,-135.5 338.725,-135.5 352.8242,-135.5"/>
<polygon fill="#191970" stroke="#191970" points="352.9626,-139.0001 362.9625,-135.5 352.9625,-132.0001 352.9626,-139.0001"/>
</g>
<!-- Node47 -->
<g id="node6" class="node">
<title>Node47</title>
<g id="a_node6"><a xlink:href="classneon_1_1SubMesh.html#af487d15a392b158f57d0de57e761f6d1" target="_top" xlink:title="neon::SubMesh::elements">
<polygon fill="#ffffff" stroke="#000000" points="357,-50 357,-69 488,-69 488,-50 357,-50"/>
<text text-anchor="middle" x="422.5" y="-57" font-family="Helvetica,sans-Serif" font-size="10.00" fill="#000000">neon::SubMesh::elements</text>
</a>
</g>
</g>
<!-- Node46&#45;&gt;Node47 -->
<g id="edge5" class="edge">
<title>Node46&#45;&gt;Node47</title>
<path fill="none" stroke="#191970" d="M315.6606,-45.7546C325.8587,-47.0666 336.4895,-48.4343 346.9206,-49.7763"/>
<polygon fill="#191970" stroke="#191970" points="346.4748,-53.2477 356.8397,-51.0525 347.3681,-46.305 346.4748,-53.2477"/>
</g>
<!-- Node48 -->
<g id="node7" class="node">
<title>Node48</title>
<g id="a_node7"><a xlink:href="classneon_1_1SubMesh.html#acacabb1cefbe206b4c2bf9ddade795ed" target="_top" xlink:title="neon::SubMesh::local\l_node_list">
<polygon fill="#ffffff" stroke="#000000" points="367,-.5 367,-30.5 478,-30.5 478,-.5 367,-.5"/>
<text text-anchor="start" x="375" y="-18.5" font-family="Helvetica,sans-Serif" font-size="10.00" fill="#000000">neon::SubMesh::local</text>
<text text-anchor="middle" x="422.5" y="-7.5" font-family="Helvetica,sans-Serif" font-size="10.00" fill="#000000">_node_list</text>
</a>
</g>
</g>
<!-- Node46&#45;&gt;Node48 -->
<g id="edge6" class="edge">
<title>Node46&#45;&gt;Node48</title>
<path fill="none" stroke="#191970" d="M315.6606,-29.2454C329.1031,-27.516 343.2973,-25.6898 356.7951,-23.9533"/>
<polygon fill="#191970" stroke="#191970" points="357.4856,-27.3934 366.9572,-22.6459 356.5923,-20.4506 357.4856,-27.3934"/>
</g>
</g>
</svg>
