<?xml version="1.0" encoding="UTF-8" standalone="no"?>
<!DOCTYPE svg PUBLIC "-//W3C//DTD SVG 1.1//EN"
 "http://www.w3.org/Graphics/SVG/1.1/DTD/svg11.dtd">
<!-- Generated by graphviz version 2.40.1 (20161225.0304)
 -->
<!-- Title: neon::NumericalQuadrature::points Pages: 1 -->
<svg width="661pt" height="112pt"
 viewBox="0.00 0.00 661.00 112.00" xmlns="http://www.w3.org/2000/svg" xmlns:xlink="http://www.w3.org/1999/xlink">
<g id="graph0" class="graph" transform="scale(1 1) rotate(0) translate(4 108)">
<title>neon::NumericalQuadrature::points</title>
<polygon fill="#ffffff" stroke="transparent" points="-4,4 -4,-108 657,-108 657,4 -4,4"/>
<!-- Node13 -->
<g id="node1" class="node">
<title>Node13</title>
<polygon fill="#bfbfbf" stroke="#000000" points="0,-24.5 0,-54.5 136,-54.5 136,-24.5 0,-24.5"/>
<text text-anchor="start" x="8" y="-42.5" font-family="Helvetica,sans-Serif" font-size="10.00" fill="#000000">neon::NumericalQuadrature</text>
<text text-anchor="middle" x="68" y="-31.5" font-family="Helvetica,sans-Serif" font-size="10.00" fill="#000000">::points</text>
</g>
<!-- Node14 -->
<g id="node2" class="node">
<title>Node14</title>
<g id="a_node2"><a xlink:href="classneon_1_1NumericalQuadrature.html#a132861ccaee57e629e116eb9b014a3a9" target="_top" xlink:title="neon::NumericalQuadrature\l::integrate">
<polygon fill="#ffffff" stroke="#000000" points="172,-49.5 172,-79.5 308,-79.5 308,-49.5 172,-49.5"/>
<text text-anchor="start" x="180" y="-67.5" font-family="Helvetica,sans-Serif" font-size="10.00" fill="#000000">neon::NumericalQuadrature</text>
<text text-anchor="middle" x="240" y="-56.5" font-family="Helvetica,sans-Serif" font-size="10.00" fill="#000000">::integrate</text>
</a>
</g>
</g>
<!-- Node13&#45;&gt;Node14 -->
<g id="edge1" class="edge">
<title>Node13&#45;&gt;Node14</title>
<path fill="none" stroke="#191970" d="M146.6369,-50.9298C155.0254,-52.149 163.5081,-53.382 171.7624,-54.5817"/>
<polygon fill="#191970" stroke="#191970" points="146.8726,-47.4273 136.4732,-49.4525 145.8657,-54.3546 146.8726,-47.4273"/>
</g>
<!-- Node18 -->
<g id="node6" class="node">
<title>Node18</title>
<g id="a_node6"><a xlink:href="classneon_1_1NumericalQuadrature.html#a2f3bccc13ba51c31ad886a77d991f4e5" target="_top" xlink:title="neon::NumericalQuadrature\l::evaluate">
<polygon fill="#ffffff" stroke="#000000" points="172,-.5 172,-30.5 308,-30.5 308,-.5 172,-.5"/>
<text text-anchor="start" x="180" y="-18.5" font-family="Helvetica,sans-Serif" font-size="10.00" fill="#000000">neon::NumericalQuadrature</text>
<text text-anchor="middle" x="240" y="-7.5" font-family="Helvetica,sans-Serif" font-size="10.00" fill="#000000">::evaluate</text>
</a>
</g>
</g>
<!-- Node13&#45;&gt;Node18 -->
<g id="edge5" class="edge">
<title>Node13&#45;&gt;Node18</title>
<path fill="none" stroke="#191970" d="M146.6369,-28.5274C155.0254,-27.3569 163.5081,-26.1733 171.7624,-25.0215"/>
<polygon fill="#191970" stroke="#191970" points="145.8935,-25.0971 136.4732,-29.9456 146.8609,-32.03 145.8935,-25.0971"/>
</g>
<!-- Node15 -->
<g id="node3" class="node">
<title>Node15</title>
<g id="a_node3"><a xlink:href="classneon_1_1AffineMicrosphere.html#a34503c57cf229f92d58365d45d8a39dc" target="_top" xlink:title="neon::AffineMicrosphere\l::compute_kirchhoff_stress">
<polygon fill="#ffffff" stroke="#000000" points="346.5,-49.5 346.5,-79.5 481.5,-79.5 481.5,-49.5 346.5,-49.5"/>
<text text-anchor="start" x="354.5" y="-67.5" font-family="Helvetica,sans-Serif" font-size="10.00" fill="#000000">neon::AffineMicrosphere</text>
<text text-anchor="middle" x="414" y="-56.5" font-family="Helvetica,sans-Serif" font-size="10.00" fill="#000000">::compute_kirchhoff_stress</text>
</a>
</g>
</g>
<!-- Node14&#45;&gt;Node15 -->
<g id="edge2" class="edge">
<title>Node14&#45;&gt;Node15</title>
<path fill="none" stroke="#191970" d="M318.3797,-64.5C327.7647,-64.5 337.2849,-64.5 346.4975,-64.5"/>
<polygon fill="#191970" stroke="#191970" points="318.27,-61.0001 308.27,-64.5 318.27,-68.0001 318.27,-61.0001"/>
</g>
<!-- Node16 -->
<g id="node4" class="node">
<title>Node16</title>
<g id="a_node4"><a xlink:href="classneon_1_1AffineMicrosphere.html#ae6fbab77ef4d201ef8aa019235aac269" target="_top" xlink:title="neon::AffineMicrosphere\l::update_internal_variables">
<polygon fill="#ffffff" stroke="#000000" points="520,-73.5 520,-103.5 653,-103.5 653,-73.5 520,-73.5"/>
<text text-anchor="start" x="528" y="-91.5" font-family="Helvetica,sans-Serif" font-size="10.00" fill="#000000">neon::AffineMicrosphere</text>
<text text-anchor="middle" x="586.5" y="-80.5" font-family="Helvetica,sans-Serif" font-size="10.00" fill="#000000">::update_internal_variables</text>
</a>
</g>
</g>
<!-- Node15&#45;&gt;Node16 -->
<g id="edge3" class="edge">
<title>Node15&#45;&gt;Node16</title>
<path fill="none" stroke="#191970" d="M491.7805,-75.3216C501.1559,-76.626 510.6659,-77.9492 519.8619,-79.2286"/>
<polygon fill="#191970" stroke="#191970" points="492.0684,-71.8281 481.6815,-73.9166 491.1037,-78.7613 492.0684,-71.8281"/>
</g>
<!-- Node17 -->
<g id="node5" class="node">
<title>Node17</title>
<g id="a_node5"><a xlink:href="classneon_1_1AffineMicrosphere.html#a2aa9098fb29ba340ff3dd5cfc00ed46f" target="_top" xlink:title="neon::AffineMicrosphere\l::intrinsic_material">
<polygon fill="#ffffff" stroke="#000000" points="525.5,-24.5 525.5,-54.5 647.5,-54.5 647.5,-24.5 525.5,-24.5"/>
<text text-anchor="start" x="533.5" y="-42.5" font-family="Helvetica,sans-Serif" font-size="10.00" fill="#000000">neon::AffineMicrosphere</text>
<text text-anchor="middle" x="586.5" y="-31.5" font-family="Helvetica,sans-Serif" font-size="10.00" fill="#000000">::intrinsic_material</text>
</a>
</g>
</g>
<!-- Node15&#45;&gt;Node17 -->
<g id="edge4" class="edge">
<title>Node15&#45;&gt;Node17</title>
<path fill="none" stroke="#191970" d="M491.5893,-53.2552C502.9459,-51.6093 514.5048,-49.9341 525.4677,-48.3453"/>
<polygon fill="#191970" stroke="#191970" points="491.076,-49.7929 481.6815,-54.6911 492.0801,-56.7205 491.076,-49.7929"/>
</g>
<!-- Node19 -->
<g id="node7" class="node">
<title>Node19</title>
<g id="a_node7"><a xlink:href="classneon_1_1UnitSphereQuadrature.html#ad5eaed54ea17bb3a979930fab994c314" target="_top" xlink:title="neon::UnitSphereQuadrature\l::UnitSphereQuadrature">
<polygon fill="#ffffff" stroke="#000000" points="344,-.5 344,-30.5 484,-30.5 484,-.5 344,-.5"/>
<text text-anchor="start" x="352" y="-18.5" font-family="Helvetica,sans-Serif" font-size="10.00" fill="#000000">neon::UnitSphereQuadrature</text>
<text text-anchor="middle" x="414" y="-7.5" font-family="Helvetica,sans-Serif" font-size="10.00" fill="#000000">::UnitSphereQuadrature</text>
</a>
</g>
</g>
<!-- Node18&#45;&gt;Node19 -->
<g id="edge6" class="edge">
<title>Node18&#45;&gt;Node19</title>
<path fill="none" stroke="#191970" d="M318.5227,-15.5C326.9899,-15.5 335.5653,-15.5 343.9239,-15.5"/>
<polygon fill="#191970" stroke="#191970" points="318.27,-12.0001 308.27,-15.5 318.27,-19.0001 318.27,-12.0001"/>
</g>
</g>
</svg>
