<?xml version="1.0" encoding="UTF-8" standalone="no"?>
<!DOCTYPE svg PUBLIC "-//W3C//DTD SVG 1.1//EN"
 "http://www.w3.org/Graphics/SVG/1.1/DTD/svg11.dtd">
<!-- Generated by graphviz version 2.40.1 (20161225.0304)
 -->
<!-- Title: neon::solid::femSubmesh::local_dof_list Pages: 1 -->
<svg width="628pt" height="165pt"
 viewBox="0.00 0.00 628.00 165.00" xmlns="http://www.w3.org/2000/svg" xmlns:xlink="http://www.w3.org/1999/xlink">
<g id="graph0" class="graph" transform="scale(1 1) rotate(0) translate(4 161)">
<title>neon::solid::femSubmesh::local_dof_list</title>
<polygon fill="#ffffff" stroke="transparent" points="-4,4 -4,-161 624,-161 624,4 -4,4"/>
<!-- Node109 -->
<g id="node1" class="node">
<title>Node109</title>
<polygon fill="#bfbfbf" stroke="#000000" points="0,-57.5 0,-87.5 128,-87.5 128,-57.5 0,-57.5"/>
<text text-anchor="start" x="8" y="-75.5" font-family="Helvetica,sans-Serif" font-size="10.00" fill="#000000">neon::solid::femSubmesh</text>
<text text-anchor="middle" x="64" y="-64.5" font-family="Helvetica,sans-Serif" font-size="10.00" fill="#000000">::local_dof_list</text>
</g>
<!-- Node110 -->
<g id="node2" class="node">
<title>Node110</title>
<g id="a_node2"><a xlink:href="classneon_1_1solid_1_1femSubmesh.html#abdc355d969d95032d707ab251e4db75d" target="_top" xlink:title="neon::solid::femSubmesh\l::tangent_stiffness">
<polygon fill="#ffffff" stroke="#000000" points="328,-126.5 328,-156.5 456,-156.5 456,-126.5 328,-126.5"/>
<text text-anchor="start" x="336" y="-144.5" font-family="Helvetica,sans-Serif" font-size="10.00" fill="#000000">neon::solid::femSubmesh</text>
<text text-anchor="middle" x="392" y="-133.5" font-family="Helvetica,sans-Serif" font-size="10.00" fill="#000000">::tangent_stiffness</text>
</a>
</g>
</g>
<!-- Node109&#45;&gt;Node110 -->
<g id="edge1" class="edge">
<title>Node109&#45;&gt;Node110</title>
<path fill="none" stroke="#191970" d="M96.4211,-92.6751C115.3949,-103.4502 140.2294,-115.8343 164,-122.5 217.9259,-137.6217 281.6151,-141.8497 327.9538,-142.5968"/>
<polygon fill="#191970" stroke="#191970" points="98.0113,-89.5511 87.6078,-87.5469 94.4908,-95.6014 98.0113,-89.5511"/>
</g>
<!-- Node112 -->
<g id="node4" class="node">
<title>Node112</title>
<g id="a_node4"><a xlink:href="classneon_1_1solid_1_1femSubmesh.html#ad0c267e8fd87a1126c216b21ccfd7b55" target="_top" xlink:title="neon::solid::femSubmesh\l::internal_force">
<polygon fill="#ffffff" stroke="#000000" points="164,-82.5 164,-112.5 292,-112.5 292,-82.5 164,-82.5"/>
<text text-anchor="start" x="172" y="-100.5" font-family="Helvetica,sans-Serif" font-size="10.00" fill="#000000">neon::solid::femSubmesh</text>
<text text-anchor="middle" x="228" y="-89.5" font-family="Helvetica,sans-Serif" font-size="10.00" fill="#000000">::internal_force</text>
</a>
</g>
</g>
<!-- Node109&#45;&gt;Node112 -->
<g id="edge3" class="edge">
<title>Node109&#45;&gt;Node112</title>
<path fill="none" stroke="#191970" d="M138.2859,-83.8241C146.8158,-85.1244 155.4581,-86.4418 163.8391,-87.7194"/>
<polygon fill="#191970" stroke="#191970" points="138.7597,-80.3559 128.3464,-82.3089 137.7048,-87.276 138.7597,-80.3559"/>
</g>
<!-- Node113 -->
<g id="node5" class="node">
<title>Node113</title>
<g id="a_node5"><a xlink:href="classneon_1_1solid_1_1femSubmesh.html#ad6e50b01a0301255f81ffb8139ee785a" target="_top" xlink:title="neon::solid::femSubmesh\l::consistent_mass">
<polygon fill="#ffffff" stroke="#000000" points="164,-33.5 164,-63.5 292,-63.5 292,-33.5 164,-33.5"/>
<text text-anchor="start" x="172" y="-51.5" font-family="Helvetica,sans-Serif" font-size="10.00" fill="#000000">neon::solid::femSubmesh</text>
<text text-anchor="middle" x="228" y="-40.5" font-family="Helvetica,sans-Serif" font-size="10.00" fill="#000000">::consistent_mass</text>
</a>
</g>
</g>
<!-- Node109&#45;&gt;Node113 -->
<g id="edge5" class="edge">
<title>Node109&#45;&gt;Node113</title>
<path fill="none" stroke="#191970" d="M138.2859,-61.6289C146.8158,-60.3806 155.4581,-59.1159 163.8391,-57.8894"/>
<polygon fill="#191970" stroke="#191970" points="137.7342,-58.1723 128.3464,-63.0834 138.7479,-65.0985 137.7342,-58.1723"/>
</g>
<!-- Node114 -->
<g id="node6" class="node">
<title>Node114</title>
<g id="a_node6"><a xlink:href="classneon_1_1solid_1_1femSubmesh.html#a118bc792978bf5ac5e24d3949f53244e" target="_top" xlink:title="neon::solid::femSubmesh\l::diagonal_mass">
<polygon fill="#ffffff" stroke="#000000" points="328,-.5 328,-30.5 456,-30.5 456,-.5 328,-.5"/>
<text text-anchor="start" x="336" y="-18.5" font-family="Helvetica,sans-Serif" font-size="10.00" fill="#000000">neon::solid::femSubmesh</text>
<text text-anchor="middle" x="392" y="-7.5" font-family="Helvetica,sans-Serif" font-size="10.00" fill="#000000">::diagonal_mass</text>
</a>
</g>
</g>
<!-- Node109&#45;&gt;Node114 -->
<g id="edge9" class="edge">
<title>Node109&#45;&gt;Node114</title>
<path fill="none" stroke="#191970" d="M96.3584,-52.3032C115.3118,-41.6055 140.1468,-29.4726 164,-23.5 217.9823,-9.9834 281.387,-8.8937 327.6114,-10.6618"/>
<polygon fill="#191970" stroke="#191970" points="94.4522,-49.3626 87.5565,-57.4063 97.9632,-55.4184 94.4522,-49.3626"/>
</g>
<!-- Node111 -->
<g id="node3" class="node">
<title>Node111</title>
<g id="a_node3"><a xlink:href="classneon_1_1solid_1_1femSubmesh.html#a6e725b9d73d74ff4f5971f2f7f74225c" target="_top" xlink:title="neon::solid::femSubmesh\l::internal_variables">
<polygon fill="#ffffff" stroke="#000000" points="492,-63.5 492,-93.5 620,-93.5 620,-63.5 492,-63.5"/>
<text text-anchor="start" x="500" y="-81.5" font-family="Helvetica,sans-Serif" font-size="10.00" fill="#000000">neon::solid::femSubmesh</text>
<text text-anchor="middle" x="556" y="-70.5" font-family="Helvetica,sans-Serif" font-size="10.00" fill="#000000">::internal_variables</text>
</a>
</g>
</g>
<!-- Node110&#45;&gt;Node111 -->
<g id="edge2" class="edge">
<title>Node110&#45;&gt;Node111</title>
<path fill="none" stroke="#191970" d="M440.6759,-122.8013C464.9517,-113.4759 493.9228,-102.3467 516.7546,-93.576"/>
<polygon fill="#191970" stroke="#191970" points="439.3619,-119.5567 431.2821,-126.4099 441.8721,-126.0911 439.3619,-119.5567"/>
</g>
<!-- Node112&#45;&gt;Node111 -->
<g id="edge4" class="edge">
<title>Node112&#45;&gt;Node111</title>
<path fill="none" stroke="#191970" d="M302.0723,-93.2092C359.1972,-89.9002 437.3942,-85.3705 491.8615,-82.2153"/>
<polygon fill="#191970" stroke="#191970" points="301.8012,-89.719 292.0203,-93.7915 302.206,-96.7073 301.8012,-89.719"/>
</g>
<!-- Node113&#45;&gt;Node111 -->
<g id="edge8" class="edge">
<title>Node113&#45;&gt;Node111</title>
<path fill="none" stroke="#191970" d="M302.0723,-55.2749C359.1972,-60.4997 437.3942,-67.6519 491.8615,-72.6337"/>
<polygon fill="#191970" stroke="#191970" points="302.2976,-51.781 292.0203,-54.3555 301.66,-58.7519 302.2976,-51.781"/>
</g>
<!-- Node113&#45;&gt;Node114 -->
<g id="edge6" class="edge">
<title>Node113&#45;&gt;Node114</title>
<path fill="none" stroke="#191970" d="M302.2859,-33.5522C310.8158,-31.8358 319.4581,-30.0968 327.8391,-28.4104"/>
<polygon fill="#191970" stroke="#191970" points="301.4595,-30.1483 292.3464,-35.5522 302.8404,-37.0107 301.4595,-30.1483"/>
</g>
<!-- Node114&#45;&gt;Node111 -->
<g id="edge7" class="edge">
<title>Node114&#45;&gt;Node111</title>
<path fill="none" stroke="#191970" d="M440.6759,-34.1987C464.9517,-43.5241 493.9228,-54.6533 516.7546,-63.424"/>
<polygon fill="#191970" stroke="#191970" points="441.8721,-30.9089 431.2821,-30.5901 439.3619,-37.4433 441.8721,-30.9089"/>
</g>
</g>
</svg>
