<?xml version="1.0" encoding="UTF-8" standalone="no"?>
<!DOCTYPE svg PUBLIC "-//W3C//DTD SVG 1.1//EN"
 "http://www.w3.org/Graphics/SVG/1.1/DTD/svg11.dtd">
<!-- Generated by graphviz version 2.40.1 (20161225.0304)
 -->
<!-- Title: neon::SubMesh::nodes_per_element Pages: 1 -->
<svg width="280pt" height="39pt"
 viewBox="0.00 0.00 280.00 39.00" xmlns="http://www.w3.org/2000/svg" xmlns:xlink="http://www.w3.org/1999/xlink">
<g id="graph0" class="graph" transform="scale(1 1) rotate(0) translate(4 35)">
<title>neon::SubMesh::nodes_per_element</title>
<polygon fill="#ffffff" stroke="transparent" points="-4,4 -4,-35 276,-35 276,4 -4,4"/>
<!-- Node40 -->
<g id="node1" class="node">
<title>Node40</title>
<polygon fill="#bfbfbf" stroke="#000000" points="0,-.5 0,-30.5 117,-30.5 117,-.5 0,-.5"/>
<text text-anchor="start" x="8" y="-18.5" font-family="Helvetica,sans-Serif" font-size="10.00" fill="#000000">neon::SubMesh::nodes</text>
<text text-anchor="middle" x="58.5" y="-7.5" font-family="Helvetica,sans-Serif" font-size="10.00" fill="#000000">_per_element</text>
</g>
<!-- Node41 -->
<g id="node2" class="node">
<title>Node41</title>
<g id="a_node2"><a xlink:href="classneon_1_1SubMesh.html#a2047359fe78bed483cc5462a9c0e7b42" target="_top" xlink:title="neon::SubMesh::unique\l_connectivities">
<polygon fill="#ffffff" stroke="#000000" points="153,-.5 153,-30.5 272,-30.5 272,-.5 153,-.5"/>
<text text-anchor="start" x="161" y="-18.5" font-family="Helvetica,sans-Serif" font-size="10.00" fill="#000000">neon::SubMesh::unique</text>
<text text-anchor="middle" x="212.5" y="-7.5" font-family="Helvetica,sans-Serif" font-size="10.00" fill="#000000">_connectivities</text>
</a>
</g>
</g>
<!-- Node40&#45;&gt;Node41 -->
<g id="edge1" class="edge">
<title>Node40&#45;&gt;Node41</title>
<path fill="none" stroke="#191970" d="M117.1601,-15.5C125.5911,-15.5 134.3336,-15.5 142.9504,-15.5"/>
<polygon fill="#191970" stroke="#191970" points="142.982,-19.0001 152.982,-15.5 142.9819,-12.0001 142.982,-19.0001"/>
</g>
</g>
</svg>
