<?xml version="1.0" encoding="UTF-8" standalone="no"?>
<!DOCTYPE svg PUBLIC "-//W3C//DTD SVG 1.1//EN"
 "http://www.w3.org/Graphics/SVG/1.1/DTD/svg11.dtd">
<!-- Generated by graphviz version 2.40.1 (20161225.0304)
 -->
<!-- Title: neon::LinearSolver Pages: 1 -->
<svg width="115pt" height="106pt"
 viewBox="0.00 0.00 115.00 106.00" xmlns="http://www.w3.org/2000/svg" xmlns:xlink="http://www.w3.org/1999/xlink">
<g id="graph0" class="graph" transform="scale(1 1) rotate(0) translate(4 102)">
<title>neon::LinearSolver</title>
<polygon fill="#ffffff" stroke="transparent" points="-4,4 -4,-102 111,-102 111,4 -4,4"/>
<!-- Node6 -->
<g id="node1" class="node">
<title>Node6</title>
<polygon fill="#bfbfbf" stroke="#000000" points="0,-.5 0,-19.5 98,-19.5 98,-.5 0,-.5"/>
<text text-anchor="middle" x="49" y="-7.5" font-family="Helvetica,sans-Serif" font-size="10.00" fill="#000000">neon::LinearSolver</text>
</g>
<!-- Node7 -->
<g id="node2" class="node">
<title>Node7</title>
<g id="a_node2"><a xlink:href="structneon_1_1LinearSolver_1_1SolverParam.html" target="_top" xlink:title="neon::LinearSolver\l::SolverParam">
<polygon fill="#ffffff" stroke="#000000" points="0,-67.5 0,-97.5 98,-97.5 98,-67.5 0,-67.5"/>
<text text-anchor="start" x="8" y="-85.5" font-family="Helvetica,sans-Serif" font-size="10.00" fill="#000000">neon::LinearSolver</text>
<text text-anchor="middle" x="49" y="-74.5" font-family="Helvetica,sans-Serif" font-size="10.00" fill="#000000">::SolverParam</text>
</a>
</g>
</g>
<!-- Node7&#45;&gt;Node6 -->
<g id="edge1" class="edge">
<title>Node7&#45;&gt;Node6</title>
<path fill="none" stroke="#9a32cd" stroke-dasharray="5,2" d="M49,-57.305C49,-44.424 49,-29.4836 49,-19.8957"/>
<polygon fill="#9a32cd" stroke="#9a32cd" points="45.5001,-57.4779 49,-67.478 52.5001,-57.478 45.5001,-57.4779"/>
<text text-anchor="middle" x="78" y="-41" font-family="Helvetica,sans-Serif" font-size="10.00" fill="#000000"> solverParam</text>
</g>
</g>
</svg>
