<?xml version="1.0" encoding="UTF-8" standalone="no"?>
<!DOCTYPE svg PUBLIC "-//W3C//DTD SVG 1.1//EN"
 "http://www.w3.org/Graphics/SVG/1.1/DTD/svg11.dtd">
<!-- Generated by graphviz version 2.40.1 (20161225.0304)
 -->
<!-- Title: neon::ShapeFunction&lt; Quadrature &gt; Pages: 1 -->
<svg width="269pt" height="137pt"
 viewBox="0.00 0.00 269.00 137.00" xmlns="http://www.w3.org/2000/svg" xmlns:xlink="http://www.w3.org/1999/xlink">
<g id="graph0" class="graph" transform="scale(1 1) rotate(0) translate(4 133)">
<title>neon::ShapeFunction&lt; Quadrature &gt;</title>
<polygon fill="#ffffff" stroke="transparent" points="-4,4 -4,-133 265,-133 265,4 -4,4"/>
<!-- Node0 -->
<g id="node1" class="node">
<title>Node0</title>
<polygon fill="#bfbfbf" stroke="#000000" points="0,-49.5 0,-79.5 109,-79.5 109,-49.5 0,-49.5"/>
<text text-anchor="start" x="8" y="-67.5" font-family="Helvetica,sans-Serif" font-size="10.00" fill="#000000">neon::ShapeFunction</text>
<text text-anchor="middle" x="54.5" y="-56.5" font-family="Helvetica,sans-Serif" font-size="10.00" fill="#000000">&lt; Quadrature &gt;</text>
</g>
<!-- Node1 -->
<g id="node2" class="node">
<title>Node1</title>
<g id="a_node2"><a xlink:href="classneon_1_1Hexahedron8.html" target="_top" xlink:title="neon::Hexahedron8\&lt;\l VolumeQuadrature \&gt;">
<polygon fill="#ffffff" stroke="#000000" points="148,-98.5 148,-128.5 258,-128.5 258,-98.5 148,-98.5"/>
<text text-anchor="start" x="156" y="-116.5" font-family="Helvetica,sans-Serif" font-size="10.00" fill="#000000">neon::Hexahedron8&lt;</text>
<text text-anchor="middle" x="203" y="-105.5" font-family="Helvetica,sans-Serif" font-size="10.00" fill="#000000"> VolumeQuadrature &gt;</text>
</a>
</g>
</g>
<!-- Node0&#45;&gt;Node1 -->
<g id="edge1" class="edge">
<title>Node0&#45;&gt;Node1</title>
<path fill="none" stroke="#191970" d="M109.8362,-82.7591C125.499,-87.9273 142.3648,-93.4924 157.3845,-98.4484"/>
<polygon fill="#191970" stroke="#191970" points="110.8597,-79.4113 100.2666,-79.6014 108.6663,-86.0587 110.8597,-79.4113"/>
</g>
<!-- Node2 -->
<g id="node3" class="node">
<title>Node2</title>
<g id="a_node3"><a xlink:href="classneon_1_1Tetrahedron10.html" target="_top" xlink:title="neon::Tetrahedron10\l\&lt; VolumeQuadrature \&gt;">
<polygon fill="#ffffff" stroke="#000000" points="145,-49.5 145,-79.5 261,-79.5 261,-49.5 145,-49.5"/>
<text text-anchor="start" x="153" y="-67.5" font-family="Helvetica,sans-Serif" font-size="10.00" fill="#000000">neon::Tetrahedron10</text>
<text text-anchor="middle" x="203" y="-56.5" font-family="Helvetica,sans-Serif" font-size="10.00" fill="#000000">&lt; VolumeQuadrature &gt;</text>
</a>
</g>
</g>
<!-- Node0&#45;&gt;Node2 -->
<g id="edge2" class="edge">
<title>Node0&#45;&gt;Node2</title>
<path fill="none" stroke="#191970" d="M119.544,-64.5C127.9714,-64.5 136.5594,-64.5 144.8648,-64.5"/>
<polygon fill="#191970" stroke="#191970" points="119.374,-61.0001 109.374,-64.5 119.374,-68.0001 119.374,-61.0001"/>
</g>
<!-- Node3 -->
<g id="node4" class="node">
<title>Node3</title>
<g id="a_node4"><a xlink:href="classneon_1_1Tetrahedron4.html" target="_top" xlink:title="neon::Tetrahedron4\l\&lt; VolumeQuadrature \&gt;">
<polygon fill="#ffffff" stroke="#000000" points="145,-.5 145,-30.5 261,-30.5 261,-.5 145,-.5"/>
<text text-anchor="start" x="153" y="-18.5" font-family="Helvetica,sans-Serif" font-size="10.00" fill="#000000">neon::Tetrahedron4</text>
<text text-anchor="middle" x="203" y="-7.5" font-family="Helvetica,sans-Serif" font-size="10.00" fill="#000000">&lt; VolumeQuadrature &gt;</text>
</a>
</g>
</g>
<!-- Node0&#45;&gt;Node3 -->
<g id="edge3" class="edge">
<title>Node0&#45;&gt;Node3</title>
<path fill="none" stroke="#191970" d="M109.8362,-46.2409C125.499,-41.0727 142.3648,-35.5076 157.3845,-30.5516"/>
<polygon fill="#191970" stroke="#191970" points="108.6663,-42.9413 100.2666,-49.3986 110.8597,-49.5887 108.6663,-42.9413"/>
</g>
</g>
</svg>
