<?xml version="1.0" encoding="UTF-8" standalone="no"?>
<!DOCTYPE svg PUBLIC "-//W3C//DTD SVG 1.1//EN"
 "http://www.w3.org/Graphics/SVG/1.1/DTD/svg11.dtd">
<!-- Generated by graphviz version 2.40.1 (20161225.0304)
 -->
<!-- Title: neon::solid::femMesh::update_internal_variables Pages: 1 -->
<svg width="688pt" height="99pt"
 viewBox="0.00 0.00 688.00 99.00" xmlns="http://www.w3.org/2000/svg" xmlns:xlink="http://www.w3.org/1999/xlink">
<g id="graph0" class="graph" transform="scale(1 1) rotate(0) translate(4 95)">
<title>neon::solid::femMesh::update_internal_variables</title>
<polygon fill="#ffffff" stroke="transparent" points="-4,4 -4,-95 684,-95 684,4 -4,4"/>
<!-- Node24 -->
<g id="node1" class="node">
<title>Node24</title>
<polygon fill="#bfbfbf" stroke="#000000" points="0,-.5 0,-30.5 133,-30.5 133,-.5 0,-.5"/>
<text text-anchor="start" x="8" y="-18.5" font-family="Helvetica,sans-Serif" font-size="10.00" fill="#000000">neon::solid::femMesh</text>
<text text-anchor="middle" x="66.5" y="-7.5" font-family="Helvetica,sans-Serif" font-size="10.00" fill="#000000">::update_internal_variables</text>
</g>
<!-- Node25 -->
<g id="node2" class="node">
<title>Node25</title>
<g id="a_node2"><a xlink:href="classneon_1_1solid_1_1femStaticMatrix.html#a1b4ec4af5d4aa93d28a374c0f4f7e5d3" target="_top" xlink:title="neon::solid::femStaticMatrix\l::compute_sparsity_pattern">
<polygon fill="#ffffff" stroke="#000000" points="169,-22.5 169,-52.5 308,-52.5 308,-22.5 169,-22.5"/>
<text text-anchor="start" x="177" y="-40.5" font-family="Helvetica,sans-Serif" font-size="10.00" fill="#000000">neon::solid::femStaticMatrix</text>
<text text-anchor="middle" x="238.5" y="-29.5" font-family="Helvetica,sans-Serif" font-size="10.00" fill="#000000">::compute_sparsity_pattern</text>
</a>
</g>
</g>
<!-- Node24&#45;&gt;Node25 -->
<g id="edge1" class="edge">
<title>Node24&#45;&gt;Node25</title>
<path fill="none" stroke="#191970" d="M143.6533,-25.3684C152.0477,-26.4421 160.5557,-27.5304 168.8529,-28.5916"/>
<polygon fill="#191970" stroke="#191970" points="143.8555,-21.8659 133.4922,-24.0688 142.9673,-28.8093 143.8555,-21.8659"/>
</g>
<!-- Node27 -->
<g id="node4" class="node">
<title>Node27</title>
<g id="a_node4"><a xlink:href="classneon_1_1solid_1_1femStaticMatrix.html#a9d09a3000b8ab1f5088e65a991325514" target="_top" xlink:title="neon::solid::femStaticMatrix\l::apply_displacement_boundaries">
<polygon fill="#ffffff" stroke="#000000" points="519,-16.5 519,-46.5 680,-46.5 680,-16.5 519,-16.5"/>
<text text-anchor="start" x="527" y="-34.5" font-family="Helvetica,sans-Serif" font-size="10.00" fill="#000000">neon::solid::femStaticMatrix</text>
<text text-anchor="middle" x="599.5" y="-23.5" font-family="Helvetica,sans-Serif" font-size="10.00" fill="#000000">::apply_displacement_boundaries</text>
</a>
</g>
</g>
<!-- Node24&#45;&gt;Node27 -->
<g id="edge5" class="edge">
<title>Node24&#45;&gt;Node27</title>
<path fill="none" stroke="#191970" d="M143.3311,-13.0072C151.989,-12.7989 160.6837,-12.6217 169,-12.5 230.7712,-11.5962 246.2549,-10.4899 308,-12.5 379.3436,-14.8226 460.3532,-20.3347 518.8339,-24.827"/>
<polygon fill="#191970" stroke="#191970" points="143.1169,-9.5114 133.2091,-13.2647 143.295,-16.5092 143.1169,-9.5114"/>
</g>
<!-- Node26 -->
<g id="node3" class="node">
<title>Node26</title>
<g id="a_node3"><a xlink:href="classneon_1_1solid_1_1femStaticMatrix.html#a38f9c7ef5b0a03920dd67cc054a83042" target="_top" xlink:title="neon::solid::femStaticMatrix\l::assemble_stiffness">
<polygon fill="#ffffff" stroke="#000000" points="344,-60.5 344,-90.5 483,-90.5 483,-60.5 344,-60.5"/>
<text text-anchor="start" x="352" y="-78.5" font-family="Helvetica,sans-Serif" font-size="10.00" fill="#000000">neon::solid::femStaticMatrix</text>
<text text-anchor="middle" x="413.5" y="-67.5" font-family="Helvetica,sans-Serif" font-size="10.00" fill="#000000">::assemble_stiffness</text>
</a>
</g>
</g>
<!-- Node25&#45;&gt;Node26 -->
<g id="edge2" class="edge">
<title>Node25&#45;&gt;Node26</title>
<path fill="none" stroke="#191970" d="M317.6283,-54.6822C326.5146,-56.6117 335.5171,-58.5666 344.2647,-60.466"/>
<polygon fill="#191970" stroke="#191970" points="318.1796,-51.2204 307.6646,-52.5186 316.6942,-58.061 318.1796,-51.2204"/>
</g>
<!-- Node26&#45;&gt;Node27 -->
<g id="edge3" class="edge">
<title>Node26&#45;&gt;Node27</title>
<path fill="none" stroke="#191970" d="M486.9569,-58.1231C503.1657,-54.2888 520.2041,-50.2582 535.9801,-46.5262"/>
<polygon fill="#191970" stroke="#191970" points="485.9161,-54.7726 476.9904,-60.4808 487.5276,-61.5846 485.9161,-54.7726"/>
</g>
<!-- Node27&#45;&gt;Node25 -->
<g id="edge4" class="edge">
<title>Node27&#45;&gt;Node25</title>
<path fill="none" stroke="#191970" d="M508.5621,-33.0114C446.3653,-34.0452 365.1648,-35.3948 308.1044,-36.3431"/>
<polygon fill="#191970" stroke="#191970" points="508.8251,-36.5076 518.7655,-32.8418 508.7087,-29.5086 508.8251,-36.5076"/>
</g>
</g>
</svg>
