<?xml version="1.0" encoding="UTF-8" standalone="no"?>
<!DOCTYPE svg PUBLIC "-//W3C//DTD SVG 1.1//EN"
 "http://www.w3.org/Graphics/SVG/1.1/DTD/svg11.dtd">
<!-- Generated by graphviz version 2.40.1 (20161225.0304)
 -->
<!-- Title: neon::Triangle6 Pages: 1 -->
<svg width="139pt" height="151pt"
 viewBox="0.00 0.00 139.00 151.00" xmlns="http://www.w3.org/2000/svg" xmlns:xlink="http://www.w3.org/1999/xlink">
<g id="graph0" class="graph" transform="scale(1 1) rotate(0) translate(4 147)">
<title>neon::Triangle6</title>
<polygon fill="#ffffff" stroke="transparent" points="-4,4 -4,-147 135,-147 135,4 -4,4"/>
<!-- Node3 -->
<g id="node1" class="node">
<title>Node3</title>
<polygon fill="#bfbfbf" stroke="#000000" points="24,-.5 24,-19.5 107,-19.5 107,-.5 24,-.5"/>
<text text-anchor="middle" x="65.5" y="-7.5" font-family="Helvetica,sans-Serif" font-size="10.00" fill="#000000">neon::Triangle6</text>
</g>
<!-- Node4 -->
<g id="node2" class="node">
<title>Node4</title>
<g id="a_node2"><a xlink:href="classneon_1_1SurfaceInterpolation.html" target="_top" xlink:title="neon::SurfaceInterpolation">
<polygon fill="#ffffff" stroke="#000000" points="0,-56.5 0,-75.5 131,-75.5 131,-56.5 0,-56.5"/>
<text text-anchor="middle" x="65.5" y="-63.5" font-family="Helvetica,sans-Serif" font-size="10.00" fill="#000000">neon::SurfaceInterpolation</text>
</a>
</g>
</g>
<!-- Node4&#45;&gt;Node3 -->
<g id="edge1" class="edge">
<title>Node4&#45;&gt;Node3</title>
<path fill="none" stroke="#191970" d="M65.5,-46.1575C65.5,-37.155 65.5,-26.9199 65.5,-19.6427"/>
<polygon fill="#191970" stroke="#191970" points="62.0001,-46.2455 65.5,-56.2455 69.0001,-46.2456 62.0001,-46.2455"/>
</g>
<!-- Node5 -->
<g id="node3" class="node">
<title>Node5</title>
<g id="a_node3"><a xlink:href="classneon_1_1ShapeFunction.html" target="_top" xlink:title="neon::ShapeFunction\l\&lt; SurfaceQuadrature \&gt;">
<polygon fill="#ffffff" stroke="#000000" points="7.5,-112.5 7.5,-142.5 123.5,-142.5 123.5,-112.5 7.5,-112.5"/>
<text text-anchor="start" x="15.5" y="-130.5" font-family="Helvetica,sans-Serif" font-size="10.00" fill="#000000">neon::ShapeFunction</text>
<text text-anchor="middle" x="65.5" y="-119.5" font-family="Helvetica,sans-Serif" font-size="10.00" fill="#000000">&lt; SurfaceQuadrature &gt;</text>
</a>
</g>
</g>
<!-- Node5&#45;&gt;Node4 -->
<g id="edge2" class="edge">
<title>Node5&#45;&gt;Node4</title>
<path fill="none" stroke="#191970" d="M65.5,-102.2849C65.5,-92.9858 65.5,-82.9883 65.5,-75.8469"/>
<polygon fill="#191970" stroke="#191970" points="62.0001,-102.2977 65.5,-112.2977 69.0001,-102.2978 62.0001,-102.2977"/>
</g>
</g>
</svg>
