<?xml version="1.0" encoding="UTF-8" standalone="no"?>
<!DOCTYPE svg PUBLIC "-//W3C//DTD SVG 1.1//EN"
 "http://www.w3.org/Graphics/SVG/1.1/DTD/svg11.dtd">
<!-- Generated by graphviz version 2.40.1 (20161225.0304)
 -->
<!-- Title: neon::HyperElasticPlastic Pages: 1 -->
<svg width="138pt" height="152pt"
 viewBox="0.00 0.00 138.00 152.00" xmlns="http://www.w3.org/2000/svg" xmlns:xlink="http://www.w3.org/1999/xlink">
<g id="graph0" class="graph" transform="scale(1 1) rotate(0) translate(4 148)">
<title>neon::HyperElasticPlastic</title>
<polygon fill="#ffffff" stroke="transparent" points="-4,4 -4,-148 134,-148 134,4 -4,4"/>
<!-- Node3 -->
<g id="node1" class="node">
<title>Node3</title>
<polygon fill="#bfbfbf" stroke="#000000" points="0,-.5 0,-19.5 130,-19.5 130,-.5 0,-.5"/>
<text text-anchor="middle" x="65" y="-7.5" font-family="Helvetica,sans-Serif" font-size="10.00" fill="#000000">neon::HyperElasticPlastic</text>
</g>
<!-- Node4 -->
<g id="node2" class="node">
<title>Node4</title>
<g id="a_node2"><a xlink:href="classneon_1_1ConstitutiveModel.html" target="_top" xlink:title="neon::ConstitutiveModel">
<polygon fill="#ffffff" stroke="#000000" points="4,-57.5 4,-76.5 126,-76.5 126,-57.5 4,-57.5"/>
<text text-anchor="middle" x="65" y="-64.5" font-family="Helvetica,sans-Serif" font-size="10.00" fill="#000000">neon::ConstitutiveModel</text>
</a>
</g>
</g>
<!-- Node4&#45;&gt;Node3 -->
<g id="edge1" class="edge">
<title>Node4&#45;&gt;Node3</title>
<path fill="none" stroke="#191970" d="M65,-47.2342C65,-37.8491 65,-27.0651 65,-19.5265"/>
<polygon fill="#191970" stroke="#191970" points="61.5001,-47.3307 65,-57.3307 68.5001,-47.3308 61.5001,-47.3307"/>
</g>
<!-- Node5 -->
<g id="node3" class="node">
<title>Node5</title>
<g id="a_node3"><a xlink:href="classneon_1_1InternalVariables.html" target="_top" xlink:title="neon::InternalVariables">
<polygon fill="#ffffff" stroke="#000000" points="7,-124.5 7,-143.5 123,-143.5 123,-124.5 7,-124.5"/>
<text text-anchor="middle" x="65" y="-131.5" font-family="Helvetica,sans-Serif" font-size="10.00" fill="#000000">neon::InternalVariables</text>
</a>
</g>
</g>
<!-- Node5&#45;&gt;Node4 -->
<g id="edge2" class="edge">
<title>Node5&#45;&gt;Node4</title>
<path fill="none" stroke="#9a32cd" stroke-dasharray="5,2" d="M65,-114.1079C65,-101.714 65,-86.3263 65,-76.5817"/>
<polygon fill="#9a32cd" stroke="#9a32cd" points="61.5001,-114.4005 65,-124.4005 68.5001,-114.4006 61.5001,-114.4005"/>
<text text-anchor="middle" x="86.5" y="-98" font-family="Helvetica,sans-Serif" font-size="10.00" fill="#000000"> variables</text>
</g>
</g>
</svg>
