<?xml version="1.0" encoding="UTF-8" standalone="no"?>
<!DOCTYPE svg PUBLIC "-//W3C//DTD SVG 1.1//EN"
 "http://www.w3.org/Graphics/SVG/1.1/DTD/svg11.dtd">
<!-- Generated by graphviz version 2.40.1 (20161225.0304)
 -->
<!-- Title: neon::ConstitutiveModel::update_internal_variables Pages: 1 -->
<svg width="299pt" height="39pt"
 viewBox="0.00 0.00 299.00 39.00" xmlns="http://www.w3.org/2000/svg" xmlns:xlink="http://www.w3.org/1999/xlink">
<g id="graph0" class="graph" transform="scale(1 1) rotate(0) translate(4 35)">
<title>neon::ConstitutiveModel::update_internal_variables</title>
<polygon fill="#ffffff" stroke="transparent" points="-4,4 -4,-35 295,-35 295,4 -4,4"/>
<!-- Node8 -->
<g id="node1" class="node">
<title>Node8</title>
<polygon fill="#bfbfbf" stroke="#000000" points="0,-.5 0,-30.5 133,-30.5 133,-.5 0,-.5"/>
<text text-anchor="start" x="8" y="-18.5" font-family="Helvetica,sans-Serif" font-size="10.00" fill="#000000">neon::ConstitutiveModel</text>
<text text-anchor="middle" x="66.5" y="-7.5" font-family="Helvetica,sans-Serif" font-size="10.00" fill="#000000">::update_internal_variables</text>
</g>
<!-- Node9 -->
<g id="node2" class="node">
<title>Node9</title>
<g id="a_node2"><a xlink:href="classneon_1_1ConstitutiveModel.html#a609e6be7ed7d5578f58ead6e4d814422" target="_top" xlink:title="neon::ConstitutiveModel\l::ConstitutiveModel">
<polygon fill="#ffffff" stroke="#000000" points="169,-.5 169,-30.5 291,-30.5 291,-.5 169,-.5"/>
<text text-anchor="start" x="177" y="-18.5" font-family="Helvetica,sans-Serif" font-size="10.00" fill="#000000">neon::ConstitutiveModel</text>
<text text-anchor="middle" x="230" y="-7.5" font-family="Helvetica,sans-Serif" font-size="10.00" fill="#000000">::ConstitutiveModel</text>
</a>
</g>
</g>
<!-- Node8&#45;&gt;Node9 -->
<g id="edge1" class="edge">
<title>Node8&#45;&gt;Node9</title>
<path fill="none" stroke="#191970" d="M143.0795,-15.5C151.7142,-15.5 160.4262,-15.5 168.828,-15.5"/>
<polygon fill="#191970" stroke="#191970" points="143.0017,-12.0001 133.0017,-15.5 143.0017,-19.0001 143.0017,-12.0001"/>
</g>
</g>
</svg>
