<?xml version="1.0" encoding="UTF-8" standalone="no"?>
<!DOCTYPE svg PUBLIC "-//W3C//DTD SVG 1.1//EN"
 "http://www.w3.org/Graphics/SVG/1.1/DTD/svg11.dtd">
<!-- Generated by graphviz version 2.40.1 (20161225.0304)
 -->
<!-- Title: neon::solid::femStaticMatrix::assemble_stiffness Pages: 1 -->
<svg width="519pt" height="61pt"
 viewBox="0.00 0.00 519.00 61.00" xmlns="http://www.w3.org/2000/svg" xmlns:xlink="http://www.w3.org/1999/xlink">
<g id="graph0" class="graph" transform="scale(1 1) rotate(0) translate(4 57)">
<title>neon::solid::femStaticMatrix::assemble_stiffness</title>
<polygon fill="#ffffff" stroke="transparent" points="-4,4 -4,-57 515,-57 515,4 -4,4"/>
<!-- Node37 -->
<g id="node1" class="node">
<title>Node37</title>
<polygon fill="#bfbfbf" stroke="#000000" points="0,-.5 0,-30.5 139,-30.5 139,-.5 0,-.5"/>
<text text-anchor="start" x="8" y="-18.5" font-family="Helvetica,sans-Serif" font-size="10.00" fill="#000000">neon::solid::femStaticMatrix</text>
<text text-anchor="middle" x="69.5" y="-7.5" font-family="Helvetica,sans-Serif" font-size="10.00" fill="#000000">::assemble_stiffness</text>
</g>
<!-- Node38 -->
<g id="node2" class="node">
<title>Node38</title>
<g id="a_node2"><a xlink:href="classneon_1_1solid_1_1femStaticMatrix.html#a9d09a3000b8ab1f5088e65a991325514" target="_top" xlink:title="neon::solid::femStaticMatrix\l::apply_displacement_boundaries">
<polygon fill="#ffffff" stroke="#000000" points="175,-22.5 175,-52.5 336,-52.5 336,-22.5 175,-22.5"/>
<text text-anchor="start" x="183" y="-40.5" font-family="Helvetica,sans-Serif" font-size="10.00" fill="#000000">neon::solid::femStaticMatrix</text>
<text text-anchor="middle" x="255.5" y="-29.5" font-family="Helvetica,sans-Serif" font-size="10.00" fill="#000000">::apply_displacement_boundaries</text>
</a>
</g>
</g>
<!-- Node37&#45;&gt;Node38 -->
<g id="edge1" class="edge">
<title>Node37&#45;&gt;Node38</title>
<path fill="none" stroke="#191970" d="M148.9693,-24.8996C157.5173,-25.9106 166.2211,-26.9401 174.7836,-27.9529"/>
<polygon fill="#191970" stroke="#191970" points="149.366,-21.4222 139.024,-23.7233 148.5437,-28.3737 149.366,-21.4222"/>
</g>
<!-- Node39 -->
<g id="node3" class="node">
<title>Node39</title>
<g id="a_node3"><a xlink:href="classneon_1_1solid_1_1femStaticMatrix.html#a1b4ec4af5d4aa93d28a374c0f4f7e5d3" target="_top" xlink:title="neon::solid::femStaticMatrix\l::compute_sparsity_pattern">
<polygon fill="#ffffff" stroke="#000000" points="372,-.5 372,-30.5 511,-30.5 511,-.5 372,-.5"/>
<text text-anchor="start" x="380" y="-18.5" font-family="Helvetica,sans-Serif" font-size="10.00" fill="#000000">neon::solid::femStaticMatrix</text>
<text text-anchor="middle" x="441.5" y="-7.5" font-family="Helvetica,sans-Serif" font-size="10.00" fill="#000000">::compute_sparsity_pattern</text>
</a>
</g>
</g>
<!-- Node38&#45;&gt;Node39 -->
<g id="edge2" class="edge">
<title>Node38&#45;&gt;Node39</title>
<path fill="none" stroke="#191970" d="M346.1558,-26.7773C354.8326,-25.751 363.5367,-24.7215 371.9656,-23.7245"/>
<polygon fill="#191970" stroke="#191970" points="345.5202,-23.328 336.0005,-27.9784 346.3424,-30.2795 345.5202,-23.328"/>
</g>
<!-- Node39&#45;&gt;Node37 -->
<g id="edge3" class="edge">
<title>Node39&#45;&gt;Node37</title>
<path fill="none" stroke="#191970" d="M361.8001,-13.8286C353.0935,-13.6938 344.3607,-13.5792 336,-13.5 264.4477,-12.8218 246.5523,-12.8218 175,-13.5 163.3678,-13.6102 151.0151,-13.7889 139.0151,-13.9951"/>
<polygon fill="#191970" stroke="#191970" points="361.929,-17.331 371.9849,-13.9951 362.0435,-10.332 361.929,-17.331"/>
</g>
</g>
</svg>
