<?xml version="1.0" encoding="UTF-8" standalone="no"?>
<!DOCTYPE svg PUBLIC "-//W3C//DTD SVG 1.1//EN"
 "http://www.w3.org/Graphics/SVG/1.1/DTD/svg11.dtd">
<!-- Generated by graphviz version 2.40.1 (20161225.0304)
 -->
<!-- Title: neon::solid::femSubmesh::internal_force Pages: 1 -->
<!--zoomable 181 -->
<svg id="main" version="1.1" xmlns="http://www.w3.org/2000/svg" xmlns:xlink="http://www.w3.org/1999/xlink" xml:space="preserve" onload="init(evt)">
<style type="text/css"><![CDATA[
.edge:hover path { stroke: red; }
.edge:hover polygon { stroke: red; fill: red; }
]]></style>
<script type="text/javascript"><![CDATA[
var edges = document.getElementsByTagName('g');
if (edges && edges.length) {
  for (var i=0;i<edges.length;i++) {
    if (edges[i].id.substr(0,4)=='edge') {
      edges[i].setAttribute('class','edge');
    }
  }
}
]]></script>
        <defs>
                <circle id="rim" cx="0" cy="0" r="7"/>
                <circle id="rim2" cx="0" cy="0" r="3.5"/>
                <g id="zoomPlus">
                        <use xlink:href="#rim" fill="#404040">
                                <set attributeName="fill" to="#808080" begin="zoomplus.mouseover" end="zoomplus.mouseout"/>
                        </use>
                        <path d="M-4,0h8M0,-4v8" fill="none" stroke="white" stroke-width="1.5" pointer-events="none"/>
                </g>
                <g id="zoomMin">
                        <use xlink:href="#rim" fill="#404040">
                                <set attributeName="fill" to="#808080" begin="zoomminus.mouseover" end="zoomminus.mouseout"/>
                        </use>
                        <path d="M-4,0h8" fill="none" stroke="white" stroke-width="1.5" pointer-events="none"/>
                </g>
                <g id="dirArrow">
                        <path fill="none" stroke="white" stroke-width="1.5" d="M0,-3.0v7 M-2.5,-0.5L0,-3.0L2.5,-0.5"/>
                </g>
               <g id="resetDef">
                       <use xlink:href="#rim2" fill="#404040">
                               <set attributeName="fill" to="#808080" begin="reset.mouseover" end="reset.mouseout"/>
                       </use>
               </g>
        </defs>

<script type="text/javascript">
var viewWidth = 642;
var viewHeight = 181;
var sectionId = 'dynsection-11';
</script>
<script xlink:href="svgpan.js"/>
<svg id="graph" class="graph">
<g id="viewport">
<title>neon::solid::femSubmesh::internal_force</title>
<polygon fill="#ffffff" stroke="transparent" points="-4,4 -4,-177 638,-177 638,4 -4,4"/>
<!-- Node53 -->
<g id="node1" class="node">
<title>Node53</title>
<polygon fill="#bfbfbf" stroke="#000000" points="0,-98.5 0,-128.5 128,-128.5 128,-98.5 0,-98.5"/>
<text text-anchor="start" x="8" y="-116.5" font-family="Helvetica,sans-Serif" font-size="10.00" fill="#000000">neon::solid::femSubmesh</text>
<text text-anchor="middle" x="64" y="-105.5" font-family="Helvetica,sans-Serif" font-size="10.00" fill="#000000">::internal_force</text>
</g>
<!-- Node54 -->
<g id="node2" class="node">
<title>Node54</title>
<g id="a_node2"><a xlink:href="classneon_1_1SubMesh.html#acacabb1cefbe206b4c2bf9ddade795ed" target="_top" xlink:title="neon::SubMesh::local\l_node_list">
<polygon fill="#ffffff" stroke="#000000" points="513,-142.5 513,-172.5 624,-172.5 624,-142.5 513,-142.5"/>
<text text-anchor="start" x="521" y="-160.5" font-family="Helvetica,sans-Serif" font-size="10.00" fill="#000000">neon::SubMesh::local</text>
<text text-anchor="middle" x="568.5" y="-149.5" font-family="Helvetica,sans-Serif" font-size="10.00" fill="#000000">_node_list</text>
</a>
</g>
</g>
<!-- Node53&#45;&gt;Node54 -->
<g id="edge1" class="edge">
<title>Node53&#45;&gt;Node54</title>
<path fill="none" stroke="#191970" d="M115.7692,-128.5135C131.165,-132.4143 148.1539,-136.1706 164,-138.5 282.3226,-155.8938 422.006,-158.5609 502.4148,-158.3926"/>
<polygon fill="#191970" stroke="#191970" points="502.8927,-161.891 512.8796,-158.3539 502.8667,-154.891 502.8927,-161.891"/>
</g>
<!-- Node55 -->
<g id="node3" class="node">
<title>Node55</title>
<g id="a_node3"><a xlink:href="classneon_1_1solid_1_1femSubmesh.html#a2828f622e7e0f2b5c5ab90654fd64de7" target="_top" xlink:title="neon::solid::femSubmesh\l::local_dof_list">
<polygon fill="#ffffff" stroke="#000000" points="164,-98.5 164,-128.5 292,-128.5 292,-98.5 164,-98.5"/>
<text text-anchor="start" x="172" y="-116.5" font-family="Helvetica,sans-Serif" font-size="10.00" fill="#000000">neon::solid::femSubmesh</text>
<text text-anchor="middle" x="228" y="-105.5" font-family="Helvetica,sans-Serif" font-size="10.00" fill="#000000">::local_dof_list</text>
</a>
</g>
</g>
<!-- Node53&#45;&gt;Node55 -->
<g id="edge2" class="edge">
<title>Node53&#45;&gt;Node55</title>
<path fill="none" stroke="#191970" d="M128.3464,-113.5C136.6401,-113.5 145.1868,-113.5 153.6248,-113.5"/>
<polygon fill="#191970" stroke="#191970" points="153.8392,-117.0001 163.8391,-113.5 153.8391,-110.0001 153.8392,-117.0001"/>
</g>
<!-- Node56 -->
<g id="node4" class="node">
<title>Node56</title>
<g id="a_node4"><a xlink:href="classneon_1_1solid_1_1femSubmesh.html#acb75f263f98c1934224fbb21854b347c" target="_top" xlink:title="neon::solid::femSubmesh\l::internal_nodal_force">
<polygon fill="#ffffff" stroke="#000000" points="164,-49.5 164,-79.5 292,-79.5 292,-49.5 164,-49.5"/>
<text text-anchor="start" x="172" y="-67.5" font-family="Helvetica,sans-Serif" font-size="10.00" fill="#000000">neon::solid::femSubmesh</text>
<text text-anchor="middle" x="228" y="-56.5" font-family="Helvetica,sans-Serif" font-size="10.00" fill="#000000">::internal_nodal_force</text>
</a>
</g>
</g>
<!-- Node53&#45;&gt;Node56 -->
<g id="edge3" class="edge">
<title>Node53&#45;&gt;Node56</title>
<path fill="none" stroke="#191970" d="M114.5436,-98.3986C131.4579,-93.3449 150.4769,-87.6624 168.0391,-82.4152"/>
<polygon fill="#191970" stroke="#191970" points="169.0438,-85.7679 177.6233,-79.5516 167.0398,-79.0609 169.0438,-85.7679"/>
</g>
<!-- Node57 -->
<g id="node5" class="node">
<title>Node57</title>
<g id="a_node5"><a xlink:href="classneon_1_1SubMesh.html#a95a1ae84508d0006244c248aa50c76b3" target="_top" xlink:title="neon::SubMesh::nodes\l_per_element">
<polygon fill="#ffffff" stroke="#000000" points="339,-49.5 339,-79.5 456,-79.5 456,-49.5 339,-49.5"/>
<text text-anchor="start" x="347" y="-67.5" font-family="Helvetica,sans-Serif" font-size="10.00" fill="#000000">neon::SubMesh::nodes</text>
<text text-anchor="middle" x="397.5" y="-56.5" font-family="Helvetica,sans-Serif" font-size="10.00" fill="#000000">_per_element</text>
</a>
</g>
</g>
<!-- Node56&#45;&gt;Node57 -->
<g id="edge4" class="edge">
<title>Node56&#45;&gt;Node57</title>
<path fill="none" stroke="#191970" d="M292.0807,-64.5C304.0923,-64.5 316.6938,-64.5 328.8378,-64.5"/>
<polygon fill="#191970" stroke="#191970" points="328.9081,-68.0001 338.9081,-64.5 328.9081,-61.0001 328.9081,-68.0001"/>
</g>
<!-- Node59 -->
<g id="node7" class="node">
<title>Node59</title>
<g id="a_node7"><a xlink:href="classneon_1_1solid_1_1femSubmesh.html#afa388c49be3b7e286237b363bb30551d" target="_top" xlink:title="neon::solid::femSubmesh\l::local_deformation_gradient">
<polygon fill="#ffffff" stroke="#000000" points="328,-.5 328,-30.5 467,-30.5 467,-.5 328,-.5"/>
<text text-anchor="start" x="336" y="-18.5" font-family="Helvetica,sans-Serif" font-size="10.00" fill="#000000">neon::solid::femSubmesh</text>
<text text-anchor="middle" x="397.5" y="-7.5" font-family="Helvetica,sans-Serif" font-size="10.00" fill="#000000">::local_deformation_gradient</text>
</a>
</g>
</g>
<!-- Node56&#45;&gt;Node59 -->
<g id="edge6" class="edge">
<title>Node56&#45;&gt;Node59</title>
<path fill="none" stroke="#191970" d="M280.2387,-49.3986C297.8011,-44.3215 317.5591,-38.6098 335.7802,-33.3423"/>
<polygon fill="#191970" stroke="#191970" points="336.7992,-36.6911 345.4338,-30.5516 334.8552,-29.9665 336.7992,-36.6911"/>
</g>
<!-- Node60 -->
<g id="node8" class="node">
<title>Node60</title>
<g id="a_node8"><a xlink:href="classneon_1_1solid_1_1femSubmesh.html#abfcb47594fe901d00dc48b6550fe124b" target="_top" xlink:title="neon::solid::femSubmesh\l::offset">
<polygon fill="#ffffff" stroke="#000000" points="333.5,-98.5 333.5,-128.5 461.5,-128.5 461.5,-98.5 333.5,-98.5"/>
<text text-anchor="start" x="341.5" y="-116.5" font-family="Helvetica,sans-Serif" font-size="10.00" fill="#000000">neon::solid::femSubmesh</text>
<text text-anchor="middle" x="397.5" y="-105.5" font-family="Helvetica,sans-Serif" font-size="10.00" fill="#000000">::offset</text>
</a>
</g>
</g>
<!-- Node56&#45;&gt;Node60 -->
<g id="edge7" class="edge">
<title>Node56&#45;&gt;Node60</title>
<path fill="none" stroke="#191970" d="M280.2387,-79.6014C297.8011,-84.6785 317.5591,-90.3902 335.7802,-95.6577"/>
<polygon fill="#191970" stroke="#191970" points="334.8552,-99.0335 345.4338,-98.4484 336.7992,-92.3089 334.8552,-99.0335"/>
</g>
<!-- Node58 -->
<g id="node6" class="node">
<title>Node58</title>
<g id="a_node6"><a xlink:href="classneon_1_1SubMesh.html#a2047359fe78bed483cc5462a9c0e7b42" target="_top" xlink:title="neon::SubMesh::unique\l_connectivities">
<polygon fill="#ffffff" stroke="#000000" points="509,-49.5 509,-79.5 628,-79.5 628,-49.5 509,-49.5"/>
<text text-anchor="start" x="517" y="-67.5" font-family="Helvetica,sans-Serif" font-size="10.00" fill="#000000">neon::SubMesh::unique</text>
<text text-anchor="middle" x="568.5" y="-56.5" font-family="Helvetica,sans-Serif" font-size="10.00" fill="#000000">_connectivities</text>
</a>
</g>
</g>
<!-- Node57&#45;&gt;Node58 -->
<g id="edge5" class="edge">
<title>Node57&#45;&gt;Node58</title>
<path fill="none" stroke="#191970" d="M456.3485,-64.5C470.0309,-64.5 484.725,-64.5 498.8242,-64.5"/>
<polygon fill="#191970" stroke="#191970" points="498.9626,-68.0001 508.9625,-64.5 498.9625,-61.0001 498.9626,-68.0001"/>
</g>
<!-- Node60&#45;&gt;Node54 -->
<g id="edge9" class="edge">
<title>Node60&#45;&gt;Node54</title>
<path fill="none" stroke="#191970" d="M455.8702,-128.5192C471.0294,-132.4198 487.458,-136.6471 502.9594,-140.6357"/>
<polygon fill="#191970" stroke="#191970" points="502.4328,-144.1142 512.9895,-143.2166 504.1772,-137.335 502.4328,-144.1142"/>
</g>
<!-- Node61 -->
<g id="node9" class="node">
<title>Node61</title>
<g id="a_node9"><a xlink:href="classneon_1_1SubMesh.html#af487d15a392b158f57d0de57e761f6d1" target="_top" xlink:title="neon::SubMesh::elements">
<polygon fill="#ffffff" stroke="#000000" points="503,-104 503,-123 634,-123 634,-104 503,-104"/>
<text text-anchor="middle" x="568.5" y="-111" font-family="Helvetica,sans-Serif" font-size="10.00" fill="#000000">neon::SubMesh::elements</text>
</a>
</g>
</g>
<!-- Node60&#45;&gt;Node61 -->
<g id="edge8" class="edge">
<title>Node60&#45;&gt;Node61</title>
<path fill="none" stroke="#191970" d="M461.6606,-113.5C471.7535,-113.5 482.2703,-113.5 492.5979,-113.5"/>
<polygon fill="#191970" stroke="#191970" points="492.8397,-117.0001 502.8397,-113.5 492.8397,-110.0001 492.8397,-117.0001"/>
</g>
</g>
</svg>
        <g id="navigator" transform="translate(0 0)" fill="#404254">
                <rect fill="#f2f5e9" fill-opacity="0.5" stroke="#606060" stroke-width=".5" x="0" y="0" width="60" height="60"/>
                <use id="zoomplus" xlink:href="#zoomPlus" x="17" y="9" onmousedown="handleZoom(evt,'in')"/>
                <use id="zoomminus" xlink:href="#zoomMin" x="42" y="9" onmousedown="handleZoom(evt,'out')"/>
                <use id="reset" xlink:href="#resetDef" x="30" y="36" onmousedown="handleReset()"/>
                <g id="arrowUp" xlink:href="#dirArrow" transform="translate(30 24)" onmousedown="handlePan(0,-1)">
                  <use xlink:href="#rim" fill="#404040">
                        <set attributeName="fill" to="#808080" begin="arrowUp.mouseover" end="arrowUp.mouseout"/>
                  </use>
                  <path fill="none" stroke="white" stroke-width="1.5" d="M0,-3.0v7 M-2.5,-0.5L0,-3.0L2.5,-0.5"/>
                </g>
                <g id="arrowRight" xlink:href="#dirArrow" transform="rotate(90) translate(36 -43)" onmousedown="handlePan(1,0)">
                  <use xlink:href="#rim" fill="#404040">
                        <set attributeName="fill" to="#808080" begin="arrowRight.mouseover" end="arrowRight.mouseout"/>
                  </use>
                  <path fill="none" stroke="white" stroke-width="1.5" d="M0,-3.0v7 M-2.5,-0.5L0,-3.0L2.5,-0.5"/>
                </g>
                <g id="arrowDown" xlink:href="#dirArrow" transform="rotate(180) translate(-30 -48)" onmousedown="handlePan(0,1)">
                  <use xlink:href="#rim" fill="#404040">
                        <set attributeName="fill" to="#808080" begin="arrowDown.mouseover" end="arrowDown.mouseout"/>
                  </use>
                  <path fill="none" stroke="white" stroke-width="1.5" d="M0,-3.0v7 M-2.5,-0.5L0,-3.0L2.5,-0.5"/>
                </g>
                <g id="arrowLeft" xlink:href="#dirArrow" transform="rotate(270) translate(-36 17)" onmousedown="handlePan(-1,0)">
                  <use xlink:href="#rim" fill="#404040">
                        <set attributeName="fill" to="#808080" begin="arrowLeft.mouseover" end="arrowLeft.mouseout"/>
                  </use>
                  <path fill="none" stroke="white" stroke-width="1.5" d="M0,-3.0v7 M-2.5,-0.5L0,-3.0L2.5,-0.5"/>
                </g>
        </g>
        <svg viewBox="0 0 15 15" width="100%" height="30px" preserveAspectRatio="xMaxYMin meet">
         <g id="arrow_out" transform="scale(0.3 0.3)">
          <a xlink:href="classneon_1_1solid_1_1femSubmesh_ad0c267e8fd87a1126c216b21ccfd7b55_cgraph_org.svg" target="_base">
           <rect id="button" ry="5" rx="5" y="6" x="6" height="38" width="38"
                fill="#f2f5e9" fill-opacity="0.5" stroke="#606060" stroke-width="1.0"/>
           <path id="arrow"
             d="M 11.500037,31.436501 C 11.940474,20.09759 22.043105,11.32322 32.158766,21.979434 L 37.068811,17.246167 C 37.068811,17.246167 37.088388,32 37.088388,32 L 22.160133,31.978069 C 22.160133,31.978069 26.997745,27.140456 26.997745,27.140456 C 18.528582,18.264221 13.291696,25.230495 11.500037,31.436501 z"
             style="fill:#404040;"/>
          </a>
         </g>
        </svg>
</svg>
