<?xml version="1.0" encoding="UTF-8" standalone="no"?>
<!DOCTYPE svg PUBLIC "-//W3C//DTD SVG 1.1//EN"
 "http://www.w3.org/Graphics/SVG/1.1/DTD/svg11.dtd">
<!-- Generated by graphviz version 2.40.1 (20161225.0304)
 -->
<!-- Title: neon::solid::femSubmesh::consistent_mass Pages: 1 -->
<svg width="466pt" height="186pt"
 viewBox="0.00 0.00 466.00 186.00" xmlns="http://www.w3.org/2000/svg" xmlns:xlink="http://www.w3.org/1999/xlink">
<g id="graph0" class="graph" transform="scale(1 1) rotate(0) translate(4 182)">
<title>neon::solid::femSubmesh::consistent_mass</title>
<polygon fill="#ffffff" stroke="transparent" points="-4,4 -4,-182 462,-182 462,4 -4,4"/>
<!-- Node10 -->
<g id="node1" class="node">
<title>Node10</title>
<polygon fill="#bfbfbf" stroke="#000000" points="0,-73.5 0,-103.5 128,-103.5 128,-73.5 0,-73.5"/>
<text text-anchor="start" x="8" y="-91.5" font-family="Helvetica,sans-Serif" font-size="10.00" fill="#000000">neon::solid::femSubmesh</text>
<text text-anchor="middle" x="64" y="-80.5" font-family="Helvetica,sans-Serif" font-size="10.00" fill="#000000">::consistent_mass</text>
</g>
<!-- Node11 -->
<g id="node2" class="node">
<title>Node11</title>
<g id="a_node2"><a xlink:href="classneon_1_1SubMesh.html#acacabb1cefbe206b4c2bf9ddade795ed" target="_top" xlink:title="neon::SubMesh::local\l_node_list">
<polygon fill="#ffffff" stroke="#000000" points="178,-147.5 178,-177.5 289,-177.5 289,-147.5 178,-147.5"/>
<text text-anchor="start" x="186" y="-165.5" font-family="Helvetica,sans-Serif" font-size="10.00" fill="#000000">neon::SubMesh::local</text>
<text text-anchor="middle" x="233.5" y="-154.5" font-family="Helvetica,sans-Serif" font-size="10.00" fill="#000000">_node_list</text>
</a>
</g>
</g>
<!-- Node10&#45;&gt;Node11 -->
<g id="edge1" class="edge">
<title>Node10&#45;&gt;Node11</title>
<path fill="none" stroke="#191970" d="M91.5596,-103.5061C111.3915,-113.9999 138.9504,-127.966 164,-138.5 168.4016,-140.351 173.0008,-142.1735 177.6458,-143.9362"/>
<polygon fill="#191970" stroke="#191970" points="176.6027,-147.282 187.196,-147.4607 179.0263,-140.7149 176.6027,-147.282"/>
</g>
<!-- Node12 -->
<g id="node3" class="node">
<title>Node12</title>
<g id="a_node3"><a xlink:href="classneon_1_1SubMesh.html#a95a1ae84508d0006244c248aa50c76b3" target="_top" xlink:title="neon::SubMesh::nodes\l_per_element">
<polygon fill="#ffffff" stroke="#000000" points="175,-98.5 175,-128.5 292,-128.5 292,-98.5 175,-98.5"/>
<text text-anchor="start" x="183" y="-116.5" font-family="Helvetica,sans-Serif" font-size="10.00" fill="#000000">neon::SubMesh::nodes</text>
<text text-anchor="middle" x="233.5" y="-105.5" font-family="Helvetica,sans-Serif" font-size="10.00" fill="#000000">_per_element</text>
</a>
</g>
</g>
<!-- Node10&#45;&gt;Node12 -->
<g id="edge2" class="edge">
<title>Node10&#45;&gt;Node12</title>
<path fill="none" stroke="#191970" d="M128.0807,-97.9514C140.0923,-99.723 152.6938,-101.5817 164.8378,-103.3728"/>
<polygon fill="#191970" stroke="#191970" points="164.5044,-106.8614 174.9081,-104.8581 165.5259,-99.9364 164.5044,-106.8614"/>
</g>
<!-- Node14 -->
<g id="node5" class="node">
<title>Node14</title>
<g id="a_node5"><a xlink:href="classneon_1_1solid_1_1femSubmesh.html#afa388c49be3b7e286237b363bb30551d" target="_top" xlink:title="neon::solid::femSubmesh\l::local_deformation_gradient">
<polygon fill="#ffffff" stroke="#000000" points="164,-49.5 164,-79.5 303,-79.5 303,-49.5 164,-49.5"/>
<text text-anchor="start" x="172" y="-67.5" font-family="Helvetica,sans-Serif" font-size="10.00" fill="#000000">neon::solid::femSubmesh</text>
<text text-anchor="middle" x="233.5" y="-56.5" font-family="Helvetica,sans-Serif" font-size="10.00" fill="#000000">::local_deformation_gradient</text>
</a>
</g>
</g>
<!-- Node10&#45;&gt;Node14 -->
<g id="edge4" class="edge">
<title>Node10&#45;&gt;Node14</title>
<path fill="none" stroke="#191970" d="M128.0807,-79.4266C136.5034,-78.234 145.2163,-77.0004 153.858,-75.7767"/>
<polygon fill="#191970" stroke="#191970" points="154.5378,-79.2155 163.9484,-74.348 153.5564,-72.2846 154.5378,-79.2155"/>
</g>
<!-- Node15 -->
<g id="node6" class="node">
<title>Node15</title>
<g id="a_node6"><a xlink:href="classneon_1_1solid_1_1femSubmesh.html#a2828f622e7e0f2b5c5ab90654fd64de7" target="_top" xlink:title="neon::solid::femSubmesh\l::local_dof_list">
<polygon fill="#ffffff" stroke="#000000" points="169.5,-.5 169.5,-30.5 297.5,-30.5 297.5,-.5 169.5,-.5"/>
<text text-anchor="start" x="177.5" y="-18.5" font-family="Helvetica,sans-Serif" font-size="10.00" fill="#000000">neon::solid::femSubmesh</text>
<text text-anchor="middle" x="233.5" y="-7.5" font-family="Helvetica,sans-Serif" font-size="10.00" fill="#000000">::local_dof_list</text>
</a>
</g>
</g>
<!-- Node10&#45;&gt;Node15 -->
<g id="edge5" class="edge">
<title>Node10&#45;&gt;Node15</title>
<path fill="none" stroke="#191970" d="M93.3933,-73.4129C113.128,-63.5272 139.8407,-50.6123 164,-40.5 169.101,-38.3649 174.4557,-36.2396 179.8338,-34.1816"/>
<polygon fill="#191970" stroke="#191970" points="181.3548,-37.3494 189.49,-30.562 178.8977,-30.7947 181.3548,-37.3494"/>
</g>
<!-- Node13 -->
<g id="node4" class="node">
<title>Node13</title>
<g id="a_node4"><a xlink:href="classneon_1_1SubMesh.html#a2047359fe78bed483cc5462a9c0e7b42" target="_top" xlink:title="neon::SubMesh::unique\l_connectivities">
<polygon fill="#ffffff" stroke="#000000" points="339,-98.5 339,-128.5 458,-128.5 458,-98.5 339,-98.5"/>
<text text-anchor="start" x="347" y="-116.5" font-family="Helvetica,sans-Serif" font-size="10.00" fill="#000000">neon::SubMesh::unique</text>
<text text-anchor="middle" x="398.5" y="-105.5" font-family="Helvetica,sans-Serif" font-size="10.00" fill="#000000">_connectivities</text>
</a>
</g>
</g>
<!-- Node12&#45;&gt;Node13 -->
<g id="edge3" class="edge">
<title>Node12&#45;&gt;Node13</title>
<path fill="none" stroke="#191970" d="M292.1374,-113.5C304.0054,-113.5 316.5943,-113.5 328.8,-113.5"/>
<polygon fill="#191970" stroke="#191970" points="328.9385,-117.0001 338.9385,-113.5 328.9385,-110.0001 328.9385,-117.0001"/>
</g>
</g>
</svg>
