<?xml version="1.0" encoding="UTF-8" standalone="no"?>
<!DOCTYPE svg PUBLIC "-//W3C//DTD SVG 1.1//EN"
 "http://www.w3.org/Graphics/SVG/1.1/DTD/svg11.dtd">
<!-- Generated by graphviz version 2.40.1 (20161225.0304)
 -->
<!-- Title: Graphical Class Hierarchy Pages: 1 -->
<svg width="236pt" height="180pt"
 viewBox="0.00 0.00 236.00 180.00" xmlns="http://www.w3.org/2000/svg" xmlns:xlink="http://www.w3.org/1999/xlink">
<g id="graph0" class="graph" transform="scale(1 1) rotate(0) translate(4 176)">
<title>Graphical Class Hierarchy</title>
<polygon fill="#ffffff" stroke="transparent" points="-4,4 -4,-176 232,-176 232,4 -4,4"/>
<!-- Node0 -->
<g id="node1" class="node">
<title>Node0</title>
<g id="a_node1"><a xlink:href="classneon_1_1LinearSolver.html" target="_top" xlink:title="neon::LinearSolver">
<polygon fill="#ffffff" stroke="#000000" points="0,-76.5 0,-95.5 98,-95.5 98,-76.5 0,-76.5"/>
<text text-anchor="middle" x="49" y="-83.5" font-family="Helvetica,sans-Serif" font-size="10.00" fill="#000000">neon::LinearSolver</text>
</a>
</g>
</g>
<!-- Node1 -->
<g id="node2" class="node">
<title>Node1</title>
<g id="a_node2"><a xlink:href="classneon_1_1BiCGSTAB.html" target="_top" xlink:title="neon::BiCGSTAB">
<polygon fill="#ffffff" stroke="#000000" points="134,-152.5 134,-171.5 228,-171.5 228,-152.5 134,-152.5"/>
<text text-anchor="middle" x="181" y="-159.5" font-family="Helvetica,sans-Serif" font-size="10.00" fill="#000000">neon::BiCGSTAB</text>
</a>
</g>
</g>
<!-- Node0&#45;&gt;Node1 -->
<g id="edge1" class="edge">
<title>Node0&#45;&gt;Node1</title>
<path fill="none" stroke="#191970" d="M69.9099,-101.806C86.667,-114.0263 111.0851,-130.8527 134,-143 140.532,-146.4627 147.8377,-149.6986 154.706,-152.4838"/>
<polygon fill="#191970" stroke="#191970" points="71.5687,-98.6798 61.4468,-95.5498 67.4076,-104.3088 71.5687,-98.6798"/>
</g>
<!-- Node2 -->
<g id="node3" class="node">
<title>Node2</title>
<g id="a_node3"><a xlink:href="classneon_1_1MUMPS.html" target="_top" xlink:title="neon::MUMPS">
<polygon fill="#ffffff" stroke="#000000" points="140.5,-114.5 140.5,-133.5 221.5,-133.5 221.5,-114.5 140.5,-114.5"/>
<text text-anchor="middle" x="181" y="-121.5" font-family="Helvetica,sans-Serif" font-size="10.00" fill="#000000">neon::MUMPS</text>
</a>
</g>
</g>
<!-- Node0&#45;&gt;Node2 -->
<g id="edge2" class="edge">
<title>Node0&#45;&gt;Node2</title>
<path fill="none" stroke="#191970" d="M92.0409,-98.3906C110.1177,-103.5945 130.8195,-109.5541 147.7015,-114.4141"/>
<polygon fill="#191970" stroke="#191970" points="92.8872,-94.9921 82.3092,-95.589 90.9506,-101.7189 92.8872,-94.9921"/>
</g>
<!-- Node3 -->
<g id="node4" class="node">
<title>Node3</title>
<g id="a_node4"><a xlink:href="classneon_1_1PaStiX.html" target="_top" xlink:title="neon::PaStiX">
<polygon fill="#ffffff" stroke="#000000" points="144,-76.5 144,-95.5 218,-95.5 218,-76.5 144,-76.5"/>
<text text-anchor="middle" x="181" y="-83.5" font-family="Helvetica,sans-Serif" font-size="10.00" fill="#000000">neon::PaStiX</text>
</a>
</g>
</g>
<!-- Node0&#45;&gt;Node3 -->
<g id="edge3" class="edge">
<title>Node0&#45;&gt;Node3</title>
<path fill="none" stroke="#191970" d="M108.2059,-86C120.3043,-86 132.7104,-86 143.7749,-86"/>
<polygon fill="#191970" stroke="#191970" points="108.152,-82.5001 98.1519,-86 108.1519,-89.5001 108.152,-82.5001"/>
</g>
<!-- Node4 -->
<g id="node5" class="node">
<title>Node4</title>
<g id="a_node5"><a xlink:href="classneon_1_1pCG.html" target="_top" xlink:title="neon::pCG">
<polygon fill="#ffffff" stroke="#000000" points="149,-38.5 149,-57.5 213,-57.5 213,-38.5 149,-38.5"/>
<text text-anchor="middle" x="181" y="-45.5" font-family="Helvetica,sans-Serif" font-size="10.00" fill="#000000">neon::pCG</text>
</a>
</g>
</g>
<!-- Node0&#45;&gt;Node4 -->
<g id="edge4" class="edge">
<title>Node0&#45;&gt;Node4</title>
<path fill="none" stroke="#191970" d="M91.9393,-73.6387C110.367,-68.3337 131.5382,-62.239 148.6141,-57.3232"/>
<polygon fill="#191970" stroke="#191970" points="90.9506,-70.2811 82.3092,-76.411 92.8872,-77.0079 90.9506,-70.2811"/>
</g>
<!-- Node5 -->
<g id="node6" class="node">
<title>Node5</title>
<g id="a_node6"><a xlink:href="classneon_1_1SparseLU.html" target="_top" xlink:title="neon::SparseLU">
<polygon fill="#ffffff" stroke="#000000" points="137.5,-.5 137.5,-19.5 224.5,-19.5 224.5,-.5 137.5,-.5"/>
<text text-anchor="middle" x="181" y="-7.5" font-family="Helvetica,sans-Serif" font-size="10.00" fill="#000000">neon::SparseLU</text>
</a>
</g>
</g>
<!-- Node0&#45;&gt;Node5 -->
<g id="edge5" class="edge">
<title>Node0&#45;&gt;Node5</title>
<path fill="none" stroke="#191970" d="M69.9099,-70.194C86.667,-57.9737 111.0851,-41.1473 134,-29 140.532,-25.5373 147.8377,-22.3014 154.706,-19.5162"/>
<polygon fill="#191970" stroke="#191970" points="67.4076,-67.6912 61.4468,-76.4502 71.5687,-73.3202 67.4076,-67.6912"/>
</g>
</g>
</svg>
