<?xml version="1.0" encoding="UTF-8" standalone="no"?>
<!DOCTYPE svg PUBLIC "-//W3C//DTD SVG 1.1//EN"
 "http://www.w3.org/Graphics/SVG/1.1/DTD/svg11.dtd">
<!-- Generated by graphviz version 2.40.1 (20161225.0304)
 -->
<!-- Title: Graphical Class Hierarchy Pages: 1 -->
<svg width="393pt" height="630pt"
 viewBox="0.00 0.00 393.00 630.00" xmlns="http://www.w3.org/2000/svg" xmlns:xlink="http://www.w3.org/1999/xlink">
<g id="graph0" class="graph" transform="scale(1 1) rotate(0) translate(4 626)">
<title>Graphical Class Hierarchy</title>
<polygon fill="#ffffff" stroke="transparent" points="-4,4 -4,-626 389,-626 389,4 -4,4"/>
<!-- Node45 -->
<g id="node1" class="node">
<title>Node45</title>
<polygon fill="#ffffff" stroke="#bfbfbf" points="0,-312.5 0,-331.5 59,-331.5 59,-312.5 0,-312.5"/>
<text text-anchor="middle" x="29.5" y="-319.5" font-family="Helvetica,sans-Serif" font-size="10.00" fill="#000000">exception</text>
</g>
<!-- Node0 -->
<g id="node2" class="node">
<title>Node0</title>
<g id="a_node2"><a xlink:href="classneon_1_1Exception.html" target="_top" xlink:title="neon::Exception">
<polygon fill="#ffffff" stroke="#000000" points="95,-312.5 95,-331.5 182,-331.5 182,-312.5 95,-312.5"/>
<text text-anchor="middle" x="138.5" y="-319.5" font-family="Helvetica,sans-Serif" font-size="10.00" fill="#000000">neon::Exception</text>
</a>
</g>
</g>
<!-- Node45&#45;&gt;Node0 -->
<g id="edge1" class="edge">
<title>Node45&#45;&gt;Node0</title>
<path fill="none" stroke="#191970" d="M69.4376,-322C77.7067,-322 86.4585,-322 94.8524,-322"/>
<polygon fill="#191970" stroke="#191970" points="69.2848,-318.5001 59.2847,-322 69.2847,-325.5001 69.2848,-318.5001"/>
</g>
<!-- Node1 -->
<g id="node3" class="node">
<title>Node1</title>
<g id="a_node3"><a xlink:href="classneon_1_1DistortedElement.html" target="_top" xlink:title="neon::DistortedElement">
<polygon fill="#ffffff" stroke="#000000" points="242,-602.5 242,-621.5 361,-621.5 361,-602.5 242,-602.5"/>
<text text-anchor="middle" x="301.5" y="-609.5" font-family="Helvetica,sans-Serif" font-size="10.00" fill="#000000">neon::DistortedElement</text>
</a>
</g>
</g>
<!-- Node0&#45;&gt;Node1 -->
<g id="edge2" class="edge">
<title>Node0&#45;&gt;Node1</title>
<path fill="none" stroke="#191970" d="M141.6409,-341.6651C151.0155,-397.9212 180.4866,-557.7297 218,-593 224.7155,-599.314 233.0759,-603.684 241.8904,-606.6814"/>
<polygon fill="#191970" stroke="#191970" points="145.061,-340.8914 139.9935,-331.5871 138.1527,-342.0208 145.061,-340.8914"/>
</g>
<!-- Node2 -->
<g id="node4" class="node">
<title>Node2</title>
<g id="a_node4"><a xlink:href="classneon_1_1DuplicateNameException.html" target="_top" xlink:title="neon::DuplicateNameException">
<polygon fill="#ffffff" stroke="#000000" points="224,-564.5 224,-583.5 379,-583.5 379,-564.5 224,-564.5"/>
<text text-anchor="middle" x="301.5" y="-571.5" font-family="Helvetica,sans-Serif" font-size="10.00" fill="#000000">neon::DuplicateNameException</text>
</a>
</g>
</g>
<!-- Node0&#45;&gt;Node2 -->
<g id="edge3" class="edge">
<title>Node0&#45;&gt;Node2</title>
<path fill="none" stroke="#191970" d="M142.606,-341.5342C153.6207,-392.1184 185.2168,-525.4926 218,-555 222.1991,-558.7795 226.9914,-561.8556 232.1082,-564.3538"/>
<polygon fill="#191970" stroke="#191970" points="145.9861,-340.6032 140.4684,-331.5585 139.1414,-342.0699 145.9861,-340.6032"/>
</g>
<!-- Node3 -->
<g id="node5" class="node">
<title>Node3</title>
<g id="a_node5"><a xlink:href="classneon_1_1EmptyFieldException.html" target="_top" xlink:title="neon::EmptyFieldException">
<polygon fill="#ffffff" stroke="#000000" points="233,-526.5 233,-545.5 370,-545.5 370,-526.5 233,-526.5"/>
<text text-anchor="middle" x="301.5" y="-533.5" font-family="Helvetica,sans-Serif" font-size="10.00" fill="#000000">neon::EmptyFieldException</text>
</a>
</g>
</g>
<!-- Node0&#45;&gt;Node3 -->
<g id="edge4" class="edge">
<title>Node0&#45;&gt;Node3</title>
<path fill="none" stroke="#191970" d="M140.6161,-341.9644C145.9342,-381.7 163.5907,-470.8259 218,-517 222.5342,-520.8479 227.69,-523.9572 233.1625,-526.4647"/>
<polygon fill="#191970" stroke="#191970" points="144.0785,-341.4423 139.4006,-331.9361 137.1294,-342.2846 144.0785,-341.4423"/>
</g>
<!-- Node4 -->
<g id="node6" class="node">
<title>Node4</title>
<g id="a_node6"><a xlink:href="classneon_1_1InvalidElementCodeException.html" target="_top" xlink:title="neon::InvalidElementCode\lException">
<polygon fill="#ffffff" stroke="#000000" points="236,-477 236,-507 367,-507 367,-477 236,-477"/>
<text text-anchor="start" x="244" y="-495" font-family="Helvetica,sans-Serif" font-size="10.00" fill="#000000">neon::InvalidElementCode</text>
<text text-anchor="middle" x="301.5" y="-484" font-family="Helvetica,sans-Serif" font-size="10.00" fill="#000000">Exception</text>
</a>
</g>
</g>
<!-- Node0&#45;&gt;Node4 -->
<g id="edge5" class="edge">
<title>Node0&#45;&gt;Node4</title>
<path fill="none" stroke="#191970" d="M143.8979,-341.4812C153.5347,-372.6392 176.6674,-433.5696 218,-467 223.2945,-471.2823 229.3078,-474.8316 235.6234,-477.7732"/>
<polygon fill="#191970" stroke="#191970" points="147.2278,-340.3989 141.0443,-331.7957 140.5132,-342.3772 147.2278,-340.3989"/>
</g>
<!-- Node5 -->
<g id="node7" class="node">
<title>Node5</title>
<g id="a_node7"><a xlink:href="classneon_1_1InvalidExtensionException.html" target="_top" xlink:title="neon::InvalidExtensionException">
<polygon fill="#ffffff" stroke="#000000" points="222,-438.5 222,-457.5 381,-457.5 381,-438.5 222,-438.5"/>
<text text-anchor="middle" x="301.5" y="-445.5" font-family="Helvetica,sans-Serif" font-size="10.00" fill="#000000">neon::InvalidExtensionException</text>
</a>
</g>
</g>
<!-- Node0&#45;&gt;Node5 -->
<g id="edge6" class="edge">
<title>Node0&#45;&gt;Node5</title>
<path fill="none" stroke="#191970" d="M147.3355,-341.0799C159.6281,-365.42 184.2438,-406.9916 218,-429 223.9779,-432.8975 230.6496,-436.0013 237.5448,-438.4722"/>
<polygon fill="#191970" stroke="#191970" points="150.3499,-339.2752 142.831,-331.8108 144.054,-342.3348 150.3499,-339.2752"/>
</g>
<!-- Node6 -->
<g id="node8" class="node">
<title>Node6</title>
<g id="a_node8"><a xlink:href="classneon_1_1JsonFileParseException.html" target="_top" xlink:title="neon::JsonFileParseException">
<polygon fill="#ffffff" stroke="#000000" points="227,-400.5 227,-419.5 376,-419.5 376,-400.5 227,-400.5"/>
<text text-anchor="middle" x="301.5" y="-407.5" font-family="Helvetica,sans-Serif" font-size="10.00" fill="#000000">neon::JsonFileParseException</text>
</a>
</g>
</g>
<!-- Node0&#45;&gt;Node6 -->
<g id="edge7" class="edge">
<title>Node0&#45;&gt;Node6</title>
<path fill="none" stroke="#191970" d="M153.5794,-339.2491C168.4019,-355.1037 192.46,-378.0499 218,-391 225.6908,-394.8996 234.1827,-398.0075 242.7181,-400.4822"/>
<polygon fill="#191970" stroke="#191970" points="156.0281,-336.7395 146.7112,-331.6951 150.8488,-341.4486 156.0281,-336.7395"/>
</g>
<!-- Node7 -->
<g id="node9" class="node">
<title>Node7</title>
<g id="a_node9"><a xlink:href="classneon_1_1KeyNotFoundInMap.html" target="_top" xlink:title="neon::KeyNotFoundInMap\l\&lt; KeyTp \&gt;">
<polygon fill="#ffffff" stroke="#000000" points="236,-351 236,-381 367,-381 367,-351 236,-351"/>
<text text-anchor="start" x="244" y="-369" font-family="Helvetica,sans-Serif" font-size="10.00" fill="#000000">neon::KeyNotFoundInMap</text>
<text text-anchor="middle" x="301.5" y="-358" font-family="Helvetica,sans-Serif" font-size="10.00" fill="#000000">&lt; KeyTp &gt;</text>
</a>
</g>
</g>
<!-- Node0&#45;&gt;Node7 -->
<g id="edge8" class="edge">
<title>Node0&#45;&gt;Node7</title>
<path fill="none" stroke="#191970" d="M183.5796,-334.1687C202.8012,-339.3574 225.4256,-345.4646 245.6897,-350.9346"/>
<polygon fill="#191970" stroke="#191970" points="184.4352,-330.7745 173.8686,-331.5473 182.6109,-337.5326 184.4352,-330.7745"/>
</g>
<!-- Node8 -->
<g id="node10" class="node">
<title>Node8</title>
<g id="a_node10"><a xlink:href="classneon_1_1MaterialPropertyException.html" target="_top" xlink:title="neon::MaterialPropertyException">
<polygon fill="#ffffff" stroke="#000000" points="222.5,-312.5 222.5,-331.5 380.5,-331.5 380.5,-312.5 222.5,-312.5"/>
<text text-anchor="middle" x="301.5" y="-319.5" font-family="Helvetica,sans-Serif" font-size="10.00" fill="#000000">neon::MaterialPropertyException</text>
</a>
</g>
</g>
<!-- Node0&#45;&gt;Node8 -->
<g id="edge9" class="edge">
<title>Node0&#45;&gt;Node8</title>
<path fill="none" stroke="#191970" d="M192.3904,-322C202.0385,-322 212.2721,-322 222.4545,-322"/>
<polygon fill="#191970" stroke="#191970" points="192.181,-318.5001 182.181,-322 192.181,-325.5001 192.181,-318.5001"/>
</g>
<!-- Node9 -->
<g id="node11" class="node">
<title>Node9</title>
<g id="a_node11"><a xlink:href="classneon_1_1NegativeElementAreaException.html" target="_top" xlink:title="neon::NegativeElementArea\lException">
<polygon fill="#ffffff" stroke="#000000" points="232,-263 232,-293 371,-293 371,-263 232,-263"/>
<text text-anchor="start" x="240" y="-281" font-family="Helvetica,sans-Serif" font-size="10.00" fill="#000000">neon::NegativeElementArea</text>
<text text-anchor="middle" x="301.5" y="-270" font-family="Helvetica,sans-Serif" font-size="10.00" fill="#000000">Exception</text>
</a>
</g>
</g>
<!-- Node0&#45;&gt;Node9 -->
<g id="edge10" class="edge">
<title>Node0&#45;&gt;Node9</title>
<path fill="none" stroke="#191970" d="M183.5796,-309.8313C202.8012,-304.6426 225.4256,-298.5354 245.6897,-293.0654"/>
<polygon fill="#191970" stroke="#191970" points="182.6109,-306.4674 173.8686,-312.4527 184.4352,-313.2255 182.6109,-306.4674"/>
</g>
<!-- Node10 -->
<g id="node12" class="node">
<title>Node10</title>
<g id="a_node12"><a xlink:href="classneon_1_1NoInputException.html" target="_top" xlink:title="neon::NoInputException">
<polygon fill="#ffffff" stroke="#000000" points="240.5,-224.5 240.5,-243.5 362.5,-243.5 362.5,-224.5 240.5,-224.5"/>
<text text-anchor="middle" x="301.5" y="-231.5" font-family="Helvetica,sans-Serif" font-size="10.00" fill="#000000">neon::NoInputException</text>
</a>
</g>
</g>
<!-- Node0&#45;&gt;Node10 -->
<g id="edge11" class="edge">
<title>Node0&#45;&gt;Node10</title>
<path fill="none" stroke="#191970" d="M153.663,-305.0731C168.5455,-289.5001 192.645,-266.9223 218,-254 226.4999,-249.668 235.9687,-246.252 245.3905,-243.5647"/>
<polygon fill="#191970" stroke="#191970" points="151.0117,-302.7844 146.7627,-312.49 156.1368,-307.5525 151.0117,-302.7844"/>
</g>
<!-- Node11 -->
<g id="node13" class="node">
<title>Node11</title>
<g id="a_node13"><a xlink:href="classneon_1_1PartNameException.html" target="_top" xlink:title="neon::PartNameException">
<polygon fill="#ffffff" stroke="#000000" points="236,-186.5 236,-205.5 367,-205.5 367,-186.5 236,-186.5"/>
<text text-anchor="middle" x="301.5" y="-193.5" font-family="Helvetica,sans-Serif" font-size="10.00" fill="#000000">neon::PartNameException</text>
</a>
</g>
</g>
<!-- Node0&#45;&gt;Node11 -->
<g id="edge12" class="edge">
<title>Node0&#45;&gt;Node11</title>
<path fill="none" stroke="#191970" d="M147.3355,-302.9201C159.6281,-278.58 184.2438,-237.0084 218,-215 223.9779,-211.1025 230.6496,-207.9987 237.5448,-205.5278"/>
<polygon fill="#191970" stroke="#191970" points="144.054,-301.6652 142.831,-312.1892 150.3499,-304.7248 144.054,-301.6652"/>
</g>
<!-- Node12 -->
<g id="node14" class="node">
<title>Node12</title>
<g id="a_node14"><a xlink:href="classneon_1_1UnknownBoundaryTypeException.html" target="_top" xlink:title="neon::UnknownBoundaryType\lException">
<polygon fill="#ffffff" stroke="#000000" points="227.5,-137 227.5,-167 375.5,-167 375.5,-137 227.5,-137"/>
<text text-anchor="start" x="235.5" y="-155" font-family="Helvetica,sans-Serif" font-size="10.00" fill="#000000">neon::UnknownBoundaryType</text>
<text text-anchor="middle" x="301.5" y="-144" font-family="Helvetica,sans-Serif" font-size="10.00" fill="#000000">Exception</text>
</a>
</g>
</g>
<!-- Node0&#45;&gt;Node12 -->
<g id="edge13" class="edge">
<title>Node0&#45;&gt;Node12</title>
<path fill="none" stroke="#191970" d="M143.8979,-302.5188C153.5347,-271.3608 176.6674,-210.4304 218,-177 222.8239,-173.0984 228.2444,-169.8052 233.9467,-167.0257"/>
<polygon fill="#191970" stroke="#191970" points="140.5132,-301.6228 141.0443,-312.2043 147.2278,-303.6011 140.5132,-301.6228"/>
</g>
<!-- Node13 -->
<g id="node15" class="node">
<title>Node13</title>
<g id="a_node15"><a xlink:href="classneon_1_1UnknownElementTypeException.html" target="_top" xlink:title="neon::UnknownElementType\lException">
<polygon fill="#ffffff" stroke="#000000" points="230,-88 230,-118 373,-118 373,-88 230,-88"/>
<text text-anchor="start" x="238" y="-106" font-family="Helvetica,sans-Serif" font-size="10.00" fill="#000000">neon::UnknownElementType</text>
<text text-anchor="middle" x="301.5" y="-95" font-family="Helvetica,sans-Serif" font-size="10.00" fill="#000000">Exception</text>
</a>
</g>
</g>
<!-- Node0&#45;&gt;Node13 -->
<g id="edge14" class="edge">
<title>Node0&#45;&gt;Node13</title>
<path fill="none" stroke="#191970" d="M140.9536,-302.1881C146.855,-263.076 165.4739,-175.6146 218,-128 222.2604,-124.138 227.0958,-120.8717 232.2416,-118.1093"/>
<polygon fill="#191970" stroke="#191970" points="137.462,-301.8868 139.5573,-312.2724 144.3958,-302.8469 137.462,-301.8868"/>
</g>
<!-- Node14 -->
<g id="node16" class="node">
<title>Node14</title>
<g id="a_node16"><a xlink:href="classneon_1_1UnknownOutputRequestException.html" target="_top" xlink:title="neon::UnknownOutputRequest\lException">
<polygon fill="#ffffff" stroke="#000000" points="226,-39 226,-69 377,-69 377,-39 226,-39"/>
<text text-anchor="start" x="234" y="-57" font-family="Helvetica,sans-Serif" font-size="10.00" fill="#000000">neon::UnknownOutputRequest</text>
<text text-anchor="middle" x="301.5" y="-46" font-family="Helvetica,sans-Serif" font-size="10.00" fill="#000000">Exception</text>
</a>
</g>
</g>
<!-- Node0&#45;&gt;Node14 -->
<g id="edge15" class="edge">
<title>Node0&#45;&gt;Node14</title>
<path fill="none" stroke="#191970" d="M142.4617,-302.4435C153.3402,-250.5469 185.0604,-111.1173 218,-79 222.0088,-75.0913 226.603,-71.7902 231.5298,-69.0028"/>
<polygon fill="#191970" stroke="#191970" points="139.0053,-301.8754 140.4115,-312.3765 145.8608,-303.2905 139.0053,-301.8754"/>
</g>
<!-- Node15 -->
<g id="node17" class="node">
<title>Node15</title>
<g id="a_node17"><a xlink:href="classneon_1_1UnknownScenarioException.html" target="_top" xlink:title="neon::UnknownScenarioException">
<polygon fill="#ffffff" stroke="#000000" points="218,-.5 218,-19.5 385,-19.5 385,-.5 218,-.5"/>
<text text-anchor="middle" x="301.5" y="-7.5" font-family="Helvetica,sans-Serif" font-size="10.00" fill="#000000">neon::UnknownScenarioException</text>
</a>
</g>
</g>
<!-- Node0&#45;&gt;Node15 -->
<g id="edge16" class="edge">
<title>Node0&#45;&gt;Node15</title>
<path fill="none" stroke="#191970" d="M141.2136,-302.3952C149.7772,-243.3256 178.0483,-68.7426 218,-30 222.3875,-25.7453 227.5114,-22.3404 233.0233,-19.6223"/>
<polygon fill="#191970" stroke="#191970" points="137.7465,-301.9166 139.8056,-312.3094 144.677,-302.9009 137.7465,-301.9166"/>
</g>
</g>
</svg>
