<?xml version="1.0" encoding="UTF-8" standalone="no"?>
<!DOCTYPE svg PUBLIC "-//W3C//DTD SVG 1.1//EN"
 "http://www.w3.org/Graphics/SVG/1.1/DTD/svg11.dtd">
<!-- Generated by graphviz version 2.40.1 (20161225.0304)
 -->
<!-- Title: Graphical Class Hierarchy Pages: 1 -->
<svg width="323pt" height="66pt"
 viewBox="0.00 0.00 323.00 66.00" xmlns="http://www.w3.org/2000/svg" xmlns:xlink="http://www.w3.org/1999/xlink">
<g id="graph0" class="graph" transform="scale(1 1) rotate(0) translate(4 62)">
<title>Graphical Class Hierarchy</title>
<polygon fill="#ffffff" stroke="transparent" points="-4,4 -4,-62 319,-62 319,4 -4,4"/>
<!-- Node0 -->
<g id="node1" class="node">
<title>Node0</title>
<g id="a_node1"><a xlink:href="classneon_1_1NodalCoordinates.html" target="_top" xlink:title="neon::NodalCoordinates">
<polygon fill="#ffffff" stroke="#000000" points="0,-19.5 0,-38.5 122,-38.5 122,-19.5 0,-19.5"/>
<text text-anchor="middle" x="61" y="-26.5" font-family="Helvetica,sans-Serif" font-size="10.00" fill="#000000">neon::NodalCoordinates</text>
</a>
</g>
</g>
<!-- Node1 -->
<g id="node2" class="node">
<title>Node1</title>
<g id="a_node2"><a xlink:href="classneon_1_1BasicMesh.html" target="_top" xlink:title="neon::BasicMesh">
<polygon fill="#ffffff" stroke="#000000" points="190.5,-38.5 190.5,-57.5 282.5,-57.5 282.5,-38.5 190.5,-38.5"/>
<text text-anchor="middle" x="236.5" y="-45.5" font-family="Helvetica,sans-Serif" font-size="10.00" fill="#000000">neon::BasicMesh</text>
</a>
</g>
</g>
<!-- Node0&#45;&gt;Node1 -->
<g id="edge1" class="edge">
<title>Node0&#45;&gt;Node1</title>
<path fill="none" stroke="#191970" d="M132.474,-36.7379C152.0093,-38.8529 172.66,-41.0885 190.3679,-43.0056"/>
<polygon fill="#191970" stroke="#191970" points="132.7,-33.242 122.3814,-35.6453 131.9465,-40.2014 132.7,-33.242"/>
</g>
<!-- Node2 -->
<g id="node3" class="node">
<title>Node2</title>
<g id="a_node3"><a xlink:href="classneon_1_1solid_1_1MaterialCoordinates.html" target="_top" xlink:title="neon::solid::MaterialCoordinates">
<polygon fill="#ffffff" stroke="#000000" points="158,-.5 158,-19.5 315,-19.5 315,-.5 158,-.5"/>
<text text-anchor="middle" x="236.5" y="-7.5" font-family="Helvetica,sans-Serif" font-size="10.00" fill="#000000">neon::solid::MaterialCoordinates</text>
</a>
</g>
</g>
<!-- Node0&#45;&gt;Node2 -->
<g id="edge2" class="edge">
<title>Node0&#45;&gt;Node2</title>
<path fill="none" stroke="#191970" d="M132.4692,-21.2626C140.8403,-20.3563 149.4162,-19.4279 157.8777,-18.5118"/>
<polygon fill="#191970" stroke="#191970" points="131.9465,-17.7986 122.3814,-22.3547 132.7,-24.758 131.9465,-17.7986"/>
</g>
</g>
</svg>
