<?xml version="1.0" encoding="UTF-8" standalone="no"?>
<!DOCTYPE svg PUBLIC "-//W3C//DTD SVG 1.1//EN"
 "http://www.w3.org/Graphics/SVG/1.1/DTD/svg11.dtd">
<!-- Generated by graphviz version 2.40.1 (20161225.0304)
 -->
<!-- Title: Graphical Class Hierarchy Pages: 1 -->
<svg width="419pt" height="66pt"
 viewBox="0.00 0.00 419.00 66.00" xmlns="http://www.w3.org/2000/svg" xmlns:xlink="http://www.w3.org/1999/xlink">
<g id="graph0" class="graph" transform="scale(1 1) rotate(0) translate(4 62)">
<title>Graphical Class Hierarchy</title>
<polygon fill="#ffffff" stroke="transparent" points="-4,4 -4,-62 415,-62 415,4 -4,4"/>
<!-- Node0 -->
<g id="node1" class="node">
<title>Node0</title>
<g id="a_node1"><a xlink:href="classneon_1_1Material.html" target="_top" xlink:title="neon::Material">
<polygon fill="#ffffff" stroke="#000000" points="0,-19.5 0,-38.5 78,-38.5 78,-19.5 0,-19.5"/>
<text text-anchor="middle" x="39" y="-26.5" font-family="Helvetica,sans-Serif" font-size="10.00" fill="#000000">neon::Material</text>
</a>
</g>
</g>
<!-- Node1 -->
<g id="node2" class="node">
<title>Node1</title>
<g id="a_node2"><a xlink:href="classneon_1_1LinearElastic.html" target="_top" xlink:title="neon::LinearElastic">
<polygon fill="#ffffff" stroke="#000000" points="114,-19.5 114,-38.5 214,-38.5 214,-19.5 114,-19.5"/>
<text text-anchor="middle" x="164" y="-26.5" font-family="Helvetica,sans-Serif" font-size="10.00" fill="#000000">neon::LinearElastic</text>
</a>
</g>
</g>
<!-- Node0&#45;&gt;Node1 -->
<g id="edge1" class="edge">
<title>Node0&#45;&gt;Node1</title>
<path fill="none" stroke="#191970" d="M88.272,-29C96.6953,-29 105.4545,-29 113.899,-29"/>
<polygon fill="#191970" stroke="#191970" points="88.2079,-25.5001 78.2078,-29 88.2078,-32.5001 88.2079,-25.5001"/>
</g>
<!-- Node2 -->
<g id="node3" class="node">
<title>Node2</title>
<g id="a_node3"><a xlink:href="classneon_1_1IsotropicElasticPlastic.html" target="_top" xlink:title="neon::IsotropicElasticPlastic">
<polygon fill="#ffffff" stroke="#000000" points="260,-38.5 260,-57.5 401,-57.5 401,-38.5 260,-38.5"/>
<text text-anchor="middle" x="330.5" y="-45.5" font-family="Helvetica,sans-Serif" font-size="10.00" fill="#000000">neon::IsotropicElasticPlastic</text>
</a>
</g>
</g>
<!-- Node1&#45;&gt;Node2 -->
<g id="edge2" class="edge">
<title>Node1&#45;&gt;Node2</title>
<path fill="none" stroke="#191970" d="M224.3797,-35.8902C235.9428,-37.2097 248.1441,-38.602 259.9927,-39.9541"/>
<polygon fill="#191970" stroke="#191970" points="224.7397,-32.4086 214.4073,-34.7522 223.946,-39.3635 224.7397,-32.4086"/>
</g>
<!-- Node3 -->
<g id="node4" class="node">
<title>Node3</title>
<g id="a_node4"><a xlink:href="classneon_1_1MicromechanicalElastomer.html" target="_top" xlink:title="neon::MicromechanicalElastomer">
<polygon fill="#ffffff" stroke="#000000" points="250,-.5 250,-19.5 411,-19.5 411,-.5 250,-.5"/>
<text text-anchor="middle" x="330.5" y="-7.5" font-family="Helvetica,sans-Serif" font-size="10.00" fill="#000000">neon::MicromechanicalElastomer</text>
</a>
</g>
</g>
<!-- Node1&#45;&gt;Node3 -->
<g id="edge3" class="edge">
<title>Node1&#45;&gt;Node3</title>
<path fill="none" stroke="#191970" d="M224.604,-22.0842C232.8092,-21.1479 241.332,-20.1753 249.8191,-19.2068"/>
<polygon fill="#191970" stroke="#191970" points="223.946,-18.6365 214.4073,-23.2478 224.7397,-25.5914 223.946,-18.6365"/>
</g>
</g>
</svg>
