<?xml version="1.0" encoding="UTF-8" standalone="no"?>
<!DOCTYPE svg PUBLIC "-//W3C//DTD SVG 1.1//EN"
 "http://www.w3.org/Graphics/SVG/1.1/DTD/svg11.dtd">
<!-- Generated by graphviz version 2.40.1 (20161225.0304)
 -->
<!-- Title: Graphical Class Hierarchy Pages: 1 -->
<svg width="431pt" height="104pt"
 viewBox="0.00 0.00 431.00 104.00" xmlns="http://www.w3.org/2000/svg" xmlns:xlink="http://www.w3.org/1999/xlink">
<g id="graph0" class="graph" transform="scale(1 1) rotate(0) translate(4 100)">
<title>Graphical Class Hierarchy</title>
<polygon fill="#ffffff" stroke="transparent" points="-4,4 -4,-100 427,-100 427,4 -4,4"/>
<!-- Node0 -->
<g id="node1" class="node">
<title>Node0</title>
<g id="a_node1"><a xlink:href="classneon_1_1ShapeFunction.html" target="_top" xlink:title="neon::ShapeFunction\l\&lt; SurfaceQuadrature \&gt;">
<polygon fill="#ffffff" stroke="#000000" points="0,-33 0,-63 116,-63 116,-33 0,-33"/>
<text text-anchor="start" x="8" y="-51" font-family="Helvetica,sans-Serif" font-size="10.00" fill="#000000">neon::ShapeFunction</text>
<text text-anchor="middle" x="58" y="-40" font-family="Helvetica,sans-Serif" font-size="10.00" fill="#000000">&lt; SurfaceQuadrature &gt;</text>
</a>
</g>
</g>
<!-- Node1 -->
<g id="node2" class="node">
<title>Node1</title>
<g id="a_node2"><a xlink:href="classneon_1_1SurfaceInterpolation.html" target="_top" xlink:title="neon::SurfaceInterpolation">
<polygon fill="#ffffff" stroke="#000000" points="152,-38.5 152,-57.5 283,-57.5 283,-38.5 152,-38.5"/>
<text text-anchor="middle" x="217.5" y="-45.5" font-family="Helvetica,sans-Serif" font-size="10.00" fill="#000000">neon::SurfaceInterpolation</text>
</a>
</g>
</g>
<!-- Node0&#45;&gt;Node1 -->
<g id="edge1" class="edge">
<title>Node0&#45;&gt;Node1</title>
<path fill="none" stroke="#191970" d="M126.2947,-48C134.8004,-48 143.4836,-48 151.9465,-48"/>
<polygon fill="#191970" stroke="#191970" points="126.0344,-44.5001 116.0344,-48 126.0343,-51.5001 126.0344,-44.5001"/>
</g>
<!-- Node2 -->
<g id="node3" class="node">
<title>Node2</title>
<g id="a_node3"><a xlink:href="classneon_1_1Quadrilateral4.html" target="_top" xlink:title="neon::Quadrilateral4">
<polygon fill="#ffffff" stroke="#000000" points="319,-76.5 319,-95.5 423,-95.5 423,-76.5 319,-76.5"/>
<text text-anchor="middle" x="371" y="-83.5" font-family="Helvetica,sans-Serif" font-size="10.00" fill="#000000">neon::Quadrilateral4</text>
</a>
</g>
</g>
<!-- Node1&#45;&gt;Node2 -->
<g id="edge2" class="edge">
<title>Node1&#45;&gt;Node2</title>
<path fill="none" stroke="#191970" d="M266.1352,-60.04C287.5799,-65.3488 312.4226,-71.4988 332.544,-76.4799"/>
<polygon fill="#191970" stroke="#191970" points="266.7826,-56.5947 256.2345,-57.589 265.1004,-63.3896 266.7826,-56.5947"/>
</g>
<!-- Node3 -->
<g id="node4" class="node">
<title>Node3</title>
<g id="a_node4"><a xlink:href="classneon_1_1Triangle3.html" target="_top" xlink:title="neon::Triangle3">
<polygon fill="#ffffff" stroke="#000000" points="329.5,-38.5 329.5,-57.5 412.5,-57.5 412.5,-38.5 329.5,-38.5"/>
<text text-anchor="middle" x="371" y="-45.5" font-family="Helvetica,sans-Serif" font-size="10.00" fill="#000000">neon::Triangle3</text>
</a>
</g>
</g>
<!-- Node1&#45;&gt;Node3 -->
<g id="edge3" class="edge">
<title>Node1&#45;&gt;Node3</title>
<path fill="none" stroke="#191970" d="M293.3734,-48C305.7133,-48 318.0834,-48 329.2075,-48"/>
<polygon fill="#191970" stroke="#191970" points="293.0431,-44.5001 283.0431,-48 293.043,-51.5001 293.0431,-44.5001"/>
</g>
<!-- Node4 -->
<g id="node5" class="node">
<title>Node4</title>
<g id="a_node5"><a xlink:href="classneon_1_1Triangle6.html" target="_top" xlink:title="neon::Triangle6">
<polygon fill="#ffffff" stroke="#000000" points="329.5,-.5 329.5,-19.5 412.5,-19.5 412.5,-.5 329.5,-.5"/>
<text text-anchor="middle" x="371" y="-7.5" font-family="Helvetica,sans-Serif" font-size="10.00" fill="#000000">neon::Triangle6</text>
</a>
</g>
</g>
<!-- Node1&#45;&gt;Node4 -->
<g id="edge4" class="edge">
<title>Node1&#45;&gt;Node4</title>
<path fill="none" stroke="#191970" d="M266.1352,-35.96C287.5799,-30.6512 312.4226,-24.5012 332.544,-19.5201"/>
<polygon fill="#191970" stroke="#191970" points="265.1004,-32.6104 256.2345,-38.411 266.7826,-39.4053 265.1004,-32.6104"/>
</g>
</g>
</svg>
