<?xml version="1.0" encoding="UTF-8" standalone="no"?>
<!DOCTYPE svg PUBLIC "-//W3C//DTD SVG 1.1//EN"
 "http://www.w3.org/Graphics/SVG/1.1/DTD/svg11.dtd">
<!-- Generated by graphviz version 2.40.1 (20161225.0304)
 -->
<!-- Title: Graphical Class Hierarchy Pages: 1 -->
<svg width="416pt" height="66pt"
 viewBox="0.00 0.00 416.00 66.00" xmlns="http://www.w3.org/2000/svg" xmlns:xlink="http://www.w3.org/1999/xlink">
<g id="graph0" class="graph" transform="scale(1 1) rotate(0) translate(4 62)">
<title>Graphical Class Hierarchy</title>
<polygon fill="#ffffff" stroke="transparent" points="-4,4 -4,-62 412,-62 412,4 -4,4"/>
<!-- Node0 -->
<g id="node1" class="node">
<title>Node0</title>
<g id="a_node1"><a xlink:href="classneon_1_1Boundary.html" target="_top" xlink:title="neon::Boundary">
<polygon fill="#ffffff" stroke="#000000" points="0,-19.5 0,-38.5 85,-38.5 85,-19.5 0,-19.5"/>
<text text-anchor="middle" x="42.5" y="-26.5" font-family="Helvetica,sans-Serif" font-size="10.00" fill="#000000">neon::Boundary</text>
</a>
</g>
</g>
<!-- Node1 -->
<g id="node2" class="node">
<title>Node1</title>
<g id="a_node2"><a xlink:href="classneon_1_1solid_1_1Dirichlet.html" target="_top" xlink:title="neon::solid::Dirichlet">
<polygon fill="#ffffff" stroke="#000000" points="141,-38.5 141,-57.5 247,-57.5 247,-38.5 141,-38.5"/>
<text text-anchor="middle" x="194" y="-45.5" font-family="Helvetica,sans-Serif" font-size="10.00" fill="#000000">neon::solid::Dirichlet</text>
</a>
</g>
</g>
<!-- Node0&#45;&gt;Node1 -->
<g id="edge1" class="edge">
<title>Node0&#45;&gt;Node1</title>
<path fill="none" stroke="#191970" d="M95.1241,-35.5997C109.9444,-37.4584 126.071,-39.4808 140.9179,-41.3428"/>
<polygon fill="#191970" stroke="#191970" points="95.4622,-32.1148 85.1044,-34.3431 94.5911,-39.0604 95.4622,-32.1148"/>
</g>
<!-- Node2 -->
<g id="node3" class="node">
<title>Node2</title>
<g id="a_node3"><a xlink:href="classneon_1_1solid_1_1NonFollowerLoad.html" target="_top" xlink:title="neon::solid::NonFollowerLoad">
<polygon fill="#ffffff" stroke="#000000" points="121,-.5 121,-19.5 267,-19.5 267,-.5 121,-.5"/>
<text text-anchor="middle" x="194" y="-7.5" font-family="Helvetica,sans-Serif" font-size="10.00" fill="#000000">neon::solid::NonFollowerLoad</text>
</a>
</g>
</g>
<!-- Node0&#45;&gt;Node2 -->
<g id="edge2" class="edge">
<title>Node0&#45;&gt;Node2</title>
<path fill="none" stroke="#191970" d="M95.2839,-22.3802C103.5154,-21.3479 112.1465,-20.2655 120.735,-19.1884"/>
<polygon fill="#191970" stroke="#191970" points="94.5911,-18.9396 85.1044,-23.6569 95.4622,-25.8852 94.5911,-18.9396"/>
</g>
<!-- Node3 -->
<g id="node4" class="node">
<title>Node3</title>
<g id="a_node4"><a xlink:href="classneon_1_1solid_1_1Traction.html" target="_top" xlink:title="neon::solid::Traction">
<polygon fill="#ffffff" stroke="#000000" points="303,-.5 303,-19.5 408,-19.5 408,-.5 303,-.5"/>
<text text-anchor="middle" x="355.5" y="-7.5" font-family="Helvetica,sans-Serif" font-size="10.00" fill="#000000">neon::solid::Traction</text>
</a>
</g>
</g>
<!-- Node2&#45;&gt;Node3 -->
<g id="edge3" class="edge">
<title>Node2&#45;&gt;Node3</title>
<path fill="none" stroke="#191970" d="M277.3593,-10C286.0271,-10 294.6548,-10 302.8423,-10"/>
<polygon fill="#191970" stroke="#191970" points="277.1896,-6.5001 267.1895,-10 277.1895,-13.5001 277.1896,-6.5001"/>
</g>
</g>
</svg>
