<?xml version="1.0" encoding="UTF-8" standalone="no"?>
<!DOCTYPE svg PUBLIC "-//W3C//DTD SVG 1.1//EN"
 "http://www.w3.org/Graphics/SVG/1.1/DTD/svg11.dtd">
<!-- Generated by graphviz version 2.40.1 (20161225.0304)
 -->
<!-- Title: Graphical Class Hierarchy Pages: 1 -->
<svg width="326pt" height="218pt"
 viewBox="0.00 0.00 326.00 218.00" xmlns="http://www.w3.org/2000/svg" xmlns:xlink="http://www.w3.org/1999/xlink">
<g id="graph0" class="graph" transform="scale(1 1) rotate(0) translate(4 214)">
<title>Graphical Class Hierarchy</title>
<polygon fill="#ffffff" stroke="transparent" points="-4,4 -4,-214 322,-214 322,4 -4,4"/>
<!-- Node0 -->
<g id="node1" class="node">
<title>Node0</title>
<g id="a_node1"><a xlink:href="classneon_1_1NumericalQuadrature.html" target="_top" xlink:title="neon::NumericalQuadrature\l\&lt; Xi, Eta \&gt;">
<polygon fill="#ffffff" stroke="#000000" points="0,-90 0,-120 136,-120 136,-90 0,-90"/>
<text text-anchor="start" x="8" y="-108" font-family="Helvetica,sans-Serif" font-size="10.00" fill="#000000">neon::NumericalQuadrature</text>
<text text-anchor="middle" x="68" y="-97" font-family="Helvetica,sans-Serif" font-size="10.00" fill="#000000">&lt; Xi, Eta &gt;</text>
</a>
</g>
</g>
<!-- Node1 -->
<g id="node2" class="node">
<title>Node1</title>
<g id="a_node2"><a xlink:href="classneon_1_1HexahedronQuadrature.html" target="_top" xlink:title="neon::HexahedronQuadrature">
<polygon fill="#ffffff" stroke="#000000" points="173,-190.5 173,-209.5 317,-209.5 317,-190.5 173,-190.5"/>
<text text-anchor="middle" x="245" y="-197.5" font-family="Helvetica,sans-Serif" font-size="10.00" fill="#000000">neon::HexahedronQuadrature</text>
</a>
</g>
</g>
<!-- Node0&#45;&gt;Node1 -->
<g id="edge1" class="edge">
<title>Node0&#45;&gt;Node1</title>
<path fill="none" stroke="#191970" d="M92.0847,-126.7124C112.1483,-143.7397 142.1652,-166.8503 172,-181 180.0461,-184.816 188.9684,-187.9454 197.7336,-190.4836"/>
<polygon fill="#191970" stroke="#191970" points="94.2403,-123.9494 84.3851,-120.0603 89.664,-129.2464 94.2403,-123.9494"/>
</g>
<!-- Node2 -->
<g id="node3" class="node">
<title>Node2</title>
<g id="a_node3"><a xlink:href="classneon_1_1PrismQuadrature.html" target="_top" xlink:title="neon::PrismQuadrature">
<polygon fill="#ffffff" stroke="#000000" points="186.5,-152.5 186.5,-171.5 303.5,-171.5 303.5,-152.5 186.5,-152.5"/>
<text text-anchor="middle" x="245" y="-159.5" font-family="Helvetica,sans-Serif" font-size="10.00" fill="#000000">neon::PrismQuadrature</text>
</a>
</g>
</g>
<!-- Node0&#45;&gt;Node2 -->
<g id="edge2" class="edge">
<title>Node0&#45;&gt;Node2</title>
<path fill="none" stroke="#191970" d="M116.1356,-123.6771C133.6047,-130.1656 153.575,-137.2506 172,-143 182.7512,-146.3548 194.5172,-149.5999 205.403,-152.4303"/>
<polygon fill="#191970" stroke="#191970" points="117.3058,-120.3781 106.7135,-120.1461 114.8492,-126.9329 117.3058,-120.3781"/>
</g>
<!-- Node3 -->
<g id="node4" class="node">
<title>Node3</title>
<g id="a_node4"><a xlink:href="classneon_1_1QuadrilateralQuadrature.html" target="_top" xlink:title="neon::QuadrilateralQuadrature">
<polygon fill="#ffffff" stroke="#000000" points="172,-114.5 172,-133.5 318,-133.5 318,-114.5 172,-114.5"/>
<text text-anchor="middle" x="245" y="-121.5" font-family="Helvetica,sans-Serif" font-size="10.00" fill="#000000">neon::QuadrilateralQuadrature</text>
</a>
</g>
</g>
<!-- Node0&#45;&gt;Node3 -->
<g id="edge3" class="edge">
<title>Node0&#45;&gt;Node3</title>
<path fill="none" stroke="#191970" d="M146.1391,-113.3878C154.6908,-114.3058 163.3734,-115.2378 171.8616,-116.149"/>
<polygon fill="#191970" stroke="#191970" points="146.4961,-109.9061 136.1796,-112.3187 145.7489,-116.8661 146.4961,-109.9061"/>
</g>
<!-- Node4 -->
<g id="node5" class="node">
<title>Node4</title>
<g id="a_node5"><a xlink:href="classneon_1_1TetrahedronQuadrature.html" target="_top" xlink:title="neon::TetrahedronQuadrature">
<polygon fill="#ffffff" stroke="#000000" points="173.5,-76.5 173.5,-95.5 316.5,-95.5 316.5,-76.5 173.5,-76.5"/>
<text text-anchor="middle" x="245" y="-83.5" font-family="Helvetica,sans-Serif" font-size="10.00" fill="#000000">neon::TetrahedronQuadrature</text>
</a>
</g>
</g>
<!-- Node0&#45;&gt;Node4 -->
<g id="edge4" class="edge">
<title>Node0&#45;&gt;Node4</title>
<path fill="none" stroke="#191970" d="M146.2669,-96.5985C155.2732,-95.6317 164.4227,-94.6495 173.3357,-93.6928"/>
<polygon fill="#191970" stroke="#191970" points="145.7489,-93.1339 136.1796,-97.6813 146.4961,-100.0939 145.7489,-93.1339"/>
</g>
<!-- Node5 -->
<g id="node6" class="node">
<title>Node5</title>
<g id="a_node6"><a xlink:href="classneon_1_1TriangleQuadrature.html" target="_top" xlink:title="neon::TriangleQuadrature">
<polygon fill="#ffffff" stroke="#000000" points="182,-38.5 182,-57.5 308,-57.5 308,-38.5 182,-38.5"/>
<text text-anchor="middle" x="245" y="-45.5" font-family="Helvetica,sans-Serif" font-size="10.00" fill="#000000">neon::TriangleQuadrature</text>
</a>
</g>
</g>
<!-- Node0&#45;&gt;Node5 -->
<g id="edge5" class="edge">
<title>Node0&#45;&gt;Node5</title>
<path fill="none" stroke="#191970" d="M116.1356,-86.3229C133.6047,-79.8344 153.575,-72.7494 172,-67 182.7512,-63.6452 194.5172,-60.4001 205.403,-57.5697"/>
<polygon fill="#191970" stroke="#191970" points="114.8492,-83.0671 106.7135,-89.8539 117.3058,-89.6219 114.8492,-83.0671"/>
</g>
<!-- Node6 -->
<g id="node7" class="node">
<title>Node6</title>
<g id="a_node7"><a xlink:href="classneon_1_1UnitSphereQuadrature.html" target="_top" xlink:title="neon::UnitSphereQuadrature">
<polygon fill="#ffffff" stroke="#000000" points="175,-.5 175,-19.5 315,-19.5 315,-.5 175,-.5"/>
<text text-anchor="middle" x="245" y="-7.5" font-family="Helvetica,sans-Serif" font-size="10.00" fill="#000000">neon::UnitSphereQuadrature</text>
</a>
</g>
</g>
<!-- Node0&#45;&gt;Node6 -->
<g id="edge6" class="edge">
<title>Node0&#45;&gt;Node6</title>
<path fill="none" stroke="#191970" d="M92.0847,-83.2876C112.1483,-66.2603 142.1652,-43.1497 172,-29 180.0461,-25.184 188.9684,-22.0546 197.7336,-19.5164"/>
<polygon fill="#191970" stroke="#191970" points="89.664,-80.7536 84.3851,-89.9397 94.2403,-86.0506 89.664,-80.7536"/>
</g>
</g>
</svg>
