<?xml version="1.0" encoding="UTF-8" standalone="no"?>
<!DOCTYPE svg PUBLIC "-//W3C//DTD SVG 1.1//EN"
 "http://www.w3.org/Graphics/SVG/1.1/DTD/svg11.dtd">
<!-- Generated by graphviz version 2.40.1 (20161225.0304)
 -->
<!-- Title: Graphical Class Hierarchy Pages: 1 -->
<svg width="259pt" height="104pt"
 viewBox="0.00 0.00 259.00 104.00" xmlns="http://www.w3.org/2000/svg" xmlns:xlink="http://www.w3.org/1999/xlink">
<g id="graph0" class="graph" transform="scale(1 1) rotate(0) translate(4 100)">
<title>Graphical Class Hierarchy</title>
<polygon fill="#ffffff" stroke="transparent" points="-4,4 -4,-100 255,-100 255,4 -4,4"/>
<!-- Node0 -->
<g id="node1" class="node">
<title>Node0</title>
<g id="a_node1"><a xlink:href="classneon_1_1ShapeFunction.html" target="_top" xlink:title="neon::ShapeFunction\l\&lt; Quadrature \&gt;">
<polygon fill="#ffffff" stroke="#000000" points="0,-33 0,-63 109,-63 109,-33 0,-33"/>
<text text-anchor="start" x="8" y="-51" font-family="Helvetica,sans-Serif" font-size="10.00" fill="#000000">neon::ShapeFunction</text>
<text text-anchor="middle" x="54.5" y="-40" font-family="Helvetica,sans-Serif" font-size="10.00" fill="#000000">&lt; Quadrature &gt;</text>
</a>
</g>
</g>
<!-- Node1 -->
<g id="node2" class="node">
<title>Node1</title>
<g id="a_node2"><a xlink:href="classneon_1_1Hexahedron8.html" target="_top" xlink:title="neon::Hexahedron8">
<polygon fill="#ffffff" stroke="#000000" points="147.5,-76.5 147.5,-95.5 248.5,-95.5 248.5,-76.5 147.5,-76.5"/>
<text text-anchor="middle" x="198" y="-83.5" font-family="Helvetica,sans-Serif" font-size="10.00" fill="#000000">neon::Hexahedron8</text>
</a>
</g>
</g>
<!-- Node0&#45;&gt;Node1 -->
<g id="edge1" class="edge">
<title>Node0&#45;&gt;Node1</title>
<path fill="none" stroke="#191970" d="M119.1745,-65.1264C133.7737,-68.9923 148.7674,-72.9628 161.7063,-76.3891"/>
<polygon fill="#191970" stroke="#191970" points="119.7233,-61.6511 109.1606,-62.4746 117.9314,-68.4179 119.7233,-61.6511"/>
</g>
<!-- Node2 -->
<g id="node3" class="node">
<title>Node2</title>
<g id="a_node3"><a xlink:href="classneon_1_1Tetrahedron10.html" target="_top" xlink:title="neon::Tetrahedron10">
<polygon fill="#ffffff" stroke="#000000" points="145,-38.5 145,-57.5 251,-57.5 251,-38.5 145,-38.5"/>
<text text-anchor="middle" x="198" y="-45.5" font-family="Helvetica,sans-Serif" font-size="10.00" fill="#000000">neon::Tetrahedron10</text>
</a>
</g>
</g>
<!-- Node0&#45;&gt;Node2 -->
<g id="edge2" class="edge">
<title>Node0&#45;&gt;Node2</title>
<path fill="none" stroke="#191970" d="M119.1745,-48C127.7843,-48 136.5313,-48 144.9131,-48"/>
<polygon fill="#191970" stroke="#191970" points="119.1606,-44.5001 109.1606,-48 119.1605,-51.5001 119.1606,-44.5001"/>
</g>
<!-- Node3 -->
<g id="node4" class="node">
<title>Node3</title>
<g id="a_node4"><a xlink:href="classneon_1_1Tetrahedron4.html" target="_top" xlink:title="neon::Tetrahedron4">
<polygon fill="#ffffff" stroke="#000000" points="147.5,-.5 147.5,-19.5 248.5,-19.5 248.5,-.5 147.5,-.5"/>
<text text-anchor="middle" x="198" y="-7.5" font-family="Helvetica,sans-Serif" font-size="10.00" fill="#000000">neon::Tetrahedron4</text>
</a>
</g>
</g>
<!-- Node0&#45;&gt;Node3 -->
<g id="edge3" class="edge">
<title>Node0&#45;&gt;Node3</title>
<path fill="none" stroke="#191970" d="M119.1745,-30.8736C133.7737,-27.0077 148.7674,-23.0372 161.7063,-19.6109"/>
<polygon fill="#191970" stroke="#191970" points="117.9314,-27.5821 109.1606,-33.5254 119.7233,-34.3489 117.9314,-27.5821"/>
</g>
</g>
</svg>
