<?xml version="1.0" encoding="UTF-8" standalone="no"?>
<!DOCTYPE svg PUBLIC "-//W3C//DTD SVG 1.1//EN"
 "http://www.w3.org/Graphics/SVG/1.1/DTD/svg11.dtd">
<!-- Generated by graphviz version 2.40.1 (20161225.0304)
 -->
<!-- Title: Graphical Class Hierarchy Pages: 1 -->
<svg width="454pt" height="142pt"
 viewBox="0.00 0.00 454.00 142.00" xmlns="http://www.w3.org/2000/svg" xmlns:xlink="http://www.w3.org/1999/xlink">
<g id="graph0" class="graph" transform="scale(1 1) rotate(0) translate(4 138)">
<title>Graphical Class Hierarchy</title>
<polygon fill="#ffffff" stroke="transparent" points="-4,4 -4,-138 450,-138 450,4 -4,4"/>
<!-- Node0 -->
<g id="node1" class="node">
<title>Node0</title>
<g id="a_node1"><a xlink:href="classneon_1_1ConstitutiveModel.html" target="_top" xlink:title="neon::ConstitutiveModel">
<polygon fill="#ffffff" stroke="#000000" points="0,-38.5 0,-57.5 122,-57.5 122,-38.5 0,-38.5"/>
<text text-anchor="middle" x="61" y="-45.5" font-family="Helvetica,sans-Serif" font-size="10.00" fill="#000000">neon::ConstitutiveModel</text>
</a>
</g>
</g>
<!-- Node1 -->
<g id="node2" class="node">
<title>Node1</title>
<g id="a_node2"><a xlink:href="classneon_1_1Hyperelastic.html" target="_top" xlink:title="neon::Hyperelastic">
<polygon fill="#ffffff" stroke="#000000" points="174,-76.5 174,-95.5 272,-95.5 272,-76.5 174,-76.5"/>
<text text-anchor="middle" x="223" y="-83.5" font-family="Helvetica,sans-Serif" font-size="10.00" fill="#000000">neon::Hyperelastic</text>
</a>
</g>
</g>
<!-- Node0&#45;&gt;Node1 -->
<g id="edge1" class="edge">
<title>Node0&#45;&gt;Node1</title>
<path fill="none" stroke="#191970" d="M111.7148,-59.8961C134.4856,-65.2374 160.9867,-71.4537 182.4145,-76.4799"/>
<polygon fill="#191970" stroke="#191970" points="112.4145,-56.4653 101.8794,-57.589 110.8159,-63.2803 112.4145,-56.4653"/>
</g>
<!-- Node4 -->
<g id="node5" class="node">
<title>Node4</title>
<g id="a_node5"><a xlink:href="classneon_1_1HyperElasticPlastic.html" target="_top" xlink:title="neon::HyperElasticPlastic">
<polygon fill="#ffffff" stroke="#000000" points="158,-38.5 158,-57.5 288,-57.5 288,-38.5 158,-38.5"/>
<text text-anchor="middle" x="223" y="-45.5" font-family="Helvetica,sans-Serif" font-size="10.00" fill="#000000">neon::HyperElasticPlastic</text>
</a>
</g>
</g>
<!-- Node0&#45;&gt;Node4 -->
<g id="edge4" class="edge">
<title>Node0&#45;&gt;Node4</title>
<path fill="none" stroke="#191970" d="M132.4666,-48C140.9241,-48 149.5222,-48 157.8852,-48"/>
<polygon fill="#191970" stroke="#191970" points="132.2453,-44.5001 122.2453,-48 132.2452,-51.5001 132.2453,-44.5001"/>
</g>
<!-- Node6 -->
<g id="node7" class="node">
<title>Node6</title>
<g id="a_node7"><a xlink:href="classneon_1_1HypoElasticPlastic.html" target="_top" xlink:title="neon::HypoElasticPlastic">
<polygon fill="#ffffff" stroke="#000000" points="159.5,-.5 159.5,-19.5 286.5,-19.5 286.5,-.5 159.5,-.5"/>
<text text-anchor="middle" x="223" y="-7.5" font-family="Helvetica,sans-Serif" font-size="10.00" fill="#000000">neon::HypoElasticPlastic</text>
</a>
</g>
</g>
<!-- Node0&#45;&gt;Node6 -->
<g id="edge6" class="edge">
<title>Node0&#45;&gt;Node6</title>
<path fill="none" stroke="#191970" d="M111.7148,-36.1039C134.4856,-30.7626 160.9867,-24.5463 182.4145,-19.5201"/>
<polygon fill="#191970" stroke="#191970" points="110.8159,-32.7197 101.8794,-38.411 112.4145,-39.5347 110.8159,-32.7197"/>
</g>
<!-- Node2 -->
<g id="node3" class="node">
<title>Node2</title>
<g id="a_node3"><a xlink:href="classneon_1_1AffineMicrosphere.html" target="_top" xlink:title="neon::AffineMicrosphere">
<polygon fill="#ffffff" stroke="#000000" points="324,-114.5 324,-133.5 446,-133.5 446,-114.5 324,-114.5"/>
<text text-anchor="middle" x="385" y="-121.5" font-family="Helvetica,sans-Serif" font-size="10.00" fill="#000000">neon::AffineMicrosphere</text>
</a>
</g>
</g>
<!-- Node1&#45;&gt;Node2 -->
<g id="edge2" class="edge">
<title>Node1&#45;&gt;Node2</title>
<path fill="none" stroke="#191970" d="M273.7148,-97.8961C296.4856,-103.2374 322.9867,-109.4537 344.4145,-114.4799"/>
<polygon fill="#191970" stroke="#191970" points="274.4145,-94.4653 263.8794,-95.589 272.8159,-101.2803 274.4145,-94.4653"/>
</g>
<!-- Node3 -->
<g id="node4" class="node">
<title>Node3</title>
<g id="a_node4"><a xlink:href="classneon_1_1NeoHooke.html" target="_top" xlink:title="neon::NeoHooke">
<polygon fill="#ffffff" stroke="#000000" points="340,-76.5 340,-95.5 430,-95.5 430,-76.5 340,-76.5"/>
<text text-anchor="middle" x="385" y="-83.5" font-family="Helvetica,sans-Serif" font-size="10.00" fill="#000000">neon::NeoHooke</text>
</a>
</g>
</g>
<!-- Node1&#45;&gt;Node3 -->
<g id="edge3" class="edge">
<title>Node1&#45;&gt;Node3</title>
<path fill="none" stroke="#191970" d="M282.1435,-86C301.2387,-86 322.0856,-86 339.9883,-86"/>
<polygon fill="#191970" stroke="#191970" points="282.045,-82.5001 272.045,-86 282.0449,-89.5001 282.045,-82.5001"/>
</g>
<!-- Node5 -->
<g id="node6" class="node">
<title>Node5</title>
<g id="a_node6"><a xlink:href="classneon_1_1FiniteJ2Plasticity.html" target="_top" xlink:title="neon::FiniteJ2Plasticity">
<polygon fill="#ffffff" stroke="#000000" points="325.5,-38.5 325.5,-57.5 444.5,-57.5 444.5,-38.5 325.5,-38.5"/>
<text text-anchor="middle" x="385" y="-45.5" font-family="Helvetica,sans-Serif" font-size="10.00" fill="#000000">neon::FiniteJ2Plasticity</text>
</a>
</g>
</g>
<!-- Node4&#45;&gt;Node5 -->
<g id="edge5" class="edge">
<title>Node4&#45;&gt;Node5</title>
<path fill="none" stroke="#191970" d="M298.5237,-48C307.5238,-48 316.6144,-48 325.3485,-48"/>
<polygon fill="#191970" stroke="#191970" points="298.4247,-44.5001 288.4246,-48 298.4246,-51.5001 298.4247,-44.5001"/>
</g>
<!-- Node7 -->
<g id="node8" class="node">
<title>Node7</title>
<g id="a_node8"><a xlink:href="classneon_1_1J2Plasticity.html" target="_top" xlink:title="neon::J2Plasticity">
<polygon fill="#ffffff" stroke="#000000" points="337.5,-.5 337.5,-19.5 432.5,-19.5 432.5,-.5 337.5,-.5"/>
<text text-anchor="middle" x="385" y="-7.5" font-family="Helvetica,sans-Serif" font-size="10.00" fill="#000000">neon::J2Plasticity</text>
</a>
</g>
</g>
<!-- Node6&#45;&gt;Node7 -->
<g id="edge7" class="edge">
<title>Node6&#45;&gt;Node7</title>
<path fill="none" stroke="#191970" d="M296.5808,-10C310.4434,-10 324.5984,-10 337.4031,-10"/>
<polygon fill="#191970" stroke="#191970" points="296.5618,-6.5001 286.5617,-10 296.5617,-13.5001 296.5618,-6.5001"/>
</g>
</g>
</svg>
