2000 0 1 0           
18 Abaqus 2017 - 2402 17 ACIS 24.0.2 Linux 24 Thu Nov 16 10:17:55 2017 
1 9.9999999999999995e-07 1e-10 
-0 body $1 -1 -1 $-1 $2 $-1 $3 T 0 -1.6806576092274632 0 50 48.319342390772533 5 #
-1 string_attrib-name_attrib-gen-attrib $-1 -1 $4 $-1 $0 2 1 1 1 1 1 1 1 1 1 1 1 1 1 0 1 1 1 @13 HKS_PART_NAME @6 Part-1 #
-2 lump $5 -1 -1 $-1 $-1 $6 $0 T 0 -1.6806576092274632 0 50 48.319342390772533 5 #
-3 transform $-1 -1 1 0 0 0 1 0 0 0 1 0 0 0 1 no_rotate no_reflect no_shear #
-4 string_attrib-name_attrib-gen-attrib $-1 -1 $-1 $1 $0 2 1 1 1 1 1 1 1 1 1 1 1 1 1 0 1 1 1 @18 HKS_ATTRIB_BODY_ID @1 1 #
-5 cell_ptr-ct-attrib $-1 -1 $-1 $-1 $2 1 1 1 1 1 1 1 1 1 1 1 1 0 1 0 1 1 1 $7 $-1 auto #
-6 shell $-1 -1 -1 $-1 $-1 $-1 $8 $-1 $2 T 0 -1.6806576092274632 0 50 48.319342390772533 5 #
-7 cell3d-cell $-1 -1 $-1 $2 $-1 1 $9 #
-8 face $10 -1 -1 $-1 $11 $12 $6 $-1 $13 forward single T 0 -1.6806576092274632 0 0 48.319342390772533 5 F #
-9 cshell $-1 -1 $-1 $14 $7 #
-10 cface_ptr-ct-attrib $-1 -1 $-1 $-1 $8 1 1 1 1 1 1 1 1 1 1 1 1 0 1 0 1 1 1 $-1 $15 #
-11 face $16 -1 -1 $-1 $17 $18 $6 $-1 $19 forward single T 0 48.319342390772526 0 10 48.319342390772533 5 F #
-12 loop $-1 -1 -1 $-1 $-1 $20 $8 T 0 -1.6806576092274632 0 0 48.319342390772533 5 periphery $13 F #
-13 plane-surface $-1 -1 -1 $-1 0 23.319342390772537 0 -1 0 0 -0 -1 -0 forward_v I I I I #
-14 cface $-1 -1 $21 $9 $11 0 #
-15 cface $-1 -1 $22 $9 $8 0 #
-16 cface_ptr-ct-attrib $-1 -1 $-1 $-1 $11 1 1 1 1 1 1 1 1 1 1 1 1 0 1 0 1 1 1 $-1 $14 #
-17 face $23 -1 -1 $-1 $24 $25 $6 $-1 $26 forward single T 10 23.31934239077254 0 10 48.319342390772526 5 F #
-18 loop $-1 -1 -1 $-1 $-1 $27 $11 T 0 48.319342390772526 0 10 48.319342390772533 5 periphery $19 F #
-19 plane-surface $-1 -1 -1 $-1 5 48.319342390772533 0 7.1054273576010023e-16 1 -0 -1 7.1054273576010023e-16 -0 forward_v I I I I #
-20 coedge $-1 -1 -1 $-1 $28 $29 $30 $31 forward $12 $-1 #
-21 cface $-1 -1 $32 $9 $17 0 #
-22 cface $-1 -1 $33 $9 $24 0 #
-23 cface_ptr-ct-attrib $-1 -1 $-1 $-1 $17 1 1 1 1 1 1 1 1 1 1 1 1 0 1 0 1 1 1 $-1 $21 #
-24 face $34 -1 -1 $-1 $35 $36 $6 $-1 $37 forward single T 10 8.3193423907725368 0 25 23.31934239077254 5 F #
-25 loop $-1 -1 -1 $-1 $-1 $38 $17 T 10 23.31934239077254 0 10 48.319342390772526 5 periphery $26 F #
-26 plane-surface $-1 -1 -1 $-1 10 35.819342390772533 0 1 0 -0 -0 1 -0 forward_v I I I I #
-27 coedge $-1 -1 -1 $-1 $39 $40 $41 $42 forward $18 $-1 #
-28 coedge $-1 -1 -1 $-1 $43 $20 $40 $44 reversed $12 $-1 #
-29 coedge $-1 -1 -1 $-1 $20 $43 $45 $46 forward $12 $-1 #
-30 coedge $-1 -1 -1 $-1 $47 $41 $20 $31 reversed $48 $-1 #
-31 edge $-1 -1 -1 $-1 $49 0 $50 50 $20 $51 forward @7 unknown T 0 -1.6806576092274632 5 0 48.319342390772533 5 #
-32 cface $-1 -1 $15 $9 $52 0 #
-33 cface $-1 -1 $53 $9 $54 0 #
-34 cface_ptr-ct-attrib $-1 -1 $-1 $-1 $24 1 1 1 1 1 1 1 1 1 1 1 1 0 1 0 1 1 1 $-1 $22 #
-35 face $55 -1 -1 $-1 $56 $57 $6 $-1 $58 forward single T 25 8.3193423907725368 0 50 8.3193423907725368 5 F #
-36 loop $-1 -1 -1 $-1 $-1 $59 $24 T 10 8.3193423907725368 0 25 23.31934239077254 5 periphery $37 F #
-37 cone-surface $-1 -1 -1 $-1 25 23.319342390772537 0 0 0 1 15 0 0 1 I I 0 -1 15 forward I I I I #
-38 coedge $-1 -1 -1 $-1 $60 $61 $62 $63 forward $25 $-1 #
-39 coedge $-1 -1 -1 $-1 $64 $27 $61 $65 reversed $18 $-1 #
-40 coedge $-1 -1 -1 $-1 $27 $64 $28 $44 forward $18 $-1 #
-41 coedge $-1 -1 -1 $-1 $30 $62 $27 $42 reversed $48 $-1 #
-42 edge $-1 -1 -1 $-1 $50 0 $66 10 $27 $67 forward @7 unknown T 0 48.319342390772526 5 10 48.319342390772533 5 #
-43 coedge $-1 -1 -1 $-1 $29 $28 $68 $69 reversed $12 $-1 #
-44 edge $-1 -1 -1 $-1 $70 0 $50 5 $40 $71 forward @7 unknown T 0 48.319342390772533 0 0 48.319342390772533 5 #
-45 coedge $-1 -1 -1 $-1 $72 $73 $29 $46 reversed $74 $-1 #
-46 edge $-1 -1 -1 $-1 $75 0 $49 5 $29 $76 forward @7 unknown T 0 -1.6806576092274632 0 0 -1.6806576092274632 5 #
-47 coedge $-1 -1 -1 $-1 $77 $30 $73 $78 reversed $48 $-1 #
-48 loop $-1 -1 -1 $-1 $-1 $30 $79 T 0 -1.6806576092274632 5 50 48.319342390772533 5 periphery $80 F #
-49 vertex $-1 -1 -1 $-1 $46 $81 #
-50 vertex $-1 -1 -1 $-1 $44 $82 #
-51 straight-curve $-1 -1 -1 $-1 0 -1.6806576092274632 5 0 1 0 I I #
-52 face $83 -1 -1 $-1 $79 $74 $6 $-1 $84 forward single T 0 -1.6806576092274632 0 50 -1.6806576092274632 5 F #
-53 cface $-1 -1 $85 $9 $56 0 #
-54 face $86 -1 -1 $-1 $-1 $87 $6 $-1 $88 reversed single T 0 -1.6806576092274632 0 50 48.319342390772533 0 F #
-55 cface_ptr-ct-attrib $-1 -1 $-1 $-1 $35 1 1 1 1 1 1 1 1 1 1 1 1 0 1 0 1 1 1 $-1 $89 #
-56 face $90 -1 -1 $-1 $52 $91 $6 $-1 $92 forward single T 50 -1.6806576092274632 0 50 8.3193423907725368 5 F #
-57 loop $-1 -1 -1 $-1 $-1 $93 $35 T 25 8.3193423907725368 0 50 8.3193423907725368 5 periphery $58 F #
-58 plane-surface $-1 -1 -1 $-1 37.5 8.3193423907725368 0 0 1 0 -1 -0 -0 forward_v I I I I #
-59 coedge $-1 -1 -1 $-1 $94 $95 $96 $97 forward $36 $-1 #
-60 coedge $-1 -1 -1 $-1 $98 $38 $95 $99 reversed $25 $-1 #
-61 coedge $-1 -1 -1 $-1 $38 $98 $39 $65 forward $25 $-1 #
-62 coedge $-1 -1 -1 $-1 $41 $96 $38 $63 reversed $48 $-1 #
-63 edge $-1 -1 -1 $-1 $66 0 $100 24.999999999999986 $38 $101 forward @7 unknown T 10 23.31934239077254 5 10 48.319342390772526 5 #
-64 coedge $-1 -1 -1 $-1 $40 $39 $102 $103 reversed $18 $-1 #
-65 edge $-1 -1 -1 $-1 $104 0 $66 5 $61 $105 forward @7 unknown T 10 48.319342390772526 0 10 48.319342390772526 5 #
-66 vertex $-1 -1 -1 $-1 $65 $106 #
-67 straight-curve $-1 -1 -1 $-1 0 48.319342390772533 5 1 -7.1054273576010023e-16 0 I I #
-68 coedge $-1 -1 -1 $-1 $102 $107 $43 $69 forward $87 $-1 #
-69 edge $-1 -1 -1 $-1 $75 0 $70 50 $43 $108 forward @7 unknown T 0 -1.6806576092274632 0 0 48.319342390772533 0 #
-70 vertex $-1 -1 -1 $-1 $103 $109 #
-71 straight-curve $-1 -1 -1 $-1 0 48.319342390772533 0 0 0 1 I I #
-72 coedge $-1 -1 -1 $-1 $110 $45 $107 $111 reversed $74 $-1 #
-73 coedge $-1 -1 -1 $-1 $45 $110 $47 $78 forward $74 $-1 #
-74 loop $-1 -1 -1 $-1 $-1 $73 $52 T 0 -1.6806576092274632 0 50 -1.6806576092274632 5 periphery $84 F #
-75 vertex $-1 -1 -1 $-1 $111 $112 #
-76 straight-curve $-1 -1 -1 $-1 0 -1.6806576092274632 0 0 0 1 I I #
-77 coedge $-1 -1 -1 $-1 $113 $47 $114 $115 reversed $48 $-1 #
-78 edge $-1 -1 -1 $-1 $116 0 $49 50 $73 $117 forward @7 unknown T 0 -1.6806576092274632 5 50 -1.6806576092274632 5 #
-79 face $118 -1 -1 $-1 $54 $48 $6 $-1 $80 forward single T 0 -1.6806576092274632 5 50 48.319342390772533 5 F #
-80 plane-surface $-1 -1 -1 $-1 17.33997330963636 15.659315700408893 5 0 0 1 1 0 0 forward_v I I I I #
-81 point $-1 -1 -1 $-1 0 -1.6806576092274632 5 #
-82 point $-1 -1 -1 $-1 0 48.319342390772533 5 #
-83 cface_ptr-ct-attrib $-1 -1 $-1 $-1 $52 1 1 1 1 1 1 1 1 1 1 1 1 0 1 0 1 1 1 $-1 $32 #
-84 plane-surface $-1 -1 -1 $-1 25 -1.6806576092274632 0 0 -1 0 1 -0 -0 forward_v I I I I #
-85 cface $-1 -1 $89 $9 $79 0 #
-86 cface_ptr-ct-attrib $-1 -1 $-1 $-1 $54 1 1 1 1 1 1 1 1 1 1 1 1 0 1 0 1 1 1 $-1 $33 #
-87 loop $-1 -1 -1 $-1 $-1 $107 $54 T 0 -1.6806576092274632 0 50 48.319342390772533 0 periphery $88 T #
-88 plane-surface $-1 -1 -1 $-1 17.33997330963636 15.659315700408893 0 0 0 1 1 0 0 forward_v I I I I #
-89 cface $-1 -1 $-1 $9 $35 0 #
-90 cface_ptr-ct-attrib $-1 -1 $-1 $-1 $56 1 1 1 1 1 1 1 1 1 1 1 1 0 1 0 1 1 1 $-1 $53 #
-91 loop $-1 -1 -1 $-1 $-1 $114 $56 T 50 -1.6806576092274632 0 50 8.3193423907725368 5 periphery $92 F #
-92 plane-surface $-1 -1 -1 $-1 50 3.3193423907725368 0 1 0 -0 -0 1 -0 forward_v I I I I #
-93 coedge $-1 -1 -1 $-1 $119 $120 $113 $121 forward $57 $-1 #
-94 coedge $-1 -1 -1 $-1 $122 $59 $120 $123 reversed $36 $-1 #
-95 coedge $-1 -1 -1 $-1 $59 $122 $60 $99 forward $36 $-1 #
-96 coedge $-1 -1 -1 $-1 $62 $113 $59 $97 reversed $48 $-1 #
-97 edge $-1 -1 -1 $-1 $100 -3.1415926535897931 $124 -1.5707963267948966 $59 $125 forward @7 unknown T 10 8.3193423907725368 5 25 23.31934239077254 5 #
-98 coedge $-1 -1 -1 $-1 $61 $60 $126 $127 reversed $25 $-1 #
-99 edge $128 -1 -1 $-1 $129 0 $100 5 $95 $130 forward @7 tangent T 10 23.31934239077254 0 10 23.31934239077254 5 #
-100 vertex $-1 -1 -1 $-1 $99 $131 #
-101 straight-curve $-1 -1 -1 $-1 10 48.319342390772526 5 0 -1 0 I I #
-102 coedge $-1 -1 -1 $-1 $126 $68 $64 $103 forward $87 $-1 #
-103 edge $-1 -1 -1 $-1 $70 0 $104 10 $64 $132 forward @7 unknown T 0 48.319342390772526 0 10 48.319342390772533 0 #
-104 vertex $-1 -1 -1 $-1 $127 $133 #
-105 straight-curve $-1 -1 -1 $-1 10 48.319342390772526 0 0 0 1 I I #
-106 point $-1 -1 -1 $-1 10 48.319342390772526 5 #
-107 coedge $-1 -1 -1 $-1 $68 $134 $72 $111 forward $87 $-1 #
-108 straight-curve $-1 -1 -1 $-1 0 -1.6806576092274632 0 0 1 0 I I #
-109 point $-1 -1 -1 $-1 0 48.319342390772533 0 #
-110 coedge $-1 -1 -1 $-1 $73 $72 $135 $136 forward $74 $-1 #
-111 edge $-1 -1 -1 $-1 $137 0 $75 50 $72 $138 forward @7 unknown T 0 -1.6806576092274632 0 50 -1.6806576092274632 0 #
-112 point $-1 -1 -1 $-1 0 -1.6806576092274632 0 #
-113 coedge $-1 -1 -1 $-1 $96 $77 $93 $121 reversed $48 $-1 #
-114 coedge $-1 -1 -1 $-1 $135 $139 $77 $115 forward $91 $-1 #
-115 edge $-1 -1 -1 $-1 $140 0 $116 10 $114 $141 forward @7 unknown T 50 -1.6806576092274632 5 50 8.3193423907725368 5 #
-116 vertex $-1 -1 -1 $-1 $136 $142 #
-117 straight-curve $-1 -1 -1 $-1 50 -1.6806576092274632 5 -1 0 0 I I #
-118 cface_ptr-ct-attrib $-1 -1 $-1 $-1 $79 1 1 1 1 1 1 1 1 1 1 1 1 0 1 0 1 1 1 $-1 $85 #
-119 coedge $-1 -1 -1 $-1 $143 $93 $139 $144 reversed $57 $-1 #
-120 coedge $-1 -1 -1 $-1 $93 $143 $94 $123 forward $57 $-1 #
-121 edge $-1 -1 -1 $-1 $124 0 $140 25 $93 $145 forward @7 unknown T 25 8.3193423907725368 5 50 8.3193423907725368 5 #
-122 coedge $-1 -1 -1 $-1 $95 $94 $146 $147 reversed $36 $-1 #
-123 edge $148 -1 -1 $-1 $149 0 $124 5 $120 $150 forward @7 tangent T 25 8.3193423907725368 0 25 8.3193423907725368 5 #
-124 vertex $-1 -1 -1 $-1 $123 $151 #
-125 ellipse-curve $-1 -1 -1 $-1 25 23.319342390772537 5 0 0 1 15 0 0 1 I I #
-126 coedge $-1 -1 -1 $-1 $146 $102 $98 $127 forward $87 $-1 #
-127 edge $-1 -1 -1 $-1 $104 0 $129 24.999999999999986 $98 $152 forward @7 unknown T 10 23.31934239077254 0 10 48.319342390772526 0 #
-128 integer_attrib-name_attrib-gen-attrib $-1 -1 $-1 $-1 $99 2 3 2 1 1 1 1 1 1 1 1 1 1 1 0 1 1 1 @12 make_tangent 1 #
-129 vertex $-1 -1 -1 $-1 $147 $153 #
-130 straight-curve $-1 -1 -1 $-1 10 23.31934239077254 0 0 0 1 I I #
-131 point $-1 -1 -1 $-1 10 23.31934239077254 5 #
-132 straight-curve $-1 -1 -1 $-1 0 48.319342390772533 0 1 -7.1054273576010023e-16 0 I I #
-133 point $-1 -1 -1 $-1 10 48.319342390772526 0 #
-134 coedge $-1 -1 -1 $-1 $107 $154 $155 $156 forward $87 $-1 #
-135 coedge $-1 -1 -1 $-1 $155 $114 $110 $136 reversed $91 $-1 #
-136 edge $-1 -1 -1 $-1 $137 0 $116 5 $110 $157 forward @7 unknown T 50 -1.6806576092274632 0 50 -1.6806576092274632 5 #
-137 vertex $-1 -1 -1 $-1 $111 $158 #
-138 straight-curve $-1 -1 -1 $-1 50 -1.6806576092274632 0 -1 0 0 I I #
-139 coedge $-1 -1 -1 $-1 $114 $155 $119 $144 forward $91 $-1 #
-140 vertex $-1 -1 -1 $-1 $144 $159 #
-141 straight-curve $-1 -1 -1 $-1 50 8.3193423907725368 5 0 -1 0 I I #
-142 point $-1 -1 -1 $-1 50 -1.6806576092274632 5 #
-143 coedge $-1 -1 -1 $-1 $120 $119 $154 $160 reversed $57 $-1 #
-144 edge $-1 -1 -1 $-1 $161 0 $140 5 $139 $162 forward @7 unknown T 50 8.3193423907725368 0 50 8.3193423907725368 5 #
-145 straight-curve $-1 -1 -1 $-1 25 8.3193423907725368 5 1 0 0 I I #
-146 coedge $-1 -1 -1 $-1 $154 $126 $122 $147 forward $87 $-1 #
-147 edge $-1 -1 -1 $-1 $129 -3.1415926535897931 $149 -1.5707963267948966 $122 $163 forward @7 unknown T 10 8.3193423907725368 0 25 23.31934239077254 0 #
-148 integer_attrib-name_attrib-gen-attrib $-1 -1 $-1 $-1 $123 2 3 2 1 1 1 1 1 1 1 1 1 1 1 0 1 1 1 @12 make_tangent 1 #
-149 vertex $-1 -1 -1 $-1 $160 $164 #
-150 straight-curve $-1 -1 -1 $-1 25 8.3193423907725368 0 0 0 1 I I #
-151 point $-1 -1 -1 $-1 25 8.3193423907725368 5 #
-152 straight-curve $-1 -1 -1 $-1 10 48.319342390772526 0 0 -1 0 I I #
-153 point $-1 -1 -1 $-1 10 23.31934239077254 0 #
-154 coedge $-1 -1 -1 $-1 $134 $146 $143 $160 forward $87 $-1 #
-155 coedge $-1 -1 -1 $-1 $139 $135 $134 $156 reversed $91 $-1 #
-156 edge $-1 -1 -1 $-1 $161 0 $137 10 $155 $165 forward @7 unknown T 50 -1.6806576092274632 0 50 8.3193423907725368 0 #
-157 straight-curve $-1 -1 -1 $-1 50 -1.6806576092274632 0 0 0 1 I I #
-158 point $-1 -1 -1 $-1 50 -1.6806576092274632 0 #
-159 point $-1 -1 -1 $-1 50 8.3193423907725368 5 #
-160 edge $-1 -1 -1 $-1 $149 0 $161 25 $143 $166 forward @7 unknown T 25 8.3193423907725368 0 50 8.3193423907725368 0 #
-161 vertex $-1 -1 -1 $-1 $156 $167 #
-162 straight-curve $-1 -1 -1 $-1 50 8.3193423907725368 0 0 0 1 I I #
-163 ellipse-curve $-1 -1 -1 $-1 25 23.319342390772537 0 0 0 1 15 0 0 1 I I #
-164 point $-1 -1 -1 $-1 25 8.3193423907725368 0 #
-165 straight-curve $-1 -1 -1 $-1 50 8.3193423907725368 0 0 -1 0 I I #
-166 straight-curve $-1 -1 -1 $-1 25 8.3193423907725368 0 1 0 0 I I #
-167 point $-1 -1 -1 $-1 50 8.3193423907725368 0 #
End-of-ACIS-data 
