3D InterOp IGES (Version 25 0 0), Spatial Corp. Copyright (c) 1999-2007.S      1
1H,,1H;,6HNoname,25HElastomerTestSpecimen.igs,13HSpatial Corp.,20H3D IntG      1
erOp ACIS/IGES,32,38, 6,308,15,6HNoname,1.000,2,2HMM,1,1.000,15H20170727G      2
.133551,1.0e-06,0.00,6HNoname,6HNoname,11,0,15H20170727.133551;         G      3
     116       1       0       0       0       0       0       000010001D      1
     116       0       0       1       0       0       0               0D      2
     123       2       0       0       0       0       0       000010201D      3
     123       0       0       1       0       0       0               0D      4
     123       3       0       0       0       0       0       000010201D      5
     123       0       0       1       0       0       0               0D      6
     198       4       0       0       0       0       0       000010001D      7
     198       0       0       1       1       0       0               0D      8
     124       5       0       0       0       0       0       000010001D      9
     124       0       0       1       0       0       0               0D     10
     100       6       0       0       0       0       9       000010001D     11
     100       0       0       1       0       0       0               0D     12
     502       7       0       0       0       0       0       000010001D     13
     502       0       0       4       1       0       0               0D     14
     124      11       0       0       0       0       0       000010001D     15
     124       0       0       1       0       0       0               0D     16
     100      12       0       0       0       0      15       000010001D     17
     100       0       0       1       0       0       0               0D     18
     124      13       0       0       0       0       0       000010001D     19
     124       0       0       1       0       0       0               0D     20
     100      14       0       0       0       0      19       000010001D     21
     100       0       0       1       0       0       0               0D     22
     110      15       0       0       0       0       0       000010001D     23
     110       0       0       1       0       0       0               0D     24
     124      16       0       0       0       0       0       000010001D     25
     124       0       0       1       0       0       0               0D     26
     100      17       0       0       0       0      25       000010001D     27
     100       0       0       1       0       0       0               0D     28
     110      18       0       0       0       0       0       000010001D     29
     110       0       0       1       0       0       0               0D     30
     110      19       0       0       0       0       0       000010001D     31
     110       0       0       1       0       0       0               0D     32
     110      20       0       0       0       0       0       000010001D     33
     110       0       0       1       0       0       0               0D     34
     124      21       0       0       0       0       0       000010001D     35
     124       0       0       1       0       0       0               0D     36
     100      22       0       0       0       0      35       000010001D     37
     100       0       0       1       0       0       0               0D     38
     124      23       0       0       0       0       0       000010001D     39
     124       0       0       1       0       0       0               0D     40
     100      24       0       0       0       0      39       000010001D     41
     100       0       0       1       0       0       0               0D     42
     124      25       0       0       0       0       0       000010001D     43
     124       0       0       1       0       0       0               0D     44
     100      26       0       0       0       0      43       000010001D     45
     100       0       0       1       0       0       0               0D     46
     110      27       0       0       0       0       0       000010001D     47
     110       0       0       1       0       0       0               0D     48
     110      28       0       0       0       0       0       000010001D     49
     110       0       0       1       0       0       0               0D     50
     124      29       0       0       0       0       0       000010001D     51
     124       0       0       1       0       0       0               0D     52
     100      30       0       0       0       0      51       000010001D     53
     100       0       0       1       0       0       0               0D     54
     110      31       0       0       0       0       0       000010001D     55
     110       0       0       1       0       0       0               0D     56
     124      32       0       0       0       0       0       000010001D     57
     124       0       0       1       0       0       0               0D     58
     100      33       0       0       0       0      57       000010001D     59
     100       0       0       1       0       0       0               0D     60
     110      34       0       0       0       0       0       000010001D     61
     110       0       0       1       0       0       0               0D     62
     110      35       0       0       0       0       0       000010001D     63
     110       0       0       1       0       0       0               0D     64
     504      36       0       0       0       0       0       000010001D     65
     504       0       0       4       1       0       0               0D     66
     508      40       0       0       0       0       0       000010001D     67
     508       0       0       1       1       0       0               0D     68
     510      41       0       0       0       0       0       000010001D     69
     510       0       0       1       1       0       0               0D     70
     116      42       0       0       0       0       0       000010001D     71
     116       0       0       1       0       0       0               0D     72
     123      43       0       0       0       0       0       000010201D     73
     123       0       0       1       0       0       0               0D     74
     123      44       0       0       0       0       0       000010201D     75
     123       0       0       1       0       0       0               0D     76
     190      45       0       0       0       0       0       000010001D     77
     190       0       0       1       1       0       0               0D     78
     508      46       0       0       0       0       0       000010001D     79
     508       0       0       1       1       0       0               0D     80
     510      47       0       0       0       0       0       000010001D     81
     510       0       0       1       1       0       0               0D     82
     116      48       0       0       0       0       0       000010001D     83
     116       0       0       1       0       0       0               0D     84
     123      49       0       0       0       0       0       000010201D     85
     123       0       0       1       0       0       0               0D     86
     123      50       0       0       0       0       0       000010201D     87
     123       0       0       1       0       0       0               0D     88
     192      51       0       0       0       0       0       000010001D     89
     192       0       0       1       1       0       0               0D     90
     508      52       0       0       0       0       0       000010001D     91
     508       0       0       1       1       0       0               0D     92
     510      53       0       0       0       0       0       000010001D     93
     510       0       0       1       1       0       0               0D     94
     116      54       0       0       0       0       0       000010001D     95
     116       0       0       1       0       0       0               0D     96
     123      55       0       0       0       0       0       000010201D     97
     123       0       0       1       0       0       0               0D     98
     123      56       0       0       0       0       0       000010201D     99
     123       0       0       1       0       0       0               0D    100
     198      57       0       0       0       0       0       000010001D    101
     198       0       0       1       1       0       0               0D    102
     508      58       0       0       0       0       0       000010001D    103
     508       0       0       1       1       0       0               0D    104
     510      59       0       0       0       0       0       000010001D    105
     510       0       0       1       1       0       0               0D    106
     116      60       0       0       0       0       0       000010001D    107
     116       0       0       1       0       0       0               0D    108
     123      61       0       0       0       0       0       000010201D    109
     123       0       0       1       0       0       0               0D    110
     123      62       0       0       0       0       0       000010201D    111
     123       0       0       1       0       0       0               0D    112
     192      63       0       0       0       0       0       000010001D    113
     192       0       0       1       1       0       0               0D    114
     508      64       0       0       0       0       0       000010001D    115
     508       0       0       1       1       0       0               0D    116
     510      65       0       0       0       0       0       000010001D    117
     510       0       0       1       1       0       0               0D    118
     116      66       0       0       0       0       0       000010001D    119
     116       0       0       1       0       0       0               0D    120
     123      67       0       0       0       0       0       000010201D    121
     123       0       0       1       0       0       0               0D    122
     123      68       0       0       0       0       0       000010201D    123
     123       0       0       1       0       0       0               0D    124
     190      69       0       0       0       0       0       000010001D    125
     190       0       0       1       1       0       0               0D    126
     508      70       0       0       0       0       0       000010001D    127
     508       0       0       1       1       0       0               0D    128
     510      71       0       0       0       0       0       000010001D    129
     510       0       0       1       1       0       0               0D    130
     116      72       0       0       0       0       0       000010001D    131
     116       0       0       1       0       0       0               0D    132
     123      73       0       0       0       0       0       000010201D    133
     123       0       0       1       0       0       0               0D    134
     123      74       0       0       0       0       0       000010201D    135
     123       0       0       1       0       0       0               0D    136
     190      75       0       0       0       0       0       000010001D    137
     190       0       0       1       1       0       0               0D    138
     508      76       0       0       0       0       0       000010001D    139
     508       0       0       2       1       0       0               0D    140
     510      78       0       0       0       0       0       000010001D    141
     510       0       0       1       1       0       0               0D    142
     116      79       0       0       0       0       0       000010001D    143
     116       0       0       1       0       0       0               0D    144
     123      80       0       0       0       0       0       000010201D    145
     123       0       0       1       0       0       0               0D    146
     123      81       0       0       0       0       0       000010201D    147
     123       0       0       1       0       0       0               0D    148
     190      82       0       0       0       0       0       000010001D    149
     190       0       0       1       1       0       0               0D    150
     508      83       0       0       0       0       0       000010001D    151
     508       0       0       2       1       0       0               0D    152
     510      85       0       0       0       0       0       000010001D    153
     510       0       0       1       1       0       0               0D    154
     514      86       0       0       0       0       0       000010001D    155
     514       0       0       1       1       0       0               0D    156
     186      87       0       0       0       0       0       000000001D    157
     186       0       0       1       0       0       0               0D    158
116,0.,0.,0.;                                                          1P      1
123,0.,-1.,0.;                                                         3P      2
123,0.,0.,-1.;                                                         5P      3
198,1,3,0.085,0.06103277807867,5;                                      7P      4
124,0.,1.,0.,0.,0.,0.,1.,-0.,1.,0.,0.,0.;                              9P      5
100,0.,0.,0.,0.02396722192133,0.,0.,0.02396722192133;                 11P      6
502,12,0.,0.06,0.05,0.,-0.06,0.,0.,-0.06,0.05,0.,-0.,                 13P      7
0.02396722192133,0.05,0.05,0.,0.05,0.06,0.,0.02396722192133,-0.,      13P      8
0.,0.05,-0.05,0.,0.,-0.05,0.05,0.,0.05,0.05,0.,0.06,0.,0.05,          13P      9
-0.06,0.;                                                             13P     10
124,1.,0.,0.,0.085,0.,-1.,0.,0.,0.,0.,-1.,0.;                         15P     11
100,0.,0.,0.,-0.06103277807867,0.,-0.035,-0.05;                       17P     12
124,1.,0.,0.,0.,0.,0.,-1.,-0.05,0.,1.,0.,0.;                          19P     13
100,0.,0.,0.,0.05,0.,0.,0.05;                                         21P     14
110,0.,-0.06,0.,0.05,-0.06,0.;                                        23P     15
124,1.,0.,0.,0.,0.,0.,-1.,0.05,0.,1.,0.,0.;                           25P     16
100,0.,0.,0.,0.05,0.,0.,0.05;                                         27P     17
110,0.05,-0.06,0.,0.05,-0.05,0.;                                      29P     18
110,0.,0.06,0.,0.,0.06,0.05;                                          31P     19
110,0.,0.06,0.,0.05,0.06,0.;                                          33P     20
124,0.,0.,-1.,0.,0.,1.,0.,0.,1.,0.,0.,0.085;                          35P     21
100,0.,0.,0.,-0.06103277807867,0.,-0.035,-0.05;                       37P     22
124,1.,0.,0.,0.,0.,0.,-1.,0.06,0.,1.,0.,0.;                           39P     23
100,0.,0.,0.,0.05,0.,0.,0.05;                                         41P     24
124,1.,0.,0.,0.085,0.,-1.,0.,0.,0.,0.,-1.,0.;                         43P     25
100,0.,0.,0.,-0.035,0.05,-0.06103277807867,0.;                        45P     26
110,0.,-0.05,0.05,0.,-0.06,0.05;                                      47P     27
110,0.,-0.06,0.05,0.,-0.06,0.;                                        49P     28
124,0.,0.,-1.,0.,0.,1.,0.,0.,1.,0.,0.,0.085;                          51P     29
100,0.,0.,0.,-0.035,0.05,-0.06103277807867,0.;                        53P     30
110,0.,0.06,0.05,0.,0.05,0.05;                                        55P     31
124,1.,0.,0.,0.,0.,0.,-1.,-0.06,0.,1.,0.,0.;                          57P     32
100,0.,0.,0.,0.05,0.,0.,0.05;                                         59P     33
110,0.,0.06,0.,0.,-0.06,0.;                                           61P     34
110,0.05,0.06,0.,0.05,0.05,0.;                                        63P     35
504,18,11,13,4,13,7,17,13,7,13,5,21,13,8,13,9,23,13,2,13,12,27,       65P     36
13,5,13,10,29,13,12,13,8,31,13,11,13,1,33,13,11,13,6,37,13,4,13,      65P     37
9,41,13,6,13,1,45,13,8,13,7,47,13,9,13,3,49,13,3,13,2,53,13,10,       65P     38
13,4,55,13,1,13,10,59,13,12,13,3,61,13,11,13,2,63,13,6,13,5;          65P     39
508,4,0,65,1,0,0,0,65,9,1,0,0,65,3,0,0,0,65,11,1,0;                   67P     40
510,7,1,1,67;                                                         69P     41
116,0.025,0.06,0.;                                                    71P     42
123,0.,1.,0.;                                                         73P     43
123,-1.,0.,0.;                                                        75P     44
190,71,73,75;                                                         77P     45
508,3,0,65,7,1,0,0,65,10,0,0,0,65,8,0,0;                              79P     46
510,77,1,1,79;                                                        81P     47
116,0.,0.055,0.;                                                      83P     48
123,0.,1.,0.;                                                         85P     49
123,1.,0.,0.;                                                         87P     50
192,83,85,0.05,87;                                                    89P     51
508,4,0,65,15,1,0,0,65,5,0,0,0,65,18,0,0,0,65,10,1,0;                 91P     52
510,89,1,1,91;                                                        93P     53
116,0.,0.,0.;                                                         95P     54
123,0.,-1.,0.;                                                        97P     55
123,0.,0.,-1.;                                                        99P     56
198,95,97,0.085,0.06103277807867,99;                                 101P     57
508,4,0,65,1,1,0,0,65,2,1,0,0,65,5,1,0,0,65,14,1,0;                  103P     58
510,101,1,1,103;                                                     105P     59
116,0.,-0.055,0.;                                                    107P     60
123,0.,1.,0.;                                                        109P     61
123,1.,0.,0.;                                                        111P     62
192,107,109,0.05,111;                                                113P     63
508,4,0,65,12,1,0,0,65,16,0,0,0,65,6,1,0,0,65,3,1,0;                 115P     64
510,113,1,1,115;                                                     117P     65
116,0.025,-0.06,0.;                                                  119P     66
123,0.,-1.,0.;                                                       121P     67
123,1.,0.,0.;                                                        123P     68
190,119,121,123;                                                     125P     69
508,3,0,65,13,1,0,0,65,4,1,0,0,65,16,1,0;                            127P     70
510,125,1,1,127;                                                     129P     71
116,0.,-0.,0.02115677510991;                                         131P     72
123,-1.,0.,0.;                                                       133P     73
123,0.,0.,1.;                                                        135P     74
190,131,133,135;                                                     137P     75
508,7,0,65,7,0,0,0,65,17,1,0,0,65,13,0,0,0,65,12,0,0,0,65,9,0,0,     139P     76
0,65,14,0,0,0,65,15,0,0;                                             139P     77
510,137,1,1,139;                                                     141P     78
116,0.02115677510991,-0.,0.;                                         143P     79
123,0.,0.,1.;                                                        145P     80
123,1.,0.,0.;                                                        147P     81
190,143,145,147;                                                     149P     82
508,7,0,65,17,0,0,0,65,8,1,0,0,65,18,1,0,0,65,2,0,0,0,65,11,0,0,     151P     83
0,65,6,0,0,0,65,4,0,0;                                               151P     84
510,149,1,1,151;                                                     153P     85
514,8,69,1,81,1,93,1,105,1,117,1,129,1,141,1,153,0;                  155P     86
186,155,1,0;                                                         157P     87
S      1G      3D    158P     87                                        T      1
